# Exported from Wings 3D 0.98.32a
mtllib ceiling.mtl
o ceiling
#4 vertices, 2 faces
v 46.90180256 48.97471676 46.89113589
v 46.90180256 48.97471676 -46.89113589
v -46.89113589 48.97471676 -46.89113589
v -46.89113589 48.97471676 46.89113589
vn 0.0000000e+0 1.00000000 0.0000000e+0
vn 0.0000000e+0 -1.00000000 0.0000000e+0
vn 0.0000000e+0 1.00000000 0.0000000e+0
vn 0.0000000e+0 -1.00000000 0.0000000e+0
vn 0.0000000e+0 1.00000000 0.0000000e+0
vn 0.0000000e+0 -1.00000000 0.0000000e+0
vn 0.0000000e+0 1.00000000 0.0000000e+0
vn 0.0000000e+0 -1.00000000 0.0000000e+0
usemtl default
f 1//2 4//8 3//6 2//4
f 2//3 3//5 4//7 1//1
