o box
v -9.75 -9.75 -4.75
v 9.75 -9.75 -4.75
v -9.75 9.75 -4.75
v 9.75 9.75 -4.75
v -9.75 -9.75 4.75
v 9.75 -9.75 4.75
v -9.75 9.75 4.75
v 9.75 9.75 4.75
vn -0.577350 -0.577350 -0.577350
vn 0.577350 -0.577350 -0.577350
vn -0.577350 0.577350 -0.577350
vn 0.577350 0.577350 -0.577350
vn -0.577350 -0.577350 0.577350
vn 0.577350 -0.577350 0.577350
vn -0.577350 0.577350 0.577350
vn 0.577350 0.577350 0.577350
g box
usemtl Default
f 4//4 2//2 1//1 3//3 
f 6//6 8//8 7//7 5//5 
f 6//6 5//5 1//1 2//2 
f 8//8 6//6 2//2 4//4 
f 7//7 8//8 4//4 3//3 
f 5//5 7//7 3//3 1//1 
