# File generated by appleseed.dll version 1.1.0-alpha-19-0-g9320c31.
o short_block
# 20 vertices.
v 130.000000000000000 165.000000000000000 65.000000000000000
v 82.000000000000000 165.000000000000000 225.000000000000000
v 240.000000000000000 165.000000000000000 272.000000000000000
v 290.000000000000000 165.000000000000000 114.000000000000000
v 290.000000000000000 0.000000000000000 114.000000000000000
v 290.000000000000000 165.000000000000000 114.000000000000000
v 240.000000000000000 165.000000000000000 272.000000000000000
v 240.000000000000000 0.000000000000000 272.000000000000000
v 130.000000000000000 0.000000000000000 65.000000000000000
v 130.000000000000000 165.000000000000000 65.000000000000000
v 290.000000000000000 165.000000000000000 114.000000000000000
v 290.000000000000000 0.000000000000000 114.000000000000000
v 82.000000000000000 0.000000000000000 225.000000000000000
v 82.000000000000000 165.000000000000000 225.000000000000000
v 130.000000000000000 165.000000000000000 65.000000000000000
v 130.000000000000000 0.000000000000000 65.000000000000000
v 240.000000000000000 0.000000000000000 272.000000000000000
v 240.000000000000000 165.000000000000000 272.000000000000000
v 82.000000000000000 165.000000000000000 225.000000000000000
v 82.000000000000000 0.000000000000000 225.000000000000000
# 5 vertex normals.
vn 0.000000000000000 1.000000000000000 0.000000000000000
vn 0.953400075435638 0.000000000000000 0.301708877086639
vn 0.292825788259506 0.000000000000000 -0.956165790557861
vn -0.957826316356659 0.000000000000000 -0.287347882986069
vn -0.285120904445648 0.000000000000000 0.958491563796997
# 10 faces.
f 1//1 2//1 3//1
f 1//1 3//1 4//1
f 5//2 6//2 7//2
f 5//2 7//2 8//2
f 9//3 10//3 11//3
f 9//3 11//3 12//3
f 13//4 14//4 15//4
f 13//4 15//4 16//4
f 17//5 18//5 19//5
f 17//5 19//5 20//5
