# Exported from Wings 3D 1.3.0.1
mtllib floor.mtl
o floor
#4 vertices, 2 faces
v 40.80595400 1.6000000e-2 -40.79528800
v 40.80595400 1.6000000e-2 40.79528800
v -40.79528800 1.6000000e-2 40.79528800
v -40.79528800 1.6000000e-2 -40.79528800
vt 4.9500000e-3 5.0150000e-3
vt 4.9500000e-3 0.99498500
vt 0.99504900 5.0150000e-3
vt 0.99504900 0.99498500
vn 0.0000000e+0 1.00000000 0.0000000e+0
vn 0.0000000e+0 1.00000000 0.0000000e+0
vn 0.0000000e+0 1.00000000 0.0000000e+0
vn 0.0000000e+0 1.00000000 0.0000000e+0
vn 0.0000000e+0 1.00000000 0.0000000e+0
vn 0.0000000e+0 1.00000000 0.0000000e+0
g floor
usemtl Default
s 2
f 1/4/2 4/2/6 3/1/5
s 3
f 1/4/1 3/1/4 2/3/3
