mtllib static_sphere.mtl
o static_sphere.obj
v 0.500000 1.866025 0.000000
v 0.866025 1.500000 0.000000
v 1.000000 1.000000 0.000000
v 0.866025 0.500000 0.000000
v 0.500000 0.133975 0.000000
v 0.433013 1.866025 0.250000
v 0.750000 1.500000 0.433013
v 0.866025 1.000000 0.500000
v 0.750000 0.500000 0.433013
v 0.433013 0.133975 0.250000
v 0.250000 1.866025 0.433013
v 0.433013 1.500000 0.750000
v 0.500000 1.000000 0.866025
v 0.433013 0.500000 0.750000
v 0.250000 0.133975 0.433013
v -0.000000 1.866025 0.500000
v -0.000000 1.500000 0.866025
v -0.000000 1.000000 1.000000
v -0.000000 0.500000 0.866025
v -0.000000 0.133975 0.500000
v -0.250000 1.866025 0.433013
v -0.433013 1.500000 0.750000
v -0.500000 1.000000 0.866025
v -0.433013 0.500000 0.750000
v -0.250000 0.133975 0.433013
v -0.433013 1.866025 0.250000
v -0.750000 1.500000 0.433013
v -0.866025 1.000000 0.500000
v -0.750000 0.500000 0.433013
v -0.433013 0.133975 0.250000
v -0.500000 1.866025 -0.000000
v -0.866025 1.500000 -0.000000
v -1.000000 1.000000 -0.000000
v -0.866025 0.500000 -0.000000
v -0.500000 0.133975 -0.000000
v -0.433013 1.866025 -0.250000
v -0.750000 1.500000 -0.433013
v -0.866025 1.000000 -0.500000
v -0.750000 0.500000 -0.433013
v -0.433013 0.133975 -0.250000
v -0.250000 1.866025 -0.433013
v -0.433013 1.500000 -0.750000
v -0.500000 1.000000 -0.866025
v -0.433013 0.500000 -0.750000
v -0.250000 0.133975 -0.433013
v 0.000000 1.866025 -0.500000
v 0.000000 1.500000 -0.866025
v 0.000000 1.000000 -1.000000
v 0.000000 0.500000 -0.866025
v 0.000000 0.133975 -0.500000
v 0.250000 1.866025 -0.433013
v 0.433013 1.500000 -0.750000
v 0.500000 1.000000 -0.866025
v 0.433013 0.500000 -0.750000
v 0.250000 0.133975 -0.433013
v 0.433013 1.866025 -0.250000
v 0.750000 1.500000 -0.433013
v 0.866025 1.000000 -0.500000
v 0.750000 0.500000 -0.433013
v 0.433013 0.133975 -0.250000
v 0.000000 2.000000 0.000000
v 0.000000 0.000000 0.000000
vn 0.498231 0.867044 -0.000000
vn 0.865033 0.501714 -0.000000
vn 1.000000 0.000000 -0.000000
vn 0.865033 -0.501715 -0.000000
vn 0.498231 -0.867044 -0.000000
vn 0.431481 0.867044 0.249116
vn 0.749141 0.501714 0.432517
vn 0.866025 -0.000000 0.500000
vn 0.749141 -0.501714 0.432517
vn 0.431481 -0.867044 0.249116
vn 0.249116 0.867044 0.431481
vn 0.432517 0.501714 0.749141
vn 0.500000 -0.000000 0.866025
vn 0.432517 -0.501714 0.749141
vn 0.249116 -0.867044 0.431481
vn -0.000000 0.867044 0.498231
vn -0.000000 0.501714 0.865033
vn -0.000000 -0.000000 1.000000
vn -0.000000 -0.501714 0.865033
vn -0.000000 -0.867044 0.498231
vn -0.249116 0.867044 0.431481
vn -0.432517 0.501714 0.749141
vn -0.500000 -0.000000 0.866025
vn -0.432517 -0.501714 0.749141
vn -0.249116 -0.867044 0.431481
vn -0.431481 0.867044 0.249116
vn -0.749141 0.501714 0.432517
vn -0.866025 -0.000000 0.500000
vn -0.749141 -0.501714 0.432517
vn -0.431481 -0.867044 0.249116
vn -0.498231 0.867044 -0.000000
vn -0.865033 0.501714 -0.000000
vn -1.000000 0.000000 -0.000000
vn -0.865033 -0.501714 -0.000000
vn -0.498231 -0.867044 -0.000000
vn -0.431481 0.867044 -0.249116
vn -0.749141 0.501714 -0.432517
vn -0.866025 0.000000 -0.500000
vn -0.749141 -0.501714 -0.432517
vn -0.431481 -0.867044 -0.249116
vn -0.249116 0.867044 -0.431481
vn -0.432517 0.501714 -0.749141
vn -0.500000 0.000000 -0.866025
vn -0.432517 -0.501714 -0.749141
vn -0.249116 -0.867044 -0.431481
vn 0.000000 0.867044 -0.498231
vn 0.000000 0.501714 -0.865033
vn 0.000000 0.000000 -1.000000
vn 0.000000 -0.501714 -0.865033
vn 0.000000 -0.867044 -0.498231
vn 0.249116 0.867044 -0.431481
vn 0.432517 0.501714 -0.749141
vn 0.500000 0.000000 -0.866025
vn 0.432517 -0.501715 -0.749141
vn 0.249116 -0.867044 -0.431481
vn 0.431481 0.867044 -0.249116
vn 0.749141 0.501714 -0.432517
vn 0.866025 0.000000 -0.500000
vn 0.749141 -0.501715 -0.432517
vn 0.431481 -0.867044 -0.249116
vn -0.000000 1.000000 -0.000000
vn 0.000000 -1.000000 -0.000000
vt 0.871287 0.285637
vt 0.928725 0.500000
vt 0.747525 0.500000
vt 0.714363 0.376238
vt 0.928725 0.252475
vt 0.995049 0.500000
vt 0.871287 0.285637
vt 0.928725 0.500000
vt 0.714363 0.376238
vt 0.747525 0.500000
vt 0.500000 0.500000
vt 0.500000 0.500000
vt 0.714363 0.128713
vt 0.623762 0.285637
vt 0.747525 0.071275
vt 0.714363 0.128713
vt 0.623762 0.285637
vt 0.500000 0.071275
vt 0.500000 0.252475
vt 0.500000 0.004950
vt 0.500000 0.071275
vt 0.500000 0.252475
vt 0.285637 0.128713
vt 0.376238 0.285637
vt 0.252475 0.071275
vt 0.285637 0.128713
vt 0.376238 0.285637
vt 0.128713 0.285637
vt 0.285637 0.376238
vt 0.071275 0.252475
vt 0.128713 0.285637
vt 0.285637 0.376238
vt 0.071275 0.500000
vt 0.252475 0.500000
vt 0.004950 0.500000
vt 0.071275 0.500000
vt 0.252475 0.500000
vt 0.128713 0.714363
vt 0.285637 0.623762
vt 0.071275 0.747525
vt 0.128713 0.714363
vt 0.285637 0.623762
vt 0.285637 0.871287
vt 0.376238 0.714363
vt 0.252475 0.928725
vt 0.285637 0.871287
vt 0.376238 0.714363
vt 0.500000 0.928725
vt 0.500000 0.747525
vt 0.500000 0.995049
vt 0.500000 0.928725
vt 0.500000 0.747525
vt 0.714363 0.871287
vt 0.623762 0.714363
vt 0.747525 0.928725
vt 0.714363 0.871287
vt 0.623762 0.714363
vt 0.871287 0.714363
vt 0.714363 0.623762
vt 0.928725 0.747525
vt 0.871287 0.714363
vt 0.714363 0.623762
g sphere
usemtl Default
f 7/1/7 2/2/2 1/3/1 6/4/6 
f 8/5/8 3/6/3 2/2/2 7/1/7 
f 9/7/9 4/8/4 3/6/3 8/5/8 
f 10/9/10 5/10/5 4/8/4 9/7/9 
f 6/4/6 1/3/1 61/11/61 
f 5/10/5 10/9/10 62/12/62 
f 12/13/12 7/1/7 6/4/6 11/14/11 
f 13/15/13 8/5/8 7/1/7 12/13/12 
f 14/16/14 9/7/9 8/5/8 13/15/13 
f 15/17/15 10/9/10 9/7/9 14/16/14 
f 11/14/11 6/4/6 61/11/61 
f 10/9/10 15/17/15 62/12/62 
f 17/18/17 12/13/12 11/14/11 16/19/16 
f 18/20/18 13/15/13 12/13/12 17/18/17 
f 19/21/19 14/16/14 13/15/13 18/20/18 
f 20/22/20 15/17/15 14/16/14 19/21/19 
f 16/19/16 11/14/11 61/11/61 
f 15/17/15 20/22/20 62/12/62 
f 22/23/22 17/18/17 16/19/16 21/24/21 
f 23/25/23 18/20/18 17/18/17 22/23/22 
f 24/26/24 19/21/19 18/20/18 23/25/23 
f 25/27/25 20/22/20 19/21/19 24/26/24 
f 21/24/21 16/19/16 61/11/61 
f 20/22/20 25/27/25 62/12/62 
f 27/28/27 22/23/22 21/24/21 26/29/26 
f 28/30/28 23/25/23 22/23/22 27/28/27 
f 29/31/29 24/26/24 23/25/23 28/30/28 
f 30/32/30 25/27/25 24/26/24 29/31/29 
f 26/29/26 21/24/21 61/11/61 
f 25/27/25 30/32/30 62/12/62 
f 32/33/32 27/28/27 26/29/26 31/34/31 
f 33/35/33 28/30/28 27/28/27 32/33/32 
f 34/36/34 29/31/29 28/30/28 33/35/33 
f 35/37/35 30/32/30 29/31/29 34/36/34 
f 31/34/31 26/29/26 61/11/61 
f 30/32/30 35/37/35 62/12/62 
f 37/38/37 32/33/32 31/34/31 36/39/36 
f 38/40/38 33/35/33 32/33/32 37/38/37 
f 39/41/39 34/36/34 33/35/33 38/40/38 
f 40/42/40 35/37/35 34/36/34 39/41/39 
f 36/39/36 31/34/31 61/11/61 
f 35/37/35 40/42/40 62/12/62 
f 42/43/42 37/38/37 36/39/36 41/44/41 
f 43/45/43 38/40/38 37/38/37 42/43/42 
f 44/46/44 39/41/39 38/40/38 43/45/43 
f 45/47/45 40/42/40 39/41/39 44/46/44 
f 41/44/41 36/39/36 61/11/61 
f 40/42/40 45/47/45 62/12/62 
f 47/48/47 42/43/42 41/44/41 46/49/46 
f 48/50/48 43/45/43 42/43/42 47/48/47 
f 49/51/49 44/46/44 43/45/43 48/50/48 
f 50/52/50 45/47/45 44/46/44 49/51/49 
f 46/49/46 41/44/41 61/11/61 
f 45/47/45 50/52/50 62/12/62 
f 52/53/52 47/48/47 46/49/46 51/54/51 
f 53/55/53 48/50/48 47/48/47 52/53/52 
f 54/56/54 49/51/49 48/50/48 53/55/53 
f 55/57/55 50/52/50 49/51/49 54/56/54 
f 51/54/51 46/49/46 61/11/61 
f 50/52/50 55/57/55 62/12/62 
f 57/58/57 52/53/52 51/54/51 56/59/56 
f 58/60/58 53/55/53 52/53/52 57/58/57 
f 59/61/59 54/56/54 53/55/53 58/60/58 
f 60/62/60 55/57/55 54/56/54 59/61/59 
f 56/59/56 51/54/51 61/11/61 
f 55/57/55 60/62/60 62/12/62 
f 2/2/2 57/58/57 56/59/56 1/3/1 
f 3/6/3 58/60/58 57/58/57 2/2/2 
f 4/8/4 59/61/59 58/60/58 3/6/3 
f 5/10/5 60/62/60 59/61/59 4/8/4 
f 1/3/1 56/59/56 61/11/61 
f 60/62/60 5/10/5 62/12/62 
