# Exported from Wings 3D 1.3.0.1
mtllib box scene.mtl
o sphere
#62 vertices, 72 faces
v 0.10000000 0.57320500 0.0000000e+0
v 0.17320500 0.50000000 0.0000000e+0
v 0.20000000 0.40000000 0.0000000e+0
v 0.17320500 0.30000000 0.0000000e+0
v 0.10000000 0.22679500 0.0000000e+0
v 8.6603000e-2 0.57320500 5.0000000e-2
v 0.15000000 0.50000000 8.6603000e-2
v 0.17320500 0.40000000 0.10000000
v 0.15000000 0.30000000 8.6603000e-2
v 8.6603000e-2 0.22679500 5.0000000e-2
v 5.0000000e-2 0.57320500 8.6603000e-2
v 8.6603000e-2 0.50000000 0.15000000
v 0.10000000 0.40000000 0.17320500
v 8.6603000e-2 0.30000000 0.15000000
v 5.0000000e-2 0.22679500 8.6603000e-2
v 0.0000000e+0 0.57320500 0.10000000
v 0.0000000e+0 0.50000000 0.17320500
v 0.0000000e+0 0.40000000 0.20000000
v 0.0000000e+0 0.30000000 0.17320500
v 0.0000000e+0 0.22679500 0.10000000
v -5.0000000e-2 0.57320500 8.6603000e-2
v -8.6603000e-2 0.50000000 0.15000000
v -0.10000000 0.40000000 0.17320500
v -8.6603000e-2 0.30000000 0.15000000
v -5.0000000e-2 0.22679500 8.6603000e-2
v -8.6603000e-2 0.57320500 5.0000000e-2
v -0.15000000 0.50000000 8.6603000e-2
v -0.17320500 0.40000000 0.10000000
v -0.15000000 0.30000000 8.6603000e-2
v -8.6603000e-2 0.22679500 5.0000000e-2
v -0.10000000 0.57320500 0.0000000e+0
v -0.17320500 0.50000000 0.0000000e+0
v -0.20000000 0.40000000 0.0000000e+0
v -0.17320500 0.30000000 0.0000000e+0
v -0.10000000 0.22679500 0.0000000e+0
v -8.6603000e-2 0.57320500 -5.0000000e-2
v -0.15000000 0.50000000 -8.6603000e-2
v -0.17320500 0.40000000 -0.10000000
v -0.15000000 0.30000000 -8.6603000e-2
v -8.6603000e-2 0.22679500 -5.0000000e-2
v -5.0000000e-2 0.57320500 -8.6603000e-2
v -8.6603000e-2 0.50000000 -0.15000000
v -0.10000000 0.40000000 -0.17320500
v -8.6603000e-2 0.30000000 -0.15000000
v -5.0000000e-2 0.22679500 -8.6603000e-2
v 0.0000000e+0 0.57320500 -0.10000000
v 0.0000000e+0 0.50000000 -0.17320500
v 0.0000000e+0 0.40000000 -0.20000000
v 0.0000000e+0 0.30000000 -0.17320500
v 0.0000000e+0 0.22679500 -0.10000000
v 5.0000000e-2 0.57320500 -8.6603000e-2
v 8.6603000e-2 0.50000000 -0.15000000
v 0.10000000 0.40000000 -0.17320500
v 8.6603000e-2 0.30000000 -0.15000000
v 5.0000000e-2 0.22679500 -8.6603000e-2
v 8.6603000e-2 0.57320500 -5.0000000e-2
v 0.15000000 0.50000000 -8.6603000e-2
v 0.17320500 0.40000000 -0.10000000
v 0.15000000 0.30000000 -8.6602000e-2
v 8.6603000e-2 0.22679500 -5.0000000e-2
v 0.0000000e+0 0.60000000 0.0000000e+0
v 0.0000000e+0 0.20000000 0.0000000e+0
vt 4.9500000e-3 0.50000000
vt 7.1274000e-2 0.50000000
vt 7.1275000e-2 0.25247500
vt 7.1275000e-2 0.50000000
vt 7.1275000e-2 0.74752500
vt 0.12871300 0.28563700
vt 0.12871300 0.71436300
vt 0.25247500 7.1275000e-2
vt 0.25247500 0.50000000
vt 0.25247500 0.92872500
vt 0.28563700 0.12871300
vt 0.28563700 0.37623800
vt 0.28563700 0.62376200
vt 0.28563700 0.87128700
vt 0.37623800 0.28563700
vt 0.37623800 0.71436300
vt 0.50000000 4.9510000e-3
vt 0.50000000 7.1275000e-2
vt 0.50000000 0.25247500
vt 0.50000000 0.50000000
vt 0.50000000 0.74752500
vt 0.50000000 0.92872500
vt 0.50000000 0.99504900
vt 0.62376200 0.28563700
vt 0.62376200 0.71436300
vt 0.71436300 0.12871300
vt 0.71436300 0.37623800
vt 0.71436300 0.62376200
vt 0.71436300 0.87128700
vt 0.74752500 7.1275000e-2
vt 0.74752500 0.50000000
vt 0.74752500 0.92872500
vt 0.87128700 0.28563700
vt 0.87128700 0.71436300
vt 0.92872500 0.25247500
vt 0.92872500 0.50000000
vt 0.92872500 0.74752500
vt 0.99504900 0.50000000
vn 0.49823230 0.86704358 3.6278813e-18
vn 0.86503382 0.50171356 0.0000000e+0
vn 1.00000000 -3.1390867e-7 -3.1390867e-7
vn 0.86503373 -0.50171370 -6.9263249e-7
vn 0.49823243 -0.86704351 -3.7536762e-7
vn 0.43148153 0.86704428 0.24911426
vn 0.74914177 0.50171355 0.43251604
vn 0.86602551 5.9363006e-17 0.49999982
vn 0.74914177 -0.50171355 0.43251604
vn 0.43148153 -0.86704428 0.24911426
vn 0.24911426 0.86704428 0.43148153
vn 0.43251604 0.50171355 0.74914177
vn 0.49999982 5.9363006e-17 0.86602551
vn 0.43251604 -0.50171355 0.74914177
vn 0.24911426 -0.86704428 0.43148153
vn 0.0000000e+0 0.86704358 0.49823230
vn 0.0000000e+0 0.50171356 0.86503382
vn -1.4840754e-17 5.9363014e-17 1.00000000
vn 7.3655070e-18 -0.50171356 0.86503382
vn -7.2557626e-18 -0.86704358 0.49823230
vn -0.24911426 0.86704428 0.43148153
vn -0.43251604 0.50171355 0.74914177
vn -0.49999982 5.9363006e-17 0.86602551
vn -0.43251604 -0.50171355 0.74914177
vn -0.24911426 -0.86704428 0.43148153
vn -0.43148153 0.86704428 0.24911426
vn -0.74914177 0.50171355 0.43251604
vn -0.86602551 5.9363006e-17 0.49999982
vn -0.74914177 -0.50171355 0.43251604
vn -0.43148153 -0.86704428 0.24911426
vn -0.49823230 0.86704358 3.6278813e-18
vn -0.86503382 0.50171356 0.0000000e+0
vn -1.00000000 5.9363014e-17 -1.4840754e-17
vn -0.86503382 -0.50171356 7.3655070e-18
vn -0.49823230 -0.86704358 -3.6278813e-18
vn -0.43148153 0.86704428 -0.24911426
vn -0.74914177 0.50171355 -0.43251604
vn -0.86602551 5.9363006e-17 -0.49999982
vn -0.74914177 -0.50171355 -0.43251604
vn -0.43148153 -0.86704428 -0.24911426
vn -0.24911426 0.86704428 -0.43148153
vn -0.43251604 0.50171355 -0.74914177
vn -0.49999982 5.9363006e-17 -0.86602551
vn -0.43251604 -0.50171355 -0.74914177
vn -0.24911426 -0.86704428 -0.43148153
vn 0.0000000e+0 0.86704358 -0.49823230
vn 0.0000000e+0 0.50171356 -0.86503382
vn 1.4840754e-17 5.9363014e-17 -1.00000000
vn -7.3655070e-18 -0.50171356 -0.86503382
vn 7.2557626e-18 -0.86704358 -0.49823230
vn 0.24911426 0.86704428 -0.43148153
vn 0.43251604 0.50171355 -0.74914177
vn 0.50000057 -8.5761198e-7 -0.86602508
vn 0.43251757 -0.50171395 -0.74914062
vn 0.24911532 -0.86704408 -0.43148132
vn 0.43148153 0.86704428 -0.24911426
vn 0.74914177 0.50171355 -0.43251604
vn 0.86602581 -1.1715201e-6 -0.49999929
vn 0.74914235 -0.50171351 -0.43251508
vn 0.43148262 -0.86704372 -0.24911431
vn 0.0000000e+0 1.00000000 6.0007716e-18
vn 0.0000000e+0 -1.00000000 -1.2001543e-18
g sphere
usemtl Default
s 1
f 1/31/1 6/27/6 7/33/7 2/36/2
f 1/31/1 61/20/61 6/27/6
f 2/36/2 7/33/7 8/35/8 3/38/3
f 2/36/2 57/34/57 56/28/56 1/31/1
f 3/38/3 8/35/8 9/33/9 4/36/4
f 3/38/3 58/37/58 57/34/57 2/36/2
f 4/36/4 9/33/9 10/27/10 5/31/5
f 4/36/4 59/34/59 58/37/58 3/38/3
f 5/31/5 60/28/60 59/34/59 4/36/4
f 5/31/5 62/20/62 60/28/60
f 6/27/6 11/24/11 12/26/12 7/33/7
f 6/27/6 61/20/61 11/24/11
f 7/33/7 12/26/12 13/30/13 8/35/8
f 8/35/8 13/30/13 14/26/14 9/33/9
f 9/33/9 14/26/14 15/24/15 10/27/10
f 10/27/10 62/20/62 5/31/5
f 11/24/11 16/19/16 17/18/17 12/26/12
f 11/24/11 61/20/61 16/19/16
f 12/26/12 17/18/17 18/17/18 13/30/13
f 13/30/13 18/17/18 19/18/19 14/26/14
f 14/26/14 19/18/19 20/19/20 15/24/15
f 15/24/15 62/20/62 10/27/10
f 16/19/16 21/15/21 22/11/22 17/18/17
f 16/19/16 61/20/61 21/15/21
f 17/18/17 22/11/22 23/8/23 18/17/18
f 18/17/18 23/8/23 24/11/24 19/18/19
f 19/18/19 24/11/24 25/15/25 20/19/20
f 20/19/20 62/20/62 15/24/15
f 21/15/21 26/12/26 27/6/27 22/11/22
f 21/15/21 61/20/61 26/12/26
f 22/11/22 27/6/27 28/3/28 23/8/23
f 23/8/23 28/3/28 29/6/29 24/11/24
f 24/11/24 29/6/29 30/12/30 25/15/25
f 25/15/25 62/20/62 20/19/20
f 26/12/26 31/9/31 32/2/32 27/6/27
f 26/12/26 61/20/61 31/9/31
f 27/6/27 32/2/32 33/1/33 28/3/28
f 28/3/28 33/1/33 34/4/34 29/6/29
f 29/6/29 34/4/34 35/9/35 30/12/30
f 30/12/30 62/20/62 25/15/25
f 31/9/31 36/13/36 37/7/37 32/2/32
f 31/9/31 61/20/61 36/13/36
f 32/2/32 37/7/37 38/5/38 33/1/33
f 33/1/33 38/5/38 39/7/39 34/4/34
f 34/4/34 39/7/39 40/13/40 35/9/35
f 35/9/35 62/20/62 30/12/30
f 36/13/36 41/16/41 42/14/42 37/7/37
f 36/13/36 61/20/61 41/16/41
f 37/7/37 42/14/42 43/10/43 38/5/38
f 38/5/38 43/10/43 44/14/44 39/7/39
f 39/7/39 44/14/44 45/16/45 40/13/40
f 40/13/40 62/20/62 35/9/35
f 41/16/41 46/21/46 47/22/47 42/14/42
f 41/16/41 61/20/61 46/21/46
f 42/14/42 47/22/47 48/23/48 43/10/43
f 43/10/43 48/23/48 49/22/49 44/14/44
f 44/14/44 49/22/49 50/21/50 45/16/45
f 45/16/45 62/20/62 40/13/40
f 46/21/46 51/25/51 52/29/52 47/22/47
f 46/21/46 61/20/61 51/25/51
f 47/22/47 52/29/52 53/32/53 48/23/48
f 48/23/48 53/32/53 54/29/54 49/22/49
f 49/22/49 54/29/54 55/25/55 50/21/50
f 50/21/50 62/20/62 45/16/45
f 51/25/51 56/28/56 57/34/57 52/29/52
f 51/25/51 61/20/61 56/28/56
f 52/29/52 57/34/57 58/37/58 53/32/53
f 53/32/53 58/37/58 59/34/59 54/29/54
f 54/29/54 59/34/59 60/28/60 55/25/55
f 55/25/55 62/20/62 50/21/50
f 56/28/56 61/20/61 1/31/1
f 60/28/60 62/20/62 55/25/55
o light
#4 vertices, 1 faces
v -0.10000000 0.99000000 0.10000000
v 0.10000000 0.99000000 0.10000000
v -0.10000000 0.99000000 -0.10000000
v 0.10000000 0.99000000 -0.10000000
vt 4.9510000e-3 4.9510000e-3
vt 4.9510000e-3 0.99504900
vt 0.99504900 4.9510000e-3
vt 0.99504900 0.99504900
vn 0.0000000e+0 -1.00000000 0.0000000e+0
vn 0.0000000e+0 -1.00000000 0.0000000e+0
vn 0.0000000e+0 -1.00000000 0.0000000e+0
vn 0.0000000e+0 -1.00000000 0.0000000e+0
g light
usemtl Default
s 2
f 63/40/63 65/39/65 66/41/66 64/42/64
o walls
#8 vertices, 5 faces
v -0.50000000 0.0000000e+0 -0.50000000
v 0.50000000 0.0000000e+0 -0.50000000
v -0.50000000 1.00000000 -0.50000000
v 0.50000000 1.00000000 -0.50000000
v -0.50000000 0.0000000e+0 0.50000000
v 0.50000000 0.0000000e+0 0.50000000
v -0.50000000 1.00000000 0.50000000
v 0.50000000 1.00000000 0.50000000
vt 4.9500000e-3 4.9500000e-3
vt 4.9500000e-3 0.99504900
vt 0.99504900 4.9500000e-3
vt 0.99504900 0.99504900
vn 0.0000000e+0 0.0000000e+0 1.00000000
vn 0.0000000e+0 1.00000000 0.0000000e+0
vn 1.00000000 0.0000000e+0 0.0000000e+0
vn 0.0000000e+0 0.0000000e+0 1.00000000
vn 0.0000000e+0 1.00000000 0.0000000e+0
vn -1.00000000 0.0000000e+0 0.0000000e+0
vn 0.0000000e+0 0.0000000e+0 1.00000000
vn 0.0000000e+0 -1.00000000 0.0000000e+0
vn 1.00000000 0.0000000e+0 0.0000000e+0
vn 0.0000000e+0 0.0000000e+0 1.00000000
vn -1.00000000 0.0000000e+0 0.0000000e+0
vn 0.0000000e+0 -1.00000000 0.0000000e+0
vn 0.0000000e+0 1.00000000 0.0000000e+0
vn 1.00000000 0.0000000e+0 0.0000000e+0
vn 0.0000000e+0 1.00000000 0.0000000e+0
vn -1.00000000 0.0000000e+0 0.0000000e+0
vn 0.0000000e+0 -1.00000000 0.0000000e+0
vn 1.00000000 0.0000000e+0 0.0000000e+0
vn -1.00000000 0.0000000e+0 0.0000000e+0
vn 0.0000000e+0 -1.00000000 0.0000000e+0
g walls
usemtl Default
s 1
f 68/46/70 70/46/76 69/44/73 67/44/67
s 2
f 68/46/72 72/45/82 74/45/85 70/46/77
f 69/44/75 73/43/84 71/43/80 67/44/69
s 3
f 67/44/68 71/43/79 72/45/81 68/46/71
f 70/46/78 74/45/86 73/43/83 69/44/74
