# Exported from Wings 3D 1.3.0.1
mtllib two squares.mtl
o back_square
#4 vertices, 1 faces
v 0.00000000 0.50000000 -1.00000000
v 0.50000000 0.50000000 -1.00000000
v 0.00000000 0.00000000 -1.00000000
v 0.50000000 0.00000000 -1.00000000
vt 0.0 1.0
vt 1.0 1.0
vt 0.0 0.0
vt 1.0 0.0
vn 0.0000000e+0 0.0000000e+0 1.00000000
vn 0.0000000e+0 0.0000000e+0 1.00000000
vn 0.0000000e+0 0.0000000e+0 1.00000000
vn 0.0000000e+0 0.0000000e+0 1.00000000
g back_square
usemtl Default
s 2
f 1/1/1 3/3/3 4/4/4 2/2/2
o front_square
#4 vertices, 1 faces
v -0.20000000 0.20000000 0.0000000e+0
v 0.20000000 0.20000000 0.0000000e+0
v -0.20000000 -0.20000000 0.0000000e+0
v 0.20000000 -0.20000000 0.0000000e+0
vt 0.0 1.0
vt 1.0 1.0
vt 0.0 0.0
vt 1.0 0.0
vn 0.0000000e+0 0.0000000e+0 1.00000000
vn 0.0000000e+0 0.0000000e+0 1.00000000
vn 0.0000000e+0 0.0000000e+0 1.00000000
vn 0.0000000e+0 0.0000000e+0 1.00000000
g front_square
usemtl Default
s 2
f 5/5/5 7/7/7 8/8/8 6/6/6
