# File generated by ms_export_obj (Python) version 0.1.3
v -0.5 -1.11022302463e-16 0.5
v -0.40000000596 -1.11022302463e-16 0.5
v -0.300000011921 -1.11022302463e-16 0.5
v -0.199999988079 -1.11022302463e-16 0.5
v -0.0999999940395 -1.11022302463e-16 0.5
v 0.0 -1.11022302463e-16 0.5
v 0.100000023842 -1.11022302463e-16 0.5
v 0.199999988079 -1.11022302463e-16 0.5
v 0.300000011921 -1.11022302463e-16 0.5
v 0.400000035763 -1.11022302463e-16 0.5
v 0.5 -1.11022302463e-16 0.5
v -0.5 -8.88178432935e-17 0.40000000596
v -0.40000000596 -8.88178432935e-17 0.40000000596
v -0.300000011921 -8.88178432935e-17 0.40000000596
v -0.199999988079 -8.88178432935e-17 0.40000000596
v -0.0999999940395 -8.88178432935e-17 0.40000000596
v 0.0 -8.88178432935e-17 0.40000000596
v 0.100000023842 -8.88178432935e-17 0.40000000596
v 0.199999988079 -8.88178432935e-17 0.40000000596
v 0.300000011921 -8.88178432935e-17 0.40000000596
v 0.400000035763 -8.88178432935e-17 0.40000000596
v 0.5 -8.88178432935e-17 0.40000000596
v -0.5 -6.66133841245e-17 0.300000011921
v -0.40000000596 -6.66133841245e-17 0.300000011921
v -0.300000011921 -6.66133841245e-17 0.300000011921
v -0.199999988079 -6.66133841245e-17 0.300000011921
v -0.0999999940395 -6.66133841245e-17 0.300000011921
v 0.0 -6.66133841245e-17 0.300000011921
v 0.100000023842 -6.66133841245e-17 0.300000011921
v 0.199999988079 -6.66133841245e-17 0.300000011921
v 0.300000011921 -6.66133841245e-17 0.300000011921
v 0.400000035763 -6.66133841245e-17 0.300000011921
v 0.5 -6.66133841245e-17 0.300000011921
v -0.5 -4.4408918338e-17 0.199999988079
v -0.40000000596 -4.4408918338e-17 0.199999988079
v -0.300000011921 -4.4408918338e-17 0.199999988079
v -0.199999988079 -4.4408918338e-17 0.199999988079
v -0.0999999940395 -4.4408918338e-17 0.199999988079
v 0.0 -4.4408918338e-17 0.199999988079
v 0.100000023842 -4.4408918338e-17 0.199999988079
v 0.199999988079 -4.4408918338e-17 0.199999988079
v 0.300000011921 -4.4408918338e-17 0.199999988079
v 0.400000035763 -4.4408918338e-17 0.199999988079
v 0.5 -4.4408918338e-17 0.199999988079
v -0.5 -2.2204459169e-17 0.0999999940395
v -0.40000000596 -2.2204459169e-17 0.0999999940395
v -0.300000011921 -2.2204459169e-17 0.0999999940395
v -0.199999988079 -2.2204459169e-17 0.0999999940395
v -0.0999999940395 -2.2204459169e-17 0.0999999940395
v 0.0 -2.2204459169e-17 0.0999999940395
v 0.100000023842 -2.2204459169e-17 0.0999999940395
v 0.199999988079 -2.2204459169e-17 0.0999999940395
v 0.300000011921 -2.2204459169e-17 0.0999999940395
v 0.400000035763 -2.2204459169e-17 0.0999999940395
v 0.5 -2.2204459169e-17 0.0999999940395
v -0.5 0.0 0.0
v -0.40000000596 0.0 0.0
v -0.300000011921 0.0 0.0
v -0.199999988079 0.0 0.0
v -0.0999999940395 0.0 0.0
v 0.0 0.0 0.0
v 0.100000023842 0.0 0.0
v 0.199999988079 0.0 0.0
v 0.300000011921 0.0 0.0
v 0.400000035763 0.0 0.0
v 0.5 0.0 0.0
v -0.5 2.22044657865e-17 -0.100000023842
v -0.40000000596 2.22044657865e-17 -0.100000023842
v -0.300000011921 2.22044657865e-17 -0.100000023842
v -0.199999988079 2.22044657865e-17 -0.100000023842
v -0.0999999940395 2.22044657865e-17 -0.100000023842
v 0.0 2.22044657865e-17 -0.100000023842
v 0.100000023842 2.22044657865e-17 -0.100000023842
v 0.199999988079 2.22044657865e-17 -0.100000023842
v 0.300000011921 2.22044657865e-17 -0.100000023842
v 0.400000035763 2.22044657865e-17 -0.100000023842
v 0.5 2.22044657865e-17 -0.100000023842
v -0.5 4.4408918338e-17 -0.199999988079
v -0.40000000596 4.4408918338e-17 -0.199999988079
v -0.300000011921 4.4408918338e-17 -0.199999988079
v -0.199999988079 4.4408918338e-17 -0.199999988079
v -0.0999999940395 4.4408918338e-17 -0.199999988079
v 0.0 4.4408918338e-17 -0.199999988079
v 0.100000023842 4.4408918338e-17 -0.199999988079
v 0.199999988079 4.4408918338e-17 -0.199999988079
v 0.300000011921 4.4408918338e-17 -0.199999988079
v 0.400000035763 4.4408918338e-17 -0.199999988079
v 0.5 4.4408918338e-17 -0.199999988079
v -0.5 6.66133841245e-17 -0.300000011921
v -0.40000000596 6.66133841245e-17 -0.300000011921
v -0.300000011921 6.66133841245e-17 -0.300000011921
v -0.199999988079 6.66133841245e-17 -0.300000011921
v -0.0999999940395 6.66133841245e-17 -0.300000011921
v 0.0 6.66133841245e-17 -0.300000011921
v 0.100000023842 6.66133841245e-17 -0.300000011921
v 0.199999988079 6.66133841245e-17 -0.300000011921
v 0.300000011921 6.66133841245e-17 -0.300000011921
v 0.400000035763 6.66133841245e-17 -0.300000011921
v 0.5 6.66133841245e-17 -0.300000011921
v -0.5 8.88178499109e-17 -0.400000035763
v -0.40000000596 8.88178499109e-17 -0.400000035763
v -0.300000011921 8.88178499109e-17 -0.400000035763
v -0.199999988079 8.88178499109e-17 -0.400000035763
v -0.0999999940395 8.88178499109e-17 -0.400000035763
v 0.0 8.88178499109e-17 -0.400000035763
v 0.100000023842 8.88178499109e-17 -0.400000035763
v 0.199999988079 8.88178499109e-17 -0.400000035763
v 0.300000011921 8.88178499109e-17 -0.400000035763
v 0.400000035763 8.88178499109e-17 -0.400000035763
v 0.5 8.88178499109e-17 -0.400000035763
v -0.5 1.11022302463e-16 -0.5
v -0.40000000596 1.11022302463e-16 -0.5
v -0.300000011921 1.11022302463e-16 -0.5
v -0.199999988079 1.11022302463e-16 -0.5
v -0.0999999940395 1.11022302463e-16 -0.5
v 0.0 1.11022302463e-16 -0.5
v 0.100000023842 1.11022302463e-16 -0.5
v 0.199999988079 1.11022302463e-16 -0.5
v 0.300000011921 1.11022302463e-16 -0.5
v 0.400000035763 1.11022302463e-16 -0.5
v 0.5 1.11022302463e-16 -0.5
vt 0.0 0.0
vt 0.10000000149 0.0
vt 0.20000000298 0.0
vt 0.300000011921 0.0
vt 0.40000000596 0.0
vt 0.5 0.0
vt 0.600000023842 0.0
vt 0.699999988079 0.0
vt 0.800000011921 0.0
vt 0.900000035763 0.0
vt 1.0 0.0
vt 0.0 0.10000000149
vt 0.10000000149 0.10000000149
vt 0.20000000298 0.10000000149
vt 0.300000011921 0.10000000149
vt 0.40000000596 0.10000000149
vt 0.5 0.10000000149
vt 0.600000023842 0.10000000149
vt 0.699999988079 0.10000000149
vt 0.800000011921 0.10000000149
vt 0.900000035763 0.10000000149
vt 1.0 0.10000000149
vt 0.0 0.20000000298
vt 0.10000000149 0.20000000298
vt 0.20000000298 0.20000000298
vt 0.300000011921 0.20000000298
vt 0.40000000596 0.20000000298
vt 0.5 0.20000000298
vt 0.600000023842 0.20000000298
vt 0.699999988079 0.20000000298
vt 0.800000011921 0.20000000298
vt 0.900000035763 0.20000000298
vt 1.0 0.20000000298
vt 0.0 0.300000011921
vt 0.10000000149 0.300000011921
vt 0.20000000298 0.300000011921
vt 0.300000011921 0.300000011921
vt 0.40000000596 0.300000011921
vt 0.5 0.300000011921
vt 0.600000023842 0.300000011921
vt 0.699999988079 0.300000011921
vt 0.800000011921 0.300000011921
vt 0.900000035763 0.300000011921
vt 1.0 0.300000011921
vt 0.0 0.40000000596
vt 0.10000000149 0.40000000596
vt 0.20000000298 0.40000000596
vt 0.300000011921 0.40000000596
vt 0.40000000596 0.40000000596
vt 0.5 0.40000000596
vt 0.600000023842 0.40000000596
vt 0.699999988079 0.40000000596
vt 0.800000011921 0.40000000596
vt 0.900000035763 0.40000000596
vt 1.0 0.40000000596
vt 0.0 0.5
vt 0.10000000149 0.5
vt 0.20000000298 0.5
vt 0.300000011921 0.5
vt 0.40000000596 0.5
vt 0.5 0.5
vt 0.600000023842 0.5
vt 0.699999988079 0.5
vt 0.800000011921 0.5
vt 0.900000035763 0.5
vt 1.0 0.5
vt 0.0 0.600000023842
vt 0.10000000149 0.600000023842
vt 0.20000000298 0.600000023842
vt 0.300000011921 0.600000023842
vt 0.40000000596 0.600000023842
vt 0.5 0.600000023842
vt 0.600000023842 0.600000023842
vt 0.699999988079 0.600000023842
vt 0.800000011921 0.600000023842
vt 0.900000035763 0.600000023842
vt 1.0 0.600000023842
vt 0.0 0.699999988079
vt 0.10000000149 0.699999988079
vt 0.20000000298 0.699999988079
vt 0.300000011921 0.699999988079
vt 0.40000000596 0.699999988079
vt 0.5 0.699999988079
vt 0.600000023842 0.699999988079
vt 0.699999988079 0.699999988079
vt 0.800000011921 0.699999988079
vt 0.900000035763 0.699999988079
vt 1.0 0.699999988079
vt 0.0 0.800000011921
vt 0.10000000149 0.800000011921
vt 0.20000000298 0.800000011921
vt 0.300000011921 0.800000011921
vt 0.40000000596 0.800000011921
vt 0.5 0.800000011921
vt 0.600000023842 0.800000011921
vt 0.699999988079 0.800000011921
vt 0.800000011921 0.800000011921
vt 0.900000035763 0.800000011921
vt 1.0 0.800000011921
vt 0.0 0.900000035763
vt 0.10000000149 0.900000035763
vt 0.20000000298 0.900000035763
vt 0.300000011921 0.900000035763
vt 0.40000000596 0.900000035763
vt 0.5 0.900000035763
vt 0.600000023842 0.900000035763
vt 0.699999988079 0.900000035763
vt 0.800000011921 0.900000035763
vt 0.900000035763 0.900000035763
vt 1.0 0.900000035763
vt 0.0 1.0
vt 0.10000000149 1.0
vt 0.20000000298 1.0
vt 0.300000011921 1.0
vt 0.40000000596 1.0
vt 0.5 1.0
vt 0.600000023842 1.0
vt 0.699999988079 1.0
vt 0.800000011921 1.0
vt 0.900000035763 1.0
vt 1.0 1.0
vn 0.0 1.0 2.22044604925e-16
vn 0.0 1.0 2.22044578455e-16
vn 0.0 1.0 2.22044604925e-16
vn 0.0 1.0 2.22044631395e-16
vn 0.0 0.999999880791 2.22044525516e-16
vn 0.0 0.999999880791 2.22044525516e-16
vn 0.0 0.999999940395 2.22044578455e-16
vn 0.0 0.999999940395 2.2204459169e-16
vn 0.0 1.0 2.22044578455e-16
vn 0.0 1.0 2.22044604925e-16
vn 0.0 0.999999940395 2.22044578455e-16
vn 0.0 0.999999940395 2.22044578455e-16
vn 0.0 1.0 2.22044578455e-16
vn 0.0 1.0 2.22044604925e-16
vn 0.0 1.0 2.22044578455e-16
vn 0.0 1.0 2.22044604925e-16
vn 0.0 0.999999880791 2.22044578455e-16
vn 0.0 0.999999880791 2.22044578455e-16
vn 0.0 1.0 2.22044578455e-16
vn 0.0 1.0 2.22044604925e-16
vn 0.0 1.0 2.22044604925e-16
vn 0.0 1.0 2.22044657865e-16
vn 0.0 0.999999940395 2.22044631395e-16
vn 0.0 1.0 2.22044657865e-16
vn 0.0 0.999999880791 2.22044578455e-16
vn 0.0 0.999999880791 2.22044578455e-16
vn 0.0 0.999999940395 2.22044631395e-16
vn 0.0 0.999999880791 2.22044604925e-16
vn 0.0 0.999999940395 2.2204459169e-16
vn 0.0 0.999999940395 2.2204459169e-16
vn 0.0 0.999999880791 2.22044578455e-16
vn 0.0 0.999999940395 2.2204459169e-16
vn 0.0 1.0 2.22044631395e-16
vn 0.0 0.999999940395 2.2204459169e-16
vn 0.0 1.0 2.22044631395e-16
vn 0.0 0.999999880791 2.22044578455e-16
vn 0.0 0.999999880791 2.22044578455e-16
vn 0.0 0.999999940395 2.2204459169e-16
vn 0.0 0.999999880791 2.22044578455e-16
vn 0.0 0.999999940395 2.2204459169e-16
vn 0.0 0.999999880791 2.22044578455e-16
vn 0.0 0.999999880791 2.22044578455e-16
vn 0.0 0.999999940395 2.2204459169e-16
vn 0.0 1.0 2.22044604925e-16
vn 0.0 1.0 2.22044604925e-16
vn 0.0 1.0 2.22044631395e-16
vn 0.0 0.999999880791 2.22044525516e-16
vn 0.0 0.999999940395 2.2204459169e-16
vn 0.0 1.0 2.22044604925e-16
vn 0.0 0.999999940395 2.2204459169e-16
vn 0.0 1.0 2.22044604925e-16
vn 0.0 1.0 2.22044604925e-16
vn 0.0 0.999999880791 2.22044578455e-16
vn 0.0 1.0 2.22044604925e-16
vn 0.0 1.0 2.22044657865e-16
vn 0.0 0.999999940395 2.2204459169e-16
vn 0.0 1.0 2.22044631395e-16
vn 0.0 0.999999880791 2.22044551985e-16
vn 0.0 0.999999880791 2.22044578455e-16
vn 0.0 0.999999940395 2.2204459169e-16
vn 0.0 0.999999880791 2.22044578455e-16
vn 0.0 0.999999940395 2.2204459169e-16
vn 0.0 0.999999940395 2.2204459169e-16
vn 0.0 0.999999880791 2.22044578455e-16
vn 0.0 0.999999940395 2.2204459169e-16
vn 0.0 1.0 2.22044631395e-16
vn 0.0 1.0 2.22044604925e-16
vn 0.0 1.0 2.22044631395e-16
vn 0.0 0.999999880791 2.22044551985e-16
vn 0.0 0.999999880791 2.22044551985e-16
vn 0.0 0.999999940395 2.2204459169e-16
vn 0.0 0.999999880791 2.22044578455e-16
vn 0.0 1.0 2.22044604925e-16
vn 0.0 1.0 2.22044604925e-16
vn 0.0 0.999999880791 2.22044578455e-16
vn 0.0 1.0 2.22044604925e-16
vn 0.0 1.0 2.22044604925e-16
vn 0.0 1.0 2.22044604925e-16
vn 0.0 1.0 2.22044631395e-16
vn 0.0 0.999999940395 2.2204459169e-16
vn 0.0 0.999999880791 2.22044578455e-16
vn 0.0 1.0 2.22044604925e-16
vn 0.0 0.999999880791 2.22044578455e-16
vn 0.0 1.0 2.22044604925e-16
vn 0.0 1.0 2.22044604925e-16
vn 0.0 0.999999880791 2.22044578455e-16
vn 0.0 1.0 2.22044604925e-16
vn 0.0 1.0 2.22044578455e-16
vn 0.0 0.999999880791 2.22044604925e-16
vn 0.0 0.999999880791 2.22044604925e-16
vn 0.0 0.999999880791 2.22044578455e-16
vn 0.0 0.999999880791 2.22044578455e-16
vn 0.0 0.999999880791 2.22044604925e-16
vn 0.0 0.999999880791 2.22044578455e-16
vn 0.0 0.999999880791 2.22044578455e-16
vn 0.0 0.999999880791 2.22044578455e-16
vn 0.0 0.999999880791 2.22044578455e-16
vn 0.0 0.999999880791 2.22044578455e-16
vn 0.0 1.0 2.22044604925e-16
vn 0.0 1.0 2.22044604925e-16
vn 0.0 1.0 2.22044631395e-16
vn 0.0 0.999999880791 2.22044551985e-16
vn 0.0 0.999999880791 2.22044551985e-16
vn 0.0 0.999999940395 2.22044578455e-16
vn 0.0 0.999999880791 2.22044551985e-16
vn 0.0 1.0 2.22044604925e-16
vn 0.0 1.0 2.22044604925e-16
vn 0.0 0.999999880791 2.22044578455e-16
vn 0.0 1.0 2.22044604925e-16
vn 0.0 1.0 2.22044604925e-16
vn 0.0 1.0 2.22044551985e-16
vn 0.0 1.0 2.22044604925e-16
vn 0.0 1.0 2.22044578455e-16
vn 0.0 1.0 2.22044578455e-16
vn 0.0 1.0 2.22044525516e-16
vn 0.0 1.0 2.22044551985e-16
vn 0.0 1.0 2.22044604925e-16
vn 0.0 1.0 2.22044631395e-16
vn 0.0 1.0 2.22044604925e-16
vn 0.0 1.0 2.22044604925e-16
vn 0.0 1.0 2.22044604925e-16
f 1/1/1 2/2/2 13/13/3 12/12/4
f 2/2/2 3/3/5 14/14/6 13/13/3
f 3/3/5 4/4/7 15/15/8 14/14/6
f 4/4/7 5/5/9 16/16/10 15/15/8
f 5/5/9 6/6/11 17/17/12 16/16/10
f 6/6/11 7/7/13 18/18/14 17/17/12
f 7/7/13 8/8/15 19/19/16 18/18/14
f 8/8/15 9/9/17 20/20/18 19/19/16
f 9/9/17 10/10/19 21/21/20 20/20/18
f 10/10/19 11/11/21 22/22/22 21/21/20
f 12/12/4 13/13/3 24/24/23 23/23/24
f 13/13/3 14/14/6 25/25/25 24/24/23
f 14/14/6 15/15/8 26/26/26 25/25/25
f 15/15/8 16/16/10 27/27/27 26/26/26
f 16/16/10 17/17/12 28/28/28 27/27/27
f 17/17/12 18/18/14 29/29/29 28/28/28
f 18/18/14 19/19/16 30/30/30 29/29/29
f 19/19/16 20/20/18 31/31/31 30/30/30
f 20/20/18 21/21/20 32/32/32 31/31/31
f 21/21/20 22/22/22 33/33/33 32/32/32
f 23/23/24 24/24/23 35/35/34 34/34/35
f 24/24/23 25/25/25 36/36/36 35/35/34
f 25/25/25 26/26/26 37/37/37 36/36/36
f 26/26/26 27/27/27 38/38/38 37/37/37
f 27/27/27 28/28/28 39/39/39 38/38/38
f 28/28/28 29/29/29 40/40/40 39/39/39
f 29/29/29 30/30/30 41/41/41 40/40/40
f 30/30/30 31/31/31 42/42/42 41/41/41
f 31/31/31 32/32/32 43/43/43 42/42/42
f 32/32/32 33/33/33 44/44/44 43/43/43
f 34/34/35 35/35/34 46/46/45 45/45/46
f 35/35/34 36/36/36 47/47/47 46/46/45
f 36/36/36 37/37/37 48/48/48 47/47/47
f 37/37/37 38/38/38 49/49/49 48/48/48
f 38/38/38 39/39/39 50/50/50 49/49/49
f 39/39/39 40/40/40 51/51/51 50/50/50
f 40/40/40 41/41/41 52/52/52 51/51/51
f 41/41/41 42/42/42 53/53/53 52/52/52
f 42/42/42 43/43/43 54/54/54 53/53/53
f 43/43/43 44/44/44 55/55/55 54/54/54
f 45/45/46 46/46/45 57/57/56 56/56/57
f 46/46/45 47/47/47 58/58/58 57/57/56
f 47/47/47 48/48/48 59/59/59 58/58/58
f 48/48/48 49/49/49 60/60/60 59/59/59
f 49/49/49 50/50/50 61/61/61 60/60/60
f 50/50/50 51/51/51 62/62/62 61/61/61
f 51/51/51 52/52/52 63/63/63 62/62/62
f 52/52/52 53/53/53 64/64/64 63/63/63
f 53/53/53 54/54/54 65/65/65 64/64/64
f 54/54/54 55/55/55 66/66/66 65/65/65
f 56/56/57 57/57/56 68/68/67 67/67/68
f 57/57/56 58/58/58 69/69/69 68/68/67
f 58/58/58 59/59/59 70/70/70 69/69/69
f 59/59/59 60/60/60 71/71/71 70/70/70
f 60/60/60 61/61/61 72/72/72 71/71/71
f 61/61/61 62/62/62 73/73/73 72/72/72
f 62/62/62 63/63/63 74/74/74 73/73/73
f 63/63/63 64/64/64 75/75/75 74/74/74
f 64/64/64 65/65/65 76/76/76 75/75/75
f 65/65/65 66/66/66 77/77/77 76/76/76
f 67/67/68 68/68/67 79/79/78 78/78/79
f 68/68/67 69/69/69 80/80/80 79/79/78
f 69/69/69 70/70/70 81/81/81 80/80/80
f 70/70/70 71/71/71 82/82/82 81/81/81
f 71/71/71 72/72/72 83/83/83 82/82/82
f 72/72/72 73/73/73 84/84/84 83/83/83
f 73/73/73 74/74/74 85/85/85 84/84/84
f 74/74/74 75/75/75 86/86/86 85/85/85
f 75/75/75 76/76/76 87/87/87 86/86/86
f 76/76/76 77/77/77 88/88/88 87/87/87
f 78/78/79 79/79/78 90/90/89 89/89/90
f 79/79/78 80/80/80 91/91/91 90/90/89
f 80/80/80 81/81/81 92/92/92 91/91/91
f 81/81/81 82/82/82 93/93/93 92/92/92
f 82/82/82 83/83/83 94/94/94 93/93/93
f 83/83/83 84/84/84 95/95/95 94/94/94
f 84/84/84 85/85/85 96/96/96 95/95/95
f 85/85/85 86/86/86 97/97/97 96/96/96
f 86/86/86 87/87/87 98/98/98 97/97/97
f 87/87/87 88/88/88 99/99/99 98/98/98
f 89/89/90 90/90/89 101/101/100 100/100/101
f 90/90/89 91/91/91 102/102/102 101/101/100
f 91/91/91 92/92/92 103/103/103 102/102/102
f 92/92/92 93/93/93 104/104/104 103/103/103
f 93/93/93 94/94/94 105/105/105 104/104/104
f 94/94/94 95/95/95 106/106/106 105/105/105
f 95/95/95 96/96/96 107/107/107 106/106/106
f 96/96/96 97/97/97 108/108/108 107/107/107
f 97/97/97 98/98/98 109/109/109 108/108/108
f 98/98/98 99/99/99 110/110/110 109/109/109
f 100/100/101 101/101/100 112/112/111 111/111/112
f 101/101/100 102/102/102 113/113/113 112/112/111
f 102/102/102 103/103/103 114/114/114 113/113/113
f 103/103/103 104/104/104 115/115/115 114/114/114
f 104/104/104 105/105/105 116/116/116 115/115/115
f 105/105/105 106/106/106 117/117/117 116/116/116
f 106/106/106 107/107/107 118/118/118 117/117/117
f 107/107/107 108/108/108 119/119/119 118/118/118
f 108/108/108 109/109/109 120/120/120 119/119/119
f 109/109/109 110/110/110 121/121/121 120/120/120
