# Exported from Wings 3D 0.98.32a
mtllib light.mtl
o light
#8 vertices, 4 faces
v 46.90180256 1.6000000e-2 46.89113589
v 46.90180256 1.6000000e-2 -46.89113589
v -46.89113589 1.6000000e-2 -46.89113589
v -46.89113589 1.6000000e-2 46.89113589
v -40.79528823 1.6000000e-2 40.79528823
v 40.80595489 1.6000000e-2 40.79528823
v 40.80595489 1.6000000e-2 -40.79528823
v -40.79528823 1.6000000e-2 -40.79528823
vn 0.0000000e+0 1.00000000 0.0000000e+0
vn 0.0000000e+0 1.00000000 0.0000000e+0
vn 0.0000000e+0 1.00000000 0.0000000e+0
vn 0.0000000e+0 1.00000000 0.0000000e+0
vn 0.0000000e+0 1.00000000 0.0000000e+0
vn 0.0000000e+0 1.00000000 0.0000000e+0
vn 0.0000000e+0 1.00000000 0.0000000e+0
vn 0.0000000e+0 1.00000000 0.0000000e+0
usemtl default
f 1//1 6//6 5//5 4//4
f 2//2 7//7 6//6 1//1
f 3//3 8//8 7//7 2//2
f 4//4 5//5 8//8 3//3
