# Exported from Wings 3D 1.4.1
mtllib back faces.mtl
o vertical_square
#4 vertices, 1 faces
v -0.25000000 0.0000000e+0 0.0000000e+0
v 0.25000000 0.0000000e+0 0.0000000e+0
v -0.25000000 0.50000000 0.0000000e+0
v 0.25000000 0.50000000 0.0000000e+0
vt 4.9510000e-3 4.9510000e-3
vt 4.9510000e-3 0.99504900
vt 0.99504900 4.9510000e-3
vt 0.99504900 0.99504900
vn 0.0000000e+0 0.0000000e+0 1.00000000
vn 0.0000000e+0 0.0000000e+0 1.00000000
vn 0.0000000e+0 0.0000000e+0 1.00000000
vn 0.0000000e+0 0.0000000e+0 1.00000000
g vertical_square
usemtl Default
s 2
f 2/4/2 4/3/4 3/1/3 1/2/1
o right_square
#4 vertices, 1 faces
v 5.0000000e-2 0.0000000e+0 -0.25000000
v 0.55000000 0.0000000e+0 -0.25000000
v 5.0000000e-2 0.0000000e+0 0.25000000
v 0.55000000 0.0000000e+0 0.25000000
vt 4.9510000e-3 4.9510000e-3
vt 4.9510000e-3 0.99504900
vt 0.99504900 4.9510000e-3
vt 0.99504900 0.99504900
vn 0.0000000e+0 -1.00000000 0.0000000e+0
vn 0.0000000e+0 -1.00000000 0.0000000e+0
vn 0.0000000e+0 -1.00000000 0.0000000e+0
vn 0.0000000e+0 -1.00000000 0.0000000e+0
g right_square
usemtl Default
s 2
f 6/8/6 8/7/8 7/5/7 5/6/5
o left_square
#4 vertices, 1 faces
v -0.55000000 0.0000000e+0 -0.25000000
v -5.0000000e-2 0.0000000e+0 -0.25000000
v -0.55000000 0.0000000e+0 0.25000000
v -5.0000000e-2 0.0000000e+0 0.25000000
vt 4.9510000e-3 4.9510000e-3
vt 4.9510000e-3 0.99504900
vt 0.99504900 4.9510000e-3
vt 0.99504900 0.99504900
vn 0.0000000e+0 1.00000000 0.0000000e+0
vn 0.0000000e+0 1.00000000 0.0000000e+0
vn 0.0000000e+0 1.00000000 0.0000000e+0
vn 0.0000000e+0 1.00000000 0.0000000e+0
g left_square
usemtl Default
s 2
f 9/10/9 11/9/11 12/11/12 10/12/10
o light
#4 vertices, 1 faces
v -0.50000000 1.00000000 -0.50000000
v 0.50000000 1.00000000 -0.50000000
v -0.50000000 1.00000000 0.50000000
v 0.50000000 1.00000000 0.50000000
vt 4.9510000e-3 4.9510000e-3
vt 4.9510000e-3 0.99504900
vt 0.99504900 4.9510000e-3
vt 0.99504900 0.99504900
vn 0.0000000e+0 -1.00000000 0.0000000e+0
vn 0.0000000e+0 -1.00000000 0.0000000e+0
vn 0.0000000e+0 -1.00000000 0.0000000e+0
vn 0.0000000e+0 -1.00000000 0.0000000e+0
g light
usemtl Default
s 2
f 14/16/14 16/15/16 15/13/15 13/14/13
