<?xml version="1.0" encoding="UTF-8" standalone="no"?>
<svg width="600" height ="400" version="1.1" xmlns="http://www.w3.org/2000/svg"
 xmlns:xlink="http://www.w3.org/1999/xlink"
 xmlns:ev="http://www.w3.org/2001/xml-events">

<!-- SVG plot written using Boost.Plot program (Creator Jacob Voytko) --> 
<!-- Use, modification and distribution of Boost.Plot subject to the --> 
<!-- Boost Software License, Version 1.0.--> 
<!-- (See accompanying file LICENSE_1_0.txt --> 
<!-- or copy at http://www.boost.org/LICENSE_1_0.txt) --> 

<!-- SVG Plot Copyright John Maddock 2008 --> 
<meta name="copyright" content="John Maddock" />
<meta name="date" content="2008" />
<!-- Use, modification and distribution of this Scalable Vector Graphic file -->
<!-- are subject to the Boost Software License, Version 1.0. -->
<!-- (See accompanying file LICENSE_1_0.txt or copy at http://www.boost.org/LICENSE_1_0.txt) -->

<clipPath id="plot_window"><rect x="71.2" y="63" width="515.8" height="274.2"/></clipPath>
<g id="imageBackground" stroke="rgb(119,136,153)" fill="rgb(255,255,255)" stroke-width="2"><rect x="0" y="0" width="600" height="400"/></g>
<g id="plotBackground" stroke="rgb(119,136,153)" fill="rgb(255,255,255)" stroke-width="2"><rect x="70.2" y="62" width="517.8" height="276.2"/></g>
<g id="yMinorGrid" stroke="rgb(200,220,255)" stroke-width="0.5"></g>
<g id="yMajorGrid" stroke="rgb(200,220,255)" stroke-width="1"></g>
<g id="xMinorGrid" stroke="rgb(200,220,255)" stroke-width="0.5"></g>
<g id="xMajorGrid" stroke="rgb(200,220,255)" stroke-width="1"></g>
<g id="yAxis" stroke="rgb(0,0,0)" stroke-width="1"><line x1="70.2" y1="62" x2="70.2" y2="338.2"/></g>
<g id="xAxis" stroke="rgb(0,0,0)" stroke-width="1"><line x1="70.2" y1="338.2" x2="588" y2="338.2"/></g>
<g id="yMinorTicks" stroke="rgb(0,0,0)" stroke-width="1"><path d="M68.2,330.6 L70.2,330.6 M68.2,305.4 L70.2,305.4 M68.2,292.9 L70.2,292.9 M68.2,280.3 L70.2,280.3 M68.2,255.2 L70.2,255.2 M68.2,242.6 L70.2,242.6 M68.2,230 L70.2,230 M68.2,204.9 L70.2,204.9 M68.2,192.4 L70.2,192.4 M68.2,179.8 L70.2,179.8 M68.2,154.7 L70.2,154.7 M68.2,142.1 L70.2,142.1 M68.2,129.5 L70.2,129.5 M68.2,104.4 L70.2,104.4 M68.2,91.86 L70.2,91.86 M68.2,79.3 L70.2,79.3 "/></g>
<g id="xMinorTicks" stroke="rgb(0,0,0)" stroke-width="1"><path d="M84.3,338.2 L84.3,340.2 M98.4,338.2 L98.4,340.2 M112.5,338.2 L112.5,340.2 M140.7,338.2 L140.7,340.2 M154.8,338.2 L154.8,340.2 M168.9,338.2 L168.9,340.2 M197.1,338.2 L197.1,340.2 M211.2,338.2 L211.2,340.2 M225.3,338.2 L225.3,340.2 M253.5,338.2 L253.5,340.2 M267.6,338.2 L267.6,340.2 M281.7,338.2 L281.7,340.2 M309.9,338.2 L309.9,340.2 M324,338.2 L324,340.2 M338.1,338.2 L338.1,340.2 M366.3,338.2 L366.3,340.2 M380.4,338.2 L380.4,340.2 M394.5,338.2 L394.5,340.2 M422.7,338.2 L422.7,340.2 M436.8,338.2 L436.8,340.2 M450.9,338.2 L450.9,340.2 M479.1,338.2 L479.1,340.2 M493.2,338.2 L493.2,340.2 M507.3,338.2 L507.3,340.2 M535.5,338.2 L535.5,340.2 M549.6,338.2 L549.6,340.2 M563.7,338.2 L563.7,340.2 "/></g>
<g id="yMajorTicks" stroke="rgb(0,0,0)" stroke-width="2"><path d="M65.2,318 L70.2,318 M65.2,267.7 L70.2,267.7 M65.2,217.5 L70.2,217.5 M65.2,167.2 L70.2,167.2 M65.2,117 L70.2,117 M65.2,66.73 L70.2,66.73 "/></g>
<g id="xMajorTicks" stroke="rgb(0,0,0)" stroke-width="2"><path d="M70.2,338.2 L70.2,343.2 M126.6,338.2 L126.6,343.2 M183,338.2 L183,343.2 M239.4,338.2 L239.4,343.2 M295.8,338.2 L295.8,343.2 M352.2,338.2 L352.2,343.2 M408.6,338.2 L408.6,343.2 M465,338.2 L465,343.2 M521.4,338.2 L521.4,343.2 M577.8,338.2 L577.8,343.2 "/></g>
<g id="plotLabels">
<text x="70.2" y="357.6" text-anchor="middle" font-size="12" font-family="Verdana">1</text>
<text x="126.6" y="357.6" text-anchor="middle" font-size="12" font-family="Verdana">2</text>
<text x="183" y="357.6" text-anchor="middle" font-size="12" font-family="Verdana">3</text>
<text x="239.4" y="357.6" text-anchor="middle" font-size="12" font-family="Verdana">4</text>
<text x="295.8" y="357.6" text-anchor="middle" font-size="12" font-family="Verdana">5</text>
<text x="352.2" y="357.6" text-anchor="middle" font-size="12" font-family="Verdana">6</text>
<text x="408.6" y="357.6" text-anchor="middle" font-size="12" font-family="Verdana">7</text>
<text x="465" y="357.6" text-anchor="middle" font-size="12" font-family="Verdana">8</text>
<text x="521.4" y="357.6" text-anchor="middle" font-size="12" font-family="Verdana">9</text>
<text x="577.8" y="357.6" text-anchor="middle" font-size="12" font-family="Verdana">10</text>
<text x="59.2" y="320.4" text-anchor="end" font-size="12" font-family="Verdana">0.5</text>
<text x="59.2" y="270.1" text-anchor="end" font-size="12" font-family="Verdana">1</text>
<text x="59.2" y="219.9" text-anchor="end" font-size="12" font-family="Verdana">1.5</text>
<text x="59.2" y="169.6" text-anchor="end" font-size="12" font-family="Verdana">2</text>
<text x="59.2" y="119.4" text-anchor="end" font-size="12" font-family="Verdana">2.5</text>
<text x="59.2" y="69.13" text-anchor="end" font-size="12" font-family="Verdana">3</text></g>
<g id="yLabel">
<text x="30.2" y="200.1" text-anchor="middle" transform = "rotate(-90 30.2 200.1 )" font-size="14" font-family="Verdana">acosh(z)</text></g>
<g id="xLabel">
<text x="329.1" y="384" text-anchor="middle" font-size="14" font-family="Verdana">z</text></g>
<g id="plotLines" stroke-width="2"><g clip-path="url(#plot_window)" stroke="rgb(0,0,139)" stroke-width="1"><path d="M70.2,368.2 L72.74,338.2 L75.28,325.9 L77.81,316.6 L80.35,308.8 L82.89,302 L85.43,296 L87.97,290.4 L90.51,285.3 L93.04,280.6 L95.58,276.2 L98.12,272 L100.7,268 L103.2,264.2 L105.7,260.6 L108.3,257.2 L110.8,253.9 L113.3,250.7 L115.9,247.7 L118.4,244.7 L121,241.9 L123.5,239.1 L126,236.5 L128.6,233.9 L131.1,231.4 L133.7,228.9 L136.2,226.5 L138.7,224.2 L141.3,222 L143.8,219.8 L146.3,217.6 L148.9,215.5 L151.4,213.4 L154,211.4 L156.5,209.5 L159,207.5 L161.6,205.7 L164.1,203.8 L166.7,202 L169.2,200.2 L171.7,198.5 L174.3,196.8 L176.8,195.1 L179.3,193.4 L181.9,191.8 L184.4,190.2 L187,188.6 L189.5,187.1 L192,185.6 L194.6,184.1 L197.1,182.6 L199.6,181.1 L202.2,179.7 L204.7,178.3 L207.3,176.9 L209.8,175.5 L212.3,174.2 L214.9,172.9 L217.4,171.5 L220,170.3 L222.5,169 L225,167.7 L227.6,166.5 L230.1,165.2 L232.6,164 L235.2,162.8 L237.7,161.6 L240.3,160.5 L242.8,159.3 L245.3,158.2 L247.9,157 L250.4,155.9 L253,154.8 L255.5,153.7 L258,152.7 L260.6,151.6 L263.1,150.5 L265.6,149.5 L268.2,148.5 L270.7,147.4 L273.3,146.4 L275.8,145.4 L278.3,144.4 L280.9,143.4 L283.4,142.5 L285.9,141.5 L288.5,140.5 L291,139.6 L293.6,138.7 L296.1,137.7 L298.6,136.8 L301.2,135.9 L303.7,135 L306.3,134.1 L308.8,133.2 L311.3,132.4 L313.9,131.5 L316.4,130.6 L318.9,129.8 L321.5,128.9 L324,128.1 L326.6,127.3 L329.1,126.4 L331.6,125.6 L334.2,124.8 L336.7,124 L339.3,123.2 L341.8,122.4 L344.3,121.6 L346.9,120.8 L349.4,120.1 L351.9,119.3 L354.5,118.5 L357,117.8 L359.6,117 L362.1,116.3 L364.6,115.5 L367.2,114.8 L369.7,114.1 L372.2,113.4 L374.8,112.6 L377.3,111.9 L379.9,111.2 L382.4,110.5 L384.9,109.8 L387.5,109.1 L390,108.4 L392.6,107.7 L395.1,107.1 L397.6,106.4 L400.2,105.7 L402.7,105.1 L405.2,104.4 L407.8,103.7 L410.3,103.1 L412.9,102.4 L415.4,101.8 L417.9,101.2 L420.5,100.5 L423,99.89 L425.6,99.27 L428.1,98.64 L430.6,98.02 L433.2,97.41 L435.7,96.8 L438.2,96.19 L440.8,95.58 L443.3,94.98 L445.9,94.39 L448.4,93.79 L450.9,93.2 L453.5,92.61 L456,92.03 L458.5,91.45 L461.1,90.87 L463.6,90.3 L466.2,89.73 L468.7,89.16 L471.2,88.6 L473.8,88.04 L476.3,87.48 L478.9,86.93 L481.4,86.38 L483.9,85.83 L486.5,85.29 L489,84.74 L491.5,84.2 L494.1,83.67 L496.6,83.13 L499.2,82.6 L501.7,82.08 L504.2,81.55 L506.8,81.03 L509.3,80.51 L511.9,79.99 L514.4,79.48 L516.9,78.97 L519.5,78.46 L522,77.95 L524.5,77.45 L527.1,76.95 L529.6,76.45 L532.2,75.95 L534.7,75.46 L537.2,74.97 L539.8,74.48 L542.3,73.99 L544.8,73.51 L547.4,73.02 L549.9,72.54 L552.5,72.07 L555,71.59 L557.5,71.12 L560.1,70.65 L562.6,70.18 L565.2,69.71 L567.7,69.25 L570.2,68.79 L572.8,68.33 L575.3,67.87 L577.8,67.42 " fill="none"/></g>
</g>
<g id="plotPoints" clip-path="url(#plot_window)"><g stroke="rgb(0,0,0)"></g>
</g>
<g id="limitPoints" stroke="rgb(119,136,153)" fill="rgb(250,235,215)"></g>
<g id="legendBackground" stroke="rgb(119,136,153)" fill="rgb(255,255,255)"></g>
<g id="legendPoints"></g>
<g id="legendText"></g>
<g id="title">
<text x="300" y="40" text-anchor="middle" font-size="20" font-family="Verdana">acosh</text></g>
</svg>
