<?xml version="1.0" encoding="UTF-8" standalone="no"?>
<svg width="750" height ="400" version="1.1" xmlns="http://www.w3.org/2000/svg"
 xmlns:xlink="http://www.w3.org/1999/xlink"
 xmlns:ev="http://www.w3.org/2001/xml-events">

<!-- SVG plot written using Boost.Plot program (Creator Jacob Voytko) --> 
<!-- Use, modification and distribution of Boost.Plot subject to the --> 
<!-- Boost Software License, Version 1.0.--> 
<!-- (See accompanying file LICENSE_1_0.txt --> 
<!-- or copy at http://www.boost.org/LICENSE_1_0.txt) --> 

<clipPath id="plot_window"><rect x="71.2" y="63" width="540.8" height="274.2"/></clipPath>
<g id="imageBackground" stroke="rgb(119,136,153)" fill="rgb(255,255,255)" stroke-width="2"><rect x="0" y="0" width="750" height="400"/></g>
<g id="plotBackground" stroke="rgb(119,136,153)" fill="rgb(255,255,255)" stroke-width="2"><rect x="70.2" y="62" width="542.8" height="276.2"/></g>
<g id="yMinorGrid" stroke="rgb(200,220,255)" stroke-width="0.5"></g>
<g id="yMajorGrid" stroke="rgb(200,220,255)" stroke-width="1"></g>
<g id="xMinorGrid" stroke="rgb(200,220,255)" stroke-width="0.5"></g>
<g id="xMajorGrid" stroke="rgb(200,220,255)" stroke-width="1"></g>
<g id="yAxis" stroke="rgb(0,0,0)" stroke-width="1"><line x1="205.9" y1="62" x2="205.9" y2="343.2"/><line x1="70.2" y1="62" x2="70.2" y2="338.2"/></g>
<g id="xAxis" stroke="rgb(0,0,0)" stroke-width="1"><line x1="65.2" y1="338.2" x2="613" y2="338.2"/><line x1="65.2" y1="338.2" x2="613" y2="338.2"/></g>
<g id="yMinorTicks" stroke="rgb(0,0,0)" stroke-width="1"><path d="M68.2,331.5 L70.2,331.5 M68.2,324.8 L70.2,324.8 M68.2,318.1 L70.2,318.1 M68.2,311.4 L70.2,311.4 M68.2,298 L70.2,298 M68.2,291.3 L70.2,291.3 M68.2,284.6 L70.2,284.6 M68.2,277.9 L70.2,277.9 M68.2,264.5 L70.2,264.5 M68.2,257.9 L70.2,257.9 M68.2,251.2 L70.2,251.2 M68.2,244.5 L70.2,244.5 M68.2,231.1 L70.2,231.1 M68.2,224.4 L70.2,224.4 M68.2,217.7 L70.2,217.7 M68.2,211 L70.2,211 M68.2,197.6 L70.2,197.6 M68.2,190.9 L70.2,190.9 M68.2,184.2 L70.2,184.2 M68.2,177.5 L70.2,177.5 M68.2,164.1 L70.2,164.1 M68.2,157.4 L70.2,157.4 M68.2,150.7 L70.2,150.7 M68.2,144 L70.2,144 M68.2,130.6 L70.2,130.6 M68.2,123.9 L70.2,123.9 M68.2,117.2 L70.2,117.2 M68.2,110.5 L70.2,110.5 M68.2,97.15 L70.2,97.15 M68.2,90.46 L70.2,90.46 M68.2,83.76 L70.2,83.76 M68.2,77.07 L70.2,77.07 M68.2,63.67 L70.2,63.67 M68.2,338.2 L70.2,338.2 "/></g>
<g id="xMinorTicks" stroke="rgb(0,0,0)" stroke-width="1"></g>
<g id="yMajorTicks" stroke="rgb(0,0,0)" stroke-width="2"><path d="M65.2,338.2 L70.2,338.2 M65.2,304.7 L70.2,304.7 M65.2,271.2 L70.2,271.2 M65.2,237.8 L70.2,237.8 M65.2,204.3 L70.2,204.3 M65.2,170.8 L70.2,170.8 M65.2,137.3 L70.2,137.3 M65.2,103.8 L70.2,103.8 M65.2,70.37 L70.2,70.37 M65.2,338.2 L70.2,338.2 "/></g>
<g id="xMajorTicks" stroke="rgb(0,0,0)" stroke-width="2"><path d="M205.9,338.2 L205.9,343.2 M477.3,338.2 L477.3,343.2 M205.9,338.2 L205.9,343.2 "/></g>
<g id="plotLabels">
<text x="205.9" y="357.6" text-anchor="middle" font-size="12" font-family="Verdana">0</text>
<text x="477.3" y="357.6" text-anchor="middle" font-size="12" font-family="Verdana">1</text>
<text x="205.9" y="357.6" text-anchor="middle" font-size="12" font-family="Verdana">0</text>
<text x="59.2" y="340.6" text-anchor="end" font-size="12" font-family="Verdana">0</text>
<text x="59.2" y="307.1" text-anchor="end" font-size="12" font-family="Verdana">0.1</text>
<text x="59.2" y="273.6" text-anchor="end" font-size="12" font-family="Verdana">0.2</text>
<text x="59.2" y="240.2" text-anchor="end" font-size="12" font-family="Verdana">0.3</text>
<text x="59.2" y="206.7" text-anchor="end" font-size="12" font-family="Verdana">0.4</text>
<text x="59.2" y="173.2" text-anchor="end" font-size="12" font-family="Verdana">0.5</text>
<text x="59.2" y="139.7" text-anchor="end" font-size="12" font-family="Verdana">0.6</text>
<text x="59.2" y="106.2" text-anchor="end" font-size="12" font-family="Verdana">0.7</text>
<text x="59.2" y="72.77" text-anchor="end" font-size="12" font-family="Verdana">0.8</text>
<text x="59.2" y="340.6" text-anchor="end" font-size="12" font-family="Verdana">0</text></g>
<g id="yLabel">
<text x="30.2" y="200.1" text-anchor="middle" transform = "rotate(-90 30.2 200.1 )" font-size="14" font-family="Verdana">Probability</text></g>
<g id="xLabel">
<text x="341.6" y="384" text-anchor="middle" font-size="14" font-family="Verdana">Random Variable</text></g>
<g id="plotLines" stroke-width="2"><g clip-path="url(#plot_window)" stroke="rgb(0,0,139)" stroke-width="1"><path d="M104.1,338.2 L104.1,338.2 L104.1,87.11 L172,87.11 L172,338.2 L375.5,338.2 L375.5,254.5 L443.3,254.5 L443.4,338.2 L443.4,338.2 Z" fill="rgb(0,0,139)"/></g>
<g clip-path="url(#plot_window)" stroke="rgb(139,0,0)" stroke-width="1"><path d="M172,338.2 L172,338.2 L172,170.8 L239.8,170.8 L239.8,338.2 L443.3,338.2 L443.4,170.8 L511.2,170.8 L511.2,338.2 L511.2,338.2 Z" fill="rgb(139,0,0)"/></g>
<g clip-path="url(#plot_window)" stroke="rgb(0,100,0)" stroke-width="1"><path d="M239.8,338.2 L239.8,338.2 L239.8,254.5 L307.7,254.5 L307.7,338.2 L511.2,338.2 L511.2,87.11 L579,87.11 L579,338.2 L579,338.2 Z" fill="rgb(0,100,0)"/></g>
</g>
<g id="plotPoints" clip-path="url(#plot_window)"><g stroke="rgb(0,0,0)"></g>
<g stroke="rgb(0,0,0)"></g>
<g stroke="rgb(0,0,0)"></g>
</g>
<g id="limitPoints" stroke="rgb(119,136,153)" fill="rgb(250,235,215)"></g>
<g id="legendBackground" stroke="rgb(119,136,153)" fill="rgb(255,255,255)" stroke-width="1"><rect x="627" y="62" width="111" height="105"/><rect x="627" y="62" width="111" height="105"/></g>
<g id="legendPoints"><g stroke="rgb(0,0,139)" stroke-width="1"><line x1="642" y1="92" x2="657" y2="92"/></g>
<g stroke="rgb(139,0,0)" stroke-width="1"><line x1="642" y1="122" x2="657" y2="122"/></g>
<g stroke="rgb(0,100,0)" stroke-width="1"><line x1="642" y1="152" x2="657" y2="152"/></g>
</g>
<g id="legendText">
<text x="664.5" y="92" font-size="15" font-family="Verdana">p=0.25</text>
<text x="664.5" y="122" font-size="15" font-family="Verdana">p=0.5</text>
<text x="664.5" y="152" font-size="15" font-family="Verdana">p=0.75</text></g>
<g id="title">
<text x="375" y="40" text-anchor="middle" font-size="20" font-family="Verdana">Bernoulli Distribution PDF</text></g>
</svg>
