<?xml version="1.0" encoding="UTF-8" standalone="no"?>
<svg width="750" height ="400" version="1.1" xmlns="http://www.w3.org/2000/svg"
 xmlns:xlink="http://www.w3.org/1999/xlink"
 xmlns:ev="http://www.w3.org/2001/xml-events">

<!-- SVG plot written using Boost.Plot program (Creator Jacob Voytko) --> 
<!-- Use, modification and distribution of Boost.Plot subject to the --> 
<!-- Boost Software License, Version 1.0.--> 
<!-- (See accompanying file LICENSE_1_0.txt --> 
<!-- or copy at http://www.boost.org/LICENSE_1_0.txt) --> 

<clipPath id="plot_window"><rect x="71.2" y="63" width="438.8" height="274.2"/></clipPath>
<g id="imageBackground" stroke="rgb(119,136,153)" fill="rgb(255,255,255)" stroke-width="2"><rect x="0" y="0" width="750" height="400"/></g>
<g id="plotBackground" stroke="rgb(119,136,153)" fill="rgb(255,255,255)" stroke-width="2"><rect x="70.2" y="62" width="440.8" height="276.2"/></g>
<g id="yMinorGrid" stroke="rgb(200,220,255)" stroke-width="0.5"></g>
<g id="yMajorGrid" stroke="rgb(200,220,255)" stroke-width="1"></g>
<g id="xMinorGrid" stroke="rgb(200,220,255)" stroke-width="0.5"></g>
<g id="xMajorGrid" stroke="rgb(200,220,255)" stroke-width="1"></g>
<g id="yAxis" stroke="rgb(0,0,0)" stroke-width="1"><line x1="70.2" y1="62" x2="70.2" y2="343.2"/><line x1="70.2" y1="62" x2="70.2" y2="338.2"/></g>
<g id="xAxis" stroke="rgb(0,0,0)" stroke-width="1"><line x1="65.2" y1="338.2" x2="511" y2="338.2"/><line x1="65.2" y1="338.2" x2="511" y2="338.2"/></g>
<g id="yMinorTicks" stroke="rgb(0,0,0)" stroke-width="1"><path d="M68.2,329.5 L70.2,329.5 M68.2,320.8 L70.2,320.8 M68.2,312.1 L70.2,312.1 M68.2,303.3 L70.2,303.3 M68.2,285.9 L70.2,285.9 M68.2,277.2 L70.2,277.2 M68.2,268.5 L70.2,268.5 M68.2,259.8 L70.2,259.8 M68.2,242.3 L70.2,242.3 M68.2,233.6 L70.2,233.6 M68.2,224.9 L70.2,224.9 M68.2,216.2 L70.2,216.2 M68.2,198.8 L70.2,198.8 M68.2,190 L70.2,190 M68.2,181.3 L70.2,181.3 M68.2,172.6 L70.2,172.6 M68.2,155.2 L70.2,155.2 M68.2,146.5 L70.2,146.5 M68.2,137.8 L70.2,137.8 M68.2,129 L70.2,129 M68.2,111.6 L70.2,111.6 M68.2,102.9 L70.2,102.9 M68.2,94.19 L70.2,94.19 M68.2,85.47 L70.2,85.47 M68.2,68.04 L70.2,68.04 M68.2,338.2 L70.2,338.2 "/></g>
<g id="xMinorTicks" stroke="rgb(0,0,0)" stroke-width="1"><path d="M79.02,338.2 L79.02,340.2 M87.83,338.2 L87.83,340.2 M96.65,338.2 L96.65,340.2 M105.5,338.2 L105.5,340.2 M123.1,338.2 L123.1,340.2 M131.9,338.2 L131.9,340.2 M140.7,338.2 L140.7,340.2 M149.6,338.2 L149.6,340.2 M167.2,338.2 L167.2,340.2 M176,338.2 L176,340.2 M184.8,338.2 L184.8,340.2 M193.6,338.2 L193.6,340.2 M211.3,338.2 L211.3,340.2 M220.1,338.2 L220.1,340.2 M228.9,338.2 L228.9,340.2 M237.7,338.2 L237.7,340.2 M255.4,338.2 L255.4,340.2 M264.2,338.2 L264.2,340.2 M273,338.2 L273,340.2 M281.8,338.2 L281.8,340.2 M299.4,338.2 L299.4,340.2 M308.3,338.2 L308.3,340.2 M317.1,338.2 L317.1,340.2 M325.9,338.2 L325.9,340.2 M343.5,338.2 L343.5,340.2 M352.3,338.2 L352.3,340.2 M361.2,338.2 L361.2,340.2 M370,338.2 L370,340.2 M387.6,338.2 L387.6,340.2 M396.4,338.2 L396.4,340.2 M405.2,338.2 L405.2,340.2 M414.1,338.2 L414.1,340.2 M431.7,338.2 L431.7,340.2 M440.5,338.2 L440.5,340.2 M449.3,338.2 L449.3,340.2 M458.1,338.2 L458.1,340.2 M475.8,338.2 L475.8,340.2 M484.6,338.2 L484.6,340.2 M493.4,338.2 L493.4,340.2 M502.2,338.2 L502.2,340.2 "/></g>
<g id="yMajorTicks" stroke="rgb(0,0,0)" stroke-width="2"><path d="M65.2,338.2 L70.2,338.2 M65.2,294.6 L70.2,294.6 M65.2,251.1 L70.2,251.1 M65.2,207.5 L70.2,207.5 M65.2,163.9 L70.2,163.9 M65.2,120.3 L70.2,120.3 M65.2,76.76 L70.2,76.76 M65.2,338.2 L70.2,338.2 "/></g>
<g id="xMajorTicks" stroke="rgb(0,0,0)" stroke-width="2"><path d="M70.2,338.2 L70.2,343.2 M114.3,338.2 L114.3,343.2 M158.4,338.2 L158.4,343.2 M202.5,338.2 L202.5,343.2 M246.5,338.2 L246.5,343.2 M290.6,338.2 L290.6,343.2 M334.7,338.2 L334.7,343.2 M378.8,338.2 L378.8,343.2 M422.9,338.2 L422.9,343.2 M467,338.2 L467,343.2 M511,338.2 L511,343.2 M70.2,338.2 L70.2,343.2 "/></g>
<g id="plotLabels">
<text x="70.2" y="357.6" text-anchor="middle" font-size="12" font-family="Verdana">0</text>
<text x="114.3" y="357.6" text-anchor="middle" font-size="12" font-family="Verdana">0.1</text>
<text x="158.4" y="357.6" text-anchor="middle" font-size="12" font-family="Verdana">0.2</text>
<text x="202.5" y="357.6" text-anchor="middle" font-size="12" font-family="Verdana">0.3</text>
<text x="246.5" y="357.6" text-anchor="middle" font-size="12" font-family="Verdana">0.4</text>
<text x="290.6" y="357.6" text-anchor="middle" font-size="12" font-family="Verdana">0.5</text>
<text x="334.7" y="357.6" text-anchor="middle" font-size="12" font-family="Verdana">0.6</text>
<text x="378.8" y="357.6" text-anchor="middle" font-size="12" font-family="Verdana">0.7</text>
<text x="422.9" y="357.6" text-anchor="middle" font-size="12" font-family="Verdana">0.8</text>
<text x="467" y="357.6" text-anchor="middle" font-size="12" font-family="Verdana">0.9</text>
<text x="511" y="357.6" text-anchor="middle" font-size="12" font-family="Verdana">1</text>
<text x="70.2" y="357.6" text-anchor="middle" font-size="12" font-family="Verdana">0</text>
<text x="59.2" y="340.6" text-anchor="end" font-size="12" font-family="Verdana">0</text>
<text x="59.2" y="297" text-anchor="end" font-size="12" font-family="Verdana">0.5</text>
<text x="59.2" y="253.5" text-anchor="end" font-size="12" font-family="Verdana">1</text>
<text x="59.2" y="209.9" text-anchor="end" font-size="12" font-family="Verdana">1.5</text>
<text x="59.2" y="166.3" text-anchor="end" font-size="12" font-family="Verdana">2</text>
<text x="59.2" y="122.7" text-anchor="end" font-size="12" font-family="Verdana">2.5</text>
<text x="59.2" y="79.16" text-anchor="end" font-size="12" font-family="Verdana">3</text>
<text x="59.2" y="340.6" text-anchor="end" font-size="12" font-family="Verdana">0</text></g>
<g id="yLabel">
<text x="30.2" y="200.1" text-anchor="middle" transform = "rotate(-90 30.2 200.1 )" font-size="14" font-family="Verdana">Probability</text></g>
<g id="xLabel">
<text x="290.6" y="384" text-anchor="middle" font-size="14" font-family="Verdana">Random Variable</text></g>
<g id="plotLines" stroke-width="2"><g clip-path="url(#plot_window)" stroke="rgb(0,0,139)" stroke-width="1"><path d="M72.4,-55.09 L74.61,59.4 L76.81,110 L79.02,140.1 L81.22,160.5 L83.43,175.6 L85.63,187.3 L87.83,196.6 L90.04,204.4 L92.24,210.9 L94.45,216.5 L96.65,221.4 L98.85,225.7 L101.1,229.5 L103.3,232.9 L105.5,235.9 L107.7,238.7 L109.9,241.3 L112.1,243.6 L114.3,245.7 L116.5,247.7 L118.7,249.5 L120.9,251.2 L123.1,252.8 L125.3,254.3 L127.5,255.7 L129.7,257 L131.9,258.3 L134.1,259.4 L136.3,260.5 L138.5,261.5 L140.7,262.5 L142.9,263.5 L145.1,264.4 L147.3,265.2 L149.6,266 L151.8,266.8 L154,267.5 L156.2,268.2 L158.4,268.8 L160.6,269.5 L162.8,270.1 L165,270.7 L167.2,271.2 L169.4,271.8 L171.6,272.3 L173.8,272.8 L176,273.2 L178.2,273.7 L180.4,274.1 L182.6,274.6 L184.8,275 L187,275.3 L189.2,275.7 L191.4,276.1 L193.6,276.4 L195.8,276.7 L198,277.1 L200.2,277.4 L202.5,277.7 L204.7,277.9 L206.9,278.2 L209.1,278.5 L211.3,278.7 L213.5,279 L215.7,279.2 L217.9,279.4 L220.1,279.6 L222.3,279.8 L224.5,280 L226.7,280.2 L228.9,280.4 L231.1,280.6 L233.3,280.7 L235.5,280.9 L237.7,281 L239.9,281.2 L242.1,281.3 L244.3,281.5 L246.5,281.6 L248.7,281.7 L250.9,281.8 L253.1,281.9 L255.4,282 L257.6,282.1 L259.8,282.2 L262,282.2 L264.2,282.3 L266.4,282.4 L268.6,282.4 L270.8,282.5 L273,282.5 L275.2,282.6 L277.4,282.6 L279.6,282.7 L281.8,282.7 L284,282.7 L286.2,282.7 L288.4,282.7 L290.6,282.7 L292.8,282.7 L295,282.7 L297.2,282.7 L299.4,282.7 L301.6,282.7 L303.8,282.6 L306,282.6 L308.3,282.5 L310.5,282.5 L312.7,282.4 L314.9,282.4 L317.1,282.3 L319.3,282.2 L321.5,282.2 L323.7,282.1 L325.9,282 L328.1,281.9 L330.3,281.8 L332.5,281.7 L334.7,281.6 L336.9,281.5 L339.1,281.3 L341.3,281.2 L343.5,281 L345.7,280.9 L347.9,280.7 L350.1,280.6 L352.3,280.4 L354.5,280.2 L356.7,280 L359,279.8 L361.2,279.6 L363.4,279.4 L365.6,279.2 L367.8,279 L370,278.7 L372.2,278.5 L374.4,278.2 L376.6,277.9 L378.8,277.7 L381,277.4 L383.2,277.1 L385.4,276.7 L387.6,276.4 L389.8,276.1 L392,275.7 L394.2,275.3 L396.4,275 L398.6,274.6 L400.8,274.1 L403,273.7 L405.2,273.2 L407.4,272.8 L409.6,272.3 L411.9,271.8 L414.1,271.2 L416.3,270.7 L418.5,270.1 L420.7,269.5 L422.9,268.8 L425.1,268.2 L427.3,267.5 L429.5,266.8 L431.7,266 L433.9,265.2 L436.1,264.4 L438.3,263.5 L440.5,262.5 L442.7,261.5 L444.9,260.5 L447.1,259.4 L449.3,258.3 L451.5,257 L453.7,255.7 L455.9,254.3 L458.1,252.8 L460.3,251.2 L462.5,249.5 L464.8,247.7 L467,245.7 L469.2,243.6 L471.4,241.3 L473.6,238.7 L475.8,235.9 L478,232.9 L480.2,229.5 L482.4,225.7 L484.6,221.4 L486.8,216.5 L489,210.9 L491.2,204.4 L493.4,196.6 L495.6,187.3 L497.8,175.6 L500,160.5 L502.2,140.1 L504.4,110 L506.6,59.4 L508.8,-55.09 " fill="none"/></g>
<g clip-path="url(#plot_window)" stroke="rgb(139,0,0)" stroke-width="1"><path d="M70.2,338.2 L72.4,338.2 L74.61,338.2 L76.81,338.2 L79.02,338.2 L81.22,338.2 L83.43,338.2 L85.63,338.2 L87.83,338.2 L90.04,338.2 L92.24,338.2 L94.45,338.2 L96.65,338.2 L98.85,338.2 L101.1,338.2 L103.3,338.2 L105.5,338.2 L107.7,338.2 L109.9,338.2 L112.1,338.2 L114.3,338.2 L116.5,338.1 L118.7,338.1 L120.9,338.1 L123.1,338.1 L125.3,338.1 L127.5,338.1 L129.7,338.1 L131.9,338 L134.1,338 L136.3,338 L138.5,337.9 L140.7,337.9 L142.9,337.9 L145.1,337.8 L147.3,337.8 L149.6,337.7 L151.8,337.7 L154,337.6 L156.2,337.6 L158.4,337.5 L160.6,337.4 L162.8,337.4 L165,337.3 L167.2,337.2 L169.4,337.1 L171.6,337 L173.8,336.9 L176,336.8 L178.2,336.6 L180.4,336.5 L182.6,336.4 L184.8,336.2 L187,336.1 L189.2,335.9 L191.4,335.7 L193.6,335.5 L195.8,335.3 L198,335.1 L200.2,334.9 L202.5,334.7 L204.7,334.4 L206.9,334.2 L209.1,333.9 L211.3,333.6 L213.5,333.3 L215.7,333 L217.9,332.7 L220.1,332.4 L222.3,332 L224.5,331.7 L226.7,331.3 L228.9,330.9 L231.1,330.5 L233.3,330 L235.5,329.6 L237.7,329.1 L239.9,328.6 L242.1,328.1 L244.3,327.6 L246.5,327 L248.7,326.5 L250.9,325.9 L253.1,325.3 L255.4,324.6 L257.6,324 L259.8,323.3 L262,322.6 L264.2,321.9 L266.4,321.1 L268.6,320.3 L270.8,319.5 L273,318.7 L275.2,317.8 L277.4,316.9 L279.6,316 L281.8,315.1 L284,314.1 L286.2,313.1 L288.4,312 L290.6,311 L292.8,309.9 L295,308.7 L297.2,307.5 L299.4,306.3 L301.6,305.1 L303.8,303.8 L306,302.5 L308.3,301.1 L310.5,299.8 L312.7,298.3 L314.9,296.9 L317.1,295.3 L319.3,293.8 L321.5,292.2 L323.7,290.6 L325.9,288.9 L328.1,287.2 L330.3,285.4 L332.5,283.6 L334.7,281.7 L336.9,279.8 L339.1,277.9 L341.3,275.9 L343.5,273.8 L345.7,271.7 L347.9,269.6 L350.1,267.4 L352.3,265.1 L354.5,262.8 L356.7,260.4 L359,258 L361.2,255.5 L363.4,253 L365.6,250.4 L367.8,247.7 L370,245 L372.2,242.3 L374.4,239.4 L376.6,236.5 L378.8,233.6 L381,230.6 L383.2,227.5 L385.4,224.3 L387.6,221.1 L389.8,217.8 L392,214.5 L394.2,211 L396.4,207.5 L398.6,204 L400.8,200.3 L403,196.6 L405.2,192.8 L407.4,189 L409.6,185 L411.9,181 L414.1,176.9 L416.3,172.7 L418.5,168.5 L420.7,164.1 L422.9,159.7 L425.1,155.2 L427.3,150.6 L429.5,146 L431.7,141.2 L433.9,136.3 L436.1,131.4 L438.3,126.4 L440.5,121.3 L442.7,116 L444.9,110.7 L447.1,105.3 L449.3,99.85 L451.5,94.25 L453.7,88.57 L455.9,82.78 L458.1,76.89 L460.3,70.9 L462.5,64.81 L464.8,58.61 L467,52.31 L469.2,45.9 L471.4,39.39 L473.6,32.77 L475.8,26.04 L478,19.2 L480.2,12.24 L482.4,5.177 L484.6,-2.004 L486.8,-9.3 L489,-16.71 L491.2,-24.24 L493.4,-31.89 L495.6,-39.67 L497.8,-47.56 L500,-55.57 L502.2,-63.71 L504.4,-71.98 L506.6,-80.37 L508.8,-88.89 " fill="none"/></g>
<g clip-path="url(#plot_window)" stroke="rgb(0,100,0)" stroke-width="1"><path d="M70.2,76.76 L72.4,79.36 L74.61,81.96 L76.81,84.54 L79.02,87.11 L81.22,89.66 L83.43,92.21 L85.63,94.74 L87.83,97.25 L90.04,99.76 L92.24,102.2 L94.45,104.7 L96.65,107.2 L98.85,109.6 L101.1,112.1 L103.3,114.5 L105.5,116.9 L107.7,119.3 L109.9,121.7 L112.1,124.1 L114.3,126.4 L116.5,128.8 L118.7,131.1 L120.9,133.4 L123.1,135.7 L125.3,138 L127.5,140.3 L129.7,142.6 L131.9,144.8 L134.1,147.1 L136.3,149.3 L138.5,151.5 L140.7,153.7 L142.9,155.9 L145.1,158.1 L147.3,160.3 L149.6,162.4 L151.8,164.5 L154,166.7 L156.2,168.8 L158.4,170.9 L160.6,173 L162.8,175 L165,177.1 L167.2,179.1 L169.4,181.2 L171.6,183.2 L173.8,185.2 L176,187.2 L178.2,189.2 L180.4,191.1 L182.6,193.1 L184.8,195 L187,197 L189.2,198.9 L191.4,200.8 L193.6,202.7 L195.8,204.5 L198,206.4 L200.2,208.3 L202.5,210.1 L204.7,211.9 L206.9,213.7 L209.1,215.5 L211.3,217.3 L213.5,219.1 L215.7,220.8 L217.9,222.6 L220.1,224.3 L222.3,226 L224.5,227.7 L226.7,229.4 L228.9,231.1 L231.1,232.8 L233.3,234.4 L235.5,236.1 L237.7,237.7 L239.9,239.3 L242.1,240.9 L244.3,242.5 L246.5,244.1 L248.7,245.6 L250.9,247.2 L253.1,248.7 L255.4,250.3 L257.6,251.8 L259.8,253.3 L262,254.7 L264.2,256.2 L266.4,257.7 L268.6,259.1 L270.8,260.5 L273,262 L275.2,263.4 L277.4,264.8 L279.6,266.1 L281.8,267.5 L284,268.9 L286.2,270.2 L288.4,271.5 L290.6,272.8 L292.8,274.1 L295,275.4 L297.2,276.7 L299.4,278 L301.6,279.2 L303.8,280.4 L306,281.7 L308.3,282.9 L310.5,284.1 L312.7,285.3 L314.9,286.4 L317.1,287.6 L319.3,288.7 L321.5,289.9 L323.7,291 L325.9,292.1 L328.1,293.2 L330.3,294.3 L332.5,295.3 L334.7,296.4 L336.9,297.4 L339.1,298.4 L341.3,299.4 L343.5,300.4 L345.7,301.4 L347.9,302.4 L350.1,303.4 L352.3,304.3 L354.5,305.3 L356.7,306.2 L359,307.1 L361.2,308 L363.4,308.9 L365.6,309.7 L367.8,310.6 L370,311.4 L372.2,312.3 L374.4,313.1 L376.6,313.9 L378.8,314.7 L381,315.4 L383.2,316.2 L385.4,317 L387.6,317.7 L389.8,318.4 L392,319.1 L394.2,319.8 L396.4,320.5 L398.6,321.2 L400.8,321.9 L403,322.5 L405.2,323.1 L407.4,323.8 L409.6,324.4 L411.9,325 L414.1,325.5 L416.3,326.1 L418.5,326.7 L420.7,327.2 L422.9,327.7 L425.1,328.3 L427.3,328.8 L429.5,329.3 L431.7,329.7 L433.9,330.2 L436.1,330.6 L438.3,331.1 L440.5,331.5 L442.7,331.9 L444.9,332.3 L447.1,332.7 L449.3,333.1 L451.5,333.4 L453.7,333.8 L455.9,334.1 L458.1,334.4 L460.3,334.7 L462.5,335 L464.8,335.3 L467,335.6 L469.2,335.8 L471.4,336.1 L473.6,336.3 L475.8,336.5 L478,336.7 L480.2,336.9 L482.4,337.1 L484.6,337.3 L486.8,337.4 L489,337.5 L491.2,337.7 L493.4,337.8 L495.6,337.9 L497.8,338 L500,338 L502.2,338.1 L504.4,338.1 L506.6,338.2 L508.8,338.2 " fill="none"/></g>
<g clip-path="url(#plot_window)" stroke="rgb(255,140,0)" stroke-width="1"><path d="M70.2,338.2 L72.4,335.6 L74.61,333 L76.81,330.5 L79.02,328 L81.22,325.5 L83.43,323 L85.63,320.5 L87.83,318.1 L90.04,315.7 L92.24,313.4 L94.45,311 L96.65,308.7 L98.85,306.4 L101.1,304.2 L103.3,301.9 L105.5,299.7 L107.7,297.5 L109.9,295.4 L112.1,293.2 L114.3,291.1 L116.5,289.1 L118.7,287 L120.9,285 L123.1,283 L125.3,281 L127.5,279.1 L129.7,277.1 L131.9,275.2 L134.1,273.4 L136.3,271.5 L138.5,269.7 L140.7,267.9 L142.9,266.2 L145.1,264.4 L147.3,262.7 L149.6,261 L151.8,259.4 L154,257.7 L156.2,256.1 L158.4,254.5 L160.6,253 L162.8,251.5 L165,249.9 L167.2,248.5 L169.4,247 L171.6,245.6 L173.8,244.2 L176,242.8 L178.2,241.5 L180.4,240.2 L182.6,238.9 L184.8,237.6 L187,236.4 L189.2,235.1 L191.4,233.9 L193.6,232.8 L195.8,231.6 L198,230.5 L200.2,229.5 L202.5,228.4 L204.7,227.4 L206.9,226.4 L209.1,225.4 L211.3,224.4 L213.5,223.5 L215.7,222.6 L217.9,221.7 L220.1,220.9 L222.3,220 L224.5,219.2 L226.7,218.5 L228.9,217.7 L231.1,217 L233.3,216.3 L235.5,215.6 L237.7,215 L239.9,214.4 L242.1,213.8 L244.3,213.2 L246.5,212.7 L248.7,212.2 L250.9,211.7 L253.1,211.3 L255.4,210.8 L257.6,210.4 L259.8,210 L262,209.7 L264.2,209.4 L266.4,209.1 L268.6,208.8 L270.8,208.5 L273,208.3 L275.2,208.1 L277.4,207.9 L279.6,207.8 L281.8,207.7 L284,207.6 L286.2,207.5 L288.4,207.5 L290.6,207.5 L292.8,207.5 L295,207.5 L297.2,207.6 L299.4,207.7 L301.6,207.8 L303.8,207.9 L306,208.1 L308.3,208.3 L310.5,208.5 L312.7,208.8 L314.9,209.1 L317.1,209.4 L319.3,209.7 L321.5,210 L323.7,210.4 L325.9,210.8 L328.1,211.3 L330.3,211.7 L332.5,212.2 L334.7,212.7 L336.9,213.2 L339.1,213.8 L341.3,214.4 L343.5,215 L345.7,215.6 L347.9,216.3 L350.1,217 L352.3,217.7 L354.5,218.5 L356.7,219.2 L359,220 L361.2,220.9 L363.4,221.7 L365.6,222.6 L367.8,223.5 L370,224.4 L372.2,225.4 L374.4,226.4 L376.6,227.4 L378.8,228.4 L381,229.5 L383.2,230.5 L385.4,231.6 L387.6,232.8 L389.8,233.9 L392,235.1 L394.2,236.4 L396.4,237.6 L398.6,238.9 L400.8,240.2 L403,241.5 L405.2,242.8 L407.4,244.2 L409.6,245.6 L411.9,247 L414.1,248.5 L416.3,249.9 L418.5,251.5 L420.7,253 L422.9,254.5 L425.1,256.1 L427.3,257.7 L429.5,259.4 L431.7,261 L433.9,262.7 L436.1,264.4 L438.3,266.2 L440.5,267.9 L442.7,269.7 L444.9,271.5 L447.1,273.4 L449.3,275.2 L451.5,277.1 L453.7,279.1 L455.9,281 L458.1,283 L460.3,285 L462.5,287 L464.8,289.1 L467,291.1 L469.2,293.2 L471.4,295.4 L473.6,297.5 L475.8,299.7 L478,301.9 L480.2,304.2 L482.4,306.4 L484.6,308.7 L486.8,311 L489,313.4 L491.2,315.7 L493.4,318.1 L495.6,320.5 L497.8,323 L500,325.5 L502.2,328 L504.4,330.5 L506.6,333 L508.8,335.6 " fill="none"/></g>
<g clip-path="url(#plot_window)" stroke="rgb(127,255,0)" stroke-width="1"><path d="M70.2,338.2 L72.4,325.4 L74.61,313.1 L76.81,301.3 L79.02,290 L81.22,279.1 L83.43,268.8 L85.63,258.8 L87.83,249.4 L90.04,240.3 L92.24,231.7 L94.45,223.5 L96.65,215.7 L98.85,208.3 L101.1,201.3 L103.3,194.6 L105.5,188.4 L107.7,182.4 L109.9,176.8 L112.1,171.6 L114.3,166.7 L116.5,162.1 L118.7,157.8 L120.9,153.8 L123.1,150.1 L125.3,146.6 L127.5,143.5 L129.7,140.6 L131.9,138 L134.1,135.6 L136.3,133.5 L138.5,131.6 L140.7,129.9 L142.9,128.5 L145.1,127.3 L147.3,126.3 L149.6,125.4 L151.8,124.8 L154,124.4 L156.2,124.1 L158.4,124 L160.6,124.1 L162.8,124.4 L165,124.8 L167.2,125.3 L169.4,126 L171.6,126.8 L173.8,127.8 L176,128.9 L178.2,130.1 L180.4,131.4 L182.6,132.8 L184.8,134.4 L187,136 L189.2,137.7 L191.4,139.6 L193.6,141.5 L195.8,143.5 L198,145.5 L200.2,147.7 L202.5,149.9 L204.7,152.2 L206.9,154.5 L209.1,156.9 L211.3,159.3 L213.5,161.8 L215.7,164.3 L217.9,166.9 L220.1,169.5 L222.3,172.2 L224.5,174.9 L226.7,177.6 L228.9,180.3 L231.1,183 L233.3,185.8 L235.5,188.6 L237.7,191.4 L239.9,194.2 L242.1,197 L244.3,199.8 L246.5,202.7 L248.7,205.5 L250.9,208.3 L253.1,211.1 L255.4,213.9 L257.6,216.7 L259.8,219.5 L262,222.3 L264.2,225.1 L266.4,227.8 L268.6,230.5 L270.8,233.3 L273,235.9 L275.2,238.6 L277.4,241.2 L279.6,243.9 L281.8,246.4 L284,249 L286.2,251.5 L288.4,254 L290.6,256.5 L292.8,258.9 L295,261.3 L297.2,263.7 L299.4,266 L301.6,268.3 L303.8,270.6 L306,272.8 L308.3,275 L310.5,277.1 L312.7,279.2 L314.9,281.3 L317.1,283.3 L319.3,285.3 L321.5,287.3 L323.7,289.2 L325.9,291 L328.1,292.8 L330.3,294.6 L332.5,296.3 L334.7,298 L336.9,299.7 L339.1,301.3 L341.3,302.9 L343.5,304.4 L345.7,305.9 L347.9,307.3 L350.1,308.7 L352.3,310.1 L354.5,311.4 L356.7,312.7 L359,313.9 L361.2,315.1 L363.4,316.3 L365.6,317.4 L367.8,318.5 L370,319.6 L372.2,320.6 L374.4,321.5 L376.6,322.5 L378.8,323.4 L381,324.2 L383.2,325.1 L385.4,325.9 L387.6,326.6 L389.8,327.4 L392,328.1 L394.2,328.7 L396.4,329.4 L398.6,330 L400.8,330.5 L403,331.1 L405.2,331.6 L407.4,332.1 L409.6,332.6 L411.9,333 L414.1,333.4 L416.3,333.8 L418.5,334.2 L420.7,334.5 L422.9,334.9 L425.1,335.2 L427.3,335.4 L429.5,335.7 L431.7,335.9 L433.9,336.2 L436.1,336.4 L438.3,336.6 L440.5,336.8 L442.7,336.9 L444.9,337.1 L447.1,337.2 L449.3,337.3 L451.5,337.4 L453.7,337.6 L455.9,337.6 L458.1,337.7 L460.3,337.8 L462.5,337.9 L464.8,337.9 L467,338 L469.2,338 L471.4,338 L473.6,338.1 L475.8,338.1 L478,338.1 L480.2,338.1 L482.4,338.2 L484.6,338.2 L486.8,338.2 L489,338.2 L491.2,338.2 L493.4,338.2 L495.6,338.2 L497.8,338.2 L500,338.2 L502.2,338.2 L504.4,338.2 L506.6,338.2 L508.8,338.2 " fill="none"/></g>
</g>
<g id="plotPoints" clip-path="url(#plot_window)"><g stroke="rgb(0,0,0)"></g>
<g stroke="rgb(0,0,0)"></g>
<g stroke="rgb(0,0,0)"></g>
<g stroke="rgb(0,0,0)"></g>
<g stroke="rgb(0,0,0)"></g>
</g>
<g id="limitPoints" stroke="rgb(119,136,153)" fill="rgb(250,235,215)"></g>
<g id="legendBackground" stroke="rgb(119,136,153)" fill="rgb(255,255,255)" stroke-width="1"><rect x="525" y="62" width="213" height="165"/><rect x="525" y="62" width="213" height="165"/></g>
<g id="legendPoints"><g stroke="rgb(0,0,139)" stroke-width="1"><line x1="540" y1="92" x2="555" y2="92"/></g>
<g stroke="rgb(139,0,0)" stroke-width="1"><line x1="540" y1="122" x2="555" y2="122"/></g>
<g stroke="rgb(0,100,0)" stroke-width="1"><line x1="540" y1="152" x2="555" y2="152"/></g>
<g stroke="rgb(255,140,0)" stroke-width="1"><line x1="540" y1="182" x2="555" y2="182"/></g>
<g stroke="rgb(127,255,0)" stroke-width="1"><line x1="540" y1="212" x2="555" y2="212"/></g>
</g>
<g id="legendText">
<text x="562.5" y="92" font-size="15" font-family="Verdana">alpha=0.5, beta=0.5</text>
<text x="562.5" y="122" font-size="15" font-family="Verdana">alpha=5, beta=1</text>
<text x="562.5" y="152" font-size="15" font-family="Verdana">alpha=1, beta=3</text>
<text x="562.5" y="182" font-size="15" font-family="Verdana">alpha=2, beta=2</text>
<text x="562.5" y="212" font-size="15" font-family="Verdana">alpha=2, beta=5</text></g>
<g id="title">
<text x="375" y="40" text-anchor="middle" font-size="20" font-family="Verdana">Beta Distribution PDF</text></g>
</svg>
