<?xml version="1.0" encoding="UTF-8" standalone="no"?>
<svg width="600" height ="400" version="1.1" xmlns="http://www.w3.org/2000/svg"
 xmlns:xlink="http://www.w3.org/1999/xlink"
 xmlns:ev="http://www.w3.org/2001/xml-events">

<!-- SVG plot written using Boost.Plot program (Creator Jacob Voytko) --> 
<!-- Use, modification and distribution of Boost.Plot subject to the --> 
<!-- Boost Software License, Version 1.0.--> 
<!-- (See accompanying file LICENSE_1_0.txt --> 
<!-- or copy at http://www.boost.org/LICENSE_1_0.txt) --> 

<!-- SVG Plot Copyright John Maddock 2008 --> 
<meta name="copyright" content="John Maddock" />
<meta name="date" content="2008" />
<!-- Use, modification and distribution of this Scalable Vector Graphic file -->
<!-- are subject to the Boost Software License, Version 1.0. -->
<!-- (See accompanying file LICENSE_1_0.txt or copy at http://www.boost.org/LICENSE_1_0.txt) -->

<clipPath id="plot_window"><rect x="62.8" y="63" width="387.5" height="274.2"/></clipPath>
<g id="imageBackground" stroke="rgb(119,136,153)" fill="rgb(255,255,255)" stroke-width="2"><rect x="0" y="0" width="600" height="400"/></g>
<g id="plotBackground" stroke="rgb(119,136,153)" fill="rgb(255,255,255)" stroke-width="2"><rect x="61.8" y="62" width="389.5" height="276.2"/></g>
<g id="yMinorGrid" stroke="rgb(200,220,255)" stroke-width="0.5"></g>
<g id="yMajorGrid" stroke="rgb(200,220,255)" stroke-width="1"></g>
<g id="xMinorGrid" stroke="rgb(200,220,255)" stroke-width="0.5"></g>
<g id="xMajorGrid" stroke="rgb(200,220,255)" stroke-width="1"></g>
<g id="yAxis" stroke="rgb(0,0,0)" stroke-width="1"><line x1="61.8" y1="62" x2="61.8" y2="338.2"/></g>
<g id="xAxis" stroke="rgb(0,0,0)" stroke-width="1"><line x1="56.8" y1="218.1" x2="451.3" y2="218.1"/><line x1="56.8" y1="338.2" x2="451.3" y2="338.2"/></g>
<g id="yMinorTicks" stroke="rgb(0,0,0)" stroke-width="1"><path d="M59.8,201.7 L61.8,201.7 M59.8,185.3 L61.8,185.3 M59.8,169 L61.8,169 M59.8,136.3 L61.8,136.3 M59.8,119.9 L61.8,119.9 M59.8,103.6 L61.8,103.6 M59.8,70.86 L61.8,70.86 M59.8,218.1 L61.8,218.1 M59.8,234.4 L61.8,234.4 M59.8,250.8 L61.8,250.8 M59.8,267.1 L61.8,267.1 M59.8,283.5 L61.8,283.5 M59.8,299.8 L61.8,299.8 M59.8,316.2 L61.8,316.2 M59.8,332.5 L61.8,332.5 "/></g>
<g id="xMinorTicks" stroke="rgb(0,0,0)" stroke-width="1"><path d="M80.89,338.2 L80.89,340.2 M99.98,338.2 L99.98,340.2 M119.1,338.2 L119.1,340.2 M157.3,338.2 L157.3,340.2 M176.4,338.2 L176.4,340.2 M195.4,338.2 L195.4,340.2 M233.6,338.2 L233.6,340.2 M252.7,338.2 L252.7,340.2 M271.8,338.2 L271.8,340.2 M310,338.2 L310,340.2 M329.1,338.2 L329.1,340.2 M348.2,338.2 L348.2,340.2 M386.4,338.2 L386.4,340.2 M405.5,338.2 L405.5,340.2 M424.6,338.2 L424.6,340.2 "/></g>
<g id="yMajorTicks" stroke="rgb(0,0,0)" stroke-width="2"><path d="M56.8,218.1 L61.8,218.1 M56.8,152.6 L61.8,152.6 M56.8,87.21 L61.8,87.21 M56.8,218.1 L61.8,218.1 M56.8,283.5 L61.8,283.5 "/></g>
<g id="xMajorTicks" stroke="rgb(0,0,0)" stroke-width="2"><path d="M61.8,338.2 L61.8,343.2 M138.2,338.2 L138.2,343.2 M214.5,338.2 L214.5,343.2 M290.9,338.2 L290.9,343.2 M367.3,338.2 L367.3,343.2 M443.6,338.2 L443.6,343.2 "/></g>
<g id="plotLabels">
<text x="61.8" y="357.6" text-anchor="middle" font-size="12" font-family="Verdana">0</text>
<text x="138.2" y="357.6" text-anchor="middle" font-size="12" font-family="Verdana">1</text>
<text x="214.5" y="357.6" text-anchor="middle" font-size="12" font-family="Verdana">2</text>
<text x="290.9" y="357.6" text-anchor="middle" font-size="12" font-family="Verdana">3</text>
<text x="367.3" y="357.6" text-anchor="middle" font-size="12" font-family="Verdana">4</text>
<text x="443.6" y="357.6" text-anchor="middle" font-size="12" font-family="Verdana">5</text>
<text x="50.8" y="220.5" text-anchor="end" font-size="12" font-family="Verdana">0</text>
<text x="50.8" y="155" text-anchor="end" font-size="12" font-family="Verdana">5</text>
<text x="50.8" y="89.61" text-anchor="end" font-size="12" font-family="Verdana">10</text>
<text x="50.8" y="220.5" text-anchor="end" font-size="12" font-family="Verdana">0</text>
<text x="50.8" y="285.9" text-anchor="end" font-size="12" font-family="Verdana">-5</text></g>
<g id="yLabel">
<text x="30.2" y="200.1" text-anchor="middle" transform = "rotate(-90 30.2 200.1 )" font-size="14" font-family="Verdana">log(beta(a, z))</text></g>
<g id="xLabel">
<text x="256.5" y="384" text-anchor="middle" font-size="14" font-family="Verdana">z</text></g>
<g id="plotLines" stroke-width="2"><g clip-path="url(#plot_window)" stroke="rgb(0,0,139)" stroke-width="1"><path d="M61.8,67.42 L63.71,169.4 L65.62,178 L67.53,182.9 L69.44,186.3 L71.35,188.9 L73.26,190.9 L75.16,192.6 L77.07,194 L78.98,195.3 L80.89,196.4 L82.8,197.3 L84.71,198.2 L86.62,199 L88.53,199.7 L90.44,200.4 L92.35,201 L94.26,201.6 L96.17,202.1 L98.08,202.6 L99.98,203.1 L101.9,203.5 L103.8,203.9 L105.7,204.3 L107.6,204.7 L109.5,205.1 L111.4,205.4 L113.3,205.7 L115.3,206 L117.2,206.3 L119.1,206.6 L121,206.9 L122.9,207.2 L124.8,207.4 L126.7,207.7 L128.6,207.9 L130.5,208.1 L132.4,208.4 L134.4,208.6 L136.3,208.8 L138.2,209 L140.1,209.2 L142,209.4 L143.9,209.6 L145.8,209.7 L147.7,209.9 L149.6,210.1 L151.5,210.3 L153.4,210.4 L155.4,210.6 L157.3,210.7 L159.2,210.9 L161.1,211.1 L163,211.2 L164.9,211.3 L166.8,211.5 L168.7,211.6 L170.6,211.8 L172.5,211.9 L174.4,212 L176.4,212.1 L178.3,212.3 L180.2,212.4 L182.1,212.5 L184,212.6 L185.9,212.8 L187.8,212.9 L189.7,213 L191.6,213.1 L193.5,213.2 L195.4,213.3 L197.4,213.4 L199.3,213.5 L201.2,213.6 L203.1,213.7 L205,213.8 L206.9,213.9 L208.8,214 L210.7,214.1 L212.6,214.2 L214.5,214.3 L216.4,214.4 L218.4,214.5 L220.3,214.6 L222.2,214.6 L224.1,214.7 L226,214.8 L227.9,214.9 L229.8,215 L231.7,215.1 L233.6,215.2 L235.5,215.2 L237.4,215.3 L239.4,215.4 L241.3,215.5 L243.2,215.5 L245.1,215.6 L247,215.7 L248.9,215.8 L250.8,215.8 L252.7,215.9 L254.6,216 L256.5,216.1 L258.4,216.1 L260.4,216.2 L262.3,216.3 L264.2,216.3 L266.1,216.4 L268,216.5 L269.9,216.5 L271.8,216.6 L273.7,216.7 L275.6,216.7 L277.5,216.8 L279.5,216.8 L281.4,216.9 L283.3,217 L285.2,217 L287.1,217.1 L289,217.2 L290.9,217.2 L292.8,217.3 L294.7,217.3 L296.6,217.4 L298.5,217.4 L300.5,217.5 L302.4,217.6 L304.3,217.6 L306.2,217.7 L308.1,217.7 L310,217.8 L311.9,217.8 L313.8,217.9 L315.7,217.9 L317.6,218 L319.5,218 L321.5,218.1 L323.4,218.1 L325.3,218.2 L327.2,218.2 L329.1,218.3 L331,218.3 L332.9,218.4 L334.8,218.4 L336.7,218.5 L338.6,218.5 L340.5,218.6 L342.5,218.6 L344.4,218.7 L346.3,218.7 L348.2,218.8 L350.1,218.8 L352,218.9 L353.9,218.9 L355.8,219 L357.7,219 L359.6,219.1 L361.5,219.1 L363.5,219.1 L365.4,219.2 L367.3,219.2 L369.2,219.3 L371.1,219.3 L373,219.4 L374.9,219.4 L376.8,219.4 L378.7,219.5 L380.6,219.5 L382.5,219.6 L384.5,219.6 L386.4,219.6 L388.3,219.7 L390.2,219.7 L392.1,219.8 L394,219.8 L395.9,219.9 L397.8,219.9 L399.7,219.9 L401.6,220 L403.5,220 L405.5,220 L407.4,220.1 L409.3,220.1 L411.2,220.2 L413.1,220.2 L415,220.2 L416.9,220.3 L418.8,220.3 L420.7,220.3 L422.6,220.4 L424.6,220.4 L426.5,220.5 L428.4,220.5 L430.3,220.5 L432.2,220.6 L434.1,220.6 L436,220.6 L437.9,220.7 L439.8,220.7 L441.7,220.7 " fill="none"/></g>
<g clip-path="url(#plot_window)" stroke="rgb(139,0,0)" stroke-width="1"><path d="M61.8,67.42 L63.71,169.8 L65.62,178.9 L67.53,184.2 L69.44,187.9 L71.35,190.8 L73.26,193.2 L75.16,195.3 L77.07,197 L78.98,198.5 L80.89,199.9 L82.8,201.2 L84.71,202.3 L86.62,203.4 L88.53,204.3 L90.44,205.2 L92.35,206.1 L94.26,206.9 L96.17,207.6 L98.08,208.3 L99.98,209 L101.9,209.6 L103.8,210.2 L105.7,210.8 L107.6,211.4 L109.5,211.9 L111.4,212.4 L113.3,212.9 L115.3,213.4 L117.2,213.8 L119.1,214.3 L121,214.7 L122.9,215.1 L124.8,215.5 L126.7,215.9 L128.6,216.3 L130.5,216.7 L132.4,217 L134.4,217.4 L136.3,217.7 L138.2,218.1 L140.1,218.4 L142,218.7 L143.9,219 L145.8,219.3 L147.7,219.6 L149.6,219.9 L151.5,220.2 L153.4,220.4 L155.4,220.7 L157.3,221 L159.2,221.2 L161.1,221.5 L163,221.7 L164.9,222 L166.8,222.2 L168.7,222.5 L170.6,222.7 L172.5,222.9 L174.4,223.1 L176.4,223.4 L178.3,223.6 L180.2,223.8 L182.1,224 L184,224.2 L185.9,224.4 L187.8,224.6 L189.7,224.8 L191.6,225 L193.5,225.2 L195.4,225.4 L197.4,225.6 L199.3,225.7 L201.2,225.9 L203.1,226.1 L205,226.3 L206.9,226.5 L208.8,226.6 L210.7,226.8 L212.6,227 L214.5,227.1 L216.4,227.3 L218.4,227.4 L220.3,227.6 L222.2,227.8 L224.1,227.9 L226,228.1 L227.9,228.2 L229.8,228.4 L231.7,228.5 L233.6,228.7 L235.5,228.8 L237.4,229 L239.4,229.1 L241.3,229.2 L243.2,229.4 L245.1,229.5 L247,229.6 L248.9,229.8 L250.8,229.9 L252.7,230 L254.6,230.2 L256.5,230.3 L258.4,230.4 L260.4,230.6 L262.3,230.7 L264.2,230.8 L266.1,230.9 L268,231.1 L269.9,231.2 L271.8,231.3 L273.7,231.4 L275.6,231.5 L277.5,231.6 L279.5,231.8 L281.4,231.9 L283.3,232 L285.2,232.1 L287.1,232.2 L289,232.3 L290.9,232.4 L292.8,232.5 L294.7,232.6 L296.6,232.8 L298.5,232.9 L300.5,233 L302.4,233.1 L304.3,233.2 L306.2,233.3 L308.1,233.4 L310,233.5 L311.9,233.6 L313.8,233.7 L315.7,233.8 L317.6,233.9 L319.5,234 L321.5,234.1 L323.4,234.2 L325.3,234.3 L327.2,234.4 L329.1,234.4 L331,234.5 L332.9,234.6 L334.8,234.7 L336.7,234.8 L338.6,234.9 L340.5,235 L342.5,235.1 L344.4,235.2 L346.3,235.3 L348.2,235.4 L350.1,235.4 L352,235.5 L353.9,235.6 L355.8,235.7 L357.7,235.8 L359.6,235.9 L361.5,235.9 L363.5,236 L365.4,236.1 L367.3,236.2 L369.2,236.3 L371.1,236.4 L373,236.4 L374.9,236.5 L376.8,236.6 L378.7,236.7 L380.6,236.8 L382.5,236.8 L384.5,236.9 L386.4,237 L388.3,237.1 L390.2,237.1 L392.1,237.2 L394,237.3 L395.9,237.4 L397.8,237.4 L399.7,237.5 L401.6,237.6 L403.5,237.7 L405.5,237.7 L407.4,237.8 L409.3,237.9 L411.2,238 L413.1,238 L415,238.1 L416.9,238.2 L418.8,238.2 L420.7,238.3 L422.6,238.4 L424.6,238.4 L426.5,238.5 L428.4,238.6 L430.3,238.6 L432.2,238.7 L434.1,238.8 L436,238.9 L437.9,238.9 L439.8,239 L441.7,239.1 " fill="none"/></g>
<g clip-path="url(#plot_window)" stroke="rgb(0,100,0)" stroke-width="1"><path d="M61.8,67.42 L63.71,170.5 L65.62,180.2 L67.53,186.2 L69.44,190.6 L71.35,194.1 L73.26,197.1 L75.16,199.8 L77.07,202.1 L78.98,204.3 L80.89,206.2 L82.8,208 L84.71,209.8 L86.62,211.4 L88.53,212.9 L90.44,214.4 L92.35,215.7 L94.26,217.1 L96.17,218.4 L98.08,219.6 L99.98,220.8 L101.9,221.9 L103.8,223 L105.7,224.1 L107.6,225.2 L109.5,226.2 L111.4,227.2 L113.3,228.2 L115.3,229.1 L117.2,230 L119.1,231 L121,231.8 L122.9,232.7 L124.8,233.6 L126.7,234.4 L128.6,235.2 L130.5,236 L132.4,236.8 L134.4,237.6 L136.3,238.4 L138.2,239.1 L140.1,239.9 L142,240.6 L143.9,241.3 L145.8,242 L147.7,242.7 L149.6,243.4 L151.5,244.1 L153.4,244.7 L155.4,245.4 L157.3,246.1 L159.2,246.7 L161.1,247.3 L163,248 L164.9,248.6 L166.8,249.2 L168.7,249.8 L170.6,250.4 L172.5,251 L174.4,251.6 L176.4,252.1 L178.3,252.7 L180.2,253.3 L182.1,253.8 L184,254.4 L185.9,254.9 L187.8,255.5 L189.7,256 L191.6,256.6 L193.5,257.1 L195.4,257.6 L197.4,258.1 L199.3,258.6 L201.2,259.1 L203.1,259.6 L205,260.1 L206.9,260.6 L208.8,261.1 L210.7,261.6 L212.6,262.1 L214.5,262.6 L216.4,263 L218.4,263.5 L220.3,264 L222.2,264.4 L224.1,264.9 L226,265.3 L227.9,265.8 L229.8,266.2 L231.7,266.7 L233.6,267.1 L235.5,267.6 L237.4,268 L239.4,268.4 L241.3,268.8 L243.2,269.3 L245.1,269.7 L247,270.1 L248.9,270.5 L250.8,270.9 L252.7,271.3 L254.6,271.7 L256.5,272.1 L258.4,272.5 L260.4,272.9 L262.3,273.3 L264.2,273.7 L266.1,274.1 L268,274.5 L269.9,274.9 L271.8,275.3 L273.7,275.6 L275.6,276 L277.5,276.4 L279.5,276.8 L281.4,277.1 L283.3,277.5 L285.2,277.9 L287.1,278.2 L289,278.6 L290.9,279 L292.8,279.3 L294.7,279.7 L296.6,280 L298.5,280.4 L300.5,280.7 L302.4,281.1 L304.3,281.4 L306.2,281.7 L308.1,282.1 L310,282.4 L311.9,282.8 L313.8,283.1 L315.7,283.4 L317.6,283.8 L319.5,284.1 L321.5,284.4 L323.4,284.7 L325.3,285.1 L327.2,285.4 L329.1,285.7 L331,286 L332.9,286.3 L334.8,286.7 L336.7,287 L338.6,287.3 L340.5,287.6 L342.5,287.9 L344.4,288.2 L346.3,288.5 L348.2,288.8 L350.1,289.1 L352,289.4 L353.9,289.7 L355.8,290 L357.7,290.3 L359.6,290.6 L361.5,290.9 L363.5,291.2 L365.4,291.5 L367.3,291.8 L369.2,292.1 L371.1,292.4 L373,292.6 L374.9,292.9 L376.8,293.2 L378.7,293.5 L380.6,293.8 L382.5,294.1 L384.5,294.3 L386.4,294.6 L388.3,294.9 L390.2,295.2 L392.1,295.4 L394,295.7 L395.9,296 L397.8,296.2 L399.7,296.5 L401.6,296.8 L403.5,297.1 L405.5,297.3 L407.4,297.6 L409.3,297.8 L411.2,298.1 L413.1,298.4 L415,298.6 L416.9,298.9 L418.8,299.1 L420.7,299.4 L422.6,299.7 L424.6,299.9 L426.5,300.2 L428.4,300.4 L430.3,300.7 L432.2,300.9 L434.1,301.2 L436,301.4 L437.9,301.7 L439.8,301.9 L441.7,302.2 " fill="none"/></g>
<g clip-path="url(#plot_window)" stroke="rgb(255,140,0)" stroke-width="1"><path d="M61.8,67.42 L63.71,170.7 L65.62,180.7 L67.53,186.9 L69.44,191.5 L71.35,195.3 L73.26,198.6 L75.16,201.4 L77.07,204 L78.98,206.4 L80.89,208.6 L82.8,210.7 L84.71,212.6 L86.62,214.5 L88.53,216.2 L90.44,217.9 L92.35,219.5 L94.26,221.1 L96.17,222.6 L98.08,224.1 L99.98,225.5 L101.9,226.8 L103.8,228.2 L105.7,229.5 L107.6,230.8 L109.5,232 L111.4,233.2 L113.3,234.4 L115.3,235.6 L117.2,236.7 L119.1,237.9 L121,239 L122.9,240.1 L124.8,241.1 L126.7,242.2 L128.6,243.2 L130.5,244.2 L132.4,245.3 L134.4,246.2 L136.3,247.2 L138.2,248.2 L140.1,249.1 L142,250.1 L143.9,251 L145.8,251.9 L147.7,252.8 L149.6,253.7 L151.5,254.6 L153.4,255.5 L155.4,256.3 L157.3,257.2 L159.2,258 L161.1,258.9 L163,259.7 L164.9,260.5 L166.8,261.4 L168.7,262.2 L170.6,263 L172.5,263.7 L174.4,264.5 L176.4,265.3 L178.3,266.1 L180.2,266.8 L182.1,267.6 L184,268.3 L185.9,269.1 L187.8,269.8 L189.7,270.6 L191.6,271.3 L193.5,272 L195.4,272.7 L197.4,273.4 L199.3,274.1 L201.2,274.8 L203.1,275.5 L205,276.2 L206.9,276.9 L208.8,277.6 L210.7,278.2 L212.6,278.9 L214.5,279.6 L216.4,280.2 L218.4,280.9 L220.3,281.5 L222.2,282.2 L224.1,282.8 L226,283.4 L227.9,284.1 L229.8,284.7 L231.7,285.3 L233.6,286 L235.5,286.6 L237.4,287.2 L239.4,287.8 L241.3,288.4 L243.2,289 L245.1,289.6 L247,290.2 L248.9,290.8 L250.8,291.4 L252.7,292 L254.6,292.5 L256.5,293.1 L258.4,293.7 L260.4,294.3 L262.3,294.8 L264.2,295.4 L266.1,296 L268,296.5 L269.9,297.1 L271.8,297.6 L273.7,298.2 L275.6,298.7 L277.5,299.3 L279.5,299.8 L281.4,300.3 L283.3,300.9 L285.2,301.4 L287.1,302 L289,302.5 L290.9,303 L292.8,303.5 L294.7,304 L296.6,304.6 L298.5,305.1 L300.5,305.6 L302.4,306.1 L304.3,306.6 L306.2,307.1 L308.1,307.6 L310,308.1 L311.9,308.6 L313.8,309.1 L315.7,309.6 L317.6,310.1 L319.5,310.6 L321.5,311.1 L323.4,311.6 L325.3,312.1 L327.2,312.5 L329.1,313 L331,313.5 L332.9,314 L334.8,314.4 L336.7,314.9 L338.6,315.4 L340.5,315.8 L342.5,316.3 L344.4,316.8 L346.3,317.2 L348.2,317.7 L350.1,318.2 L352,318.6 L353.9,319.1 L355.8,319.5 L357.7,320 L359.6,320.4 L361.5,320.9 L363.5,321.3 L365.4,321.7 L367.3,322.2 L369.2,322.6 L371.1,323.1 L373,323.5 L374.9,323.9 L376.8,324.4 L378.7,324.8 L380.6,325.2 L382.5,325.7 L384.5,326.1 L386.4,326.5 L388.3,326.9 L390.2,327.4 L392.1,327.8 L394,328.2 L395.9,328.6 L397.8,329 L399.7,329.4 L401.6,329.9 L403.5,330.3 L405.5,330.7 L407.4,331.1 L409.3,331.5 L411.2,331.9 L413.1,332.3 L415,332.7 L416.9,333.1 L418.8,333.5 L420.7,333.9 L422.6,334.3 L424.6,334.7 L426.5,335.1 L428.4,335.5 L430.3,335.9 L432.2,336.3 L434.1,336.7 L436,337 L437.9,337.4 L439.8,337.8 L441.7,338.2 " fill="none"/></g>
</g>
<g id="plotPoints" clip-path="url(#plot_window)"><g stroke="rgb(0,0,0)"></g>
<g stroke="rgb(0,0,0)"></g>
<g stroke="rgb(0,0,0)"></g>
<g stroke="rgb(0,0,0)"></g>
</g>
<g id="limitPoints" stroke="rgb(119,136,153)" fill="rgb(250,235,215)"></g>
<g id="legendBackground" stroke="rgb(119,136,153)" fill="rgb(255,255,255)" stroke-width="1"><rect x="465.3" y="62" width="122.7" height="126"/><rect x="465.3" y="62" width="122.7" height="126"/></g>
<g id="legendPoints"><g stroke="rgb(0,0,139)" stroke-width="1"><line x1="479.3" y1="90" x2="493.3" y2="90"/></g>
<g stroke="rgb(139,0,0)" stroke-width="1"><line x1="479.3" y1="118" x2="493.3" y2="118"/></g>
<g stroke="rgb(0,100,0)" stroke-width="1"><line x1="479.3" y1="146" x2="493.3" y2="146"/></g>
<g stroke="rgb(255,140,0)" stroke-width="1"><line x1="479.3" y1="174" x2="493.3" y2="174"/></g>
</g>
<g id="legendText">
<text x="500.3" y="90" font-size="14" font-family="Verdana">a = 0.5</text>
<text x="500.3" y="118" font-size="14" font-family="Verdana">a = 1.0</text>
<text x="500.3" y="146" font-size="14" font-family="Verdana">a = 5.0</text>
<text x="500.3" y="174" font-size="14" font-family="Verdana">a = 10.0</text></g>
<g id="title">
<text x="300" y="40" text-anchor="middle" font-size="20" font-family="Verdana">beta</text></g>
</svg>
