<?xml version="1.0" encoding="UTF-8" standalone="no"?>
<svg width="750" height ="400" version="1.1" xmlns="http://www.w3.org/2000/svg"
 xmlns:xlink="http://www.w3.org/1999/xlink"
 xmlns:ev="http://www.w3.org/2001/xml-events">

<!-- SVG plot written using Boost.Plot program (Creator Jacob Voytko) --> 
<!-- Use, modification and distribution of Boost.Plot subject to the --> 
<!-- Boost Software License, Version 1.0.--> 
<!-- (See accompanying file LICENSE_1_0.txt --> 
<!-- or copy at http://www.boost.org/LICENSE_1_0.txt) --> 

<clipPath id="plot_window"><rect x="79.6" y="63" width="501" height="274.2"/></clipPath>
<g id="imageBackground" stroke="rgb(119,136,153)" fill="rgb(255,255,255)" stroke-width="2"><rect x="0" y="0" width="750" height="400"/></g>
<g id="plotBackground" stroke="rgb(119,136,153)" fill="rgb(255,255,255)" stroke-width="2"><rect x="78.6" y="62" width="503" height="276.2"/></g>
<g id="yMinorGrid" stroke="rgb(200,220,255)" stroke-width="0.5"></g>
<g id="yMajorGrid" stroke="rgb(200,220,255)" stroke-width="1"></g>
<g id="xMinorGrid" stroke="rgb(200,220,255)" stroke-width="0.5"></g>
<g id="xMajorGrid" stroke="rgb(200,220,255)" stroke-width="1"></g>
<g id="yAxis" stroke="rgb(0,0,0)" stroke-width="1"><line x1="83.53" y1="62" x2="83.53" y2="343.2"/><line x1="78.6" y1="62" x2="78.6" y2="338.2"/></g>
<g id="xAxis" stroke="rgb(0,0,0)" stroke-width="1"><line x1="73.6" y1="338.2" x2="581.6" y2="338.2"/><line x1="73.6" y1="338.2" x2="581.6" y2="338.2"/></g>
<g id="yMinorTicks" stroke="rgb(0,0,0)" stroke-width="1"><path d="M76.6,330.2 L78.6,330.2 M76.6,322.1 L78.6,322.1 M76.6,314.1 L78.6,314.1 M76.6,306.1 L78.6,306.1 M76.6,290 L78.6,290 M76.6,282 L78.6,282 M76.6,273.9 L78.6,273.9 M76.6,265.9 L78.6,265.9 M76.6,249.8 L78.6,249.8 M76.6,241.8 L78.6,241.8 M76.6,233.7 L78.6,233.7 M76.6,225.7 L78.6,225.7 M76.6,209.6 L78.6,209.6 M76.6,201.6 L78.6,201.6 M76.6,193.6 L78.6,193.6 M76.6,185.5 L78.6,185.5 M76.6,169.5 L78.6,169.5 M76.6,161.4 L78.6,161.4 M76.6,153.4 L78.6,153.4 M76.6,145.4 L78.6,145.4 M76.6,129.3 L78.6,129.3 M76.6,121.3 L78.6,121.3 M76.6,113.2 L78.6,113.2 M76.6,105.2 L78.6,105.2 M76.6,89.12 L78.6,89.12 M76.6,81.08 L78.6,81.08 M76.6,73.05 L78.6,73.05 M76.6,65.01 L78.6,65.01 M76.6,338.2 L78.6,338.2 "/></g>
<g id="xMinorTicks" stroke="rgb(0,0,0)" stroke-width="1"></g>
<g id="yMajorTicks" stroke="rgb(0,0,0)" stroke-width="2"><path d="M73.6,338.2 L78.6,338.2 M73.6,298 L78.6,298 M73.6,257.9 L78.6,257.9 M73.6,217.7 L78.6,217.7 M73.6,177.5 L78.6,177.5 M73.6,137.3 L78.6,137.3 M73.6,97.15 L78.6,97.15 M73.6,338.2 L78.6,338.2 "/></g>
<g id="xMajorTicks" stroke="rgb(0,0,0)" stroke-width="2"><path d="M83.53,338.2 L83.53,343.2 M182.2,338.2 L182.2,343.2 M280.8,338.2 L280.8,343.2 M379.4,338.2 L379.4,343.2 M478,338.2 L478,343.2 M576.7,338.2 L576.7,343.2 M83.53,338.2 L83.53,343.2 "/></g>
<g id="plotLabels">
<text x="83.53" y="357.6" text-anchor="middle" font-size="12" font-family="Verdana">0</text>
<text x="182.2" y="357.6" text-anchor="middle" font-size="12" font-family="Verdana">10</text>
<text x="280.8" y="357.6" text-anchor="middle" font-size="12" font-family="Verdana">20</text>
<text x="379.4" y="357.6" text-anchor="middle" font-size="12" font-family="Verdana">30</text>
<text x="478" y="357.6" text-anchor="middle" font-size="12" font-family="Verdana">40</text>
<text x="576.7" y="357.6" text-anchor="middle" font-size="12" font-family="Verdana">50</text>
<text x="83.53" y="357.6" text-anchor="middle" font-size="12" font-family="Verdana">0</text>
<text x="67.6" y="340.6" text-anchor="end" font-size="12" font-family="Verdana">0</text>
<text x="67.6" y="300.4" text-anchor="end" font-size="12" font-family="Verdana">0.05</text>
<text x="67.6" y="260.3" text-anchor="end" font-size="12" font-family="Verdana">0.1</text>
<text x="67.6" y="220.1" text-anchor="end" font-size="12" font-family="Verdana">0.15</text>
<text x="67.6" y="179.9" text-anchor="end" font-size="12" font-family="Verdana">0.2</text>
<text x="67.6" y="139.7" text-anchor="end" font-size="12" font-family="Verdana">0.25</text>
<text x="67.6" y="99.55" text-anchor="end" font-size="12" font-family="Verdana">0.3</text>
<text x="67.6" y="340.6" text-anchor="end" font-size="12" font-family="Verdana">0</text></g>
<g id="yLabel">
<text x="30.2" y="200.1" text-anchor="middle" transform = "rotate(-90 30.2 200.1 )" font-size="14" font-family="Verdana">Probability</text></g>
<g id="xLabel">
<text x="330.1" y="384" text-anchor="middle" font-size="14" font-family="Verdana">Random Variable</text></g>
<g id="plotLines" stroke-width="2"><g clip-path="url(#plot_window)" stroke="rgb(0,0,139)" stroke-width="1"><path d="M79.83,338.2 L79.83,338.2 L79.83,313.1 L82.3,313.1 L82.3,338.2 L89.7,338.2 L89.7,212.7 L92.16,212.7 L92.16,338.2 L99.56,338.2 L99.56,87.11 L102,87.11 L102,338.2 L109.4,338.2 L109.4,87.11 L111.9,87.11 L111.9,338.2 L119.3,338.2 L119.3,212.7 L121.7,212.7 L121.7,338.2 L129.1,338.2 L129.1,313.1 L131.6,313.1 L131.6,338.2 L139,338.2 L139,338.2 L141.5,338.2 L141.5,338.2 L148.9,338.2 L148.9,338.2 L151.3,338.2 L151.3,338.2 L158.7,338.2 L158.7,338.2 L161.2,338.2 L161.2,338.2 L168.6,338.2 L168.6,338.2 L171.1,338.2 L171.1,338.2 L178.5,338.2 L178.5,338.2 L180.9,338.2 L180.9,338.2 L188.3,338.2 L188.3,338.2 L190.8,338.2 L190.8,338.2 L198.2,338.2 L198.2,338.2 L200.7,338.2 L200.7,338.2 L208,338.2 L208,338.2 L210.5,338.2 L210.5,338.2 L217.9,338.2 L217.9,338.2 L220.4,338.2 L220.4,338.2 L227.8,338.2 L227.8,338.2 L230.2,338.2 L230.2,338.2 L237.6,338.2 L237.6,338.2 L240.1,338.2 L240.1,338.2 L247.5,338.2 L247.5,338.2 L250,338.2 L250,338.2 L257.4,338.2 L257.4,338.2 L259.8,338.2 L259.8,338.2 L267.2,338.2 L267.2,338.2 L269.7,338.2 L269.7,338.2 L277.1,338.2 L277.1,338.2 L279.6,338.2 L279.6,338.2 L287,338.2 L287,338.2 L289.4,338.2 L289.4,338.2 L296.8,338.2 L296.8,338.2 L299.3,338.2 L299.3,338.2 L306.7,338.2 L306.7,338.2 L309.1,338.2 L309.1,338.2 L316.5,338.2 L316.5,338.2 L319,338.2 L319,338.2 L326.4,338.2 L326.4,338.2 L328.9,338.2 L328.9,338.2 L336.3,338.2 L336.3,338.2 L338.7,338.2 L338.7,338.2 L346.1,338.2 L346.1,338.2 L348.6,338.2 L348.6,338.2 L356,338.2 L356,338.2 L358.5,338.2 L358.5,338.2 L365.9,338.2 L365.9,338.2 L368.3,338.2 L368.3,338.2 L375.7,338.2 L375.7,338.2 L378.2,338.2 L378.2,338.2 L385.6,338.2 L385.6,338.2 L388,338.2 L388,338.2 L395.4,338.2 L395.4,338.2 L397.9,338.2 L397.9,338.2 L405.3,338.2 L405.3,338.2 L407.8,338.2 L407.8,338.2 L415.2,338.2 L415.2,338.2 L417.6,338.2 L417.6,338.2 L425,338.2 L425,338.2 L427.5,338.2 L427.5,338.2 L434.9,338.2 L434.9,338.2 L437.4,338.2 L437.4,338.2 L444.8,338.2 L444.8,338.2 L447.2,338.2 L447.2,338.2 L454.6,338.2 L454.6,338.2 L457.1,338.2 L457.1,338.2 L464.5,338.2 L464.5,338.2 L466.9,338.2 L466.9,338.2 L474.3,338.2 L474.3,338.2 L476.8,338.2 L476.8,338.2 L484.2,338.2 L484.2,338.2 L486.7,338.2 L486.7,338.2 L494.1,338.2 L494.1,338.2 L496.5,338.2 L496.5,338.2 L503.9,338.2 L503.9,338.2 L506.4,338.2 L506.4,338.2 L513.8,338.2 L513.8,338.2 L516.3,338.2 L516.3,338.2 L523.7,338.2 L523.7,338.2 L526.1,338.2 L526.1,338.2 L533.5,338.2 L533.5,338.2 L536,338.2 L536,338.2 L543.4,338.2 L543.4,338.2 L545.8,338.2 L545.8,338.2 L553.2,338.2 L553.2,338.2 L555.7,338.2 L555.7,338.2 L563.1,338.2 L563.1,338.2 L565.6,338.2 L565.6,338.2 L573,338.2 L573,338.2 L575.4,338.2 L575.4,338.2 L575.4,338.2 Z" fill="rgb(0,0,139)"/></g>
<g clip-path="url(#plot_window)" stroke="rgb(139,0,0)" stroke-width="1"><path d="M82.3,338.2 L82.3,338.2 L82.3,338.2 L84.76,338.2 L84.76,338.2 L92.16,338.2 L92.16,338.2 L94.63,338.2 L94.63,338.2 L102,338.2 L102,338.1 L104.5,338.1 L104.5,338.2 L111.9,338.2 L111.9,337.3 L114.4,337.3 L114.4,338.2 L121.7,338.2 L121.7,334.5 L124.2,334.5 L124.2,338.2 L131.6,338.2 L131.6,326.3 L134.1,326.3 L134.1,338.2 L141.5,338.2 L141.5,308.5 L143.9,308.5 L143.9,338.2 L151.3,338.2 L151.3,278.8 L153.8,278.8 L153.8,338.2 L161.2,338.2 L161.2,241.7 L163.7,241.7 L163.7,338.2 L171.1,338.2 L171.1,209.5 L173.5,209.5 L173.5,338.2 L180.9,338.2 L180.9,196.6 L183.4,196.6 L183.4,338.2 L190.8,338.2 L190.8,209.5 L193.3,209.5 L193.3,338.2 L200.7,338.2 L200.7,241.7 L203.1,241.7 L203.1,338.2 L210.5,338.2 L210.5,278.8 L213,278.8 L213,338.2 L220.4,338.2 L220.4,308.5 L222.8,308.5 L222.8,338.2 L230.2,338.2 L230.2,326.3 L232.7,326.3 L232.7,338.2 L240.1,338.2 L240.1,334.5 L242.6,334.5 L242.6,338.2 L250,338.2 L250,337.3 L252.4,337.3 L252.4,338.2 L259.8,338.2 L259.8,338.1 L262.3,338.1 L262.3,338.2 L269.7,338.2 L269.7,338.2 L272.2,338.2 L272.2,338.2 L279.6,338.2 L279.6,338.2 L282,338.2 L282,338.2 L289.4,338.2 L289.4,338.2 L291.9,338.2 L291.9,338.2 L299.3,338.2 L299.3,338.2 L301.7,338.2 L301.7,338.2 L309.1,338.2 L309.1,338.2 L311.6,338.2 L311.6,338.2 L319,338.2 L319,338.2 L321.5,338.2 L321.5,338.2 L328.9,338.2 L328.9,338.2 L331.3,338.2 L331.3,338.2 L338.7,338.2 L338.7,338.2 L341.2,338.2 L341.2,338.2 L348.6,338.2 L348.6,338.2 L351.1,338.2 L351.1,338.2 L358.5,338.2 L358.5,338.2 L360.9,338.2 L360.9,338.2 L368.3,338.2 L368.3,338.2 L370.8,338.2 L370.8,338.2 L378.2,338.2 L378.2,338.2 L380.6,338.2 L380.6,338.2 L388,338.2 L388,338.2 L390.5,338.2 L390.5,338.2 L397.9,338.2 L397.9,338.2 L400.4,338.2 L400.4,338.2 L407.8,338.2 L407.8,338.2 L410.2,338.2 L410.2,338.2 L417.6,338.2 L417.6,338.2 L420.1,338.2 L420.1,338.2 L427.5,338.2 L427.5,338.2 L430,338.2 L430,338.2 L437.4,338.2 L437.4,338.2 L439.8,338.2 L439.8,338.2 L447.2,338.2 L447.2,338.2 L449.7,338.2 L449.7,338.2 L457.1,338.2 L457.1,338.2 L459.5,338.2 L459.5,338.2 L466.9,338.2 L466.9,338.2 L469.4,338.2 L469.4,338.2 L476.8,338.2 L476.8,338.2 L479.3,338.2 L479.3,338.2 L486.7,338.2 L486.7,338.2 L489.1,338.2 L489.1,338.2 L496.5,338.2 L496.5,338.2 L499,338.2 L499,338.2 L506.4,338.2 L506.4,338.2 L508.9,338.2 L508.9,338.2 L516.3,338.2 L516.3,338.2 L518.7,338.2 L518.7,338.2 L526.1,338.2 L526.1,338.2 L528.6,338.2 L528.6,338.2 L536,338.2 L536,338.2 L538.5,338.2 L538.5,338.2 L545.8,338.2 L545.8,338.2 L548.3,338.2 L548.3,338.2 L555.7,338.2 L555.7,338.2 L558.2,338.2 L558.2,338.2 L565.6,338.2 L565.6,338.2 L568,338.2 L568,338.2 L575.4,338.2 L575.4,338.2 L577.9,338.2 L577.9,338.2 L577.9,338.2 Z" fill="rgb(139,0,0)"/></g>
<g clip-path="url(#plot_window)" stroke="rgb(0,100,0)" stroke-width="1"><path d="M84.76,338.2 L84.76,338.2 L84.76,338.2 L87.23,338.2 L87.23,338.2 L94.63,338.2 L94.63,338.2 L97.09,338.2 L97.09,338.2 L104.5,338.2 L104.5,338.2 L107,338.2 L107,338.2 L114.4,338.2 L114.4,338.2 L116.8,338.2 L116.8,338.2 L124.2,338.2 L124.2,338.2 L126.7,338.2 L126.7,338.2 L134.1,338.2 L134.1,338.2 L136.5,338.2 L136.5,338.2 L143.9,338.2 L143.9,338.2 L146.4,338.2 L146.4,338.2 L153.8,338.2 L153.8,338.2 L156.3,338.2 L156.3,338.2 L163.7,338.2 L163.7,338.2 L166.1,338.2 L166.1,338.2 L173.5,338.2 L173.5,338.2 L176,338.2 L176,338.2 L183.4,338.2 L183.4,338.2 L185.9,338.2 L185.9,338.2 L193.3,338.2 L193.3,338.2 L195.7,338.2 L195.7,338.2 L203.1,338.2 L203.1,338.1 L205.6,338.1 L205.6,338.2 L213,338.2 L213,337.9 L215.4,337.9 L215.4,338.2 L222.8,338.2 L222.8,337.5 L225.3,337.5 L225.3,338.2 L232.7,338.2 L232.7,336.6 L235.2,336.6 L235.2,338.2 L242.6,338.2 L242.6,334.7 L245,334.7 L245,338.2 L252.4,338.2 L252.4,331.2 L254.9,331.2 L254.9,338.2 L262.3,338.2 L262.3,325.3 L264.8,325.3 L264.8,338.2 L272.2,338.2 L272.2,316.5 L274.6,316.5 L274.6,338.2 L282,338.2 L282,304.6 L284.5,304.6 L284.5,338.2 L291.9,338.2 L291.9,290.2 L294.3,290.2 L294.3,338.2 L301.7,338.2 L301.7,274.9 L304.2,274.9 L304.2,338.2 L311.6,338.2 L311.6,261.1 L314.1,261.1 L314.1,338.2 L321.5,338.2 L321.5,251.5 L323.9,251.5 L323.9,338.2 L331.3,338.2 L331.3,248 L333.8,248 L333.8,338.2 L341.2,338.2 L341.2,251.5 L343.7,251.5 L343.7,338.2 L351.1,338.2 L351.1,261.1 L353.5,261.1 L353.5,338.2 L360.9,338.2 L360.9,274.9 L363.4,274.9 L363.4,338.2 L370.8,338.2 L370.8,290.2 L373.2,290.2 L373.2,338.2 L380.6,338.2 L380.6,304.6 L383.1,304.6 L383.1,338.2 L390.5,338.2 L390.5,316.5 L393,316.5 L393,338.2 L400.4,338.2 L400.4,325.3 L402.8,325.3 L402.8,338.2 L410.2,338.2 L410.2,331.2 L412.7,331.2 L412.7,338.2 L420.1,338.2 L420.1,334.7 L422.6,334.7 L422.6,338.2 L430,338.2 L430,336.6 L432.4,336.6 L432.4,338.2 L439.8,338.2 L439.8,337.5 L442.3,337.5 L442.3,338.2 L449.7,338.2 L449.7,337.9 L452.2,337.9 L452.2,338.2 L459.5,338.2 L459.5,338.1 L462,338.1 L462,338.2 L469.4,338.2 L469.4,338.2 L471.9,338.2 L471.9,338.2 L479.3,338.2 L479.3,338.2 L481.7,338.2 L481.7,338.2 L489.1,338.2 L489.1,338.2 L491.6,338.2 L491.6,338.2 L499,338.2 L499,338.2 L501.5,338.2 L501.5,338.2 L508.9,338.2 L508.9,338.2 L511.3,338.2 L511.3,338.2 L518.7,338.2 L518.7,338.2 L521.2,338.2 L521.2,338.2 L528.6,338.2 L528.6,338.2 L531.1,338.2 L531.1,338.2 L538.5,338.2 L538.5,338.2 L540.9,338.2 L540.9,338.2 L548.3,338.2 L548.3,338.2 L550.8,338.2 L550.8,338.2 L558.2,338.2 L558.2,338.2 L560.6,338.2 L560.6,338.2 L568,338.2 L568,338.2 L570.5,338.2 L570.5,338.2 L577.9,338.2 L577.9,338.2 L580.4,338.2 L580.4,338.2 L580.4,338.2 Z" fill="rgb(0,100,0)"/></g>
</g>
<g id="plotPoints" clip-path="url(#plot_window)"><g stroke="rgb(0,0,0)"></g>
<g stroke="rgb(0,0,0)"></g>
<g stroke="rgb(0,0,0)"></g>
</g>
<g id="limitPoints" stroke="rgb(119,136,153)" fill="rgb(250,235,215)"></g>
<g id="legendBackground" stroke="rgb(119,136,153)" fill="rgb(255,255,255)" stroke-width="1"><rect x="595.6" y="62" width="142.4" height="105"/><rect x="595.6" y="62" width="142.4" height="105"/></g>
<g id="legendPoints"><g stroke="rgb(0,0,139)" stroke-width="1"><line x1="610.6" y1="92" x2="625.6" y2="92"/></g>
<g stroke="rgb(139,0,0)" stroke-width="1"><line x1="610.6" y1="122" x2="625.6" y2="122"/></g>
<g stroke="rgb(0,100,0)" stroke-width="1"><line x1="610.6" y1="152" x2="625.6" y2="152"/></g>
</g>
<g id="legendText">
<text x="633.1" y="92" font-size="15" font-family="Verdana">n=5 p=0.5</text>
<text x="633.1" y="122" font-size="15" font-family="Verdana">n=20 p=0.5</text>
<text x="633.1" y="152" font-size="15" font-family="Verdana">n=50 p=0.5</text></g>
<g id="title">
<text x="375" y="40" text-anchor="middle" font-size="20" font-family="Verdana">Binomial Distribution PDF</text></g>
</svg>
