<?xml version="1.0" encoding="UTF-8" standalone="no"?>
<svg width="750" height ="400" version="1.1" xmlns="http://www.w3.org/2000/svg"
 xmlns:xlink="http://www.w3.org/1999/xlink"
 xmlns:ev="http://www.w3.org/2001/xml-events">

<!-- SVG plot written using Boost.Plot program (Creator Jacob Voytko) --> 
<!-- Use, modification and distribution of Boost.Plot subject to the --> 
<!-- Boost Software License, Version 1.0.--> 
<!-- (See accompanying file LICENSE_1_0.txt --> 
<!-- or copy at http://www.boost.org/LICENSE_1_0.txt) --> 

<clipPath id="plot_window"><rect x="79.6" y="63" width="501" height="274.2"/></clipPath>
<g id="imageBackground" stroke="rgb(119,136,153)" fill="rgb(255,255,255)" stroke-width="2"><rect x="0" y="0" width="750" height="400"/></g>
<g id="plotBackground" stroke="rgb(119,136,153)" fill="rgb(255,255,255)" stroke-width="2"><rect x="78.6" y="62" width="503" height="276.2"/></g>
<g id="yMinorGrid" stroke="rgb(200,220,255)" stroke-width="0.5"></g>
<g id="yMajorGrid" stroke="rgb(200,220,255)" stroke-width="1"></g>
<g id="xMinorGrid" stroke="rgb(200,220,255)" stroke-width="0.5"></g>
<g id="xMajorGrid" stroke="rgb(200,220,255)" stroke-width="1"></g>
<g id="yAxis" stroke="rgb(0,0,0)" stroke-width="1"><line x1="90.58" y1="62" x2="90.58" y2="343.2"/><line x1="78.6" y1="62" x2="78.6" y2="338.2"/></g>
<g id="xAxis" stroke="rgb(0,0,0)" stroke-width="1"><line x1="73.6" y1="338.2" x2="581.6" y2="338.2"/><line x1="73.6" y1="338.2" x2="581.6" y2="338.2"/></g>
<g id="yMinorTicks" stroke="rgb(0,0,0)" stroke-width="1"><path d="M76.6,329.4 L78.6,329.4 M76.6,320.6 L78.6,320.6 M76.6,311.8 L78.6,311.8 M76.6,303 L78.6,303 M76.6,285.4 L78.6,285.4 M76.6,276.6 L78.6,276.6 M76.6,267.8 L78.6,267.8 M76.6,259 L78.6,259 M76.6,241.3 L78.6,241.3 M76.6,232.5 L78.6,232.5 M76.6,223.7 L78.6,223.7 M76.6,214.9 L78.6,214.9 M76.6,197.3 L78.6,197.3 M76.6,188.5 L78.6,188.5 M76.6,179.7 L78.6,179.7 M76.6,170.9 L78.6,170.9 M76.6,153.3 L78.6,153.3 M76.6,144.5 L78.6,144.5 M76.6,135.7 L78.6,135.7 M76.6,126.9 L78.6,126.9 M76.6,109.3 L78.6,109.3 M76.6,100.5 L78.6,100.5 M76.6,91.67 L78.6,91.67 M76.6,82.87 L78.6,82.87 M76.6,65.26 L78.6,65.26 M76.6,338.2 L78.6,338.2 "/></g>
<g id="xMinorTicks" stroke="rgb(0,0,0)" stroke-width="1"></g>
<g id="yMajorTicks" stroke="rgb(0,0,0)" stroke-width="2"><path d="M73.6,338.2 L78.6,338.2 M73.6,294.2 L78.6,294.2 M73.6,250.2 L78.6,250.2 M73.6,206.1 L78.6,206.1 M73.6,162.1 L78.6,162.1 M73.6,118.1 L78.6,118.1 M73.6,74.06 L78.6,74.06 M73.6,338.2 L78.6,338.2 "/></g>
<g id="xMajorTicks" stroke="rgb(0,0,0)" stroke-width="2"><path d="M90.58,338.2 L90.58,343.2 M210.3,338.2 L210.3,343.2 M330.1,338.2 L330.1,343.2 M449.9,338.2 L449.9,343.2 M569.6,338.2 L569.6,343.2 M90.58,338.2 L90.58,343.2 "/></g>
<g id="plotLabels">
<text x="90.58" y="357.6" text-anchor="middle" font-size="12" font-family="Verdana">0</text>
<text x="210.3" y="357.6" text-anchor="middle" font-size="12" font-family="Verdana">5</text>
<text x="330.1" y="357.6" text-anchor="middle" font-size="12" font-family="Verdana">10</text>
<text x="449.9" y="357.6" text-anchor="middle" font-size="12" font-family="Verdana">15</text>
<text x="569.6" y="357.6" text-anchor="middle" font-size="12" font-family="Verdana">20</text>
<text x="90.58" y="357.6" text-anchor="middle" font-size="12" font-family="Verdana">0</text>
<text x="67.6" y="340.6" text-anchor="end" font-size="12" font-family="Verdana">0</text>
<text x="67.6" y="296.6" text-anchor="end" font-size="12" font-family="Verdana">0.05</text>
<text x="67.6" y="252.6" text-anchor="end" font-size="12" font-family="Verdana">0.1</text>
<text x="67.6" y="208.5" text-anchor="end" font-size="12" font-family="Verdana">0.15</text>
<text x="67.6" y="164.5" text-anchor="end" font-size="12" font-family="Verdana">0.2</text>
<text x="67.6" y="120.5" text-anchor="end" font-size="12" font-family="Verdana">0.25</text>
<text x="67.6" y="76.46" text-anchor="end" font-size="12" font-family="Verdana">0.3</text>
<text x="67.6" y="340.6" text-anchor="end" font-size="12" font-family="Verdana">0</text></g>
<g id="yLabel">
<text x="30.2" y="200.1" text-anchor="middle" transform = "rotate(-90 30.2 200.1 )" font-size="14" font-family="Verdana">Probability</text></g>
<g id="xLabel">
<text x="330.1" y="384" text-anchor="middle" font-size="14" font-family="Verdana">Random Variable</text></g>
<g id="plotLines" stroke-width="2"><g clip-path="url(#plot_window)" stroke="rgb(0,0,139)" stroke-width="1"><path d="M81.59,338.2 L81.59,338.2 L81.59,231.2 L87.58,231.2 L87.58,338.2 L105.5,338.2 L105.5,100.3 L111.5,100.3 L111.5,338.2 L129.5,338.2 L129.5,87.11 L135.5,87.11 L135.5,338.2 L153.5,338.2 L153.5,170.8 L159.4,170.8 L159.4,338.2 L177.4,338.2 L177.4,259.2 L183.4,259.2 L183.4,338.2 L201.4,338.2 L201.4,310.1 L207.3,310.1 L207.3,338.2 L225.3,338.2 L225.3,330.4 L231.3,330.4 L231.3,338.2 L249.3,338.2 L249.3,336.5 L255.2,336.5 L255.2,338.2 L273.2,338.2 L273.2,337.9 L279.2,337.9 L279.2,338.2 L297.2,338.2 L297.2,338.2 L303.2,338.2 L303.2,338.2 L321.1,338.2 L321.1,338.2 L327.1,338.2 L327.1,338.2 L345.1,338.2 L345.1,338.2 L351.1,338.2 L351.1,338.2 L369,338.2 L369,338.2 L375,338.2 L375,338.2 L393,338.2 L393,338.2 L399,338.2 L399,338.2 L416.9,338.2 L416.9,338.2 L422.9,338.2 L422.9,338.2 L440.9,338.2 L440.9,338.2 L446.9,338.2 L446.9,338.2 L464.8,338.2 L464.8,338.2 L470.8,338.2 L470.8,338.2 L488.8,338.2 L488.8,338.2 L494.8,338.2 L494.8,338.2 L512.7,338.2 L512.7,338.2 L518.7,338.2 L518.7,338.2 L536.7,338.2 L536.7,338.2 L542.7,338.2 L542.7,338.2 L560.6,338.2 L560.6,338.2 L566.6,338.2 L566.6,338.2 L566.6,338.2 Z" fill="rgb(0,0,139)"/></g>
<g clip-path="url(#plot_window)" stroke="rgb(139,0,0)" stroke-width="1"><path d="M87.58,338.2 L87.58,338.2 L87.58,338.2 L93.57,338.2 L93.57,338.2 L111.5,338.2 L111.5,338.2 L117.5,338.2 L117.5,338.2 L135.5,338.2 L135.5,338 L141.5,338 L141.5,338.2 L159.4,338.2 L159.4,337.2 L165.4,337.2 L165.4,338.2 L183.4,338.2 L183.4,334.1 L189.4,334.1 L189.4,338.2 L207.3,338.2 L207.3,325.2 L213.3,325.2 L213.3,338.2 L231.3,338.2 L231.3,305.7 L237.3,305.7 L237.3,338.2 L255.2,338.2 L255.2,273.1 L261.2,273.1 L261.2,338.2 L279.2,338.2 L279.2,232.4 L285.2,232.4 L285.2,338.2 L303.2,338.2 L303.2,197.2 L309.1,197.2 L309.1,338.2 L327.1,338.2 L327.1,183.1 L333.1,183.1 L333.1,338.2 L351.1,338.2 L351.1,197.2 L357,197.2 L357,338.2 L375,338.2 L375,232.4 L381,232.4 L381,338.2 L399,338.2 L399,273.1 L405,273.1 L405,338.2 L422.9,338.2 L422.9,305.7 L428.9,305.7 L428.9,338.2 L446.9,338.2 L446.9,325.2 L452.9,325.2 L452.9,338.2 L470.8,338.2 L470.8,334.1 L476.8,334.1 L476.8,338.2 L494.8,338.2 L494.8,337.2 L500.8,337.2 L500.8,338.2 L518.7,338.2 L518.7,338 L524.7,338 L524.7,338.2 L542.7,338.2 L542.7,338.2 L548.7,338.2 L548.7,338.2 L566.6,338.2 L566.6,338.2 L572.6,338.2 L572.6,338.2 L572.6,338.2 Z" fill="rgb(139,0,0)"/></g>
<g clip-path="url(#plot_window)" stroke="rgb(0,100,0)" stroke-width="1"><path d="M93.57,338.2 L93.57,338.2 L93.57,338.2 L99.56,338.2 L99.56,338.2 L117.5,338.2 L117.5,338.2 L123.5,338.2 L123.5,338.2 L141.5,338.2 L141.5,338.2 L147.5,338.2 L147.5,338.2 L165.4,338.2 L165.4,338.2 L171.4,338.2 L171.4,338.2 L189.4,338.2 L189.4,338.2 L195.4,338.2 L195.4,338.2 L213.3,338.2 L213.3,338.2 L219.3,338.2 L219.3,338.2 L237.3,338.2 L237.3,338.2 L243.3,338.2 L243.3,338.2 L261.2,338.2 L261.2,338.2 L267.2,338.2 L267.2,338.2 L285.2,338.2 L285.2,338.2 L291.2,338.2 L291.2,338.2 L309.1,338.2 L309.1,338.2 L315.1,338.2 L315.1,338.2 L333.1,338.2 L333.1,338.2 L339.1,338.2 L339.1,338.2 L357,338.2 L357,338.2 L363,338.2 L363,338.2 L381,338.2 L381,337.9 L387,337.9 L387,338.2 L405,338.2 L405,336.5 L410.9,336.5 L410.9,338.2 L428.9,338.2 L428.9,330.4 L434.9,330.4 L434.9,338.2 L452.9,338.2 L452.9,310.1 L458.8,310.1 L458.8,338.2 L476.8,338.2 L476.8,259.2 L482.8,259.2 L482.8,338.2 L500.8,338.2 L500.8,170.8 L506.7,170.8 L506.7,338.2 L524.7,338.2 L524.7,87.11 L530.7,87.11 L530.7,338.2 L548.7,338.2 L548.7,100.3 L554.7,100.3 L554.7,338.2 L572.6,338.2 L572.6,231.2 L578.6,231.2 L578.6,338.2 L578.6,338.2 Z" fill="rgb(0,100,0)"/></g>
</g>
<g id="plotPoints" clip-path="url(#plot_window)"><g stroke="rgb(0,0,0)"></g>
<g stroke="rgb(0,0,0)"></g>
<g stroke="rgb(0,0,0)"></g>
</g>
<g id="limitPoints" stroke="rgb(119,136,153)" fill="rgb(250,235,215)"></g>
<g id="legendBackground" stroke="rgb(119,136,153)" fill="rgb(255,255,255)" stroke-width="1"><rect x="595.6" y="62" width="142.4" height="105"/><rect x="595.6" y="62" width="142.4" height="105"/></g>
<g id="legendPoints"><g stroke="rgb(0,0,139)" stroke-width="1"><line x1="610.6" y1="92" x2="625.6" y2="92"/></g>
<g stroke="rgb(139,0,0)" stroke-width="1"><line x1="610.6" y1="122" x2="625.6" y2="122"/></g>
<g stroke="rgb(0,100,0)" stroke-width="1"><line x1="610.6" y1="152" x2="625.6" y2="152"/></g>
</g>
<g id="legendText">
<text x="633.1" y="92" font-size="15" font-family="Verdana">n=20 p=0.1</text>
<text x="633.1" y="122" font-size="15" font-family="Verdana">n=20 p=0.5</text>
<text x="633.1" y="152" font-size="15" font-family="Verdana">n=20 p=0.9</text></g>
<g id="title">
<text x="375" y="40" text-anchor="middle" font-size="20" font-family="Verdana">Binomial Distribution PDF</text></g>
</svg>
