<?xml version="1.0" encoding="UTF-8" standalone="no"?>
<svg width="750" height ="400" version="1.1" xmlns="http://www.w3.org/2000/svg"
 xmlns:xlink="http://www.w3.org/1999/xlink"
 xmlns:ev="http://www.w3.org/2001/xml-events">

<!-- SVG plot written using Boost.Plot program (Creator Jacob Voytko) --> 
<!-- Use, modification and distribution of Boost.Plot subject to the --> 
<!-- Boost Software License, Version 1.0.--> 
<!-- (See accompanying file LICENSE_1_0.txt --> 
<!-- or copy at http://www.boost.org/LICENSE_1_0.txt) --> 

<clipPath id="plot_window"><rect x="71.2" y="63" width="485.9" height="274.2"/></clipPath>
<g id="imageBackground" stroke="rgb(119,136,153)" fill="rgb(255,255,255)" stroke-width="2"><rect x="0" y="0" width="750" height="400"/></g>
<g id="plotBackground" stroke="rgb(119,136,153)" fill="rgb(255,255,255)" stroke-width="2"><rect x="70.2" y="62" width="487.9" height="276.2"/></g>
<g id="yMinorGrid" stroke="rgb(200,220,255)" stroke-width="0.5"></g>
<g id="yMajorGrid" stroke="rgb(200,220,255)" stroke-width="1"></g>
<g id="xMinorGrid" stroke="rgb(200,220,255)" stroke-width="0.5"></g>
<g id="xMajorGrid" stroke="rgb(200,220,255)" stroke-width="1"></g>
<g id="yAxis" stroke="rgb(0,0,0)" stroke-width="1"><line x1="314.1" y1="62" x2="314.1" y2="343.2"/><line x1="70.2" y1="62" x2="70.2" y2="338.2"/></g>
<g id="xAxis" stroke="rgb(0,0,0)" stroke-width="1"><line x1="65.2" y1="338.2" x2="558.1" y2="338.2"/><line x1="65.2" y1="338.2" x2="558.1" y2="338.2"/></g>
<g id="yMinorTicks" stroke="rgb(0,0,0)" stroke-width="1"><path d="M68.2,322.4 L70.2,322.4 M68.2,306.6 L70.2,306.6 M68.2,290.9 L70.2,290.9 M68.2,275.1 L70.2,275.1 M68.2,243.5 L70.2,243.5 M68.2,227.8 L70.2,227.8 M68.2,212 L70.2,212 M68.2,196.2 L70.2,196.2 M68.2,164.7 L70.2,164.7 M68.2,148.9 L70.2,148.9 M68.2,133.1 L70.2,133.1 M68.2,117.3 L70.2,117.3 M68.2,85.78 L70.2,85.78 M68.2,70 L70.2,70 M68.2,338.2 L70.2,338.2 "/></g>
<g id="xMinorTicks" stroke="rgb(0,0,0)" stroke-width="1"><path d="M340.2,338.2 L340.2,340.2 M366.3,338.2 L366.3,340.2 M392.3,338.2 L392.3,340.2 M418.4,338.2 L418.4,340.2 M470.5,338.2 L470.5,340.2 M496.6,338.2 L496.6,340.2 M522.7,338.2 L522.7,340.2 M548.7,338.2 L548.7,340.2 M288.1,338.2 L288.1,340.2 M262,338.2 L262,340.2 M235.9,338.2 L235.9,340.2 M209.9,338.2 L209.9,340.2 M157.8,338.2 L157.8,340.2 M131.7,338.2 L131.7,340.2 M105.6,338.2 L105.6,340.2 M79.55,338.2 L79.55,340.2 "/></g>
<g id="yMajorTicks" stroke="rgb(0,0,0)" stroke-width="2"><path d="M65.2,338.2 L70.2,338.2 M65.2,259.3 L70.2,259.3 M65.2,180.4 L70.2,180.4 M65.2,101.6 L70.2,101.6 M65.2,338.2 L70.2,338.2 "/></g>
<g id="xMajorTicks" stroke="rgb(0,0,0)" stroke-width="2"><path d="M314.1,338.2 L314.1,343.2 M444.5,338.2 L444.5,343.2 M314.1,338.2 L314.1,343.2 M183.8,338.2 L183.8,343.2 "/></g>
<g id="plotLabels">
<text x="314.1" y="357.6" text-anchor="middle" font-size="12" font-family="Verdana">0</text>
<text x="444.5" y="357.6" text-anchor="middle" font-size="12" font-family="Verdana">5</text>
<text x="314.1" y="357.6" text-anchor="middle" font-size="12" font-family="Verdana">0</text>
<text x="183.8" y="357.6" text-anchor="middle" font-size="12" font-family="Verdana">-5</text>
<text x="59.2" y="340.6" text-anchor="end" font-size="12" font-family="Verdana">0</text>
<text x="59.2" y="261.7" text-anchor="end" font-size="12" font-family="Verdana">0.1</text>
<text x="59.2" y="182.8" text-anchor="end" font-size="12" font-family="Verdana">0.2</text>
<text x="59.2" y="104" text-anchor="end" font-size="12" font-family="Verdana">0.3</text>
<text x="59.2" y="340.6" text-anchor="end" font-size="12" font-family="Verdana">0</text></g>
<g id="yLabel">
<text x="30.2" y="200.1" text-anchor="middle" transform = "rotate(-90 30.2 200.1 )" font-size="14" font-family="Verdana">Probability</text></g>
<g id="xLabel">
<text x="314.1" y="384" text-anchor="middle" font-size="14" font-family="Verdana">Random Variable</text></g>
<g id="plotLines" stroke-width="2"><g clip-path="url(#plot_window)" stroke="rgb(0,0,139)" stroke-width="1"><path d="M70.2,325.6 L72.64,325.1 L75.08,324.6 L77.52,324 L79.96,323.3 L82.4,322.6 L84.84,321.9 L87.28,321.1 L89.72,320.3 L92.15,319.4 L94.59,318.5 L97.03,317.4 L99.47,316.3 L101.9,315.1 L104.4,313.8 L106.8,312.4 L109.2,310.9 L111.7,309.2 L114.1,307.4 L116.5,305.4 L119,303.3 L121.4,300.9 L123.9,298.3 L126.3,295.4 L128.7,292.2 L131.2,288.7 L133.6,284.9 L136.1,280.6 L138.5,275.8 L140.9,270.4 L143.4,264.5 L145.8,257.8 L148.3,250.4 L150.7,242.1 L153.1,232.9 L155.6,222.7 L158,211.4 L160.5,198.9 L162.9,185.5 L165.3,171.1 L167.8,156.1 L170.2,140.8 L172.7,126 L175.1,112.4 L177.5,100.9 L180,92.45 L182.4,87.83 L184.9,87.51 L187.3,91.5 L189.7,99.41 L192.2,110.5 L194.6,123.9 L197,138.6 L199.5,153.8 L201.9,168.9 L204.4,183.4 L206.8,197 L209.2,209.6 L211.7,221 L214.1,231.5 L216.6,240.8 L219,249.2 L221.4,256.8 L223.9,263.5 L226.3,269.6 L228.8,275 L231.2,279.9 L233.6,284.2 L236.1,288.2 L238.5,291.7 L241,295 L243.4,297.9 L245.8,300.5 L248.3,302.9 L250.7,305.1 L253.2,307.1 L255.6,308.9 L258,310.6 L260.5,312.2 L262.9,313.6 L265.4,314.9 L267.8,316.1 L270.2,317.3 L272.7,318.3 L275.1,319.3 L277.5,320.2 L280,321 L282.4,321.8 L284.9,322.5 L287.3,323.2 L289.7,323.9 L292.2,324.5 L294.6,325 L297.1,325.6 L299.5,326.1 L301.9,326.5 L304.4,327 L306.8,327.4 L309.3,327.8 L311.7,328.2 L314.1,328.5 L316.6,328.9 L319,329.2 L321.5,329.5 L323.9,329.8 L326.3,330.1 L328.8,330.3 L331.2,330.6 L333.7,330.8 L336.1,331.1 L338.5,331.3 L341,331.5 L343.4,331.7 L345.9,331.9 L348.3,332 L350.7,332.2 L353.2,332.4 L355.6,332.5 L358,332.7 L360.5,332.9 L362.9,333 L365.4,333.1 L367.8,333.3 L370.2,333.4 L372.7,333.5 L375.1,333.6 L377.6,333.7 L380,333.8 L382.4,333.9 L384.9,334.1 L387.3,334.1 L389.8,334.2 L392.2,334.3 L394.6,334.4 L397.1,334.5 L399.5,334.6 L402,334.7 L404.4,334.7 L406.8,334.8 L409.3,334.9 L411.7,335 L414.2,335 L416.6,335.1 L419,335.2 L421.5,335.2 L423.9,335.3 L426.4,335.3 L428.8,335.4 L431.2,335.4 L433.7,335.5 L436.1,335.5 L438.5,335.6 L441,335.6 L443.4,335.7 L445.9,335.7 L448.3,335.8 L450.7,335.8 L453.2,335.9 L455.6,335.9 L458.1,336 L460.5,336 L462.9,336 L465.4,336.1 L467.8,336.1 L470.3,336.1 L472.7,336.2 L475.1,336.2 L477.6,336.2 L480,336.3 L482.5,336.3 L484.9,336.3 L487.3,336.4 L489.8,336.4 L492.2,336.4 L494.7,336.4 L497.1,336.5 L499.5,336.5 L502,336.5 L504.4,336.6 L506.9,336.6 L509.3,336.6 L511.7,336.6 L514.2,336.6 L516.6,336.7 L519,336.7 L521.5,336.7 L523.9,336.7 L526.4,336.8 L528.8,336.8 L531.2,336.8 L533.7,336.8 L536.1,336.8 L538.6,336.9 L541,336.9 L543.4,336.9 L545.9,336.9 L548.3,336.9 L550.8,336.9 L553.2,337 L555.6,337 " fill="none"/></g>
<g clip-path="url(#plot_window)" stroke="rgb(139,0,0)" stroke-width="1"><path d="M70.2,335.4 L72.64,335.3 L75.08,335.3 L77.52,335.2 L79.96,335.1 L82.4,335.1 L84.84,335 L87.28,334.9 L89.72,334.9 L92.15,334.8 L94.59,334.7 L97.03,334.6 L99.47,334.6 L101.9,334.5 L104.4,334.4 L106.8,334.3 L109.2,334.2 L111.7,334.1 L114.1,334 L116.5,333.9 L119,333.8 L121.4,333.7 L123.9,333.6 L126.3,333.5 L128.7,333.3 L131.2,333.2 L133.6,333.1 L136.1,332.9 L138.5,332.8 L140.9,332.6 L143.4,332.5 L145.8,332.3 L148.3,332.1 L150.7,332 L153.1,331.8 L155.6,331.6 L158,331.4 L160.5,331.2 L162.9,331 L165.3,330.7 L167.8,330.5 L170.2,330.2 L172.7,330 L175.1,329.7 L177.5,329.4 L180,329.1 L182.4,328.7 L184.9,328.4 L187.3,328 L189.7,327.6 L192.2,327.2 L194.6,326.8 L197,326.3 L199.5,325.9 L201.9,325.3 L204.4,324.8 L206.8,324.2 L209.2,323.6 L211.7,322.9 L214.1,322.2 L216.6,321.5 L219,320.7 L221.4,319.8 L223.9,318.9 L226.3,317.9 L228.8,316.8 L231.2,315.6 L233.6,314.4 L236.1,313 L238.5,311.5 L241,309.9 L243.4,308.2 L245.8,306.3 L248.3,304.2 L250.7,301.9 L253.2,299.4 L255.6,296.7 L258,293.6 L260.5,290.3 L262.9,286.6 L265.4,282.4 L267.8,277.9 L270.2,272.8 L272.7,267.1 L275.1,260.8 L277.5,253.7 L280,245.8 L282.4,237 L284.9,227.2 L287.3,216.3 L289.7,204.4 L292.2,191.3 L294.6,177.3 L297.1,162.5 L299.5,147.3 L301.9,132.2 L304.4,118 L306.8,105.5 L309.3,95.61 L311.7,89.29 L314.1,87.11 L316.6,89.29 L319,95.6 L321.5,105.5 L323.9,118 L326.3,132.2 L328.8,147.3 L331.2,162.5 L333.7,177.3 L336.1,191.3 L338.5,204.3 L341,216.3 L343.4,227.2 L345.9,237 L348.3,245.8 L350.7,253.7 L353.2,260.8 L355.6,267.1 L358,272.8 L360.5,277.9 L362.9,282.4 L365.4,286.6 L367.8,290.3 L370.2,293.6 L372.7,296.7 L375.1,299.4 L377.6,301.9 L380,304.2 L382.4,306.3 L384.9,308.2 L387.3,309.9 L389.8,311.5 L392.2,313 L394.6,314.4 L397.1,315.6 L399.5,316.8 L402,317.9 L404.4,318.9 L406.8,319.8 L409.3,320.7 L411.7,321.5 L414.2,322.2 L416.6,322.9 L419,323.6 L421.5,324.2 L423.9,324.8 L426.4,325.3 L428.8,325.9 L431.2,326.3 L433.7,326.8 L436.1,327.2 L438.5,327.6 L441,328 L443.4,328.4 L445.9,328.7 L448.3,329.1 L450.7,329.4 L453.2,329.7 L455.6,330 L458.1,330.2 L460.5,330.5 L462.9,330.7 L465.4,331 L467.8,331.2 L470.3,331.4 L472.7,331.6 L475.1,331.8 L477.6,332 L480,332.1 L482.5,332.3 L484.9,332.5 L487.3,332.6 L489.8,332.8 L492.2,332.9 L494.7,333.1 L497.1,333.2 L499.5,333.3 L502,333.5 L504.4,333.6 L506.9,333.7 L509.3,333.8 L511.7,333.9 L514.2,334 L516.6,334.1 L519,334.2 L521.5,334.3 L523.9,334.4 L526.4,334.5 L528.8,334.6 L531.2,334.6 L533.7,334.7 L536.1,334.8 L538.6,334.9 L541,334.9 L543.4,335 L545.9,335.1 L548.3,335.1 L550.8,335.2 L553.2,335.3 L555.6,335.3 " fill="none"/></g>
<g clip-path="url(#plot_window)" stroke="rgb(0,100,0)" stroke-width="1"><path d="M70.2,337 L72.64,337 L75.08,337 L77.52,336.9 L79.96,336.9 L82.4,336.9 L84.84,336.9 L87.28,336.9 L89.72,336.9 L92.15,336.8 L94.59,336.8 L97.03,336.8 L99.47,336.8 L101.9,336.8 L104.4,336.7 L106.8,336.7 L109.2,336.7 L111.7,336.7 L114.1,336.6 L116.5,336.6 L119,336.6 L121.4,336.6 L123.9,336.6 L126.3,336.5 L128.7,336.5 L131.2,336.5 L133.6,336.4 L136.1,336.4 L138.5,336.4 L140.9,336.4 L143.4,336.3 L145.8,336.3 L148.3,336.3 L150.7,336.2 L153.1,336.2 L155.6,336.2 L158,336.1 L160.5,336.1 L162.9,336.1 L165.3,336 L167.8,336 L170.2,336 L172.7,335.9 L175.1,335.9 L177.5,335.8 L180,335.8 L182.4,335.7 L184.9,335.7 L187.3,335.6 L189.7,335.6 L192.2,335.5 L194.6,335.5 L197,335.4 L199.5,335.4 L201.9,335.3 L204.4,335.3 L206.8,335.2 L209.2,335.2 L211.7,335.1 L214.1,335 L216.6,335 L219,334.9 L221.4,334.8 L223.9,334.7 L226.3,334.7 L228.8,334.6 L231.2,334.5 L233.6,334.4 L236.1,334.3 L238.5,334.2 L241,334.1 L243.4,334.1 L245.8,333.9 L248.3,333.8 L250.7,333.7 L253.2,333.6 L255.6,333.5 L258,333.4 L260.5,333.3 L262.9,333.1 L265.4,333 L267.8,332.9 L270.2,332.7 L272.7,332.6 L275.1,332.4 L277.5,332.2 L280,332 L282.4,331.9 L284.9,331.7 L287.3,331.5 L289.7,331.3 L292.2,331.1 L294.6,330.8 L297.1,330.6 L299.5,330.3 L301.9,330.1 L304.4,329.8 L306.8,329.5 L309.3,329.2 L311.7,328.9 L314.1,328.5 L316.6,328.2 L319,327.8 L321.5,327.4 L323.9,327 L326.3,326.5 L328.8,326.1 L331.2,325.6 L333.7,325 L336.1,324.5 L338.5,323.9 L341,323.2 L343.4,322.5 L345.9,321.8 L348.3,321 L350.7,320.2 L353.2,319.3 L355.6,318.3 L358,317.3 L360.5,316.1 L362.9,314.9 L365.4,313.6 L367.8,312.2 L370.2,310.6 L372.7,308.9 L375.1,307.1 L377.6,305.1 L380,302.9 L382.4,300.5 L384.9,297.9 L387.3,295 L389.8,291.7 L392.2,288.2 L394.6,284.3 L397.1,279.9 L399.5,275 L402,269.6 L404.4,263.5 L406.8,256.8 L409.3,249.2 L411.7,240.8 L414.2,231.5 L416.6,221.1 L419,209.6 L421.5,197 L423.9,183.4 L426.4,168.9 L428.8,153.8 L431.2,138.6 L433.7,123.9 L436.1,110.5 L438.5,99.42 L441,91.5 L443.4,87.51 L445.9,87.83 L448.3,92.44 L450.7,100.9 L453.2,112.4 L455.6,126 L458.1,140.8 L460.5,156.1 L462.9,171.1 L465.4,185.5 L467.8,198.9 L470.3,211.3 L472.7,222.7 L475.1,232.9 L477.6,242.1 L480,250.4 L482.5,257.8 L484.9,264.5 L487.3,270.4 L489.8,275.8 L492.2,280.6 L494.7,284.9 L497.1,288.7 L499.5,292.2 L502,295.4 L504.4,298.3 L506.9,300.9 L509.3,303.3 L511.7,305.4 L514.2,307.4 L516.6,309.2 L519,310.9 L521.5,312.4 L523.9,313.8 L526.4,315.1 L528.8,316.3 L531.2,317.4 L533.7,318.5 L536.1,319.4 L538.6,320.3 L541,321.1 L543.4,321.9 L545.9,322.6 L548.3,323.3 L550.8,324 L553.2,324.6 L555.6,325.1 " fill="none"/></g>
</g>
<g id="plotPoints" clip-path="url(#plot_window)"><g stroke="rgb(0,0,0)"></g>
<g stroke="rgb(0,0,0)"></g>
<g stroke="rgb(0,0,0)"></g>
</g>
<g id="limitPoints" stroke="rgb(119,136,153)" fill="rgb(250,235,215)"></g>
<g id="legendBackground" stroke="rgb(119,136,153)" fill="rgb(255,255,255)" stroke-width="1"><rect x="572.1" y="62" width="165.9" height="105"/><rect x="572.1" y="62" width="165.9" height="105"/></g>
<g id="legendPoints"><g stroke="rgb(0,0,139)" stroke-width="1"><line x1="587.1" y1="92" x2="602.1" y2="92"/></g>
<g stroke="rgb(139,0,0)" stroke-width="1"><line x1="587.1" y1="122" x2="602.1" y2="122"/></g>
<g stroke="rgb(0,100,0)" stroke-width="1"><line x1="587.1" y1="152" x2="602.1" y2="152"/></g>
</g>
<g id="legendText">
<text x="609.6" y="92" font-size="15" font-family="Verdana">location = -5</text>
<text x="609.6" y="122" font-size="15" font-family="Verdana">location = 0</text>
<text x="609.6" y="152" font-size="15" font-family="Verdana">location = 5</text></g>
<g id="title">
<text x="375" y="40" text-anchor="middle" font-size="20" font-family="Verdana">Cauchy Distribution PDF (scale = 1)</text></g>
</svg>
