<?xml version="1.0" encoding="UTF-8" standalone="no"?>
<svg width="750" height ="400" version="1.1" xmlns="http://www.w3.org/2000/svg"
 xmlns:xlink="http://www.w3.org/1999/xlink"
 xmlns:ev="http://www.w3.org/2001/xml-events">

<!-- SVG plot written using Boost.Plot program (Creator Jacob Voytko) --> 
<!-- Use, modification and distribution of Boost.Plot subject to the --> 
<!-- Boost Software License, Version 1.0.--> 
<!-- (See accompanying file LICENSE_1_0.txt --> 
<!-- or copy at http://www.boost.org/LICENSE_1_0.txt) --> 

<clipPath id="plot_window"><rect x="71.2" y="63" width="501.6" height="274.2"/></clipPath>
<g id="imageBackground" stroke="rgb(119,136,153)" fill="rgb(255,255,255)" stroke-width="2"><rect x="0" y="0" width="750" height="400"/></g>
<g id="plotBackground" stroke="rgb(119,136,153)" fill="rgb(255,255,255)" stroke-width="2"><rect x="70.2" y="62" width="503.6" height="276.2"/></g>
<g id="yMinorGrid" stroke="rgb(200,220,255)" stroke-width="0.5"></g>
<g id="yMajorGrid" stroke="rgb(200,220,255)" stroke-width="1"></g>
<g id="xMinorGrid" stroke="rgb(200,220,255)" stroke-width="0.5"></g>
<g id="xMajorGrid" stroke="rgb(200,220,255)" stroke-width="1"></g>
<g id="yAxis" stroke="rgb(0,0,0)" stroke-width="1"><line x1="322" y1="62" x2="322" y2="343.2"/><line x1="70.2" y1="62" x2="70.2" y2="338.2"/></g>
<g id="xAxis" stroke="rgb(0,0,0)" stroke-width="1"><line x1="65.2" y1="338.2" x2="573.8" y2="338.2"/><line x1="65.2" y1="338.2" x2="573.8" y2="338.2"/></g>
<g id="yMinorTicks" stroke="rgb(0,0,0)" stroke-width="1"><path d="M68.2,330.3 L70.2,330.3 M68.2,322.4 L70.2,322.4 M68.2,314.5 L70.2,314.5 M68.2,306.6 L70.2,306.6 M68.2,290.9 L70.2,290.9 M68.2,283 L70.2,283 M68.2,275.1 L70.2,275.1 M68.2,267.2 L70.2,267.2 M68.2,251.4 L70.2,251.4 M68.2,243.5 L70.2,243.5 M68.2,235.7 L70.2,235.7 M68.2,227.8 L70.2,227.8 M68.2,212 L70.2,212 M68.2,204.1 L70.2,204.1 M68.2,196.2 L70.2,196.2 M68.2,188.3 L70.2,188.3 M68.2,172.5 L70.2,172.5 M68.2,164.7 L70.2,164.7 M68.2,156.8 L70.2,156.8 M68.2,148.9 L70.2,148.9 M68.2,133.1 L70.2,133.1 M68.2,125.2 L70.2,125.2 M68.2,117.3 L70.2,117.3 M68.2,109.4 L70.2,109.4 M68.2,93.66 L70.2,93.66 M68.2,85.78 L70.2,85.78 M68.2,77.89 L70.2,77.89 M68.2,70 L70.2,70 M68.2,338.2 L70.2,338.2 "/></g>
<g id="xMinorTicks" stroke="rgb(0,0,0)" stroke-width="1"><path d="M350.9,338.2 L350.9,340.2 M379.7,338.2 L379.7,340.2 M408.6,338.2 L408.6,340.2 M437.5,338.2 L437.5,340.2 M495.3,338.2 L495.3,340.2 M524.1,338.2 L524.1,340.2 M553,338.2 L553,340.2 M293.1,338.2 L293.1,340.2 M264.2,338.2 L264.2,340.2 M235.3,338.2 L235.3,340.2 M206.5,338.2 L206.5,340.2 M148.7,338.2 L148.7,340.2 M119.8,338.2 L119.8,340.2 M90.94,338.2 L90.94,340.2 "/></g>
<g id="yMajorTicks" stroke="rgb(0,0,0)" stroke-width="2"><path d="M65.2,338.2 L70.2,338.2 M65.2,298.8 L70.2,298.8 M65.2,259.3 L70.2,259.3 M65.2,219.9 L70.2,219.9 M65.2,180.4 L70.2,180.4 M65.2,141 L70.2,141 M65.2,101.6 L70.2,101.6 M65.2,62.11 L70.2,62.11 M65.2,338.2 L70.2,338.2 "/></g>
<g id="xMajorTicks" stroke="rgb(0,0,0)" stroke-width="2"><path d="M322,338.2 L322,343.2 M466.4,338.2 L466.4,343.2 M322,338.2 L322,343.2 M177.6,338.2 L177.6,343.2 "/></g>
<g id="plotLabels">
<text x="322" y="357.6" text-anchor="middle" font-size="12" font-family="Verdana">0</text>
<text x="466.4" y="357.6" text-anchor="middle" font-size="12" font-family="Verdana">5</text>
<text x="322" y="357.6" text-anchor="middle" font-size="12" font-family="Verdana">0</text>
<text x="177.6" y="357.6" text-anchor="middle" font-size="12" font-family="Verdana">-5</text>
<text x="59.2" y="340.6" text-anchor="end" font-size="12" font-family="Verdana">0</text>
<text x="59.2" y="301.2" text-anchor="end" font-size="12" font-family="Verdana">0.1</text>
<text x="59.2" y="261.7" text-anchor="end" font-size="12" font-family="Verdana">0.2</text>
<text x="59.2" y="222.3" text-anchor="end" font-size="12" font-family="Verdana">0.3</text>
<text x="59.2" y="182.8" text-anchor="end" font-size="12" font-family="Verdana">0.4</text>
<text x="59.2" y="143.4" text-anchor="end" font-size="12" font-family="Verdana">0.5</text>
<text x="59.2" y="104" text-anchor="end" font-size="12" font-family="Verdana">0.6</text>
<text x="59.2" y="64.51" text-anchor="end" font-size="12" font-family="Verdana">0.7</text>
<text x="59.2" y="340.6" text-anchor="end" font-size="12" font-family="Verdana">0</text></g>
<g id="yLabel">
<text x="30.2" y="200.1" text-anchor="middle" transform = "rotate(-90 30.2 200.1 )" font-size="14" font-family="Verdana">Probability</text></g>
<g id="xLabel">
<text x="322" y="384" text-anchor="middle" font-size="14" font-family="Verdana">Random Variable</text></g>
<g id="plotLines" stroke-width="2"><g clip-path="url(#plot_window)" stroke="rgb(0,0,139)" stroke-width="1"><path d="M70.2,337.4 L72.72,337.4 L75.24,337.3 L77.75,337.3 L80.27,337.3 L82.79,337.3 L85.31,337.3 L87.82,337.2 L90.34,337.2 L92.86,337.2 L95.38,337.2 L97.9,337.2 L100.4,337.1 L102.9,337.1 L105.4,337.1 L108,337.1 L110.5,337 L113,337 L115.5,337 L118,336.9 L120.6,336.9 L123.1,336.9 L125.6,336.8 L128.1,336.8 L130.6,336.8 L133.1,336.7 L135.7,336.7 L138.2,336.7 L140.7,336.6 L143.2,336.6 L145.7,336.5 L148.3,336.5 L150.8,336.4 L153.3,336.4 L155.8,336.3 L158.3,336.3 L160.8,336.2 L163.4,336.1 L165.9,336.1 L168.4,336 L170.9,335.9 L173.4,335.8 L175.9,335.8 L178.5,335.7 L181,335.6 L183.5,335.5 L186,335.4 L188.5,335.3 L191.1,335.2 L193.6,335.1 L196.1,334.9 L198.6,334.8 L201.1,334.7 L203.6,334.5 L206.2,334.4 L208.7,334.2 L211.2,334 L213.7,333.8 L216.2,333.6 L218.8,333.4 L221.3,333.1 L223.8,332.9 L226.3,332.6 L228.8,332.3 L231.3,332 L233.9,331.6 L236.4,331.3 L238.9,330.8 L241.4,330.4 L243.9,329.9 L246.4,329.3 L249,328.8 L251.5,328.1 L254,327.4 L256.5,326.6 L259,325.6 L261.6,324.6 L264.1,323.5 L266.6,322.2 L269.1,320.8 L271.6,319.1 L274.1,317.2 L276.7,315.1 L279.2,312.5 L281.7,309.6 L284.2,306.2 L286.7,302.1 L289.2,297.3 L291.8,291.5 L294.3,284.5 L296.8,276.1 L299.3,265.7 L301.8,253 L304.4,237.4 L306.9,218.4 L309.4,195.6 L311.9,169.3 L314.4,141.1 L316.9,114.4 L319.5,94.55 L322,87.11 L324.5,94.49 L327,114.3 L329.5,141 L332.1,169.2 L334.6,195.5 L337.1,218.3 L339.6,237.3 L342.1,252.9 L344.6,265.7 L347.2,276 L349.7,284.5 L352.2,291.5 L354.7,297.3 L357.2,302.1 L359.7,306.2 L362.3,309.6 L364.8,312.5 L367.3,315.1 L369.8,317.2 L372.3,319.1 L374.9,320.8 L377.4,322.2 L379.9,323.5 L382.4,324.6 L384.9,325.6 L387.4,326.5 L390,327.4 L392.5,328.1 L395,328.7 L397.5,329.3 L400,329.9 L402.5,330.4 L405.1,330.8 L407.6,331.3 L410.1,331.6 L412.6,332 L415.1,332.3 L417.7,332.6 L420.2,332.9 L422.7,333.1 L425.2,333.4 L427.7,333.6 L430.2,333.8 L432.8,334 L435.3,334.2 L437.8,334.4 L440.3,334.5 L442.8,334.7 L445.4,334.8 L447.9,334.9 L450.4,335.1 L452.9,335.2 L455.4,335.3 L457.9,335.4 L460.5,335.5 L463,335.6 L465.5,335.7 L468,335.8 L470.5,335.8 L473,335.9 L475.6,336 L478.1,336.1 L480.6,336.1 L483.1,336.2 L485.6,336.3 L488.2,336.3 L490.7,336.4 L493.2,336.4 L495.7,336.5 L498.2,336.5 L500.7,336.6 L503.3,336.6 L505.8,336.7 L508.3,336.7 L510.8,336.7 L513.3,336.8 L515.9,336.8 L518.4,336.8 L520.9,336.9 L523.4,336.9 L525.9,336.9 L528.4,337 L531,337 L533.5,337 L536,337.1 L538.5,337.1 L541,337.1 L543.5,337.1 L546.1,337.2 L548.6,337.2 L551.1,337.2 L553.6,337.2 L556.1,337.2 L558.7,337.3 L561.2,337.3 L563.7,337.3 L566.2,337.3 L568.7,337.3 L571.2,337.4 " fill="none"/></g>
<g clip-path="url(#plot_window)" stroke="rgb(139,0,0)" stroke-width="1"><path d="M70.2,336.6 L72.72,336.5 L75.24,336.5 L77.75,336.5 L80.27,336.4 L82.79,336.4 L85.31,336.4 L87.82,336.3 L90.34,336.3 L92.86,336.2 L95.38,336.2 L97.9,336.1 L100.4,336.1 L102.9,336.1 L105.4,336 L108,336 L110.5,335.9 L113,335.8 L115.5,335.8 L118,335.7 L120.6,335.7 L123.1,335.6 L125.6,335.5 L128.1,335.5 L130.6,335.4 L133.1,335.3 L135.7,335.3 L138.2,335.2 L140.7,335.1 L143.2,335 L145.7,334.9 L148.3,334.8 L150.8,334.7 L153.3,334.6 L155.8,334.5 L158.3,334.4 L160.8,334.3 L163.4,334.2 L165.9,334 L168.4,333.9 L170.9,333.8 L173.4,333.6 L175.9,333.5 L178.5,333.3 L181,333.1 L183.5,333 L186,332.8 L188.5,332.6 L191.1,332.4 L193.6,332.2 L196.1,331.9 L198.6,331.7 L201.1,331.4 L203.6,331.1 L206.2,330.9 L208.7,330.5 L211.2,330.2 L213.7,329.9 L216.2,329.5 L218.8,329.1 L221.3,328.7 L223.8,328.2 L226.3,327.7 L228.8,327.2 L231.3,326.6 L233.9,326 L236.4,325.4 L238.9,324.7 L241.4,323.9 L243.9,323.1 L246.4,322.2 L249,321.2 L251.5,320.2 L254,319 L256.5,317.7 L259,316.4 L261.6,314.9 L264.1,313.2 L266.6,311.4 L269.1,309.4 L271.6,307.1 L274.1,304.7 L276.7,301.9 L279.2,298.9 L281.7,295.6 L284.2,291.9 L286.7,287.8 L289.2,283.3 L291.8,278.3 L294.3,272.8 L296.8,266.9 L299.3,260.5 L301.8,253.8 L304.4,246.7 L306.9,239.6 L309.4,232.7 L311.9,226.3 L314.4,220.7 L316.9,216.4 L319.5,213.6 L322,212.7 L324.5,213.6 L327,216.4 L329.5,220.7 L332.1,226.3 L334.6,232.7 L337.1,239.6 L339.6,246.7 L342.1,253.7 L344.6,260.5 L347.2,266.9 L349.7,272.8 L352.2,278.2 L354.7,283.2 L357.2,287.8 L359.7,291.9 L362.3,295.6 L364.8,298.9 L367.3,301.9 L369.8,304.7 L372.3,307.1 L374.9,309.3 L377.4,311.4 L379.9,313.2 L382.4,314.9 L384.9,316.4 L387.4,317.7 L390,319 L392.5,320.2 L395,321.2 L397.5,322.2 L400,323.1 L402.5,323.9 L405.1,324.7 L407.6,325.4 L410.1,326 L412.6,326.6 L415.1,327.2 L417.7,327.7 L420.2,328.2 L422.7,328.7 L425.2,329.1 L427.7,329.5 L430.2,329.9 L432.8,330.2 L435.3,330.5 L437.8,330.8 L440.3,331.1 L442.8,331.4 L445.4,331.7 L447.9,331.9 L450.4,332.2 L452.9,332.4 L455.4,332.6 L457.9,332.8 L460.5,333 L463,333.1 L465.5,333.3 L468,333.5 L470.5,333.6 L473,333.8 L475.6,333.9 L478.1,334 L480.6,334.2 L483.1,334.3 L485.6,334.4 L488.2,334.5 L490.7,334.6 L493.2,334.7 L495.7,334.8 L498.2,334.9 L500.7,335 L503.3,335.1 L505.8,335.2 L508.3,335.3 L510.8,335.3 L513.3,335.4 L515.9,335.5 L518.4,335.5 L520.9,335.6 L523.4,335.7 L525.9,335.7 L528.4,335.8 L531,335.8 L533.5,335.9 L536,336 L538.5,336 L541,336.1 L543.5,336.1 L546.1,336.1 L548.6,336.2 L551.1,336.2 L553.6,336.3 L556.1,336.3 L558.7,336.4 L561.2,336.4 L563.7,336.4 L566.2,336.5 L568.7,336.5 L571.2,336.5 " fill="none"/></g>
<g clip-path="url(#plot_window)" stroke="rgb(0,100,0)" stroke-width="1"><path d="M70.2,335.1 L72.72,335 L75.24,334.9 L77.75,334.9 L80.27,334.8 L82.79,334.7 L85.31,334.7 L87.82,334.6 L90.34,334.5 L92.86,334.4 L95.38,334.4 L97.9,334.3 L100.4,334.2 L102.9,334.1 L105.4,334 L108,333.9 L110.5,333.8 L113,333.7 L115.5,333.6 L118,333.5 L120.6,333.4 L123.1,333.3 L125.6,333.2 L128.1,333.1 L130.6,333 L133.1,332.8 L135.7,332.7 L138.2,332.6 L140.7,332.4 L143.2,332.3 L145.7,332.1 L148.3,332 L150.8,331.8 L153.3,331.6 L155.8,331.4 L158.3,331.2 L160.8,331.1 L163.4,330.9 L165.9,330.6 L168.4,330.4 L170.9,330.2 L173.4,330 L175.9,329.7 L178.5,329.4 L181,329.2 L183.5,328.9 L186,328.6 L188.5,328.3 L191.1,328 L193.6,327.6 L196.1,327.3 L198.6,326.9 L201.1,326.5 L203.6,326.1 L206.2,325.7 L208.7,325.3 L211.2,324.8 L213.7,324.3 L216.2,323.8 L218.8,323.2 L221.3,322.7 L223.8,322.1 L226.3,321.4 L228.8,320.8 L231.3,320.1 L233.9,319.3 L236.4,318.6 L238.9,317.7 L241.4,316.9 L243.9,316 L246.4,315 L249,314 L251.5,313 L254,311.9 L256.5,310.7 L259,309.5 L261.6,308.2 L264.1,306.9 L266.6,305.5 L269.1,304 L271.6,302.5 L274.1,301 L276.7,299.4 L279.2,297.7 L281.7,296 L284.2,294.2 L286.7,292.5 L289.2,290.7 L291.8,288.9 L294.3,287.2 L296.8,285.5 L299.3,283.8 L301.8,282.2 L304.4,280.8 L306.9,279.4 L309.4,278.3 L311.9,277.3 L314.4,276.5 L316.9,275.9 L319.5,275.5 L322,275.4 L324.5,275.5 L327,275.9 L329.5,276.5 L332.1,277.3 L334.6,278.3 L337.1,279.4 L339.6,280.8 L342.1,282.2 L344.6,283.8 L347.2,285.4 L349.7,287.2 L352.2,288.9 L354.7,290.7 L357.2,292.5 L359.7,294.2 L362.3,296 L364.8,297.7 L367.3,299.3 L369.8,301 L372.3,302.5 L374.9,304 L377.4,305.5 L379.9,306.9 L382.4,308.2 L384.9,309.5 L387.4,310.7 L390,311.9 L392.5,313 L395,314 L397.5,315 L400,316 L402.5,316.9 L405.1,317.7 L407.6,318.6 L410.1,319.3 L412.6,320.1 L415.1,320.8 L417.7,321.4 L420.2,322.1 L422.7,322.7 L425.2,323.2 L427.7,323.8 L430.2,324.3 L432.8,324.8 L435.3,325.2 L437.8,325.7 L440.3,326.1 L442.8,326.5 L445.4,326.9 L447.9,327.3 L450.4,327.6 L452.9,328 L455.4,328.3 L457.9,328.6 L460.5,328.9 L463,329.2 L465.5,329.4 L468,329.7 L470.5,330 L473,330.2 L475.6,330.4 L478.1,330.6 L480.6,330.9 L483.1,331.1 L485.6,331.2 L488.2,331.4 L490.7,331.6 L493.2,331.8 L495.7,332 L498.2,332.1 L500.7,332.3 L503.3,332.4 L505.8,332.6 L508.3,332.7 L510.8,332.8 L513.3,333 L515.9,333.1 L518.4,333.2 L520.9,333.3 L523.4,333.4 L525.9,333.5 L528.4,333.6 L531,333.7 L533.5,333.8 L536,333.9 L538.5,334 L541,334.1 L543.5,334.2 L546.1,334.3 L548.6,334.4 L551.1,334.4 L553.6,334.5 L556.1,334.6 L558.7,334.7 L561.2,334.7 L563.7,334.8 L566.2,334.9 L568.7,334.9 L571.2,335 " fill="none"/></g>
</g>
<g id="plotPoints" clip-path="url(#plot_window)"><g stroke="rgb(0,0,0)"></g>
<g stroke="rgb(0,0,0)"></g>
<g stroke="rgb(0,0,0)"></g>
</g>
<g id="limitPoints" stroke="rgb(119,136,153)" fill="rgb(250,235,215)"></g>
<g id="legendBackground" stroke="rgb(119,136,153)" fill="rgb(255,255,255)" stroke-width="1"><rect x="587.8" y="62" width="150.2" height="105"/><rect x="587.8" y="62" width="150.2" height="105"/></g>
<g id="legendPoints"><g stroke="rgb(0,0,139)" stroke-width="1"><line x1="602.8" y1="92" x2="617.8" y2="92"/></g>
<g stroke="rgb(139,0,0)" stroke-width="1"><line x1="602.8" y1="122" x2="617.8" y2="122"/></g>
<g stroke="rgb(0,100,0)" stroke-width="1"><line x1="602.8" y1="152" x2="617.8" y2="152"/></g>
</g>
<g id="legendText">
<text x="625.3" y="92" font-size="15" font-family="Verdana">scale = 0.5</text>
<text x="625.3" y="122" font-size="15" font-family="Verdana">scale = 1</text>
<text x="625.3" y="152" font-size="15" font-family="Verdana">scale = 2</text></g>
<g id="title">
<text x="375" y="40" text-anchor="middle" font-size="20" font-family="Verdana">Cauchy Distribution PDF (location = 0)</text></g>
</svg>
