<?xml version="1.0" encoding="UTF-8" standalone="no"?>
<svg width="600" height ="400" version="1.1" xmlns="http://www.w3.org/2000/svg"
 xmlns:xlink="http://www.w3.org/1999/xlink"
 xmlns:ev="http://www.w3.org/2001/xml-events">

<!-- SVG plot written using Boost.Plot program (Creator Jacob Voytko) --> 
<!-- Use, modification and distribution of Boost.Plot subject to the --> 
<!-- Boost Software License, Version 1.0.--> 
<!-- (See accompanying file LICENSE_1_0.txt --> 
<!-- or copy at http://www.boost.org/LICENSE_1_0.txt) --> 

<!-- SVG Plot Copyright John Maddock 2008 --> 
<meta name="copyright" content="John Maddock" />
<meta name="date" content="2008" />
<!-- Use, modification and distribution of this Scalable Vector Graphic file -->
<!-- are subject to the Boost Software License, Version 1.0. -->
<!-- (See accompanying file LICENSE_1_0.txt or copy at http://www.boost.org/LICENSE_1_0.txt) -->

<clipPath id="plot_window"><rect x="62.8" y="63" width="524.2" height="274.2"/></clipPath>
<g id="imageBackground" stroke="rgb(119,136,153)" fill="rgb(255,255,255)" stroke-width="2"><rect x="0" y="0" width="600" height="400"/></g>
<g id="plotBackground" stroke="rgb(119,136,153)" fill="rgb(255,255,255)" stroke-width="2"><rect x="61.8" y="62" width="526.2" height="276.2"/></g>
<g id="yMinorGrid" stroke="rgb(200,220,255)" stroke-width="0.5"></g>
<g id="yMajorGrid" stroke="rgb(200,220,255)" stroke-width="1"></g>
<g id="xMinorGrid" stroke="rgb(200,220,255)" stroke-width="0.5"></g>
<g id="xMajorGrid" stroke="rgb(200,220,255)" stroke-width="1"></g>
<g id="yAxis" stroke="rgb(0,0,0)" stroke-width="1"><line x1="319.7" y1="62" x2="319.7" y2="343.2"/><line x1="61.8" y1="62" x2="61.8" y2="338.2"/></g>
<g id="xAxis" stroke="rgb(0,0,0)" stroke-width="1"><line x1="56.8" y1="202.8" x2="588" y2="202.8"/><line x1="56.8" y1="338.2" x2="588" y2="338.2"/></g>
<g id="yMinorTicks" stroke="rgb(0,0,0)" stroke-width="1"><path d="M59.8,187.1 L61.8,187.1 M59.8,171.4 L61.8,171.4 M59.8,155.7 L61.8,155.7 M59.8,124.3 L61.8,124.3 M59.8,108.5 L61.8,108.5 M59.8,92.83 L61.8,92.83 M59.8,202.8 L61.8,202.8 M59.8,218.5 L61.8,218.5 M59.8,234.2 L61.8,234.2 M59.8,249.9 L61.8,249.9 M59.8,265.7 L61.8,265.7 M59.8,281.4 L61.8,281.4 M59.8,297.1 L61.8,297.1 M59.8,312.8 L61.8,312.8 M59.8,328.5 L61.8,328.5 "/></g>
<g id="xMinorTicks" stroke="rgb(0,0,0)" stroke-width="1"><path d="M352,338.2 L352,340.2 M384.2,338.2 L384.2,340.2 M416.5,338.2 L416.5,340.2 M481,338.2 L481,340.2 M513.2,338.2 L513.2,340.2 M545.4,338.2 L545.4,340.2 M287.5,338.2 L287.5,340.2 M255.3,338.2 L255.3,340.2 M223,338.2 L223,340.2 M158.5,338.2 L158.5,340.2 M126.3,338.2 L126.3,340.2 M94.04,338.2 L94.04,340.2 "/></g>
<g id="yMajorTicks" stroke="rgb(0,0,0)" stroke-width="2"><path d="M56.8,202.8 L61.8,202.8 M56.8,140 L61.8,140 M56.8,77.12 L61.8,77.12 M56.8,202.8 L61.8,202.8 M56.8,265.7 L61.8,265.7 M56.8,328.5 L61.8,328.5 "/></g>
<g id="xMajorTicks" stroke="rgb(0,0,0)" stroke-width="2"><path d="M319.7,338.2 L319.7,343.2 M448.7,338.2 L448.7,343.2 M577.7,338.2 L577.7,343.2 M319.7,338.2 L319.7,343.2 M190.8,338.2 L190.8,343.2 M61.8,338.2 L61.8,343.2 "/></g>
<g id="plotLabels">
<text x="319.7" y="357.6" text-anchor="middle" font-size="12" font-family="Verdana">0</text>
<text x="448.7" y="357.6" text-anchor="middle" font-size="12" font-family="Verdana">5</text>
<text x="577.7" y="357.6" text-anchor="middle" font-size="12" font-family="Verdana">10</text>
<text x="319.7" y="357.6" text-anchor="middle" font-size="12" font-family="Verdana">0</text>
<text x="190.8" y="357.6" text-anchor="middle" font-size="12" font-family="Verdana">-5</text>
<text x="61.8" y="357.6" text-anchor="middle" font-size="12" font-family="Verdana">-10</text>
<text x="50.8" y="205.2" text-anchor="end" font-size="12" font-family="Verdana">0</text>
<text x="50.8" y="142.4" text-anchor="end" font-size="12" font-family="Verdana">1</text>
<text x="50.8" y="79.52" text-anchor="end" font-size="12" font-family="Verdana">2</text>
<text x="50.8" y="205.2" text-anchor="end" font-size="12" font-family="Verdana">0</text>
<text x="50.8" y="268.1" text-anchor="end" font-size="12" font-family="Verdana">-1</text>
<text x="50.8" y="330.9" text-anchor="end" font-size="12" font-family="Verdana">-2</text></g>
<g id="yLabel">
<text x="30.2" y="200.1" text-anchor="middle" transform = "rotate(-90 30.2 200.1 )" font-size="14" font-family="Verdana">cbrt(z)</text></g>
<g id="xLabel">
<text x="324.9" y="384" text-anchor="middle" font-size="14" font-family="Verdana">z</text></g>
<g id="plotLines" stroke-width="2"><g clip-path="url(#plot_window)" stroke="rgb(0,0,139)" stroke-width="1"><path d="M61.8,338.2 L64.38,337.7 L66.96,337.3 L69.54,336.8 L72.12,336.4 L74.7,335.9 L77.28,335.4 L79.86,335 L82.44,334.5 L85.01,334 L87.59,333.5 L90.17,333 L92.75,332.6 L95.33,332.1 L97.91,331.6 L100.5,331.1 L103.1,330.6 L105.6,330 L108.2,329.5 L110.8,329 L113.4,328.5 L116,328 L118.5,327.4 L121.1,326.9 L123.7,326.4 L126.3,325.8 L128.9,325.3 L131.4,324.7 L134,324.2 L136.6,323.6 L139.2,323 L141.8,322.4 L144.3,321.9 L146.9,321.3 L149.5,320.7 L152.1,320.1 L154.7,319.5 L157.2,318.9 L159.8,318.3 L162.4,317.6 L165,317 L167.6,316.4 L170.1,315.7 L172.7,315.1 L175.3,314.4 L177.9,313.7 L180.5,313.1 L183,312.4 L185.6,311.7 L188.2,311 L190.8,310.3 L193.3,309.5 L195.9,308.8 L198.5,308.1 L201.1,307.3 L203.7,306.6 L206.2,305.8 L208.8,305 L211.4,304.2 L214,303.4 L216.6,302.6 L219.1,301.7 L221.7,300.9 L224.3,300 L226.9,299.1 L229.5,298.2 L232,297.3 L234.6,296.4 L237.2,295.4 L239.8,294.4 L242.4,293.4 L244.9,292.4 L247.5,291.4 L250.1,290.3 L252.7,289.2 L255.3,288.1 L257.8,286.9 L260.4,285.8 L263,284.5 L265.6,283.3 L268.2,282 L270.7,280.6 L273.3,279.3 L275.9,277.8 L278.5,276.3 L281,274.7 L283.6,273.1 L286.2,271.4 L288.8,269.6 L291.4,267.7 L293.9,265.7 L296.5,263.5 L299.1,261.1 L301.7,258.6 L304.3,255.8 L306.8,252.7 L309.4,249.1 L312,244.9 L314.6,239.6 L317.2,232 L319.7,202.8 L322.3,173.6 L324.9,166.1 L327.5,160.7 L330.1,156.5 L332.6,152.9 L335.2,149.8 L337.8,147 L340.4,144.5 L343,142.1 L345.5,140 L348.1,137.9 L350.7,136 L353.3,134.2 L355.9,132.5 L358.4,130.9 L361,129.3 L363.6,127.8 L366.2,126.4 L368.7,125 L371.3,123.6 L373.9,122.3 L376.5,121.1 L379.1,119.9 L381.6,118.7 L384.2,117.5 L386.8,116.4 L389.4,115.3 L392,114.2 L394.5,113.2 L397.1,112.2 L399.7,111.2 L402.3,110.2 L404.9,109.2 L407.4,108.3 L410,107.4 L412.6,106.5 L415.2,105.6 L417.8,104.7 L420.3,103.9 L422.9,103.1 L425.5,102.2 L428.1,101.4 L430.7,100.6 L433.2,99.83 L435.8,99.06 L438.4,98.29 L441,97.54 L443.6,96.8 L446.1,96.07 L448.7,95.35 L451.3,94.64 L453.9,93.93 L456.4,93.24 L459,92.55 L461.6,91.88 L464.2,91.21 L466.8,90.55 L469.3,89.9 L471.9,89.25 L474.5,88.61 L477.1,87.98 L479.7,87.36 L482.2,86.74 L484.8,86.13 L487.4,85.53 L490,84.93 L492.6,84.34 L495.1,83.75 L497.7,83.17 L500.3,82.59 L502.9,82.02 L505.5,81.46 L508,80.9 L510.6,80.35 L513.2,79.8 L515.8,79.25 L518.4,78.71 L520.9,78.18 L523.5,77.65 L526.1,77.12 L528.7,76.6 L531.3,76.08 L533.8,75.57 L536.4,75.06 L539,74.56 L541.6,74.05 L544.1,73.56 L546.7,73.06 L549.3,72.57 L551.9,72.09 L554.5,71.61 L557,71.13 L559.6,70.65 L562.2,70.18 L564.8,69.71 L567.4,69.25 L569.9,68.78 L572.5,68.32 L575.1,67.87 L577.7,67.42 " fill="none"/></g>
</g>
<g id="plotPoints" clip-path="url(#plot_window)"><g stroke="rgb(0,0,0)"></g>
</g>
<g id="limitPoints" stroke="rgb(119,136,153)" fill="rgb(250,235,215)"></g>
<g id="legendBackground" stroke="rgb(119,136,153)" fill="rgb(255,255,255)"></g>
<g id="legendPoints"></g>
<g id="legendText"></g>
<g id="title">
<text x="300" y="40" text-anchor="middle" font-size="20" font-family="Verdana">cbrt</text></g>
</svg>
