<?xml version="1.0" encoding="UTF-8" standalone="no"?>
<svg width="750" height ="400" version="1.1" xmlns="http://www.w3.org/2000/svg"
 xmlns:xlink="http://www.w3.org/1999/xlink"
 xmlns:ev="http://www.w3.org/2001/xml-events">

<!-- SVG plot written using Boost.Plot program (Creator Jacob Voytko) --> 
<!-- Use, modification and distribution of Boost.Plot subject to the --> 
<!-- Boost Software License, Version 1.0.--> 
<!-- (See accompanying file LICENSE_1_0.txt --> 
<!-- or copy at http://www.boost.org/LICENSE_1_0.txt) --> 

<clipPath id="plot_window"><rect x="71.2" y="63" width="556.4" height="274.2"/></clipPath>
<g id="imageBackground" stroke="rgb(119,136,153)" fill="rgb(255,255,255)" stroke-width="2"><rect x="0" y="0" width="750" height="400"/></g>
<g id="plotBackground" stroke="rgb(119,136,153)" fill="rgb(255,255,255)" stroke-width="2"><rect x="70.2" y="62" width="558.4" height="276.2"/></g>
<g id="yMinorGrid" stroke="rgb(200,220,255)" stroke-width="0.5"></g>
<g id="yMajorGrid" stroke="rgb(200,220,255)" stroke-width="1"></g>
<g id="xMinorGrid" stroke="rgb(200,220,255)" stroke-width="0.5"></g>
<g id="xMajorGrid" stroke="rgb(200,220,255)" stroke-width="1"></g>
<g id="yAxis" stroke="rgb(0,0,0)" stroke-width="1"><line x1="70.2" y1="62" x2="70.2" y2="343.2"/><line x1="70.2" y1="62" x2="70.2" y2="338.2"/></g>
<g id="xAxis" stroke="rgb(0,0,0)" stroke-width="1"><line x1="65.2" y1="338.2" x2="628.6" y2="338.2"/><line x1="65.2" y1="338.2" x2="628.6" y2="338.2"/></g>
<g id="yMinorTicks" stroke="rgb(0,0,0)" stroke-width="1"><path d="M68.2,327.5 L70.2,327.5 M68.2,316.9 L70.2,316.9 M68.2,306.2 L70.2,306.2 M68.2,295.5 L70.2,295.5 M68.2,274.2 L70.2,274.2 M68.2,263.6 L70.2,263.6 M68.2,252.9 L70.2,252.9 M68.2,242.2 L70.2,242.2 M68.2,220.9 L70.2,220.9 M68.2,210.2 L70.2,210.2 M68.2,199.6 L70.2,199.6 M68.2,188.9 L70.2,188.9 M68.2,167.6 L70.2,167.6 M68.2,156.9 L70.2,156.9 M68.2,146.2 L70.2,146.2 M68.2,135.6 L70.2,135.6 M68.2,114.3 L70.2,114.3 M68.2,103.6 L70.2,103.6 M68.2,92.93 L70.2,92.93 M68.2,82.26 L70.2,82.26 M68.2,338.2 L70.2,338.2 "/></g>
<g id="xMinorTicks" stroke="rgb(0,0,0)" stroke-width="1"><path d="M95.44,338.2 L95.44,340.2 M120.7,338.2 L120.7,340.2 M145.9,338.2 L145.9,340.2 M171.2,338.2 L171.2,340.2 M221.7,338.2 L221.7,340.2 M246.9,338.2 L246.9,340.2 M272.1,338.2 L272.1,340.2 M297.4,338.2 L297.4,340.2 M347.9,338.2 L347.9,340.2 M373.1,338.2 L373.1,340.2 M398.4,338.2 L398.4,340.2 M423.6,338.2 L423.6,340.2 M474.1,338.2 L474.1,340.2 M499.3,338.2 L499.3,340.2 M524.6,338.2 L524.6,340.2 M549.8,338.2 L549.8,340.2 M600.3,338.2 L600.3,340.2 M625.5,338.2 L625.5,340.2 "/></g>
<g id="yMajorTicks" stroke="rgb(0,0,0)" stroke-width="2"><path d="M65.2,338.2 L70.2,338.2 M65.2,284.9 L70.2,284.9 M65.2,231.6 L70.2,231.6 M65.2,178.2 L70.2,178.2 M65.2,124.9 L70.2,124.9 M65.2,71.6 L70.2,71.6 M65.2,338.2 L70.2,338.2 "/></g>
<g id="xMajorTicks" stroke="rgb(0,0,0)" stroke-width="2"><path d="M70.2,338.2 L70.2,343.2 M196.4,338.2 L196.4,343.2 M322.6,338.2 L322.6,343.2 M448.8,338.2 L448.8,343.2 M575.1,338.2 L575.1,343.2 M70.2,338.2 L70.2,343.2 "/></g>
<g id="plotLabels">
<text x="70.2" y="357.6" text-anchor="middle" font-size="12" font-family="Verdana">0</text>
<text x="196.4" y="357.6" text-anchor="middle" font-size="12" font-family="Verdana">5</text>
<text x="322.6" y="357.6" text-anchor="middle" font-size="12" font-family="Verdana">10</text>
<text x="448.8" y="357.6" text-anchor="middle" font-size="12" font-family="Verdana">15</text>
<text x="575.1" y="357.6" text-anchor="middle" font-size="12" font-family="Verdana">20</text>
<text x="70.2" y="357.6" text-anchor="middle" font-size="12" font-family="Verdana">0</text>
<text x="59.2" y="340.6" text-anchor="end" font-size="12" font-family="Verdana">0</text>
<text x="59.2" y="287.3" text-anchor="end" font-size="12" font-family="Verdana">0.1</text>
<text x="59.2" y="234" text-anchor="end" font-size="12" font-family="Verdana">0.2</text>
<text x="59.2" y="180.6" text-anchor="end" font-size="12" font-family="Verdana">0.3</text>
<text x="59.2" y="127.3" text-anchor="end" font-size="12" font-family="Verdana">0.4</text>
<text x="59.2" y="74" text-anchor="end" font-size="12" font-family="Verdana">0.5</text>
<text x="59.2" y="340.6" text-anchor="end" font-size="12" font-family="Verdana">0</text></g>
<g id="yLabel">
<text x="30.2" y="200.1" text-anchor="middle" transform = "rotate(-90 30.2 200.1 )" font-size="14" font-family="Verdana">Probability</text></g>
<g id="xLabel">
<text x="349.4" y="384" text-anchor="middle" font-size="14" font-family="Verdana">Random Variable</text></g>
<g id="plotLines" stroke-width="2"><g clip-path="url(#plot_window)" stroke="rgb(0,0,139)" stroke-width="1"><path d="M70.2,71.6 L72.99,85.94 L75.78,99.52 L78.58,112.4 L81.37,124.5 L84.16,136 L86.95,146.9 L89.75,157.2 L92.54,166.9 L95.33,176.1 L98.12,184.9 L100.9,193.1 L103.7,200.9 L106.5,208.3 L109.3,215.3 L112.1,221.9 L114.9,228.2 L117.7,234.1 L120.5,239.7 L123.3,245 L126,250 L128.8,254.7 L131.6,259.2 L134.4,263.5 L137.2,267.5 L140,271.3 L142.8,274.9 L145.6,278.3 L148.4,281.5 L151.2,284.6 L154,287.5 L156.8,290.2 L159.6,292.8 L162.3,295.2 L165.1,297.5 L167.9,299.7 L170.7,301.8 L173.5,303.8 L176.3,305.6 L179.1,307.4 L181.9,309 L184.7,310.6 L187.5,312.1 L190.3,313.5 L193.1,314.8 L195.8,316.1 L198.6,317.3 L201.4,318.4 L204.2,319.5 L207,320.5 L209.8,321.4 L212.6,322.3 L215.4,323.2 L218.2,324 L221,324.7 L223.8,325.5 L226.6,326.2 L229.4,326.8 L232.1,327.4 L234.9,328 L237.7,328.5 L240.5,329.1 L243.3,329.6 L246.1,330 L248.9,330.5 L251.7,330.9 L254.5,331.3 L257.3,331.6 L260.1,332 L262.9,332.3 L265.7,332.6 L268.4,332.9 L271.2,333.2 L274,333.5 L276.8,333.7 L279.6,334 L282.4,334.2 L285.2,334.4 L288,334.6 L290.8,334.8 L293.6,335 L296.4,335.2 L299.2,335.3 L302,335.5 L304.7,335.6 L307.5,335.8 L310.3,335.9 L313.1,336 L315.9,336.1 L318.7,336.3 L321.5,336.4 L324.3,336.5 L327.1,336.6 L329.9,336.6 L332.7,336.7 L335.5,336.8 L338.3,336.9 L341,337 L343.8,337 L346.6,337.1 L349.4,337.1 L352.2,337.2 L355,337.3 L357.8,337.3 L360.6,337.4 L363.4,337.4 L366.2,337.4 L369,337.5 L371.8,337.5 L374.5,337.6 L377.3,337.6 L380.1,337.6 L382.9,337.7 L385.7,337.7 L388.5,337.7 L391.3,337.7 L394.1,337.8 L396.9,337.8 L399.7,337.8 L402.5,337.8 L405.3,337.9 L408.1,337.9 L410.8,337.9 L413.6,337.9 L416.4,337.9 L419.2,337.9 L422,337.9 L424.8,338 L427.6,338 L430.4,338 L433.2,338 L436,338 L438.8,338 L441.6,338 L444.4,338 L447.1,338 L449.9,338.1 L452.7,338.1 L455.5,338.1 L458.3,338.1 L461.1,338.1 L463.9,338.1 L466.7,338.1 L469.5,338.1 L472.3,338.1 L475.1,338.1 L477.9,338.1 L480.7,338.1 L483.4,338.1 L486.2,338.1 L489,338.1 L491.8,338.1 L494.6,338.1 L497.4,338.1 L500.2,338.1 L503,338.1 L505.8,338.2 L508.6,338.2 L511.4,338.2 L514.2,338.2 L517,338.2 L519.7,338.2 L522.5,338.2 L525.3,338.2 L528.1,338.2 L530.9,338.2 L533.7,338.2 L536.5,338.2 L539.3,338.2 L542.1,338.2 L544.9,338.2 L547.7,338.2 L550.5,338.2 L553.3,338.2 L556,338.2 L558.8,338.2 L561.6,338.2 L564.4,338.2 L567.2,338.2 L570,338.2 L572.8,338.2 L575.6,338.2 L578.4,338.2 L581.2,338.2 L584,338.2 L586.8,338.2 L589.5,338.2 L592.3,338.2 L595.1,338.2 L597.9,338.2 L600.7,338.2 L603.5,338.2 L606.3,338.2 L609.1,338.2 L611.9,338.2 L614.7,338.2 L617.5,338.2 L620.3,338.2 L623.1,338.2 L625.8,338.2 " fill="none"/></g>
<g clip-path="url(#plot_window)" stroke="rgb(139,0,0)" stroke-width="1"><path d="M70.2,338.2 L72.99,335.7 L75.78,331.6 L78.58,326.7 L81.37,321.5 L84.16,316.1 L86.95,310.7 L89.75,305.4 L92.54,300.3 L95.33,295.4 L98.12,290.8 L100.9,286.4 L103.7,282.4 L106.5,278.6 L109.3,275.2 L112.1,272.1 L114.9,269.3 L117.7,266.8 L120.5,264.6 L123.3,262.7 L126,261 L128.8,259.6 L131.6,258.5 L134.4,257.6 L137.2,256.9 L140,256.4 L142.8,256.1 L145.6,256 L148.4,256.1 L151.2,256.3 L154,256.6 L156.8,257.1 L159.6,257.8 L162.3,258.5 L165.1,259.3 L167.9,260.3 L170.7,261.3 L173.5,262.3 L176.3,263.5 L179.1,264.7 L181.9,266 L184.7,267.3 L187.5,268.6 L190.3,270 L193.1,271.4 L195.8,272.8 L198.6,274.3 L201.4,275.7 L204.2,277.2 L207,278.7 L209.8,280.1 L212.6,281.6 L215.4,283.1 L218.2,284.5 L221,286 L223.8,287.4 L226.6,288.8 L229.4,290.2 L232.1,291.6 L234.9,293 L237.7,294.3 L240.5,295.6 L243.3,296.9 L246.1,298.2 L248.9,299.4 L251.7,300.7 L254.5,301.9 L257.3,303 L260.1,304.2 L262.9,305.3 L265.7,306.4 L268.4,307.4 L271.2,308.5 L274,309.5 L276.8,310.5 L279.6,311.4 L282.4,312.4 L285.2,313.3 L288,314.2 L290.8,315 L293.6,315.8 L296.4,316.6 L299.2,317.4 L302,318.2 L304.7,318.9 L307.5,319.6 L310.3,320.3 L313.1,321 L315.9,321.6 L318.7,322.3 L321.5,322.9 L324.3,323.4 L327.1,324 L329.9,324.5 L332.7,325.1 L335.5,325.6 L338.3,326.1 L341,326.5 L343.8,327 L346.6,327.4 L349.4,327.9 L352.2,328.3 L355,328.7 L357.8,329 L360.6,329.4 L363.4,329.8 L366.2,330.1 L369,330.4 L371.8,330.7 L374.5,331 L377.3,331.3 L380.1,331.6 L382.9,331.9 L385.7,332.1 L388.5,332.4 L391.3,332.6 L394.1,332.9 L396.9,333.1 L399.7,333.3 L402.5,333.5 L405.3,333.7 L408.1,333.9 L410.8,334.1 L413.6,334.2 L416.4,334.4 L419.2,334.6 L422,334.7 L424.8,334.9 L427.6,335 L430.4,335.2 L433.2,335.3 L436,335.4 L438.8,335.5 L441.6,335.6 L444.4,335.8 L447.1,335.9 L449.9,336 L452.7,336.1 L455.5,336.2 L458.3,336.2 L461.1,336.3 L463.9,336.4 L466.7,336.5 L469.5,336.6 L472.3,336.6 L475.1,336.7 L477.9,336.8 L480.7,336.8 L483.4,336.9 L486.2,336.9 L489,337 L491.8,337.1 L494.6,337.1 L497.4,337.2 L500.2,337.2 L503,337.2 L505.8,337.3 L508.6,337.3 L511.4,337.4 L514.2,337.4 L517,337.4 L519.7,337.5 L522.5,337.5 L525.3,337.5 L528.1,337.6 L530.9,337.6 L533.7,337.6 L536.5,337.7 L539.3,337.7 L542.1,337.7 L544.9,337.7 L547.7,337.7 L550.5,337.8 L553.3,337.8 L556,337.8 L558.8,337.8 L561.6,337.8 L564.4,337.9 L567.2,337.9 L570,337.9 L572.8,337.9 L575.6,337.9 L578.4,337.9 L581.2,337.9 L584,338 L586.8,338 L589.5,338 L592.3,338 L595.1,338 L597.9,338 L600.7,338 L603.5,338 L606.3,338 L609.1,338 L611.9,338 L614.7,338.1 L617.5,338.1 L620.3,338.1 L623.1,338.1 L625.8,338.1 " fill="none"/></g>
<g clip-path="url(#plot_window)" stroke="rgb(0,100,0)" stroke-width="1"><path d="M70.2,338.2 L72.99,338.2 L75.78,338.2 L78.58,338.2 L81.37,338.2 L84.16,338.2 L86.95,338.1 L89.75,338 L92.54,337.9 L95.33,337.8 L98.12,337.6 L100.9,337.4 L103.7,337.1 L106.5,336.8 L109.3,336.4 L112.1,335.9 L114.9,335.4 L117.7,334.8 L120.5,334.2 L123.3,333.5 L126,332.7 L128.8,331.9 L131.6,331 L134.4,330 L137.2,329.1 L140,328 L142.8,326.9 L145.6,325.8 L148.4,324.6 L151.2,323.4 L154,322.2 L156.8,320.9 L159.6,319.6 L162.3,318.3 L165.1,317 L167.9,315.7 L170.7,314.4 L173.5,313 L176.3,311.7 L179.1,310.4 L181.9,309.1 L184.7,307.8 L187.5,306.5 L190.3,305.3 L193.1,304 L195.8,302.8 L198.6,301.6 L201.4,300.5 L204.2,299.4 L207,298.3 L209.8,297.3 L212.6,296.3 L215.4,295.4 L218.2,294.5 L221,293.6 L223.8,292.8 L226.6,292 L229.4,291.3 L232.1,290.6 L234.9,290 L237.7,289.4 L240.5,288.9 L243.3,288.4 L246.1,288 L248.9,287.6 L251.7,287.2 L254.5,287 L257.3,286.7 L260.1,286.5 L262.9,286.3 L265.7,286.2 L268.4,286.2 L271.2,286.1 L274,286.1 L276.8,286.2 L279.6,286.3 L282.4,286.4 L285.2,286.5 L288,286.7 L290.8,286.9 L293.6,287.2 L296.4,287.5 L299.2,287.8 L302,288.1 L304.7,288.5 L307.5,288.9 L310.3,289.3 L313.1,289.8 L315.9,290.2 L318.7,290.7 L321.5,291.2 L324.3,291.7 L327.1,292.3 L329.9,292.8 L332.7,293.4 L335.5,294 L338.3,294.6 L341,295.2 L343.8,295.8 L346.6,296.4 L349.4,297 L352.2,297.6 L355,298.3 L357.8,298.9 L360.6,299.6 L363.4,300.2 L366.2,300.9 L369,301.5 L371.8,302.2 L374.5,302.9 L377.3,303.5 L380.1,304.2 L382.9,304.8 L385.7,305.5 L388.5,306.1 L391.3,306.8 L394.1,307.4 L396.9,308.1 L399.7,308.7 L402.5,309.3 L405.3,309.9 L408.1,310.6 L410.8,311.2 L413.6,311.8 L416.4,312.4 L419.2,313 L422,313.6 L424.8,314.1 L427.6,314.7 L430.4,315.3 L433.2,315.8 L436,316.4 L438.8,316.9 L441.6,317.4 L444.4,317.9 L447.1,318.5 L449.9,319 L452.7,319.5 L455.5,319.9 L458.3,320.4 L461.1,320.9 L463.9,321.3 L466.7,321.8 L469.5,322.2 L472.3,322.7 L475.1,323.1 L477.9,323.5 L480.7,323.9 L483.4,324.3 L486.2,324.7 L489,325.1 L491.8,325.4 L494.6,325.8 L497.4,326.2 L500.2,326.5 L503,326.8 L505.8,327.2 L508.6,327.5 L511.4,327.8 L514.2,328.1 L517,328.4 L519.7,328.7 L522.5,329 L525.3,329.3 L528.1,329.6 L530.9,329.8 L533.7,330.1 L536.5,330.3 L539.3,330.6 L542.1,330.8 L544.9,331 L547.7,331.3 L550.5,331.5 L553.3,331.7 L556,331.9 L558.8,332.1 L561.6,332.3 L564.4,332.5 L567.2,332.7 L570,332.8 L572.8,333 L575.6,333.2 L578.4,333.4 L581.2,333.5 L584,333.7 L586.8,333.8 L589.5,334 L592.3,334.1 L595.1,334.2 L597.9,334.4 L600.7,334.5 L603.5,334.6 L606.3,334.7 L609.1,334.9 L611.9,335 L614.7,335.1 L617.5,335.2 L620.3,335.3 L623.1,335.4 L625.8,335.5 " fill="none"/></g>
</g>
<g id="plotPoints" clip-path="url(#plot_window)"><g stroke="rgb(0,0,0)"></g>
<g stroke="rgb(0,0,0)"></g>
<g stroke="rgb(0,0,0)"></g>
</g>
<g id="limitPoints" stroke="rgb(119,136,153)" fill="rgb(250,235,215)"></g>
<g id="legendBackground" stroke="rgb(119,136,153)" fill="rgb(255,255,255)" stroke-width="1"><rect x="642.6" y="62" width="95.36" height="105"/><rect x="642.6" y="62" width="95.36" height="105"/></g>
<g id="legendPoints"><g stroke="rgb(0,0,139)" stroke-width="1"><line x1="657.6" y1="92" x2="672.6" y2="92"/></g>
<g stroke="rgb(139,0,0)" stroke-width="1"><line x1="657.6" y1="122" x2="672.6" y2="122"/></g>
<g stroke="rgb(0,100,0)" stroke-width="1"><line x1="657.6" y1="152" x2="672.6" y2="152"/></g>
</g>
<g id="legendText">
<text x="680.1" y="92" font-size="15" font-family="Verdana">v=2</text>
<text x="680.1" y="122" font-size="15" font-family="Verdana">v=5</text>
<text x="680.1" y="152" font-size="15" font-family="Verdana">v=10</text></g>
<g id="title">
<text x="375" y="40" text-anchor="middle" font-size="20" font-family="Verdana">Chi Squared Distribution PDF</text></g>
</svg>
