<?xml version="1.0" encoding="UTF-8" standalone="no"?>
<svg width="600" height ="400" version="1.1" xmlns="http://www.w3.org/2000/svg"
 xmlns:xlink="http://www.w3.org/1999/xlink"
 xmlns:ev="http://www.w3.org/2001/xml-events">

<!-- SVG plot written using Boost.Plot program (Creator Jacob Voytko) --> 
<!-- Use, modification and distribution of Boost.Plot subject to the --> 
<!-- Boost Software License, Version 1.0.--> 
<!-- (See accompanying file LICENSE_1_0.txt --> 
<!-- or copy at http://www.boost.org/LICENSE_1_0.txt) --> 

<!-- SVG Plot Copyright John Maddock 2008 --> 
<meta name="copyright" content="John Maddock" />
<meta name="date" content="2008" />
<!-- Use, modification and distribution of this Scalable Vector Graphic file -->
<!-- are subject to the Boost Software License, Version 1.0. -->
<!-- (See accompanying file LICENSE_1_0.txt or copy at http://www.boost.org/LICENSE_1_0.txt) -->

<clipPath id="plot_window"><rect x="62.8" y="63" width="403.2" height="274.2"/></clipPath>
<g id="imageBackground" stroke="rgb(119,136,153)" fill="rgb(255,255,255)" stroke-width="2"><rect x="0" y="0" width="600" height="400"/></g>
<g id="plotBackground" stroke="rgb(119,136,153)" fill="rgb(255,255,255)" stroke-width="2"><rect x="61.8" y="62" width="405.2" height="276.2"/></g>
<g id="yMinorGrid" stroke="rgb(200,220,255)" stroke-width="0.5"></g>
<g id="yMajorGrid" stroke="rgb(200,220,255)" stroke-width="1"></g>
<g id="xMinorGrid" stroke="rgb(200,220,255)" stroke-width="0.5"></g>
<g id="xMajorGrid" stroke="rgb(200,220,255)" stroke-width="1"></g>
<g id="yAxis" stroke="rgb(0,0,0)" stroke-width="1"><line x1="61.8" y1="62" x2="61.8" y2="338.2"/></g>
<g id="xAxis" stroke="rgb(0,0,0)" stroke-width="1"><line x1="61.8" y1="338.2" x2="467" y2="338.2"/></g>
<g id="yMinorTicks" stroke="rgb(0,0,0)" stroke-width="1"><path d="M59.8,331.4 L61.8,331.4 M59.8,324.7 L61.8,324.7 M59.8,317.9 L61.8,317.9 M59.8,304.4 L61.8,304.4 M59.8,297.6 L61.8,297.6 M59.8,290.8 L61.8,290.8 M59.8,277.3 L61.8,277.3 M59.8,270.5 L61.8,270.5 M59.8,263.7 L61.8,263.7 M59.8,250.2 L61.8,250.2 M59.8,243.4 L61.8,243.4 M59.8,236.7 L61.8,236.7 M59.8,223.1 L61.8,223.1 M59.8,216.3 L61.8,216.3 M59.8,209.6 L61.8,209.6 M59.8,196 L61.8,196 M59.8,189.3 L61.8,189.3 M59.8,182.5 L61.8,182.5 M59.8,169 L61.8,169 M59.8,162.2 L61.8,162.2 M59.8,155.4 L61.8,155.4 M59.8,141.9 L61.8,141.9 M59.8,135.1 L61.8,135.1 M59.8,128.3 L61.8,128.3 M59.8,114.8 L61.8,114.8 M59.8,108 L61.8,108 M59.8,101.3 L61.8,101.3 M59.8,87.72 L61.8,87.72 M59.8,80.95 L61.8,80.95 M59.8,74.19 L61.8,74.19 "/></g>
<g id="xMinorTicks" stroke="rgb(0,0,0)" stroke-width="1"><path d="M71.73,338.2 L71.73,340.2 M81.66,338.2 L81.66,340.2 M91.59,338.2 L91.59,340.2 M111.5,338.2 L111.5,340.2 M121.4,338.2 L121.4,340.2 M131.3,338.2 L131.3,340.2 M151.2,338.2 L151.2,340.2 M161.1,338.2 L161.1,340.2 M171,338.2 L171,340.2 M190.9,338.2 L190.9,340.2 M200.8,338.2 L200.8,340.2 M210.8,338.2 L210.8,340.2 M230.6,338.2 L230.6,340.2 M240.5,338.2 L240.5,340.2 M250.5,338.2 L250.5,340.2 M270.3,338.2 L270.3,340.2 M280.3,338.2 L280.3,340.2 M290.2,338.2 L290.2,340.2 M310.1,338.2 L310.1,340.2 M320,338.2 L320,340.2 M329.9,338.2 L329.9,340.2 M349.8,338.2 L349.8,340.2 M359.7,338.2 L359.7,340.2 M369.6,338.2 L369.6,340.2 M389.5,338.2 L389.5,340.2 M399.4,338.2 L399.4,340.2 M409.4,338.2 L409.4,340.2 M429.2,338.2 L429.2,340.2 M439.2,338.2 L439.2,340.2 M449.1,338.2 L449.1,340.2 "/></g>
<g id="yMajorTicks" stroke="rgb(0,0,0)" stroke-width="2"><path d="M56.8,338.2 L61.8,338.2 M56.8,311.1 L61.8,311.1 M56.8,284 L61.8,284 M56.8,257 L61.8,257 M56.8,229.9 L61.8,229.9 M56.8,202.8 L61.8,202.8 M56.8,175.7 L61.8,175.7 M56.8,148.7 L61.8,148.7 M56.8,121.6 L61.8,121.6 M56.8,94.49 L61.8,94.49 M56.8,67.42 L61.8,67.42 "/></g>
<g id="xMajorTicks" stroke="rgb(0,0,0)" stroke-width="2"><path d="M61.8,338.2 L61.8,343.2 M101.5,338.2 L101.5,343.2 M141.2,338.2 L141.2,343.2 M181,338.2 L181,343.2 M220.7,338.2 L220.7,343.2 M260.4,338.2 L260.4,343.2 M300.1,338.2 L300.1,343.2 M339.9,338.2 L339.9,343.2 M379.6,338.2 L379.6,343.2 M419.3,338.2 L419.3,343.2 M459,338.2 L459,343.2 "/></g>
<g id="plotLabels">
<text x="61.8" y="357.6" text-anchor="middle" font-size="12" font-family="Verdana">0</text>
<text x="101.5" y="357.6" text-anchor="middle" font-size="12" font-family="Verdana">1</text>
<text x="141.2" y="357.6" text-anchor="middle" font-size="12" font-family="Verdana">2</text>
<text x="181" y="357.6" text-anchor="middle" font-size="12" font-family="Verdana">3</text>
<text x="220.7" y="357.6" text-anchor="middle" font-size="12" font-family="Verdana">4</text>
<text x="260.4" y="357.6" text-anchor="middle" font-size="12" font-family="Verdana">5</text>
<text x="300.1" y="357.6" text-anchor="middle" font-size="12" font-family="Verdana">6</text>
<text x="339.9" y="357.6" text-anchor="middle" font-size="12" font-family="Verdana">7</text>
<text x="379.6" y="357.6" text-anchor="middle" font-size="12" font-family="Verdana">8</text>
<text x="419.3" y="357.6" text-anchor="middle" font-size="12" font-family="Verdana">9</text>
<text x="459" y="357.6" text-anchor="middle" font-size="12" font-family="Verdana">10</text>
<text x="50.8" y="340.6" text-anchor="end" font-size="12" font-family="Verdana">0</text>
<text x="50.8" y="313.5" text-anchor="end" font-size="12" font-family="Verdana">1</text>
<text x="50.8" y="286.4" text-anchor="end" font-size="12" font-family="Verdana">2</text>
<text x="50.8" y="259.4" text-anchor="end" font-size="12" font-family="Verdana">3</text>
<text x="50.8" y="232.3" text-anchor="end" font-size="12" font-family="Verdana">4</text>
<text x="50.8" y="205.2" text-anchor="end" font-size="12" font-family="Verdana">5</text>
<text x="50.8" y="178.1" text-anchor="end" font-size="12" font-family="Verdana">6</text>
<text x="50.8" y="151.1" text-anchor="end" font-size="12" font-family="Verdana">7</text>
<text x="50.8" y="124" text-anchor="end" font-size="12" font-family="Verdana">8</text>
<text x="50.8" y="96.89" text-anchor="end" font-size="12" font-family="Verdana">9</text>
<text x="50.8" y="69.82" text-anchor="end" font-size="12" font-family="Verdana">10</text></g>
<g id="yLabel">
<text x="30.2" y="200.1" text-anchor="middle" transform = "rotate(-90 30.2 200.1 )" font-size="14" font-family="Verdana">cyl_bessel_k(v, x)</text></g>
<g id="xLabel">
<text x="264.4" y="384" text-anchor="middle" font-size="14" font-family="Verdana">x</text></g>
<g id="plotLines" stroke-width="2"><g clip-path="url(#plot_window)" stroke="rgb(0,0,139)" stroke-width="1"><path d="M61.8,67.42 L63.79,253.9 L65.77,272.5 L67.76,283.2 L69.74,290.7 L71.73,296.5 L73.72,301 L75.7,304.8 L77.69,308 L79.67,310.8 L81.66,313.2 L83.65,315.3 L85.63,317.1 L87.62,318.8 L89.61,320.3 L91.59,321.7 L93.58,322.9 L95.56,324 L97.55,325 L99.54,325.9 L101.5,326.8 L103.5,327.6 L105.5,328.3 L107.5,329 L109.5,329.6 L111.5,330.1 L113.4,330.7 L115.4,331.2 L117.4,331.6 L119.4,332 L121.4,332.4 L123.4,332.8 L125.4,333.1 L127.3,333.4 L129.3,333.7 L131.3,334 L133.3,334.2 L135.3,334.5 L137.3,334.7 L139.3,334.9 L141.2,335.1 L143.2,335.3 L145.2,335.5 L147.2,335.6 L149.2,335.8 L151.2,335.9 L153.2,336.1 L155.1,336.2 L157.1,336.3 L159.1,336.4 L161.1,336.5 L163.1,336.6 L165.1,336.7 L167.1,336.8 L169,336.9 L171,336.9 L173,337 L175,337.1 L177,337.1 L179,337.2 L181,337.3 L183,337.3 L184.9,337.4 L186.9,337.4 L188.9,337.5 L190.9,337.5 L192.9,337.5 L194.9,337.6 L196.9,337.6 L198.8,337.6 L200.8,337.7 L202.8,337.7 L204.8,337.7 L206.8,337.8 L208.8,337.8 L210.8,337.8 L212.7,337.8 L214.7,337.8 L216.7,337.9 L218.7,337.9 L220.7,337.9 L222.7,337.9 L224.7,337.9 L226.6,337.9 L228.6,338 L230.6,338 L232.6,338 L234.6,338 L236.6,338 L238.6,338 L240.5,338 L242.5,338 L244.5,338 L246.5,338.1 L248.5,338.1 L250.5,338.1 L252.5,338.1 L254.4,338.1 L256.4,338.1 L258.4,338.1 L260.4,338.1 L262.4,338.1 L264.4,338.1 L266.4,338.1 L268.4,338.1 L270.3,338.1 L272.3,338.1 L274.3,338.1 L276.3,338.1 L278.3,338.1 L280.3,338.1 L282.3,338.1 L284.2,338.1 L286.2,338.2 L288.2,338.2 L290.2,338.2 L292.2,338.2 L294.2,338.2 L296.2,338.2 L298.1,338.2 L300.1,338.2 L302.1,338.2 L304.1,338.2 L306.1,338.2 L308.1,338.2 L310.1,338.2 L312,338.2 L314,338.2 L316,338.2 L318,338.2 L320,338.2 L322,338.2 L324,338.2 L325.9,338.2 L327.9,338.2 L329.9,338.2 L331.9,338.2 L333.9,338.2 L335.9,338.2 L337.9,338.2 L339.9,338.2 L341.8,338.2 L343.8,338.2 L345.8,338.2 L347.8,338.2 L349.8,338.2 L351.8,338.2 L353.8,338.2 L355.7,338.2 L357.7,338.2 L359.7,338.2 L361.7,338.2 L363.7,338.2 L365.7,338.2 L367.7,338.2 L369.6,338.2 L371.6,338.2 L373.6,338.2 L375.6,338.2 L377.6,338.2 L379.6,338.2 L381.6,338.2 L383.5,338.2 L385.5,338.2 L387.5,338.2 L389.5,338.2 L391.5,338.2 L393.5,338.2 L395.5,338.2 L397.4,338.2 L399.4,338.2 L401.4,338.2 L403.4,338.2 L405.4,338.2 L407.4,338.2 L409.4,338.2 L411.3,338.2 L413.3,338.2 L415.3,338.2 L417.3,338.2 L419.3,338.2 L421.3,338.2 L423.3,338.2 L425.3,338.2 L427.2,338.2 L429.2,338.2 L431.2,338.2 L433.2,338.2 L435.2,338.2 L437.2,338.2 L439.2,338.2 L441.1,338.2 L443.1,338.2 L445.1,338.2 L447.1,338.2 L449.1,338.2 L451.1,338.2 L453.1,338.2 L455,338.2 L457,338.2 " fill="none"/></g>
<g clip-path="url(#plot_window)" stroke="rgb(139,0,0)" stroke-width="1"><path d="M79.17,67.42 L81.07,120.3 L82.97,159.6 L84.87,189.5 L86.77,212.8 L88.66,231.3 L90.56,246.2 L92.46,258.4 L94.36,268.5 L96.26,277 L98.16,284.1 L100.1,290.1 L102,295.3 L103.9,299.8 L105.8,303.7 L107.7,307.1 L109.6,310.1 L111.5,312.7 L113.4,315.1 L115.3,317.1 L117.2,319 L119.1,320.6 L121,322.1 L122.9,323.4 L124.7,324.6 L126.6,325.7 L128.5,326.7 L130.4,327.6 L132.3,328.4 L134.2,329.1 L136.1,329.8 L138,330.4 L139.9,331 L141.8,331.5 L143.7,332 L145.6,332.4 L147.5,332.8 L149.4,333.2 L151.3,333.5 L153.2,333.8 L155.1,334.1 L157,334.4 L158.9,334.6 L160.8,334.9 L162.7,335.1 L164.6,335.3 L166.5,335.5 L168.4,335.7 L170.3,335.8 L172.2,336 L174.1,336.1 L176,336.2 L177.9,336.4 L179.8,336.5 L181.7,336.6 L183.6,336.7 L185.5,336.8 L187.4,336.9 L189.3,336.9 L191.2,337 L193.1,337.1 L195,337.1 L196.9,337.2 L198.8,337.3 L200.7,337.3 L202.6,337.4 L204.5,337.4 L206.4,337.5 L208.3,337.5 L210.2,337.5 L212.1,337.6 L214,337.6 L215.9,337.7 L217.8,337.7 L219.7,337.7 L221.6,337.7 L223.5,337.8 L225.4,337.8 L227.3,337.8 L229.2,337.8 L231.1,337.9 L233,337.9 L234.9,337.9 L236.8,337.9 L238.7,337.9 L240.6,337.9 L242.5,338 L244.4,338 L246.3,338 L248.2,338 L250.1,338 L252,338 L253.9,338 L255.8,338 L257.7,338 L259.6,338.1 L261.5,338.1 L263.4,338.1 L265.3,338.1 L267.2,338.1 L269.1,338.1 L271,338.1 L272.9,338.1 L274.8,338.1 L276.7,338.1 L278.6,338.1 L280.5,338.1 L282.4,338.1 L284.3,338.1 L286.2,338.1 L288.1,338.1 L290,338.1 L291.9,338.1 L293.8,338.1 L295.7,338.1 L297.6,338.2 L299.5,338.2 L301.4,338.2 L303.3,338.2 L305.2,338.2 L307.1,338.2 L309,338.2 L310.9,338.2 L312.8,338.2 L314.7,338.2 L316.6,338.2 L318.5,338.2 L320.4,338.2 L322.3,338.2 L324.2,338.2 L326.1,338.2 L328,338.2 L329.9,338.2 L331.8,338.2 L333.7,338.2 L335.6,338.2 L337.5,338.2 L339.4,338.2 L341.3,338.2 L343.2,338.2 L345.1,338.2 L347,338.2 L348.9,338.2 L350.8,338.2 L352.7,338.2 L354.6,338.2 L356.5,338.2 L358.4,338.2 L360.3,338.2 L362.2,338.2 L364.1,338.2 L366,338.2 L367.9,338.2 L369.8,338.2 L371.7,338.2 L373.6,338.2 L375.4,338.2 L377.3,338.2 L379.2,338.2 L381.1,338.2 L383,338.2 L384.9,338.2 L386.8,338.2 L388.7,338.2 L390.6,338.2 L392.5,338.2 L394.4,338.2 L396.3,338.2 L398.2,338.2 L400.1,338.2 L402,338.2 L403.9,338.2 L405.8,338.2 L407.7,338.2 L409.6,338.2 L411.5,338.2 L413.4,338.2 L415.3,338.2 L417.2,338.2 L419.1,338.2 L421,338.2 L422.9,338.2 L424.8,338.2 L426.7,338.2 L428.6,338.2 L430.5,338.2 L432.4,338.2 L434.3,338.2 L436.2,338.2 L438.1,338.2 L440,338.2 L441.9,338.2 L443.8,338.2 L445.7,338.2 L447.6,338.2 L449.5,338.2 L451.4,338.2 L453.3,338.2 L455.2,338.2 L457.1,338.2 " fill="none"/></g>
<g clip-path="url(#plot_window)" stroke="rgb(0,100,0)" stroke-width="1"><path d="M140.4,67.42 L142,95.54 L143.6,120.4 L145.2,142.3 L146.8,161.7 L148.4,179 L150,194.3 L151.5,208 L153.1,220.2 L154.7,231.1 L156.3,240.9 L157.9,249.7 L159.5,257.5 L161.1,264.6 L162.7,271 L164.3,276.8 L165.9,282 L167.5,286.7 L169.1,291 L170.7,294.9 L172.3,298.4 L173.8,301.6 L175.4,304.5 L177,307.2 L178.6,309.6 L180.2,311.8 L181.8,313.9 L183.4,315.7 L185,317.4 L186.6,319 L188.2,320.4 L189.8,321.7 L191.4,322.9 L193,324 L194.6,325 L196.2,326 L197.7,326.8 L199.3,327.6 L200.9,328.4 L202.5,329 L204.1,329.7 L205.7,330.3 L207.3,330.8 L208.9,331.3 L210.5,331.8 L212.1,332.2 L213.7,332.6 L215.3,333 L216.9,333.3 L218.5,333.6 L220,333.9 L221.6,334.2 L223.2,334.4 L224.8,334.7 L226.4,334.9 L228,335.1 L229.6,335.3 L231.2,335.5 L232.8,335.6 L234.4,335.8 L236,336 L237.6,336.1 L239.2,336.2 L240.8,336.3 L242.4,336.4 L243.9,336.6 L245.5,336.7 L247.1,336.7 L248.7,336.8 L250.3,336.9 L251.9,337 L253.5,337.1 L255.1,337.1 L256.7,337.2 L258.3,337.2 L259.9,337.3 L261.5,337.3 L263.1,337.4 L264.7,337.4 L266.2,337.5 L267.8,337.5 L269.4,337.6 L271,337.6 L272.6,337.6 L274.2,337.7 L275.8,337.7 L277.4,337.7 L279,337.7 L280.6,337.8 L282.2,337.8 L283.8,337.8 L285.4,337.8 L287,337.9 L288.6,337.9 L290.1,337.9 L291.7,337.9 L293.3,337.9 L294.9,337.9 L296.5,338 L298.1,338 L299.7,338 L301.3,338 L302.9,338 L304.5,338 L306.1,338 L307.7,338 L309.3,338 L310.9,338 L312.4,338.1 L314,338.1 L315.6,338.1 L317.2,338.1 L318.8,338.1 L320.4,338.1 L322,338.1 L323.6,338.1 L325.2,338.1 L326.8,338.1 L328.4,338.1 L330,338.1 L331.6,338.1 L333.2,338.1 L334.8,338.1 L336.3,338.1 L337.9,338.1 L339.5,338.1 L341.1,338.1 L342.7,338.1 L344.3,338.1 L345.9,338.2 L347.5,338.2 L349.1,338.2 L350.7,338.2 L352.3,338.2 L353.9,338.2 L355.5,338.2 L357.1,338.2 L358.6,338.2 L360.2,338.2 L361.8,338.2 L363.4,338.2 L365,338.2 L366.6,338.2 L368.2,338.2 L369.8,338.2 L371.4,338.2 L373,338.2 L374.6,338.2 L376.2,338.2 L377.8,338.2 L379.4,338.2 L381,338.2 L382.5,338.2 L384.1,338.2 L385.7,338.2 L387.3,338.2 L388.9,338.2 L390.5,338.2 L392.1,338.2 L393.7,338.2 L395.3,338.2 L396.9,338.2 L398.5,338.2 L400.1,338.2 L401.7,338.2 L403.3,338.2 L404.8,338.2 L406.4,338.2 L408,338.2 L409.6,338.2 L411.2,338.2 L412.8,338.2 L414.4,338.2 L416,338.2 L417.6,338.2 L419.2,338.2 L420.8,338.2 L422.4,338.2 L424,338.2 L425.6,338.2 L427.2,338.2 L428.7,338.2 L430.3,338.2 L431.9,338.2 L433.5,338.2 L435.1,338.2 L436.7,338.2 L438.3,338.2 L439.9,338.2 L441.5,338.2 L443.1,338.2 L444.7,338.2 L446.3,338.2 L447.9,338.2 L449.5,338.2 L451.1,338.2 L452.6,338.2 L454.2,338.2 L455.8,338.2 L457.4,338.2 " fill="none"/></g>
<g clip-path="url(#plot_window)" stroke="rgb(255,140,0)" stroke-width="1"><path d="M187,67.42 L188.4,89.24 L189.7,109.1 L191.1,127.3 L192.4,143.9 L193.8,159 L195.2,172.9 L196.5,185.6 L197.9,197.2 L199.2,207.9 L200.6,217.7 L202,226.6 L203.3,234.9 L204.7,242.5 L206,249.5 L207.4,255.9 L208.8,261.8 L210.1,267.3 L211.5,272.3 L212.9,276.9 L214.2,281.2 L215.6,285.2 L216.9,288.9 L218.3,292.3 L219.7,295.4 L221,298.3 L222.4,301 L223.7,303.5 L225.1,305.8 L226.5,307.9 L227.8,309.9 L229.2,311.8 L230.5,313.5 L231.9,315.1 L233.3,316.6 L234.6,318 L236,319.3 L237.3,320.5 L238.7,321.6 L240.1,322.6 L241.4,323.6 L242.8,324.5 L244.1,325.4 L245.5,326.1 L246.9,326.9 L248.2,327.6 L249.6,328.2 L250.9,328.8 L252.3,329.4 L253.7,329.9 L255,330.4 L256.4,330.9 L257.7,331.3 L259.1,331.7 L260.5,332.1 L261.8,332.4 L263.2,332.8 L264.5,333.1 L265.9,333.4 L267.3,333.7 L268.6,333.9 L270,334.2 L271.3,334.4 L272.7,334.6 L274.1,334.8 L275.4,335 L276.8,335.2 L278.1,335.3 L279.5,335.5 L280.9,335.6 L282.2,335.8 L283.6,335.9 L284.9,336 L286.3,336.2 L287.7,336.3 L289,336.4 L290.4,336.5 L291.7,336.6 L293.1,336.7 L294.5,336.7 L295.8,336.8 L297.2,336.9 L298.5,337 L299.9,337 L301.3,337.1 L302.6,337.1 L304,337.2 L305.3,337.2 L306.7,337.3 L308.1,337.3 L309.4,337.4 L310.8,337.4 L312.1,337.5 L313.5,337.5 L314.9,337.5 L316.2,337.6 L317.6,337.6 L318.9,337.6 L320.3,337.7 L321.7,337.7 L323,337.7 L324.4,337.7 L325.7,337.8 L327.1,337.8 L328.5,337.8 L329.8,337.8 L331.2,337.8 L332.5,337.9 L333.9,337.9 L335.3,337.9 L336.6,337.9 L338,337.9 L339.3,337.9 L340.7,338 L342.1,338 L343.4,338 L344.8,338 L346.1,338 L347.5,338 L348.9,338 L350.2,338 L351.6,338 L352.9,338 L354.3,338 L355.7,338.1 L357,338.1 L358.4,338.1 L359.7,338.1 L361.1,338.1 L362.5,338.1 L363.8,338.1 L365.2,338.1 L366.5,338.1 L367.9,338.1 L369.3,338.1 L370.6,338.1 L372,338.1 L373.3,338.1 L374.7,338.1 L376.1,338.1 L377.4,338.1 L378.8,338.1 L380.1,338.1 L381.5,338.1 L382.9,338.1 L384.2,338.1 L385.6,338.1 L386.9,338.2 L388.3,338.2 L389.7,338.2 L391,338.2 L392.4,338.2 L393.7,338.2 L395.1,338.2 L396.5,338.2 L397.8,338.2 L399.2,338.2 L400.5,338.2 L401.9,338.2 L403.3,338.2 L404.6,338.2 L406,338.2 L407.3,338.2 L408.7,338.2 L410.1,338.2 L411.4,338.2 L412.8,338.2 L414.1,338.2 L415.5,338.2 L416.9,338.2 L418.2,338.2 L419.6,338.2 L420.9,338.2 L422.3,338.2 L423.7,338.2 L425,338.2 L426.4,338.2 L427.7,338.2 L429.1,338.2 L430.5,338.2 L431.8,338.2 L433.2,338.2 L434.5,338.2 L435.9,338.2 L437.3,338.2 L438.6,338.2 L440,338.2 L441.3,338.2 L442.7,338.2 L444.1,338.2 L445.4,338.2 L446.8,338.2 L448.1,338.2 L449.5,338.2 L450.9,338.2 L452.2,338.2 L453.6,338.2 L454.9,338.2 L456.3,338.2 L457.7,338.2 L459,338.2 " fill="none"/></g>
<g clip-path="url(#plot_window)" stroke="rgb(127,255,0)" stroke-width="1"><path d="M260,67.42 L261,82.3 L262,96.32 L263,109.5 L264,121.9 L265,133.7 L265.9,144.7 L266.9,155.1 L267.9,164.9 L268.9,174.1 L269.9,182.9 L270.9,191.1 L271.9,198.9 L272.9,206.2 L273.9,213.1 L274.9,219.6 L275.9,225.8 L276.9,231.6 L277.9,237.2 L278.9,242.4 L279.9,247.3 L280.9,251.9 L281.9,256.3 L282.9,260.5 L283.9,264.4 L284.9,268.2 L285.9,271.7 L286.8,275 L287.8,278.2 L288.8,281.2 L289.8,284 L290.8,286.7 L291.8,289.2 L292.8,291.6 L293.8,293.9 L294.8,296.1 L295.8,298.2 L296.8,300.1 L297.8,301.9 L298.8,303.7 L299.8,305.4 L300.8,306.9 L301.8,308.4 L302.8,309.9 L303.8,311.2 L304.8,312.5 L305.8,313.7 L306.8,314.9 L307.7,316 L308.7,317 L309.7,318 L310.7,318.9 L311.7,319.8 L312.7,320.7 L313.7,321.5 L314.7,322.3 L315.7,323 L316.7,323.7 L317.7,324.4 L318.7,325 L319.7,325.6 L320.7,326.2 L321.7,326.7 L322.7,327.2 L323.7,327.7 L324.7,328.2 L325.7,328.7 L326.7,329.1 L327.7,329.5 L328.6,329.9 L329.6,330.3 L330.6,330.6 L331.6,330.9 L332.6,331.3 L333.6,331.6 L334.6,331.9 L335.6,332.1 L336.6,332.4 L337.6,332.7 L338.6,332.9 L339.6,333.1 L340.6,333.3 L341.6,333.6 L342.6,333.8 L343.6,333.9 L344.6,334.1 L345.6,334.3 L346.6,334.5 L347.6,334.6 L348.5,334.8 L349.5,334.9 L350.5,335.1 L351.5,335.2 L352.5,335.3 L353.5,335.4 L354.5,335.6 L355.5,335.7 L356.5,335.8 L357.5,335.9 L358.5,336 L359.5,336.1 L360.5,336.2 L361.5,336.2 L362.5,336.3 L363.5,336.4 L364.5,336.5 L365.5,336.5 L366.5,336.6 L367.5,336.7 L368.5,336.7 L369.4,336.8 L370.4,336.9 L371.4,336.9 L372.4,337 L373.4,337 L374.4,337.1 L375.4,337.1 L376.4,337.2 L377.4,337.2 L378.4,337.2 L379.4,337.3 L380.4,337.3 L381.4,337.3 L382.4,337.4 L383.4,337.4 L384.4,337.4 L385.4,337.5 L386.4,337.5 L387.4,337.5 L388.4,337.6 L389.4,337.6 L390.3,337.6 L391.3,337.6 L392.3,337.7 L393.3,337.7 L394.3,337.7 L395.3,337.7 L396.3,337.7 L397.3,337.7 L398.3,337.8 L399.3,337.8 L400.3,337.8 L401.3,337.8 L402.3,337.8 L403.3,337.8 L404.3,337.9 L405.3,337.9 L406.3,337.9 L407.3,337.9 L408.3,337.9 L409.3,337.9 L410.3,337.9 L411.2,337.9 L412.2,337.9 L413.2,338 L414.2,338 L415.2,338 L416.2,338 L417.2,338 L418.2,338 L419.2,338 L420.2,338 L421.2,338 L422.2,338 L423.2,338 L424.2,338 L425.2,338 L426.2,338.1 L427.2,338.1 L428.2,338.1 L429.2,338.1 L430.2,338.1 L431.2,338.1 L432.1,338.1 L433.1,338.1 L434.1,338.1 L435.1,338.1 L436.1,338.1 L437.1,338.1 L438.1,338.1 L439.1,338.1 L440.1,338.1 L441.1,338.1 L442.1,338.1 L443.1,338.1 L444.1,338.1 L445.1,338.1 L446.1,338.1 L447.1,338.1 L448.1,338.1 L449.1,338.1 L450.1,338.1 L451.1,338.1 L452,338.1 L453,338.1 L454,338.1 L455,338.1 L456,338.2 L457,338.2 L458,338.2 L459,338.2 " fill="none"/></g>
</g>
<g id="plotPoints" clip-path="url(#plot_window)"><g stroke="rgb(0,0,0)"></g>
<g stroke="rgb(0,0,0)"></g>
<g stroke="rgb(0,0,0)"></g>
<g stroke="rgb(0,0,0)"></g>
<g stroke="rgb(0,0,0)"></g>
</g>
<g id="limitPoints" stroke="rgb(119,136,153)" fill="rgb(250,235,215)"></g>
<g id="legendBackground" stroke="rgb(119,136,153)" fill="rgb(255,255,255)" stroke-width="1"><rect x="481" y="62" width="107" height="154"/><rect x="481" y="62" width="107" height="154"/></g>
<g id="legendPoints"><g stroke="rgb(0,0,139)" stroke-width="1"><line x1="495" y1="90" x2="509" y2="90"/></g>
<g stroke="rgb(139,0,0)" stroke-width="1"><line x1="495" y1="118" x2="509" y2="118"/></g>
<g stroke="rgb(0,100,0)" stroke-width="1"><line x1="495" y1="146" x2="509" y2="146"/></g>
<g stroke="rgb(255,140,0)" stroke-width="1"><line x1="495" y1="174" x2="509" y2="174"/></g>
<g stroke="rgb(127,255,0)" stroke-width="1"><line x1="495" y1="202" x2="509" y2="202"/></g>
</g>
<g id="legendText">
<text x="516" y="90" font-size="14" font-family="Verdana">v = 0</text>
<text x="516" y="118" font-size="14" font-family="Verdana">v = 2</text>
<text x="516" y="146" font-size="14" font-family="Verdana">v = 5</text>
<text x="516" y="174" font-size="14" font-family="Verdana">v = 7</text>
<text x="516" y="202" font-size="14" font-family="Verdana">v = 10</text></g>
<g id="title">
<text x="300" y="40" text-anchor="middle" font-size="20" font-family="Verdana">Bessel K</text></g>
</svg>
