<?xml version="1.0" encoding="UTF-8" standalone="no"?>
<svg width="600" height ="400" version="1.1" xmlns="http://www.w3.org/2000/svg"
 xmlns:xlink="http://www.w3.org/1999/xlink"
 xmlns:ev="http://www.w3.org/2001/xml-events">

<!-- SVG plot written using Boost.Plot program (Creator Jacob Voytko) --> 
<!-- Use, modification and distribution of Boost.Plot subject to the --> 
<!-- Boost Software License, Version 1.0.--> 
<!-- (See accompanying file LICENSE_1_0.txt --> 
<!-- or copy at http://www.boost.org/LICENSE_1_0.txt) --> 

<!-- SVG Plot Copyright John Maddock 2008 --> 
<meta name="copyright" content="John Maddock" />
<meta name="date" content="2008" />
<!-- Use, modification and distribution of this Scalable Vector Graphic file -->
<!-- are subject to the Boost Software License, Version 1.0. -->
<!-- (See accompanying file LICENSE_1_0.txt or copy at http://www.boost.org/LICENSE_1_0.txt) -->

<clipPath id="plot_window"><rect x="71.2" y="63" width="394.8" height="274.2"/></clipPath>
<g id="imageBackground" stroke="rgb(119,136,153)" fill="rgb(255,255,255)" stroke-width="2"><rect x="0" y="0" width="600" height="400"/></g>
<g id="plotBackground" stroke="rgb(119,136,153)" fill="rgb(255,255,255)" stroke-width="2"><rect x="70.2" y="62" width="396.8" height="276.2"/></g>
<g id="yMinorGrid" stroke="rgb(200,220,255)" stroke-width="0.5"></g>
<g id="yMajorGrid" stroke="rgb(200,220,255)" stroke-width="1"></g>
<g id="xMinorGrid" stroke="rgb(200,220,255)" stroke-width="0.5"></g>
<g id="xMajorGrid" stroke="rgb(200,220,255)" stroke-width="1"></g>
<g id="yAxis" stroke="rgb(0,0,0)" stroke-width="1"><line x1="264.7" y1="62" x2="264.7" y2="343.2"/><line x1="70.2" y1="62" x2="70.2" y2="338.2"/></g>
<g id="xAxis" stroke="rgb(0,0,0)" stroke-width="1"><line x1="65.2" y1="202.8" x2="467" y2="202.8"/><line x1="65.2" y1="338.2" x2="467" y2="338.2"/></g>
<g id="yMinorTicks" stroke="rgb(0,0,0)" stroke-width="1"><path d="M68.2,185.9 L70.2,185.9 M68.2,169 L70.2,169 M68.2,152 L70.2,152 M68.2,118.2 L70.2,118.2 M68.2,101.3 L70.2,101.3 M68.2,84.34 L70.2,84.34 M68.2,202.8 L70.2,202.8 M68.2,219.7 L70.2,219.7 M68.2,236.7 L70.2,236.7 M68.2,253.6 L70.2,253.6 M68.2,270.5 L70.2,270.5 M68.2,287.4 L70.2,287.4 M68.2,304.4 L70.2,304.4 M68.2,321.3 L70.2,321.3 M68.2,338.2 L70.2,338.2 "/></g>
<g id="xMinorTicks" stroke="rgb(0,0,0)" stroke-width="1"><path d="M289.2,338.2 L289.2,340.2 M313.6,338.2 L313.6,340.2 M338.1,338.2 L338.1,340.2 M387,338.2 L387,340.2 M411.5,338.2 L411.5,340.2 M436,338.2 L436,340.2 M240.2,338.2 L240.2,340.2 M215.7,338.2 L215.7,340.2 M191.3,338.2 L191.3,340.2 M142.3,338.2 L142.3,340.2 M117.9,338.2 L117.9,340.2 M93.4,338.2 L93.4,340.2 "/></g>
<g id="yMajorTicks" stroke="rgb(0,0,0)" stroke-width="2"><path d="M65.2,202.8 L70.2,202.8 M65.2,135.1 L70.2,135.1 M65.2,67.42 L70.2,67.42 M65.2,202.8 L70.2,202.8 M65.2,270.5 L70.2,270.5 M65.2,338.2 L70.2,338.2 "/></g>
<g id="xMajorTicks" stroke="rgb(0,0,0)" stroke-width="2"><path d="M264.7,338.2 L264.7,343.2 M362.6,338.2 L362.6,343.2 M460.5,338.2 L460.5,343.2 M264.7,338.2 L264.7,343.2 M166.8,338.2 L166.8,343.2 "/></g>
<g id="plotLabels">
<text x="264.7" y="357.6" text-anchor="middle" font-size="12" font-family="Verdana">0</text>
<text x="362.6" y="357.6" text-anchor="middle" font-size="12" font-family="Verdana">5</text>
<text x="460.5" y="357.6" text-anchor="middle" font-size="12" font-family="Verdana">10</text>
<text x="264.7" y="357.6" text-anchor="middle" font-size="12" font-family="Verdana">0</text>
<text x="166.8" y="357.6" text-anchor="middle" font-size="12" font-family="Verdana">-5</text>
<text x="59.2" y="205.2" text-anchor="end" font-size="12" font-family="Verdana">0</text>
<text x="59.2" y="137.5" text-anchor="end" font-size="12" font-family="Verdana">10</text>
<text x="59.2" y="69.82" text-anchor="end" font-size="12" font-family="Verdana">20</text>
<text x="59.2" y="205.2" text-anchor="end" font-size="12" font-family="Verdana">0</text>
<text x="59.2" y="272.9" text-anchor="end" font-size="12" font-family="Verdana">-10</text>
<text x="59.2" y="340.6" text-anchor="end" font-size="12" font-family="Verdana">-20</text></g>
<g id="yLabel">
<text x="30.2" y="200.1" text-anchor="middle" transform = "rotate(-90 30.2 200.1 )" font-size="14" font-family="Verdana">cyl_bessel_i(v, x)</text></g>
<g id="xLabel">
<text x="268.6" y="384" text-anchor="middle" font-size="14" font-family="Verdana">x</text></g>
<g id="plotLines" stroke-width="2"><g clip-path="url(#plot_window)" stroke="rgb(0,0,139)" stroke-width="1"><path d="M173.6,67.42 L174.5,72.87 L175.4,78.1 L176.3,83.11 L177.3,87.91 L178.2,92.51 L179.1,96.92 L180,101.2 L180.9,105.2 L181.8,109.1 L182.7,112.8 L183.6,116.4 L184.5,119.8 L185.5,123.1 L186.4,126.2 L187.3,129.2 L188.2,132.1 L189.1,134.9 L190,137.5 L190.9,140.1 L191.8,142.5 L192.7,144.9 L193.6,147.1 L194.6,149.3 L195.5,151.3 L196.4,153.3 L197.3,155.2 L198.2,157 L199.1,158.8 L200,160.4 L200.9,162 L201.8,163.6 L202.8,165 L203.7,166.5 L204.6,167.8 L205.5,169.1 L206.4,170.4 L207.3,171.6 L208.2,172.7 L209.1,173.8 L210,174.9 L211,175.9 L211.9,176.8 L212.8,177.8 L213.7,178.7 L214.6,179.5 L215.5,180.3 L216.4,181.1 L217.3,181.9 L218.2,182.6 L219.2,183.3 L220.1,183.9 L221,184.6 L221.9,185.2 L222.8,185.8 L223.7,186.3 L224.6,186.9 L225.5,187.4 L226.4,187.9 L227.3,188.3 L228.3,188.8 L229.2,189.2 L230.1,189.6 L231,190 L231.9,190.4 L232.8,190.7 L233.7,191.1 L234.6,191.4 L235.5,191.7 L236.5,192 L237.4,192.3 L238.3,192.6 L239.2,192.8 L240.1,193.1 L241,193.3 L241.9,193.5 L242.8,193.8 L243.7,194 L244.7,194.1 L245.6,194.3 L246.5,194.5 L247.4,194.6 L248.3,194.8 L249.2,194.9 L250.1,195.1 L251,195.2 L251.9,195.3 L252.9,195.4 L253.8,195.5 L254.7,195.6 L255.6,195.7 L256.5,195.7 L257.4,195.8 L258.3,195.9 L259.2,195.9 L260.1,195.9 L261,196 L262,196 L262.9,196 L263.8,196 L264.7,196 L265.6,196 L266.5,196 L267.4,196 L268.3,196 L269.2,195.9 L270.2,195.9 L271.1,195.9 L272,195.8 L272.9,195.7 L273.8,195.7 L274.7,195.6 L275.6,195.5 L276.5,195.4 L277.4,195.3 L278.4,195.2 L279.3,195.1 L280.2,194.9 L281.1,194.8 L282,194.6 L282.9,194.5 L283.8,194.3 L284.7,194.1 L285.6,194 L286.5,193.8 L287.5,193.5 L288.4,193.3 L289.3,193.1 L290.2,192.8 L291.1,192.6 L292,192.3 L292.9,192 L293.8,191.7 L294.7,191.4 L295.7,191.1 L296.6,190.7 L297.5,190.4 L298.4,190 L299.3,189.6 L300.2,189.2 L301.1,188.8 L302,188.3 L302.9,187.9 L303.9,187.4 L304.8,186.9 L305.7,186.3 L306.6,185.8 L307.5,185.2 L308.4,184.6 L309.3,183.9 L310.2,183.3 L311.1,182.6 L312.1,181.9 L313,181.1 L313.9,180.3 L314.8,179.5 L315.7,178.7 L316.6,177.8 L317.5,176.8 L318.4,175.9 L319.3,174.9 L320.2,173.8 L321.2,172.7 L322.1,171.6 L323,170.4 L323.9,169.1 L324.8,167.8 L325.7,166.5 L326.6,165 L327.5,163.6 L328.4,162 L329.4,160.4 L330.3,158.8 L331.2,157 L332.1,155.2 L333,153.3 L333.9,151.3 L334.8,149.3 L335.7,147.1 L336.6,144.9 L337.6,142.5 L338.5,140.1 L339.4,137.5 L340.3,134.9 L341.2,132.1 L342.1,129.2 L343,126.2 L343.9,123.1 L344.8,119.8 L345.7,116.4 L346.7,112.8 L347.6,109.1 L348.5,105.2 L349.4,101.2 L350.3,96.92 L351.2,92.51 L352.1,87.91 L353,83.11 L353.9,78.1 L354.9,72.87 L355.8,67.42 " fill="none"/></g>
<g clip-path="url(#plot_window)" stroke="rgb(139,0,0)" stroke-width="1"><path d="M164.2,67.42 L165.2,74.11 L166.2,80.49 L167.2,86.55 L168.2,92.32 L169.2,97.81 L170.2,103 L171.2,108 L172.2,112.7 L173.2,117.2 L174.2,121.5 L175.2,125.6 L176.2,129.4 L177.2,133.1 L178.2,136.6 L179.3,139.9 L180.3,143.1 L181.3,146.1 L182.3,149 L183.3,151.7 L184.3,154.3 L185.3,156.8 L186.3,159.1 L187.3,161.3 L188.3,163.5 L189.3,165.5 L190.3,167.4 L191.3,169.2 L192.3,171 L193.3,172.6 L194.3,174.2 L195.3,175.7 L196.3,177.1 L197.3,178.4 L198.3,179.7 L199.4,180.9 L200.4,182.1 L201.4,183.2 L202.4,184.3 L203.4,185.3 L204.4,186.2 L205.4,187.1 L206.4,188 L207.4,188.8 L208.4,189.6 L209.4,190.3 L210.4,191 L211.4,191.7 L212.4,192.3 L213.4,192.9 L214.4,193.5 L215.4,194 L216.4,194.5 L217.4,195 L218.5,195.5 L219.5,195.9 L220.5,196.3 L221.5,196.7 L222.5,197.1 L223.5,197.5 L224.5,197.8 L225.5,198.1 L226.5,198.4 L227.5,198.7 L228.5,199 L229.5,199.3 L230.5,199.5 L231.5,199.7 L232.5,200 L233.5,200.2 L234.5,200.4 L235.5,200.6 L236.5,200.7 L237.6,200.9 L238.6,201.1 L239.6,201.2 L240.6,201.4 L241.6,201.5 L242.6,201.6 L243.6,201.7 L244.6,201.8 L245.6,201.9 L246.6,202 L247.6,202.1 L248.6,202.2 L249.6,202.3 L250.6,202.4 L251.6,202.4 L252.6,202.5 L253.6,202.5 L254.6,202.6 L255.6,202.6 L256.6,202.7 L257.7,202.7 L258.7,202.7 L259.7,202.8 L260.7,202.8 L261.7,202.8 L262.7,202.8 L263.7,202.8 L264.7,202.8 L265.7,202.8 L266.7,202.8 L267.7,202.8 L268.7,202.8 L269.7,202.8 L270.7,202.7 L271.7,202.7 L272.7,202.7 L273.7,202.6 L274.7,202.6 L275.7,202.5 L276.8,202.5 L277.8,202.4 L278.8,202.4 L279.8,202.3 L280.8,202.2 L281.8,202.1 L282.8,202 L283.8,201.9 L284.8,201.8 L285.8,201.7 L286.8,201.6 L287.8,201.5 L288.8,201.4 L289.8,201.2 L290.8,201.1 L291.8,200.9 L292.8,200.7 L293.8,200.6 L294.8,200.4 L295.9,200.2 L296.9,200 L297.9,199.7 L298.9,199.5 L299.9,199.3 L300.9,199 L301.9,198.7 L302.9,198.4 L303.9,198.1 L304.9,197.8 L305.9,197.5 L306.9,197.1 L307.9,196.7 L308.9,196.3 L309.9,195.9 L310.9,195.5 L311.9,195 L312.9,194.5 L313.9,194 L314.9,193.5 L316,192.9 L317,192.3 L318,191.7 L319,191 L320,190.3 L321,189.6 L322,188.8 L323,188 L324,187.1 L325,186.2 L326,185.3 L327,184.3 L328,183.2 L329,182.1 L330,180.9 L331,179.7 L332,178.4 L333,177.1 L334,175.7 L335.1,174.2 L336.1,172.6 L337.1,171 L338.1,169.2 L339.1,167.4 L340.1,165.5 L341.1,163.5 L342.1,161.3 L343.1,159.1 L344.1,156.8 L345.1,154.3 L346.1,151.7 L347.1,149 L348.1,146.1 L349.1,143.1 L350.1,139.9 L351.1,136.6 L352.1,133.1 L353.1,129.4 L354.2,125.6 L355.2,121.5 L356.2,117.2 L357.2,112.7 L358.2,108 L359.2,103 L360.2,97.81 L361.2,92.32 L362.2,86.55 L363.2,80.49 L364.2,74.11 " fill="none"/></g>
<g clip-path="url(#plot_window)" stroke="rgb(0,100,0)" stroke-width="1"><path d="M132.5,338.2 L133.8,327.7 L135.2,317.9 L136.5,308.9 L137.8,300.5 L139.1,292.8 L140.5,285.7 L141.8,279.1 L143.1,273 L144.4,267.4 L145.7,262.2 L147.1,257.3 L148.4,252.9 L149.7,248.8 L151,245 L152.3,241.6 L153.7,238.3 L155,235.4 L156.3,232.6 L157.6,230.1 L159,227.8 L160.3,225.7 L161.6,223.7 L162.9,221.9 L164.2,220.3 L165.6,218.7 L166.9,217.3 L168.2,216.1 L169.5,214.9 L170.9,213.8 L172.2,212.8 L173.5,211.9 L174.8,211.1 L176.1,210.3 L177.5,209.6 L178.8,209 L180.1,208.4 L181.4,207.8 L182.7,207.4 L184.1,206.9 L185.4,206.5 L186.7,206.1 L188,205.8 L189.4,205.5 L190.7,205.2 L192,205 L193.3,204.7 L194.6,204.5 L196,204.4 L197.3,204.2 L198.6,204 L199.9,203.9 L201.3,203.8 L202.6,203.7 L203.9,203.6 L205.2,203.5 L206.5,203.4 L207.9,203.3 L209.2,203.3 L210.5,203.2 L211.8,203.1 L213.1,203.1 L214.5,203.1 L215.8,203 L217.1,203 L218.4,203 L219.8,202.9 L221.1,202.9 L222.4,202.9 L223.7,202.9 L225,202.9 L226.4,202.9 L227.7,202.9 L229,202.8 L230.3,202.8 L231.6,202.8 L233,202.8 L234.3,202.8 L235.6,202.8 L236.9,202.8 L238.3,202.8 L239.6,202.8 L240.9,202.8 L242.2,202.8 L243.5,202.8 L244.9,202.8 L246.2,202.8 L247.5,202.8 L248.8,202.8 L250.2,202.8 L251.5,202.8 L252.8,202.8 L254.1,202.8 L255.4,202.8 L256.8,202.8 L258.1,202.8 L259.4,202.8 L260.7,202.8 L262,202.8 L263.4,202.8 L264.7,202.8 L266,202.8 L267.3,202.8 L268.7,202.8 L270,202.8 L271.3,202.8 L272.6,202.8 L273.9,202.8 L275.3,202.8 L276.6,202.8 L277.9,202.8 L279.2,202.8 L280.6,202.8 L281.9,202.8 L283.2,202.8 L284.5,202.8 L285.8,202.8 L287.2,202.8 L288.5,202.8 L289.8,202.8 L291.1,202.8 L292.4,202.8 L293.8,202.8 L295.1,202.8 L296.4,202.8 L297.7,202.8 L299.1,202.8 L300.4,202.8 L301.7,202.8 L303,202.7 L304.3,202.7 L305.7,202.7 L307,202.7 L308.3,202.7 L309.6,202.7 L310.9,202.6 L312.3,202.6 L313.6,202.6 L314.9,202.6 L316.2,202.5 L317.6,202.5 L318.9,202.4 L320.2,202.4 L321.5,202.3 L322.8,202.2 L324.2,202.1 L325.5,202.1 L326.8,202 L328.1,201.8 L329.5,201.7 L330.8,201.6 L332.1,201.4 L333.4,201.3 L334.7,201.1 L336.1,200.9 L337.4,200.6 L338.7,200.4 L340,200.1 L341.3,199.8 L342.7,199.5 L344,199.1 L345.3,198.7 L346.6,198.3 L348,197.8 L349.3,197.2 L350.6,196.7 L351.9,196 L353.2,195.3 L354.6,194.6 L355.9,193.7 L357.2,192.8 L358.5,191.8 L359.9,190.7 L361.2,189.6 L362.5,188.3 L363.8,186.9 L365.1,185.4 L366.5,183.7 L367.8,181.9 L369.1,179.9 L370.4,177.8 L371.7,175.5 L373.1,173 L374.4,170.2 L375.7,167.3 L377,164.1 L378.4,160.6 L379.7,156.8 L381,152.7 L382.3,148.3 L383.6,143.5 L385,138.3 L386.3,132.6 L387.6,126.5 L388.9,119.9 L390.2,112.8 L391.6,105.1 L392.9,96.73 L394.2,87.7 L395.5,77.95 " fill="none"/></g>
<g clip-path="url(#plot_window)" stroke="rgb(255,140,0)" stroke-width="1"><path d="M108.2,338.2 L109.7,324.9 L111.3,312.8 L112.9,301.8 L114.4,292 L116,283 L117.6,274.9 L119.1,267.6 L120.7,261 L122.2,255.1 L123.8,249.7 L125.4,244.8 L126.9,240.5 L128.5,236.5 L130.1,233 L131.6,229.8 L133.2,226.9 L134.8,224.4 L136.3,222 L137.9,220 L139.5,218.1 L141,216.4 L142.6,214.9 L144.2,213.6 L145.7,212.4 L147.3,211.3 L148.9,210.3 L150.4,209.5 L152,208.7 L153.6,208 L155.1,207.4 L156.7,206.8 L158.3,206.4 L159.8,205.9 L161.4,205.6 L162.9,205.2 L164.5,204.9 L166.1,204.7 L167.6,204.4 L169.2,204.2 L170.8,204 L172.3,203.9 L173.9,203.7 L175.5,203.6 L177,203.5 L178.6,203.4 L180.2,203.3 L181.7,203.3 L183.3,203.2 L184.9,203.1 L186.4,203.1 L188,203 L189.6,203 L191.1,203 L192.7,203 L194.3,202.9 L195.8,202.9 L197.4,202.9 L198.9,202.9 L200.5,202.9 L202.1,202.9 L203.6,202.8 L205.2,202.8 L206.8,202.8 L208.3,202.8 L209.9,202.8 L211.5,202.8 L213,202.8 L214.6,202.8 L216.2,202.8 L217.7,202.8 L219.3,202.8 L220.9,202.8 L222.4,202.8 L224,202.8 L225.6,202.8 L227.1,202.8 L228.7,202.8 L230.3,202.8 L231.8,202.8 L233.4,202.8 L234.9,202.8 L236.5,202.8 L238.1,202.8 L239.6,202.8 L241.2,202.8 L242.8,202.8 L244.3,202.8 L245.9,202.8 L247.5,202.8 L249,202.8 L250.6,202.8 L252.2,202.8 L253.7,202.8 L255.3,202.8 L256.9,202.8 L258.4,202.8 L260,202.8 L261.6,202.8 L263.1,202.8 L264.7,202.8 L266.3,202.8 L267.8,202.8 L269.4,202.8 L271,202.8 L272.5,202.8 L274.1,202.8 L275.6,202.8 L277.2,202.8 L278.8,202.8 L280.3,202.8 L281.9,202.8 L283.5,202.8 L285,202.8 L286.6,202.8 L288.2,202.8 L289.7,202.8 L291.3,202.8 L292.9,202.8 L294.4,202.8 L296,202.8 L297.6,202.8 L299.1,202.8 L300.7,202.8 L302.3,202.8 L303.8,202.8 L305.4,202.8 L307,202.8 L308.5,202.8 L310.1,202.8 L311.6,202.8 L313.2,202.8 L314.8,202.8 L316.3,202.8 L317.9,202.8 L319.5,202.8 L321,202.8 L322.6,202.8 L324.2,202.8 L325.7,202.8 L327.3,202.8 L328.9,202.7 L330.4,202.7 L332,202.7 L333.6,202.7 L335.1,202.7 L336.7,202.7 L338.3,202.6 L339.8,202.6 L341.4,202.6 L343,202.5 L344.5,202.5 L346.1,202.4 L347.7,202.4 L349.2,202.3 L350.8,202.2 L352.3,202.1 L353.9,202 L355.5,201.9 L357,201.7 L358.6,201.6 L360.2,201.4 L361.7,201.2 L363.3,201 L364.9,200.7 L366.4,200.4 L368,200.1 L369.6,199.7 L371.1,199.2 L372.7,198.8 L374.3,198.2 L375.8,197.6 L377.4,196.9 L379,196.2 L380.5,195.3 L382.1,194.3 L383.7,193.3 L385.2,192.1 L386.8,190.7 L388.3,189.2 L389.9,187.5 L391.5,185.7 L393,183.6 L394.6,181.3 L396.2,178.7 L397.7,175.8 L399.3,172.6 L400.9,169.1 L402.4,165.1 L404,160.8 L405.6,155.9 L407.1,150.5 L408.7,144.6 L410.3,138 L411.8,130.7 L413.4,122.6 L415,113.7 L416.5,103.8 L418.1,92.84 L419.7,80.76 L421.2,67.42 " fill="none"/></g>
<g clip-path="url(#plot_window)" stroke="rgb(127,255,0)" stroke-width="1"><path d="M70.2,67.42 L72.14,84.97 L74.09,100.3 L76.03,113.8 L77.98,125.5 L79.92,135.7 L81.87,144.6 L83.81,152.4 L85.76,159.2 L87.7,165.1 L89.65,170.2 L91.59,174.7 L93.54,178.6 L95.48,181.9 L97.43,184.8 L99.37,187.3 L101.3,189.5 L103.3,191.4 L105.2,193 L107.2,194.5 L109.1,195.7 L111,196.7 L113,197.6 L114.9,198.4 L116.9,199 L118.8,199.6 L120.8,200.1 L122.7,200.5 L124.7,200.9 L126.6,201.2 L128.5,201.4 L130.5,201.6 L132.4,201.8 L134.4,202 L136.3,202.1 L138.3,202.2 L140.2,202.3 L142.2,202.4 L144.1,202.5 L146.1,202.5 L148,202.6 L149.9,202.6 L151.9,202.7 L153.8,202.7 L155.8,202.7 L157.7,202.7 L159.7,202.7 L161.6,202.8 L163.6,202.8 L165.5,202.8 L167.4,202.8 L169.4,202.8 L171.3,202.8 L173.3,202.8 L175.2,202.8 L177.2,202.8 L179.1,202.8 L181.1,202.8 L183,202.8 L184.9,202.8 L186.9,202.8 L188.8,202.8 L190.8,202.8 L192.7,202.8 L194.7,202.8 L196.6,202.8 L198.6,202.8 L200.5,202.8 L202.5,202.8 L204.4,202.8 L206.3,202.8 L208.3,202.8 L210.2,202.8 L212.2,202.8 L214.1,202.8 L216.1,202.8 L218,202.8 L220,202.8 L221.9,202.8 L223.8,202.8 L225.8,202.8 L227.7,202.8 L229.7,202.8 L231.6,202.8 L233.6,202.8 L235.5,202.8 L237.5,202.8 L239.4,202.8 L241.4,202.8 L243.3,202.8 L245.2,202.8 L247.2,202.8 L249.1,202.8 L251.1,202.8 L253,202.8 L255,202.8 L256.9,202.8 L258.9,202.8 L260.8,202.8 L262.7,202.8 L264.7,202.8 L266.6,202.8 L268.6,202.8 L270.5,202.8 L272.5,202.8 L274.4,202.8 L276.4,202.8 L278.3,202.8 L280.2,202.8 L282.2,202.8 L284.1,202.8 L286.1,202.8 L288,202.8 L290,202.8 L291.9,202.8 L293.9,202.8 L295.8,202.8 L297.8,202.8 L299.7,202.8 L301.6,202.8 L303.6,202.8 L305.5,202.8 L307.5,202.8 L309.4,202.8 L311.4,202.8 L313.3,202.8 L315.3,202.8 L317.2,202.8 L319.1,202.8 L321.1,202.8 L323,202.8 L325,202.8 L326.9,202.8 L328.9,202.8 L330.8,202.8 L332.8,202.8 L334.7,202.8 L336.7,202.8 L338.6,202.8 L340.5,202.8 L342.5,202.8 L344.4,202.8 L346.4,202.8 L348.3,202.8 L350.3,202.8 L352.2,202.8 L354.2,202.8 L356.1,202.8 L358,202.8 L360,202.8 L361.9,202.8 L363.9,202.8 L365.8,202.8 L367.8,202.8 L369.7,202.7 L371.7,202.7 L373.6,202.7 L375.5,202.7 L377.5,202.7 L379.4,202.6 L381.4,202.6 L383.3,202.5 L385.3,202.5 L387.2,202.4 L389.2,202.3 L391.1,202.2 L393.1,202.1 L395,202 L396.9,201.8 L398.9,201.6 L400.8,201.4 L402.8,201.2 L404.7,200.9 L406.7,200.5 L408.6,200.1 L410.6,199.6 L412.5,199 L414.4,198.4 L416.4,197.6 L418.3,196.7 L420.3,195.7 L422.2,194.5 L424.2,193 L426.1,191.4 L428.1,189.5 L430,187.3 L432,184.8 L433.9,181.9 L435.8,178.6 L437.8,174.7 L439.7,170.2 L441.7,165.1 L443.6,159.2 L445.6,152.4 L447.5,144.6 L449.5,135.7 L451.4,125.5 L453.3,113.8 L455.3,100.3 L457.2,84.97 L459.2,67.42 " fill="none"/></g>
</g>
<g id="plotPoints" clip-path="url(#plot_window)"><g stroke="rgb(0,0,0)"></g>
<g stroke="rgb(0,0,0)"></g>
<g stroke="rgb(0,0,0)"></g>
<g stroke="rgb(0,0,0)"></g>
<g stroke="rgb(0,0,0)"></g>
</g>
<g id="limitPoints" stroke="rgb(119,136,153)" fill="rgb(250,235,215)"></g>
<g id="legendBackground" stroke="rgb(119,136,153)" fill="rgb(255,255,255)" stroke-width="1"><rect x="481" y="62" width="107" height="154"/><rect x="481" y="62" width="107" height="154"/></g>
<g id="legendPoints"><g stroke="rgb(0,0,139)" stroke-width="1"><line x1="495" y1="90" x2="509" y2="90"/></g>
<g stroke="rgb(139,0,0)" stroke-width="1"><line x1="495" y1="118" x2="509" y2="118"/></g>
<g stroke="rgb(0,100,0)" stroke-width="1"><line x1="495" y1="146" x2="509" y2="146"/></g>
<g stroke="rgb(255,140,0)" stroke-width="1"><line x1="495" y1="174" x2="509" y2="174"/></g>
<g stroke="rgb(127,255,0)" stroke-width="1"><line x1="495" y1="202" x2="509" y2="202"/></g>
</g>
<g id="legendText">
<text x="516" y="90" font-size="14" font-family="Verdana">v = 0</text>
<text x="516" y="118" font-size="14" font-family="Verdana">v = 2</text>
<text x="516" y="146" font-size="14" font-family="Verdana">v = 5</text>
<text x="516" y="174" font-size="14" font-family="Verdana">v = 7</text>
<text x="516" y="202" font-size="14" font-family="Verdana">v = 10</text></g>
<g id="title">
<text x="300" y="40" text-anchor="middle" font-size="20" font-family="Verdana">Bessel I</text></g>
</svg>
