<?xml version="1.0" encoding="UTF-8" standalone="no"?>
<svg width="600" height ="400" version="1.1" xmlns="http://www.w3.org/2000/svg"
 xmlns:xlink="http://www.w3.org/1999/xlink"
 xmlns:ev="http://www.w3.org/2001/xml-events">

<!-- SVG plot written using Boost.Plot program (Creator Jacob Voytko) --> 
<!-- Use, modification and distribution of Boost.Plot subject to the --> 
<!-- Boost Software License, Version 1.0.--> 
<!-- (See accompanying file LICENSE_1_0.txt --> 
<!-- or copy at http://www.boost.org/LICENSE_1_0.txt) --> 

<!-- SVG Plot Copyright John Maddock 2008 --> 
<meta name="copyright" content="John Maddock" />
<meta name="date" content="2008" />
<!-- Use, modification and distribution of this Scalable Vector Graphic file -->
<!-- are subject to the Boost Software License, Version 1.0. -->
<!-- (See accompanying file LICENSE_1_0.txt or copy at http://www.boost.org/LICENSE_1_0.txt) -->

<clipPath id="plot_window"><rect x="62.8" y="63" width="411" height="274.2"/></clipPath>
<g id="imageBackground" stroke="rgb(119,136,153)" fill="rgb(255,255,255)" stroke-width="2"><rect x="0" y="0" width="600" height="400"/></g>
<g id="plotBackground" stroke="rgb(119,136,153)" fill="rgb(255,255,255)" stroke-width="2"><rect x="61.8" y="62" width="413" height="276.2"/></g>
<g id="yMinorGrid" stroke="rgb(200,220,255)" stroke-width="0.5"></g>
<g id="yMajorGrid" stroke="rgb(200,220,255)" stroke-width="1"></g>
<g id="xMinorGrid" stroke="rgb(200,220,255)" stroke-width="0.5"></g>
<g id="xMajorGrid" stroke="rgb(200,220,255)" stroke-width="1"></g>
<g id="yAxis" stroke="rgb(0,0,0)" stroke-width="1"><line x1="61.8" y1="62" x2="61.8" y2="338.2"/></g>
<g id="xAxis" stroke="rgb(0,0,0)" stroke-width="1"><line x1="56.8" y1="92.96" x2="474.8" y2="92.96"/><line x1="56.8" y1="338.2" x2="474.8" y2="338.2"/></g>
<g id="yMinorTicks" stroke="rgb(0,0,0)" stroke-width="1"><path d="M59.8,80.7 L61.8,80.7 M59.8,68.44 L61.8,68.44 M59.8,92.96 L61.8,92.96 M59.8,105.2 L61.8,105.2 M59.8,117.5 L61.8,117.5 M59.8,129.7 L61.8,129.7 M59.8,142 L61.8,142 M59.8,154.3 L61.8,154.3 M59.8,166.5 L61.8,166.5 M59.8,178.8 L61.8,178.8 M59.8,191.1 L61.8,191.1 M59.8,203.3 L61.8,203.3 M59.8,215.6 L61.8,215.6 M59.8,227.8 L61.8,227.8 M59.8,240.1 L61.8,240.1 M59.8,252.4 L61.8,252.4 M59.8,264.6 L61.8,264.6 M59.8,276.9 L61.8,276.9 M59.8,289.2 L61.8,289.2 M59.8,301.4 L61.8,301.4 M59.8,313.7 L61.8,313.7 M59.8,325.9 L61.8,325.9 M59.8,338.2 L61.8,338.2 "/></g>
<g id="xMinorTicks" stroke="rgb(0,0,0)" stroke-width="1"><path d="M87.1,338.2 L87.1,340.2 M112.4,338.2 L112.4,340.2 M137.7,338.2 L137.7,340.2 M188.3,338.2 L188.3,340.2 M213.6,338.2 L213.6,340.2 M238.9,338.2 L238.9,340.2 M289.6,338.2 L289.6,340.2 M314.9,338.2 L314.9,340.2 M340.2,338.2 L340.2,340.2 M390.8,338.2 L390.8,340.2 M416.1,338.2 L416.1,340.2 M441.4,338.2 L441.4,340.2 "/></g>
<g id="yMajorTicks" stroke="rgb(0,0,0)" stroke-width="2"><path d="M56.8,92.96 L61.8,92.96 M56.8,92.96 L61.8,92.96 M56.8,142 L61.8,142 M56.8,191.1 L61.8,191.1 M56.8,240.1 L61.8,240.1 M56.8,289.2 L61.8,289.2 M56.8,338.2 L61.8,338.2 "/></g>
<g id="xMajorTicks" stroke="rgb(0,0,0)" stroke-width="2"><path d="M61.79,338.2 L61.79,343.2 M163,338.2 L163,343.2 M264.2,338.2 L264.2,343.2 M365.5,338.2 L365.5,343.2 M466.7,338.2 L466.7,343.2 "/></g>
<g id="plotLabels">
<text x="61.79" y="357.6" text-anchor="middle" font-size="12" font-family="Verdana">0</text>
<text x="163" y="357.6" text-anchor="middle" font-size="12" font-family="Verdana">5</text>
<text x="264.2" y="357.6" text-anchor="middle" font-size="12" font-family="Verdana">10</text>
<text x="365.5" y="357.6" text-anchor="middle" font-size="12" font-family="Verdana">15</text>
<text x="466.7" y="357.6" text-anchor="middle" font-size="12" font-family="Verdana">20</text>
<text x="50.8" y="95.36" text-anchor="end" font-size="12" font-family="Verdana">0</text>
<text x="50.8" y="95.36" text-anchor="end" font-size="12" font-family="Verdana">0</text>
<text x="50.8" y="144.4" text-anchor="end" font-size="12" font-family="Verdana">-1</text>
<text x="50.8" y="193.5" text-anchor="end" font-size="12" font-family="Verdana">-2</text>
<text x="50.8" y="242.5" text-anchor="end" font-size="12" font-family="Verdana">-3</text>
<text x="50.8" y="291.6" text-anchor="end" font-size="12" font-family="Verdana">-4</text>
<text x="50.8" y="340.6" text-anchor="end" font-size="12" font-family="Verdana">-5</text></g>
<g id="yLabel">
<text x="30.2" y="200.1" text-anchor="middle" transform = "rotate(-90 30.2 200.1 )" font-size="14" font-family="Verdana">cyl_neumann(v, x)</text></g>
<g id="xLabel">
<text x="268.3" y="384" text-anchor="middle" font-size="14" font-family="Verdana">x</text></g>
<g id="plotLines" stroke-width="2"><g clip-path="url(#plot_window)" stroke="rgb(0,0,139)" stroke-width="1"><path d="M61.8,338.2 L63.82,168.1 L65.85,145.9 L67.87,132.5 L69.9,122.6 L71.92,114.7 L73.95,108.1 L75.97,102.3 L78,97.2 L80.02,92.67 L82.05,88.61 L84.07,84.99 L86.09,81.76 L88.12,78.89 L90.14,76.38 L92.17,74.19 L94.19,72.33 L96.22,70.78 L98.24,69.54 L100.3,68.59 L102.3,67.92 L104.3,67.54 L106.3,67.42 L108.4,67.55 L110.4,67.93 L112.4,68.53 L114.4,69.35 L116.5,70.38 L118.5,71.58 L120.5,72.96 L122.5,74.48 L124.6,76.14 L126.6,77.91 L128.6,79.77 L130.6,81.7 L132.7,83.7 L134.7,85.72 L136.7,87.76 L138.7,89.8 L140.8,91.82 L142.8,93.8 L144.8,95.72 L146.8,97.56 L148.9,99.32 L150.9,101 L152.9,102.5 L154.9,103.9 L157,105.2 L159,106.3 L161,107.3 L163,108.1 L165,108.7 L167.1,109.2 L169.1,109.5 L171.1,109.6 L173.1,109.6 L175.2,109.4 L177.2,109.1 L179.2,108.5 L181.2,107.9 L183.3,107.1 L185.3,106.2 L187.3,105.1 L189.3,104 L191.4,102.8 L193.4,101.5 L195.4,100.1 L197.4,98.65 L199.5,97.19 L201.5,95.71 L203.5,94.23 L205.5,92.75 L207.6,91.29 L209.6,89.88 L211.6,88.51 L213.6,87.2 L215.7,85.97 L217.7,84.82 L219.7,83.77 L221.7,82.83 L223.8,81.99 L225.8,81.28 L227.8,80.69 L229.8,80.23 L231.9,79.9 L233.9,79.71 L235.9,79.64 L237.9,79.72 L240,79.92 L242,80.25 L244,80.7 L246,81.27 L248.1,81.95 L250.1,82.73 L252.1,83.61 L254.1,84.56 L256.2,85.6 L258.2,86.69 L260.2,87.83 L262.2,89.02 L264.3,90.23 L266.3,91.46 L268.3,92.69 L270.3,93.91 L272.3,95.11 L274.4,96.27 L276.4,97.4 L278.4,98.46 L280.4,99.47 L282.5,100.4 L284.5,101.2 L286.5,102 L288.5,102.7 L290.6,103.2 L292.6,103.7 L294.6,104 L296.6,104.2 L298.7,104.3 L300.7,104.3 L302.7,104.2 L304.7,104 L306.8,103.7 L308.8,103.2 L310.8,102.7 L312.8,102.1 L314.9,101.4 L316.9,100.6 L318.9,99.7 L320.9,98.78 L323,97.81 L325,96.79 L327,95.75 L329,94.69 L331.1,93.61 L333.1,92.54 L335.1,91.48 L337.1,90.45 L339.2,89.44 L341.2,88.48 L343.2,87.57 L345.2,86.72 L347.3,85.94 L349.3,85.23 L351.3,84.61 L353.3,84.07 L355.4,83.62 L357.4,83.28 L359.4,83.03 L361.4,82.88 L363.5,82.83 L365.5,82.88 L367.5,83.03 L369.5,83.29 L371.6,83.63 L373.6,84.07 L375.6,84.59 L377.6,85.19 L379.6,85.87 L381.7,86.61 L383.7,87.41 L385.7,88.26 L387.7,89.15 L389.8,90.08 L391.8,91.02 L393.8,91.99 L395.8,92.95 L397.9,93.91 L399.9,94.85 L401.9,95.77 L403.9,96.66 L406,97.5 L408,98.3 L410,99.03 L412,99.7 L414.1,100.3 L416.1,100.8 L418.1,101.3 L420.1,101.6 L422.2,101.9 L424.2,102.1 L426.2,102.2 L428.2,102.2 L430.3,102.1 L432.3,101.9 L434.3,101.6 L436.3,101.2 L438.4,100.8 L440.4,100.3 L442.4,99.69 L444.4,99.04 L446.5,98.33 L448.5,97.57 L450.5,96.77 L452.5,95.94 L454.6,95.08 L456.6,94.21 L458.6,93.32 L460.6,92.44 L462.7,91.57 L464.7,90.71 " fill="none"/></g>
<g clip-path="url(#plot_window)" stroke="rgb(139,0,0)" stroke-width="1"><path d="M64.43,338.2 L66.44,236.4 L68.45,196.6 L70.46,175.3 L72.47,161.9 L74.48,152.5 L76.5,145.3 L78.51,139.5 L80.52,134.6 L82.53,130.3 L84.54,126.3 L86.55,122.6 L88.56,119.1 L90.57,115.7 L92.59,112.5 L94.6,109.4 L96.61,106.3 L98.62,103.4 L100.6,100.5 L102.6,97.72 L104.7,95.04 L106.7,92.47 L108.7,90.01 L110.7,87.68 L112.7,85.49 L114.7,83.44 L116.7,81.55 L118.7,79.82 L120.7,78.27 L122.8,76.89 L124.8,75.69 L126.8,74.68 L128.8,73.87 L130.8,73.24 L132.8,72.81 L134.8,72.57 L136.8,72.52 L138.8,72.66 L140.9,72.98 L142.9,73.47 L144.9,74.13 L146.9,74.94 L148.9,75.9 L150.9,77 L152.9,78.22 L154.9,79.54 L157,80.97 L159,82.48 L161,84.05 L163,85.68 L165,87.34 L167,89.02 L169,90.71 L171,92.39 L173,94.04 L175.1,95.66 L177.1,97.21 L179.1,98.71 L181.1,100.1 L183.1,101.4 L185.1,102.7 L187.1,103.8 L189.1,104.7 L191.1,105.6 L193.2,106.3 L195.2,106.9 L197.2,107.4 L199.2,107.7 L201.2,107.8 L203.2,107.8 L205.2,107.7 L207.2,107.4 L209.2,107 L211.3,106.5 L213.3,105.8 L215.3,105 L217.3,104.1 L219.3,103.2 L221.3,102.1 L223.3,101 L225.3,99.76 L227.3,98.51 L229.4,97.22 L231.4,95.9 L233.4,94.57 L235.4,93.24 L237.4,91.92 L239.4,90.63 L241.4,89.38 L243.4,88.17 L245.5,87.02 L247.5,85.95 L249.5,84.95 L251.5,84.04 L253.5,83.23 L255.5,82.52 L257.5,81.92 L259.5,81.43 L261.5,81.06 L263.6,80.8 L265.6,80.67 L267.6,80.66 L269.6,80.77 L271.6,81 L273.6,81.34 L275.6,81.79 L277.6,82.34 L279.6,83 L281.7,83.74 L283.7,84.57 L285.7,85.47 L287.7,86.44 L289.7,87.46 L291.7,88.52 L293.7,89.62 L295.7,90.74 L297.7,91.88 L299.8,93.01 L301.8,94.14 L303.8,95.24 L305.8,96.32 L307.8,97.35 L309.8,98.33 L311.8,99.25 L313.8,100.1 L315.8,100.9 L317.9,101.6 L319.9,102.2 L321.9,102.7 L323.9,103.1 L325.9,103.4 L327.9,103.6 L329.9,103.7 L331.9,103.7 L334,103.6 L336,103.4 L338,103 L340,102.6 L342,102.1 L344,101.5 L346,100.9 L348,100.1 L350,99.31 L352.1,98.45 L354.1,97.54 L356.1,96.59 L358.1,95.61 L360.1,94.61 L362.1,93.6 L364.1,92.6 L366.1,91.6 L368.1,90.62 L370.2,89.68 L372.2,88.77 L374.2,87.9 L376.2,87.1 L378.2,86.35 L380.2,85.68 L382.2,85.08 L384.2,84.56 L386.2,84.12 L388.3,83.78 L390.3,83.53 L392.3,83.37 L394.3,83.31 L396.3,83.34 L398.3,83.46 L400.3,83.68 L402.3,83.99 L404.3,84.38 L406.4,84.86 L408.4,85.41 L410.4,86.03 L412.4,86.72 L414.4,87.46 L416.4,88.26 L418.4,89.09 L420.4,89.96 L422.5,90.85 L424.5,91.76 L426.5,92.68 L428.5,93.59 L430.5,94.49 L432.5,95.38 L434.5,96.23 L436.5,97.05 L438.5,97.82 L440.6,98.54 L442.6,99.2 L444.6,99.8 L446.6,100.3 L448.6,100.8 L450.6,101.2 L452.6,101.4 L454.6,101.6 L456.6,101.8 L458.7,101.8 L460.7,101.7 L462.7,101.6 L464.7,101.4 " fill="none"/></g>
<g clip-path="url(#plot_window)" stroke="rgb(0,100,0)" stroke-width="1"><path d="M72.39,338.2 L74.36,272.6 L76.33,231.9 L78.3,205 L80.27,186.3 L82.24,172.7 L84.21,162.5 L86.19,154.6 L88.16,148.3 L90.13,143.1 L92.1,138.8 L94.07,135.1 L96.04,131.8 L98.02,128.9 L99.99,126.2 L102,123.6 L103.9,121.2 L105.9,118.9 L107.9,116.7 L109.8,114.5 L111.8,112.3 L113.8,110.2 L115.8,108 L117.7,105.9 L119.7,103.8 L121.7,101.7 L123.6,99.66 L125.6,97.63 L127.6,95.64 L129.6,93.68 L131.5,91.78 L133.5,89.95 L135.5,88.17 L137.4,86.48 L139.4,84.88 L141.4,83.37 L143.4,81.96 L145.3,80.67 L147.3,79.49 L149.3,78.44 L151.2,77.51 L153.2,76.73 L155.2,76.08 L157.2,75.58 L159.1,75.21 L161.1,75 L163.1,74.93 L165,75 L167,75.21 L169,75.56 L171,76.05 L172.9,76.66 L174.9,77.4 L176.9,78.25 L178.9,79.2 L180.8,80.26 L182.8,81.4 L184.8,82.62 L186.7,83.91 L188.7,85.25 L190.7,86.64 L192.7,88.06 L194.6,89.5 L196.6,90.95 L198.6,92.4 L200.5,93.83 L202.5,95.23 L204.5,96.59 L206.5,97.91 L208.4,99.16 L210.4,100.3 L212.4,101.4 L214.3,102.5 L216.3,103.4 L218.3,104.2 L220.3,104.9 L222.2,105.5 L224.2,106 L226.2,106.3 L228.1,106.5 L230.1,106.6 L232.1,106.6 L234.1,106.5 L236,106.2 L238,105.9 L240,105.4 L241.9,104.8 L243.9,104.1 L245.9,103.3 L247.9,102.5 L249.8,101.5 L251.8,100.5 L253.8,99.45 L255.7,98.34 L257.7,97.19 L259.7,96.01 L261.7,94.82 L263.6,93.62 L265.6,92.43 L267.6,91.25 L269.5,90.1 L271.5,88.99 L273.5,87.92 L275.5,86.91 L277.4,85.97 L279.4,85.09 L281.4,84.3 L283.3,83.59 L285.3,82.97 L287.3,82.45 L289.3,82.03 L291.2,81.71 L293.2,81.5 L295.2,81.4 L297.1,81.4 L299.1,81.51 L301.1,81.72 L303.1,82.03 L305,82.45 L307,82.95 L309,83.54 L310.9,84.22 L312.9,84.96 L314.9,85.78 L316.9,86.66 L318.8,87.59 L320.8,88.55 L322.8,89.56 L324.7,90.58 L326.7,91.63 L328.7,92.67 L330.7,93.71 L332.6,94.74 L334.6,95.74 L336.6,96.71 L338.5,97.64 L340.5,98.52 L342.5,99.34 L344.5,100.1 L346.4,100.8 L348.4,101.4 L350.4,101.9 L352.4,102.3 L354.3,102.7 L356.3,103 L358.3,103.1 L360.2,103.2 L362.2,103.2 L364.2,103 L366.2,102.8 L368.1,102.5 L370.1,102.1 L372.1,101.6 L374,101.1 L376,100.5 L378,99.78 L380,99.03 L381.9,98.23 L383.9,97.38 L385.9,96.5 L387.8,95.59 L389.8,94.66 L391.8,93.73 L393.8,92.79 L395.7,91.86 L397.7,90.94 L399.7,90.05 L401.6,89.19 L403.6,88.37 L405.6,87.59 L407.6,86.88 L409.5,86.22 L411.5,85.63 L413.5,85.11 L415.4,84.67 L417.4,84.3 L419.4,84.02 L421.4,83.83 L423.3,83.72 L425.3,83.7 L427.3,83.76 L429.2,83.91 L431.2,84.14 L433.2,84.46 L435.2,84.85 L437.1,85.32 L439.1,85.85 L441.1,86.45 L443,87.11 L445,87.81 L447,88.57 L449,89.35 L450.9,90.17 L452.9,91.01 L454.9,91.87 L456.8,92.73 L458.8,93.59 L460.8,94.44 L462.8,95.27 L464.7,96.07 " fill="none"/></g>
<g clip-path="url(#plot_window)" stroke="rgb(255,140,0)" stroke-width="1"><path d="M83.21,338.2 L85.13,288.4 L87.05,252.4 L88.96,225.7 L90.88,205.5 L92.8,189.9 L94.72,177.6 L96.63,167.8 L98.55,159.9 L100.5,153.4 L102.4,148 L104.3,143.5 L106.2,139.6 L108.1,136.2 L110.1,133.2 L112,130.6 L113.9,128.2 L115.8,126 L117.7,124 L119.6,122.1 L121.6,120.3 L123.5,118.5 L125.4,116.8 L127.3,115.1 L129.2,113.5 L131.1,111.8 L133.1,110.2 L135,108.5 L136.9,106.9 L138.8,105.3 L140.7,103.6 L142.7,102 L144.6,100.4 L146.5,98.73 L148.4,97.11 L150.3,95.51 L152.2,93.94 L154.2,92.39 L156.1,90.87 L158,89.4 L159.9,87.98 L161.8,86.61 L163.7,85.3 L165.7,84.06 L167.6,82.89 L169.5,81.81 L171.4,80.81 L173.3,79.91 L175.2,79.1 L177.2,78.39 L179.1,77.79 L181,77.3 L182.9,76.92 L184.8,76.65 L186.8,76.49 L188.7,76.45 L190.6,76.52 L192.5,76.71 L194.4,77.01 L196.3,77.41 L198.3,77.92 L200.2,78.53 L202.1,79.23 L204,80.03 L205.9,80.9 L207.8,81.86 L209.8,82.88 L211.7,83.97 L213.6,85.1 L215.5,86.29 L217.4,87.51 L219.4,88.75 L221.3,90.01 L223.2,91.28 L225.1,92.55 L227,93.8 L228.9,95.04 L230.9,96.24 L232.8,97.4 L234.7,98.52 L236.6,99.58 L238.5,100.6 L240.4,101.5 L242.4,102.4 L244.3,103.1 L246.2,103.8 L248.1,104.4 L250,104.9 L251.9,105.3 L253.9,105.5 L255.8,105.7 L257.7,105.8 L259.6,105.8 L261.5,105.6 L263.5,105.4 L265.4,105.1 L267.3,104.7 L269.2,104.1 L271.1,103.5 L273,102.8 L275,102.1 L276.9,101.3 L278.8,100.4 L280.7,99.43 L282.6,98.44 L284.5,97.42 L286.5,96.37 L288.4,95.3 L290.3,94.21 L292.2,93.13 L294.1,92.06 L296,91 L298,89.96 L299.9,88.96 L301.8,88 L303.7,87.09 L305.6,86.24 L307.6,85.45 L309.5,84.73 L311.4,84.08 L313.3,83.51 L315.2,83.03 L317.1,82.63 L319.1,82.32 L321,82.11 L322.9,81.99 L324.8,81.96 L326.7,82.03 L328.6,82.18 L330.6,82.43 L332.5,82.77 L334.4,83.18 L336.3,83.68 L338.2,84.26 L340.1,84.9 L342.1,85.61 L344,86.38 L345.9,87.19 L347.8,88.05 L349.7,88.95 L351.7,89.88 L353.6,90.82 L355.5,91.78 L357.4,92.74 L359.3,93.7 L361.2,94.64 L363.2,95.57 L365.1,96.46 L367,97.32 L368.9,98.14 L370.8,98.91 L372.7,99.62 L374.7,100.3 L376.6,100.9 L378.5,101.4 L380.4,101.8 L382.3,102.2 L384.3,102.4 L386.2,102.6 L388.1,102.7 L390,102.8 L391.9,102.7 L393.8,102.6 L395.8,102.3 L397.7,102 L399.6,101.6 L401.5,101.2 L403.4,100.7 L405.3,100.1 L407.3,99.42 L409.2,98.72 L411.1,97.98 L413,97.19 L414.9,96.38 L416.8,95.53 L418.8,94.67 L420.7,93.8 L422.6,92.93 L424.5,92.06 L426.4,91.21 L428.4,90.37 L430.3,89.56 L432.2,88.79 L434.1,88.05 L436,87.36 L437.9,86.73 L439.9,86.15 L441.8,85.63 L443.7,85.18 L445.6,84.8 L447.5,84.49 L449.4,84.26 L451.4,84.11 L453.3,84.03 L455.2,84.03 L457.1,84.11 L459,84.27 L460.9,84.5 L462.9,84.8 L464.8,85.18 L466.7,85.62 " fill="none"/></g>
<g clip-path="url(#plot_window)" stroke="rgb(127,255,0)" stroke-width="1"><path d="M95.69,338.2 L97.54,297.3 L99.4,265.5 L101.3,240.3 L103.1,220.2 L105,204 L106.8,190.8 L108.7,179.9 L110.5,170.9 L112.4,163.3 L114.2,157 L116.1,151.5 L117.9,146.9 L119.8,142.9 L121.7,139.4 L123.5,136.3 L125.4,133.6 L127.2,131.2 L129.1,129 L130.9,127 L132.8,125.2 L134.6,123.5 L136.5,121.9 L138.4,120.3 L140.2,118.9 L142.1,117.5 L143.9,116.1 L145.8,114.7 L147.6,113.4 L149.5,112.1 L151.3,110.8 L153.2,109.4 L155,108.1 L156.9,106.8 L158.8,105.5 L160.6,104.1 L162.5,102.8 L164.3,101.4 L166.2,100.1 L168,98.73 L169.9,97.38 L171.7,96.04 L173.6,94.71 L175.5,93.4 L177.3,92.1 L179.2,90.83 L181,89.59 L182.9,88.38 L184.7,87.21 L186.6,86.09 L188.4,85.02 L190.3,84 L192.2,83.04 L194,82.14 L195.9,81.32 L197.7,80.56 L199.6,79.89 L201.4,79.29 L203.3,78.78 L205.1,78.35 L207,78.01 L208.8,77.76 L210.7,77.61 L212.6,77.54 L214.4,77.57 L216.3,77.69 L218.1,77.9 L220,78.2 L221.8,78.59 L223.7,79.06 L225.5,79.62 L227.4,80.25 L229.3,80.95 L231.1,81.73 L233,82.57 L234.8,83.46 L236.7,84.41 L238.5,85.41 L240.4,86.44 L242.2,87.51 L244.1,88.6 L245.9,89.71 L247.8,90.83 L249.7,91.95 L251.5,93.07 L253.4,94.18 L255.2,95.27 L257.1,96.34 L258.9,97.36 L260.8,98.35 L262.6,99.3 L264.5,100.2 L266.4,101 L268.2,101.8 L270.1,102.5 L271.9,103.1 L273.8,103.7 L275.6,104.1 L277.5,104.5 L279.3,104.8 L281.2,105 L283,105.1 L284.9,105.1 L286.8,105.1 L288.6,104.9 L290.5,104.7 L292.3,104.4 L294.2,104 L296,103.5 L297.9,103 L299.7,102.3 L301.6,101.7 L303.5,100.9 L305.3,100.1 L307.2,99.28 L309,98.4 L310.9,97.48 L312.7,96.53 L314.6,95.57 L316.4,94.59 L318.3,93.61 L320.2,92.63 L322,91.65 L323.9,90.7 L325.7,89.77 L327.6,88.87 L329.4,88.01 L331.3,87.19 L333.1,86.42 L335,85.7 L336.8,85.05 L338.7,84.46 L340.6,83.94 L342.4,83.49 L344.3,83.12 L346.1,82.82 L348,82.61 L349.8,82.48 L351.7,82.42 L353.5,82.45 L355.4,82.56 L357.3,82.75 L359.1,83.02 L361,83.36 L362.8,83.78 L364.7,84.26 L366.5,84.81 L368.4,85.42 L370.2,86.08 L372.1,86.8 L373.9,87.55 L375.8,88.35 L377.7,89.17 L379.5,90.03 L381.4,90.89 L383.2,91.77 L385.1,92.66 L386.9,93.54 L388.8,94.41 L390.6,95.27 L392.5,96.1 L394.4,96.9 L396.2,97.67 L398.1,98.4 L399.9,99.07 L401.8,99.7 L403.6,100.3 L405.5,100.8 L407.3,101.2 L409.2,101.6 L411,101.9 L412.9,102.1 L414.8,102.3 L416.6,102.4 L418.5,102.4 L420.3,102.3 L422.2,102.2 L424,102 L425.9,101.7 L427.7,101.4 L429.6,100.9 L431.5,100.5 L433.3,99.93 L435.2,99.34 L437,98.71 L438.9,98.03 L440.7,97.31 L442.6,96.57 L444.4,95.8 L446.3,95.01 L448.2,94.2 L450,93.39 L451.9,92.58 L453.7,91.78 L455.6,90.99 L457.4,90.22 L459.3,89.48 L461.1,88.77 L463,88.09 L464.8,87.46 " fill="none"/></g>
</g>
<g id="plotPoints" clip-path="url(#plot_window)"><g stroke="rgb(0,0,0)"></g>
<g stroke="rgb(0,0,0)"></g>
<g stroke="rgb(0,0,0)"></g>
<g stroke="rgb(0,0,0)"></g>
<g stroke="rgb(0,0,0)"></g>
</g>
<g id="limitPoints" stroke="rgb(119,136,153)" fill="rgb(250,235,215)"></g>
<g id="legendBackground" stroke="rgb(119,136,153)" fill="rgb(255,255,255)" stroke-width="1"><rect x="488.8" y="62" width="99.2" height="154"/><rect x="488.8" y="62" width="99.2" height="154"/></g>
<g id="legendPoints"><g stroke="rgb(0,0,139)" stroke-width="1"><line x1="502.8" y1="90" x2="516.8" y2="90"/></g>
<g stroke="rgb(139,0,0)" stroke-width="1"><line x1="502.8" y1="118" x2="516.8" y2="118"/></g>
<g stroke="rgb(0,100,0)" stroke-width="1"><line x1="502.8" y1="146" x2="516.8" y2="146"/></g>
<g stroke="rgb(255,140,0)" stroke-width="1"><line x1="502.8" y1="174" x2="516.8" y2="174"/></g>
<g stroke="rgb(127,255,0)" stroke-width="1"><line x1="502.8" y1="202" x2="516.8" y2="202"/></g>
</g>
<g id="legendText">
<text x="523.8" y="90" font-size="14" font-family="Verdana">v = 0</text>
<text x="523.8" y="118" font-size="14" font-family="Verdana">v = 1</text>
<text x="523.8" y="146" font-size="14" font-family="Verdana">v = 2</text>
<text x="523.8" y="174" font-size="14" font-family="Verdana">v = 3</text>
<text x="523.8" y="202" font-size="14" font-family="Verdana">v = 4</text></g>
<g id="title">
<text x="300" y="40" text-anchor="middle" font-size="20" font-family="Verdana">Bessel Y</text></g>
</svg>
