<?xml version="1.0" encoding="UTF-8" standalone="no"?>
<svg width="600" height ="400" version="1.1" xmlns="http://www.w3.org/2000/svg"
 xmlns:xlink="http://www.w3.org/1999/xlink"
 xmlns:ev="http://www.w3.org/2001/xml-events">

<!-- SVG plot written using Boost.Plot program (Creator Jacob Voytko) --> 
<!-- Use, modification and distribution of Boost.Plot subject to the --> 
<!-- Boost Software License, Version 1.0.--> 
<!-- (See accompanying file LICENSE_1_0.txt --> 
<!-- or copy at http://www.boost.org/LICENSE_1_0.txt) --> 

<!-- SVG Plot Copyright John Maddock 2008 --> 
<meta name="copyright" content="John Maddock" />
<meta name="date" content="2008" />
<!-- Use, modification and distribution of this Scalable Vector Graphic file -->
<!-- are subject to the Boost Software License, Version 1.0. -->
<!-- (See accompanying file LICENSE_1_0.txt or copy at http://www.boost.org/LICENSE_1_0.txt) -->

<clipPath id="plot_window"><rect x="79.6" y="63" width="394.2" height="274.2"/></clipPath>
<g id="imageBackground" stroke="rgb(119,136,153)" fill="rgb(255,255,255)" stroke-width="2"><rect x="0" y="0" width="600" height="400"/></g>
<g id="plotBackground" stroke="rgb(119,136,153)" fill="rgb(255,255,255)" stroke-width="2"><rect x="78.6" y="62" width="396.2" height="276.2"/></g>
<g id="yMinorGrid" stroke="rgb(200,220,255)" stroke-width="0.5"></g>
<g id="yMajorGrid" stroke="rgb(200,220,255)" stroke-width="1"></g>
<g id="xMinorGrid" stroke="rgb(200,220,255)" stroke-width="0.5"></g>
<g id="xMajorGrid" stroke="rgb(200,220,255)" stroke-width="1"></g>
<g id="yAxis" stroke="rgb(0,0,0)" stroke-width="1"><line x1="272.8" y1="62" x2="272.8" y2="343.2"/><line x1="78.6" y1="62" x2="78.6" y2="338.2"/></g>
<g id="xAxis" stroke="rgb(0,0,0)" stroke-width="1"><line x1="73.6" y1="238.6" x2="474.8" y2="238.6"/><line x1="73.6" y1="338.2" x2="474.8" y2="338.2"/></g>
<g id="yMinorTicks" stroke="rgb(0,0,0)" stroke-width="1"><path d="M76.6,217.2 L78.6,217.2 M76.6,195.8 L78.6,195.8 M76.6,174.4 L78.6,174.4 M76.6,131.6 L78.6,131.6 M76.6,110.2 L78.6,110.2 M76.6,88.82 L78.6,88.82 M76.6,238.6 L78.6,238.6 M76.6,260 L78.6,260 M76.6,281.4 L78.6,281.4 M76.6,302.8 L78.6,302.8 M76.6,324.2 L78.6,324.2 "/></g>
<g id="xMinorTicks" stroke="rgb(0,0,0)" stroke-width="1"><path d="M297.1,338.2 L297.1,340.2 M321.4,338.2 L321.4,340.2 M345.6,338.2 L345.6,340.2 M394.2,338.2 L394.2,340.2 M418.5,338.2 L418.5,340.2 M442.8,338.2 L442.8,340.2 M248.5,338.2 L248.5,340.2 M224.3,338.2 L224.3,340.2 M200,338.2 L200,340.2 M151.4,338.2 L151.4,340.2 M127.2,338.2 L127.2,340.2 M102.9,338.2 L102.9,340.2 "/></g>
<g id="yMajorTicks" stroke="rgb(0,0,0)" stroke-width="2"><path d="M73.6,238.6 L78.6,238.6 M73.6,153 L78.6,153 M73.6,67.42 L78.6,67.42 M73.6,238.6 L78.6,238.6 M73.6,324.2 L78.6,324.2 "/></g>
<g id="xMajorTicks" stroke="rgb(0,0,0)" stroke-width="2"><path d="M272.8,338.2 L272.8,343.2 M369.9,338.2 L369.9,343.2 M467,338.2 L467,343.2 M272.8,338.2 L272.8,343.2 M175.7,338.2 L175.7,343.2 M78.6,338.2 L78.6,343.2 "/></g>
<g id="plotLabels">
<text x="272.8" y="357.6" text-anchor="middle" font-size="12" font-family="Verdana">0</text>
<text x="369.9" y="357.6" text-anchor="middle" font-size="12" font-family="Verdana">10</text>
<text x="467" y="357.6" text-anchor="middle" font-size="12" font-family="Verdana">20</text>
<text x="272.8" y="357.6" text-anchor="middle" font-size="12" font-family="Verdana">0</text>
<text x="175.7" y="357.6" text-anchor="middle" font-size="12" font-family="Verdana">-10</text>
<text x="78.6" y="357.6" text-anchor="middle" font-size="12" font-family="Verdana">-20</text>
<text x="67.6" y="241" text-anchor="end" font-size="12" font-family="Verdana">0</text>
<text x="67.6" y="155.4" text-anchor="end" font-size="12" font-family="Verdana">0.5</text>
<text x="67.6" y="69.82" text-anchor="end" font-size="12" font-family="Verdana">1</text>
<text x="67.6" y="241" text-anchor="end" font-size="12" font-family="Verdana">0</text>
<text x="67.6" y="326.6" text-anchor="end" font-size="12" font-family="Verdana">-0.5</text></g>
<g id="yLabel">
<text x="30.2" y="200.1" text-anchor="middle" transform = "rotate(-90 30.2 200.1 )" font-size="14" font-family="Verdana">cyl_bessel_j(v, x)</text></g>
<g id="xLabel">
<text x="276.7" y="384" text-anchor="middle" font-size="14" font-family="Verdana">x</text></g>
<g id="plotLines" stroke-width="2"><g clip-path="url(#plot_window)" stroke="rgb(0,0,139)" stroke-width="1"><path d="M78.6,210 L80.54,208.3 L82.48,207.8 L84.43,208.5 L86.37,210.5 L88.31,213.5 L90.25,217.6 L92.2,222.6 L94.14,228.3 L96.08,234.5 L98.02,240.9 L99.96,247.3 L101.9,253.4 L103.8,259 L105.8,263.8 L107.7,267.7 L109.7,270.5 L111.6,272 L113.6,272.2 L115.5,271 L117.4,268.6 L119.4,264.9 L121.3,260.1 L123.3,254.4 L125.2,248 L127.2,241.1 L129.1,234 L131,227 L133,220.4 L134.9,214.4 L136.9,209.3 L138.8,205.4 L140.7,202.7 L142.7,201.4 L144.6,201.5 L146.6,203.2 L148.5,206.3 L150.5,210.8 L152.4,216.5 L154.3,223.1 L156.3,230.5 L158.2,238.3 L160.2,246.3 L162.1,254.1 L164.1,261.4 L166,267.9 L167.9,273.4 L169.9,277.6 L171.8,280.3 L173.8,281.4 L175.7,280.7 L177.6,278.4 L179.6,274.4 L181.5,268.9 L183.5,262 L185.4,254.1 L187.4,245.4 L189.3,236.1 L191.2,226.8 L193.2,217.7 L195.1,209.2 L197.1,201.8 L199,195.6 L201,190.9 L202.9,188.1 L204.8,187.3 L206.8,188.5 L208.7,191.7 L210.7,197 L212.6,204.1 L214.6,212.8 L216.5,222.9 L218.4,234 L220.4,245.7 L222.3,257.5 L224.3,269 L226.2,279.8 L228.1,289.3 L230.1,297.2 L232,303.1 L234,306.6 L235.9,307.6 L237.9,305.7 L239.8,301 L241.7,293.5 L243.7,283.2 L245.6,270.3 L247.6,255.2 L249.5,238.2 L251.5,219.7 L253.4,200.3 L255.3,180.4 L257.3,160.7 L259.2,141.6 L261.2,123.7 L263.1,107.6 L265,93.73 L267,82.48 L268.9,74.2 L270.9,69.12 L272.8,67.42 L274.8,69.12 L276.7,74.2 L278.6,82.48 L280.6,93.73 L282.5,107.6 L284.5,123.7 L286.4,141.6 L288.4,160.7 L290.3,180.4 L292.2,200.3 L294.2,219.7 L296.1,238.2 L298.1,255.2 L300,270.3 L301.9,283.2 L303.9,293.5 L305.8,301 L307.8,305.7 L309.7,307.6 L311.7,306.6 L313.6,303.1 L315.5,297.2 L317.5,289.3 L319.4,279.8 L321.4,269 L323.3,257.5 L325.3,245.7 L327.2,234 L329.1,222.9 L331.1,212.8 L333,204.1 L335,197 L336.9,191.7 L338.8,188.5 L340.8,187.3 L342.7,188.1 L344.7,190.9 L346.6,195.6 L348.6,201.8 L350.5,209.2 L352.4,217.7 L354.4,226.8 L356.3,236.1 L358.3,245.4 L360.2,254.1 L362.2,262 L364.1,268.9 L366,274.4 L368,278.4 L369.9,280.7 L371.9,281.4 L373.8,280.3 L375.7,277.6 L377.7,273.4 L379.6,267.9 L381.6,261.4 L383.5,254.1 L385.5,246.3 L387.4,238.3 L389.3,230.5 L391.3,223.1 L393.2,216.5 L395.2,210.8 L397.1,206.3 L399.1,203.2 L401,201.5 L402.9,201.4 L404.9,202.7 L406.8,205.4 L408.8,209.3 L410.7,214.4 L412.7,220.4 L414.6,227 L416.5,234 L418.5,241.1 L420.4,248 L422.4,254.4 L424.3,260.1 L426.2,264.9 L428.2,268.6 L430.1,271 L432.1,272.2 L434,272 L436,270.5 L437.9,267.7 L439.8,263.8 L441.8,259 L443.7,253.4 L445.7,247.3 L447.6,240.9 L449.6,234.5 L451.5,228.3 L453.4,222.6 L455.4,217.6 L457.3,213.5 L459.3,210.5 L461.2,208.5 L463.1,207.8 L465.1,208.3 L467,210 " fill="none"/></g>
<g clip-path="url(#plot_window)" stroke="rgb(139,0,0)" stroke-width="1"><path d="M78.6,250.1 L80.54,244.3 L82.48,238.1 L84.43,232 L86.37,226 L88.31,220.5 L90.25,215.7 L92.2,211.7 L94.14,208.8 L96.08,207 L98.02,206.4 L99.96,207.2 L101.9,209.2 L103.8,212.4 L105.8,216.7 L107.7,221.9 L109.7,227.9 L111.6,234.3 L113.6,241 L115.5,247.7 L117.4,254.1 L119.4,260 L121.3,265.1 L123.3,269.2 L125.2,272.1 L127.2,273.8 L129.1,274 L131,272.9 L133,270.3 L134.9,266.5 L136.9,261.5 L138.8,255.5 L140.7,248.7 L142.7,241.5 L144.6,234 L146.6,226.6 L148.5,219.6 L150.5,213.2 L152.4,207.7 L154.3,203.4 L156.3,200.4 L158.2,198.9 L160.2,198.9 L162.1,200.5 L164.1,203.7 L166,208.4 L167.9,214.3 L169.9,221.3 L171.8,229.1 L173.8,237.5 L175.7,246.1 L177.6,254.5 L179.6,262.5 L181.5,269.7 L183.5,275.9 L185.4,280.6 L187.4,283.8 L189.3,285.3 L191.2,285 L193.2,282.8 L195.1,278.8 L197.1,273.1 L199,265.9 L201,257.4 L202.9,247.9 L204.8,237.8 L206.8,227.5 L208.7,217.2 L210.7,207.5 L212.6,198.8 L214.6,191.3 L216.5,185.4 L218.4,181.4 L220.4,179.5 L222.3,179.9 L224.3,182.5 L226.2,187.5 L228.1,194.7 L230.1,203.9 L232,214.9 L234,227.3 L235.9,240.8 L237.9,255 L239.8,269.3 L241.7,283.4 L243.7,296.7 L245.6,308.8 L247.6,319.2 L249.5,327.7 L251.5,333.8 L253.4,337.4 L255.3,338.2 L257.3,336.2 L259.2,331.4 L261.2,323.9 L263.1,314 L265,301.8 L267,287.7 L268.9,272.2 L270.9,255.7 L272.8,238.6 L274.8,221.6 L276.7,205.1 L278.6,189.5 L280.6,175.5 L282.5,163.3 L284.5,153.3 L286.4,145.8 L288.4,141.1 L290.3,139.1 L292.2,139.9 L294.2,143.4 L296.1,149.6 L298.1,158 L300,168.5 L301.9,180.6 L303.9,193.9 L305.8,207.9 L307.8,222.3 L309.7,236.4 L311.7,249.9 L313.6,262.4 L315.5,273.4 L317.5,282.6 L319.4,289.7 L321.4,294.7 L323.3,297.4 L325.3,297.8 L327.2,295.9 L329.1,291.9 L331.1,286 L333,278.5 L335,269.7 L336.9,260 L338.8,249.8 L340.8,239.4 L342.7,229.3 L344.7,219.9 L346.6,211.4 L348.6,204.2 L350.5,198.5 L352.4,194.5 L354.4,192.3 L356.3,191.9 L358.3,193.4 L360.2,196.6 L362.2,201.4 L364.1,207.5 L366,214.7 L368,222.7 L369.9,231.2 L371.9,239.8 L373.8,248.1 L375.7,256 L377.7,263 L379.6,268.9 L381.6,273.5 L383.5,276.7 L385.5,278.4 L387.4,278.4 L389.3,276.9 L391.3,273.9 L393.2,269.6 L395.2,264.1 L397.1,257.7 L399.1,250.7 L401,243.3 L402.9,235.8 L404.9,228.5 L406.8,221.8 L408.8,215.8 L410.7,210.8 L412.7,207 L414.6,204.4 L416.5,203.3 L418.5,203.5 L420.4,205.2 L422.4,208.1 L424.3,212.2 L426.2,217.3 L428.2,223.2 L430.1,229.6 L432.1,236.3 L434,243 L436,249.4 L437.9,255.4 L439.8,260.6 L441.8,264.9 L443.7,268.1 L445.7,270.1 L447.6,270.8 L449.6,270.3 L451.5,268.5 L453.4,265.6 L455.4,261.6 L457.3,256.7 L459.3,251.2 L461.2,245.3 L463.1,239.1 L465.1,233 L467,227.2 " fill="none"/></g>
<g clip-path="url(#plot_window)" stroke="rgb(0,100,0)" stroke-width="1"><path d="M78.6,266.1 L80.54,268.4 L82.48,269.5 L84.43,269.4 L86.37,268.1 L88.31,265.6 L90.25,262.1 L92.2,257.5 L94.14,252.2 L96.08,246.2 L98.02,239.9 L99.96,233.5 L101.9,227.2 L103.8,221.3 L105.8,216 L107.7,211.5 L109.7,208.1 L111.6,205.8 L113.6,204.8 L115.5,205.1 L117.4,206.8 L119.4,209.7 L121.3,213.8 L123.3,218.9 L125.2,224.9 L127.2,231.5 L129.1,238.5 L131,245.6 L133,252.5 L134.9,258.9 L136.9,264.7 L138.8,269.5 L140.7,273.1 L142.7,275.5 L144.6,276.4 L146.6,275.9 L148.5,273.9 L150.5,270.5 L152.4,265.8 L154.3,260 L156.3,253.2 L158.2,245.7 L160.2,237.8 L162.1,229.9 L164.1,222.1 L166,214.8 L167.9,208.3 L169.9,202.9 L171.8,198.8 L173.8,196.1 L175.7,195 L177.6,195.6 L179.6,197.9 L181.5,201.8 L183.5,207.1 L185.4,213.8 L187.4,221.6 L189.3,230.3 L191.2,239.4 L193.2,248.8 L195.1,258 L197.1,266.7 L199,274.5 L201,281.3 L202.9,286.6 L204.8,290.2 L206.8,292.1 L208.7,292 L210.7,290 L212.6,286 L214.6,280.2 L216.5,272.7 L218.4,263.7 L220.4,253.5 L222.3,242.4 L224.3,230.7 L226.2,218.8 L228.1,207 L230.1,195.8 L232,185.5 L234,176.3 L235.9,168.6 L237.9,162.5 L239.8,158.2 L241.7,155.8 L243.7,155.4 L245.6,156.8 L247.6,160 L249.5,164.8 L251.5,171 L253.4,178.2 L255.3,186.2 L257.3,194.6 L259.2,203.1 L261.2,211.4 L263.1,219 L265,225.7 L267,231.2 L268.9,235.3 L270.9,237.8 L272.8,238.6 L274.8,237.8 L276.7,235.3 L278.6,231.2 L280.6,225.7 L282.5,219 L284.5,211.4 L286.4,203.1 L288.4,194.6 L290.3,186.2 L292.2,178.2 L294.2,171 L296.1,164.8 L298.1,160 L300,156.8 L301.9,155.4 L303.9,155.8 L305.8,158.2 L307.8,162.5 L309.7,168.6 L311.7,176.3 L313.6,185.5 L315.5,195.8 L317.5,207 L319.4,218.8 L321.4,230.7 L323.3,242.4 L325.3,253.5 L327.2,263.7 L329.1,272.7 L331.1,280.2 L333,286 L335,290 L336.9,292 L338.8,292.1 L340.8,290.2 L342.7,286.6 L344.7,281.3 L346.6,274.5 L348.6,266.7 L350.5,258 L352.4,248.8 L354.4,239.4 L356.3,230.3 L358.3,221.6 L360.2,213.8 L362.2,207.1 L364.1,201.8 L366,197.9 L368,195.6 L369.9,195 L371.9,196.1 L373.8,198.8 L375.7,202.9 L377.7,208.3 L379.6,214.8 L381.6,222.1 L383.5,229.9 L385.5,237.8 L387.4,245.7 L389.3,253.2 L391.3,260 L393.2,265.8 L395.2,270.5 L397.1,273.9 L399.1,275.9 L401,276.4 L402.9,275.5 L404.9,273.1 L406.8,269.5 L408.8,264.7 L410.7,258.9 L412.7,252.5 L414.6,245.6 L416.5,238.5 L418.5,231.5 L420.4,224.9 L422.4,218.9 L424.3,213.8 L426.2,209.7 L428.2,206.8 L430.1,205.1 L432.1,204.8 L434,205.8 L436,208.1 L437.9,211.5 L439.8,216 L441.8,221.3 L443.7,227.2 L445.7,233.5 L447.6,239.9 L449.6,246.2 L451.5,252.2 L453.4,257.5 L455.4,262.1 L457.3,265.6 L459.3,268.1 L461.2,269.4 L463.1,269.5 L465.1,268.4 L467,266.1 " fill="none"/></g>
<g clip-path="url(#plot_window)" stroke="rgb(255,140,0)" stroke-width="1"><path d="M78.6,221.7 L80.54,227 L82.48,232.8 L84.43,238.9 L86.37,245.1 L88.31,251 L90.25,256.6 L92.2,261.5 L94.14,265.6 L96.08,268.6 L98.02,270.5 L99.96,271.2 L101.9,270.7 L103.8,268.9 L105.8,265.8 L107.7,261.7 L109.7,256.7 L111.6,250.9 L113.6,244.5 L115.5,237.8 L117.4,231.1 L119.4,224.6 L121.3,218.6 L123.3,213.2 L125.2,208.8 L127.2,205.4 L129.1,203.3 L131,202.5 L133,203.1 L134.9,205.1 L136.9,208.4 L138.8,212.9 L140.7,218.4 L142.7,224.8 L144.6,231.8 L146.6,239.2 L148.5,246.7 L150.5,254 L152.4,260.8 L154.3,266.9 L156.3,272 L158.2,276 L160.2,278.6 L162.1,279.8 L164.1,279.4 L166,277.6 L167.9,274.2 L169.9,269.4 L171.8,263.5 L173.8,256.4 L175.7,248.6 L177.6,240.3 L179.6,231.7 L181.5,223.2 L183.5,215.1 L185.4,207.7 L187.4,201.1 L189.3,195.8 L191.2,191.9 L193.2,189.5 L195.1,188.8 L197.1,189.8 L199,192.5 L201,196.8 L202.9,202.7 L204.8,209.9 L206.8,218.3 L208.7,227.7 L210.7,237.6 L212.6,247.9 L214.6,258.3 L216.5,268.4 L218.4,278 L220.4,286.8 L222.3,294.5 L224.3,301.1 L226.2,306.3 L228.1,310 L230.1,312.3 L232,313 L234,312.3 L235.9,310.2 L237.9,306.9 L239.8,302.6 L241.7,297.4 L243.7,291.6 L245.6,285.3 L247.6,278.9 L249.5,272.6 L251.5,266.4 L253.4,260.7 L255.3,255.6 L257.3,251.1 L259.2,247.3 L261.2,244.3 L263.1,242 L265,240.4 L267,239.4 L268.9,238.9 L270.9,238.7 L272.8,238.6 L274.8,238.6 L276.7,238.4 L278.6,237.9 L280.6,236.9 L282.5,235.3 L284.5,233 L286.4,230 L288.4,226.2 L290.3,221.7 L292.2,216.6 L294.2,210.8 L296.1,204.7 L298.1,198.3 L300,191.9 L301.9,185.7 L303.9,179.9 L305.8,174.7 L307.8,170.4 L309.7,167.1 L311.7,165 L313.6,164.3 L315.5,165 L317.5,167.2 L319.4,171 L321.4,176.2 L323.3,182.7 L325.3,190.5 L327.2,199.3 L329.1,208.9 L331.1,219 L333,229.3 L335,239.6 L336.9,249.6 L338.8,258.9 L340.8,267.3 L342.7,274.6 L344.7,280.4 L346.6,284.8 L348.6,287.5 L350.5,288.5 L352.4,287.8 L354.4,285.4 L356.3,281.4 L358.3,276.1 L360.2,269.6 L362.2,262.2 L364.1,254 L366,245.5 L368,237 L369.9,228.6 L371.9,220.8 L373.8,213.8 L375.7,207.8 L377.7,203.1 L379.6,199.7 L381.6,197.8 L383.5,197.5 L385.5,198.6 L387.4,201.3 L389.3,205.2 L391.3,210.4 L393.2,216.5 L395.2,223.3 L397.1,230.6 L399.1,238.1 L401,245.5 L402.9,252.5 L404.9,258.9 L406.8,264.4 L408.8,268.9 L410.7,272.2 L412.7,274.2 L414.6,274.8 L416.5,274 L418.5,271.9 L420.4,268.5 L422.4,264.1 L424.3,258.7 L426.2,252.7 L428.2,246.1 L430.1,239.4 L432.1,232.8 L434,226.4 L436,220.6 L437.9,215.5 L439.8,211.4 L441.8,208.4 L443.7,206.6 L445.7,206 L447.6,206.7 L449.6,208.7 L451.5,211.7 L453.4,215.8 L455.4,220.7 L457.3,226.2 L459.3,232.2 L461.2,238.3 L463.1,244.4 L465.1,250.3 L467,255.6 " fill="none"/></g>
<g clip-path="url(#plot_window)" stroke="rgb(127,255,0)" stroke-width="1"><path d="M78.6,216.3 L80.54,212.4 L82.48,209.5 L84.43,207.7 L86.37,207.1 L88.31,207.7 L90.25,209.5 L92.2,212.4 L94.14,216.3 L96.08,221.2 L98.02,226.7 L99.96,232.8 L101.9,239.1 L103.8,245.6 L105.8,251.8 L107.7,257.6 L109.7,262.7 L111.6,267 L113.6,270.3 L115.5,272.5 L117.4,273.3 L119.4,272.9 L121.3,271.2 L123.3,268.2 L125.2,264.1 L127.2,259 L129.1,253.1 L131,246.5 L133,239.6 L134.9,232.5 L136.9,225.6 L138.8,219 L140.7,213.1 L142.7,208 L144.6,203.9 L146.6,201.1 L148.5,199.6 L150.5,199.4 L152.4,200.7 L154.3,203.4 L156.3,207.4 L158.2,212.6 L160.2,218.7 L162.1,225.7 L164.1,233.3 L166,241.2 L167.9,249.2 L169.9,256.9 L171.8,264.2 L173.8,270.7 L175.7,276.2 L177.6,280.6 L179.6,283.7 L181.5,285.3 L183.5,285.5 L185.4,284.1 L187.4,281.2 L189.3,276.9 L191.2,271.2 L193.2,264.4 L195.1,256.7 L197.1,248.2 L199,239.2 L201,229.9 L202.9,220.6 L204.8,211.6 L206.8,203.1 L208.7,195.2 L210.7,188.2 L212.6,182.2 L214.6,177.4 L216.5,173.8 L218.4,171.4 L220.4,170.3 L222.3,170.4 L224.3,171.6 L226.2,173.9 L228.1,177.1 L230.1,181 L232,185.6 L234,190.5 L235.9,195.7 L237.9,201 L239.8,206.2 L241.7,211.3 L243.7,216 L245.6,220.4 L247.6,224.2 L249.5,227.6 L251.5,230.5 L253.4,232.8 L255.3,234.7 L257.3,236.1 L259.2,237.1 L261.2,237.8 L263.1,238.2 L265,238.5 L267,238.6 L268.9,238.6 L270.9,238.6 L272.8,238.6 L274.8,238.6 L276.7,238.6 L278.6,238.6 L280.6,238.5 L282.5,238.2 L284.5,237.8 L286.4,237.1 L288.4,236.1 L290.3,234.7 L292.2,232.8 L294.2,230.5 L296.1,227.6 L298.1,224.2 L300,220.4 L301.9,216 L303.9,211.3 L305.8,206.2 L307.8,201 L309.7,195.7 L311.7,190.5 L313.6,185.6 L315.5,181 L317.5,177.1 L319.4,173.9 L321.4,171.6 L323.3,170.4 L325.3,170.3 L327.2,171.4 L329.1,173.8 L331.1,177.4 L333,182.2 L335,188.2 L336.9,195.2 L338.8,203.1 L340.8,211.6 L342.7,220.6 L344.7,229.9 L346.6,239.2 L348.6,248.2 L350.5,256.7 L352.4,264.4 L354.4,271.2 L356.3,276.9 L358.3,281.2 L360.2,284.1 L362.2,285.5 L364.1,285.3 L366,283.7 L368,280.6 L369.9,276.2 L371.9,270.7 L373.8,264.2 L375.7,256.9 L377.7,249.2 L379.6,241.2 L381.6,233.3 L383.5,225.7 L385.5,218.7 L387.4,212.6 L389.3,207.4 L391.3,203.4 L393.2,200.7 L395.2,199.4 L397.1,199.6 L399.1,201.1 L401,203.9 L402.9,208 L404.9,213.1 L406.8,219 L408.8,225.6 L410.7,232.5 L412.7,239.6 L414.6,246.5 L416.5,253.1 L418.5,259 L420.4,264.1 L422.4,268.2 L424.3,271.2 L426.2,272.9 L428.2,273.3 L430.1,272.5 L432.1,270.3 L434,267 L436,262.7 L437.9,257.6 L439.8,251.8 L441.8,245.6 L443.7,239.1 L445.7,232.8 L447.6,226.7 L449.6,221.2 L451.5,216.3 L453.4,212.4 L455.4,209.5 L457.3,207.7 L459.3,207.1 L461.2,207.7 L463.1,209.5 L465.1,212.4 L467,216.3 " fill="none"/></g>
</g>
<g id="plotPoints" clip-path="url(#plot_window)"><g stroke="rgb(0,0,0)"></g>
<g stroke="rgb(0,0,0)"></g>
<g stroke="rgb(0,0,0)"></g>
<g stroke="rgb(0,0,0)"></g>
<g stroke="rgb(0,0,0)"></g>
</g>
<g id="limitPoints" stroke="rgb(119,136,153)" fill="rgb(250,235,215)"></g>
<g id="legendBackground" stroke="rgb(119,136,153)" fill="rgb(255,255,255)" stroke-width="1"><rect x="488.8" y="62" width="99.2" height="154"/><rect x="488.8" y="62" width="99.2" height="154"/></g>
<g id="legendPoints"><g stroke="rgb(0,0,139)" stroke-width="1"><line x1="502.8" y1="90" x2="516.8" y2="90"/></g>
<g stroke="rgb(139,0,0)" stroke-width="1"><line x1="502.8" y1="118" x2="516.8" y2="118"/></g>
<g stroke="rgb(0,100,0)" stroke-width="1"><line x1="502.8" y1="146" x2="516.8" y2="146"/></g>
<g stroke="rgb(255,140,0)" stroke-width="1"><line x1="502.8" y1="174" x2="516.8" y2="174"/></g>
<g stroke="rgb(127,255,0)" stroke-width="1"><line x1="502.8" y1="202" x2="516.8" y2="202"/></g>
</g>
<g id="legendText">
<text x="523.8" y="90" font-size="14" font-family="Verdana">v = 0</text>
<text x="523.8" y="118" font-size="14" font-family="Verdana">v = 1</text>
<text x="523.8" y="146" font-size="14" font-family="Verdana">v = 2</text>
<text x="523.8" y="174" font-size="14" font-family="Verdana">v = 3</text>
<text x="523.8" y="202" font-size="14" font-family="Verdana">v = 4</text></g>
<g id="title">
<text x="300" y="40" text-anchor="middle" font-size="20" font-family="Verdana">Bessel J</text></g>
</svg>
