<?xml version="1.0" encoding="UTF-8" standalone="no"?>
<svg width="600" height ="400" version="1.1" xmlns="http://www.w3.org/2000/svg"
 xmlns:xlink="http://www.w3.org/1999/xlink"
 xmlns:ev="http://www.w3.org/2001/xml-events">

<!-- SVG plot written using Boost.Plot program (Creator Jacob Voytko) --> 
<!-- Use, modification and distribution of Boost.Plot subject to the --> 
<!-- Boost Software License, Version 1.0.--> 
<!-- (See accompanying file LICENSE_1_0.txt --> 
<!-- or copy at http://www.boost.org/LICENSE_1_0.txt) --> 

<!-- SVG Plot Copyright John Maddock 2008 --> 
<meta name="copyright" content="John Maddock" />
<meta name="date" content="2008" />
<!-- Use, modification and distribution of this Scalable Vector Graphic file -->
<!-- are subject to the Boost Software License, Version 1.0. -->
<!-- (See accompanying file LICENSE_1_0.txt or copy at http://www.boost.org/LICENSE_1_0.txt) -->

<clipPath id="plot_window"><rect x="71.2" y="63" width="515.8" height="274.2"/></clipPath>
<g id="imageBackground" stroke="rgb(119,136,153)" fill="rgb(255,255,255)" stroke-width="2"><rect x="0" y="0" width="600" height="400"/></g>
<g id="plotBackground" stroke="rgb(119,136,153)" fill="rgb(255,255,255)" stroke-width="2"><rect x="70.2" y="62" width="517.8" height="276.2"/></g>
<g id="yMinorGrid" stroke="rgb(200,220,255)" stroke-width="0.5"></g>
<g id="yMajorGrid" stroke="rgb(200,220,255)" stroke-width="1"></g>
<g id="xMinorGrid" stroke="rgb(200,220,255)" stroke-width="0.5"></g>
<g id="xMajorGrid" stroke="rgb(200,220,255)" stroke-width="1"></g>
<g id="yAxis" stroke="rgb(0,0,0)" stroke-width="1"><line x1="213" y1="62" x2="213" y2="343.2"/><line x1="70.2" y1="62" x2="70.2" y2="338.2"/></g>
<g id="xAxis" stroke="rgb(0,0,0)" stroke-width="1"><line x1="65.2" y1="200.5" x2="588" y2="200.5"/><line x1="65.2" y1="338.2" x2="588" y2="338.2"/></g>
<g id="yMinorTicks" stroke="rgb(0,0,0)" stroke-width="1"><path d="M68.2,183.3 L70.2,183.3 M68.2,166.1 L70.2,166.1 M68.2,148.9 L70.2,148.9 M68.2,114.5 L70.2,114.5 M68.2,97.26 L70.2,97.26 M68.2,80.05 L70.2,80.05 M68.2,200.5 L70.2,200.5 M68.2,217.7 L70.2,217.7 M68.2,234.9 L70.2,234.9 M68.2,252.1 L70.2,252.1 M68.2,269.4 L70.2,269.4 M68.2,286.6 L70.2,286.6 M68.2,303.8 L70.2,303.8 M68.2,321 L70.2,321 M68.2,338.2 L70.2,338.2 "/></g>
<g id="xMinorTicks" stroke="rgb(0,0,0)" stroke-width="1"><path d="M258.6,338.2 L258.6,340.2 M304.2,338.2 L304.2,340.2 M349.8,338.2 L349.8,340.2 M441,338.2 L441,340.2 M486.6,338.2 L486.6,340.2 M532.2,338.2 L532.2,340.2 M167.4,338.2 L167.4,340.2 M121.8,338.2 L121.8,340.2 M76.22,338.2 L76.22,340.2 "/></g>
<g id="yMajorTicks" stroke="rgb(0,0,0)" stroke-width="2"><path d="M65.2,200.5 L70.2,200.5 M65.2,131.7 L70.2,131.7 M65.2,62.84 L70.2,62.84 M65.2,200.5 L70.2,200.5 M65.2,269.4 L70.2,269.4 M65.2,338.2 L70.2,338.2 "/></g>
<g id="xMajorTicks" stroke="rgb(0,0,0)" stroke-width="2"><path d="M213,338.2 L213,343.2 M395.4,338.2 L395.4,343.2 M577.8,338.2 L577.8,343.2 M213,338.2 L213,343.2 "/></g>
<g id="plotLabels">
<text x="213" y="357.6" text-anchor="middle" font-size="12" font-family="Verdana">0</text>
<text x="395.4" y="357.6" text-anchor="middle" font-size="12" font-family="Verdana">5</text>
<text x="577.8" y="357.6" text-anchor="middle" font-size="12" font-family="Verdana">10</text>
<text x="213" y="357.6" text-anchor="middle" font-size="12" font-family="Verdana">0</text>
<text x="59.2" y="202.9" text-anchor="end" font-size="12" font-family="Verdana">0</text>
<text x="59.2" y="134.1" text-anchor="end" font-size="12" font-family="Verdana">5</text>
<text x="59.2" y="65.24" text-anchor="end" font-size="12" font-family="Verdana">10</text>
<text x="59.2" y="202.9" text-anchor="end" font-size="12" font-family="Verdana">0</text>
<text x="59.2" y="271.8" text-anchor="end" font-size="12" font-family="Verdana">-5</text>
<text x="59.2" y="340.6" text-anchor="end" font-size="12" font-family="Verdana">-10</text></g>
<g id="yLabel">
<text x="30.2" y="200.1" text-anchor="middle" transform = "rotate(-90 30.2 200.1 )" font-size="14" font-family="Verdana">digamma(z)</text></g>
<g id="xLabel">
<text x="329.1" y="384" text-anchor="middle" font-size="14" font-family="Verdana">z</text></g>
<g id="plotLines" stroke-width="2"><g clip-path="url(#plot_window)" stroke="rgb(0,0,139)" stroke-width="1"><path d="M216.8,338.2 L218.6,294.8 L220.4,272.2 L222.3,258.1 L224.1,248.4 L225.9,241.2 L227.7,235.7 L229.5,231.2 L231.3,227.5 L233.1,224.4 L234.9,221.8 L236.7,219.4 L238.5,217.4 L240.3,215.6 L242.1,213.9 L243.9,212.4 L245.7,211 L247.5,209.8 L249.3,208.6 L251.1,207.5 L252.9,206.5 L254.7,205.5 L256.5,204.6 L258.4,203.8 L260.2,203 L262,202.2 L263.8,201.5 L265.6,200.8 L267.4,200.1 L269.2,199.5 L271,198.9 L272.8,198.3 L274.6,197.8 L276.4,197.2 L278.2,196.7 L280,196.2 L281.8,195.8 L283.6,195.3 L285.4,194.8 L287.2,194.4 L289,194 L290.8,193.6 L292.6,193.2 L294.5,192.8 L296.3,192.4 L298.1,192 L299.9,191.7 L301.7,191.3 L303.5,191 L305.3,190.6 L307.1,190.3 L308.9,190 L310.7,189.7 L312.5,189.4 L314.3,189.1 L316.1,188.8 L317.9,188.5 L319.7,188.2 L321.5,188 L323.3,187.7 L325.1,187.4 L326.9,187.2 L328.7,186.9 L330.6,186.7 L332.4,186.4 L334.2,186.2 L336,185.9 L337.8,185.7 L339.6,185.5 L341.4,185.2 L343.2,185 L345,184.8 L346.8,184.6 L348.6,184.4 L350.4,184.2 L352.2,184 L354,183.8 L355.8,183.6 L357.6,183.4 L359.4,183.2 L361.2,183 L363,182.8 L364.8,182.6 L366.7,182.4 L368.5,182.2 L370.3,182.1 L372.1,181.9 L373.9,181.7 L375.7,181.5 L377.5,181.4 L379.3,181.2 L381.1,181 L382.9,180.9 L384.7,180.7 L386.5,180.5 L388.3,180.4 L390.1,180.2 L391.9,180.1 L393.7,179.9 L395.5,179.8 L397.3,179.6 L399.1,179.5 L401,179.3 L402.8,179.2 L404.6,179 L406.4,178.9 L408.2,178.8 L410,178.6 L411.8,178.5 L413.6,178.3 L415.4,178.2 L417.2,178.1 L419,177.9 L420.8,177.8 L422.6,177.7 L424.4,177.6 L426.2,177.4 L428,177.3 L429.8,177.2 L431.6,177 L433.4,176.9 L435.2,176.8 L437.1,176.7 L438.9,176.6 L440.7,176.4 L442.5,176.3 L444.3,176.2 L446.1,176.1 L447.9,176 L449.7,175.9 L451.5,175.8 L453.3,175.6 L455.1,175.5 L456.9,175.4 L458.7,175.3 L460.5,175.2 L462.3,175.1 L464.1,175 L465.9,174.9 L467.7,174.8 L469.5,174.7 L471.3,174.6 L473.2,174.5 L475,174.4 L476.8,174.3 L478.6,174.2 L480.4,174.1 L482.2,174 L484,173.9 L485.8,173.8 L487.6,173.7 L489.4,173.6 L491.2,173.5 L493,173.4 L494.8,173.3 L496.6,173.2 L498.4,173.1 L500.2,173 L502,172.9 L503.8,172.8 L505.6,172.7 L507.4,172.6 L509.3,172.5 L511.1,172.5 L512.9,172.4 L514.7,172.3 L516.5,172.2 L518.3,172.1 L520.1,172 L521.9,171.9 L523.7,171.9 L525.5,171.8 L527.3,171.7 L529.1,171.6 L530.9,171.5 L532.7,171.4 L534.5,171.4 L536.3,171.3 L538.1,171.2 L539.9,171.1 L541.7,171 L543.6,171 L545.4,170.9 L547.2,170.8 L549,170.7 L550.8,170.6 L552.6,170.6 L554.4,170.5 L556.2,170.4 L558,170.3 L559.8,170.3 L561.6,170.2 L563.4,170.1 L565.2,170 L567,170 L568.8,169.9 L570.6,169.8 L572.4,169.7 L574.2,169.7 L576,169.6 " fill="none"/></g>
<g clip-path="url(#plot_window)" stroke="rgb(0,0,139)" stroke-width="1"><path d="M180,338.2 L180.1,331.9 L180.3,326.2 L180.4,320.8 L180.6,315.9 L180.7,311.3 L180.9,307 L181,302.9 L181.2,299.1 L181.3,295.6 L181.4,292.2 L181.6,289.1 L181.7,286.1 L181.9,283.3 L182,280.6 L182.2,278 L182.3,275.6 L182.5,273.3 L182.6,271.1 L182.8,268.9 L182.9,266.9 L183.1,265 L183.2,263.1 L183.4,261.3 L183.5,259.6 L183.7,257.9 L183.8,256.3 L184,254.8 L184.1,253.3 L184.3,251.9 L184.4,250.5 L184.6,249.2 L184.7,247.9 L184.9,246.6 L185,245.4 L185.2,244.2 L185.3,243 L185.5,241.9 L185.6,240.8 L185.7,239.8 L185.9,238.7 L186,237.7 L186.2,236.8 L186.3,235.8 L186.5,234.9 L186.6,233.9 L186.8,233.1 L186.9,232.2 L187.1,231.3 L187.2,230.5 L187.4,229.7 L187.5,228.9 L187.7,228.1 L187.8,227.3 L188,226.5 L188.1,225.8 L188.3,225.1 L188.4,224.3 L188.6,223.6 L188.7,222.9 L188.9,222.3 L189,221.6 L189.2,220.9 L189.3,220.3 L189.5,219.6 L189.6,219 L189.8,218.4 L189.9,217.7 L190.1,217.1 L190.2,216.5 L190.3,215.9 L190.5,215.3 L190.6,214.7 L190.8,214.2 L190.9,213.6 L191.1,213 L191.2,212.5 L191.4,211.9 L191.5,211.4 L191.7,210.8 L191.8,210.3 L192,209.7 L192.1,209.2 L192.3,208.7 L192.4,208.1 L192.6,207.6 L192.7,207.1 L192.9,206.6 L193,206 L193.2,205.5 L193.3,205 L193.5,204.5 L193.6,204 L193.8,203.5 L193.9,203 L194.1,202.5 L194.2,202 L194.4,201.5 L194.5,201 L194.6,200.5 L194.8,200 L194.9,199.5 L195.1,199 L195.2,198.5 L195.4,198 L195.5,197.5 L195.7,197 L195.8,196.5 L196,196 L196.1,195.5 L196.3,195 L196.4,194.4 L196.6,193.9 L196.7,193.4 L196.9,192.9 L197,192.4 L197.2,191.9 L197.3,191.4 L197.5,190.8 L197.6,190.3 L197.8,189.8 L197.9,189.2 L198.1,188.7 L198.2,188.1 L198.4,187.6 L198.5,187 L198.7,186.5 L198.8,185.9 L199,185.4 L199.1,184.8 L199.2,184.2 L199.4,183.6 L199.5,183 L199.7,182.4 L199.8,181.8 L200,181.2 L200.1,180.6 L200.3,179.9 L200.4,179.3 L200.6,178.6 L200.7,178 L200.9,177.3 L201,176.6 L201.2,175.9 L201.3,175.2 L201.5,174.5 L201.6,173.8 L201.8,173 L201.9,172.3 L202.1,171.5 L202.2,170.7 L202.4,169.9 L202.5,169.1 L202.7,168.3 L202.8,167.4 L203,166.5 L203.1,165.6 L203.3,164.7 L203.4,163.8 L203.5,162.8 L203.7,161.8 L203.8,160.8 L204,159.8 L204.1,158.7 L204.3,157.6 L204.4,156.5 L204.6,155.3 L204.7,154.1 L204.9,152.9 L205,151.6 L205.2,150.3 L205.3,148.9 L205.5,147.5 L205.6,146 L205.8,144.5 L205.9,142.9 L206.1,141.3 L206.2,139.6 L206.4,137.8 L206.5,136 L206.7,134.1 L206.8,132.1 L207,130 L207.1,127.8 L207.3,125.5 L207.4,123.1 L207.6,120.5 L207.7,117.8 L207.9,115 L208,112 L208.1,108.9 L208.3,105.6 L208.4,102 L208.6,98.23 L208.7,94.2 L208.9,89.89 L209,85.26 L209.2,80.29 L209.3,74.93 L209.5,69.13 " fill="none"/></g>
<g clip-path="url(#plot_window)" stroke="rgb(0,0,139)" stroke-width="1"><path d="M143.3,338.2 L143.5,331.4 L143.6,325.1 L143.8,319.3 L143.9,314 L144.1,309 L144.2,304.3 L144.4,300 L144.5,296 L144.7,292.2 L144.8,288.6 L144.9,285.2 L145.1,282 L145.2,279 L145.4,276.2 L145.5,273.5 L145.7,270.9 L145.8,268.4 L146,266.1 L146.1,263.9 L146.3,261.7 L146.4,259.7 L146.6,257.7 L146.7,255.8 L146.9,254 L147,252.3 L147.2,250.6 L147.3,249 L147.5,247.4 L147.6,245.9 L147.8,244.5 L147.9,243.1 L148,241.7 L148.2,240.4 L148.3,239.1 L148.5,237.9 L148.6,236.7 L148.8,235.5 L148.9,234.4 L149.1,233.3 L149.2,232.2 L149.4,231.1 L149.5,230.1 L149.7,229.1 L149.8,228.1 L150,227.2 L150.1,226.2 L150.3,225.3 L150.4,224.4 L150.6,223.5 L150.7,222.7 L150.9,221.8 L151,221 L151.1,220.2 L151.3,219.4 L151.4,218.6 L151.6,217.9 L151.7,217.1 L151.9,216.4 L152,215.7 L152.2,214.9 L152.3,214.2 L152.5,213.5 L152.6,212.9 L152.8,212.2 L152.9,211.5 L153.1,210.9 L153.2,210.2 L153.4,209.6 L153.5,208.9 L153.7,208.3 L153.8,207.7 L154,207.1 L154.1,206.5 L154.2,205.9 L154.4,205.3 L154.5,204.7 L154.7,204.1 L154.8,203.5 L155,203 L155.1,202.4 L155.3,201.8 L155.4,201.3 L155.6,200.7 L155.7,200.1 L155.9,199.6 L156,199.1 L156.2,198.5 L156.3,198 L156.5,197.4 L156.6,196.9 L156.8,196.4 L156.9,195.8 L157.1,195.3 L157.2,194.8 L157.3,194.2 L157.5,193.7 L157.6,193.2 L157.8,192.7 L157.9,192.1 L158.1,191.6 L158.2,191.1 L158.4,190.6 L158.5,190.1 L158.7,189.5 L158.8,189 L159,188.5 L159.1,188 L159.3,187.4 L159.4,186.9 L159.6,186.4 L159.7,185.8 L159.9,185.3 L160,184.8 L160.2,184.3 L160.3,183.7 L160.4,183.2 L160.6,182.6 L160.7,182.1 L160.9,181.5 L161,181 L161.2,180.4 L161.3,179.9 L161.5,179.3 L161.6,178.7 L161.8,178.2 L161.9,177.6 L162.1,177 L162.2,176.4 L162.4,175.8 L162.5,175.2 L162.7,174.6 L162.8,174 L163,173.4 L163.1,172.8 L163.2,172.2 L163.4,171.5 L163.5,170.9 L163.7,170.2 L163.8,169.6 L164,168.9 L164.1,168.2 L164.3,167.5 L164.4,166.8 L164.6,166.1 L164.7,165.4 L164.9,164.7 L165,163.9 L165.2,163.1 L165.3,162.4 L165.5,161.6 L165.6,160.8 L165.8,160 L165.9,159.1 L166.1,158.3 L166.2,157.4 L166.3,156.5 L166.5,155.6 L166.6,154.7 L166.8,153.7 L166.9,152.8 L167.1,151.8 L167.2,150.7 L167.4,149.7 L167.5,148.6 L167.7,147.5 L167.8,146.4 L168,145.2 L168.1,144 L168.3,142.8 L168.4,141.5 L168.6,140.2 L168.7,138.8 L168.9,137.4 L169,136 L169.2,134.5 L169.3,133 L169.4,131.3 L169.6,129.7 L169.7,127.9 L169.9,126.1 L170,124.3 L170.2,122.3 L170.3,120.3 L170.5,118.1 L170.6,115.9 L170.8,113.6 L170.9,111.1 L171.1,108.6 L171.2,105.9 L171.4,103 L171.5,100 L171.7,96.86 L171.8,93.5 L172,89.93 L172.1,86.14 L172.3,82.1 L172.4,77.78 L172.5,73.16 L172.7,68.19 " fill="none"/></g>
<g clip-path="url(#plot_window)" stroke="rgb(0,0,139)" stroke-width="1"><path d="M106.7,338.2 L106.9,331 L107,324.4 L107.2,318.3 L107.3,312.7 L107.5,307.5 L107.6,302.6 L107.8,298.1 L107.9,293.9 L108.1,289.9 L108.2,286.2 L108.4,282.7 L108.5,279.4 L108.7,276.3 L108.8,273.3 L109,270.5 L109.1,267.8 L109.3,265.3 L109.4,262.9 L109.5,260.6 L109.7,258.4 L109.8,256.3 L110,254.2 L110.1,252.3 L110.3,250.4 L110.4,248.6 L110.6,246.9 L110.7,245.3 L110.9,243.7 L111,242.1 L111.2,240.6 L111.3,239.2 L111.5,237.8 L111.6,236.4 L111.8,235.1 L111.9,233.8 L112,232.6 L112.2,231.4 L112.3,230.2 L112.5,229.1 L112.6,228 L112.8,226.9 L112.9,225.9 L113.1,224.8 L113.2,223.8 L113.4,222.9 L113.5,221.9 L113.7,221 L113.8,220.1 L114,219.2 L114.1,218.3 L114.3,217.4 L114.4,216.6 L114.5,215.8 L114.7,214.9 L114.8,214.2 L115,213.4 L115.1,212.6 L115.3,211.8 L115.4,211.1 L115.6,210.4 L115.7,209.7 L115.9,208.9 L116,208.2 L116.2,207.6 L116.3,206.9 L116.5,206.2 L116.6,205.5 L116.8,204.9 L116.9,204.2 L117,203.6 L117.2,203 L117.3,202.3 L117.5,201.7 L117.6,201.1 L117.8,200.5 L117.9,199.9 L118.1,199.3 L118.2,198.7 L118.4,198.1 L118.5,197.6 L118.7,197 L118.8,196.4 L119,195.9 L119.1,195.3 L119.3,194.7 L119.4,194.2 L119.6,193.6 L119.7,193.1 L119.8,192.5 L120,192 L120.1,191.4 L120.3,190.9 L120.4,190.4 L120.6,189.8 L120.7,189.3 L120.9,188.8 L121,188.2 L121.2,187.7 L121.3,187.2 L121.5,186.6 L121.6,186.1 L121.8,185.6 L121.9,185 L122.1,184.5 L122.2,184 L122.3,183.4 L122.5,182.9 L122.6,182.4 L122.8,181.8 L122.9,181.3 L123.1,180.8 L123.2,180.2 L123.4,179.7 L123.5,179.2 L123.7,178.6 L123.8,178.1 L124,177.5 L124.1,177 L124.3,176.4 L124.4,175.9 L124.6,175.3 L124.7,174.7 L124.8,174.2 L125,173.6 L125.1,173 L125.3,172.5 L125.4,171.9 L125.6,171.3 L125.7,170.7 L125.9,170.1 L126,169.5 L126.2,168.9 L126.3,168.3 L126.5,167.6 L126.6,167 L126.8,166.4 L126.9,165.7 L127.1,165.1 L127.2,164.4 L127.3,163.7 L127.5,163.1 L127.6,162.4 L127.8,161.7 L127.9,161 L128.1,160.2 L128.2,159.5 L128.4,158.8 L128.5,158 L128.7,157.3 L128.8,156.5 L129,155.7 L129.1,154.9 L129.3,154 L129.4,153.2 L129.6,152.3 L129.7,151.5 L129.9,150.6 L130,149.7 L130.1,148.7 L130.3,147.8 L130.4,146.8 L130.6,145.8 L130.7,144.8 L130.9,143.7 L131,142.6 L131.2,141.5 L131.3,140.4 L131.5,139.2 L131.6,138 L131.8,136.8 L131.9,135.5 L132.1,134.2 L132.2,132.8 L132.4,131.4 L132.5,130 L132.6,128.5 L132.8,127 L132.9,125.3 L133.1,123.7 L133.2,122 L133.4,120.2 L133.5,118.3 L133.7,116.3 L133.8,114.3 L134,112.2 L134.1,110 L134.3,107.7 L134.4,105.2 L134.6,102.7 L134.7,100 L134.9,97.21 L135,94.23 L135.1,91.1 L135.3,87.77 L135.4,84.25 L135.6,80.51 L135.7,76.53 L135.9,72.27 L136,67.72 " fill="none"/></g>
<g clip-path="url(#plot_window)" stroke="rgb(0,0,139)" stroke-width="1"><path d="M70.2,338.2 L70.35,330.7 L70.49,323.8 L70.64,317.5 L70.79,311.7 L70.93,306.3 L71.08,301.3 L71.23,296.6 L71.37,292.3 L71.52,288.2 L71.67,284.4 L71.81,280.8 L71.96,277.4 L72.11,274.2 L72.26,271.2 L72.4,268.3 L72.55,265.6 L72.7,263 L72.84,260.5 L72.99,258.1 L73.14,255.9 L73.28,253.7 L73.43,251.7 L73.58,249.7 L73.72,247.8 L73.87,245.9 L74.02,244.2 L74.16,242.5 L74.31,240.9 L74.46,239.3 L74.6,237.8 L74.75,236.3 L74.9,234.9 L75.04,233.5 L75.19,232.2 L75.34,230.9 L75.49,229.6 L75.63,228.4 L75.78,227.2 L75.93,226 L76.07,224.9 L76.22,223.8 L76.37,222.8 L76.51,221.7 L76.66,220.7 L76.81,219.7 L76.95,218.7 L77.1,217.8 L77.25,216.9 L77.39,216 L77.54,215.1 L77.69,214.2 L77.83,213.3 L77.98,212.5 L78.13,211.7 L78.27,210.9 L78.42,210.1 L78.57,209.3 L78.72,208.5 L78.86,207.8 L79.01,207.1 L79.16,206.3 L79.3,205.6 L79.45,204.9 L79.6,204.2 L79.74,203.5 L79.89,202.8 L80.04,202.2 L80.18,201.5 L80.33,200.8 L80.48,200.2 L80.62,199.6 L80.77,198.9 L80.92,198.3 L81.06,197.7 L81.21,197.1 L81.36,196.5 L81.5,195.9 L81.65,195.3 L81.8,194.7 L81.95,194.1 L82.09,193.5 L82.24,192.9 L82.39,192.4 L82.53,191.8 L82.68,191.2 L82.83,190.7 L82.97,190.1 L83.12,189.6 L83.27,189 L83.41,188.5 L83.56,187.9 L83.71,187.4 L83.85,186.8 L84,186.3 L84.15,185.7 L84.29,185.2 L84.44,184.7 L84.59,184.1 L84.73,183.6 L84.88,183.1 L85.03,182.5 L85.18,182 L85.32,181.5 L85.47,180.9 L85.62,180.4 L85.76,179.9 L85.91,179.3 L86.06,178.8 L86.2,178.3 L86.35,177.7 L86.5,177.2 L86.64,176.6 L86.79,176.1 L86.94,175.6 L87.08,175 L87.23,174.5 L87.38,173.9 L87.52,173.4 L87.67,172.8 L87.82,172.3 L87.96,171.7 L88.11,171.1 L88.26,170.6 L88.41,170 L88.55,169.4 L88.7,168.8 L88.85,168.3 L88.99,167.7 L89.14,167.1 L89.29,166.5 L89.43,165.9 L89.58,165.3 L89.73,164.7 L89.87,164 L90.02,163.4 L90.17,162.8 L90.31,162.1 L90.46,161.5 L90.61,160.8 L90.75,160.2 L90.9,159.5 L91.05,158.8 L91.19,158.1 L91.34,157.4 L91.49,156.7 L91.64,156 L91.78,155.2 L91.93,154.5 L92.08,153.7 L92.22,152.9 L92.37,152.1 L92.52,151.3 L92.66,150.5 L92.81,149.7 L92.96,148.9 L93.1,148 L93.25,147.1 L93.4,146.2 L93.54,145.3 L93.69,144.3 L93.84,143.4 L93.98,142.4 L94.13,141.4 L94.28,140.4 L94.42,139.3 L94.57,138.2 L94.72,137.1 L94.87,135.9 L95.01,134.8 L95.16,133.6 L95.31,132.3 L95.45,131 L95.6,129.7 L95.75,128.3 L95.89,126.9 L96.04,125.5 L96.19,124 L96.33,122.4 L96.48,120.8 L96.63,119.1 L96.77,117.4 L96.92,115.6 L97.07,113.7 L97.21,111.7 L97.36,109.7 L97.51,107.6 L97.65,105.4 L97.8,103 L97.95,100.6 L98.1,98.02 L98.24,95.33 L98.39,92.49 L98.54,89.5 L98.68,86.35 L98.83,83.01 L98.98,79.46 L99.12,75.7 L99.27,71.69 L99.42,67.42 " fill="none"/></g>
</g>
<g id="plotPoints" clip-path="url(#plot_window)"><g stroke="rgb(0,0,0)"></g>
<g stroke="rgb(0,0,0)"></g>
<g stroke="rgb(0,0,0)"></g>
<g stroke="rgb(0,0,0)"></g>
<g stroke="rgb(0,0,0)"></g>
</g>
<g id="limitPoints" stroke="rgb(119,136,153)" fill="rgb(250,235,215)"></g>
<g id="legendBackground" stroke="rgb(119,136,153)" fill="rgb(255,255,255)"></g>
<g id="legendPoints"></g>
<g id="legendText"></g>
<g id="title">
<text x="300" y="40" text-anchor="middle" font-size="20" font-family="Verdana">digamma</text></g>
</svg>
