<?xml version="1.0" encoding="UTF-8" standalone="no"?>
<svg width="600" height ="400" version="1.1" xmlns="http://www.w3.org/2000/svg"
 xmlns:xlink="http://www.w3.org/1999/xlink"
 xmlns:ev="http://www.w3.org/2001/xml-events">

<!-- SVG plot written using Boost.Plot program (Creator Jacob Voytko) --> 
<!-- Use, modification and distribution of Boost.Plot subject to the --> 
<!-- Boost Software License, Version 1.0.--> 
<!-- (See accompanying file LICENSE_1_0.txt --> 
<!-- or copy at http://www.boost.org/LICENSE_1_0.txt) --> 

<!-- SVG Plot Copyright John Maddock 2008 --> 
<meta name="copyright" content="John Maddock" />
<meta name="date" content="2008" />
<!-- Use, modification and distribution of this Scalable Vector Graphic file -->
<!-- are subject to the Boost Software License, Version 1.0. -->
<!-- (See accompanying file LICENSE_1_0.txt or copy at http://www.boost.org/LICENSE_1_0.txt) -->

<clipPath id="plot_window"><rect x="71.2" y="63" width="347.7" height="274.2"/></clipPath>
<g id="imageBackground" stroke="rgb(119,136,153)" fill="rgb(255,255,255)" stroke-width="2"><rect x="0" y="0" width="600" height="400"/></g>
<g id="plotBackground" stroke="rgb(119,136,153)" fill="rgb(255,255,255)" stroke-width="2"><rect x="70.2" y="62" width="349.7" height="276.2"/></g>
<g id="yMinorGrid" stroke="rgb(200,220,255)" stroke-width="0.5"></g>
<g id="yMajorGrid" stroke="rgb(200,220,255)" stroke-width="1"></g>
<g id="xMinorGrid" stroke="rgb(200,220,255)" stroke-width="0.5"></g>
<g id="xMajorGrid" stroke="rgb(200,220,255)" stroke-width="1"></g>
<g id="yAxis" stroke="rgb(0,0,0)" stroke-width="1"><line x1="241.6" y1="62" x2="241.6" y2="338.2"/><line x1="70.2" y1="62" x2="70.2" y2="338.2"/></g>
<g id="xAxis" stroke="rgb(0,0,0)" stroke-width="1"><line x1="70.2" y1="338.2" x2="419.9" y2="338.2"/></g>
<g id="yMinorTicks" stroke="rgb(0,0,0)" stroke-width="1"><path d="M68.2,325.9 L70.2,325.9 M68.2,301.3 L70.2,301.3 M68.2,289 L70.2,289 M68.2,276.7 L70.2,276.7 M68.2,252 L70.2,252 M68.2,239.7 L70.2,239.7 M68.2,227.4 L70.2,227.4 M68.2,202.8 L70.2,202.8 M68.2,190.5 L70.2,190.5 M68.2,178.2 L70.2,178.2 M68.2,153.6 L70.2,153.6 M68.2,141.3 L70.2,141.3 M68.2,129 L70.2,129 M68.2,104.3 L70.2,104.3 M68.2,92.03 L70.2,92.03 M68.2,79.72 L70.2,79.72 "/></g>
<g id="xMinorTicks" stroke="rgb(0,0,0)" stroke-width="1"><path d="M263.1,338.2 L263.1,340.2 M284.5,338.2 L284.5,340.2 M305.9,338.2 L305.9,340.2 M348.8,338.2 L348.8,340.2 M370.2,338.2 L370.2,340.2 M391.6,338.2 L391.6,340.2 M220.2,338.2 L220.2,340.2 M198.8,338.2 L198.8,340.2 M177.3,338.2 L177.3,340.2 M134.5,338.2 L134.5,340.2 M113.1,338.2 L113.1,340.2 M91.63,338.2 L91.63,340.2 "/></g>
<g id="yMajorTicks" stroke="rgb(0,0,0)" stroke-width="2"><path d="M65.2,313.6 L70.2,313.6 M65.2,264.3 L70.2,264.3 M65.2,215.1 L70.2,215.1 M65.2,165.9 L70.2,165.9 M65.2,116.6 L70.2,116.6 M65.2,67.42 L70.2,67.42 "/></g>
<g id="xMajorTicks" stroke="rgb(0,0,0)" stroke-width="2"><path d="M241.6,338.2 L241.6,343.2 M327.3,338.2 L327.3,343.2 M413.1,338.2 L413.1,343.2 M241.6,338.2 L241.6,343.2 M155.9,338.2 L155.9,343.2 M70.2,338.2 L70.2,343.2 "/></g>
<g id="plotLabels">
<text x="241.6" y="357.6" text-anchor="middle" font-size="12" font-family="Verdana">0</text>
<text x="327.3" y="357.6" text-anchor="middle" font-size="12" font-family="Verdana">0.5</text>
<text x="413.1" y="357.6" text-anchor="middle" font-size="12" font-family="Verdana">1</text>
<text x="241.6" y="357.6" text-anchor="middle" font-size="12" font-family="Verdana">0</text>
<text x="155.9" y="357.6" text-anchor="middle" font-size="12" font-family="Verdana">-0.5</text>
<text x="70.2" y="357.6" text-anchor="middle" font-size="12" font-family="Verdana">-1</text>
<text x="59.2" y="316" text-anchor="end" font-size="12" font-family="Verdana">1.5</text>
<text x="59.2" y="266.7" text-anchor="end" font-size="12" font-family="Verdana">2</text>
<text x="59.2" y="217.5" text-anchor="end" font-size="12" font-family="Verdana">2.5</text>
<text x="59.2" y="168.3" text-anchor="end" font-size="12" font-family="Verdana">3</text>
<text x="59.2" y="119" text-anchor="end" font-size="12" font-family="Verdana">3.5</text>
<text x="59.2" y="69.82" text-anchor="end" font-size="12" font-family="Verdana">4</text></g>
<g id="yLabel">
<text x="30.2" y="200.1" text-anchor="middle" transform = "rotate(-90 30.2 200.1 )" font-size="14" font-family="Verdana">ellint_3(k, n, phi)</text></g>
<g id="xLabel">
<text x="245.1" y="384" text-anchor="middle" font-size="14" font-family="Verdana">k</text></g>
<g id="plotLines" stroke-width="2"><g clip-path="url(#plot_window)" stroke="rgb(0,0,139)" stroke-width="1"><path d="M70.2,281.9 L71.91,285.5 L73.63,288.6 L75.34,291.3 L77.06,293.8 L78.77,296 L80.49,298 L82.2,299.9 L83.91,301.7 L85.63,303.3 L87.34,304.8 L89.06,306.2 L90.77,307.6 L92.49,308.8 L94.2,310 L95.91,311.1 L97.63,312.2 L99.34,313.2 L101.1,314.2 L102.8,315.1 L104.5,316 L106.2,316.8 L107.9,317.7 L109.6,318.4 L111.3,319.2 L113.1,319.9 L114.8,320.6 L116.5,321.2 L118.2,321.9 L119.9,322.5 L121.6,323.1 L123.3,323.7 L125.1,324.2 L126.8,324.7 L128.5,325.3 L130.2,325.8 L131.9,326.2 L133.6,326.7 L135.3,327.2 L137.1,327.6 L138.8,328 L140.5,328.4 L142.2,328.8 L143.9,329.2 L145.6,329.6 L147.3,329.9 L149.1,330.3 L150.8,330.6 L152.5,330.9 L154.2,331.3 L155.9,331.6 L157.6,331.9 L159.3,332.2 L161.1,332.4 L162.8,332.7 L164.5,333 L166.2,333.2 L167.9,333.5 L169.6,333.7 L171.3,333.9 L173.1,334.2 L174.8,334.4 L176.5,334.6 L178.2,334.8 L179.9,335 L181.6,335.2 L183.3,335.3 L185.1,335.5 L186.8,335.7 L188.5,335.8 L190.2,336 L191.9,336.2 L193.6,336.3 L195.3,336.4 L197.1,336.6 L198.8,336.7 L200.5,336.8 L202.2,336.9 L203.9,337 L205.6,337.1 L207.3,337.2 L209.1,337.3 L210.8,337.4 L212.5,337.5 L214.2,337.6 L215.9,337.7 L217.6,337.7 L219.3,337.8 L221.1,337.9 L222.8,337.9 L224.5,338 L226.2,338 L227.9,338 L229.6,338.1 L231.3,338.1 L233.1,338.1 L234.8,338.2 L236.5,338.2 L238.2,338.2 L239.9,338.2 L241.6,338.2 L243.3,338.2 L245.1,338.2 L246.8,338.2 L248.5,338.2 L250.2,338.1 L251.9,338.1 L253.6,338.1 L255.3,338 L257.1,338 L258.8,338 L260.5,337.9 L262.2,337.9 L263.9,337.8 L265.6,337.7 L267.3,337.7 L269.1,337.6 L270.8,337.5 L272.5,337.4 L274.2,337.3 L275.9,337.2 L277.6,337.1 L279.3,337 L281.1,336.9 L282.8,336.8 L284.5,336.7 L286.2,336.6 L287.9,336.4 L289.6,336.3 L291.3,336.2 L293.1,336 L294.8,335.8 L296.5,335.7 L298.2,335.5 L299.9,335.3 L301.6,335.2 L303.3,335 L305.1,334.8 L306.8,334.6 L308.5,334.4 L310.2,334.2 L311.9,333.9 L313.6,333.7 L315.3,333.5 L317.1,333.2 L318.8,333 L320.5,332.7 L322.2,332.4 L323.9,332.2 L325.6,331.9 L327.3,331.6 L329.1,331.3 L330.8,330.9 L332.5,330.6 L334.2,330.3 L335.9,329.9 L337.6,329.6 L339.3,329.2 L341.1,328.8 L342.8,328.4 L344.5,328 L346.2,327.6 L347.9,327.2 L349.6,326.7 L351.3,326.2 L353.1,325.8 L354.8,325.3 L356.5,324.7 L358.2,324.2 L359.9,323.7 L361.6,323.1 L363.3,322.5 L365.1,321.9 L366.8,321.2 L368.5,320.6 L370.2,319.9 L371.9,319.2 L373.6,318.4 L375.3,317.7 L377.1,316.8 L378.8,316 L380.5,315.1 L382.2,314.2 L383.9,313.2 L385.6,312.2 L387.3,311.1 L389.1,310 L390.8,308.8 L392.5,307.6 L394.2,306.2 L395.9,304.8 L397.6,303.3 L399.3,301.7 L401.1,299.9 L402.8,298 L404.5,296 L406.2,293.8 L407.9,291.3 L409.6,288.6 L411.3,285.5 " fill="none"/></g>
<g clip-path="url(#plot_window)" stroke="rgb(139,0,0)" stroke-width="1"><path d="M70.2,215.7 L71.91,221.6 L73.63,226.6 L75.34,231.1 L77.06,235.1 L78.77,238.7 L80.49,241.9 L82.2,245 L83.91,247.7 L85.63,250.3 L87.34,252.7 L89.06,254.9 L90.77,257.1 L92.49,259 L94.2,260.9 L95.91,262.7 L97.63,264.3 L99.34,265.9 L101.1,267.4 L102.8,268.8 L104.5,270.2 L106.2,271.5 L107.9,272.8 L109.6,274 L111.3,275.1 L113.1,276.2 L114.8,277.3 L116.5,278.3 L118.2,279.2 L119.9,280.2 L121.6,281.1 L123.3,282 L125.1,282.8 L126.8,283.6 L128.5,284.4 L130.2,285.1 L131.9,285.9 L133.6,286.6 L135.3,287.2 L137.1,287.9 L138.8,288.5 L140.5,289.2 L142.2,289.7 L143.9,290.3 L145.6,290.9 L147.3,291.4 L149.1,291.9 L150.8,292.4 L152.5,292.9 L154.2,293.4 L155.9,293.9 L157.6,294.3 L159.3,294.7 L161.1,295.2 L162.8,295.6 L164.5,296 L166.2,296.3 L167.9,296.7 L169.6,297.1 L171.3,297.4 L173.1,297.7 L174.8,298 L176.5,298.4 L178.2,298.7 L179.9,298.9 L181.6,299.2 L183.3,299.5 L185.1,299.8 L186.8,300 L188.5,300.2 L190.2,300.5 L191.9,300.7 L193.6,300.9 L195.3,301.1 L197.1,301.3 L198.8,301.5 L200.5,301.7 L202.2,301.8 L203.9,302 L205.6,302.2 L207.3,302.3 L209.1,302.4 L210.8,302.6 L212.5,302.7 L214.2,302.8 L215.9,302.9 L217.6,303 L219.3,303.1 L221.1,303.2 L222.8,303.3 L224.5,303.4 L226.2,303.4 L227.9,303.5 L229.6,303.5 L231.3,303.6 L233.1,303.6 L234.8,303.7 L236.5,303.7 L238.2,303.7 L239.9,303.7 L241.6,303.7 L243.3,303.7 L245.1,303.7 L246.8,303.7 L248.5,303.7 L250.2,303.6 L251.9,303.6 L253.6,303.5 L255.3,303.5 L257.1,303.4 L258.8,303.4 L260.5,303.3 L262.2,303.2 L263.9,303.1 L265.6,303 L267.3,302.9 L269.1,302.8 L270.8,302.7 L272.5,302.6 L274.2,302.4 L275.9,302.3 L277.6,302.2 L279.3,302 L281.1,301.8 L282.8,301.7 L284.5,301.5 L286.2,301.3 L287.9,301.1 L289.6,300.9 L291.3,300.7 L293.1,300.5 L294.8,300.2 L296.5,300 L298.2,299.8 L299.9,299.5 L301.6,299.2 L303.3,298.9 L305.1,298.7 L306.8,298.4 L308.5,298 L310.2,297.7 L311.9,297.4 L313.6,297.1 L315.3,296.7 L317.1,296.3 L318.8,296 L320.5,295.6 L322.2,295.2 L323.9,294.7 L325.6,294.3 L327.3,293.9 L329.1,293.4 L330.8,292.9 L332.5,292.4 L334.2,291.9 L335.9,291.4 L337.6,290.9 L339.3,290.3 L341.1,289.7 L342.8,289.2 L344.5,288.5 L346.2,287.9 L347.9,287.2 L349.6,286.6 L351.3,285.9 L353.1,285.1 L354.8,284.4 L356.5,283.6 L358.2,282.8 L359.9,282 L361.6,281.1 L363.3,280.2 L365.1,279.2 L366.8,278.3 L368.5,277.3 L370.2,276.2 L371.9,275.1 L373.6,274 L375.3,272.8 L377.1,271.5 L378.8,270.2 L380.5,268.8 L382.2,267.4 L383.9,265.9 L385.6,264.3 L387.3,262.7 L389.1,260.9 L390.8,259 L392.5,257.1 L394.2,254.9 L395.9,252.7 L397.6,250.3 L399.3,247.7 L401.1,245 L402.8,241.9 L404.5,238.7 L406.2,235.1 L407.9,231.1 L409.6,226.6 L411.3,221.6 " fill="none"/></g>
<g clip-path="url(#plot_window)" stroke="rgb(0,100,0)" stroke-width="1"><path d="M72.26,67.42 L73.95,105 L75.64,127.8 L77.34,144.1 L79.03,156.7 L80.73,166.9 L82.42,175.5 L84.11,182.8 L85.81,189.2 L87.5,194.9 L89.19,199.9 L90.89,204.5 L92.58,208.7 L94.28,212.5 L95.97,216 L97.66,219.2 L99.36,222.3 L101.1,225.1 L102.7,227.7 L104.4,230.2 L106.1,232.5 L107.8,234.7 L109.5,236.8 L111.2,238.7 L112.9,240.6 L114.6,242.4 L116.3,244.1 L118,245.7 L119.7,247.2 L121.4,248.7 L123.1,250.1 L124.8,251.4 L126.5,252.7 L128.2,253.9 L129.8,255.1 L131.5,256.2 L133.2,257.3 L134.9,258.4 L136.6,259.4 L138.3,260.4 L140,261.3 L141.7,262.2 L143.4,263.1 L145.1,263.9 L146.8,264.7 L148.5,265.5 L150.2,266.3 L151.9,267 L153.6,267.7 L155.3,268.4 L156.9,269 L158.6,269.6 L160.3,270.3 L162,270.9 L163.7,271.4 L165.4,272 L167.1,272.5 L168.8,273 L170.5,273.5 L172.2,274 L173.9,274.5 L175.6,274.9 L177.3,275.3 L179,275.7 L180.7,276.1 L182.4,276.5 L184,276.9 L185.7,277.3 L187.4,277.6 L189.1,277.9 L190.8,278.3 L192.5,278.6 L194.2,278.9 L195.9,279.1 L197.6,279.4 L199.3,279.7 L201,279.9 L202.7,280.1 L204.4,280.4 L206.1,280.6 L207.8,280.8 L209.5,281 L211.1,281.1 L212.8,281.3 L214.5,281.5 L216.2,281.6 L217.9,281.8 L219.6,281.9 L221.3,282 L223,282.1 L224.7,282.2 L226.4,282.3 L228.1,282.4 L229.8,282.5 L231.5,282.5 L233.2,282.6 L234.9,282.6 L236.6,282.6 L238.2,282.7 L239.9,282.7 L241.6,282.7 L243.3,282.7 L245,282.7 L246.7,282.6 L248.4,282.6 L250.1,282.6 L251.8,282.5 L253.5,282.5 L255.2,282.4 L256.9,282.3 L258.6,282.2 L260.3,282.1 L262,282 L263.7,281.9 L265.3,281.8 L267,281.6 L268.7,281.5 L270.4,281.3 L272.1,281.1 L273.8,281 L275.5,280.8 L277.2,280.6 L278.9,280.4 L280.6,280.1 L282.3,279.9 L284,279.7 L285.7,279.4 L287.4,279.1 L289.1,278.9 L290.7,278.6 L292.4,278.3 L294.1,277.9 L295.8,277.6 L297.5,277.3 L299.2,276.9 L300.9,276.5 L302.6,276.1 L304.3,275.7 L306,275.3 L307.7,274.9 L309.4,274.5 L311.1,274 L312.8,273.5 L314.5,273 L316.2,272.5 L317.8,272 L319.5,271.4 L321.2,270.9 L322.9,270.3 L324.6,269.6 L326.3,269 L328,268.4 L329.7,267.7 L331.4,267 L333.1,266.3 L334.8,265.5 L336.5,264.7 L338.2,263.9 L339.9,263.1 L341.6,262.2 L343.3,261.3 L344.9,260.4 L346.6,259.4 L348.3,258.4 L350,257.3 L351.7,256.2 L353.4,255.1 L355.1,253.9 L356.8,252.7 L358.5,251.4 L360.2,250.1 L361.9,248.7 L363.6,247.2 L365.3,245.7 L367,244.1 L368.7,242.4 L370.4,240.6 L372,238.7 L373.7,236.8 L375.4,234.7 L377.1,232.5 L378.8,230.2 L380.5,227.7 L382.2,225.1 L383.9,222.3 L385.6,219.2 L387.3,216 L389,212.5 L390.7,208.7 L392.4,204.5 L394.1,199.9 L395.8,194.9 L397.5,189.2 L399.1,182.8 L400.8,175.5 L402.5,166.9 L404.2,156.7 L405.9,144.1 L407.6,127.8 L409.3,105 " fill="none"/></g>
<g clip-path="url(#plot_window)" stroke="rgb(255,140,0)" stroke-width="1"><path d="M117.1,67.42 L118.4,70.1 L119.6,72.69 L120.9,75.18 L122.1,77.59 L123.4,79.92 L124.6,82.18 L125.9,84.36 L127.1,86.46 L128.4,88.51 L129.6,90.48 L130.8,92.4 L132.1,94.26 L133.3,96.06 L134.6,97.81 L135.8,99.51 L137.1,101.2 L138.3,102.8 L139.6,104.3 L140.8,105.8 L142,107.3 L143.3,108.7 L144.5,110.1 L145.8,111.5 L147,112.8 L148.3,114.1 L149.5,115.3 L150.8,116.5 L152,117.7 L153.2,118.8 L154.5,120 L155.7,121.1 L157,122.1 L158.2,123.1 L159.5,124.2 L160.7,125.1 L162,126.1 L163.2,127 L164.5,127.9 L165.7,128.8 L166.9,129.7 L168.2,130.5 L169.4,131.3 L170.7,132.1 L171.9,132.9 L173.2,133.6 L174.4,134.4 L175.7,135.1 L176.9,135.8 L178.1,136.4 L179.4,137.1 L180.6,137.7 L181.9,138.4 L183.1,139 L184.4,139.6 L185.6,140.1 L186.9,140.7 L188.1,141.2 L189.3,141.8 L190.6,142.3 L191.8,142.8 L193.1,143.2 L194.3,143.7 L195.6,144.1 L196.8,144.6 L198.1,145 L199.3,145.4 L200.6,145.8 L201.8,146.2 L203,146.5 L204.3,146.9 L205.5,147.2 L206.8,147.6 L208,147.9 L209.3,148.2 L210.5,148.5 L211.8,148.7 L213,149 L214.2,149.3 L215.5,149.5 L216.7,149.7 L218,150 L219.2,150.2 L220.5,150.4 L221.7,150.5 L223,150.7 L224.2,150.9 L225.4,151 L226.7,151.2 L227.9,151.3 L229.2,151.4 L230.4,151.5 L231.7,151.6 L232.9,151.7 L234.2,151.7 L235.4,151.8 L236.7,151.9 L237.9,151.9 L239.1,151.9 L240.4,151.9 L241.6,151.9 L242.9,151.9 L244.1,151.9 L245.4,151.9 L246.6,151.9 L247.9,151.8 L249.1,151.7 L250.3,151.7 L251.6,151.6 L252.8,151.5 L254.1,151.4 L255.3,151.3 L256.6,151.2 L257.8,151 L259.1,150.9 L260.3,150.7 L261.5,150.5 L262.8,150.4 L264,150.2 L265.3,150 L266.5,149.7 L267.8,149.5 L269,149.3 L270.3,149 L271.5,148.7 L272.8,148.5 L274,148.2 L275.2,147.9 L276.5,147.6 L277.7,147.2 L279,146.9 L280.2,146.5 L281.5,146.2 L282.7,145.8 L284,145.4 L285.2,145 L286.4,144.6 L287.7,144.1 L288.9,143.7 L290.2,143.2 L291.4,142.8 L292.7,142.3 L293.9,141.8 L295.2,141.2 L296.4,140.7 L297.6,140.1 L298.9,139.6 L300.1,139 L301.4,138.4 L302.6,137.7 L303.9,137.1 L305.1,136.4 L306.4,135.8 L307.6,135.1 L308.9,134.4 L310.1,133.6 L311.3,132.9 L312.6,132.1 L313.8,131.3 L315.1,130.5 L316.3,129.7 L317.6,128.8 L318.8,127.9 L320.1,127 L321.3,126.1 L322.5,125.1 L323.8,124.2 L325,123.1 L326.3,122.1 L327.5,121.1 L328.8,120 L330,118.8 L331.3,117.7 L332.5,116.5 L333.7,115.3 L335,114.1 L336.2,112.8 L337.5,111.5 L338.7,110.1 L340,108.7 L341.2,107.3 L342.5,105.8 L343.7,104.3 L345,102.8 L346.2,101.2 L347.4,99.51 L348.7,97.81 L349.9,96.06 L351.2,94.26 L352.4,92.4 L353.7,90.48 L354.9,88.51 L356.2,86.46 L357.4,84.36 L358.6,82.18 L359.9,79.92 L361.1,77.59 L362.4,75.18 L363.6,72.69 L364.9,70.1 L366.1,67.42 " fill="none"/></g>
</g>
<g id="plotPoints" clip-path="url(#plot_window)"><g stroke="rgb(0,0,0)"></g>
<g stroke="rgb(0,0,0)"></g>
<g stroke="rgb(0,0,0)"></g>
<g stroke="rgb(0,0,0)"></g>
</g>
<g id="limitPoints" stroke="rgb(119,136,153)" fill="rgb(250,235,215)"></g>
<g id="legendBackground" stroke="rgb(119,136,153)" fill="rgb(255,255,255)" stroke-width="1"><rect x="433.9" y="62" width="154.1" height="126"/><rect x="433.9" y="62" width="154.1" height="126"/></g>
<g id="legendPoints"><g stroke="rgb(0,0,139)" stroke-width="1"><line x1="447.9" y1="90" x2="461.9" y2="90"/></g>
<g stroke="rgb(139,0,0)" stroke-width="1"><line x1="447.9" y1="118" x2="461.9" y2="118"/></g>
<g stroke="rgb(0,100,0)" stroke-width="1"><line x1="447.9" y1="146" x2="461.9" y2="146"/></g>
<g stroke="rgb(255,140,0)" stroke-width="1"><line x1="447.9" y1="174" x2="461.9" y2="174"/></g>
</g>
<g id="legendText">
<text x="468.9" y="90" font-size="14" font-family="Verdana">n=0 &#x3C6;=1.25</text>
<text x="468.9" y="118" font-size="14" font-family="Verdana">n=0.5 &#x3C6;=1.25</text>
<text x="468.9" y="146" font-size="14" font-family="Verdana">n=0.25 &#x3C6;=&#x3C0;/2</text>
<text x="468.9" y="174" font-size="14" font-family="Verdana">n=0.75 &#x3C6;=&#x3C0;/2</text></g>
<g id="title">
<text x="300" y="40" text-anchor="middle" font-size="20" font-family="Verdana">Elliptic Of the Third Kind</text></g>
</svg>
