<?xml version="1.0" encoding="UTF-8" standalone="no"?>
<svg width="600" height ="400" version="1.1" xmlns="http://www.w3.org/2000/svg"
 xmlns:xlink="http://www.w3.org/1999/xlink"
 xmlns:ev="http://www.w3.org/2001/xml-events">

<!-- SVG plot written using Boost.Plot program (Creator Jacob Voytko) --> 
<!-- Use, modification and distribution of Boost.Plot subject to the --> 
<!-- Boost Software License, Version 1.0.--> 
<!-- (See accompanying file LICENSE_1_0.txt --> 
<!-- or copy at http://www.boost.org/LICENSE_1_0.txt) --> 

<!-- SVG Plot Copyright John Maddock 2008 --> 
<meta name="copyright" content="John Maddock" />
<meta name="date" content="2008" />
<!-- Use, modification and distribution of this Scalable Vector Graphic file -->
<!-- are subject to the Boost Software License, Version 1.0. -->
<!-- (See accompanying file LICENSE_1_0.txt or copy at http://www.boost.org/LICENSE_1_0.txt) -->

<clipPath id="plot_window"><rect x="62.8" y="63" width="434.5" height="274.2"/></clipPath>
<g id="imageBackground" stroke="rgb(119,136,153)" fill="rgb(255,255,255)" stroke-width="2"><rect x="0" y="0" width="600" height="400"/></g>
<g id="plotBackground" stroke="rgb(119,136,153)" fill="rgb(255,255,255)" stroke-width="2"><rect x="61.8" y="62" width="436.5" height="276.2"/></g>
<g id="yMinorGrid" stroke="rgb(200,220,255)" stroke-width="0.5"></g>
<g id="yMajorGrid" stroke="rgb(200,220,255)" stroke-width="1"></g>
<g id="xMinorGrid" stroke="rgb(200,220,255)" stroke-width="0.5"></g>
<g id="xMajorGrid" stroke="rgb(200,220,255)" stroke-width="1"></g>
<g id="yAxis" stroke="rgb(0,0,0)" stroke-width="1"><line x1="61.8" y1="62" x2="61.8" y2="338.2"/></g>
<g id="xAxis" stroke="rgb(0,0,0)" stroke-width="1"><line x1="61.8" y1="338.2" x2="498.3" y2="338.2"/></g>
<g id="yMinorTicks" stroke="rgb(0,0,0)" stroke-width="1"><path d="M59.8,334.8 L61.8,334.8 M59.8,327.9 L61.8,327.9 M59.8,321.1 L61.8,321.1 M59.8,307.4 L61.8,307.4 M59.8,300.5 L61.8,300.5 M59.8,293.7 L61.8,293.7 M59.8,279.9 L61.8,279.9 M59.8,273.1 L61.8,273.1 M59.8,266.2 L61.8,266.2 M59.8,252.5 L61.8,252.5 M59.8,245.7 L61.8,245.7 M59.8,238.8 L61.8,238.8 M59.8,225.1 L61.8,225.1 M59.8,218.2 L61.8,218.2 M59.8,211.4 L61.8,211.4 M59.8,197.7 L61.8,197.7 M59.8,190.8 L61.8,190.8 M59.8,184 L61.8,184 M59.8,170.3 L61.8,170.3 M59.8,163.4 L61.8,163.4 M59.8,156.5 L61.8,156.5 M59.8,142.8 L61.8,142.8 M59.8,136 L61.8,136 M59.8,129.1 L61.8,129.1 M59.8,115.4 L61.8,115.4 M59.8,108.6 L61.8,108.6 M59.8,101.7 L61.8,101.7 M59.8,87.98 L61.8,87.98 M59.8,81.13 L61.8,81.13 M59.8,74.27 L61.8,74.27 "/></g>
<g id="xMinorTicks" stroke="rgb(0,0,0)" stroke-width="1"><path d="M87.54,338.2 L87.54,340.2 M114.4,338.2 L114.4,340.2 M141.2,338.2 L141.2,340.2 M194.8,338.2 L194.8,340.2 M221.6,338.2 L221.6,340.2 M248.4,338.2 L248.4,340.2 M302.1,338.2 L302.1,340.2 M328.9,338.2 L328.9,340.2 M355.7,338.2 L355.7,340.2 M409.3,338.2 L409.3,340.2 M436.1,338.2 L436.1,340.2 M462.9,338.2 L462.9,340.2 "/></g>
<g id="yMajorTicks" stroke="rgb(0,0,0)" stroke-width="2"><path d="M56.8,314.2 L61.8,314.2 M56.8,286.8 L61.8,286.8 M56.8,259.4 L61.8,259.4 M56.8,232 L61.8,232 M56.8,204.5 L61.8,204.5 M56.8,177.1 L61.8,177.1 M56.8,149.7 L61.8,149.7 M56.8,122.3 L61.8,122.3 M56.8,94.84 L61.8,94.84 M56.8,67.42 L61.8,67.42 "/></g>
<g id="xMajorTicks" stroke="rgb(0,0,0)" stroke-width="2"><path d="M168,338.2 L168,343.2 M275.2,338.2 L275.2,343.2 M382.5,338.2 L382.5,343.2 M489.8,338.2 L489.8,343.2 "/></g>
<g id="plotLabels">
<text x="168" y="357.6" text-anchor="middle" font-size="12" font-family="Verdana">1</text>
<text x="275.2" y="357.6" text-anchor="middle" font-size="12" font-family="Verdana">2</text>
<text x="382.5" y="357.6" text-anchor="middle" font-size="12" font-family="Verdana">3</text>
<text x="489.8" y="357.6" text-anchor="middle" font-size="12" font-family="Verdana">4</text>
<text x="50.8" y="316.6" text-anchor="end" font-size="12" font-family="Verdana">1</text>
<text x="50.8" y="289.2" text-anchor="end" font-size="12" font-family="Verdana">2</text>
<text x="50.8" y="261.8" text-anchor="end" font-size="12" font-family="Verdana">3</text>
<text x="50.8" y="234.4" text-anchor="end" font-size="12" font-family="Verdana">4</text>
<text x="50.8" y="206.9" text-anchor="end" font-size="12" font-family="Verdana">5</text>
<text x="50.8" y="179.5" text-anchor="end" font-size="12" font-family="Verdana">6</text>
<text x="50.8" y="152.1" text-anchor="end" font-size="12" font-family="Verdana">7</text>
<text x="50.8" y="124.7" text-anchor="end" font-size="12" font-family="Verdana">8</text>
<text x="50.8" y="97.24" text-anchor="end" font-size="12" font-family="Verdana">9</text>
<text x="50.8" y="69.82" text-anchor="end" font-size="12" font-family="Verdana">10</text></g>
<g id="yLabel">
<text x="30.2" y="200.1" text-anchor="middle" transform = "rotate(-90 30.2 200.1 )" font-size="14" font-family="Verdana"></text></g>
<g id="xLabel">
<text x="280.1" y="384" text-anchor="middle" font-size="14" font-family="Verdana">x</text></g>
<g id="plotLines" stroke-width="2"><g clip-path="url(#plot_window)" stroke="rgb(0,0,139)" stroke-width="1"><path d="M83.84,67.42 L85.87,99.95 L87.89,126.5 L89.92,148.6 L91.95,167.1 L93.98,182.8 L96.01,196.3 L98.04,208 L100.1,218.2 L102.1,227.2 L104.1,235.1 L106.2,242.2 L108.2,248.5 L110.2,254.2 L112.3,259.3 L114.3,263.9 L116.3,268.1 L118.3,272 L120.4,275.5 L122.4,278.8 L124.4,281.7 L126.5,284.5 L128.5,287 L130.5,289.4 L132.5,291.6 L134.6,293.7 L136.6,295.6 L138.6,297.4 L140.7,299 L142.7,300.6 L144.7,302.1 L146.8,303.5 L148.8,304.8 L150.8,306 L152.8,307.2 L154.9,308.3 L156.9,309.4 L158.9,310.4 L161,311.3 L163,312.2 L165,313.1 L167.1,313.9 L169.1,314.6 L171.1,315.4 L173.1,316.1 L175.2,316.8 L177.2,317.4 L179.2,318 L181.3,318.6 L183.3,319.2 L185.3,319.7 L187.3,320.3 L189.4,320.8 L191.4,321.3 L193.4,321.7 L195.5,322.2 L197.5,322.6 L199.5,323 L201.6,323.4 L203.6,323.8 L205.6,324.2 L207.6,324.5 L209.7,324.9 L211.7,325.2 L213.7,325.6 L215.8,325.9 L217.8,326.2 L219.8,326.5 L221.9,326.8 L223.9,327 L225.9,327.3 L227.9,327.6 L230,327.8 L232,328.1 L234,328.3 L236.1,328.5 L238.1,328.8 L240.1,329 L242.1,329.2 L244.2,329.4 L246.2,329.6 L248.2,329.8 L250.3,330 L252.3,330.2 L254.3,330.3 L256.4,330.5 L258.4,330.7 L260.4,330.9 L262.4,331 L264.5,331.2 L266.5,331.3 L268.5,331.5 L270.6,331.6 L272.6,331.8 L274.6,331.9 L276.7,332.1 L278.7,332.2 L280.7,332.3 L282.7,332.4 L284.8,332.6 L286.8,332.7 L288.8,332.8 L290.9,332.9 L292.9,333 L294.9,333.2 L296.9,333.3 L299,333.4 L301,333.5 L303,333.6 L305.1,333.7 L307.1,333.8 L309.1,333.9 L311.2,334 L313.2,334.1 L315.2,334.1 L317.2,334.2 L319.3,334.3 L321.3,334.4 L323.3,334.5 L325.4,334.6 L327.4,334.7 L329.4,334.7 L331.4,334.8 L333.5,334.9 L335.5,335 L337.5,335 L339.6,335.1 L341.6,335.2 L343.6,335.3 L345.7,335.3 L347.7,335.4 L349.7,335.5 L351.7,335.5 L353.8,335.6 L355.8,335.6 L357.8,335.7 L359.9,335.8 L361.9,335.8 L363.9,335.9 L366,335.9 L368,336 L370,336.1 L372,336.1 L374.1,336.2 L376.1,336.2 L378.1,336.3 L380.2,336.3 L382.2,336.4 L384.2,336.4 L386.2,336.5 L388.3,336.5 L390.3,336.6 L392.3,336.6 L394.4,336.7 L396.4,336.7 L398.4,336.7 L400.5,336.8 L402.5,336.8 L404.5,336.9 L406.5,336.9 L408.6,337 L410.6,337 L412.6,337 L414.7,337.1 L416.7,337.1 L418.7,337.2 L420.8,337.2 L422.8,337.2 L424.8,337.3 L426.8,337.3 L428.9,337.3 L430.9,337.4 L432.9,337.4 L435,337.4 L437,337.5 L439,337.5 L441,337.5 L443.1,337.6 L445.1,337.6 L447.1,337.6 L449.2,337.7 L451.2,337.7 L453.2,337.7 L455.3,337.8 L457.3,337.8 L459.3,337.8 L461.3,337.9 L463.4,337.9 L465.4,337.9 L467.4,337.9 L469.5,338 L471.5,338 L473.5,338 L475.6,338 L477.6,338.1 L479.6,338.1 L481.6,338.1 L483.7,338.2 L485.7,338.2 L487.7,338.2 " fill="none"/></g>
<g clip-path="url(#plot_window)" stroke="rgb(139,0,0)" stroke-width="1"><path d="M61.8,67.42 L63.94,183.2 L66.08,218.9 L68.22,237.9 L70.36,250.1 L72.5,258.9 L74.64,265.5 L76.78,270.8 L78.92,275.1 L81.06,278.7 L83.2,281.7 L85.34,284.4 L87.48,286.7 L89.62,288.8 L91.76,290.7 L93.9,292.3 L96.04,293.9 L98.18,295.2 L100.3,296.5 L102.5,297.7 L104.6,298.8 L106.7,299.8 L108.9,300.7 L111,301.6 L113.2,302.4 L115.3,303.2 L117.4,303.9 L119.6,304.6 L121.7,305.3 L123.9,305.9 L126,306.5 L128.1,307.1 L130.3,307.6 L132.4,308.1 L134.6,308.6 L136.7,309.1 L138.8,309.5 L141,309.9 L143.1,310.4 L145.3,310.8 L147.4,311.1 L149.5,311.5 L151.7,311.9 L153.8,312.2 L156,312.5 L158.1,312.9 L160.2,313.2 L162.4,313.5 L164.5,313.8 L166.7,314.1 L168.8,314.3 L170.9,314.6 L173.1,314.9 L175.2,315.1 L177.3,315.4 L179.5,315.6 L181.6,315.8 L183.8,316 L185.9,316.3 L188,316.5 L190.2,316.7 L192.3,316.9 L194.5,317.1 L196.6,317.3 L198.7,317.5 L200.9,317.7 L203,317.8 L205.2,318 L207.3,318.2 L209.4,318.4 L211.6,318.5 L213.7,318.7 L215.9,318.8 L218,319 L220.1,319.2 L222.3,319.3 L224.4,319.5 L226.6,319.6 L228.7,319.7 L230.8,319.9 L233,320 L235.1,320.1 L237.3,320.3 L239.4,320.4 L241.5,320.5 L243.7,320.7 L245.8,320.8 L248,320.9 L250.1,321 L252.2,321.1 L254.4,321.2 L256.5,321.4 L258.7,321.5 L260.8,321.6 L262.9,321.7 L265.1,321.8 L267.2,321.9 L269.4,322 L271.5,322.1 L273.6,322.2 L275.8,322.3 L277.9,322.4 L280.1,322.5 L282.2,322.6 L284.3,322.7 L286.5,322.7 L288.6,322.8 L290.8,322.9 L292.9,323 L295,323.1 L297.2,323.2 L299.3,323.3 L301.5,323.3 L303.6,323.4 L305.7,323.5 L307.9,323.6 L310,323.7 L312.2,323.7 L314.3,323.8 L316.4,323.9 L318.6,324 L320.7,324 L322.9,324.1 L325,324.2 L327.1,324.3 L329.3,324.3 L331.4,324.4 L333.6,324.5 L335.7,324.5 L337.8,324.6 L340,324.7 L342.1,324.7 L344.3,324.8 L346.4,324.8 L348.5,324.9 L350.7,325 L352.8,325 L355,325.1 L357.1,325.2 L359.2,325.2 L361.4,325.3 L363.5,325.3 L365.7,325.4 L367.8,325.4 L369.9,325.5 L372.1,325.6 L374.2,325.6 L376.4,325.7 L378.5,325.7 L380.6,325.8 L382.8,325.8 L384.9,325.9 L387.1,325.9 L389.2,326 L391.3,326 L393.5,326.1 L395.6,326.1 L397.7,326.2 L399.9,326.2 L402,326.3 L404.2,326.3 L406.3,326.4 L408.4,326.4 L410.6,326.5 L412.7,326.5 L414.9,326.6 L417,326.6 L419.1,326.7 L421.3,326.7 L423.4,326.7 L425.6,326.8 L427.7,326.8 L429.8,326.9 L432,326.9 L434.1,327 L436.3,327 L438.4,327 L440.5,327.1 L442.7,327.1 L444.8,327.2 L447,327.2 L449.1,327.2 L451.2,327.3 L453.4,327.3 L455.5,327.4 L457.7,327.4 L459.8,327.4 L461.9,327.5 L464.1,327.5 L466.2,327.5 L468.4,327.6 L470.5,327.6 L472.6,327.7 L474.8,327.7 L476.9,327.7 L479.1,327.8 L481.2,327.8 L483.3,327.8 L485.5,327.9 L487.6,327.9 " fill="none"/></g>
</g>
<g id="plotPoints" clip-path="url(#plot_window)"><g stroke="rgb(0,0,0)"></g>
<g stroke="rgb(0,0,0)"></g>
</g>
<g id="limitPoints" stroke="rgb(119,136,153)" fill="rgb(250,235,215)"></g>
<g id="legendBackground" stroke="rgb(119,136,153)" fill="rgb(255,255,255)" stroke-width="1"><rect x="512.3" y="62" width="75.68" height="70"/><rect x="512.3" y="62" width="75.68" height="70"/></g>
<g id="legendPoints"><g stroke="rgb(0,0,139)" stroke-width="1"><line x1="526.3" y1="90" x2="540.3" y2="90"/></g>
<g stroke="rgb(139,0,0)" stroke-width="1"><line x1="526.3" y1="118" x2="540.3" y2="118"/></g>
</g>
<g id="legendText">
<text x="547.3" y="90" font-size="14" font-family="Verdana">RJ</text>
<text x="547.3" y="118" font-size="14" font-family="Verdana">RF</text></g>
<g id="title">
<text x="300" y="40" text-anchor="middle" font-size="20" font-family="Verdana">Elliptic Integrals</text></g>
</svg>
