<?xml version="1.0" encoding="UTF-8" standalone="no"?>
<svg width="600" height ="400" version="1.1" xmlns="http://www.w3.org/2000/svg"
 xmlns:xlink="http://www.w3.org/1999/xlink"
 xmlns:ev="http://www.w3.org/2001/xml-events">

<!-- SVG plot written using Boost.Plot program (Creator Jacob Voytko) --> 
<!-- Use, modification and distribution of Boost.Plot subject to the --> 
<!-- Boost Software License, Version 1.0.--> 
<!-- (See accompanying file LICENSE_1_0.txt --> 
<!-- or copy at http://www.boost.org/LICENSE_1_0.txt) --> 

<!-- SVG Plot Copyright John Maddock 2008 --> 
<meta name="copyright" content="John Maddock" />
<meta name="date" content="2008" />
<!-- Use, modification and distribution of this Scalable Vector Graphic file -->
<!-- are subject to the Boost Software License, Version 1.0. -->
<!-- (See accompanying file LICENSE_1_0.txt or copy at http://www.boost.org/LICENSE_1_0.txt) -->

<clipPath id="plot_window"><rect x="71.2" y="63" width="394.8" height="274.2"/></clipPath>
<g id="imageBackground" stroke="rgb(119,136,153)" fill="rgb(255,255,255)" stroke-width="2"><rect x="0" y="0" width="600" height="400"/></g>
<g id="plotBackground" stroke="rgb(119,136,153)" fill="rgb(255,255,255)" stroke-width="2"><rect x="70.2" y="62" width="396.8" height="276.2"/></g>
<g id="yMinorGrid" stroke="rgb(200,220,255)" stroke-width="0.5"></g>
<g id="yMajorGrid" stroke="rgb(200,220,255)" stroke-width="1"></g>
<g id="xMinorGrid" stroke="rgb(200,220,255)" stroke-width="0.5"></g>
<g id="xMajorGrid" stroke="rgb(200,220,255)" stroke-width="1"></g>
<g id="yAxis" stroke="rgb(0,0,0)" stroke-width="1"><line x1="264.7" y1="62" x2="264.7" y2="338.2"/><line x1="70.2" y1="62" x2="70.2" y2="338.2"/></g>
<g id="xAxis" stroke="rgb(0,0,0)" stroke-width="1"><line x1="70.2" y1="338.2" x2="467" y2="338.2"/></g>
<g id="yMinorTicks" stroke="rgb(0,0,0)" stroke-width="1"><path d="M68.2,319.2 L70.2,319.2 M68.2,300.2 L70.2,300.2 M68.2,281.2 L70.2,281.2 M68.2,243.2 L70.2,243.2 M68.2,224.1 L70.2,224.1 M68.2,205.1 L70.2,205.1 M68.2,167.1 L70.2,167.1 M68.2,148.1 L70.2,148.1 M68.2,129.1 L70.2,129.1 M68.2,91.07 L70.2,91.07 M68.2,72.06 L70.2,72.06 "/></g>
<g id="xMinorTicks" stroke="rgb(0,0,0)" stroke-width="1"><path d="M291.7,338.2 L291.7,340.2 M318.7,338.2 L318.7,340.2 M345.7,338.2 L345.7,340.2 M399.8,338.2 L399.8,340.2 M426.8,338.2 L426.8,340.2 M453.8,338.2 L453.8,340.2 M237.7,338.2 L237.7,340.2 M210.7,338.2 L210.7,340.2 M183.7,338.2 L183.7,340.2 M129.6,338.2 L129.6,340.2 M102.6,338.2 L102.6,340.2 M75.6,338.2 L75.6,340.2 "/></g>
<g id="yMajorTicks" stroke="rgb(0,0,0)" stroke-width="2"><path d="M65.2,338.2 L70.2,338.2 M65.2,262.2 L70.2,262.2 M65.2,186.1 L70.2,186.1 M65.2,110.1 L70.2,110.1 "/></g>
<g id="xMajorTicks" stroke="rgb(0,0,0)" stroke-width="2"><path d="M264.7,338.2 L264.7,343.2 M372.7,338.2 L372.7,343.2 M264.7,338.2 L264.7,343.2 M156.6,338.2 L156.6,343.2 "/></g>
<g id="plotLabels">
<text x="264.7" y="357.6" text-anchor="middle" font-size="12" font-family="Verdana">0</text>
<text x="372.7" y="357.6" text-anchor="middle" font-size="12" font-family="Verdana">0.5</text>
<text x="264.7" y="357.6" text-anchor="middle" font-size="12" font-family="Verdana">0</text>
<text x="156.6" y="357.6" text-anchor="middle" font-size="12" font-family="Verdana">-0.5</text>
<text x="59.2" y="340.6" text-anchor="end" font-size="12" font-family="Verdana">0.5</text>
<text x="59.2" y="264.6" text-anchor="end" font-size="12" font-family="Verdana">1</text>
<text x="59.2" y="188.5" text-anchor="end" font-size="12" font-family="Verdana">1.5</text>
<text x="59.2" y="112.5" text-anchor="end" font-size="12" font-family="Verdana">2</text></g>
<g id="yLabel">
<text x="30.2" y="200.1" text-anchor="middle" transform = "rotate(-90 30.2 200.1 )" font-size="14" font-family="Verdana">ellint_1(k, phi)</text></g>
<g id="xLabel">
<text x="268.6" y="384" text-anchor="middle" font-size="14" font-family="Verdana">k</text></g>
<g id="plotLines" stroke-width="2"><g clip-path="url(#plot_window)" stroke="rgb(0,0,139)" stroke-width="1"><path d="M70.2,335.5 L72.14,335.6 L74.09,335.6 L76.03,335.7 L77.98,335.8 L79.92,335.8 L81.87,335.9 L83.81,335.9 L85.76,336 L87.7,336 L89.65,336.1 L91.59,336.1 L93.54,336.2 L95.48,336.2 L97.43,336.3 L99.37,336.3 L101.3,336.4 L103.3,336.4 L105.2,336.5 L107.2,336.5 L109.1,336.5 L111,336.6 L113,336.6 L114.9,336.7 L116.9,336.7 L118.8,336.8 L120.8,336.8 L122.7,336.8 L124.7,336.9 L126.6,336.9 L128.5,337 L130.5,337 L132.4,337 L134.4,337.1 L136.3,337.1 L138.3,337.1 L140.2,337.2 L142.2,337.2 L144.1,337.2 L146.1,337.3 L148,337.3 L149.9,337.3 L151.9,337.4 L153.8,337.4 L155.8,337.4 L157.7,337.4 L159.7,337.5 L161.6,337.5 L163.6,337.5 L165.5,337.6 L167.4,337.6 L169.4,337.6 L171.3,337.6 L173.3,337.7 L175.2,337.7 L177.2,337.7 L179.1,337.7 L181.1,337.7 L183,337.8 L184.9,337.8 L186.9,337.8 L188.8,337.8 L190.8,337.8 L192.7,337.9 L194.7,337.9 L196.6,337.9 L198.6,337.9 L200.5,337.9 L202.5,337.9 L204.4,338 L206.3,338 L208.3,338 L210.2,338 L212.2,338 L214.1,338 L216.1,338 L218,338.1 L220,338.1 L221.9,338.1 L223.8,338.1 L225.8,338.1 L227.7,338.1 L229.7,338.1 L231.6,338.1 L233.6,338.1 L235.5,338.1 L237.5,338.2 L239.4,338.2 L241.4,338.2 L243.3,338.2 L245.2,338.2 L247.2,338.2 L249.1,338.2 L251.1,338.2 L253,338.2 L255,338.2 L256.9,338.2 L258.9,338.2 L260.8,338.2 L262.7,338.2 L264.7,338.2 L266.6,338.2 L268.6,338.2 L270.5,338.2 L272.5,338.2 L274.4,338.2 L276.4,338.2 L278.3,338.2 L280.2,338.2 L282.2,338.2 L284.1,338.2 L286.1,338.2 L288,338.2 L290,338.2 L291.9,338.2 L293.9,338.1 L295.8,338.1 L297.8,338.1 L299.7,338.1 L301.6,338.1 L303.6,338.1 L305.5,338.1 L307.5,338.1 L309.4,338.1 L311.4,338.1 L313.3,338 L315.3,338 L317.2,338 L319.1,338 L321.1,338 L323,338 L325,338 L326.9,337.9 L328.9,337.9 L330.8,337.9 L332.8,337.9 L334.7,337.9 L336.7,337.9 L338.6,337.8 L340.5,337.8 L342.5,337.8 L344.4,337.8 L346.4,337.8 L348.3,337.7 L350.3,337.7 L352.2,337.7 L354.2,337.7 L356.1,337.7 L358,337.6 L360,337.6 L361.9,337.6 L363.9,337.6 L365.8,337.5 L367.8,337.5 L369.7,337.5 L371.7,337.4 L373.6,337.4 L375.5,337.4 L377.5,337.4 L379.4,337.3 L381.4,337.3 L383.3,337.3 L385.3,337.2 L387.2,337.2 L389.2,337.2 L391.1,337.1 L393.1,337.1 L395,337.1 L396.9,337 L398.9,337 L400.8,337 L402.8,336.9 L404.7,336.9 L406.7,336.8 L408.6,336.8 L410.6,336.8 L412.5,336.7 L414.4,336.7 L416.4,336.6 L418.3,336.6 L420.3,336.5 L422.2,336.5 L424.2,336.5 L426.1,336.4 L428.1,336.4 L430,336.3 L432,336.3 L433.9,336.2 L435.8,336.2 L437.8,336.1 L439.7,336.1 L441.7,336 L443.6,336 L445.6,335.9 L447.5,335.9 L449.5,335.8 L451.4,335.8 L453.3,335.7 L455.3,335.6 L457.2,335.6 " fill="none"/></g>
<g clip-path="url(#plot_window)" stroke="rgb(139,0,0)" stroke-width="1"><path d="M70.2,290.7 L72.14,290.9 L74.09,291.1 L76.03,291.4 L77.98,291.6 L79.92,291.8 L81.87,292 L83.81,292.2 L85.76,292.4 L87.7,292.6 L89.65,292.8 L91.59,293 L93.54,293.2 L95.48,293.4 L97.43,293.6 L99.37,293.7 L101.3,293.9 L103.3,294.1 L105.2,294.2 L107.2,294.4 L109.1,294.6 L111,294.7 L113,294.9 L114.9,295 L116.9,295.2 L118.8,295.3 L120.8,295.5 L122.7,295.6 L124.7,295.8 L126.6,295.9 L128.5,296 L130.5,296.2 L132.4,296.3 L134.4,296.4 L136.3,296.5 L138.3,296.6 L140.2,296.8 L142.2,296.9 L144.1,297 L146.1,297.1 L148,297.2 L149.9,297.3 L151.9,297.4 L153.8,297.5 L155.8,297.6 L157.7,297.7 L159.7,297.8 L161.6,297.9 L163.6,298 L165.5,298.1 L167.4,298.2 L169.4,298.2 L171.3,298.3 L173.3,298.4 L175.2,298.5 L177.2,298.6 L179.1,298.6 L181.1,298.7 L183,298.8 L184.9,298.8 L186.9,298.9 L188.8,299 L190.8,299 L192.7,299.1 L194.7,299.2 L196.6,299.2 L198.6,299.3 L200.5,299.3 L202.5,299.4 L204.4,299.4 L206.3,299.5 L208.3,299.5 L210.2,299.6 L212.2,299.6 L214.1,299.7 L216.1,299.7 L218,299.7 L220,299.8 L221.9,299.8 L223.8,299.8 L225.8,299.9 L227.7,299.9 L229.7,299.9 L231.6,300 L233.6,300 L235.5,300 L237.5,300 L239.4,300 L241.4,300.1 L243.3,300.1 L245.2,300.1 L247.2,300.1 L249.1,300.1 L251.1,300.1 L253,300.2 L255,300.2 L256.9,300.2 L258.9,300.2 L260.8,300.2 L262.7,300.2 L264.7,300.2 L266.6,300.2 L268.6,300.2 L270.5,300.2 L272.5,300.2 L274.4,300.2 L276.4,300.2 L278.3,300.1 L280.2,300.1 L282.2,300.1 L284.1,300.1 L286.1,300.1 L288,300.1 L290,300 L291.9,300 L293.9,300 L295.8,300 L297.8,300 L299.7,299.9 L301.6,299.9 L303.6,299.9 L305.5,299.8 L307.5,299.8 L309.4,299.8 L311.4,299.7 L313.3,299.7 L315.3,299.7 L317.2,299.6 L319.1,299.6 L321.1,299.5 L323,299.5 L325,299.4 L326.9,299.4 L328.9,299.3 L330.8,299.3 L332.8,299.2 L334.7,299.2 L336.7,299.1 L338.6,299 L340.5,299 L342.5,298.9 L344.4,298.8 L346.4,298.8 L348.3,298.7 L350.3,298.6 L352.2,298.6 L354.2,298.5 L356.1,298.4 L358,298.3 L360,298.2 L361.9,298.2 L363.9,298.1 L365.8,298 L367.8,297.9 L369.7,297.8 L371.7,297.7 L373.6,297.6 L375.5,297.5 L377.5,297.4 L379.4,297.3 L381.4,297.2 L383.3,297.1 L385.3,297 L387.2,296.9 L389.2,296.8 L391.1,296.6 L393.1,296.5 L395,296.4 L396.9,296.3 L398.9,296.2 L400.8,296 L402.8,295.9 L404.7,295.8 L406.7,295.6 L408.6,295.5 L410.6,295.3 L412.5,295.2 L414.4,295 L416.4,294.9 L418.3,294.7 L420.3,294.6 L422.2,294.4 L424.2,294.2 L426.1,294.1 L428.1,293.9 L430,293.7 L432,293.6 L433.9,293.4 L435.8,293.2 L437.8,293 L439.7,292.8 L441.7,292.6 L443.6,292.4 L445.6,292.2 L447.5,292 L449.5,291.8 L451.4,291.6 L453.3,291.4 L455.3,291.1 L457.2,290.9 " fill="none"/></g>
<g clip-path="url(#plot_window)" stroke="rgb(0,100,0)" stroke-width="1"><path d="M70.2,172.6 L72.14,174.5 L74.09,176.4 L76.03,178.2 L77.98,179.9 L79.92,181.5 L81.87,183 L83.81,184.5 L85.76,185.9 L87.7,187.2 L89.65,188.5 L91.59,189.7 L93.54,190.9 L95.48,192 L97.43,193.1 L99.37,194.2 L101.3,195.2 L103.3,196.2 L105.2,197.1 L107.2,198.1 L109.1,198.9 L111,199.8 L113,200.6 L114.9,201.4 L116.9,202.2 L118.8,203 L120.8,203.7 L122.7,204.4 L124.7,205.1 L126.6,205.7 L128.5,206.4 L130.5,207 L132.4,207.6 L134.4,208.2 L136.3,208.8 L138.3,209.3 L140.2,209.9 L142.2,210.4 L144.1,210.9 L146.1,211.4 L148,211.9 L149.9,212.4 L151.9,212.8 L153.8,213.3 L155.8,213.7 L157.7,214.1 L159.7,214.5 L161.6,214.9 L163.6,215.3 L165.5,215.7 L167.4,216.1 L169.4,216.4 L171.3,216.7 L173.3,217.1 L175.2,217.4 L177.2,217.7 L179.1,218 L181.1,218.3 L183,218.6 L184.9,218.9 L186.9,219.2 L188.8,219.4 L190.8,219.7 L192.7,219.9 L194.7,220.2 L196.6,220.4 L198.6,220.6 L200.5,220.8 L202.5,221 L204.4,221.2 L206.3,221.4 L208.3,221.6 L210.2,221.8 L212.2,221.9 L214.1,222.1 L216.1,222.3 L218,222.4 L220,222.6 L221.9,222.7 L223.8,222.8 L225.8,223 L227.7,223.1 L229.7,223.2 L231.6,223.3 L233.6,223.4 L235.5,223.5 L237.5,223.6 L239.4,223.6 L241.4,223.7 L243.3,223.8 L245.2,223.8 L247.2,223.9 L249.1,224 L251.1,224 L253,224 L255,224.1 L256.9,224.1 L258.9,224.1 L260.8,224.1 L262.7,224.1 L264.7,224.1 L266.6,224.1 L268.6,224.1 L270.5,224.1 L272.5,224.1 L274.4,224.1 L276.4,224 L278.3,224 L280.2,224 L282.2,223.9 L284.1,223.8 L286.1,223.8 L288,223.7 L290,223.6 L291.9,223.6 L293.9,223.5 L295.8,223.4 L297.8,223.3 L299.7,223.2 L301.6,223.1 L303.6,223 L305.5,222.8 L307.5,222.7 L309.4,222.6 L311.4,222.4 L313.3,222.3 L315.3,222.1 L317.2,221.9 L319.1,221.8 L321.1,221.6 L323,221.4 L325,221.2 L326.9,221 L328.9,220.8 L330.8,220.6 L332.8,220.4 L334.7,220.2 L336.7,219.9 L338.6,219.7 L340.5,219.4 L342.5,219.2 L344.4,218.9 L346.4,218.6 L348.3,218.3 L350.3,218 L352.2,217.7 L354.2,217.4 L356.1,217.1 L358,216.7 L360,216.4 L361.9,216.1 L363.9,215.7 L365.8,215.3 L367.8,214.9 L369.7,214.5 L371.7,214.1 L373.6,213.7 L375.5,213.3 L377.5,212.8 L379.4,212.4 L381.4,211.9 L383.3,211.4 L385.3,210.9 L387.2,210.4 L389.2,209.9 L391.1,209.3 L393.1,208.8 L395,208.2 L396.9,207.6 L398.9,207 L400.8,206.4 L402.8,205.7 L404.7,205.1 L406.7,204.4 L408.6,203.7 L410.6,203 L412.5,202.2 L414.4,201.4 L416.4,200.6 L418.3,199.8 L420.3,198.9 L422.2,198.1 L424.2,197.1 L426.1,196.2 L428.1,195.2 L430,194.2 L432,193.1 L433.9,192 L435.8,190.9 L437.8,189.7 L439.7,188.5 L441.7,187.2 L443.6,185.9 L445.6,184.5 L447.5,183 L449.5,181.5 L451.4,179.9 L453.3,178.2 L455.3,176.4 L457.2,174.5 " fill="none"/></g>
<g clip-path="url(#plot_window)" stroke="rgb(255,140,0)" stroke-width="1"><path d="M70.2,67.42 L72.14,73.05 L74.09,78.18 L76.03,82.88 L77.98,87.23 L79.92,91.25 L81.87,94.99 L83.81,98.49 L85.76,101.8 L87.7,104.9 L89.65,107.8 L91.59,110.5 L93.54,113.1 L95.48,115.6 L97.43,117.9 L99.37,120.1 L101.3,122.3 L103.3,124.3 L105.2,126.2 L107.2,128.1 L109.1,129.9 L111,131.6 L113,133.2 L114.9,134.8 L116.9,136.3 L118.8,137.7 L120.8,139.1 L122.7,140.5 L124.7,141.8 L126.6,143 L128.5,144.2 L130.5,145.4 L132.4,146.5 L134.4,147.6 L136.3,148.7 L138.3,149.7 L140.2,150.7 L142.2,151.6 L144.1,152.6 L146.1,153.5 L148,154.3 L149.9,155.2 L151.9,156 L153.8,156.8 L155.8,157.5 L157.7,158.3 L159.7,159 L161.6,159.7 L163.6,160.4 L165.5,161 L167.4,161.7 L169.4,162.3 L171.3,162.9 L173.3,163.4 L175.2,164 L177.2,164.5 L179.1,165.1 L181.1,165.6 L183,166.1 L184.9,166.5 L186.9,167 L188.8,167.4 L190.8,167.9 L192.7,168.3 L194.7,168.7 L196.6,169.1 L198.6,169.4 L200.5,169.8 L202.5,170.2 L204.4,170.5 L206.3,170.8 L208.3,171.1 L210.2,171.4 L212.2,171.7 L214.1,172 L216.1,172.2 L218,172.5 L220,172.7 L221.9,173 L223.8,173.2 L225.8,173.4 L227.7,173.6 L229.7,173.8 L231.6,173.9 L233.6,174.1 L235.5,174.3 L237.5,174.4 L239.4,174.5 L241.4,174.7 L243.3,174.8 L245.2,174.9 L247.2,175 L249.1,175 L251.1,175.1 L253,175.2 L255,175.2 L256.9,175.3 L258.9,175.3 L260.8,175.3 L262.7,175.3 L264.7,175.4 L266.6,175.3 L268.6,175.3 L270.5,175.3 L272.5,175.3 L274.4,175.2 L276.4,175.2 L278.3,175.1 L280.2,175 L282.2,175 L284.1,174.9 L286.1,174.8 L288,174.7 L290,174.5 L291.9,174.4 L293.9,174.3 L295.8,174.1 L297.8,173.9 L299.7,173.8 L301.6,173.6 L303.6,173.4 L305.5,173.2 L307.5,173 L309.4,172.7 L311.4,172.5 L313.3,172.2 L315.3,172 L317.2,171.7 L319.1,171.4 L321.1,171.1 L323,170.8 L325,170.5 L326.9,170.2 L328.9,169.8 L330.8,169.4 L332.8,169.1 L334.7,168.7 L336.7,168.3 L338.6,167.9 L340.5,167.4 L342.5,167 L344.4,166.5 L346.4,166.1 L348.3,165.6 L350.3,165.1 L352.2,164.5 L354.2,164 L356.1,163.4 L358,162.9 L360,162.3 L361.9,161.7 L363.9,161 L365.8,160.4 L367.8,159.7 L369.7,159 L371.7,158.3 L373.6,157.5 L375.5,156.8 L377.5,156 L379.4,155.2 L381.4,154.3 L383.3,153.5 L385.3,152.6 L387.2,151.6 L389.2,150.7 L391.1,149.7 L393.1,148.7 L395,147.6 L396.9,146.5 L398.9,145.4 L400.8,144.2 L402.8,143 L404.7,141.8 L406.7,140.5 L408.6,139.1 L410.6,137.7 L412.5,136.3 L414.4,134.8 L416.4,133.2 L418.3,131.6 L420.3,129.9 L422.2,128.1 L424.2,126.2 L426.1,124.3 L428.1,122.3 L430,120.1 L432,117.9 L433.9,115.6 L435.8,113.1 L437.8,110.5 L439.7,107.8 L441.7,104.9 L443.6,101.8 L445.6,98.49 L447.5,94.99 L449.5,91.25 L451.4,87.23 L453.3,82.88 L455.3,78.18 L457.2,73.05 " fill="none"/></g>
</g>
<g id="plotPoints" clip-path="url(#plot_window)"><g stroke="rgb(0,0,0)"></g>
<g stroke="rgb(0,0,0)"></g>
<g stroke="rgb(0,0,0)"></g>
<g stroke="rgb(0,0,0)"></g>
</g>
<g id="limitPoints" stroke="rgb(119,136,153)" fill="rgb(250,235,215)"></g>
<g id="legendBackground" stroke="rgb(119,136,153)" fill="rgb(255,255,255)" stroke-width="1"><rect x="481" y="62" width="107" height="126"/><rect x="481" y="62" width="107" height="126"/></g>
<g id="legendPoints"><g stroke="rgb(0,0,139)" stroke-width="1"><line x1="495" y1="90" x2="509" y2="90"/></g>
<g stroke="rgb(139,0,0)" stroke-width="1"><line x1="495" y1="118" x2="509" y2="118"/></g>
<g stroke="rgb(0,100,0)" stroke-width="1"><line x1="495" y1="146" x2="509" y2="146"/></g>
<g stroke="rgb(255,140,0)" stroke-width="1"><line x1="495" y1="174" x2="509" y2="174"/></g>
</g>
<g id="legendText">
<text x="516" y="90" font-size="14" font-family="Verdana">&#x3C6;=0.5</text>
<text x="516" y="118" font-size="14" font-family="Verdana">&#x3C6;=0.75</text>
<text x="516" y="146" font-size="14" font-family="Verdana">&#x3C6;=1.25</text>
<text x="516" y="174" font-size="14" font-family="Verdana">&#x3C6;=&#x3C0;/2</text></g>
<g id="title">
<text x="300" y="40" text-anchor="middle" font-size="20" font-family="Verdana">Elliptic Of the First Kind</text></g>
</svg>
