<?xml version="1.0" encoding="UTF-8" standalone="no"?>
<svg width="600" height ="400" version="1.1" xmlns="http://www.w3.org/2000/svg"
 xmlns:xlink="http://www.w3.org/1999/xlink"
 xmlns:ev="http://www.w3.org/2001/xml-events">

<!-- SVG plot written using Boost.Plot program (Creator Jacob Voytko) --> 
<!-- Use, modification and distribution of Boost.Plot subject to the --> 
<!-- Boost Software License, Version 1.0.--> 
<!-- (See accompanying file LICENSE_1_0.txt --> 
<!-- or copy at http://www.boost.org/LICENSE_1_0.txt) --> 

<!-- SVG Plot Copyright John Maddock 2008 --> 
<meta name="copyright" content="John Maddock" />
<meta name="date" content="2008" />
<!-- Use, modification and distribution of this Scalable Vector Graphic file -->
<!-- are subject to the Boost Software License, Version 1.0. -->
<!-- (See accompanying file LICENSE_1_0.txt or copy at http://www.boost.org/LICENSE_1_0.txt) -->

<clipPath id="plot_window"><rect x="71.2" y="63" width="394.8" height="274.2"/></clipPath>
<g id="imageBackground" stroke="rgb(119,136,153)" fill="rgb(255,255,255)" stroke-width="2"><rect x="0" y="0" width="600" height="400"/></g>
<g id="plotBackground" stroke="rgb(119,136,153)" fill="rgb(255,255,255)" stroke-width="2"><rect x="70.2" y="62" width="396.8" height="276.2"/></g>
<g id="yMinorGrid" stroke="rgb(200,220,255)" stroke-width="0.5"></g>
<g id="yMajorGrid" stroke="rgb(200,220,255)" stroke-width="1"></g>
<g id="xMinorGrid" stroke="rgb(200,220,255)" stroke-width="0.5"></g>
<g id="xMajorGrid" stroke="rgb(200,220,255)" stroke-width="1"></g>
<g id="yAxis" stroke="rgb(0,0,0)" stroke-width="1"><line x1="264.7" y1="62" x2="264.7" y2="338.2"/><line x1="70.2" y1="62" x2="70.2" y2="338.2"/></g>
<g id="xAxis" stroke="rgb(0,0,0)" stroke-width="1"><line x1="70.2" y1="338.2" x2="467" y2="338.2"/></g>
<g id="yMinorTicks" stroke="rgb(0,0,0)" stroke-width="1"><path d="M68.2,302.1 L70.2,302.1 M68.2,271.1 L70.2,271.1 M68.2,240.1 L70.2,240.1 M68.2,178 L70.2,178 M68.2,147 L70.2,147 M68.2,116 L70.2,116 "/></g>
<g id="xMinorTicks" stroke="rgb(0,0,0)" stroke-width="1"><path d="M289,338.2 L289,340.2 M313.3,338.2 L313.3,340.2 M337.6,338.2 L337.6,340.2 M386.2,338.2 L386.2,340.2 M410.6,338.2 L410.6,340.2 M434.9,338.2 L434.9,340.2 M240.4,338.2 L240.4,340.2 M216.1,338.2 L216.1,340.2 M191.8,338.2 L191.8,340.2 M143.1,338.2 L143.1,340.2 M118.8,338.2 L118.8,340.2 M94.51,338.2 L94.51,340.2 "/></g>
<g id="yMajorTicks" stroke="rgb(0,0,0)" stroke-width="2"><path d="M65.2,333.1 L70.2,333.1 M65.2,209 L70.2,209 M65.2,84.98 L70.2,84.98 "/></g>
<g id="xMajorTicks" stroke="rgb(0,0,0)" stroke-width="2"><path d="M264.7,338.2 L264.7,343.2 M361.9,338.2 L361.9,343.2 M459.2,338.2 L459.2,343.2 M264.7,338.2 L264.7,343.2 M167.4,338.2 L167.4,343.2 M70.2,338.2 L70.2,343.2 "/></g>
<g id="plotLabels">
<text x="264.7" y="357.6" text-anchor="middle" font-size="12" font-family="Verdana">0</text>
<text x="361.9" y="357.6" text-anchor="middle" font-size="12" font-family="Verdana">0.5</text>
<text x="459.2" y="357.6" text-anchor="middle" font-size="12" font-family="Verdana">1</text>
<text x="264.7" y="357.6" text-anchor="middle" font-size="12" font-family="Verdana">0</text>
<text x="167.4" y="357.6" text-anchor="middle" font-size="12" font-family="Verdana">-0.5</text>
<text x="70.2" y="357.6" text-anchor="middle" font-size="12" font-family="Verdana">-1</text>
<text x="59.2" y="335.5" text-anchor="end" font-size="12" font-family="Verdana">0.5</text>
<text x="59.2" y="211.4" text-anchor="end" font-size="12" font-family="Verdana">1</text>
<text x="59.2" y="87.38" text-anchor="end" font-size="12" font-family="Verdana">1.5</text></g>
<g id="yLabel">
<text x="30.2" y="200.1" text-anchor="middle" transform = "rotate(-90 30.2 200.1 )" font-size="14" font-family="Verdana">ellint_2(k, phi)</text></g>
<g id="xLabel">
<text x="268.6" y="384" text-anchor="middle" font-size="14" font-family="Verdana">k</text></g>
<g id="plotLines" stroke-width="2"><g clip-path="url(#plot_window)" stroke="rgb(0,0,139)" stroke-width="1"><path d="M70.2,338.2 L72.14,338.1 L74.09,338 L76.03,337.9 L77.98,337.8 L79.92,337.7 L81.87,337.6 L83.81,337.5 L85.76,337.4 L87.7,337.3 L89.65,337.2 L91.59,337.1 L93.54,337 L95.48,336.9 L97.43,336.8 L99.37,336.7 L101.3,336.7 L103.3,336.6 L105.2,336.5 L107.2,336.4 L109.1,336.3 L111,336.2 L113,336.2 L114.9,336.1 L116.9,336 L118.8,335.9 L120.8,335.8 L122.7,335.8 L124.7,335.7 L126.6,335.6 L128.5,335.5 L130.5,335.5 L132.4,335.4 L134.4,335.3 L136.3,335.3 L138.3,335.2 L140.2,335.1 L142.2,335.1 L144.1,335 L146.1,334.9 L148,334.9 L149.9,334.8 L151.9,334.8 L153.8,334.7 L155.8,334.7 L157.7,334.6 L159.7,334.5 L161.6,334.5 L163.6,334.4 L165.5,334.4 L167.4,334.3 L169.4,334.3 L171.3,334.2 L173.3,334.2 L175.2,334.1 L177.2,334.1 L179.1,334.1 L181.1,334 L183,334 L184.9,333.9 L186.9,333.9 L188.8,333.8 L190.8,333.8 L192.7,333.8 L194.7,333.7 L196.6,333.7 L198.6,333.7 L200.5,333.6 L202.5,333.6 L204.4,333.6 L206.3,333.5 L208.3,333.5 L210.2,333.5 L212.2,333.5 L214.1,333.4 L216.1,333.4 L218,333.4 L220,333.4 L221.9,333.3 L223.8,333.3 L225.8,333.3 L227.7,333.3 L229.7,333.3 L231.6,333.2 L233.6,333.2 L235.5,333.2 L237.5,333.2 L239.4,333.2 L241.4,333.2 L243.3,333.2 L245.2,333.1 L247.2,333.1 L249.1,333.1 L251.1,333.1 L253,333.1 L255,333.1 L256.9,333.1 L258.9,333.1 L260.8,333.1 L262.7,333.1 L264.7,333.1 L266.6,333.1 L268.6,333.1 L270.5,333.1 L272.5,333.1 L274.4,333.1 L276.4,333.1 L278.3,333.1 L280.2,333.1 L282.2,333.1 L284.1,333.1 L286.1,333.2 L288,333.2 L290,333.2 L291.9,333.2 L293.9,333.2 L295.8,333.2 L297.8,333.2 L299.7,333.3 L301.6,333.3 L303.6,333.3 L305.5,333.3 L307.5,333.3 L309.4,333.4 L311.4,333.4 L313.3,333.4 L315.3,333.4 L317.2,333.5 L319.1,333.5 L321.1,333.5 L323,333.5 L325,333.6 L326.9,333.6 L328.9,333.6 L330.8,333.7 L332.8,333.7 L334.7,333.7 L336.7,333.8 L338.6,333.8 L340.5,333.8 L342.5,333.9 L344.4,333.9 L346.4,334 L348.3,334 L350.3,334.1 L352.2,334.1 L354.2,334.1 L356.1,334.2 L358,334.2 L360,334.3 L361.9,334.3 L363.9,334.4 L365.8,334.4 L367.8,334.5 L369.7,334.5 L371.7,334.6 L373.6,334.7 L375.5,334.7 L377.5,334.8 L379.4,334.8 L381.4,334.9 L383.3,334.9 L385.3,335 L387.2,335.1 L389.2,335.1 L391.1,335.2 L393.1,335.3 L395,335.3 L396.9,335.4 L398.9,335.5 L400.8,335.5 L402.8,335.6 L404.7,335.7 L406.7,335.8 L408.6,335.8 L410.6,335.9 L412.5,336 L414.4,336.1 L416.4,336.2 L418.3,336.2 L420.3,336.3 L422.2,336.4 L424.2,336.5 L426.1,336.6 L428.1,336.7 L430,336.7 L432,336.8 L433.9,336.9 L435.8,337 L437.8,337.1 L439.7,337.2 L441.7,337.3 L443.6,337.4 L445.6,337.5 L447.5,337.6 L449.5,337.7 L451.4,337.8 L453.3,337.9 L455.3,338 L457.2,338.1 " fill="none"/></g>
<g clip-path="url(#plot_window)" stroke="rgb(139,0,0)" stroke-width="1"><path d="M70.2,288 L72.14,287.7 L74.09,287.3 L76.03,286.9 L77.98,286.6 L79.92,286.2 L81.87,285.9 L83.81,285.5 L85.76,285.2 L87.7,284.9 L89.65,284.6 L91.59,284.2 L93.54,283.9 L95.48,283.6 L97.43,283.3 L99.37,283 L101.3,282.7 L103.3,282.4 L105.2,282.1 L107.2,281.8 L109.1,281.6 L111,281.3 L113,281 L114.9,280.7 L116.9,280.5 L118.8,280.2 L120.8,280 L122.7,279.7 L124.7,279.5 L126.6,279.2 L128.5,279 L130.5,278.8 L132.4,278.5 L134.4,278.3 L136.3,278.1 L138.3,277.9 L140.2,277.7 L142.2,277.4 L144.1,277.2 L146.1,277 L148,276.8 L149.9,276.6 L151.9,276.4 L153.8,276.3 L155.8,276.1 L157.7,275.9 L159.7,275.7 L161.6,275.5 L163.6,275.4 L165.5,275.2 L167.4,275 L169.4,274.9 L171.3,274.7 L173.3,274.6 L175.2,274.4 L177.2,274.3 L179.1,274.1 L181.1,274 L183,273.9 L184.9,273.7 L186.9,273.6 L188.8,273.5 L190.8,273.3 L192.7,273.2 L194.7,273.1 L196.6,273 L198.6,272.9 L200.5,272.8 L202.5,272.7 L204.4,272.6 L206.3,272.5 L208.3,272.4 L210.2,272.3 L212.2,272.2 L214.1,272.1 L216.1,272 L218,272 L220,271.9 L221.9,271.8 L223.8,271.8 L225.8,271.7 L227.7,271.6 L229.7,271.6 L231.6,271.5 L233.6,271.5 L235.5,271.4 L237.5,271.4 L239.4,271.3 L241.4,271.3 L243.3,271.3 L245.2,271.2 L247.2,271.2 L249.1,271.2 L251.1,271.1 L253,271.1 L255,271.1 L256.9,271.1 L258.9,271.1 L260.8,271.1 L262.7,271.1 L264.7,271.1 L266.6,271.1 L268.6,271.1 L270.5,271.1 L272.5,271.1 L274.4,271.1 L276.4,271.1 L278.3,271.1 L280.2,271.2 L282.2,271.2 L284.1,271.2 L286.1,271.3 L288,271.3 L290,271.3 L291.9,271.4 L293.9,271.4 L295.8,271.5 L297.8,271.5 L299.7,271.6 L301.6,271.6 L303.6,271.7 L305.5,271.8 L307.5,271.8 L309.4,271.9 L311.4,272 L313.3,272 L315.3,272.1 L317.2,272.2 L319.1,272.3 L321.1,272.4 L323,272.5 L325,272.6 L326.9,272.7 L328.9,272.8 L330.8,272.9 L332.8,273 L334.7,273.1 L336.7,273.2 L338.6,273.3 L340.5,273.5 L342.5,273.6 L344.4,273.7 L346.4,273.9 L348.3,274 L350.3,274.1 L352.2,274.3 L354.2,274.4 L356.1,274.6 L358,274.7 L360,274.9 L361.9,275 L363.9,275.2 L365.8,275.4 L367.8,275.5 L369.7,275.7 L371.7,275.9 L373.6,276.1 L375.5,276.3 L377.5,276.4 L379.4,276.6 L381.4,276.8 L383.3,277 L385.3,277.2 L387.2,277.4 L389.2,277.7 L391.1,277.9 L393.1,278.1 L395,278.3 L396.9,278.5 L398.9,278.8 L400.8,279 L402.8,279.2 L404.7,279.5 L406.7,279.7 L408.6,280 L410.6,280.2 L412.5,280.5 L414.4,280.7 L416.4,281 L418.3,281.3 L420.3,281.6 L422.2,281.8 L424.2,282.1 L426.1,282.4 L428.1,282.7 L430,283 L432,283.3 L433.9,283.6 L435.8,283.9 L437.8,284.2 L439.7,284.6 L441.7,284.9 L443.6,285.2 L445.6,285.5 L447.5,285.9 L449.5,286.2 L451.4,286.6 L453.3,286.9 L455.3,287.3 L457.2,287.7 " fill="none"/></g>
<g clip-path="url(#plot_window)" stroke="rgb(0,100,0)" stroke-width="1"><path d="M70.2,221.7 L72.14,219.6 L74.09,217.5 L76.03,215.6 L77.98,213.7 L79.92,211.9 L81.87,210.1 L83.81,208.4 L85.76,206.7 L87.7,205.1 L89.65,203.5 L91.59,201.9 L93.54,200.4 L95.48,199 L97.43,197.5 L99.37,196.1 L101.3,194.8 L103.3,193.4 L105.2,192.1 L107.2,190.9 L109.1,189.6 L111,188.4 L113,187.2 L114.9,186 L116.9,184.9 L118.8,183.8 L120.8,182.7 L122.7,181.6 L124.7,180.6 L126.6,179.5 L128.5,178.5 L130.5,177.6 L132.4,176.6 L134.4,175.6 L136.3,174.7 L138.3,173.8 L140.2,172.9 L142.2,172.1 L144.1,171.2 L146.1,170.4 L148,169.6 L149.9,168.8 L151.9,168 L153.8,167.2 L155.8,166.5 L157.7,165.8 L159.7,165.1 L161.6,164.4 L163.6,163.7 L165.5,163 L167.4,162.4 L169.4,161.7 L171.3,161.1 L173.3,160.5 L175.2,159.9 L177.2,159.3 L179.1,158.8 L181.1,158.2 L183,157.7 L184.9,157.2 L186.9,156.7 L188.8,156.2 L190.8,155.7 L192.7,155.3 L194.7,154.8 L196.6,154.4 L198.6,154 L200.5,153.5 L202.5,153.1 L204.4,152.8 L206.3,152.4 L208.3,152 L210.2,151.7 L212.2,151.4 L214.1,151 L216.1,150.7 L218,150.4 L220,150.2 L221.9,149.9 L223.8,149.6 L225.8,149.4 L227.7,149.2 L229.7,148.9 L231.6,148.7 L233.6,148.5 L235.5,148.3 L237.5,148.2 L239.4,148 L241.4,147.9 L243.3,147.7 L245.2,147.6 L247.2,147.5 L249.1,147.4 L251.1,147.3 L253,147.2 L255,147.2 L256.9,147.1 L258.9,147.1 L260.8,147 L262.7,147 L264.7,147 L266.6,147 L268.6,147 L270.5,147.1 L272.5,147.1 L274.4,147.2 L276.4,147.2 L278.3,147.3 L280.2,147.4 L282.2,147.5 L284.1,147.6 L286.1,147.7 L288,147.9 L290,148 L291.9,148.2 L293.9,148.3 L295.8,148.5 L297.8,148.7 L299.7,148.9 L301.6,149.2 L303.6,149.4 L305.5,149.6 L307.5,149.9 L309.4,150.2 L311.4,150.4 L313.3,150.7 L315.3,151 L317.2,151.4 L319.1,151.7 L321.1,152 L323,152.4 L325,152.8 L326.9,153.1 L328.9,153.5 L330.8,154 L332.8,154.4 L334.7,154.8 L336.7,155.3 L338.6,155.7 L340.5,156.2 L342.5,156.7 L344.4,157.2 L346.4,157.7 L348.3,158.2 L350.3,158.8 L352.2,159.3 L354.2,159.9 L356.1,160.5 L358,161.1 L360,161.7 L361.9,162.4 L363.9,163 L365.8,163.7 L367.8,164.4 L369.7,165.1 L371.7,165.8 L373.6,166.5 L375.5,167.2 L377.5,168 L379.4,168.8 L381.4,169.6 L383.3,170.4 L385.3,171.2 L387.2,172.1 L389.2,172.9 L391.1,173.8 L393.1,174.7 L395,175.6 L396.9,176.6 L398.9,177.6 L400.8,178.5 L402.8,179.5 L404.7,180.6 L406.7,181.6 L408.6,182.7 L410.6,183.8 L412.5,184.9 L414.4,186 L416.4,187.2 L418.3,188.4 L420.3,189.6 L422.2,190.9 L424.2,192.1 L426.1,193.4 L428.1,194.8 L430,196.1 L432,197.5 L433.9,199 L435.8,200.4 L437.8,201.9 L439.7,203.5 L441.7,205.1 L443.6,206.7 L445.6,208.4 L447.5,210.1 L449.5,211.9 L451.4,213.7 L453.3,215.6 L455.3,217.5 L457.2,219.6 " fill="none"/></g>
<g clip-path="url(#plot_window)" stroke="rgb(255,140,0)" stroke-width="1"><path d="M70.2,209 L72.14,202 L74.09,196.6 L76.03,191.9 L77.98,187.6 L79.92,183.6 L81.87,179.8 L83.81,176.2 L85.76,172.8 L87.7,169.6 L89.65,166.4 L91.59,163.4 L93.54,160.5 L95.48,157.8 L97.43,155.1 L99.37,152.4 L101.3,149.9 L103.3,147.4 L105.2,145.1 L107.2,142.7 L109.1,140.5 L111,138.3 L113,136.1 L114.9,134 L116.9,132 L118.8,130 L120.8,128.1 L122.7,126.2 L124.7,124.4 L126.6,122.6 L128.5,120.8 L130.5,119.1 L132.4,117.4 L134.4,115.8 L136.3,114.2 L138.3,112.6 L140.2,111.1 L142.2,109.6 L144.1,108.1 L146.1,106.7 L148,105.3 L149.9,103.9 L151.9,102.6 L153.8,101.3 L155.8,100.1 L157.7,98.82 L159.7,97.61 L161.6,96.43 L163.6,95.28 L165.5,94.15 L167.4,93.05 L169.4,91.98 L171.3,90.94 L173.3,89.92 L175.2,88.93 L177.2,87.97 L179.1,87.03 L181.1,86.11 L183,85.22 L184.9,84.35 L186.9,83.51 L188.8,82.69 L190.8,81.89 L192.7,81.12 L194.7,80.37 L196.6,79.64 L198.6,78.94 L200.5,78.25 L202.5,77.59 L204.4,76.95 L206.3,76.34 L208.3,75.74 L210.2,75.17 L212.2,74.62 L214.1,74.09 L216.1,73.58 L218,73.09 L220,72.62 L221.9,72.18 L223.8,71.75 L225.8,71.34 L227.7,70.96 L229.7,70.59 L231.6,70.25 L233.6,69.92 L235.5,69.62 L237.5,69.33 L239.4,69.07 L241.4,68.82 L243.3,68.6 L245.2,68.39 L247.2,68.21 L249.1,68.04 L251.1,67.89 L253,67.77 L255,67.66 L256.9,67.57 L258.9,67.5 L260.8,67.45 L262.7,67.43 L264.7,67.42 L266.6,67.43 L268.6,67.45 L270.5,67.5 L272.5,67.57 L274.4,67.66 L276.4,67.77 L278.3,67.89 L280.2,68.04 L282.2,68.21 L284.1,68.39 L286.1,68.6 L288,68.82 L290,69.07 L291.9,69.33 L293.9,69.62 L295.8,69.92 L297.8,70.25 L299.7,70.59 L301.6,70.96 L303.6,71.34 L305.5,71.75 L307.5,72.18 L309.4,72.62 L311.4,73.09 L313.3,73.58 L315.3,74.09 L317.2,74.62 L319.1,75.17 L321.1,75.74 L323,76.34 L325,76.95 L326.9,77.59 L328.9,78.25 L330.8,78.94 L332.8,79.64 L334.7,80.37 L336.7,81.12 L338.6,81.89 L340.5,82.69 L342.5,83.51 L344.4,84.35 L346.4,85.22 L348.3,86.11 L350.3,87.03 L352.2,87.97 L354.2,88.93 L356.1,89.92 L358,90.94 L360,91.98 L361.9,93.05 L363.9,94.15 L365.8,95.28 L367.8,96.43 L369.7,97.61 L371.7,98.82 L373.6,100.1 L375.5,101.3 L377.5,102.6 L379.4,103.9 L381.4,105.3 L383.3,106.7 L385.3,108.1 L387.2,109.6 L389.2,111.1 L391.1,112.6 L393.1,114.2 L395,115.8 L396.9,117.4 L398.9,119.1 L400.8,120.8 L402.8,122.6 L404.7,124.4 L406.7,126.2 L408.6,128.1 L410.6,130 L412.5,132 L414.4,134 L416.4,136.1 L418.3,138.3 L420.3,140.5 L422.2,142.7 L424.2,145.1 L426.1,147.4 L428.1,149.9 L430,152.4 L432,155.1 L433.9,157.8 L435.8,160.5 L437.8,163.4 L439.7,166.4 L441.7,169.6 L443.6,172.8 L445.6,176.2 L447.5,179.8 L449.5,183.6 L451.4,187.6 L453.3,191.9 L455.3,196.6 L457.2,202 " fill="none"/></g>
</g>
<g id="plotPoints" clip-path="url(#plot_window)"><g stroke="rgb(0,0,0)"></g>
<g stroke="rgb(0,0,0)"></g>
<g stroke="rgb(0,0,0)"></g>
<g stroke="rgb(0,0,0)"></g>
</g>
<g id="limitPoints" stroke="rgb(119,136,153)" fill="rgb(250,235,215)"></g>
<g id="legendBackground" stroke="rgb(119,136,153)" fill="rgb(255,255,255)" stroke-width="1"><rect x="481" y="62" width="107" height="126"/><rect x="481" y="62" width="107" height="126"/></g>
<g id="legendPoints"><g stroke="rgb(0,0,139)" stroke-width="1"><line x1="495" y1="90" x2="509" y2="90"/></g>
<g stroke="rgb(139,0,0)" stroke-width="1"><line x1="495" y1="118" x2="509" y2="118"/></g>
<g stroke="rgb(0,100,0)" stroke-width="1"><line x1="495" y1="146" x2="509" y2="146"/></g>
<g stroke="rgb(255,140,0)" stroke-width="1"><line x1="495" y1="174" x2="509" y2="174"/></g>
</g>
<g id="legendText">
<text x="516" y="90" font-size="14" font-family="Verdana">&#x3C6;=0.5</text>
<text x="516" y="118" font-size="14" font-family="Verdana">&#x3C6;=0.75</text>
<text x="516" y="146" font-size="14" font-family="Verdana">&#x3C6;=1.25</text>
<text x="516" y="174" font-size="14" font-family="Verdana">&#x3C6;=&#x3C0;/2</text></g>
<g id="title">
<text x="300" y="40" text-anchor="middle" font-size="20" font-family="Verdana">Elliptic Of the Second Kind</text></g>
</svg>
