<?xml version="1.0" encoding="UTF-8" standalone="no"?>
<svg width="600" height ="400" version="1.1" xmlns="http://www.w3.org/2000/svg"
 xmlns:xlink="http://www.w3.org/1999/xlink"
 xmlns:ev="http://www.w3.org/2001/xml-events">

<!-- SVG plot written using Boost.Plot program (Creator Jacob Voytko) --> 
<!-- Use, modification and distribution of Boost.Plot subject to the --> 
<!-- Boost Software License, Version 1.0.--> 
<!-- (See accompanying file LICENSE_1_0.txt --> 
<!-- or copy at http://www.boost.org/LICENSE_1_0.txt) --> 

<!-- SVG Plot Copyright John Maddock 2008 --> 
<meta name="copyright" content="John Maddock" />
<meta name="date" content="2008" />
<!-- Use, modification and distribution of this Scalable Vector Graphic file -->
<!-- are subject to the Boost Software License, Version 1.0. -->
<!-- (See accompanying file LICENSE_1_0.txt or copy at http://www.boost.org/LICENSE_1_0.txt) -->

<clipPath id="plot_window"><rect x="79.6" y="63" width="507.4" height="274.2"/></clipPath>
<g id="imageBackground" stroke="rgb(119,136,153)" fill="rgb(255,255,255)" stroke-width="2"><rect x="0" y="0" width="600" height="400"/></g>
<g id="plotBackground" stroke="rgb(119,136,153)" fill="rgb(255,255,255)" stroke-width="2"><rect x="78.6" y="62" width="509.4" height="276.2"/></g>
<g id="yMinorGrid" stroke="rgb(200,220,255)" stroke-width="0.5"></g>
<g id="yMajorGrid" stroke="rgb(200,220,255)" stroke-width="1"></g>
<g id="xMinorGrid" stroke="rgb(200,220,255)" stroke-width="0.5"></g>
<g id="xMajorGrid" stroke="rgb(200,220,255)" stroke-width="1"></g>
<g id="yAxis" stroke="rgb(0,0,0)" stroke-width="1"><line x1="328.3" y1="62" x2="328.3" y2="343.2"/><line x1="78.6" y1="62" x2="78.6" y2="338.2"/></g>
<g id="xAxis" stroke="rgb(0,0,0)" stroke-width="1"><line x1="73.6" y1="202.8" x2="588" y2="202.8"/><line x1="73.6" y1="338.2" x2="588" y2="338.2"/></g>
<g id="yMinorTicks" stroke="rgb(0,0,0)" stroke-width="1"><path d="M76.6,185.9 L78.6,185.9 M76.6,169 L78.6,169 M76.6,152 L78.6,152 M76.6,118.2 L78.6,118.2 M76.6,101.3 L78.6,101.3 M76.6,84.34 L78.6,84.34 M76.6,202.8 L78.6,202.8 M76.6,219.7 L78.6,219.7 M76.6,236.7 L78.6,236.7 M76.6,253.6 L78.6,253.6 M76.6,270.5 L78.6,270.5 M76.6,287.4 L78.6,287.4 M76.6,304.4 L78.6,304.4 M76.6,321.3 L78.6,321.3 "/></g>
<g id="xMinorTicks" stroke="rgb(0,0,0)" stroke-width="1"><path d="M349.1,338.2 L349.1,340.2 M369.9,338.2 L369.9,340.2 M390.7,338.2 L390.7,340.2 M432.3,338.2 L432.3,340.2 M453.2,338.2 L453.2,340.2 M474,338.2 L474,340.2 M515.6,338.2 L515.6,340.2 M536.4,338.2 L536.4,340.2 M557.2,338.2 L557.2,340.2 M307.5,338.2 L307.5,340.2 M286.7,338.2 L286.7,340.2 M265.9,338.2 L265.9,340.2 M224.3,338.2 L224.3,340.2 M203.5,338.2 L203.5,340.2 M182.6,338.2 L182.6,340.2 M141,338.2 L141,340.2 M120.2,338.2 L120.2,340.2 M99.41,338.2 L99.41,340.2 "/></g>
<g id="yMajorTicks" stroke="rgb(0,0,0)" stroke-width="2"><path d="M73.6,202.8 L78.6,202.8 M73.6,135.1 L78.6,135.1 M73.6,67.41 L78.6,67.41 M73.6,202.8 L78.6,202.8 M73.6,270.5 L78.6,270.5 "/></g>
<g id="xMajorTicks" stroke="rgb(0,0,0)" stroke-width="2"><path d="M328.3,338.2 L328.3,343.2 M411.5,338.2 L411.5,343.2 M494.8,338.2 L494.8,343.2 M578,338.2 L578,343.2 M328.3,338.2 L328.3,343.2 M245.1,338.2 L245.1,343.2 M161.8,338.2 L161.8,343.2 M78.6,338.2 L78.6,343.2 "/></g>
<g id="plotLabels">
<text x="328.3" y="357.6" text-anchor="middle" font-size="12" font-family="Verdana">0</text>
<text x="411.5" y="357.6" text-anchor="middle" font-size="12" font-family="Verdana">1</text>
<text x="494.8" y="357.6" text-anchor="middle" font-size="12" font-family="Verdana">2</text>
<text x="578" y="357.6" text-anchor="middle" font-size="12" font-family="Verdana">3</text>
<text x="328.3" y="357.6" text-anchor="middle" font-size="12" font-family="Verdana">0</text>
<text x="245.1" y="357.6" text-anchor="middle" font-size="12" font-family="Verdana">-1</text>
<text x="161.8" y="357.6" text-anchor="middle" font-size="12" font-family="Verdana">-2</text>
<text x="78.6" y="357.6" text-anchor="middle" font-size="12" font-family="Verdana">-3</text>
<text x="67.6" y="205.2" text-anchor="end" font-size="12" font-family="Verdana">0</text>
<text x="67.6" y="137.5" text-anchor="end" font-size="12" font-family="Verdana">0.5</text>
<text x="67.6" y="69.81" text-anchor="end" font-size="12" font-family="Verdana">1</text>
<text x="67.6" y="205.2" text-anchor="end" font-size="12" font-family="Verdana">0</text>
<text x="67.6" y="272.9" text-anchor="end" font-size="12" font-family="Verdana">-0.5</text></g>
<g id="yLabel">
<text x="30.2" y="200.1" text-anchor="middle" transform = "rotate(-90 30.2 200.1 )" font-size="14" font-family="Verdana">erf(z)</text></g>
<g id="xLabel">
<text x="333.3" y="384" text-anchor="middle" font-size="14" font-family="Verdana">z</text></g>
<g id="plotLines" stroke-width="2"><g clip-path="url(#plot_window)" stroke="rgb(0,0,139)" stroke-width="1"><path d="M78.6,338.2 L81.1,338.2 L83.59,338.2 L86.09,338.2 L88.59,338.2 L91.09,338.2 L93.58,338.2 L96.08,338.2 L98.58,338.2 L101.1,338.2 L103.6,338.2 L106.1,338.2 L108.6,338.2 L111.1,338.2 L113.6,338.2 L116.1,338.2 L118.6,338.2 L121,338.1 L123.5,338.1 L126,338.1 L128.5,338.1 L131,338.1 L133.5,338.1 L136,338.1 L138.5,338 L141,338 L143.5,338 L146,337.9 L148.5,337.9 L151,337.9 L153.5,337.8 L156,337.7 L158.5,337.7 L161,337.6 L163.5,337.5 L166,337.4 L168.5,337.3 L171,337.2 L173.5,337 L176,336.9 L178.5,336.7 L181,336.5 L183.5,336.3 L186,336.1 L188.5,335.8 L191,335.5 L193.5,335.2 L196,334.9 L198.5,334.5 L201,334.1 L203.5,333.6 L205.9,333.1 L208.4,332.6 L210.9,332 L213.4,331.3 L215.9,330.6 L218.4,329.8 L220.9,329 L223.4,328.1 L225.9,327.1 L228.4,326.1 L230.9,324.9 L233.4,323.7 L235.9,322.4 L238.4,321.1 L240.9,319.6 L243.4,318 L245.9,316.3 L248.4,314.6 L250.9,312.7 L253.4,310.7 L255.9,308.6 L258.4,306.4 L260.9,304.1 L263.4,301.6 L265.9,299.1 L268.4,296.4 L270.9,293.6 L273.4,290.7 L275.9,287.7 L278.4,284.6 L280.9,281.3 L283.4,277.9 L285.9,274.5 L288.4,270.9 L290.8,267.2 L293.3,263.4 L295.8,259.5 L298.3,255.5 L300.8,251.5 L303.3,247.3 L305.8,243.1 L308.3,238.8 L310.8,234.4 L313.3,230 L315.8,225.6 L318.3,221.1 L320.8,216.5 L323.3,212 L325.8,207.4 L328.3,202.8 L330.8,198.2 L333.3,193.7 L335.8,189.1 L338.3,184.6 L340.8,180.1 L343.3,175.6 L345.8,171.2 L348.3,166.8 L350.8,162.5 L353.3,158.3 L355.8,154.2 L358.3,150.1 L360.8,146.1 L363.3,142.2 L365.8,138.4 L368.3,134.7 L370.8,131.2 L373.3,127.7 L375.7,124.3 L378.2,121 L380.7,117.9 L383.2,114.9 L385.7,112 L388.2,109.2 L390.7,106.5 L393.2,104 L395.7,101.5 L398.2,99.21 L400.7,97 L403.2,94.91 L405.7,92.93 L408.2,91.05 L410.7,89.28 L413.2,87.61 L415.7,86.04 L418.2,84.56 L420.7,83.18 L423.2,81.89 L425.7,80.68 L428.2,79.56 L430.7,78.51 L433.2,77.54 L435.7,76.63 L438.2,75.8 L440.7,75.03 L443.2,74.32 L445.7,73.66 L448.2,73.06 L450.7,72.51 L453.2,72 L455.7,71.54 L458.2,71.12 L460.6,70.74 L463.1,70.39 L465.6,70.07 L468.1,69.78 L470.6,69.52 L473.1,69.29 L475.6,69.08 L478.1,68.89 L480.6,68.72 L483.1,68.57 L485.6,68.43 L488.1,68.31 L490.6,68.2 L493.1,68.1 L495.6,68.02 L498.1,67.94 L500.6,67.88 L503.1,67.82 L505.6,67.76 L508.1,67.72 L510.6,67.68 L513.1,67.64 L515.6,67.61 L518.1,67.58 L520.6,67.56 L523.1,67.54 L525.6,67.52 L528.1,67.51 L530.6,67.49 L533.1,67.48 L535.6,67.47 L538.1,67.46 L540.6,67.45 L543.1,67.45 L545.5,67.44 L548,67.44 L550.5,67.43 L553,67.43 L555.5,67.43 L558,67.43 L560.5,67.42 L563,67.42 L565.5,67.42 L568,67.42 L570.5,67.42 L573,67.42 L575.5,67.42 L578,67.42 " fill="none"/></g>
</g>
<g id="plotPoints" clip-path="url(#plot_window)"><g stroke="rgb(0,0,0)"></g>
</g>
<g id="limitPoints" stroke="rgb(119,136,153)" fill="rgb(250,235,215)"></g>
<g id="legendBackground" stroke="rgb(119,136,153)" fill="rgb(255,255,255)"></g>
<g id="legendPoints"></g>
<g id="legendText"></g>
<g id="title">
<text x="300" y="40" text-anchor="middle" font-size="20" font-family="Verdana">erf</text></g>
</svg>
