<?xml version="1.0" encoding="UTF-8" standalone="no"?>
<svg width="600" height ="400" version="1.1" xmlns="http://www.w3.org/2000/svg"
 xmlns:xlink="http://www.w3.org/1999/xlink"
 xmlns:ev="http://www.w3.org/2001/xml-events">

<!-- SVG plot written using Boost.Plot program (Creator Jacob Voytko) --> 
<!-- Use, modification and distribution of Boost.Plot subject to the --> 
<!-- Boost Software License, Version 1.0.--> 
<!-- (See accompanying file LICENSE_1_0.txt --> 
<!-- or copy at http://www.boost.org/LICENSE_1_0.txt) --> 

<!-- SVG Plot Copyright John Maddock 2008 --> 
<meta name="copyright" content="John Maddock" />
<meta name="date" content="2008" />
<!-- Use, modification and distribution of this Scalable Vector Graphic file -->
<!-- are subject to the Boost Software License, Version 1.0. -->
<!-- (See accompanying file LICENSE_1_0.txt or copy at http://www.boost.org/LICENSE_1_0.txt) -->

<clipPath id="plot_window"><rect x="62.8" y="63" width="524.2" height="274.2"/></clipPath>
<g id="imageBackground" stroke="rgb(119,136,153)" fill="rgb(255,255,255)" stroke-width="2"><rect x="0" y="0" width="600" height="400"/></g>
<g id="plotBackground" stroke="rgb(119,136,153)" fill="rgb(255,255,255)" stroke-width="2"><rect x="61.8" y="62" width="526.2" height="276.2"/></g>
<g id="yMinorGrid" stroke="rgb(200,220,255)" stroke-width="0.5"></g>
<g id="yMajorGrid" stroke="rgb(200,220,255)" stroke-width="1"></g>
<g id="xMinorGrid" stroke="rgb(200,220,255)" stroke-width="0.5"></g>
<g id="xMajorGrid" stroke="rgb(200,220,255)" stroke-width="1"></g>
<g id="yAxis" stroke="rgb(0,0,0)" stroke-width="1"><line x1="319.7" y1="62" x2="319.7" y2="343.2"/><line x1="61.8" y1="62" x2="61.8" y2="338.2"/></g>
<g id="xAxis" stroke="rgb(0,0,0)" stroke-width="1"><line x1="56.8" y1="169.7" x2="588" y2="169.7"/><line x1="56.8" y1="338.2" x2="588" y2="338.2"/></g>
<g id="yMinorTicks" stroke="rgb(0,0,0)" stroke-width="1"><path d="M59.8,155.6 L61.8,155.6 M59.8,141.6 L61.8,141.6 M59.8,127.6 L61.8,127.6 M59.8,99.48 L61.8,99.48 M59.8,85.44 L61.8,85.44 M59.8,71.4 L61.8,71.4 M59.8,169.7 L61.8,169.7 M59.8,183.7 L61.8,183.7 M59.8,197.8 L61.8,197.8 M59.8,211.8 L61.8,211.8 M59.8,225.9 L61.8,225.9 M59.8,239.9 L61.8,239.9 M59.8,253.9 L61.8,253.9 M59.8,268 L61.8,268 M59.8,282 L61.8,282 M59.8,296.1 L61.8,296.1 M59.8,310.1 L61.8,310.1 M59.8,324.2 L61.8,324.2 M59.8,338.2 L61.8,338.2 "/></g>
<g id="xMinorTicks" stroke="rgb(0,0,0)" stroke-width="1"><path d="M352,338.2 L352,340.2 M384.2,338.2 L384.2,340.2 M416.5,338.2 L416.5,340.2 M481,338.2 L481,340.2 M513.2,338.2 L513.2,340.2 M545.4,338.2 L545.4,340.2 M287.5,338.2 L287.5,340.2 M255.3,338.2 L255.3,340.2 M223,338.2 L223,340.2 M158.5,338.2 L158.5,340.2 M126.3,338.2 L126.3,340.2 M94.04,338.2 L94.04,340.2 "/></g>
<g id="yMajorTicks" stroke="rgb(0,0,0)" stroke-width="2"><path d="M56.8,169.7 L61.8,169.7 M56.8,113.5 L61.8,113.5 M56.8,169.7 L61.8,169.7 M56.8,225.9 L61.8,225.9 M56.8,282 L61.8,282 M56.8,338.2 L61.8,338.2 "/></g>
<g id="xMajorTicks" stroke="rgb(0,0,0)" stroke-width="2"><path d="M319.7,338.2 L319.7,343.2 M448.7,338.2 L448.7,343.2 M577.7,338.2 L577.7,343.2 M319.7,338.2 L319.7,343.2 M190.8,338.2 L190.8,343.2 "/></g>
<g id="plotLabels">
<text x="319.7" y="357.6" text-anchor="middle" font-size="12" font-family="Verdana">0</text>
<text x="448.7" y="357.6" text-anchor="middle" font-size="12" font-family="Verdana">0.5</text>
<text x="577.7" y="357.6" text-anchor="middle" font-size="12" font-family="Verdana">1</text>
<text x="319.7" y="357.6" text-anchor="middle" font-size="12" font-family="Verdana">0</text>
<text x="190.8" y="357.6" text-anchor="middle" font-size="12" font-family="Verdana">-0.5</text>
<text x="50.8" y="172.1" text-anchor="end" font-size="12" font-family="Verdana">0</text>
<text x="50.8" y="115.9" text-anchor="end" font-size="12" font-family="Verdana">1</text>
<text x="50.8" y="172.1" text-anchor="end" font-size="12" font-family="Verdana">0</text>
<text x="50.8" y="228.3" text-anchor="end" font-size="12" font-family="Verdana">-1</text>
<text x="50.8" y="284.4" text-anchor="end" font-size="12" font-family="Verdana">-2</text>
<text x="50.8" y="340.6" text-anchor="end" font-size="12" font-family="Verdana">-3</text></g>
<g id="yLabel">
<text x="30.2" y="200.1" text-anchor="middle" transform = "rotate(-90 30.2 200.1 )" font-size="14" font-family="Verdana">erf_inv(z)</text></g>
<g id="xLabel">
<text x="324.9" y="384" text-anchor="middle" font-size="14" font-family="Verdana">z</text></g>
<g id="plotLines" stroke-width="2"><g clip-path="url(#plot_window)" stroke="rgb(0,0,139)" stroke-width="1"><path d="M61.8,338.2 L64.38,272 L66.96,262.1 L69.54,255.9 L72.12,251.3 L74.7,247.5 L77.28,244.4 L79.86,241.7 L82.44,239.2 L85.01,237 L87.59,235 L90.17,233.2 L92.75,231.4 L95.33,229.8 L97.91,228.3 L100.5,226.9 L103.1,225.5 L105.7,224.2 L108.2,222.9 L110.8,221.7 L113.4,220.6 L116,219.5 L118.5,218.4 L121.1,217.4 L123.7,216.4 L126.3,215.4 L128.9,214.4 L131.4,213.5 L134,212.6 L136.6,211.7 L139.2,210.9 L141.8,210 L144.3,209.2 L146.9,208.4 L149.5,207.6 L152.1,206.8 L154.7,206 L157.2,205.3 L159.8,204.6 L162.4,203.8 L165,203.1 L167.6,202.4 L170.1,201.7 L172.7,201 L175.3,200.4 L177.9,199.7 L180.5,199 L183,198.4 L185.6,197.7 L188.2,197.1 L190.8,196.5 L193.4,195.9 L195.9,195.2 L198.5,194.6 L201.1,194 L203.7,193.4 L206.2,192.8 L208.8,192.3 L211.4,191.7 L214,191.1 L216.6,190.5 L219.1,190 L221.7,189.4 L224.3,188.8 L226.9,188.3 L229.5,187.7 L232,187.2 L234.6,186.6 L237.2,186.1 L239.8,185.5 L242.4,185 L244.9,184.5 L247.5,183.9 L250.1,183.4 L252.7,182.9 L255.3,182.3 L257.8,181.8 L260.4,181.3 L263,180.8 L265.6,180.3 L268.2,179.8 L270.7,179.2 L273.3,178.7 L275.9,178.2 L278.5,177.7 L281.1,177.2 L283.6,176.7 L286.2,176.2 L288.8,175.7 L291.4,175.2 L293.9,174.7 L296.5,174.2 L299.1,173.7 L301.7,173.2 L304.3,172.7 L306.8,172.2 L309.4,171.7 L312,171.2 L314.6,170.7 L317.2,170.2 L319.7,169.7 L322.3,169.2 L324.9,168.7 L327.5,168.2 L330.1,167.7 L332.6,167.2 L335.2,166.7 L337.8,166.2 L340.4,165.7 L343,165.2 L345.5,164.7 L348.1,164.2 L350.7,163.7 L353.3,163.2 L355.9,162.7 L358.4,162.2 L361,161.7 L363.6,161.2 L366.2,160.7 L368.8,160.1 L371.3,159.6 L373.9,159.1 L376.5,158.6 L379.1,158.1 L381.6,157.6 L384.2,157 L386.8,156.5 L389.4,156 L392,155.5 L394.5,154.9 L397.1,154.4 L399.7,153.9 L402.3,153.3 L404.9,152.8 L407.4,152.2 L410,151.7 L412.6,151.1 L415.2,150.6 L417.8,150 L420.3,149.4 L422.9,148.9 L425.5,148.3 L428.1,147.7 L430.7,147.1 L433.2,146.5 L435.8,146 L438.4,145.4 L441,144.7 L443.6,144.1 L446.1,143.5 L448.7,142.9 L451.3,142.3 L453.9,141.6 L456.5,141 L459,140.3 L461.6,139.7 L464.2,139 L466.8,138.3 L469.3,137.7 L471.9,137 L474.5,136.3 L477.1,135.6 L479.7,134.8 L482.2,134.1 L484.8,133.3 L487.4,132.6 L490,131.8 L492.6,131 L495.1,130.2 L497.7,129.4 L500.3,128.5 L502.9,127.7 L505.5,126.8 L508,125.9 L510.6,125 L513.2,124 L515.8,123 L518.4,122 L520.9,121 L523.5,119.9 L526.1,118.8 L528.7,117.6 L531.3,116.4 L533.8,115.2 L536.4,113.9 L539,112.5 L541.6,111.1 L544.2,109.6 L546.7,107.9 L549.3,106.2 L551.9,104.4 L554.5,102.4 L557,100.2 L559.6,97.73 L562.2,95 L564.8,91.85 L567.4,88.13 L569.9,83.51 L572.5,77.31 L575.1,67.42 " fill="none"/></g>
</g>
<g id="plotPoints" clip-path="url(#plot_window)"><g stroke="rgb(0,0,0)"></g>
</g>
<g id="limitPoints" stroke="rgb(119,136,153)" fill="rgb(250,235,215)"></g>
<g id="legendBackground" stroke="rgb(119,136,153)" fill="rgb(255,255,255)"></g>
<g id="legendPoints"></g>
<g id="legendText"></g>
<g id="title">
<text x="300" y="40" text-anchor="middle" font-size="20" font-family="Verdana">erf_inv</text></g>
</svg>
