<?xml version="1.0" encoding="UTF-8" standalone="no"?>
<svg width="600" height ="400" version="1.1" xmlns="http://www.w3.org/2000/svg"
 xmlns:xlink="http://www.w3.org/1999/xlink"
 xmlns:ev="http://www.w3.org/2001/xml-events">

<!-- SVG plot written using Boost.Plot program (Creator Jacob Voytko) --> 
<!-- Use, modification and distribution of Boost.Plot subject to the --> 
<!-- Boost Software License, Version 1.0.--> 
<!-- (See accompanying file LICENSE_1_0.txt --> 
<!-- or copy at http://www.boost.org/LICENSE_1_0.txt) --> 

<!-- SVG Plot Copyright John Maddock 2008 --> 
<meta name="copyright" content="John Maddock" />
<meta name="date" content="2008" />
<!-- Use, modification and distribution of this Scalable Vector Graphic file -->
<!-- are subject to the Boost Software License, Version 1.0. -->
<!-- (See accompanying file LICENSE_1_0.txt or copy at http://www.boost.org/LICENSE_1_0.txt) -->

<clipPath id="plot_window"><rect x="71.2" y="63" width="515.8" height="274.2"/></clipPath>
<g id="imageBackground" stroke="rgb(119,136,153)" fill="rgb(255,255,255)" stroke-width="2"><rect x="0" y="0" width="600" height="400"/></g>
<g id="plotBackground" stroke="rgb(119,136,153)" fill="rgb(255,255,255)" stroke-width="2"><rect x="70.2" y="62" width="517.8" height="276.2"/></g>
<g id="yMinorGrid" stroke="rgb(200,220,255)" stroke-width="0.5"></g>
<g id="yMajorGrid" stroke="rgb(200,220,255)" stroke-width="1"></g>
<g id="xMinorGrid" stroke="rgb(200,220,255)" stroke-width="0.5"></g>
<g id="xMajorGrid" stroke="rgb(200,220,255)" stroke-width="1"></g>
<g id="yAxis" stroke="rgb(0,0,0)" stroke-width="1"><line x1="324" y1="62" x2="324" y2="338.2"/><line x1="70.2" y1="62" x2="70.2" y2="338.2"/></g>
<g id="xAxis" stroke="rgb(0,0,0)" stroke-width="1"><line x1="70.2" y1="338.2" x2="588" y2="338.2"/></g>
<g id="yMinorTicks" stroke="rgb(0,0,0)" stroke-width="1"><path d="M68.2,321.3 L70.2,321.3 M68.2,304.4 L70.2,304.4 M68.2,287.4 L70.2,287.4 M68.2,253.6 L70.2,253.6 M68.2,236.7 L70.2,236.7 M68.2,219.7 L70.2,219.7 M68.2,185.9 L70.2,185.9 M68.2,169 L70.2,169 M68.2,152 L70.2,152 M68.2,118.2 L70.2,118.2 M68.2,101.3 L70.2,101.3 M68.2,84.34 L70.2,84.34 "/></g>
<g id="xMinorTicks" stroke="rgb(0,0,0)" stroke-width="1"><path d="M345.2,338.2 L345.2,340.2 M366.3,338.2 L366.3,340.2 M387.5,338.2 L387.5,340.2 M429.8,338.2 L429.8,340.2 M450.9,338.2 L450.9,340.2 M472.1,338.2 L472.1,340.2 M514.4,338.2 L514.4,340.2 M535.5,338.2 L535.5,340.2 M556.7,338.2 L556.7,340.2 M302.9,338.2 L302.9,340.2 M281.7,338.2 L281.7,340.2 M260.6,338.2 L260.6,340.2 M218.3,338.2 L218.3,340.2 M197.1,338.2 L197.1,340.2 M176,338.2 L176,340.2 M133.7,338.2 L133.7,340.2 M112.5,338.2 L112.5,340.2 M91.35,338.2 L91.35,340.2 "/></g>
<g id="yMajorTicks" stroke="rgb(0,0,0)" stroke-width="2"><path d="M65.2,338.2 L70.2,338.2 M65.2,270.5 L70.2,270.5 M65.2,202.8 L70.2,202.8 M65.2,135.1 L70.2,135.1 M65.2,67.41 L70.2,67.41 "/></g>
<g id="xMajorTicks" stroke="rgb(0,0,0)" stroke-width="2"><path d="M324,338.2 L324,343.2 M408.6,338.2 L408.6,343.2 M493.2,338.2 L493.2,343.2 M577.8,338.2 L577.8,343.2 M324,338.2 L324,343.2 M239.4,338.2 L239.4,343.2 M154.8,338.2 L154.8,343.2 M70.2,338.2 L70.2,343.2 "/></g>
<g id="plotLabels">
<text x="324" y="357.6" text-anchor="middle" font-size="12" font-family="Verdana">0</text>
<text x="408.6" y="357.6" text-anchor="middle" font-size="12" font-family="Verdana">1</text>
<text x="493.2" y="357.6" text-anchor="middle" font-size="12" font-family="Verdana">2</text>
<text x="577.8" y="357.6" text-anchor="middle" font-size="12" font-family="Verdana">3</text>
<text x="324" y="357.6" text-anchor="middle" font-size="12" font-family="Verdana">0</text>
<text x="239.4" y="357.6" text-anchor="middle" font-size="12" font-family="Verdana">-1</text>
<text x="154.8" y="357.6" text-anchor="middle" font-size="12" font-family="Verdana">-2</text>
<text x="70.2" y="357.6" text-anchor="middle" font-size="12" font-family="Verdana">-3</text>
<text x="59.2" y="340.6" text-anchor="end" font-size="12" font-family="Verdana">0</text>
<text x="59.2" y="272.9" text-anchor="end" font-size="12" font-family="Verdana">0.5</text>
<text x="59.2" y="205.2" text-anchor="end" font-size="12" font-family="Verdana">1</text>
<text x="59.2" y="137.5" text-anchor="end" font-size="12" font-family="Verdana">1.5</text>
<text x="59.2" y="69.81" text-anchor="end" font-size="12" font-family="Verdana">2</text></g>
<g id="yLabel">
<text x="30.2" y="200.1" text-anchor="middle" transform = "rotate(-90 30.2 200.1 )" font-size="14" font-family="Verdana">erfc(z)</text></g>
<g id="xLabel">
<text x="329.1" y="384" text-anchor="middle" font-size="14" font-family="Verdana">z</text></g>
<g id="plotLines" stroke-width="2"><g clip-path="url(#plot_window)" stroke="rgb(0,0,139)" stroke-width="1"><path d="M70.2,67.42 L72.74,67.42 L75.28,67.42 L77.81,67.42 L80.35,67.42 L82.89,67.42 L85.43,67.42 L87.97,67.42 L90.51,67.43 L93.04,67.43 L95.58,67.43 L98.12,67.43 L100.7,67.44 L103.2,67.44 L105.7,67.45 L108.3,67.45 L110.8,67.46 L113.3,67.47 L115.9,67.48 L118.4,67.49 L121,67.51 L123.5,67.52 L126,67.54 L128.6,67.56 L131.1,67.58 L133.7,67.61 L136.2,67.64 L138.7,67.68 L141.3,67.72 L143.8,67.76 L146.3,67.82 L148.9,67.88 L151.4,67.94 L154,68.02 L156.5,68.1 L159,68.2 L161.6,68.31 L164.1,68.43 L166.7,68.57 L169.2,68.72 L171.7,68.89 L174.3,69.08 L176.8,69.29 L179.3,69.52 L181.9,69.78 L184.4,70.07 L187,70.39 L189.5,70.74 L192,71.12 L194.6,71.54 L197.1,72 L199.6,72.51 L202.2,73.06 L204.7,73.66 L207.3,74.32 L209.8,75.03 L212.3,75.8 L214.9,76.63 L217.4,77.54 L220,78.51 L222.5,79.56 L225,80.68 L227.6,81.89 L230.1,83.18 L232.6,84.56 L235.2,86.04 L237.7,87.61 L240.3,89.28 L242.8,91.05 L245.3,92.93 L247.9,94.91 L250.4,97 L253,99.21 L255.5,101.5 L258,104 L260.6,106.5 L263.1,109.2 L265.6,112 L268.2,114.9 L270.7,117.9 L273.3,121 L275.8,124.3 L278.3,127.7 L280.9,131.2 L283.4,134.7 L285.9,138.4 L288.5,142.2 L291,146.1 L293.6,150.1 L296.1,154.2 L298.6,158.3 L301.2,162.5 L303.7,166.8 L306.3,171.2 L308.8,175.6 L311.3,180.1 L313.9,184.6 L316.4,189.1 L318.9,193.7 L321.5,198.2 L324,202.8 L326.6,207.4 L329.1,212 L331.6,216.5 L334.2,221.1 L336.7,225.6 L339.3,230 L341.8,234.4 L344.3,238.8 L346.9,243.1 L349.4,247.3 L351.9,251.5 L354.5,255.5 L357,259.5 L359.6,263.4 L362.1,267.2 L364.6,270.9 L367.2,274.5 L369.7,277.9 L372.2,281.3 L374.8,284.6 L377.3,287.7 L379.9,290.7 L382.4,293.6 L384.9,296.4 L387.5,299.1 L390,301.6 L392.6,304.1 L395.1,306.4 L397.6,308.6 L400.2,310.7 L402.7,312.7 L405.2,314.6 L407.8,316.3 L410.3,318 L412.9,319.6 L415.4,321.1 L417.9,322.4 L420.5,323.7 L423,324.9 L425.6,326.1 L428.1,327.1 L430.6,328.1 L433.2,329 L435.7,329.8 L438.2,330.6 L440.8,331.3 L443.3,332 L445.9,332.6 L448.4,333.1 L450.9,333.6 L453.5,334.1 L456,334.5 L458.5,334.9 L461.1,335.2 L463.6,335.5 L466.2,335.8 L468.7,336.1 L471.2,336.3 L473.8,336.5 L476.3,336.7 L478.9,336.9 L481.4,337 L483.9,337.2 L486.5,337.3 L489,337.4 L491.5,337.5 L494.1,337.6 L496.6,337.7 L499.2,337.7 L501.7,337.8 L504.2,337.9 L506.8,337.9 L509.3,337.9 L511.9,338 L514.4,338 L516.9,338 L519.5,338.1 L522,338.1 L524.5,338.1 L527.1,338.1 L529.6,338.1 L532.2,338.1 L534.7,338.1 L537.2,338.2 L539.8,338.2 L542.3,338.2 L544.8,338.2 L547.4,338.2 L549.9,338.2 L552.5,338.2 L555,338.2 L557.5,338.2 L560.1,338.2 L562.6,338.2 L565.2,338.2 L567.7,338.2 L570.2,338.2 L572.8,338.2 L575.3,338.2 L577.8,338.2 " fill="none"/></g>
</g>
<g id="plotPoints" clip-path="url(#plot_window)"><g stroke="rgb(0,0,0)"></g>
</g>
<g id="limitPoints" stroke="rgb(119,136,153)" fill="rgb(250,235,215)"></g>
<g id="legendBackground" stroke="rgb(119,136,153)" fill="rgb(255,255,255)"></g>
<g id="legendPoints"></g>
<g id="legendText"></g>
<g id="title">
<text x="300" y="40" text-anchor="middle" font-size="20" font-family="Verdana">erfc</text></g>
</svg>
