<?xml version="1.0" encoding="UTF-8" standalone="no"?>
<svg width="600" height ="400" version="1.1" xmlns="http://www.w3.org/2000/svg"
 xmlns:xlink="http://www.w3.org/1999/xlink"
 xmlns:ev="http://www.w3.org/2001/xml-events">

<!-- SVG plot written using Boost.Plot program (Creator Jacob Voytko) --> 
<!-- Use, modification and distribution of Boost.Plot subject to the --> 
<!-- Boost Software License, Version 1.0.--> 
<!-- (See accompanying file LICENSE_1_0.txt --> 
<!-- or copy at http://www.boost.org/LICENSE_1_0.txt) --> 

<!-- SVG Plot Copyright John Maddock 2008 --> 
<meta name="copyright" content="John Maddock" />
<meta name="date" content="2008" />
<!-- Use, modification and distribution of this Scalable Vector Graphic file -->
<!-- are subject to the Boost Software License, Version 1.0. -->
<!-- (See accompanying file LICENSE_1_0.txt or copy at http://www.boost.org/LICENSE_1_0.txt) -->

<clipPath id="plot_window"><rect x="62.8" y="63" width="524.2" height="274.2"/></clipPath>
<g id="imageBackground" stroke="rgb(119,136,153)" fill="rgb(255,255,255)" stroke-width="2"><rect x="0" y="0" width="600" height="400"/></g>
<g id="plotBackground" stroke="rgb(119,136,153)" fill="rgb(255,255,255)" stroke-width="2"><rect x="61.8" y="62" width="526.2" height="276.2"/></g>
<g id="yMinorGrid" stroke="rgb(200,220,255)" stroke-width="0.5"></g>
<g id="yMajorGrid" stroke="rgb(200,220,255)" stroke-width="1"></g>
<g id="xMinorGrid" stroke="rgb(200,220,255)" stroke-width="0.5"></g>
<g id="xMajorGrid" stroke="rgb(200,220,255)" stroke-width="1"></g>
<g id="yAxis" stroke="rgb(0,0,0)" stroke-width="1"><line x1="61.8" y1="62" x2="61.8" y2="338.2"/></g>
<g id="xAxis" stroke="rgb(0,0,0)" stroke-width="1"><line x1="56.8" y1="202.8" x2="588" y2="202.8"/><line x1="56.8" y1="338.2" x2="588" y2="338.2"/></g>
<g id="yMinorTicks" stroke="rgb(0,0,0)" stroke-width="1"><path d="M59.8,191.5 L61.8,191.5 M59.8,180.2 L61.8,180.2 M59.8,169 L61.8,169 M59.8,146.4 L61.8,146.4 M59.8,135.1 L61.8,135.1 M59.8,123.8 L61.8,123.8 M59.8,101.3 L61.8,101.3 M59.8,89.98 L61.8,89.98 M59.8,78.7 L61.8,78.7 M59.8,202.8 L61.8,202.8 M59.8,214.1 L61.8,214.1 M59.8,225.4 L61.8,225.4 M59.8,236.7 L61.8,236.7 M59.8,247.9 L61.8,247.9 M59.8,259.2 L61.8,259.2 M59.8,270.5 L61.8,270.5 M59.8,281.8 L61.8,281.8 M59.8,293.1 L61.8,293.1 M59.8,304.4 L61.8,304.4 M59.8,315.6 L61.8,315.6 M59.8,326.9 L61.8,326.9 "/></g>
<g id="xMinorTicks" stroke="rgb(0,0,0)" stroke-width="1"><path d="M94.04,338.2 L94.04,340.2 M126.3,338.2 L126.3,340.2 M158.5,338.2 L158.5,340.2 M223,338.2 L223,340.2 M255.3,338.2 L255.3,340.2 M287.5,338.2 L287.5,340.2 M352,338.2 L352,340.2 M384.2,338.2 L384.2,340.2 M416.5,338.2 L416.5,340.2 M481,338.2 L481,340.2 M513.2,338.2 L513.2,340.2 M545.4,338.2 L545.4,340.2 "/></g>
<g id="yMajorTicks" stroke="rgb(0,0,0)" stroke-width="2"><path d="M56.8,202.8 L61.8,202.8 M56.8,157.7 L61.8,157.7 M56.8,112.5 L61.8,112.5 M56.8,67.42 L61.8,67.42 M56.8,202.8 L61.8,202.8 M56.8,247.9 L61.8,247.9 M56.8,293.1 L61.8,293.1 "/></g>
<g id="xMajorTicks" stroke="rgb(0,0,0)" stroke-width="2"><path d="M61.79,338.2 L61.79,343.2 M190.8,338.2 L190.8,343.2 M319.7,338.2 L319.7,343.2 M448.7,338.2 L448.7,343.2 M577.7,338.2 L577.7,343.2 "/></g>
<g id="plotLabels">
<text x="61.79" y="357.6" text-anchor="middle" font-size="12" font-family="Verdana">0</text>
<text x="190.8" y="357.6" text-anchor="middle" font-size="12" font-family="Verdana">0.5</text>
<text x="319.7" y="357.6" text-anchor="middle" font-size="12" font-family="Verdana">1</text>
<text x="448.7" y="357.6" text-anchor="middle" font-size="12" font-family="Verdana">1.5</text>
<text x="577.7" y="357.6" text-anchor="middle" font-size="12" font-family="Verdana">2</text>
<text x="50.8" y="205.2" text-anchor="end" font-size="12" font-family="Verdana">0</text>
<text x="50.8" y="160.1" text-anchor="end" font-size="12" font-family="Verdana">1</text>
<text x="50.8" y="114.9" text-anchor="end" font-size="12" font-family="Verdana">2</text>
<text x="50.8" y="69.82" text-anchor="end" font-size="12" font-family="Verdana">3</text>
<text x="50.8" y="205.2" text-anchor="end" font-size="12" font-family="Verdana">0</text>
<text x="50.8" y="250.3" text-anchor="end" font-size="12" font-family="Verdana">-1</text>
<text x="50.8" y="295.5" text-anchor="end" font-size="12" font-family="Verdana">-2</text></g>
<g id="yLabel">
<text x="30.2" y="200.1" text-anchor="middle" transform = "rotate(-90 30.2 200.1 )" font-size="14" font-family="Verdana">erfc_inv(z)</text></g>
<g id="xLabel">
<text x="324.9" y="384" text-anchor="middle" font-size="14" font-family="Verdana">z</text></g>
<g id="plotLines" stroke-width="2"><g clip-path="url(#plot_window)" stroke="rgb(0,0,139)" stroke-width="1"><path d="M61.8,67.42 L64.38,120.6 L66.96,128.6 L69.54,133.6 L72.12,137.3 L74.7,140.3 L77.28,142.8 L79.86,145 L82.44,146.9 L85.01,148.7 L87.59,150.3 L90.17,151.8 L92.75,153.2 L95.33,154.5 L97.91,155.7 L100.5,156.9 L103.1,158 L105.7,159 L108.2,160 L110.8,161 L113.4,161.9 L116,162.8 L118.5,163.7 L121.1,164.5 L123.7,165.3 L126.3,166.1 L128.9,166.9 L131.4,167.6 L134,168.3 L136.6,169 L139.2,169.7 L141.8,170.4 L144.3,171.1 L146.9,171.7 L149.5,172.4 L152.1,173 L154.7,173.6 L157.2,174.2 L159.8,174.8 L162.4,175.4 L165,176 L167.6,176.5 L170.1,177.1 L172.7,177.6 L175.3,178.2 L177.9,178.7 L180.5,179.2 L183,179.8 L185.6,180.3 L188.2,180.8 L190.8,181.3 L193.4,181.8 L195.9,182.3 L198.5,182.8 L201.1,183.3 L203.7,183.7 L206.2,184.2 L208.8,184.7 L211.4,185.1 L214,185.6 L216.6,186.1 L219.1,186.5 L221.7,187 L224.3,187.4 L226.9,187.9 L229.5,188.3 L232,188.8 L234.6,189.2 L237.2,189.6 L239.8,190.1 L242.4,190.5 L244.9,190.9 L247.5,191.4 L250.1,191.8 L252.7,192.2 L255.3,192.6 L257.8,193.1 L260.4,193.5 L263,193.9 L265.6,194.3 L268.2,194.7 L270.7,195.1 L273.3,195.5 L275.9,196 L278.5,196.4 L281.1,196.8 L283.6,197.2 L286.2,197.6 L288.8,198 L291.4,198.4 L293.9,198.8 L296.5,199.2 L299.1,199.6 L301.7,200 L304.3,200.4 L306.8,200.8 L309.4,201.2 L312,201.6 L314.6,202 L317.2,202.4 L319.7,202.8 L322.3,203.2 L324.9,203.6 L327.5,204 L330.1,204.4 L332.6,204.8 L335.2,205.2 L337.8,205.6 L340.4,206 L343,206.4 L345.5,206.8 L348.1,207.2 L350.7,207.6 L353.3,208 L355.9,208.4 L358.4,208.8 L361,209.3 L363.6,209.7 L366.2,210.1 L368.7,210.5 L371.3,210.9 L373.9,211.3 L376.5,211.7 L379.1,212.1 L381.6,212.6 L384.2,213 L386.8,213.4 L389.4,213.8 L392,214.2 L394.5,214.7 L397.1,215.1 L399.7,215.5 L402.3,216 L404.9,216.4 L407.4,216.8 L410,217.3 L412.6,217.7 L415.2,218.2 L417.8,218.6 L420.3,219.1 L422.9,219.5 L425.5,220 L428.1,220.5 L430.7,220.9 L433.2,221.4 L435.8,221.9 L438.4,222.4 L441,222.8 L443.6,223.3 L446.1,223.8 L448.7,224.3 L451.3,224.8 L453.9,225.3 L456.4,225.9 L459,226.4 L461.6,226.9 L464.2,227.4 L466.8,228 L469.3,228.5 L471.9,229.1 L474.5,229.7 L477.1,230.2 L479.7,230.8 L482.2,231.4 L484.8,232 L487.4,232.6 L490,233.3 L492.6,233.9 L495.1,234.5 L497.7,235.2 L500.3,235.9 L502.9,236.6 L505.5,237.3 L508,238 L510.6,238.8 L513.2,239.5 L515.8,240.3 L518.4,241.1 L520.9,241.9 L523.5,242.8 L526.1,243.7 L528.7,244.6 L531.3,245.6 L533.8,246.6 L536.4,247.6 L539,248.7 L541.6,249.9 L544.1,251.1 L546.7,252.4 L549.3,253.8 L551.9,255.3 L554.5,256.9 L557,258.7 L559.6,260.6 L562.2,262.8 L564.8,265.3 L567.4,268.3 L569.9,272.1 L572.5,277 L575.1,285 L577.7,338.2 " fill="none"/></g>
</g>
<g id="plotPoints" clip-path="url(#plot_window)"><g stroke="rgb(0,0,0)"></g>
</g>
<g id="limitPoints" stroke="rgb(119,136,153)" fill="rgb(250,235,215)"></g>
<g id="legendBackground" stroke="rgb(119,136,153)" fill="rgb(255,255,255)"></g>
<g id="legendPoints"></g>
<g id="legendText"></g>
<g id="title">
<text x="300" y="40" text-anchor="middle" font-size="20" font-family="Verdana">erfc_inv</text></g>
</svg>
