<?xml version="1.0" encoding="UTF-8" standalone="no"?>
<svg width="600" height ="400" version="1.1" xmlns="http://www.w3.org/2000/svg"
 xmlns:xlink="http://www.w3.org/1999/xlink"
 xmlns:ev="http://www.w3.org/2001/xml-events">

<!-- SVG plot written using Boost.Plot program (Creator Jacob Voytko) --> 
<!-- Use, modification and distribution of Boost.Plot subject to the --> 
<!-- Boost Software License, Version 1.0.--> 
<!-- (See accompanying file LICENSE_1_0.txt --> 
<!-- or copy at http://www.boost.org/LICENSE_1_0.txt) --> 

<!-- SVG Plot Copyright John Maddock 2008 --> 
<meta name="copyright" content="John Maddock" />
<meta name="date" content="2008" />
<!-- Use, modification and distribution of this Scalable Vector Graphic file -->
<!-- are subject to the Boost Software License, Version 1.0. -->
<!-- (See accompanying file LICENSE_1_0.txt or copy at http://www.boost.org/LICENSE_1_0.txt) -->

<clipPath id="plot_window"><rect x="71.2" y="63" width="515.8" height="274.2"/></clipPath>
<g id="imageBackground" stroke="rgb(119,136,153)" fill="rgb(255,255,255)" stroke-width="2"><rect x="0" y="0" width="600" height="400"/></g>
<g id="plotBackground" stroke="rgb(119,136,153)" fill="rgb(255,255,255)" stroke-width="2"><rect x="70.2" y="62" width="517.8" height="276.2"/></g>
<g id="yMinorGrid" stroke="rgb(200,220,255)" stroke-width="0.5"></g>
<g id="yMajorGrid" stroke="rgb(200,220,255)" stroke-width="1"></g>
<g id="xMinorGrid" stroke="rgb(200,220,255)" stroke-width="0.5"></g>
<g id="xMajorGrid" stroke="rgb(200,220,255)" stroke-width="1"></g>
<g id="yAxis" stroke="rgb(0,0,0)" stroke-width="1"><line x1="287.8" y1="62" x2="287.8" y2="343.2"/><line x1="70.2" y1="62" x2="70.2" y2="338.2"/></g>
<g id="xAxis" stroke="rgb(0,0,0)" stroke-width="1"><line x1="65.2" y1="202.8" x2="588" y2="202.8"/><line x1="65.2" y1="338.2" x2="588" y2="338.2"/></g>
<g id="yMinorTicks" stroke="rgb(0,0,0)" stroke-width="1"><path d="M68.2,185.6 L70.2,185.6 M68.2,168.3 L70.2,168.3 M68.2,151.1 L70.2,151.1 M68.2,116.6 L70.2,116.6 M68.2,99.35 L70.2,99.35 M68.2,82.11 L70.2,82.11 M68.2,202.8 L70.2,202.8 M68.2,220.1 L70.2,220.1 M68.2,237.3 L70.2,237.3 M68.2,254.5 L70.2,254.5 M68.2,271.8 L70.2,271.8 M68.2,289 L70.2,289 M68.2,306.3 L70.2,306.3 M68.2,323.5 L70.2,323.5 "/></g>
<g id="xMinorTicks" stroke="rgb(0,0,0)" stroke-width="1"><path d="M305.9,338.2 L305.9,340.2 M324,338.2 L324,340.2 M342.2,338.2 L342.2,340.2 M378.4,338.2 L378.4,340.2 M396.5,338.2 L396.5,340.2 M414.7,338.2 L414.7,340.2 M450.9,338.2 L450.9,340.2 M469.1,338.2 L469.1,340.2 M487.2,338.2 L487.2,340.2 M523.5,338.2 L523.5,340.2 M541.6,338.2 L541.6,340.2 M559.7,338.2 L559.7,340.2 M269.6,338.2 L269.6,340.2 M251.5,338.2 L251.5,340.2 M233.4,338.2 L233.4,340.2 M197.1,338.2 L197.1,340.2 M179,338.2 L179,340.2 M160.9,338.2 L160.9,340.2 M124.6,338.2 L124.6,340.2 M106.5,338.2 L106.5,340.2 M88.33,338.2 L88.33,340.2 "/></g>
<g id="yMajorTicks" stroke="rgb(0,0,0)" stroke-width="2"><path d="M65.2,202.8 L70.2,202.8 M65.2,133.8 L70.2,133.8 M65.2,64.87 L70.2,64.87 M65.2,202.8 L70.2,202.8 M65.2,271.8 L70.2,271.8 "/></g>
<g id="xMajorTicks" stroke="rgb(0,0,0)" stroke-width="2"><path d="M287.8,338.2 L287.8,343.2 M360.3,338.2 L360.3,343.2 M432.8,338.2 L432.8,343.2 M505.3,338.2 L505.3,343.2 M577.8,338.2 L577.8,343.2 M287.8,338.2 L287.8,343.2 M215.2,338.2 L215.2,343.2 M142.7,338.2 L142.7,343.2 M70.2,338.2 L70.2,343.2 "/></g>
<g id="plotLabels">
<text x="287.8" y="357.6" text-anchor="middle" font-size="12" font-family="Verdana">0</text>
<text x="360.3" y="357.6" text-anchor="middle" font-size="12" font-family="Verdana">1</text>
<text x="432.8" y="357.6" text-anchor="middle" font-size="12" font-family="Verdana">2</text>
<text x="505.3" y="357.6" text-anchor="middle" font-size="12" font-family="Verdana">3</text>
<text x="577.8" y="357.6" text-anchor="middle" font-size="12" font-family="Verdana">4</text>
<text x="287.8" y="357.6" text-anchor="middle" font-size="12" font-family="Verdana">0</text>
<text x="215.2" y="357.6" text-anchor="middle" font-size="12" font-family="Verdana">-1</text>
<text x="142.7" y="357.6" text-anchor="middle" font-size="12" font-family="Verdana">-2</text>
<text x="70.2" y="357.6" text-anchor="middle" font-size="12" font-family="Verdana">-3</text>
<text x="59.2" y="205.2" text-anchor="end" font-size="12" font-family="Verdana">0</text>
<text x="59.2" y="136.2" text-anchor="end" font-size="12" font-family="Verdana">10</text>
<text x="59.2" y="67.27" text-anchor="end" font-size="12" font-family="Verdana">20</text>
<text x="59.2" y="205.2" text-anchor="end" font-size="12" font-family="Verdana">0</text>
<text x="59.2" y="274.2" text-anchor="end" font-size="12" font-family="Verdana">-10</text></g>
<g id="yLabel">
<text x="30.2" y="200.1" text-anchor="middle" transform = "rotate(-90 30.2 200.1 )" font-size="14" font-family="Verdana">expint(z)</text></g>
<g id="xLabel">
<text x="329.1" y="384" text-anchor="middle" font-size="14" font-family="Verdana">z</text></g>
<g id="plotLines" stroke-width="2"><g clip-path="url(#plot_window)" stroke="rgb(0,0,139)" stroke-width="1"><path d="M287.8,338.2 L289.2,225.7 L290.7,220.7 L292.1,217.8 L293.6,215.7 L295,214 L296.5,212.6 L297.9,211.4 L299.4,210.3 L300.8,209.4 L302.3,208.5 L303.7,207.7 L305.2,206.9 L306.6,206.2 L308.1,205.5 L309.5,204.9 L311,204.3 L312.4,203.7 L313.9,203.1 L315.3,202.6 L316.8,202.1 L318.2,201.6 L319.7,201.1 L321.1,200.6 L322.6,200.1 L324,199.7 L325.5,199.2 L326.9,198.8 L328.4,198.3 L329.8,197.9 L331.3,197.5 L332.7,197.1 L334.2,196.7 L335.6,196.3 L337.1,195.9 L338.5,195.5 L340,195.1 L341.4,194.7 L342.9,194.3 L344.3,193.9 L345.8,193.5 L347.2,193.1 L348.7,192.8 L350.1,192.4 L351.6,192 L353,191.6 L354.5,191.2 L355.9,190.9 L357.4,190.5 L358.8,190.1 L360.3,189.7 L361.7,189.4 L363.2,189 L364.6,188.6 L366.1,188.2 L367.5,187.9 L369,187.5 L370.4,187.1 L371.9,186.7 L373.3,186.3 L374.8,186 L376.2,185.6 L377.7,185.2 L379.1,184.8 L380.6,184.4 L382,184 L383.5,183.6 L384.9,183.3 L386.4,182.9 L387.8,182.5 L389.3,182.1 L390.7,181.7 L392.2,181.3 L393.6,180.9 L395.1,180.4 L396.5,180 L398,179.6 L399.4,179.2 L400.9,178.8 L402.3,178.4 L403.8,177.9 L405.2,177.5 L406.7,177.1 L408.1,176.6 L409.6,176.2 L411,175.8 L412.5,175.3 L413.9,174.9 L415.4,174.4 L416.9,174 L418.3,173.5 L419.8,173 L421.2,172.6 L422.7,172.1 L424.1,171.6 L425.6,171.1 L427,170.6 L428.5,170.1 L429.9,169.6 L431.4,169.1 L432.8,168.6 L434.3,168.1 L435.7,167.6 L437.2,167.1 L438.6,166.6 L440.1,166 L441.5,165.5 L443,164.9 L444.4,164.4 L445.9,163.8 L447.3,163.3 L448.8,162.7 L450.2,162.1 L451.7,161.5 L453.1,161 L454.6,160.4 L456,159.8 L457.5,159.2 L458.9,158.5 L460.4,157.9 L461.8,157.3 L463.3,156.6 L464.7,156 L466.2,155.3 L467.6,154.7 L469.1,154 L470.5,153.3 L472,152.7 L473.4,152 L474.9,151.3 L476.3,150.6 L477.8,149.8 L479.2,149.1 L480.7,148.4 L482.1,147.6 L483.6,146.9 L485,146.1 L486.5,145.3 L487.9,144.5 L489.4,143.8 L490.8,142.9 L492.3,142.1 L493.7,141.3 L495.2,140.5 L496.6,139.6 L498.1,138.8 L499.5,137.9 L501,137 L502.4,136.1 L503.9,135.2 L505.3,134.3 L506.8,133.4 L508.2,132.4 L509.7,131.5 L511.1,130.5 L512.6,129.5 L514,128.5 L515.5,127.5 L516.9,126.5 L518.4,125.5 L519.8,124.4 L521.3,123.3 L522.7,122.3 L524.2,121.2 L525.6,120.1 L527.1,118.9 L528.5,117.8 L530,116.6 L531.4,115.5 L532.9,114.3 L534.3,113.1 L535.8,111.8 L537.2,110.6 L538.7,109.3 L540.1,108.1 L541.6,106.8 L543,105.5 L544.5,104.1 L545.9,102.8 L547.4,101.4 L548.8,100 L550.3,98.59 L551.7,97.16 L553.2,95.7 L554.6,94.23 L556.1,92.73 L557.5,91.21 L559,89.67 L560.4,88.1 L561.9,86.52 L563.3,84.91 L564.8,83.27 L566.2,81.61 L567.7,79.93 L569.1,78.22 L570.6,76.49 L572,74.73 L573.5,72.94 L574.9,71.13 L576.4,69.28 L577.8,67.42 " fill="none"/></g>
<g clip-path="url(#plot_window)" stroke="rgb(0,0,139)" stroke-width="1"><path d="M70.2,202.9 L71.29,202.9 L72.38,202.9 L73.46,202.9 L74.55,202.9 L75.64,202.9 L76.73,202.9 L77.81,202.9 L78.9,202.9 L79.99,202.9 L81.08,202.9 L82.17,202.9 L83.25,202.9 L84.34,202.9 L85.43,202.9 L86.52,202.9 L87.61,202.9 L88.69,202.9 L89.78,202.9 L90.87,202.9 L91.96,202.9 L93.04,202.9 L94.13,202.9 L95.22,202.9 L96.31,203 L97.4,203 L98.48,203 L99.57,203 L100.7,203 L101.7,203 L102.8,203 L103.9,203 L105,203 L106.1,203 L107.2,203 L108.3,203 L109.4,203 L110.4,203 L111.5,203 L112.6,203 L113.7,203 L114.8,203 L115.9,203 L117,203 L118.1,203 L119.2,203 L120.2,203 L121.3,203 L122.4,203 L123.5,203 L124.6,203 L125.7,203.1 L126.8,203.1 L127.9,203.1 L128.9,203.1 L130,203.1 L131.1,203.1 L132.2,203.1 L133.3,203.1 L134.4,203.1 L135.5,203.1 L136.6,203.1 L137.6,203.1 L138.7,203.1 L139.8,203.1 L140.9,203.1 L142,203.1 L143.1,203.1 L144.2,203.2 L145.3,203.2 L146.3,203.2 L147.4,203.2 L148.5,203.2 L149.6,203.2 L150.7,203.2 L151.8,203.2 L152.9,203.2 L154,203.2 L155,203.2 L156.1,203.2 L157.2,203.3 L158.3,203.3 L159.4,203.3 L160.5,203.3 L161.6,203.3 L162.7,203.3 L163.8,203.3 L164.8,203.3 L165.9,203.3 L167,203.3 L168.1,203.4 L169.2,203.4 L170.3,203.4 L171.4,203.4 L172.5,203.4 L173.5,203.4 L174.6,203.4 L175.7,203.5 L176.8,203.5 L177.9,203.5 L179,203.5 L180.1,203.5 L181.2,203.5 L182.2,203.5 L183.3,203.6 L184.4,203.6 L185.5,203.6 L186.6,203.6 L187.7,203.6 L188.8,203.7 L189.9,203.7 L190.9,203.7 L192,203.7 L193.1,203.7 L194.2,203.8 L195.3,203.8 L196.4,203.8 L197.5,203.8 L198.6,203.8 L199.6,203.9 L200.7,203.9 L201.8,203.9 L202.9,204 L204,204 L205.1,204 L206.2,204 L207.3,204.1 L208.4,204.1 L209.4,204.1 L210.5,204.2 L211.6,204.2 L212.7,204.2 L213.8,204.3 L214.9,204.3 L216,204.3 L217.1,204.4 L218.1,204.4 L219.2,204.5 L220.3,204.5 L221.4,204.6 L222.5,204.6 L223.6,204.6 L224.7,204.7 L225.8,204.7 L226.8,204.8 L227.9,204.9 L229,204.9 L230.1,205 L231.2,205 L232.3,205.1 L233.4,205.2 L234.5,205.2 L235.5,205.3 L236.6,205.4 L237.7,205.4 L238.8,205.5 L239.9,205.6 L241,205.7 L242.1,205.8 L243.2,205.8 L244.3,205.9 L245.3,206 L246.4,206.1 L247.5,206.2 L248.6,206.4 L249.7,206.5 L250.8,206.6 L251.9,206.7 L253,206.8 L254,207 L255.1,207.1 L256.2,207.3 L257.3,207.4 L258.4,207.6 L259.5,207.8 L260.6,208 L261.7,208.1 L262.7,208.4 L263.8,208.6 L264.9,208.8 L266,209.1 L267.1,209.3 L268.2,209.6 L269.3,209.9 L270.4,210.2 L271.4,210.6 L272.5,211 L273.6,211.4 L274.7,211.8 L275.8,212.3 L276.9,212.9 L278,213.5 L279.1,214.3 L280.1,215.1 L281.2,216 L282.3,217.2 L283.4,218.6 L284.5,220.5 L285.6,223.2 L286.7,227.9 " fill="none"/></g>
</g>
<g id="plotPoints" clip-path="url(#plot_window)"><g stroke="rgb(0,0,0)"></g>
<g stroke="rgb(0,0,0)"></g>
</g>
<g id="limitPoints" stroke="rgb(119,136,153)" fill="rgb(250,235,215)"></g>
<g id="legendBackground" stroke="rgb(119,136,153)" fill="rgb(255,255,255)"></g>
<g id="legendPoints"></g>
<g id="legendText"></g>
<g id="title">
<text x="300" y="40" text-anchor="middle" font-size="20" font-family="Verdana">Exponential Integral Ei</text></g>
</svg>
