<?xml version="1.0" encoding="UTF-8" standalone="no"?>
<svg width="600" height ="400" version="1.1" xmlns="http://www.w3.org/2000/svg"
 xmlns:xlink="http://www.w3.org/1999/xlink"
 xmlns:ev="http://www.w3.org/2001/xml-events">

<!-- SVG plot written using Boost.Plot program (Creator Jacob Voytko) --> 
<!-- Use, modification and distribution of Boost.Plot subject to the --> 
<!-- Boost Software License, Version 1.0.--> 
<!-- (See accompanying file LICENSE_1_0.txt --> 
<!-- or copy at http://www.boost.org/LICENSE_1_0.txt) --> 

<!-- SVG Plot Copyright John Maddock 2008 --> 
<meta name="copyright" content="John Maddock" />
<meta name="date" content="2008" />
<!-- Use, modification and distribution of this Scalable Vector Graphic file -->
<!-- are subject to the Boost Software License, Version 1.0. -->
<!-- (See accompanying file LICENSE_1_0.txt or copy at http://www.boost.org/LICENSE_1_0.txt) -->

<clipPath id="plot_window"><rect x="71.2" y="63" width="394.8" height="274.2"/></clipPath>
<g id="imageBackground" stroke="rgb(119,136,153)" fill="rgb(255,255,255)" stroke-width="2"><rect x="0" y="0" width="600" height="400"/></g>
<g id="plotBackground" stroke="rgb(119,136,153)" fill="rgb(255,255,255)" stroke-width="2"><rect x="70.2" y="62" width="396.8" height="276.2"/></g>
<g id="yMinorGrid" stroke="rgb(200,220,255)" stroke-width="0.5"></g>
<g id="yMajorGrid" stroke="rgb(200,220,255)" stroke-width="1"></g>
<g id="xMinorGrid" stroke="rgb(200,220,255)" stroke-width="0.5"></g>
<g id="xMajorGrid" stroke="rgb(200,220,255)" stroke-width="1"></g>
<g id="yAxis" stroke="rgb(0,0,0)" stroke-width="1"><line x1="70.2" y1="62" x2="70.2" y2="338.2"/><line x1="70.2" y1="62" x2="70.2" y2="338.2"/></g>
<g id="xAxis" stroke="rgb(0,0,0)" stroke-width="1"><line x1="70.2" y1="338.2" x2="467" y2="338.2"/></g>
<g id="yMinorTicks" stroke="rgb(0,0,0)" stroke-width="1"><path d="M68.2,331.3 L70.2,331.3 M68.2,324.4 L70.2,324.4 M68.2,310.5 L70.2,310.5 M68.2,303.6 L70.2,303.6 M68.2,296.6 L70.2,296.6 M68.2,282.7 L70.2,282.7 M68.2,275.8 L70.2,275.8 M68.2,268.8 L70.2,268.8 M68.2,254.9 L70.2,254.9 M68.2,248 L70.2,248 M68.2,241.1 L70.2,241.1 M68.2,227.2 L70.2,227.2 M68.2,220.2 L70.2,220.2 M68.2,213.3 L70.2,213.3 M68.2,199.4 L70.2,199.4 M68.2,192.4 L70.2,192.4 M68.2,185.5 L70.2,185.5 M68.2,171.6 L70.2,171.6 M68.2,164.7 L70.2,164.7 M68.2,157.7 L70.2,157.7 M68.2,143.8 L70.2,143.8 M68.2,136.9 L70.2,136.9 M68.2,129.9 L70.2,129.9 M68.2,116 L70.2,116 M68.2,109.1 L70.2,109.1 M68.2,102.1 L70.2,102.1 M68.2,88.25 L70.2,88.25 M68.2,81.31 L70.2,81.31 M68.2,74.36 L70.2,74.36 "/></g>
<g id="xMinorTicks" stroke="rgb(0,0,0)" stroke-width="1"><path d="M94.51,338.2 L94.51,340.2 M118.8,338.2 L118.8,340.2 M143.1,338.2 L143.1,340.2 M191.8,338.2 L191.8,340.2 M216.1,338.2 L216.1,340.2 M240.4,338.2 L240.4,340.2 M289,338.2 L289,340.2 M313.3,338.2 L313.3,340.2 M337.6,338.2 L337.6,340.2 M386.2,338.2 L386.2,340.2 M410.6,338.2 L410.6,340.2 M434.9,338.2 L434.9,340.2 "/></g>
<g id="yMajorTicks" stroke="rgb(0,0,0)" stroke-width="2"><path d="M65.2,317.5 L70.2,317.5 M65.2,289.7 L70.2,289.7 M65.2,261.9 L70.2,261.9 M65.2,234.1 L70.2,234.1 M65.2,206.3 L70.2,206.3 M65.2,178.5 L70.2,178.5 M65.2,150.8 L70.2,150.8 M65.2,123 L70.2,123 M65.2,95.2 L70.2,95.2 M65.2,67.42 L70.2,67.42 "/></g>
<g id="xMajorTicks" stroke="rgb(0,0,0)" stroke-width="2"><path d="M70.2,338.2 L70.2,343.2 M167.4,338.2 L167.4,343.2 M264.7,338.2 L264.7,343.2 M361.9,338.2 L361.9,343.2 M459.2,338.2 L459.2,343.2 M70.2,338.2 L70.2,343.2 "/></g>
<g id="plotLabels">
<text x="70.2" y="357.6" text-anchor="middle" font-size="12" font-family="Verdana">0</text>
<text x="167.4" y="357.6" text-anchor="middle" font-size="12" font-family="Verdana">0.5</text>
<text x="264.7" y="357.6" text-anchor="middle" font-size="12" font-family="Verdana">1</text>
<text x="361.9" y="357.6" text-anchor="middle" font-size="12" font-family="Verdana">1.5</text>
<text x="459.2" y="357.6" text-anchor="middle" font-size="12" font-family="Verdana">2</text>
<text x="70.2" y="357.6" text-anchor="middle" font-size="12" font-family="Verdana">0</text>
<text x="59.2" y="319.9" text-anchor="end" font-size="12" font-family="Verdana">0.1</text>
<text x="59.2" y="292.1" text-anchor="end" font-size="12" font-family="Verdana">0.2</text>
<text x="59.2" y="264.3" text-anchor="end" font-size="12" font-family="Verdana">0.3</text>
<text x="59.2" y="236.5" text-anchor="end" font-size="12" font-family="Verdana">0.4</text>
<text x="59.2" y="208.7" text-anchor="end" font-size="12" font-family="Verdana">0.5</text>
<text x="59.2" y="180.9" text-anchor="end" font-size="12" font-family="Verdana">0.6</text>
<text x="59.2" y="153.2" text-anchor="end" font-size="12" font-family="Verdana">0.7</text>
<text x="59.2" y="125.4" text-anchor="end" font-size="12" font-family="Verdana">0.8</text>
<text x="59.2" y="97.6" text-anchor="end" font-size="12" font-family="Verdana">0.9</text>
<text x="59.2" y="69.82" text-anchor="end" font-size="12" font-family="Verdana">1</text></g>
<g id="yLabel">
<text x="30.2" y="200.1" text-anchor="middle" transform = "rotate(-90 30.2 200.1 )" font-size="14" font-family="Verdana">expint(n, z)</text></g>
<g id="xLabel">
<text x="268.6" y="384" text-anchor="middle" font-size="14" font-family="Verdana">z</text></g>
<g id="plotLines" stroke-width="2"><g clip-path="url(#plot_window)" stroke="rgb(0,0,139)" stroke-width="1"><path d="M121.7,67.42 L123.4,74.26 L125.1,80.84 L126.8,87.16 L128.4,93.24 L130.1,99.09 L131.8,104.7 L133.5,110.2 L135.2,115.4 L136.9,120.5 L138.6,125.4 L140.3,130.2 L141.9,134.8 L143.6,139.2 L145.3,143.5 L147,147.7 L148.7,151.7 L150.4,155.7 L152.1,159.5 L153.8,163.2 L155.4,166.8 L157.1,170.3 L158.8,173.7 L160.5,177 L162.2,180.2 L163.9,183.4 L165.6,186.4 L167.3,189.4 L168.9,192.3 L170.6,195.1 L172.3,197.8 L174,200.5 L175.7,203.1 L177.4,205.7 L179.1,208.2 L180.7,210.6 L182.4,213 L184.1,215.3 L185.8,217.6 L187.5,219.8 L189.2,221.9 L190.9,224.1 L192.6,226.1 L194.2,228.1 L195.9,230.1 L197.6,232.1 L199.3,233.9 L201,235.8 L202.7,237.6 L204.4,239.4 L206.1,241.1 L207.7,242.8 L209.4,244.5 L211.1,246.1 L212.8,247.7 L214.5,249.3 L216.2,250.8 L217.9,252.3 L219.6,253.8 L221.2,255.2 L222.9,256.6 L224.6,258 L226.3,259.4 L228,260.7 L229.7,262 L231.4,263.3 L233.1,264.5 L234.7,265.8 L236.4,267 L238.1,268.2 L239.8,269.3 L241.5,270.5 L243.2,271.6 L244.9,272.7 L246.6,273.8 L248.2,274.9 L249.9,275.9 L251.6,276.9 L253.3,277.9 L255,278.9 L256.7,279.9 L258.4,280.9 L260.1,281.8 L261.7,282.7 L263.4,283.6 L265.1,284.5 L266.8,285.4 L268.5,286.2 L270.2,287.1 L271.9,287.9 L273.6,288.7 L275.2,289.5 L276.9,290.3 L278.6,291.1 L280.3,291.9 L282,292.6 L283.7,293.4 L285.4,294.1 L287.1,294.8 L288.7,295.5 L290.4,296.2 L292.1,296.9 L293.8,297.6 L295.5,298.2 L297.2,298.9 L298.9,299.5 L300.6,300.1 L302.2,300.7 L303.9,301.4 L305.6,301.9 L307.3,302.5 L309,303.1 L310.7,303.7 L312.4,304.2 L314.1,304.8 L315.7,305.3 L317.4,305.9 L319.1,306.4 L320.8,306.9 L322.5,307.4 L324.2,307.9 L325.9,308.4 L327.6,308.9 L329.2,309.4 L330.9,309.9 L332.6,310.4 L334.3,310.8 L336,311.3 L337.7,311.7 L339.4,312.2 L341.1,312.6 L342.7,313 L344.4,313.4 L346.1,313.8 L347.8,314.3 L349.5,314.7 L351.2,315.1 L352.9,315.4 L354.6,315.8 L356.2,316.2 L357.9,316.6 L359.6,317 L361.3,317.3 L363,317.7 L364.7,318 L366.4,318.4 L368.1,318.7 L369.7,319.1 L371.4,319.4 L373.1,319.7 L374.8,320 L376.5,320.4 L378.2,320.7 L379.9,321 L381.6,321.3 L383.2,321.6 L384.9,321.9 L386.6,322.2 L388.3,322.5 L390,322.8 L391.7,323 L393.4,323.3 L395.1,323.6 L396.7,323.9 L398.4,324.1 L400.1,324.4 L401.8,324.6 L403.5,324.9 L405.2,325.2 L406.9,325.4 L408.6,325.6 L410.2,325.9 L411.9,326.1 L413.6,326.4 L415.3,326.6 L417,326.8 L418.7,327 L420.4,327.3 L422.1,327.5 L423.7,327.7 L425.4,327.9 L427.1,328.1 L428.8,328.3 L430.5,328.5 L432.2,328.7 L433.9,328.9 L435.6,329.1 L437.2,329.3 L438.9,329.5 L440.6,329.7 L442.3,329.9 L444,330.1 L445.7,330.3 L447.4,330.5 L449.1,330.6 L450.7,330.8 L452.4,331 L454.1,331.2 L455.8,331.3 L457.5,331.5 L459.2,331.7 " fill="none"/></g>
<g clip-path="url(#plot_window)" stroke="rgb(139,0,0)" stroke-width="1"><path d="M70.2,67.42 L72.14,81.4 L74.09,91.56 L76.03,100.3 L77.98,108.1 L79.92,115.2 L81.87,121.9 L83.81,128 L85.76,133.8 L87.7,139.3 L89.65,144.5 L91.59,149.4 L93.54,154.2 L95.48,158.7 L97.43,163 L99.37,167.1 L101.3,171.1 L103.3,175 L105.2,178.7 L107.2,182.3 L109.1,185.7 L111,189.1 L113,192.3 L114.9,195.4 L116.9,198.5 L118.8,201.4 L120.8,204.3 L122.7,207 L124.7,209.7 L126.6,212.4 L128.5,214.9 L130.5,217.4 L132.4,219.8 L134.4,222.2 L136.3,224.5 L138.3,226.7 L140.2,228.9 L142.2,231 L144.1,233.1 L146.1,235.1 L148,237.1 L149.9,239 L151.9,240.9 L153.8,242.7 L155.8,244.5 L157.7,246.3 L159.7,248 L161.6,249.7 L163.6,251.3 L165.5,252.9 L167.4,254.5 L169.4,256 L171.3,257.5 L173.3,259 L175.2,260.4 L177.2,261.9 L179.1,263.2 L181.1,264.6 L183,265.9 L184.9,267.2 L186.9,268.5 L188.8,269.8 L190.8,271 L192.7,272.2 L194.7,273.4 L196.6,274.5 L198.6,275.6 L200.5,276.8 L202.5,277.8 L204.4,278.9 L206.3,280 L208.3,281 L210.2,282 L212.2,283 L214.1,284 L216.1,284.9 L218,285.9 L220,286.8 L221.9,287.7 L223.8,288.6 L225.8,289.4 L227.7,290.3 L229.7,291.1 L231.6,292 L233.6,292.8 L235.5,293.6 L237.5,294.3 L239.4,295.1 L241.4,295.9 L243.3,296.6 L245.2,297.3 L247.2,298.1 L249.1,298.8 L251.1,299.5 L253,300.1 L255,300.8 L256.9,301.5 L258.9,302.1 L260.8,302.7 L262.7,303.4 L264.7,304 L266.6,304.6 L268.6,305.2 L270.5,305.8 L272.5,306.3 L274.4,306.9 L276.4,307.5 L278.3,308 L280.2,308.5 L282.2,309.1 L284.1,309.6 L286.1,310.1 L288,310.6 L290,311.1 L291.9,311.6 L293.9,312.1 L295.8,312.6 L297.8,313 L299.7,313.5 L301.6,313.9 L303.6,314.4 L305.5,314.8 L307.5,315.2 L309.4,315.7 L311.4,316.1 L313.3,316.5 L315.3,316.9 L317.2,317.3 L319.1,317.7 L321.1,318.1 L323,318.4 L325,318.8 L326.9,319.2 L328.9,319.5 L330.8,319.9 L332.8,320.3 L334.7,320.6 L336.7,320.9 L338.6,321.3 L340.5,321.6 L342.5,321.9 L344.4,322.3 L346.4,322.6 L348.3,322.9 L350.3,323.2 L352.2,323.5 L354.2,323.8 L356.1,324.1 L358,324.4 L360,324.6 L361.9,324.9 L363.9,325.2 L365.8,325.5 L367.8,325.7 L369.7,326 L371.7,326.3 L373.6,326.5 L375.5,326.8 L377.5,327 L379.4,327.3 L381.4,327.5 L383.3,327.7 L385.3,328 L387.2,328.2 L389.2,328.4 L391.1,328.7 L393.1,328.9 L395,329.1 L396.9,329.3 L398.9,329.5 L400.8,329.7 L402.8,329.9 L404.7,330.2 L406.7,330.4 L408.6,330.5 L410.6,330.7 L412.5,330.9 L414.4,331.1 L416.4,331.3 L418.3,331.5 L420.3,331.7 L422.2,331.9 L424.2,332 L426.1,332.2 L428.1,332.4 L430,332.5 L432,332.7 L433.9,332.9 L435.8,333 L437.8,333.2 L439.7,333.4 L441.7,333.5 L443.6,333.7 L445.6,333.8 L447.5,334 L449.5,334.1 L451.4,334.2 L453.3,334.4 L455.3,334.5 L457.2,334.7 " fill="none"/></g>
<g clip-path="url(#plot_window)" stroke="rgb(0,100,0)" stroke-width="1"><path d="M70.2,206.3 L72.14,209 L74.09,211.6 L76.03,214.1 L77.98,216.5 L79.92,218.9 L81.87,221.1 L83.81,223.3 L85.76,225.5 L87.7,227.5 L89.65,229.6 L91.59,231.6 L93.54,233.5 L95.48,235.4 L97.43,237.2 L99.37,239 L101.3,240.8 L103.3,242.5 L105.2,244.2 L107.2,245.8 L109.1,247.5 L111,249 L113,250.6 L114.9,252.1 L116.9,253.6 L118.8,255 L120.8,256.5 L122.7,257.9 L124.7,259.2 L126.6,260.6 L128.5,261.9 L130.5,263.2 L132.4,264.4 L134.4,265.7 L136.3,266.9 L138.3,268.1 L140.2,269.3 L142.2,270.4 L144.1,271.6 L146.1,272.7 L148,273.8 L149.9,274.8 L151.9,275.9 L153.8,276.9 L155.8,277.9 L157.7,278.9 L159.7,279.9 L161.6,280.9 L163.6,281.8 L165.5,282.8 L167.4,283.7 L169.4,284.6 L171.3,285.5 L173.3,286.3 L175.2,287.2 L177.2,288 L179.1,288.8 L181.1,289.7 L183,290.5 L184.9,291.2 L186.9,292 L188.8,292.8 L190.8,293.5 L192.7,294.3 L194.7,295 L196.6,295.7 L198.6,296.4 L200.5,297.1 L202.5,297.8 L204.4,298.4 L206.3,299.1 L208.3,299.7 L210.2,300.4 L212.2,301 L214.1,301.6 L216.1,302.2 L218,302.8 L220,303.4 L221.9,304 L223.8,304.6 L225.8,305.1 L227.7,305.7 L229.7,306.2 L231.6,306.8 L233.6,307.3 L235.5,307.8 L237.5,308.3 L239.4,308.8 L241.4,309.3 L243.3,309.8 L245.2,310.3 L247.2,310.8 L249.1,311.3 L251.1,311.7 L253,312.2 L255,312.6 L256.9,313.1 L258.9,313.5 L260.8,313.9 L262.7,314.3 L264.7,314.8 L266.6,315.2 L268.6,315.6 L270.5,316 L272.5,316.4 L274.4,316.8 L276.4,317.1 L278.3,317.5 L280.2,317.9 L282.2,318.2 L284.1,318.6 L286.1,319 L288,319.3 L290,319.6 L291.9,320 L293.9,320.3 L295.8,320.6 L297.8,321 L299.7,321.3 L301.6,321.6 L303.6,321.9 L305.5,322.2 L307.5,322.5 L309.4,322.8 L311.4,323.1 L313.3,323.4 L315.3,323.7 L317.2,324 L319.1,324.3 L321.1,324.5 L323,324.8 L325,325.1 L326.9,325.3 L328.9,325.6 L330.8,325.8 L332.8,326.1 L334.7,326.3 L336.7,326.6 L338.6,326.8 L340.5,327.1 L342.5,327.3 L344.4,327.5 L346.4,327.8 L348.3,328 L350.3,328.2 L352.2,328.4 L354.2,328.6 L356.1,328.9 L358,329.1 L360,329.3 L361.9,329.5 L363.9,329.7 L365.8,329.9 L367.8,330.1 L369.7,330.3 L371.7,330.5 L373.6,330.6 L375.5,330.8 L377.5,331 L379.4,331.2 L381.4,331.4 L383.3,331.5 L385.3,331.7 L387.2,331.9 L389.2,332.1 L391.1,332.2 L393.1,332.4 L395,332.6 L396.9,332.7 L398.9,332.9 L400.8,333 L402.8,333.2 L404.7,333.3 L406.7,333.5 L408.6,333.6 L410.6,333.8 L412.5,333.9 L414.4,334.1 L416.4,334.2 L418.3,334.3 L420.3,334.5 L422.2,334.6 L424.2,334.7 L426.1,334.9 L428.1,335 L430,335.1 L432,335.3 L433.9,335.4 L435.8,335.5 L437.8,335.6 L439.7,335.8 L441.7,335.9 L443.6,336 L445.6,336.1 L447.5,336.2 L449.5,336.3 L451.4,336.4 L453.3,336.5 L455.3,336.7 L457.2,336.8 " fill="none"/></g>
<g clip-path="url(#plot_window)" stroke="rgb(255,140,0)" stroke-width="1"><path d="M70.2,252.6 L72.14,254 L74.09,255.4 L76.03,256.7 L77.98,258 L79.92,259.3 L81.87,260.5 L83.81,261.7 L85.76,262.9 L87.7,264.1 L89.65,265.3 L91.59,266.4 L93.54,267.6 L95.48,268.7 L97.43,269.8 L99.37,270.8 L101.3,271.9 L103.3,272.9 L105.2,273.9 L107.2,274.9 L109.1,275.9 L111,276.9 L113,277.9 L114.9,278.8 L116.9,279.7 L118.8,280.6 L120.8,281.5 L122.7,282.4 L124.7,283.3 L126.6,284.1 L128.5,285 L130.5,285.8 L132.4,286.6 L134.4,287.4 L136.3,288.2 L138.3,289 L140.2,289.7 L142.2,290.5 L144.1,291.2 L146.1,292 L148,292.7 L149.9,293.4 L151.9,294.1 L153.8,294.8 L155.8,295.5 L157.7,296.1 L159.7,296.8 L161.6,297.4 L163.6,298.1 L165.5,298.7 L167.4,299.3 L169.4,299.9 L171.3,300.5 L173.3,301.1 L175.2,301.7 L177.2,302.3 L179.1,302.9 L181.1,303.4 L183,304 L184.9,304.5 L186.9,305.1 L188.8,305.6 L190.8,306.1 L192.7,306.6 L194.7,307.1 L196.6,307.6 L198.6,308.1 L200.5,308.6 L202.5,309.1 L204.4,309.5 L206.3,310 L208.3,310.5 L210.2,310.9 L212.2,311.4 L214.1,311.8 L216.1,312.2 L218,312.7 L220,313.1 L221.9,313.5 L223.8,313.9 L225.8,314.3 L227.7,314.7 L229.7,315.1 L231.6,315.5 L233.6,315.9 L235.5,316.3 L237.5,316.6 L239.4,317 L241.4,317.4 L243.3,317.7 L245.2,318.1 L247.2,318.4 L249.1,318.8 L251.1,319.1 L253,319.4 L255,319.7 L256.9,320.1 L258.9,320.4 L260.8,320.7 L262.7,321 L264.7,321.3 L266.6,321.6 L268.6,321.9 L270.5,322.2 L272.5,322.5 L274.4,322.8 L276.4,323.1 L278.3,323.4 L280.2,323.6 L282.2,323.9 L284.1,324.2 L286.1,324.4 L288,324.7 L290,325 L291.9,325.2 L293.9,325.5 L295.8,325.7 L297.8,326 L299.7,326.2 L301.6,326.4 L303.6,326.7 L305.5,326.9 L307.5,327.1 L309.4,327.4 L311.4,327.6 L313.3,327.8 L315.3,328 L317.2,328.2 L319.1,328.4 L321.1,328.6 L323,328.9 L325,329.1 L326.9,329.3 L328.9,329.5 L330.8,329.7 L332.8,329.8 L334.7,330 L336.7,330.2 L338.6,330.4 L340.5,330.6 L342.5,330.8 L344.4,330.9 L346.4,331.1 L348.3,331.3 L350.3,331.5 L352.2,331.6 L354.2,331.8 L356.1,332 L358,332.1 L360,332.3 L361.9,332.5 L363.9,332.6 L365.8,332.8 L367.8,332.9 L369.7,333.1 L371.7,333.2 L373.6,333.4 L375.5,333.5 L377.5,333.7 L379.4,333.8 L381.4,333.9 L383.3,334.1 L385.3,334.2 L387.2,334.3 L389.2,334.5 L391.1,334.6 L393.1,334.7 L395,334.9 L396.9,335 L398.9,335.1 L400.8,335.2 L402.8,335.4 L404.7,335.5 L406.7,335.6 L408.6,335.7 L410.6,335.8 L412.5,335.9 L414.4,336.1 L416.4,336.2 L418.3,336.3 L420.3,336.4 L422.2,336.5 L424.2,336.6 L426.1,336.7 L428.1,336.8 L430,336.9 L432,337 L433.9,337.1 L435.8,337.2 L437.8,337.3 L439.7,337.4 L441.7,337.5 L443.6,337.6 L445.6,337.7 L447.5,337.8 L449.5,337.9 L451.4,337.9 L453.3,338 L455.3,338.1 L457.2,338.2 " fill="none"/></g>
</g>
<g id="plotPoints" clip-path="url(#plot_window)"><g stroke="rgb(0,0,0)"></g>
<g stroke="rgb(0,0,0)"></g>
<g stroke="rgb(0,0,0)"></g>
<g stroke="rgb(0,0,0)"></g>
</g>
<g id="limitPoints" stroke="rgb(119,136,153)" fill="rgb(250,235,215)"></g>
<g id="legendBackground" stroke="rgb(119,136,153)" fill="rgb(255,255,255)" stroke-width="1"><rect x="481" y="62" width="107" height="126"/><rect x="481" y="62" width="107" height="126"/></g>
<g id="legendPoints"><g stroke="rgb(0,0,139)" stroke-width="1"><line x1="495" y1="90" x2="509" y2="90"/></g>
<g stroke="rgb(139,0,0)" stroke-width="1"><line x1="495" y1="118" x2="509" y2="118"/></g>
<g stroke="rgb(0,100,0)" stroke-width="1"><line x1="495" y1="146" x2="509" y2="146"/></g>
<g stroke="rgb(255,140,0)" stroke-width="1"><line x1="495" y1="174" x2="509" y2="174"/></g>
</g>
<g id="legendText">
<text x="516" y="90" font-size="14" font-family="Verdana">n = 1 </text>
<text x="516" y="118" font-size="14" font-family="Verdana">n = 2 </text>
<text x="516" y="146" font-size="14" font-family="Verdana">n = 3 </text>
<text x="516" y="174" font-size="14" font-family="Verdana">n = 4 </text></g>
<g id="title">
<text x="300" y="40" text-anchor="middle" font-size="20" font-family="Verdana">Exponential Integral En</text></g>
</svg>
