<?xml version="1.0" encoding="UTF-8" standalone="no"?>
<svg width="600" height ="400" version="1.1" xmlns="http://www.w3.org/2000/svg"
 xmlns:xlink="http://www.w3.org/1999/xlink"
 xmlns:ev="http://www.w3.org/2001/xml-events">

<!-- SVG plot written using Boost.Plot program (Creator Jacob Voytko) --> 
<!-- Use, modification and distribution of Boost.Plot subject to the --> 
<!-- Boost Software License, Version 1.0.--> 
<!-- (See accompanying file LICENSE_1_0.txt --> 
<!-- or copy at http://www.boost.org/LICENSE_1_0.txt) --> 

<!-- SVG Plot Copyright John Maddock 2008 --> 
<meta name="copyright" content="John Maddock" />
<meta name="date" content="2008" />
<!-- Use, modification and distribution of this Scalable Vector Graphic file -->
<!-- are subject to the Boost Software License, Version 1.0. -->
<!-- (See accompanying file LICENSE_1_0.txt or copy at http://www.boost.org/LICENSE_1_0.txt) -->

<clipPath id="plot_window"><rect x="54.4" y="63" width="532.6" height="274.2"/></clipPath>
<g id="imageBackground" stroke="rgb(119,136,153)" fill="rgb(255,255,255)" stroke-width="2"><rect x="0" y="0" width="600" height="400"/></g>
<g id="plotBackground" stroke="rgb(119,136,153)" fill="rgb(255,255,255)" stroke-width="2"><rect x="53.4" y="62" width="534.6" height="276.2"/></g>
<g id="yMinorGrid" stroke="rgb(200,220,255)" stroke-width="0.5"></g>
<g id="yMajorGrid" stroke="rgb(200,220,255)" stroke-width="1"></g>
<g id="xMinorGrid" stroke="rgb(200,220,255)" stroke-width="0.5"></g>
<g id="xMajorGrid" stroke="rgb(200,220,255)" stroke-width="1"></g>
<g id="yAxis" stroke="rgb(0,0,0)" stroke-width="1"><line x1="402.8" y1="62" x2="402.8" y2="343.2"/><line x1="53.4" y1="62" x2="53.4" y2="338.2"/></g>
<g id="xAxis" stroke="rgb(0,0,0)" stroke-width="1"><line x1="48.4" y1="302.1" x2="588" y2="302.1"/><line x1="48.4" y1="338.2" x2="588" y2="338.2"/></g>
<g id="yMinorTicks" stroke="rgb(0,0,0)" stroke-width="1"><path d="M51.4,293 L53.4,293 M51.4,283.8 L53.4,283.8 M51.4,274.6 L53.4,274.6 M51.4,256.2 L53.4,256.2 M51.4,247 L53.4,247 M51.4,237.8 L53.4,237.8 M51.4,219.5 L53.4,219.5 M51.4,210.3 L53.4,210.3 M51.4,201.1 L53.4,201.1 M51.4,182.7 L53.4,182.7 M51.4,173.6 L53.4,173.6 M51.4,164.4 L53.4,164.4 M51.4,146 L53.4,146 M51.4,136.8 L53.4,136.8 M51.4,127.6 L53.4,127.6 M51.4,109.3 L53.4,109.3 M51.4,100.1 L53.4,100.1 M51.4,90.89 L53.4,90.89 M51.4,72.52 L53.4,72.52 M51.4,63.34 L53.4,63.34 M51.4,302.1 L53.4,302.1 M51.4,311.3 L53.4,311.3 M51.4,320.5 L53.4,320.5 M51.4,329.7 L53.4,329.7 "/></g>
<g id="xMinorTicks" stroke="rgb(0,0,0)" stroke-width="1"><path d="M424.6,338.2 L424.6,340.2 M446.5,338.2 L446.5,340.2 M468.3,338.2 L468.3,340.2 M512,338.2 L512,340.2 M533.8,338.2 L533.8,340.2 M555.7,338.2 L555.7,340.2 M381,338.2 L381,340.2 M359.1,338.2 L359.1,340.2 M337.3,338.2 L337.3,340.2 M293.6,338.2 L293.6,340.2 M271.8,338.2 L271.8,340.2 M249.9,338.2 L249.9,340.2 M206.3,338.2 L206.3,340.2 M184.4,338.2 L184.4,340.2 M162.6,338.2 L162.6,340.2 M118.9,338.2 L118.9,340.2 M97.08,338.2 L97.08,340.2 M75.24,338.2 L75.24,340.2 "/></g>
<g id="yMajorTicks" stroke="rgb(0,0,0)" stroke-width="2"><path d="M48.4,302.1 L53.4,302.1 M48.4,265.4 L53.4,265.4 M48.4,228.7 L53.4,228.7 M48.4,191.9 L53.4,191.9 M48.4,155.2 L53.4,155.2 M48.4,118.4 L53.4,118.4 M48.4,81.71 L53.4,81.71 M48.4,302.1 L53.4,302.1 "/></g>
<g id="xMajorTicks" stroke="rgb(0,0,0)" stroke-width="2"><path d="M402.8,338.2 L402.8,343.2 M490.2,338.2 L490.2,343.2 M577.5,338.2 L577.5,343.2 M402.8,338.2 L402.8,343.2 M315.5,338.2 L315.5,343.2 M228.1,338.2 L228.1,343.2 M140.8,338.2 L140.8,343.2 M53.4,338.2 L53.4,343.2 "/></g>
<g id="plotLabels">
<text x="402.8" y="357.6" text-anchor="middle" font-size="12" font-family="Verdana">0</text>
<text x="490.2" y="357.6" text-anchor="middle" font-size="12" font-family="Verdana">1</text>
<text x="577.5" y="357.6" text-anchor="middle" font-size="12" font-family="Verdana">2</text>
<text x="402.8" y="357.6" text-anchor="middle" font-size="12" font-family="Verdana">0</text>
<text x="315.5" y="357.6" text-anchor="middle" font-size="12" font-family="Verdana">-1</text>
<text x="228.1" y="357.6" text-anchor="middle" font-size="12" font-family="Verdana">-2</text>
<text x="140.8" y="357.6" text-anchor="middle" font-size="12" font-family="Verdana">-3</text>
<text x="53.4" y="357.6" text-anchor="middle" font-size="12" font-family="Verdana">-4</text>
<text x="42.4" y="304.5" text-anchor="end" font-size="12" font-family="Verdana">0</text>
<text x="42.4" y="267.8" text-anchor="end" font-size="12" font-family="Verdana">1</text>
<text x="42.4" y="231.1" text-anchor="end" font-size="12" font-family="Verdana">2</text>
<text x="42.4" y="194.3" text-anchor="end" font-size="12" font-family="Verdana">3</text>
<text x="42.4" y="157.6" text-anchor="end" font-size="12" font-family="Verdana">4</text>
<text x="42.4" y="120.8" text-anchor="end" font-size="12" font-family="Verdana">5</text>
<text x="42.4" y="84.11" text-anchor="end" font-size="12" font-family="Verdana">6</text>
<text x="42.4" y="304.5" text-anchor="end" font-size="12" font-family="Verdana">0</text></g>
<g id="yLabel">
<text x="30.2" y="200.1" text-anchor="middle" transform = "rotate(-90 30.2 200.1 )" font-size="14" font-family="Verdana">expm1(z)</text></g>
<g id="xLabel">
<text x="320.7" y="384" text-anchor="middle" font-size="14" font-family="Verdana">z</text></g>
<g id="plotLines" stroke-width="2"><g clip-path="url(#plot_window)" stroke="rgb(0,0,139)" stroke-width="1"><path d="M53.4,338.2 L56.02,338.2 L58.64,338.2 L61.26,338.1 L63.88,338.1 L66.5,338.1 L69.12,338.1 L71.74,338 L74.36,338 L76.99,338 L79.61,338 L82.23,337.9 L84.85,337.9 L87.47,337.9 L90.09,337.8 L92.71,337.8 L95.33,337.8 L97.95,337.8 L100.6,337.7 L103.2,337.7 L105.8,337.6 L108.4,337.6 L111.1,337.6 L113.7,337.5 L116.3,337.5 L118.9,337.4 L121.5,337.4 L124.2,337.4 L126.8,337.3 L129.4,337.3 L132,337.2 L134.6,337.2 L137.3,337.1 L139.9,337.1 L142.5,337 L145.1,337 L147.7,336.9 L150.4,336.8 L153,336.8 L155.6,336.7 L158.2,336.6 L160.8,336.6 L163.5,336.5 L166.1,336.4 L168.7,336.4 L171.3,336.3 L173.9,336.2 L176.6,336.1 L179.2,336 L181.8,335.9 L184.4,335.9 L187,335.8 L189.7,335.7 L192.3,335.6 L194.9,335.5 L197.5,335.4 L200.2,335.3 L202.8,335.2 L205.4,335 L208,334.9 L210.6,334.8 L213.3,334.7 L215.9,334.6 L218.5,334.4 L221.1,334.3 L223.7,334.1 L226.4,334 L229,333.9 L231.6,333.7 L234.2,333.5 L236.8,333.4 L239.5,333.2 L242.1,333 L244.7,332.9 L247.3,332.7 L249.9,332.5 L252.6,332.3 L255.2,332.1 L257.8,331.9 L260.4,331.7 L263,331.5 L265.7,331.2 L268.3,331 L270.9,330.8 L273.5,330.5 L276.1,330.3 L278.8,330 L281.4,329.7 L284,329.4 L286.6,329.2 L289.3,328.9 L291.9,328.6 L294.5,328.2 L297.1,327.9 L299.7,327.6 L302.4,327.2 L305,326.9 L307.6,326.5 L310.2,326.1 L312.8,325.8 L315.5,325.4 L318.1,324.9 L320.7,324.5 L323.3,324.1 L325.9,323.6 L328.6,323.2 L331.2,322.7 L333.8,322.2 L336.4,321.7 L339,321.2 L341.7,320.6 L344.3,320.1 L346.9,319.5 L349.5,318.9 L352.1,318.3 L354.8,317.7 L357.4,317 L360,316.4 L362.6,315.7 L365.2,315 L367.9,314.2 L370.5,313.5 L373.1,312.7 L375.7,311.9 L378.4,311.1 L381,310.3 L383.6,309.4 L386.2,308.5 L388.8,307.6 L391.5,306.6 L394.1,305.6 L396.7,304.6 L399.3,303.6 L401.9,302.5 L404.6,301.4 L407.2,300.3 L409.8,299.1 L412.4,297.9 L415,296.6 L417.7,295.3 L420.3,294 L422.9,292.6 L425.5,291.2 L428.1,289.8 L430.8,288.3 L433.4,286.7 L436,285.2 L438.6,283.5 L441.2,281.8 L443.9,280.1 L446.5,278.3 L449.1,276.5 L451.7,274.6 L454.3,272.6 L457,270.6 L459.6,268.5 L462.2,266.4 L464.8,264.1 L467.5,261.9 L470.1,259.5 L472.7,257.1 L475.3,254.6 L477.9,252.1 L480.6,249.4 L483.2,246.7 L485.8,243.9 L488.4,241 L491,238 L493.7,234.9 L496.3,231.8 L498.9,228.5 L501.5,225.1 L504.1,221.7 L506.8,218.1 L509.4,214.4 L512,210.6 L514.6,206.7 L517.2,202.7 L519.9,198.6 L522.5,194.3 L525.1,189.9 L527.7,185.4 L530.3,180.7 L533,175.9 L535.6,170.9 L538.2,165.8 L540.8,160.5 L543.4,155.1 L546.1,149.5 L548.7,143.7 L551.3,137.8 L553.9,131.6 L556.6,125.3 L559.2,118.8 L561.8,112.1 L564.4,105.2 L567,98.11 L569.7,90.78 L572.3,83.22 L574.9,75.44 L577.5,67.42 " fill="none"/></g>
</g>
<g id="plotPoints" clip-path="url(#plot_window)"><g stroke="rgb(0,0,0)"></g>
</g>
<g id="limitPoints" stroke="rgb(119,136,153)" fill="rgb(250,235,215)"></g>
<g id="legendBackground" stroke="rgb(119,136,153)" fill="rgb(255,255,255)"></g>
<g id="legendPoints"></g>
<g id="legendText"></g>
<g id="title">
<text x="300" y="40" text-anchor="middle" font-size="20" font-family="Verdana">expm1</text></g>
</svg>
