<?xml version="1.0" encoding="UTF-8" standalone="no"?>
<svg width="750" height ="400" version="1.1" xmlns="http://www.w3.org/2000/svg"
 xmlns:xlink="http://www.w3.org/1999/xlink"
 xmlns:ev="http://www.w3.org/2001/xml-events">

<!-- SVG plot written using Boost.Plot program (Creator Jacob Voytko) --> 
<!-- Use, modification and distribution of Boost.Plot subject to the --> 
<!-- Boost Software License, Version 1.0.--> 
<!-- (See accompanying file LICENSE_1_0.txt --> 
<!-- or copy at http://www.boost.org/LICENSE_1_0.txt) --> 

<clipPath id="plot_window"><rect x="71.2" y="63" width="564.3" height="274.2"/></clipPath>
<g id="imageBackground" stroke="rgb(119,136,153)" fill="rgb(255,255,255)" stroke-width="2"><rect x="0" y="0" width="750" height="400"/></g>
<g id="plotBackground" stroke="rgb(119,136,153)" fill="rgb(255,255,255)" stroke-width="2"><rect x="70.2" y="62" width="566.3" height="276.2"/></g>
<g id="yMinorGrid" stroke="rgb(200,220,255)" stroke-width="0.5"></g>
<g id="yMajorGrid" stroke="rgb(200,220,255)" stroke-width="1"></g>
<g id="xMinorGrid" stroke="rgb(200,220,255)" stroke-width="0.5"></g>
<g id="xMajorGrid" stroke="rgb(200,220,255)" stroke-width="1"></g>
<g id="yAxis" stroke="rgb(0,0,0)" stroke-width="1"><line x1="70.2" y1="62" x2="70.2" y2="343.2"/><line x1="70.2" y1="62" x2="70.2" y2="338.2"/></g>
<g id="xAxis" stroke="rgb(0,0,0)" stroke-width="1"><line x1="65.2" y1="338.2" x2="636.5" y2="338.2"/><line x1="65.2" y1="338.2" x2="636.5" y2="338.2"/></g>
<g id="yMinorTicks" stroke="rgb(0,0,0)" stroke-width="1"><path d="M68.2,324.9 L70.2,324.9 M68.2,311.5 L70.2,311.5 M68.2,298.2 L70.2,298.2 M68.2,284.9 L70.2,284.9 M68.2,258.2 L70.2,258.2 M68.2,244.9 L70.2,244.9 M68.2,231.5 L70.2,231.5 M68.2,218.2 L70.2,218.2 M68.2,191.5 L70.2,191.5 M68.2,178.2 L70.2,178.2 M68.2,164.8 L70.2,164.8 M68.2,151.5 L70.2,151.5 M68.2,124.8 L70.2,124.8 M68.2,111.5 L70.2,111.5 M68.2,98.17 L70.2,98.17 M68.2,84.83 L70.2,84.83 M68.2,338.2 L70.2,338.2 "/></g>
<g id="xMinorTicks" stroke="rgb(0,0,0)" stroke-width="1"><path d="M89.07,338.2 L89.07,340.2 M107.9,338.2 L107.9,340.2 M126.8,338.2 L126.8,340.2 M145.7,338.2 L145.7,340.2 M183.4,338.2 L183.4,340.2 M202.3,338.2 L202.3,340.2 M221.2,338.2 L221.2,340.2 M240,338.2 L240,340.2 M277.8,338.2 L277.8,340.2 M296.7,338.2 L296.7,340.2 M315.5,338.2 L315.5,340.2 M334.4,338.2 L334.4,340.2 M372.1,338.2 L372.1,340.2 M391,338.2 L391,340.2 M409.9,338.2 L409.9,340.2 M428.8,338.2 L428.8,340.2 M466.5,338.2 L466.5,340.2 M485.4,338.2 L485.4,340.2 M504.2,338.2 L504.2,340.2 M523.1,338.2 L523.1,340.2 M560.9,338.2 L560.9,340.2 M579.7,338.2 L579.7,340.2 M598.6,338.2 L598.6,340.2 M617.5,338.2 L617.5,340.2 "/></g>
<g id="yMajorTicks" stroke="rgb(0,0,0)" stroke-width="2"><path d="M65.2,338.2 L70.2,338.2 M65.2,271.5 L70.2,271.5 M65.2,204.8 L70.2,204.8 M65.2,138.2 L70.2,138.2 M65.2,71.5 L70.2,71.5 M65.2,338.2 L70.2,338.2 "/></g>
<g id="xMajorTicks" stroke="rgb(0,0,0)" stroke-width="2"><path d="M70.2,338.2 L70.2,343.2 M164.6,338.2 L164.6,343.2 M258.9,338.2 L258.9,343.2 M353.3,338.2 L353.3,343.2 M447.6,338.2 L447.6,343.2 M542,338.2 L542,343.2 M636.3,338.2 L636.3,343.2 "/></g>
<g id="plotLabels">
<text x="70.2" y="357.6" text-anchor="middle" font-size="12" font-family="Verdana">0</text>
<text x="164.6" y="357.6" text-anchor="middle" font-size="12" font-family="Verdana">1</text>
<text x="258.9" y="357.6" text-anchor="middle" font-size="12" font-family="Verdana">2</text>
<text x="353.3" y="357.6" text-anchor="middle" font-size="12" font-family="Verdana">3</text>
<text x="447.6" y="357.6" text-anchor="middle" font-size="12" font-family="Verdana">4</text>
<text x="542" y="357.6" text-anchor="middle" font-size="12" font-family="Verdana">5</text>
<text x="636.3" y="357.6" text-anchor="middle" font-size="12" font-family="Verdana">6</text>
<text x="59.2" y="340.6" text-anchor="end" font-size="12" font-family="Verdana">0</text>
<text x="59.2" y="273.9" text-anchor="end" font-size="12" font-family="Verdana">0.5</text>
<text x="59.2" y="207.2" text-anchor="end" font-size="12" font-family="Verdana">1</text>
<text x="59.2" y="140.6" text-anchor="end" font-size="12" font-family="Verdana">1.5</text>
<text x="59.2" y="73.9" text-anchor="end" font-size="12" font-family="Verdana">2</text>
<text x="59.2" y="340.6" text-anchor="end" font-size="12" font-family="Verdana">0</text></g>
<g id="yLabel">
<text x="30.2" y="200.1" text-anchor="middle" transform = "rotate(-90 30.2 200.1 )" font-size="14" font-family="Verdana">Probability</text></g>
<g id="xLabel">
<text x="353.3" y="384" text-anchor="middle" font-size="14" font-family="Verdana">Random Variable</text></g>
<g id="plotLines" stroke-width="2"><g clip-path="url(#plot_window)" stroke="rgb(0,0,139)" stroke-width="1"><path d="M70.2,271.5 L73.03,272.5 L75.86,273.5 L78.69,274.5 L81.53,275.4 L84.36,276.3 L87.19,277.3 L90.02,278.2 L92.85,279.1 L95.68,279.9 L98.51,280.8 L101.3,281.7 L104.2,282.5 L107,283.3 L109.8,284.2 L112.7,285 L115.5,285.8 L118.3,286.5 L121.2,287.3 L124,288.1 L126.8,288.8 L129.7,289.5 L132.5,290.3 L135.3,291 L138.2,291.7 L141,292.4 L143.8,293.1 L146.6,293.7 L149.5,294.4 L152.3,295 L155.1,295.7 L158,296.3 L160.8,296.9 L163.6,297.6 L166.5,298.2 L169.3,298.8 L172.1,299.4 L175,299.9 L177.8,300.5 L180.6,301.1 L183.5,301.6 L186.3,302.2 L189.1,302.7 L192,303.2 L194.8,303.7 L197.6,304.3 L200.4,304.8 L203.3,305.3 L206.1,305.8 L208.9,306.2 L211.8,306.7 L214.6,307.2 L217.4,307.6 L220.3,308.1 L223.1,308.5 L225.9,309 L228.8,309.4 L231.6,309.8 L234.4,310.3 L237.3,310.7 L240.1,311.1 L242.9,311.5 L245.7,311.9 L248.6,312.3 L251.4,312.7 L254.2,313.1 L257.1,313.4 L259.9,313.8 L262.7,314.2 L265.6,314.5 L268.4,314.9 L271.2,315.2 L274.1,315.6 L276.9,315.9 L279.7,316.2 L282.6,316.6 L285.4,316.9 L288.2,317.2 L291,317.5 L293.9,317.8 L296.7,318.1 L299.5,318.4 L302.4,318.7 L305.2,319 L308,319.3 L310.9,319.6 L313.7,319.9 L316.5,320.1 L319.4,320.4 L322.2,320.7 L325,320.9 L327.9,321.2 L330.7,321.4 L333.5,321.7 L336.4,321.9 L339.2,322.2 L342,322.4 L344.8,322.6 L347.7,322.9 L350.5,323.1 L353.3,323.3 L356.2,323.5 L359,323.8 L361.8,324 L364.7,324.2 L367.5,324.4 L370.3,324.6 L373.2,324.8 L376,325 L378.8,325.2 L381.7,325.4 L384.5,325.6 L387.3,325.8 L390.1,326 L393,326.1 L395.8,326.3 L398.6,326.5 L401.5,326.7 L404.3,326.8 L407.1,327 L410,327.2 L412.8,327.3 L415.6,327.5 L418.5,327.7 L421.3,327.8 L424.1,328 L427,328.1 L429.8,328.3 L432.6,328.4 L435.5,328.6 L438.3,328.7 L441.1,328.9 L443.9,329 L446.8,329.1 L449.6,329.3 L452.4,329.4 L455.3,329.5 L458.1,329.7 L460.9,329.8 L463.8,329.9 L466.6,330 L469.4,330.2 L472.3,330.3 L475.1,330.4 L477.9,330.5 L480.8,330.6 L483.6,330.7 L486.4,330.9 L489.2,331 L492.1,331.1 L494.9,331.2 L497.7,331.3 L500.6,331.4 L503.4,331.5 L506.2,331.6 L509.1,331.7 L511.9,331.8 L514.7,331.9 L517.6,332 L520.4,332.1 L523.2,332.2 L526.1,332.2 L528.9,332.3 L531.7,332.4 L534.5,332.5 L537.4,332.6 L540.2,332.7 L543,332.8 L545.9,332.8 L548.7,332.9 L551.5,333 L554.4,333.1 L557.2,333.2 L560,333.2 L562.9,333.3 L565.7,333.4 L568.5,333.4 L571.4,333.5 L574.2,333.6 L577,333.7 L579.9,333.7 L582.7,333.8 L585.5,333.9 L588.3,333.9 L591.2,334 L594,334 L596.8,334.1 L599.7,334.2 L602.5,334.2 L605.3,334.3 L608.2,334.3 L611,334.4 L613.8,334.5 L616.7,334.5 L619.5,334.6 L622.3,334.6 L625.2,334.7 L628,334.7 L630.8,334.8 L633.6,334.8 " fill="none"/></g>
<g clip-path="url(#plot_window)" stroke="rgb(139,0,0)" stroke-width="1"><path d="M70.2,204.8 L73.03,208.8 L75.86,212.6 L78.69,216.3 L81.53,219.9 L84.36,223.4 L87.19,226.8 L90.02,230.1 L92.85,233.3 L95.68,236.4 L98.51,239.4 L101.3,242.3 L104.2,245.2 L107,247.9 L109.8,250.6 L112.7,253.2 L115.5,255.7 L118.3,258.1 L121.2,260.5 L124,262.8 L126.8,265 L129.7,267.2 L132.5,269.3 L135.3,271.3 L138.2,273.3 L141,275.2 L143.8,277.1 L146.6,278.9 L149.5,280.6 L152.3,282.3 L155.1,284 L158,285.6 L160.8,287.2 L163.6,288.7 L166.5,290.1 L169.3,291.5 L172.1,292.9 L175,294.3 L177.8,295.6 L180.6,296.8 L183.5,298 L186.3,299.2 L189.1,300.4 L192,301.5 L194.8,302.6 L197.6,303.6 L200.4,304.7 L203.3,305.7 L206.1,306.6 L208.9,307.6 L211.8,308.5 L214.6,309.3 L217.4,310.2 L220.3,311 L223.1,311.8 L225.9,312.6 L228.8,313.4 L231.6,314.1 L234.4,314.8 L237.3,315.5 L240.1,316.2 L242.9,316.8 L245.7,317.5 L248.6,318.1 L251.4,318.7 L254.2,319.2 L257.1,319.8 L259.9,320.3 L262.7,320.9 L265.6,321.4 L268.4,321.9 L271.2,322.4 L274.1,322.8 L276.9,323.3 L279.7,323.7 L282.6,324.2 L285.4,324.6 L288.2,325 L291,325.4 L293.9,325.7 L296.7,326.1 L299.5,326.5 L302.4,326.8 L305.2,327.2 L308,327.5 L310.9,327.8 L313.7,328.1 L316.5,328.4 L319.4,328.7 L322.2,329 L325,329.2 L327.9,329.5 L330.7,329.8 L333.5,330 L336.4,330.3 L339.2,330.5 L342,330.7 L344.8,330.9 L347.7,331.2 L350.5,331.4 L353.3,331.6 L356.2,331.8 L359,332 L361.8,332.1 L364.7,332.3 L367.5,332.5 L370.3,332.7 L373.2,332.8 L376,333 L378.8,333.1 L381.7,333.3 L384.5,333.4 L387.3,333.6 L390.1,333.7 L393,333.8 L395.8,334 L398.6,334.1 L401.5,334.2 L404.3,334.3 L407.1,334.4 L410,334.6 L412.8,334.7 L415.6,334.8 L418.5,334.9 L421.3,335 L424.1,335.1 L427,335.2 L429.8,335.2 L432.6,335.3 L435.5,335.4 L438.3,335.5 L441.1,335.6 L443.9,335.7 L446.8,335.7 L449.6,335.8 L452.4,335.9 L455.3,335.9 L458.1,336 L460.9,336.1 L463.8,336.1 L466.6,336.2 L469.4,336.3 L472.3,336.3 L475.1,336.4 L477.9,336.4 L480.8,336.5 L483.6,336.5 L486.4,336.6 L489.2,336.6 L492.1,336.7 L494.9,336.7 L497.7,336.8 L500.6,336.8 L503.4,336.8 L506.2,336.9 L509.1,336.9 L511.9,337 L514.7,337 L517.6,337 L520.4,337.1 L523.2,337.1 L526.1,337.1 L528.9,337.2 L531.7,337.2 L534.5,337.2 L537.4,337.3 L540.2,337.3 L543,337.3 L545.9,337.3 L548.7,337.4 L551.5,337.4 L554.4,337.4 L557.2,337.4 L560,337.5 L562.9,337.5 L565.7,337.5 L568.5,337.5 L571.4,337.5 L574.2,337.6 L577,337.6 L579.9,337.6 L582.7,337.6 L585.5,337.6 L588.3,337.7 L591.2,337.7 L594,337.7 L596.8,337.7 L599.7,337.7 L602.5,337.7 L605.3,337.7 L608.2,337.8 L611,337.8 L613.8,337.8 L616.7,337.8 L619.5,337.8 L622.3,337.8 L625.2,337.8 L628,337.8 L630.8,337.8 L633.6,337.9 " fill="none"/></g>
<g clip-path="url(#plot_window)" stroke="rgb(0,100,0)" stroke-width="1"><path d="M70.2,71.5 L73.03,87.03 L75.86,101.7 L78.69,115.4 L81.53,128.4 L84.36,140.6 L87.19,152.1 L90.02,163 L92.85,173.2 L95.68,182.8 L98.51,191.9 L101.3,200.4 L104.2,208.4 L107,216 L109.8,223.1 L112.7,229.8 L115.5,236.1 L118.3,242.1 L121.2,247.7 L124,252.9 L126.8,257.9 L129.7,262.6 L132.5,267 L135.3,271.1 L138.2,275 L141,278.7 L143.8,282.2 L146.6,285.4 L149.5,288.5 L152.3,291.4 L155.1,294.1 L158,296.7 L160.8,299.1 L163.6,301.4 L166.5,303.5 L169.3,305.6 L172.1,307.5 L175,309.2 L177.8,310.9 L180.6,312.5 L183.5,314 L186.3,315.4 L189.1,316.8 L192,318 L194.8,319.2 L197.6,320.3 L200.4,321.3 L203.3,322.3 L206.1,323.2 L208.9,324.1 L211.8,324.9 L214.6,325.7 L217.4,326.4 L220.3,327.1 L223.1,327.8 L225.9,328.4 L228.8,328.9 L231.6,329.5 L234.4,330 L237.3,330.5 L240.1,330.9 L242.9,331.3 L245.7,331.7 L248.6,332.1 L251.4,332.5 L254.2,332.8 L257.1,333.1 L259.9,333.4 L262.7,333.7 L265.6,334 L268.4,334.2 L271.2,334.4 L274.1,334.7 L276.9,334.9 L279.7,335.1 L282.6,335.2 L285.4,335.4 L288.2,335.6 L291,335.7 L293.9,335.9 L296.7,336 L299.5,336.1 L302.4,336.3 L305.2,336.4 L308,336.5 L310.9,336.6 L313.7,336.7 L316.5,336.8 L319.4,336.8 L322.2,336.9 L325,337 L327.9,337.1 L330.7,337.1 L333.5,337.2 L336.4,337.3 L339.2,337.3 L342,337.4 L344.8,337.4 L347.7,337.5 L350.5,337.5 L353.3,337.5 L356.2,337.6 L359,337.6 L361.8,337.6 L364.7,337.7 L367.5,337.7 L370.3,337.7 L373.2,337.8 L376,337.8 L378.8,337.8 L381.7,337.8 L384.5,337.9 L387.3,337.9 L390.1,337.9 L393,337.9 L395.8,337.9 L398.6,337.9 L401.5,338 L404.3,338 L407.1,338 L410,338 L412.8,338 L415.6,338 L418.5,338 L421.3,338 L424.1,338.1 L427,338.1 L429.8,338.1 L432.6,338.1 L435.5,338.1 L438.3,338.1 L441.1,338.1 L443.9,338.1 L446.8,338.1 L449.6,338.1 L452.4,338.1 L455.3,338.1 L458.1,338.1 L460.9,338.1 L463.8,338.1 L466.6,338.1 L469.4,338.1 L472.3,338.1 L475.1,338.2 L477.9,338.2 L480.8,338.2 L483.6,338.2 L486.4,338.2 L489.2,338.2 L492.1,338.2 L494.9,338.2 L497.7,338.2 L500.6,338.2 L503.4,338.2 L506.2,338.2 L509.1,338.2 L511.9,338.2 L514.7,338.2 L517.6,338.2 L520.4,338.2 L523.2,338.2 L526.1,338.2 L528.9,338.2 L531.7,338.2 L534.5,338.2 L537.4,338.2 L540.2,338.2 L543,338.2 L545.9,338.2 L548.7,338.2 L551.5,338.2 L554.4,338.2 L557.2,338.2 L560,338.2 L562.9,338.2 L565.7,338.2 L568.5,338.2 L571.4,338.2 L574.2,338.2 L577,338.2 L579.9,338.2 L582.7,338.2 L585.5,338.2 L588.3,338.2 L591.2,338.2 L594,338.2 L596.8,338.2 L599.7,338.2 L602.5,338.2 L605.3,338.2 L608.2,338.2 L611,338.2 L613.8,338.2 L616.7,338.2 L619.5,338.2 L622.3,338.2 L625.2,338.2 L628,338.2 L630.8,338.2 L633.6,338.2 " fill="none"/></g>
</g>
<g id="plotPoints" clip-path="url(#plot_window)"><g stroke="rgb(0,0,0)"></g>
<g stroke="rgb(0,0,0)"></g>
<g stroke="rgb(0,0,0)"></g>
</g>
<g id="limitPoints" stroke="rgb(119,136,153)" fill="rgb(250,235,215)"></g>
<g id="legendBackground" stroke="rgb(119,136,153)" fill="rgb(255,255,255)" stroke-width="1"><rect x="650.5" y="62" width="87.52" height="105"/><rect x="650.5" y="62" width="87.52" height="105"/></g>
<g id="legendPoints"><g stroke="rgb(0,0,139)" stroke-width="1"><line x1="665.5" y1="92" x2="680.5" y2="92"/></g>
<g stroke="rgb(139,0,0)" stroke-width="1"><line x1="665.5" y1="122" x2="680.5" y2="122"/></g>
<g stroke="rgb(0,100,0)" stroke-width="1"><line x1="665.5" y1="152" x2="680.5" y2="152"/></g>
</g>
<g id="legendText">
<text x="688" y="92" font-size="15" font-family="Verdana">&#x3BB;=1</text>
<text x="688" y="122" font-size="15" font-family="Verdana">&#x3BB;=2</text>
<text x="688" y="152" font-size="15" font-family="Verdana">&#x3BB;=5</text></g>
<g id="title">
<text x="375" y="40" text-anchor="middle" font-size="20" font-family="Verdana">Exponential Distribution PDF</text></g>
</svg>
