<?xml version="1.0" encoding="UTF-8" standalone="no"?>
<svg width="750" height ="400" version="1.1" xmlns="http://www.w3.org/2000/svg"
 xmlns:xlink="http://www.w3.org/1999/xlink"
 xmlns:ev="http://www.w3.org/2001/xml-events">

<!-- SVG plot written using Boost.Plot program (Creator Jacob Voytko) --> 
<!-- Use, modification and distribution of Boost.Plot subject to the --> 
<!-- Boost Software License, Version 1.0.--> 
<!-- (See accompanying file LICENSE_1_0.txt --> 
<!-- or copy at http://www.boost.org/LICENSE_1_0.txt) --> 

<clipPath id="plot_window"><rect x="71.2" y="63" width="517.2" height="274.2"/></clipPath>
<g id="imageBackground" stroke="rgb(119,136,153)" fill="rgb(255,255,255)" stroke-width="2"><rect x="0" y="0" width="750" height="400"/></g>
<g id="plotBackground" stroke="rgb(119,136,153)" fill="rgb(255,255,255)" stroke-width="2"><rect x="70.2" y="62" width="519.2" height="276.2"/></g>
<g id="yMinorGrid" stroke="rgb(200,220,255)" stroke-width="0.5"></g>
<g id="yMajorGrid" stroke="rgb(200,220,255)" stroke-width="1"></g>
<g id="xMinorGrid" stroke="rgb(200,220,255)" stroke-width="0.5"></g>
<g id="xMajorGrid" stroke="rgb(200,220,255)" stroke-width="1"></g>
<g id="yAxis" stroke="rgb(0,0,0)" stroke-width="1"><line x1="228.8" y1="62" x2="228.8" y2="343.2"/><line x1="70.2" y1="62" x2="70.2" y2="338.2"/></g>
<g id="xAxis" stroke="rgb(0,0,0)" stroke-width="1"><line x1="65.2" y1="338.2" x2="589.4" y2="338.2"/><line x1="65.2" y1="338.2" x2="589.4" y2="338.2"/></g>
<g id="yMinorTicks" stroke="rgb(0,0,0)" stroke-width="1"><path d="M68.2,331.4 L70.2,331.4 M68.2,324.5 L70.2,324.5 M68.2,317.7 L70.2,317.7 M68.2,310.9 L70.2,310.9 M68.2,297.2 L70.2,297.2 M68.2,290.4 L70.2,290.4 M68.2,283.6 L70.2,283.6 M68.2,276.8 L70.2,276.8 M68.2,263.1 L70.2,263.1 M68.2,256.3 L70.2,256.3 M68.2,249.5 L70.2,249.5 M68.2,242.6 L70.2,242.6 M68.2,229 L70.2,229 M68.2,222.2 L70.2,222.2 M68.2,215.3 L70.2,215.3 M68.2,208.5 L70.2,208.5 M68.2,194.9 L70.2,194.9 M68.2,188 L70.2,188 M68.2,181.2 L70.2,181.2 M68.2,174.4 L70.2,174.4 M68.2,160.7 L70.2,160.7 M68.2,153.9 L70.2,153.9 M68.2,147.1 L70.2,147.1 M68.2,140.3 L70.2,140.3 M68.2,126.6 L70.2,126.6 M68.2,119.8 L70.2,119.8 M68.2,113 L70.2,113 M68.2,106.1 L70.2,106.1 M68.2,92.49 L70.2,92.49 M68.2,85.66 L70.2,85.66 M68.2,78.84 L70.2,78.84 M68.2,72.01 L70.2,72.01 M68.2,338.2 L70.2,338.2 "/></g>
<g id="xMinorTicks" stroke="rgb(0,0,0)" stroke-width="1"><path d="M274.1,338.2 L274.1,340.2 M319.5,338.2 L319.5,340.2 M364.9,338.2 L364.9,340.2 M410.2,338.2 L410.2,340.2 M500.9,338.2 L500.9,340.2 M546.3,338.2 L546.3,340.2 M183.4,338.2 L183.4,340.2 M138.1,338.2 L138.1,340.2 M92.71,338.2 L92.71,340.2 "/></g>
<g id="yMajorTicks" stroke="rgb(0,0,0)" stroke-width="2"><path d="M65.2,338.2 L70.2,338.2 M65.2,304.1 L70.2,304.1 M65.2,269.9 L70.2,269.9 M65.2,235.8 L70.2,235.8 M65.2,201.7 L70.2,201.7 M65.2,167.6 L70.2,167.6 M65.2,133.4 L70.2,133.4 M65.2,99.31 L70.2,99.31 M65.2,65.19 L70.2,65.19 M65.2,338.2 L70.2,338.2 "/></g>
<g id="xMajorTicks" stroke="rgb(0,0,0)" stroke-width="2"><path d="M228.8,338.2 L228.8,343.2 M455.6,338.2 L455.6,343.2 M228.8,338.2 L228.8,343.2 "/></g>
<g id="plotLabels">
<text x="228.8" y="357.6" text-anchor="middle" font-size="12" font-family="Verdana">0</text>
<text x="455.6" y="357.6" text-anchor="middle" font-size="12" font-family="Verdana">5</text>
<text x="228.8" y="357.6" text-anchor="middle" font-size="12" font-family="Verdana">0</text>
<text x="59.2" y="340.6" text-anchor="end" font-size="12" font-family="Verdana">0</text>
<text x="59.2" y="306.5" text-anchor="end" font-size="12" font-family="Verdana">0.1</text>
<text x="59.2" y="272.3" text-anchor="end" font-size="12" font-family="Verdana">0.2</text>
<text x="59.2" y="238.2" text-anchor="end" font-size="12" font-family="Verdana">0.3</text>
<text x="59.2" y="204.1" text-anchor="end" font-size="12" font-family="Verdana">0.4</text>
<text x="59.2" y="170" text-anchor="end" font-size="12" font-family="Verdana">0.5</text>
<text x="59.2" y="135.8" text-anchor="end" font-size="12" font-family="Verdana">0.6</text>
<text x="59.2" y="101.7" text-anchor="end" font-size="12" font-family="Verdana">0.7</text>
<text x="59.2" y="67.59" text-anchor="end" font-size="12" font-family="Verdana">0.8</text>
<text x="59.2" y="340.6" text-anchor="end" font-size="12" font-family="Verdana">0</text></g>
<g id="yLabel">
<text x="30.2" y="200.1" text-anchor="middle" transform = "rotate(-90 30.2 200.1 )" font-size="14" font-family="Verdana">Probability</text></g>
<g id="xLabel">
<text x="329.8" y="384" text-anchor="middle" font-size="14" font-family="Verdana">Random Variable</text></g>
<g id="plotLines" stroke-width="2"><g clip-path="url(#plot_window)" stroke="rgb(0,0,139)" stroke-width="1"><path d="M70.2,338.2 L72.8,338.2 L75.39,338.2 L77.99,338.2 L80.58,338.2 L83.18,338.2 L85.78,338.2 L88.37,338.2 L90.97,338.2 L93.57,338.2 L96.16,338.2 L98.76,338.2 L101.4,338.2 L104,338.2 L106.5,338.2 L109.1,338.2 L111.7,338.2 L114.3,338.2 L116.9,338.2 L119.5,338.2 L122.1,338.2 L124.7,338.2 L127.3,338.2 L129.9,338.2 L132.5,338.2 L135.1,338.2 L137.7,338.2 L140.3,338.2 L142.9,338.2 L145.5,338.2 L148.1,338.2 L150.7,338.2 L153.3,338.2 L155.9,338.2 L158.5,338.2 L161.1,338.2 L163.7,338.2 L166.3,338.2 L168.9,338.2 L171.5,338.2 L174,338.1 L176.6,337.9 L179.2,337.4 L181.8,336.2 L184.4,334.1 L187,330.3 L189.6,324.3 L192.2,315.4 L194.8,303.3 L197.4,287.7 L200,268.9 L202.6,247.4 L205.2,224.1 L207.8,200 L210.4,176.3 L213,154 L215.6,134.1 L218.2,117.4 L220.8,104.1 L223.4,94.72 L226,89.11 L228.6,87.12 L231.2,88.45 L233.8,92.68 L236.4,99.37 L239,108.1 L241.5,118.3 L244.1,129.6 L246.7,141.7 L249.3,154.1 L251.9,166.7 L254.5,179.2 L257.1,191.4 L259.7,203.1 L262.3,214.4 L264.9,225 L267.5,235 L270.1,244.3 L272.7,253 L275.3,261 L277.9,268.4 L280.5,275.2 L283.1,281.4 L285.7,287 L288.3,292.2 L290.9,296.8 L293.5,301 L296.1,304.8 L298.7,308.3 L301.3,311.4 L303.9,314.2 L306.5,316.7 L309.1,319 L311.6,321 L314.2,322.8 L316.8,324.4 L319.4,325.9 L322,327.2 L324.6,328.4 L327.2,329.4 L329.8,330.4 L332.4,331.2 L335,332 L337.6,332.6 L340.2,333.2 L342.8,333.8 L345.4,334.2 L348,334.7 L350.6,335 L353.2,335.4 L355.8,335.7 L358.4,336 L361,336.2 L363.6,336.4 L366.2,336.6 L368.8,336.8 L371.4,336.9 L374,337.1 L376.6,337.2 L379.1,337.3 L381.7,337.4 L384.3,337.5 L386.9,337.6 L389.5,337.6 L392.1,337.7 L394.7,337.7 L397.3,337.8 L399.9,337.8 L402.5,337.9 L405.1,337.9 L407.7,337.9 L410.3,338 L412.9,338 L415.5,338 L418.1,338 L420.7,338.1 L423.3,338.1 L425.9,338.1 L428.5,338.1 L431.1,338.1 L433.7,338.1 L436.3,338.1 L438.9,338.1 L441.5,338.1 L444.1,338.1 L446.6,338.2 L449.2,338.2 L451.8,338.2 L454.4,338.2 L457,338.2 L459.6,338.2 L462.2,338.2 L464.8,338.2 L467.4,338.2 L470,338.2 L472.6,338.2 L475.2,338.2 L477.8,338.2 L480.4,338.2 L483,338.2 L485.6,338.2 L488.2,338.2 L490.8,338.2 L493.4,338.2 L496,338.2 L498.6,338.2 L501.2,338.2 L503.8,338.2 L506.4,338.2 L509,338.2 L511.6,338.2 L514.2,338.2 L516.7,338.2 L519.3,338.2 L521.9,338.2 L524.5,338.2 L527.1,338.2 L529.7,338.2 L532.3,338.2 L534.9,338.2 L537.5,338.2 L540.1,338.2 L542.7,338.2 L545.3,338.2 L547.9,338.2 L550.5,338.2 L553.1,338.2 L555.7,338.2 L558.3,338.2 L560.9,338.2 L563.5,338.2 L566.1,338.2 L568.7,338.2 L571.3,338.2 L573.9,338.2 L576.5,338.2 L579.1,338.2 L581.7,338.2 L584.2,338.2 L586.8,338.2 L589.4,338.2 " fill="none"/></g>
<g clip-path="url(#plot_window)" stroke="rgb(139,0,0)" stroke-width="1"><path d="M70.2,338.2 L72.8,338.2 L75.39,338.2 L77.99,338.2 L80.58,338.2 L83.18,338.2 L85.78,338.2 L88.37,338.2 L90.97,338.2 L93.57,338.2 L96.16,338.2 L98.76,338.2 L101.4,338.2 L104,338.2 L106.5,338.2 L109.1,338.2 L111.7,338.2 L114.3,338.2 L116.9,338.2 L119.5,338.1 L122.1,338.1 L124.7,338 L127.3,337.9 L129.9,337.8 L132.5,337.5 L135.1,337.2 L137.7,336.7 L140.3,336.1 L142.9,335.2 L145.5,334.2 L148.1,332.8 L150.7,331.1 L153.3,329.1 L155.9,326.6 L158.5,323.7 L161.1,320.5 L163.7,316.7 L166.3,312.6 L168.9,308.1 L171.5,303.1 L174,297.9 L176.6,292.3 L179.2,286.6 L181.8,280.7 L184.4,274.6 L187,268.6 L189.6,262.6 L192.2,256.8 L194.8,251.1 L197.4,245.7 L200,240.6 L202.6,235.8 L205.2,231.4 L207.8,227.5 L210.4,224 L213,220.9 L215.6,218.4 L218.2,216.3 L220.8,214.7 L223.4,213.6 L226,212.9 L228.6,212.7 L231.2,212.8 L233.8,213.4 L236.4,214.3 L239,215.6 L241.5,217.1 L244.1,218.9 L246.7,221 L249.3,223.3 L251.9,225.8 L254.5,228.5 L257.1,231.2 L259.7,234.1 L262.3,237.1 L264.9,240.2 L267.5,243.3 L270.1,246.4 L272.7,249.6 L275.3,252.7 L277.9,255.8 L280.5,258.9 L283.1,262 L285.7,265 L288.3,268 L290.9,270.9 L293.5,273.7 L296.1,276.5 L298.7,279.2 L301.3,281.8 L303.9,284.3 L306.5,286.8 L309.1,289.2 L311.6,291.5 L314.2,293.7 L316.8,295.8 L319.4,297.8 L322,299.8 L324.6,301.7 L327.2,303.5 L329.8,305.2 L332.4,306.8 L335,308.4 L337.6,309.9 L340.2,311.3 L342.8,312.7 L345.4,314 L348,315.3 L350.6,316.5 L353.2,317.6 L355.8,318.7 L358.4,319.7 L361,320.7 L363.6,321.6 L366.2,322.5 L368.8,323.3 L371.4,324.1 L374,324.9 L376.6,325.6 L379.1,326.2 L381.7,326.9 L384.3,327.5 L386.9,328.1 L389.5,328.6 L392.1,329.1 L394.7,329.6 L397.3,330.1 L399.9,330.5 L402.5,331 L405.1,331.3 L407.7,331.7 L410.3,332.1 L412.9,332.4 L415.5,332.7 L418.1,333 L420.7,333.3 L423.3,333.6 L425.9,333.8 L428.5,334.1 L431.1,334.3 L433.7,334.5 L436.3,334.7 L438.9,334.9 L441.5,335.1 L444.1,335.3 L446.6,335.4 L449.2,335.6 L451.8,335.7 L454.4,335.9 L457,336 L459.6,336.1 L462.2,336.2 L464.8,336.3 L467.4,336.4 L470,336.5 L472.6,336.6 L475.2,336.7 L477.8,336.8 L480.4,336.9 L483,336.9 L485.6,337 L488.2,337.1 L490.8,337.1 L493.4,337.2 L496,337.3 L498.6,337.3 L501.2,337.4 L503.8,337.4 L506.4,337.5 L509,337.5 L511.6,337.5 L514.2,337.6 L516.7,337.6 L519.3,337.6 L521.9,337.7 L524.5,337.7 L527.1,337.7 L529.7,337.8 L532.3,337.8 L534.9,337.8 L537.5,337.8 L540.1,337.8 L542.7,337.9 L545.3,337.9 L547.9,337.9 L550.5,337.9 L553.1,337.9 L555.7,337.9 L558.3,338 L560.9,338 L563.5,338 L566.1,338 L568.7,338 L571.3,338 L573.9,338 L576.5,338 L579.1,338 L581.7,338.1 L584.2,338.1 L586.8,338.1 L589.4,338.1 " fill="none"/></g>
<g clip-path="url(#plot_window)" stroke="rgb(0,100,0)" stroke-width="1"><path d="M70.2,335.1 L72.8,334.6 L75.39,334.1 L77.99,333.6 L80.58,333 L83.18,332.3 L85.78,331.7 L88.37,330.9 L90.97,330.1 L93.57,329.3 L96.16,328.4 L98.76,327.4 L101.4,326.4 L104,325.3 L106.5,324.2 L109.1,323 L111.7,321.8 L114.3,320.6 L116.9,319.3 L119.5,317.9 L122.1,316.6 L124.7,315.2 L127.3,313.7 L129.9,312.3 L132.5,310.8 L135.1,309.3 L137.7,307.8 L140.3,306.3 L142.9,304.8 L145.5,303.3 L148.1,301.8 L150.7,300.3 L153.3,298.8 L155.9,297.4 L158.5,295.9 L161.1,294.5 L163.7,293.2 L166.3,291.8 L168.9,290.5 L171.5,289.3 L174,288.1 L176.6,286.9 L179.2,285.8 L181.8,284.7 L184.4,283.7 L187,282.8 L189.6,281.9 L192.2,281 L194.8,280.2 L197.4,279.5 L200,278.8 L202.6,278.2 L205.2,277.7 L207.8,277.2 L210.4,276.8 L213,276.4 L215.6,276.1 L218.2,275.9 L220.8,275.7 L223.4,275.5 L226,275.5 L228.6,275.4 L231.2,275.4 L233.8,275.5 L236.4,275.6 L239,275.8 L241.5,276 L244.1,276.3 L246.7,276.6 L249.3,276.9 L251.9,277.3 L254.5,277.7 L257.1,278.1 L259.7,278.6 L262.3,279.1 L264.9,279.7 L267.5,280.2 L270.1,280.8 L272.7,281.4 L275.3,282.1 L277.9,282.7 L280.5,283.4 L283.1,284.1 L285.7,284.8 L288.3,285.5 L290.9,286.2 L293.5,287 L296.1,287.7 L298.7,288.5 L301.3,289.3 L303.9,290 L306.5,290.8 L309.1,291.6 L311.6,292.4 L314.2,293.2 L316.8,293.9 L319.4,294.7 L322,295.5 L324.6,296.3 L327.2,297.1 L329.8,297.9 L332.4,298.6 L335,299.4 L337.6,300.2 L340.2,300.9 L342.8,301.7 L345.4,302.4 L348,303.2 L350.6,303.9 L353.2,304.6 L355.8,305.3 L358.4,306 L361,306.7 L363.6,307.4 L366.2,308.1 L368.8,308.8 L371.4,309.4 L374,310.1 L376.6,310.7 L379.1,311.3 L381.7,311.9 L384.3,312.5 L386.9,313.1 L389.5,313.7 L392.1,314.3 L394.7,314.9 L397.3,315.4 L399.9,316 L402.5,316.5 L405.1,317 L407.7,317.5 L410.3,318 L412.9,318.5 L415.5,319 L418.1,319.5 L420.7,320 L423.3,320.4 L425.9,320.9 L428.5,321.3 L431.1,321.7 L433.7,322.1 L436.3,322.5 L438.9,322.9 L441.5,323.3 L444.1,323.7 L446.6,324.1 L449.2,324.4 L451.8,324.8 L454.4,325.1 L457,325.5 L459.6,325.8 L462.2,326.1 L464.8,326.5 L467.4,326.8 L470,327.1 L472.6,327.4 L475.2,327.6 L477.8,327.9 L480.4,328.2 L483,328.5 L485.6,328.7 L488.2,329 L490.8,329.2 L493.4,329.5 L496,329.7 L498.6,329.9 L501.2,330.1 L503.8,330.4 L506.4,330.6 L509,330.8 L511.6,331 L514.2,331.2 L516.7,331.4 L519.3,331.5 L521.9,331.7 L524.5,331.9 L527.1,332.1 L529.7,332.2 L532.3,332.4 L534.9,332.6 L537.5,332.7 L540.1,332.9 L542.7,333 L545.3,333.1 L547.9,333.3 L550.5,333.4 L553.1,333.6 L555.7,333.7 L558.3,333.8 L560.9,333.9 L563.5,334 L566.1,334.2 L568.7,334.3 L571.3,334.4 L573.9,334.5 L576.5,334.6 L579.1,334.7 L581.7,334.8 L584.2,334.9 L586.8,335 L589.4,335.1 " fill="none"/></g>
</g>
<g id="plotPoints" clip-path="url(#plot_window)"><g stroke="rgb(0,0,0)"></g>
<g stroke="rgb(0,0,0)"></g>
<g stroke="rgb(0,0,0)"></g>
</g>
<g id="limitPoints" stroke="rgb(119,136,153)" fill="rgb(250,235,215)"></g>
<g id="legendBackground" stroke="rgb(119,136,153)" fill="rgb(255,255,255)" stroke-width="1"><rect x="603.4" y="62" width="134.6" height="105"/><rect x="603.4" y="62" width="134.6" height="105"/></g>
<g id="legendPoints"><g stroke="rgb(0,0,139)" stroke-width="1"><line x1="618.4" y1="92" x2="633.4" y2="92"/></g>
<g stroke="rgb(139,0,0)" stroke-width="1"><line x1="618.4" y1="122" x2="633.4" y2="122"/></g>
<g stroke="rgb(0,100,0)" stroke-width="1"><line x1="618.4" y1="152" x2="633.4" y2="152"/></g>
</g>
<g id="legendText">
<text x="640.9" y="92" font-size="15" font-family="Verdana">shape=0.5</text>
<text x="640.9" y="122" font-size="15" font-family="Verdana">shape=1</text>
<text x="640.9" y="152" font-size="15" font-family="Verdana">shape=2</text></g>
<g id="title">
<text x="375" y="40" text-anchor="middle" font-size="20" font-family="Verdana">Extreme Value Distribution PDF (location=0)</text></g>
</svg>
