<?xml version="1.0" encoding="UTF-8" standalone="no"?>
<svg width="750" height ="400" version="1.1" xmlns="http://www.w3.org/2000/svg"
 xmlns:xlink="http://www.w3.org/1999/xlink"
 xmlns:ev="http://www.w3.org/2001/xml-events">

<!-- SVG plot written using Boost.Plot program (Creator Jacob Voytko) --> 
<!-- Use, modification and distribution of Boost.Plot subject to the --> 
<!-- Boost Software License, Version 1.0.--> 
<!-- (See accompanying file LICENSE_1_0.txt --> 
<!-- or copy at http://www.boost.org/LICENSE_1_0.txt) --> 

<clipPath id="plot_window"><rect x="71.2" y="63" width="509.4" height="274.2"/></clipPath>
<g id="imageBackground" stroke="rgb(119,136,153)" fill="rgb(255,255,255)" stroke-width="2"><rect x="0" y="0" width="750" height="400"/></g>
<g id="plotBackground" stroke="rgb(119,136,153)" fill="rgb(255,255,255)" stroke-width="2"><rect x="70.2" y="62" width="511.4" height="276.2"/></g>
<g id="yMinorGrid" stroke="rgb(200,220,255)" stroke-width="0.5"></g>
<g id="yMajorGrid" stroke="rgb(200,220,255)" stroke-width="1"></g>
<g id="xMinorGrid" stroke="rgb(200,220,255)" stroke-width="0.5"></g>
<g id="xMajorGrid" stroke="rgb(200,220,255)" stroke-width="1"></g>
<g id="yAxis" stroke="rgb(0,0,0)" stroke-width="1"><line x1="289.7" y1="62" x2="289.7" y2="343.2"/><line x1="70.2" y1="62" x2="70.2" y2="338.2"/></g>
<g id="xAxis" stroke="rgb(0,0,0)" stroke-width="1"><line x1="65.2" y1="338.2" x2="581.6" y2="338.2"/><line x1="65.2" y1="338.2" x2="581.6" y2="338.2"/></g>
<g id="yMinorTicks" stroke="rgb(0,0,0)" stroke-width="1"><path d="M68.2,324.5 L70.2,324.5 M68.2,310.9 L70.2,310.9 M68.2,297.2 L70.2,297.2 M68.2,283.6 L70.2,283.6 M68.2,256.3 L70.2,256.3 M68.2,242.6 L70.2,242.6 M68.2,229 L70.2,229 M68.2,215.3 L70.2,215.3 M68.2,188 L70.2,188 M68.2,174.4 L70.2,174.4 M68.2,160.7 L70.2,160.7 M68.2,147.1 L70.2,147.1 M68.2,119.8 L70.2,119.8 M68.2,106.1 L70.2,106.1 M68.2,92.49 L70.2,92.49 M68.2,78.84 L70.2,78.84 M68.2,338.2 L70.2,338.2 "/></g>
<g id="xMinorTicks" stroke="rgb(0,0,0)" stroke-width="1"><path d="M322.2,338.2 L322.2,340.2 M354.8,338.2 L354.8,340.2 M387.3,338.2 L387.3,340.2 M419.8,338.2 L419.8,340.2 M484.9,338.2 L484.9,340.2 M517.4,338.2 L517.4,340.2 M550,338.2 L550,340.2 M257.2,338.2 L257.2,340.2 M224.7,338.2 L224.7,340.2 M192.1,338.2 L192.1,340.2 M159.6,338.2 L159.6,340.2 M94.54,338.2 L94.54,340.2 "/></g>
<g id="yMajorTicks" stroke="rgb(0,0,0)" stroke-width="2"><path d="M65.2,338.2 L70.2,338.2 M65.2,269.9 L70.2,269.9 M65.2,201.7 L70.2,201.7 M65.2,133.4 L70.2,133.4 M65.2,65.19 L70.2,65.19 M65.2,338.2 L70.2,338.2 "/></g>
<g id="xMajorTicks" stroke="rgb(0,0,0)" stroke-width="2"><path d="M289.7,338.2 L289.7,343.2 M452.4,338.2 L452.4,343.2 M289.7,338.2 L289.7,343.2 M127.1,338.2 L127.1,343.2 "/></g>
<g id="plotLabels">
<text x="289.7" y="357.6" text-anchor="middle" font-size="12" font-family="Verdana">0</text>
<text x="452.4" y="357.6" text-anchor="middle" font-size="12" font-family="Verdana">5</text>
<text x="289.7" y="357.6" text-anchor="middle" font-size="12" font-family="Verdana">0</text>
<text x="127.1" y="357.6" text-anchor="middle" font-size="12" font-family="Verdana">-5</text>
<text x="59.2" y="340.6" text-anchor="end" font-size="12" font-family="Verdana">0</text>
<text x="59.2" y="272.3" text-anchor="end" font-size="12" font-family="Verdana">0.1</text>
<text x="59.2" y="204.1" text-anchor="end" font-size="12" font-family="Verdana">0.2</text>
<text x="59.2" y="135.8" text-anchor="end" font-size="12" font-family="Verdana">0.3</text>
<text x="59.2" y="67.59" text-anchor="end" font-size="12" font-family="Verdana">0.4</text>
<text x="59.2" y="340.6" text-anchor="end" font-size="12" font-family="Verdana">0</text></g>
<g id="yLabel">
<text x="30.2" y="200.1" text-anchor="middle" transform = "rotate(-90 30.2 200.1 )" font-size="14" font-family="Verdana">Probability</text></g>
<g id="xLabel">
<text x="325.9" y="384" text-anchor="middle" font-size="14" font-family="Verdana">Random Variable</text></g>
<g id="plotLines" stroke-width="2"><g clip-path="url(#plot_window)" stroke="rgb(0,0,139)" stroke-width="1"><path d="M70.2,325.7 L72.76,320.3 L75.31,313.5 L77.87,305.1 L80.43,295 L82.98,283.4 L85.54,270.3 L88.1,255.9 L90.66,240.5 L93.21,224.3 L95.77,207.8 L98.33,191.3 L100.9,175.1 L103.4,159.7 L106,145.3 L108.6,132.1 L111.1,120.5 L113.7,110.5 L116.2,102.3 L118.8,95.84 L121.3,91.21 L123.9,88.34 L126.5,87.15 L129,87.55 L131.6,89.39 L134.1,92.55 L136.7,96.87 L139.2,102.2 L141.8,108.4 L144.4,115.3 L146.9,122.8 L149.5,130.7 L152,139 L154.6,147.5 L157.1,156.1 L159.7,164.7 L162.3,173.3 L164.8,181.8 L167.4,190.2 L169.9,198.3 L172.5,206.3 L175,213.9 L177.6,221.3 L180.2,228.4 L182.7,235.2 L185.3,241.7 L187.8,247.9 L190.4,253.7 L192.9,259.2 L195.5,264.5 L198.1,269.4 L200.6,274.1 L203.2,278.5 L205.7,282.6 L208.3,286.4 L210.8,290 L213.4,293.4 L215.9,296.6 L218.5,299.5 L221.1,302.3 L223.6,304.9 L226.2,307.3 L228.7,309.5 L231.3,311.6 L233.8,313.5 L236.4,315.3 L239,317 L241.5,318.6 L244.1,320 L246.6,321.3 L249.2,322.6 L251.7,323.7 L254.3,324.8 L256.9,325.8 L259.4,326.7 L262,327.6 L264.5,328.4 L267.1,329.1 L269.6,329.8 L272.2,330.4 L274.8,331 L277.3,331.5 L279.9,332 L282.4,332.5 L285,332.9 L287.5,333.3 L290.1,333.7 L292.7,334 L295.2,334.3 L297.8,334.6 L300.3,334.9 L302.9,335.1 L305.4,335.4 L308,335.6 L310.6,335.8 L313.1,336 L315.7,336.1 L318.2,336.3 L320.8,336.4 L323.3,336.6 L325.9,336.7 L328.5,336.8 L331,336.9 L333.6,337 L336.1,337.1 L338.7,337.2 L341.2,337.3 L343.8,337.3 L346.4,337.4 L348.9,337.5 L351.5,337.5 L354,337.6 L356.6,337.6 L359.1,337.7 L361.7,337.7 L364.3,337.7 L366.8,337.8 L369.4,337.8 L371.9,337.8 L374.5,337.9 L377,337.9 L379.6,337.9 L382.2,337.9 L384.7,338 L387.3,338 L389.8,338 L392.4,338 L394.9,338 L397.5,338 L400.1,338 L402.6,338.1 L405.2,338.1 L407.7,338.1 L410.3,338.1 L412.8,338.1 L415.4,338.1 L418,338.1 L420.5,338.1 L423.1,338.1 L425.6,338.1 L428.2,338.1 L430.7,338.1 L433.3,338.1 L435.9,338.1 L438.4,338.2 L441,338.2 L443.5,338.2 L446.1,338.2 L448.6,338.2 L451.2,338.2 L453.8,338.2 L456.3,338.2 L458.9,338.2 L461.4,338.2 L464,338.2 L466.5,338.2 L469.1,338.2 L471.6,338.2 L474.2,338.2 L476.8,338.2 L479.3,338.2 L481.9,338.2 L484.4,338.2 L487,338.2 L489.5,338.2 L492.1,338.2 L494.7,338.2 L497.2,338.2 L499.8,338.2 L502.3,338.2 L504.9,338.2 L507.4,338.2 L510,338.2 L512.6,338.2 L515.1,338.2 L517.7,338.2 L520.2,338.2 L522.8,338.2 L525.3,338.2 L527.9,338.2 L530.5,338.2 L533,338.2 L535.6,338.2 L538.1,338.2 L540.7,338.2 L543.2,338.2 L545.8,338.2 L548.4,338.2 L550.9,338.2 L553.5,338.2 L556,338.2 L558.6,338.2 L561.1,338.2 L563.7,338.2 L566.3,338.2 L568.8,338.2 L571.4,338.2 L573.9,338.2 L576.5,338.2 L579,338.2 L581.6,338.2 " fill="none"/></g>
<g clip-path="url(#plot_window)" stroke="rgb(139,0,0)" stroke-width="1"><path d="M70.2,338.2 L72.76,338.2 L75.31,338.2 L77.87,338.2 L80.43,338.2 L82.98,338.2 L85.54,338.2 L88.1,338.2 L90.66,338.2 L93.21,338.2 L95.77,338.2 L98.33,338.2 L100.9,338.2 L103.4,338.2 L106,338.2 L108.6,338.2 L111.1,338.2 L113.7,338.2 L116.2,338.2 L118.8,338.2 L121.3,338.2 L123.9,338.2 L126.5,338.2 L129,338.2 L131.6,338.2 L134.1,338.2 L136.7,338.2 L139.2,338.2 L141.8,338.2 L144.4,338.2 L146.9,338.2 L149.5,338.2 L152,338.2 L154.6,338.2 L157.1,338.2 L159.7,338.2 L162.3,338.2 L164.8,338.2 L167.4,338.2 L169.9,338.2 L172.5,338.2 L175,338.2 L177.6,338.2 L180.2,338.2 L182.7,338.2 L185.3,338.2 L187.8,338.2 L190.4,338.2 L192.9,338.2 L195.5,338.2 L198.1,338.2 L200.6,338.2 L203.2,338.2 L205.7,338.2 L208.3,338.2 L210.8,338.1 L213.4,338 L215.9,337.8 L218.5,337.4 L221.1,336.7 L223.6,335.7 L226.2,334 L228.7,331.6 L231.3,328.3 L233.8,323.7 L236.4,317.8 L239,310.4 L241.5,301.3 L244.1,290.7 L246.6,278.4 L249.2,264.8 L251.7,250 L254.3,234.2 L256.9,217.9 L259.4,201.3 L262,184.9 L264.5,169 L267.1,153.9 L269.6,140 L272.2,127.4 L274.8,116.4 L277.3,107.1 L279.9,99.53 L282.4,93.81 L285,89.88 L287.5,87.68 L290.1,87.13 L292.7,88.1 L295.2,90.48 L297.8,94.11 L300.3,98.85 L302.9,104.5 L305.4,111 L308,118.2 L310.6,125.9 L313.1,133.9 L315.7,142.3 L318.2,150.8 L320.8,159.5 L323.3,168.1 L325.9,176.7 L328.5,185.1 L331,193.4 L333.6,201.5 L336.1,209.3 L338.7,216.9 L341.2,224.1 L343.8,231.1 L346.4,237.8 L348.9,244.1 L351.5,250.2 L354,255.9 L356.6,261.3 L359.1,266.4 L361.7,271.3 L364.3,275.8 L366.8,280.1 L369.4,284.1 L371.9,287.9 L374.5,291.4 L377,294.7 L379.6,297.8 L382.2,300.6 L384.7,303.3 L387.3,305.8 L389.8,308.2 L392.4,310.3 L394.9,312.4 L397.5,314.2 L400.1,316 L402.6,317.6 L405.2,319.1 L407.7,320.5 L410.3,321.8 L412.8,323 L415.4,324.2 L418,325.2 L420.5,326.2 L423.1,327.1 L425.6,327.9 L428.2,328.7 L430.7,329.4 L433.3,330 L435.9,330.6 L438.4,331.2 L441,331.7 L443.5,332.2 L446.1,332.7 L448.6,333.1 L451.2,333.5 L453.8,333.8 L456.3,334.2 L458.9,334.5 L461.4,334.7 L464,335 L466.5,335.2 L469.1,335.5 L471.6,335.7 L474.2,335.9 L476.8,336 L479.3,336.2 L481.9,336.3 L484.4,336.5 L487,336.6 L489.5,336.7 L492.1,336.8 L494.7,336.9 L497.2,337 L499.8,337.1 L502.3,337.2 L504.9,337.3 L507.4,337.4 L510,337.4 L512.6,337.5 L515.1,337.5 L517.7,337.6 L520.2,337.6 L522.8,337.7 L525.3,337.7 L527.9,337.7 L530.5,337.8 L533,337.8 L535.6,337.8 L538.1,337.9 L540.7,337.9 L543.2,337.9 L545.8,337.9 L548.4,338 L550.9,338 L553.5,338 L556,338 L558.6,338 L561.1,338 L563.7,338 L566.3,338.1 L568.8,338.1 L571.4,338.1 L573.9,338.1 L576.5,338.1 L579,338.1 L581.6,338.1 " fill="none"/></g>
<g clip-path="url(#plot_window)" stroke="rgb(0,100,0)" stroke-width="1"><path d="M70.2,338.2 L72.76,338.2 L75.31,338.2 L77.87,338.2 L80.43,338.2 L82.98,338.2 L85.54,338.2 L88.1,338.2 L90.66,338.2 L93.21,338.2 L95.77,338.2 L98.33,338.2 L100.9,338.2 L103.4,338.2 L106,338.2 L108.6,338.2 L111.1,338.2 L113.7,338.2 L116.2,338.2 L118.8,338.2 L121.3,338.2 L123.9,338.2 L126.5,338.2 L129,338.2 L131.6,338.2 L134.1,338.2 L136.7,338.2 L139.2,338.2 L141.8,338.2 L144.4,338.2 L146.9,338.2 L149.5,338.2 L152,338.2 L154.6,338.2 L157.1,338.2 L159.7,338.2 L162.3,338.2 L164.8,338.2 L167.4,338.2 L169.9,338.2 L172.5,338.2 L175,338.2 L177.6,338.2 L180.2,338.2 L182.7,338.2 L185.3,338.2 L187.8,338.2 L190.4,338.2 L192.9,338.2 L195.5,338.2 L198.1,338.2 L200.6,338.2 L203.2,338.2 L205.7,338.2 L208.3,338.2 L210.8,338.2 L213.4,338.2 L215.9,338.2 L218.5,338.2 L221.1,338.2 L223.6,338.2 L226.2,338.2 L228.7,338.2 L231.3,338.2 L233.8,338.2 L236.4,338.2 L239,338.2 L241.5,338.2 L244.1,338.2 L246.6,338.2 L249.2,338.2 L251.7,338.2 L254.3,338.2 L256.9,338.2 L259.4,338.2 L262,338.2 L264.5,338.2 L267.1,338.2 L269.6,338.2 L272.2,338.2 L274.8,338.2 L277.3,338.2 L279.9,338.2 L282.4,338.2 L285,338.2 L287.5,338.2 L290.1,338.2 L292.7,338.2 L295.2,338.2 L297.8,338.2 L300.3,338.2 L302.9,338.2 L305.4,338.2 L308,338.2 L310.6,338.2 L313.1,338.2 L315.7,338.2 L318.2,338.2 L320.8,338.2 L323.3,338.2 L325.9,338.2 L328.5,338.2 L331,338.2 L333.6,338.2 L336.1,338.2 L338.7,338.2 L341.2,338.2 L343.8,338.2 L346.4,338.2 L348.9,338.2 L351.5,338.2 L354,338.2 L356.6,338.2 L359.1,338.2 L361.7,338.2 L364.3,338.2 L366.8,338.2 L369.4,338.2 L371.9,338.1 L374.5,338.1 L377,337.9 L379.6,337.7 L382.2,337.2 L384.7,336.4 L387.3,335.1 L389.8,333.2 L392.4,330.4 L394.9,326.6 L397.5,321.6 L400.1,315.1 L402.6,307 L405.2,297.4 L407.7,286.1 L410.3,273.3 L412.8,259.1 L415.4,243.9 L418,227.9 L420.5,211.4 L423.1,194.8 L425.6,178.6 L428.2,163 L430.7,148.3 L433.3,134.9 L435.9,122.9 L438.4,112.5 L441,103.9 L443.5,97.08 L446.1,92.06 L448.6,88.82 L451.2,87.27 L453.8,87.33 L456.3,88.88 L458.9,91.76 L461.4,95.84 L464,101 L466.5,107 L469.1,113.8 L471.6,121.1 L474.2,129 L476.8,137.2 L479.3,145.6 L481.9,154.2 L484.4,162.8 L487,171.5 L489.5,180 L492.1,188.4 L494.7,196.6 L497.2,204.6 L499.8,212.3 L502.3,219.8 L504.9,226.9 L507.4,233.8 L510,240.3 L512.6,246.5 L515.1,252.5 L517.7,258.1 L520.2,263.4 L522.8,268.4 L525.3,273.1 L527.9,277.5 L530.5,281.7 L533,285.6 L535.6,289.3 L538.1,292.7 L540.7,295.9 L543.2,298.9 L545.8,301.7 L548.4,304.3 L550.9,306.8 L553.5,309 L556,311.2 L558.6,313.1 L561.1,314.9 L563.7,316.6 L566.3,318.2 L568.8,319.7 L571.4,321.1 L573.9,322.3 L576.5,323.5 L579,324.6 L581.6,325.6 " fill="none"/></g>
</g>
<g id="plotPoints" clip-path="url(#plot_window)"><g stroke="rgb(0,0,0)"></g>
<g stroke="rgb(0,0,0)"></g>
<g stroke="rgb(0,0,0)"></g>
</g>
<g id="limitPoints" stroke="rgb(119,136,153)" fill="rgb(250,235,215)"></g>
<g id="legendBackground" stroke="rgb(119,136,153)" fill="rgb(255,255,255)" stroke-width="1"><rect x="595.6" y="62" width="142.4" height="105"/><rect x="595.6" y="62" width="142.4" height="105"/></g>
<g id="legendPoints"><g stroke="rgb(0,0,139)" stroke-width="1"><line x1="610.6" y1="92" x2="625.6" y2="92"/></g>
<g stroke="rgb(139,0,0)" stroke-width="1"><line x1="610.6" y1="122" x2="625.6" y2="122"/></g>
<g stroke="rgb(0,100,0)" stroke-width="1"><line x1="610.6" y1="152" x2="625.6" y2="152"/></g>
</g>
<g id="legendText">
<text x="633.1" y="92" font-size="15" font-family="Verdana">location=1</text>
<text x="633.1" y="122" font-size="15" font-family="Verdana">location=2</text>
<text x="633.1" y="152" font-size="15" font-family="Verdana">location=5</text></g>
<g id="title">
<text x="375" y="40" text-anchor="middle" font-size="20" font-family="Verdana">Extreme Value Distribution PDF (shape=1)</text></g>
</svg>
