<?xml version="1.0" encoding="UTF-8" standalone="no"?>
<svg width="750" height ="400" version="1.1" xmlns="http://www.w3.org/2000/svg"
 xmlns:xlink="http://www.w3.org/1999/xlink"
 xmlns:ev="http://www.w3.org/2001/xml-events">

<!-- SVG plot written using Boost.Plot program (Creator Jacob Voytko) --> 
<!-- Use, modification and distribution of Boost.Plot subject to the --> 
<!-- Boost Software License, Version 1.0.--> 
<!-- (See accompanying file LICENSE_1_0.txt --> 
<!-- or copy at http://www.boost.org/LICENSE_1_0.txt) --> 

<clipPath id="plot_window"><rect x="71.2" y="63" width="509.4" height="274.2"/></clipPath>
<g id="imageBackground" stroke="rgb(119,136,153)" fill="rgb(255,255,255)" stroke-width="2"><rect x="0" y="0" width="750" height="400"/></g>
<g id="plotBackground" stroke="rgb(119,136,153)" fill="rgb(255,255,255)" stroke-width="2"><rect x="70.2" y="62" width="511.4" height="276.2"/></g>
<g id="yMinorGrid" stroke="rgb(200,220,255)" stroke-width="0.5"></g>
<g id="yMajorGrid" stroke="rgb(200,220,255)" stroke-width="1"></g>
<g id="xMinorGrid" stroke="rgb(200,220,255)" stroke-width="0.5"></g>
<g id="xMajorGrid" stroke="rgb(200,220,255)" stroke-width="1"></g>
<g id="yAxis" stroke="rgb(0,0,0)" stroke-width="1"><line x1="70.2" y1="62" x2="70.2" y2="343.2"/><line x1="70.2" y1="62" x2="70.2" y2="338.2"/></g>
<g id="xAxis" stroke="rgb(0,0,0)" stroke-width="1"><line x1="65.2" y1="338.2" x2="581.6" y2="338.2"/><line x1="65.2" y1="338.2" x2="581.6" y2="338.2"/></g>
<g id="yMinorTicks" stroke="rgb(0,0,0)" stroke-width="1"><path d="M68.2,331.5 L70.2,331.5 M68.2,324.9 L70.2,324.9 M68.2,318.2 L70.2,318.2 M68.2,311.5 L70.2,311.5 M68.2,298.2 L70.2,298.2 M68.2,291.5 L70.2,291.5 M68.2,284.8 L70.2,284.8 M68.2,278.1 L70.2,278.1 M68.2,264.8 L70.2,264.8 M68.2,258.1 L70.2,258.1 M68.2,251.4 L70.2,251.4 M68.2,244.8 L70.2,244.8 M68.2,231.4 L70.2,231.4 M68.2,224.7 L70.2,224.7 M68.2,218.1 L70.2,218.1 M68.2,211.4 L70.2,211.4 M68.2,198.1 L70.2,198.1 M68.2,191.4 L70.2,191.4 M68.2,184.7 L70.2,184.7 M68.2,178 L70.2,178 M68.2,164.7 L70.2,164.7 M68.2,158 L70.2,158 M68.2,151.3 L70.2,151.3 M68.2,144.7 L70.2,144.7 M68.2,131.3 L70.2,131.3 M68.2,124.6 L70.2,124.6 M68.2,118 L70.2,118 M68.2,111.3 L70.2,111.3 M68.2,97.94 L70.2,97.94 M68.2,91.27 L70.2,91.27 M68.2,84.6 L70.2,84.6 M68.2,77.92 L70.2,77.92 M68.2,64.57 L70.2,64.57 M68.2,338.2 L70.2,338.2 "/></g>
<g id="xMinorTicks" stroke="rgb(0,0,0)" stroke-width="1"><path d="M93.64,338.2 L93.64,340.2 M117.1,338.2 L117.1,340.2 M140.5,338.2 L140.5,340.2 M164,338.2 L164,340.2 M210.8,338.2 L210.8,340.2 M234.3,338.2 L234.3,340.2 M257.7,338.2 L257.7,340.2 M281.2,338.2 L281.2,340.2 M328.1,338.2 L328.1,340.2 M351.5,338.2 L351.5,340.2 M374.9,338.2 L374.9,340.2 M398.4,338.2 L398.4,340.2 M445.3,338.2 L445.3,340.2 M468.7,338.2 L468.7,340.2 M492.1,338.2 L492.1,340.2 M515.6,338.2 L515.6,340.2 M562.5,338.2 L562.5,340.2 "/></g>
<g id="yMajorTicks" stroke="rgb(0,0,0)" stroke-width="2"><path d="M65.2,338.2 L70.2,338.2 M65.2,304.8 L70.2,304.8 M65.2,271.5 L70.2,271.5 M65.2,238.1 L70.2,238.1 M65.2,204.7 L70.2,204.7 M65.2,171.4 L70.2,171.4 M65.2,138 L70.2,138 M65.2,104.6 L70.2,104.6 M65.2,71.25 L70.2,71.25 M65.2,338.2 L70.2,338.2 "/></g>
<g id="xMajorTicks" stroke="rgb(0,0,0)" stroke-width="2"><path d="M70.2,338.2 L70.2,343.2 M187.4,338.2 L187.4,343.2 M304.6,338.2 L304.6,343.2 M421.8,338.2 L421.8,343.2 M539,338.2 L539,343.2 M70.2,338.2 L70.2,343.2 "/></g>
<g id="plotLabels">
<text x="70.2" y="357.6" text-anchor="middle" font-size="12" font-family="Verdana">0</text>
<text x="187.4" y="357.6" text-anchor="middle" font-size="12" font-family="Verdana">1</text>
<text x="304.6" y="357.6" text-anchor="middle" font-size="12" font-family="Verdana">2</text>
<text x="421.8" y="357.6" text-anchor="middle" font-size="12" font-family="Verdana">3</text>
<text x="539" y="357.6" text-anchor="middle" font-size="12" font-family="Verdana">4</text>
<text x="70.2" y="357.6" text-anchor="middle" font-size="12" font-family="Verdana">0</text>
<text x="59.2" y="340.6" text-anchor="end" font-size="12" font-family="Verdana">0</text>
<text x="59.2" y="307.2" text-anchor="end" font-size="12" font-family="Verdana">0.1</text>
<text x="59.2" y="273.9" text-anchor="end" font-size="12" font-family="Verdana">0.2</text>
<text x="59.2" y="240.5" text-anchor="end" font-size="12" font-family="Verdana">0.3</text>
<text x="59.2" y="207.1" text-anchor="end" font-size="12" font-family="Verdana">0.4</text>
<text x="59.2" y="173.8" text-anchor="end" font-size="12" font-family="Verdana">0.5</text>
<text x="59.2" y="140.4" text-anchor="end" font-size="12" font-family="Verdana">0.6</text>
<text x="59.2" y="107" text-anchor="end" font-size="12" font-family="Verdana">0.7</text>
<text x="59.2" y="73.65" text-anchor="end" font-size="12" font-family="Verdana">0.8</text>
<text x="59.2" y="340.6" text-anchor="end" font-size="12" font-family="Verdana">0</text></g>
<g id="yLabel">
<text x="30.2" y="200.1" text-anchor="middle" transform = "rotate(-90 30.2 200.1 )" font-size="14" font-family="Verdana">Probability</text></g>
<g id="xLabel">
<text x="325.9" y="384" text-anchor="middle" font-size="14" font-family="Verdana">Random Variable</text></g>
<g id="plotLines" stroke-width="2"><g clip-path="url(#plot_window)" stroke="rgb(0,0,139)" stroke-width="1"><path d="M70.2,338.2 L72.76,298.1 L75.31,264.6 L77.87,236.5 L80.43,213.2 L82.98,193.9 L85.54,178 L88.1,165 L90.66,154.6 L93.21,146.3 L95.77,139.8 L98.33,135 L100.9,131.4 L103.4,129 L106,127.6 L108.6,127.1 L111.1,127.2 L113.7,128 L116.2,129.2 L118.8,130.9 L121.3,132.9 L123.9,135.3 L126.5,137.9 L129,140.7 L131.6,143.7 L134.1,146.8 L136.7,150 L139.2,153.2 L141.8,156.6 L144.4,159.9 L146.9,163.3 L149.5,166.7 L152,170.1 L154.6,173.5 L157.1,176.8 L159.7,180.2 L162.3,183.4 L164.8,186.7 L167.4,189.9 L169.9,193 L172.5,196.1 L175,199.2 L177.6,202.2 L180.2,205.1 L182.7,208 L185.3,210.8 L187.8,213.5 L190.4,216.2 L192.9,218.8 L195.5,221.4 L198.1,223.9 L200.6,226.4 L203.2,228.8 L205.7,231.1 L208.3,233.4 L210.8,235.6 L213.4,237.8 L215.9,239.9 L218.5,242 L221.1,244 L223.6,246 L226.2,247.9 L228.7,249.8 L231.3,251.6 L233.8,253.4 L236.4,255.2 L239,256.9 L241.5,258.5 L244.1,260.1 L246.6,261.7 L249.2,263.2 L251.7,264.7 L254.3,266.2 L256.9,267.6 L259.4,269 L262,270.4 L264.5,271.7 L267.1,273 L269.6,274.3 L272.2,275.5 L274.8,276.7 L277.3,277.9 L279.9,279 L282.4,280.1 L285,281.2 L287.5,282.3 L290.1,283.3 L292.7,284.3 L295.2,285.3 L297.8,286.3 L300.3,287.2 L302.9,288.2 L305.4,289.1 L308,289.9 L310.6,290.8 L313.1,291.6 L315.7,292.5 L318.2,293.3 L320.8,294.1 L323.3,294.8 L325.9,295.6 L328.5,296.3 L331,297 L333.6,297.7 L336.1,298.4 L338.7,299.1 L341.2,299.7 L343.8,300.4 L346.4,301 L348.9,301.6 L351.5,302.2 L354,302.8 L356.6,303.4 L359.1,304 L361.7,304.5 L364.3,305.1 L366.8,305.6 L369.4,306.1 L371.9,306.6 L374.5,307.1 L377,307.6 L379.6,308.1 L382.2,308.6 L384.7,309 L387.3,309.5 L389.8,309.9 L392.4,310.3 L394.9,310.8 L397.5,311.2 L400.1,311.6 L402.6,312 L405.2,312.4 L407.7,312.8 L410.3,313.1 L412.8,313.5 L415.4,313.9 L418,314.2 L420.5,314.6 L423.1,314.9 L425.6,315.2 L428.2,315.6 L430.7,315.9 L433.3,316.2 L435.9,316.5 L438.4,316.8 L441,317.1 L443.5,317.4 L446.1,317.7 L448.6,318 L451.2,318.3 L453.7,318.5 L456.3,318.8 L458.9,319.1 L461.4,319.3 L464,319.6 L466.5,319.8 L469.1,320.1 L471.6,320.3 L474.2,320.6 L476.8,320.8 L479.3,321 L481.9,321.2 L484.4,321.5 L487,321.7 L489.5,321.9 L492.1,322.1 L494.7,322.3 L497.2,322.5 L499.8,322.7 L502.3,322.9 L504.9,323.1 L507.4,323.3 L510,323.5 L512.6,323.7 L515.1,323.8 L517.7,324 L520.2,324.2 L522.8,324.4 L525.3,324.5 L527.9,324.7 L530.5,324.9 L533,325 L535.6,325.2 L538.1,325.3 L540.7,325.5 L543.2,325.6 L545.8,325.8 L548.4,325.9 L550.9,326.1 L553.5,326.2 L556,326.4 L558.6,326.5 L561.1,326.6 L563.7,326.8 L566.3,326.9 L568.8,327 L571.4,327.2 L573.9,327.3 L576.5,327.4 L579,327.5 L581.6,327.6 " fill="none"/></g>
<g clip-path="url(#plot_window)" stroke="rgb(139,0,0)" stroke-width="1"><path d="M70.2,338.2 L72.76,338 L75.31,336.5 L77.87,332 L80.43,324 L82.98,312.6 L85.54,298.6 L88.1,282.9 L90.66,266.3 L93.21,249.4 L95.77,233 L98.33,217.4 L100.9,202.9 L103.4,189.7 L106,177.9 L108.6,167.5 L111.1,158.5 L113.7,150.9 L116.2,144.5 L118.8,139.4 L121.3,135.3 L123.9,132.3 L126.5,130.2 L129,128.8 L131.6,128.2 L134.1,128.2 L136.7,128.8 L139.2,129.9 L141.8,131.4 L144.4,133.3 L146.9,135.5 L149.5,137.9 L152,140.6 L154.6,143.5 L157.1,146.5 L159.7,149.6 L162.3,152.9 L164.8,156.2 L167.4,159.6 L169.9,163 L172.5,166.4 L175,169.9 L177.6,173.3 L180.2,176.7 L182.7,180.1 L185.3,183.5 L187.8,186.8 L190.4,190.1 L192.9,193.3 L195.5,196.5 L198.1,199.6 L200.6,202.7 L203.2,205.7 L205.7,208.7 L208.3,211.6 L210.8,214.5 L213.4,217.2 L215.9,220 L218.5,222.6 L221.1,225.2 L223.6,227.8 L226.2,230.2 L228.7,232.6 L231.3,235 L233.8,237.3 L236.4,239.5 L239,241.7 L241.5,243.9 L244.1,245.9 L246.6,248 L249.2,250 L251.7,251.9 L254.3,253.8 L256.9,255.6 L259.4,257.4 L262,259.1 L264.5,260.8 L267.1,262.4 L269.6,264 L272.2,265.6 L274.8,267.1 L277.3,268.6 L279.9,270.1 L282.4,271.5 L285,272.9 L287.5,274.2 L290.1,275.5 L292.7,276.8 L295.2,278 L297.8,279.2 L300.3,280.4 L302.9,281.6 L305.4,282.7 L308,283.8 L310.6,284.8 L313.1,285.9 L315.7,286.9 L318.2,287.9 L320.8,288.9 L323.3,289.8 L325.9,290.7 L328.5,291.6 L331,292.5 L333.6,293.4 L336.1,294.2 L338.7,295 L341.2,295.8 L343.8,296.6 L346.4,297.3 L348.9,298.1 L351.5,298.8 L354,299.5 L356.6,300.2 L359.1,300.9 L361.7,301.5 L364.3,302.2 L366.8,302.8 L369.4,303.4 L371.9,304 L374.5,304.6 L377,305.2 L379.6,305.8 L382.2,306.3 L384.7,306.9 L387.3,307.4 L389.8,307.9 L392.4,308.4 L394.9,308.9 L397.5,309.4 L400.1,309.9 L402.6,310.3 L405.2,310.8 L407.7,311.2 L410.3,311.6 L412.8,312.1 L415.4,312.5 L418,312.9 L420.5,313.3 L423.1,313.7 L425.6,314.1 L428.2,314.4 L430.7,314.8 L433.3,315.2 L435.9,315.5 L438.4,315.9 L441,316.2 L443.5,316.5 L446.1,316.9 L448.6,317.2 L451.2,317.5 L453.7,317.8 L456.3,318.1 L458.9,318.4 L461.4,318.7 L464,319 L466.5,319.3 L469.1,319.5 L471.6,319.8 L474.2,320.1 L476.8,320.3 L479.3,320.6 L481.9,320.8 L484.4,321.1 L487,321.3 L489.5,321.5 L492.1,321.8 L494.7,322 L497.2,322.2 L499.8,322.4 L502.3,322.7 L504.9,322.9 L507.4,323.1 L510,323.3 L512.6,323.5 L515.1,323.7 L517.7,323.9 L520.2,324.1 L522.8,324.2 L525.3,324.4 L527.9,324.6 L530.5,324.8 L533,325 L535.6,325.1 L538.1,325.3 L540.7,325.5 L543.2,325.6 L545.8,325.8 L548.4,325.9 L550.9,326.1 L553.5,326.2 L556,326.4 L558.6,326.5 L561.1,326.7 L563.7,326.8 L566.3,327 L568.8,327.1 L571.4,327.2 L573.9,327.4 L576.5,327.5 L579,327.6 L581.6,327.8 " fill="none"/></g>
<g clip-path="url(#plot_window)" stroke="rgb(0,100,0)" stroke-width="1"><path d="M70.2,338.2 L72.76,338.2 L75.31,337.7 L77.87,336.2 L80.43,332.9 L82.98,327.6 L85.54,320.2 L88.1,310.6 L90.66,299.2 L93.21,286.2 L95.77,272 L98.33,257.1 L100.9,241.7 L103.4,226.2 L106,210.9 L108.6,196.1 L111.1,181.9 L113.7,168.5 L116.2,156.1 L118.8,144.7 L121.3,134.3 L123.9,125 L126.5,116.9 L129,109.8 L131.6,103.8 L134.1,98.79 L136.7,94.76 L139.2,91.64 L141.8,89.39 L144.4,87.93 L146.9,87.21 L149.5,87.17 L152,87.75 L154.6,88.89 L157.1,90.54 L159.7,92.64 L162.3,95.15 L164.8,98.02 L167.4,101.2 L169.9,104.6 L172.5,108.3 L175,112.2 L177.6,116.3 L180.2,120.5 L182.7,124.8 L185.3,129.2 L187.8,133.6 L190.4,138.1 L192.9,142.7 L195.5,147.2 L198.1,151.8 L200.6,156.3 L203.2,160.8 L205.7,165.3 L208.3,169.7 L210.8,174.1 L213.4,178.4 L215.9,182.6 L218.5,186.8 L221.1,190.9 L223.6,194.9 L226.2,198.9 L228.7,202.7 L231.3,206.5 L233.8,210.2 L236.4,213.8 L239,217.3 L241.5,220.8 L244.1,224.1 L246.6,227.4 L249.2,230.6 L251.7,233.7 L254.3,236.7 L256.9,239.6 L259.4,242.5 L262,245.3 L264.5,247.9 L267.1,250.6 L269.6,253.1 L272.2,255.6 L274.8,258 L277.3,260.3 L279.9,262.6 L282.4,264.8 L285,266.9 L287.5,269 L290.1,271 L292.7,272.9 L295.2,274.8 L297.8,276.6 L300.3,278.4 L302.9,280.1 L305.4,281.8 L308,283.4 L310.6,285 L313.1,286.5 L315.7,287.9 L318.2,289.4 L320.8,290.8 L323.3,292.1 L325.9,293.4 L328.5,294.7 L331,295.9 L333.6,297.1 L336.1,298.2 L338.7,299.3 L341.2,300.4 L343.8,301.5 L346.4,302.5 L348.9,303.5 L351.5,304.4 L354,305.3 L356.6,306.2 L359.1,307.1 L361.7,307.9 L364.3,308.8 L366.8,309.6 L369.4,310.3 L371.9,311.1 L374.5,311.8 L377,312.5 L379.6,313.2 L382.2,313.8 L384.7,314.5 L387.3,315.1 L389.8,315.7 L392.4,316.3 L394.9,316.9 L397.5,317.4 L400.1,318 L402.6,318.5 L405.2,319 L407.7,319.5 L410.3,320 L412.8,320.4 L415.4,320.9 L418,321.3 L420.5,321.7 L423.1,322.2 L425.6,322.6 L428.2,323 L430.7,323.3 L433.3,323.7 L435.9,324.1 L438.4,324.4 L441,324.7 L443.5,325.1 L446.1,325.4 L448.6,325.7 L451.2,326 L453.7,326.3 L456.3,326.6 L458.9,326.9 L461.4,327.1 L464,327.4 L466.5,327.7 L469.1,327.9 L471.6,328.2 L474.2,328.4 L476.8,328.6 L479.3,328.8 L481.9,329.1 L484.4,329.3 L487,329.5 L489.5,329.7 L492.1,329.9 L494.7,330.1 L497.2,330.2 L499.8,330.4 L502.3,330.6 L504.9,330.8 L507.4,330.9 L510,331.1 L512.6,331.3 L515.1,331.4 L517.7,331.6 L520.2,331.7 L522.8,331.9 L525.3,332 L527.9,332.1 L530.5,332.3 L533,332.4 L535.6,332.5 L538.1,332.6 L540.7,332.8 L543.2,332.9 L545.8,333 L548.4,333.1 L550.9,333.2 L553.5,333.3 L556,333.4 L558.6,333.5 L561.1,333.6 L563.7,333.7 L566.3,333.8 L568.8,333.9 L571.4,334 L573.9,334.1 L576.5,334.2 L579,334.2 L581.6,334.3 " fill="none"/></g>
<g clip-path="url(#plot_window)" stroke="rgb(255,140,0)" stroke-width="1"><path d="M70.2,338.2 L72.76,305.3 L75.31,276.3 L77.87,250.7 L80.43,228.3 L82.98,208.6 L85.54,191.5 L88.1,176.7 L90.66,163.9 L93.21,153 L95.77,143.7 L98.33,135.8 L100.9,129.4 L103.4,124.1 L106,119.9 L108.6,116.6 L111.1,114.2 L113.7,112.6 L116.2,111.7 L118.8,111.3 L121.3,111.6 L123.9,112.2 L126.5,113.3 L129,114.8 L131.6,116.6 L134.1,118.7 L136.7,121.1 L139.2,123.6 L141.8,126.4 L144.4,129.3 L146.9,132.3 L149.5,135.5 L152,138.8 L154.6,142.1 L157.1,145.5 L159.7,148.9 L162.3,152.4 L164.8,155.8 L167.4,159.3 L169.9,162.8 L172.5,166.3 L175,169.8 L177.6,173.3 L180.2,176.7 L182.7,180.1 L185.3,183.5 L187.8,186.8 L190.4,190.1 L192.9,193.3 L195.5,196.5 L198.1,199.7 L200.6,202.8 L203.2,205.8 L205.7,208.8 L208.3,211.7 L210.8,214.6 L213.4,217.4 L215.9,220.2 L218.5,222.9 L221.1,225.6 L223.6,228.2 L226.2,230.7 L228.7,233.2 L231.3,235.7 L233.8,238.1 L236.4,240.4 L239,242.7 L241.5,244.9 L244.1,247.1 L246.6,249.2 L249.2,251.3 L251.7,253.3 L254.3,255.3 L256.9,257.2 L259.4,259.1 L262,261 L264.5,262.8 L267.1,264.5 L269.6,266.2 L272.2,267.9 L274.8,269.5 L277.3,271.1 L279.9,272.7 L282.4,274.2 L285,275.7 L287.5,277.1 L290.1,278.5 L292.7,279.9 L295.2,281.2 L297.8,282.5 L300.3,283.8 L302.9,285.1 L305.4,286.3 L308,287.4 L310.6,288.6 L313.1,289.7 L315.7,290.8 L318.2,291.9 L320.8,292.9 L323.3,293.9 L325.9,294.9 L328.5,295.9 L331,296.8 L333.6,297.8 L336.1,298.7 L338.7,299.5 L341.2,300.4 L343.8,301.2 L346.4,302 L348.9,302.8 L351.5,303.6 L354,304.4 L356.6,305.1 L359.1,305.8 L361.7,306.5 L364.3,307.2 L366.8,307.9 L369.4,308.5 L371.9,309.1 L374.5,309.8 L377,310.4 L379.6,311 L382.2,311.5 L384.7,312.1 L387.3,312.7 L389.8,313.2 L392.4,313.7 L394.9,314.2 L397.5,314.7 L400.1,315.2 L402.6,315.7 L405.2,316.2 L407.7,316.6 L410.3,317.1 L412.8,317.5 L415.4,317.9 L418,318.3 L420.5,318.7 L423.1,319.1 L425.6,319.5 L428.2,319.9 L430.7,320.3 L433.3,320.6 L435.9,321 L438.4,321.3 L441,321.7 L443.5,322 L446.1,322.3 L448.6,322.6 L451.2,322.9 L453.7,323.2 L456.3,323.5 L458.9,323.8 L461.4,324.1 L464,324.4 L466.5,324.6 L469.1,324.9 L471.6,325.1 L474.2,325.4 L476.8,325.6 L479.3,325.9 L481.9,326.1 L484.4,326.3 L487,326.6 L489.5,326.8 L492.1,327 L494.7,327.2 L497.2,327.4 L499.8,327.6 L502.3,327.8 L504.9,328 L507.4,328.2 L510,328.4 L512.6,328.6 L515.1,328.7 L517.7,328.9 L520.2,329.1 L522.8,329.2 L525.3,329.4 L527.9,329.6 L530.5,329.7 L533,329.9 L535.6,330 L538.1,330.2 L540.7,330.3 L543.2,330.5 L545.8,330.6 L548.4,330.7 L550.9,330.9 L553.5,331 L556,331.1 L558.6,331.2 L561.1,331.4 L563.7,331.5 L566.3,331.6 L568.8,331.7 L571.4,331.8 L573.9,331.9 L576.5,332 L579,332.1 L581.6,332.3 " fill="none"/></g>
</g>
<g id="plotPoints" clip-path="url(#plot_window)"><g stroke="rgb(0,0,0)"></g>
<g stroke="rgb(0,0,0)"></g>
<g stroke="rgb(0,0,0)"></g>
<g stroke="rgb(0,0,0)"></g>
</g>
<g id="limitPoints" stroke="rgb(119,136,153)" fill="rgb(250,235,215)"></g>
<g id="legendBackground" stroke="rgb(119,136,153)" fill="rgb(255,255,255)" stroke-width="1"><rect x="595.6" y="62" width="142.4" height="135"/><rect x="595.6" y="62" width="142.4" height="135"/></g>
<g id="legendPoints"><g stroke="rgb(0,0,139)" stroke-width="1"><line x1="610.6" y1="92" x2="625.6" y2="92"/></g>
<g stroke="rgb(139,0,0)" stroke-width="1"><line x1="610.6" y1="122" x2="625.6" y2="122"/></g>
<g stroke="rgb(0,100,0)" stroke-width="1"><line x1="610.6" y1="152" x2="625.6" y2="152"/></g>
<g stroke="rgb(255,140,0)" stroke-width="1"><line x1="610.6" y1="182" x2="625.6" y2="182"/></g>
</g>
<g id="legendText">
<text x="633.1" y="92" font-size="15" font-family="Verdana">n=4, m=4</text>
<text x="633.1" y="122" font-size="15" font-family="Verdana">n=10, m=4</text>
<text x="633.1" y="152" font-size="15" font-family="Verdana">n=10, m=10</text>
<text x="633.1" y="182" font-size="15" font-family="Verdana">n=4, m=10</text></g>
<g id="title">
<text x="375" y="40" text-anchor="middle" font-size="20" font-family="Verdana">F Distribution PDF</text></g>
</svg>
