<?xml version="1.0" encoding="UTF-8" standalone="no"?>
<svg width="600" height ="400" version="1.1" xmlns="http://www.w3.org/2000/svg"
 xmlns:xlink="http://www.w3.org/1999/xlink"
 xmlns:ev="http://www.w3.org/2001/xml-events">

<!-- SVG plot written using Boost.Plot program (Creator Jacob Voytko) --> 
<!-- Use, modification and distribution of Boost.Plot subject to the --> 
<!-- Boost Software License, Version 1.0.--> 
<!-- (See accompanying file LICENSE_1_0.txt --> 
<!-- or copy at http://www.boost.org/LICENSE_1_0.txt) --> 

<!-- SVG Plot Copyright John Maddock 2008 --> 
<meta name="copyright" content="John Maddock" />
<meta name="date" content="2008" />
<!-- Use, modification and distribution of this Scalable Vector Graphic file -->
<!-- are subject to the Boost Software License, Version 1.0. -->
<!-- (See accompanying file LICENSE_1_0.txt or copy at http://www.boost.org/LICENSE_1_0.txt) -->

<clipPath id="plot_window"><rect x="71.2" y="63" width="379.1" height="274.2"/></clipPath>
<g id="imageBackground" stroke="rgb(119,136,153)" fill="rgb(255,255,255)" stroke-width="2"><rect x="0" y="0" width="600" height="400"/></g>
<g id="plotBackground" stroke="rgb(119,136,153)" fill="rgb(255,255,255)" stroke-width="2"><rect x="70.2" y="62" width="381.1" height="276.2"/></g>
<g id="yMinorGrid" stroke="rgb(200,220,255)" stroke-width="0.5"></g>
<g id="yMajorGrid" stroke="rgb(200,220,255)" stroke-width="1"></g>
<g id="xMinorGrid" stroke="rgb(200,220,255)" stroke-width="0.5"></g>
<g id="xMajorGrid" stroke="rgb(200,220,255)" stroke-width="1"></g>
<g id="yAxis" stroke="rgb(0,0,0)" stroke-width="1"><line x1="70.2" y1="62" x2="70.2" y2="338.2"/><line x1="70.2" y1="62" x2="70.2" y2="338.2"/></g>
<g id="xAxis" stroke="rgb(0,0,0)" stroke-width="1"><line x1="70.2" y1="338.2" x2="451.3" y2="338.2"/></g>
<g id="yMinorTicks" stroke="rgb(0,0,0)" stroke-width="1"><path d="M68.2,331.4 L70.2,331.4 M68.2,324.7 L70.2,324.7 M68.2,317.9 L70.2,317.9 M68.2,304.4 L70.2,304.4 M68.2,297.6 L70.2,297.6 M68.2,290.8 L70.2,290.8 M68.2,277.3 L70.2,277.3 M68.2,270.5 L70.2,270.5 M68.2,263.7 L70.2,263.7 M68.2,250.2 L70.2,250.2 M68.2,243.4 L70.2,243.4 M68.2,236.7 L70.2,236.7 M68.2,223.1 L70.2,223.1 M68.2,216.3 L70.2,216.3 M68.2,209.6 L70.2,209.6 M68.2,196 L70.2,196 M68.2,189.3 L70.2,189.3 M68.2,182.5 L70.2,182.5 M68.2,169 L70.2,169 M68.2,162.2 L70.2,162.2 M68.2,155.4 L70.2,155.4 M68.2,141.9 L70.2,141.9 M68.2,135.1 L70.2,135.1 M68.2,128.3 L70.2,128.3 M68.2,114.8 L70.2,114.8 M68.2,108 L70.2,108 M68.2,101.3 L70.2,101.3 M68.2,87.72 L70.2,87.72 M68.2,80.95 L70.2,80.95 M68.2,74.19 L70.2,74.19 "/></g>
<g id="xMinorTicks" stroke="rgb(0,0,0)" stroke-width="1"><path d="M93.55,338.2 L93.55,340.2 M116.9,338.2 L116.9,340.2 M140.3,338.2 L140.3,340.2 M187,338.2 L187,340.2 M210.3,338.2 L210.3,340.2 M233.7,338.2 L233.7,340.2 M280.4,338.2 L280.4,340.2 M303.7,338.2 L303.7,340.2 M327.1,338.2 L327.1,340.2 M373.8,338.2 L373.8,340.2 M397.1,338.2 L397.1,340.2 M420.5,338.2 L420.5,340.2 "/></g>
<g id="yMajorTicks" stroke="rgb(0,0,0)" stroke-width="2"><path d="M65.2,338.2 L70.2,338.2 M65.2,311.1 L70.2,311.1 M65.2,284 L70.2,284 M65.2,257 L70.2,257 M65.2,229.9 L70.2,229.9 M65.2,202.8 L70.2,202.8 M65.2,175.7 L70.2,175.7 M65.2,148.7 L70.2,148.7 M65.2,121.6 L70.2,121.6 M65.2,94.49 L70.2,94.49 M65.2,67.42 L70.2,67.42 "/></g>
<g id="xMajorTicks" stroke="rgb(0,0,0)" stroke-width="2"><path d="M70.2,338.2 L70.2,343.2 M163.6,338.2 L163.6,343.2 M257,338.2 L257,343.2 M350.4,338.2 L350.4,343.2 M443.8,338.2 L443.8,343.2 M70.2,338.2 L70.2,343.2 "/></g>
<g id="plotLabels">
<text x="70.2" y="357.6" text-anchor="middle" font-size="12" font-family="Verdana">0</text>
<text x="163.6" y="357.6" text-anchor="middle" font-size="12" font-family="Verdana">5</text>
<text x="257" y="357.6" text-anchor="middle" font-size="12" font-family="Verdana">10</text>
<text x="350.4" y="357.6" text-anchor="middle" font-size="12" font-family="Verdana">15</text>
<text x="443.8" y="357.6" text-anchor="middle" font-size="12" font-family="Verdana">20</text>
<text x="70.2" y="357.6" text-anchor="middle" font-size="12" font-family="Verdana">0</text>
<text x="59.2" y="340.6" text-anchor="end" font-size="12" font-family="Verdana">0</text>
<text x="59.2" y="313.5" text-anchor="end" font-size="12" font-family="Verdana">0.1</text>
<text x="59.2" y="286.4" text-anchor="end" font-size="12" font-family="Verdana">0.2</text>
<text x="59.2" y="259.4" text-anchor="end" font-size="12" font-family="Verdana">0.3</text>
<text x="59.2" y="232.3" text-anchor="end" font-size="12" font-family="Verdana">0.4</text>
<text x="59.2" y="205.2" text-anchor="end" font-size="12" font-family="Verdana">0.5</text>
<text x="59.2" y="178.1" text-anchor="end" font-size="12" font-family="Verdana">0.6</text>
<text x="59.2" y="151.1" text-anchor="end" font-size="12" font-family="Verdana">0.7</text>
<text x="59.2" y="124" text-anchor="end" font-size="12" font-family="Verdana">0.8</text>
<text x="59.2" y="96.89" text-anchor="end" font-size="12" font-family="Verdana">0.9</text>
<text x="59.2" y="69.82" text-anchor="end" font-size="12" font-family="Verdana">1</text></g>
<g id="yLabel">
<text x="30.2" y="200.1" text-anchor="middle" transform = "rotate(-90 30.2 200.1 )" font-size="14" font-family="Verdana">gamma_q(a, z)</text></g>
<g id="xLabel">
<text x="260.7" y="384" text-anchor="middle" font-size="14" font-family="Verdana">z</text></g>
<g id="plotLines" stroke-width="2"><g clip-path="url(#plot_window)" stroke="rgb(0,0,139)" stroke-width="1"><path d="M70.2,67.42 L72.07,160.9 L73.94,195.5 L75.8,219.4 L77.67,237.7 L79.54,252.3 L81.41,264.2 L83.28,274.1 L85.14,282.4 L87.01,289.5 L88.88,295.6 L90.75,300.8 L92.62,305.3 L94.48,309.3 L96.35,312.7 L98.22,315.7 L100.1,318.3 L102,320.5 L103.8,322.6 L105.7,324.3 L107.6,325.9 L109.4,327.3 L111.3,328.5 L113.2,329.5 L115,330.5 L116.9,331.3 L118.8,332.1 L120.6,332.7 L122.5,333.3 L124.4,333.9 L126.2,334.3 L128.1,334.7 L130,335.1 L131.8,335.4 L133.7,335.7 L135.6,336 L137.4,336.2 L139.3,336.4 L141.2,336.6 L143.1,336.8 L144.9,336.9 L146.8,337.1 L148.7,337.2 L150.5,337.3 L152.4,337.4 L154.3,337.5 L156.1,337.5 L158,337.6 L159.9,337.7 L161.7,337.7 L163.6,337.8 L165.5,337.8 L167.3,337.9 L169.2,337.9 L171.1,337.9 L172.9,338 L174.8,338 L176.7,338 L178.5,338 L180.4,338 L182.3,338.1 L184.2,338.1 L186,338.1 L187.9,338.1 L189.8,338.1 L191.6,338.1 L193.5,338.1 L195.4,338.1 L197.2,338.1 L199.1,338.1 L201,338.2 L202.8,338.2 L204.7,338.2 L206.6,338.2 L208.4,338.2 L210.3,338.2 L212.2,338.2 L214,338.2 L215.9,338.2 L217.8,338.2 L219.6,338.2 L221.5,338.2 L223.4,338.2 L225.2,338.2 L227.1,338.2 L229,338.2 L230.9,338.2 L232.7,338.2 L234.6,338.2 L236.5,338.2 L238.3,338.2 L240.2,338.2 L242.1,338.2 L243.9,338.2 L245.8,338.2 L247.7,338.2 L249.5,338.2 L251.4,338.2 L253.3,338.2 L255.1,338.2 L257,338.2 L258.9,338.2 L260.7,338.2 L262.6,338.2 L264.5,338.2 L266.3,338.2 L268.2,338.2 L270.1,338.2 L271.9,338.2 L273.8,338.2 L275.7,338.2 L277.6,338.2 L279.4,338.2 L281.3,338.2 L283.2,338.2 L285,338.2 L286.9,338.2 L288.8,338.2 L290.6,338.2 L292.5,338.2 L294.4,338.2 L296.2,338.2 L298.1,338.2 L300,338.2 L301.8,338.2 L303.7,338.2 L305.6,338.2 L307.4,338.2 L309.3,338.2 L311.2,338.2 L313,338.2 L314.9,338.2 L316.8,338.2 L318.6,338.2 L320.5,338.2 L322.4,338.2 L324.3,338.2 L326.1,338.2 L328,338.2 L329.9,338.2 L331.7,338.2 L333.6,338.2 L335.5,338.2 L337.3,338.2 L339.2,338.2 L341.1,338.2 L342.9,338.2 L344.8,338.2 L346.7,338.2 L348.5,338.2 L350.4,338.2 L352.3,338.2 L354.1,338.2 L356,338.2 L357.9,338.2 L359.7,338.2 L361.6,338.2 L363.5,338.2 L365.4,338.2 L367.2,338.2 L369.1,338.2 L371,338.2 L372.8,338.2 L374.7,338.2 L376.6,338.2 L378.4,338.2 L380.3,338.2 L382.2,338.2 L384,338.2 L385.9,338.2 L387.8,338.2 L389.6,338.2 L391.5,338.2 L393.4,338.2 L395.2,338.2 L397.1,338.2 L399,338.2 L400.8,338.2 L402.7,338.2 L404.6,338.2 L406.4,338.2 L408.3,338.2 L410.2,338.2 L412.1,338.2 L413.9,338.2 L415.8,338.2 L417.7,338.2 L419.5,338.2 L421.4,338.2 L423.3,338.2 L425.1,338.2 L427,338.2 L428.9,338.2 L430.7,338.2 L432.6,338.2 L434.5,338.2 L436.3,338.2 L438.2,338.2 L440.1,338.2 L441.9,338.2 " fill="none"/></g>
<g clip-path="url(#plot_window)" stroke="rgb(139,0,0)" stroke-width="1"><path d="M70.2,67.42 L72.07,93.18 L73.94,116.5 L75.8,137.6 L77.67,156.7 L79.54,174 L81.41,189.6 L83.28,203.7 L85.14,216.5 L87.01,228.1 L88.88,238.6 L90.75,248.1 L92.62,256.6 L94.48,264.4 L96.35,271.4 L98.22,277.8 L100.1,283.5 L102,288.7 L103.8,293.4 L105.7,297.7 L107.6,301.6 L109.4,305 L111.3,308.2 L113.2,311.1 L115,313.6 L116.9,316 L118.8,318.1 L120.6,320 L122.5,321.7 L124.4,323.3 L126.2,324.7 L128.1,326 L130,327.2 L131.8,328.2 L133.7,329.2 L135.6,330 L137.4,330.8 L139.3,331.5 L141.2,332.1 L143.1,332.7 L144.9,333.2 L146.8,333.7 L148.7,334.1 L150.5,334.5 L152.4,334.9 L154.3,335.2 L156.1,335.5 L158,335.7 L159.9,336 L161.7,336.2 L163.6,336.4 L165.5,336.5 L167.3,336.7 L169.2,336.8 L171.1,337 L172.9,337.1 L174.8,337.2 L176.7,337.3 L178.5,337.4 L180.4,337.5 L182.3,337.5 L184.2,337.6 L186,337.7 L187.9,337.7 L189.8,337.8 L191.6,337.8 L193.5,337.8 L195.4,337.9 L197.2,337.9 L199.1,337.9 L201,338 L202.8,338 L204.7,338 L206.6,338 L208.4,338 L210.3,338.1 L212.2,338.1 L214,338.1 L215.9,338.1 L217.8,338.1 L219.6,338.1 L221.5,338.1 L223.4,338.1 L225.2,338.1 L227.1,338.1 L229,338.1 L230.9,338.2 L232.7,338.2 L234.6,338.2 L236.5,338.2 L238.3,338.2 L240.2,338.2 L242.1,338.2 L243.9,338.2 L245.8,338.2 L247.7,338.2 L249.5,338.2 L251.4,338.2 L253.3,338.2 L255.1,338.2 L257,338.2 L258.9,338.2 L260.7,338.2 L262.6,338.2 L264.5,338.2 L266.3,338.2 L268.2,338.2 L270.1,338.2 L271.9,338.2 L273.8,338.2 L275.7,338.2 L277.6,338.2 L279.4,338.2 L281.3,338.2 L283.2,338.2 L285,338.2 L286.9,338.2 L288.8,338.2 L290.6,338.2 L292.5,338.2 L294.4,338.2 L296.2,338.2 L298.1,338.2 L300,338.2 L301.8,338.2 L303.7,338.2 L305.6,338.2 L307.4,338.2 L309.3,338.2 L311.2,338.2 L313,338.2 L314.9,338.2 L316.8,338.2 L318.6,338.2 L320.5,338.2 L322.4,338.2 L324.3,338.2 L326.1,338.2 L328,338.2 L329.9,338.2 L331.7,338.2 L333.6,338.2 L335.5,338.2 L337.3,338.2 L339.2,338.2 L341.1,338.2 L342.9,338.2 L344.8,338.2 L346.7,338.2 L348.5,338.2 L350.4,338.2 L352.3,338.2 L354.1,338.2 L356,338.2 L357.9,338.2 L359.7,338.2 L361.6,338.2 L363.5,338.2 L365.4,338.2 L367.2,338.2 L369.1,338.2 L371,338.2 L372.8,338.2 L374.7,338.2 L376.6,338.2 L378.4,338.2 L380.3,338.2 L382.2,338.2 L384,338.2 L385.9,338.2 L387.8,338.2 L389.6,338.2 L391.5,338.2 L393.4,338.2 L395.2,338.2 L397.1,338.2 L399,338.2 L400.8,338.2 L402.7,338.2 L404.6,338.2 L406.4,338.2 L408.3,338.2 L410.2,338.2 L412.1,338.2 L413.9,338.2 L415.8,338.2 L417.7,338.2 L419.5,338.2 L421.4,338.2 L423.3,338.2 L425.1,338.2 L427,338.2 L428.9,338.2 L430.7,338.2 L432.6,338.2 L434.5,338.2 L436.3,338.2 L438.2,338.2 L440.1,338.2 L441.9,338.2 " fill="none"/></g>
<g clip-path="url(#plot_window)" stroke="rgb(0,100,0)" stroke-width="1"><path d="M70.2,67.42 L72.07,67.42 L73.94,67.42 L75.8,67.42 L77.67,67.43 L79.54,67.46 L81.41,67.52 L83.28,67.63 L85.14,67.8 L87.01,68.05 L88.88,68.41 L90.75,68.89 L92.62,69.51 L94.48,70.3 L96.35,71.28 L98.22,72.45 L100.1,73.83 L102,75.43 L103.8,77.27 L105.7,79.35 L107.6,81.67 L109.4,84.24 L111.3,87.05 L113.2,90.09 L115,93.38 L116.9,96.88 L118.8,100.6 L120.6,104.5 L122.5,108.7 L124.4,113 L126.2,117.4 L128.1,122.1 L130,126.8 L131.8,131.7 L133.7,136.7 L135.6,141.8 L137.4,146.9 L139.3,152.1 L141.2,157.4 L143.1,162.6 L144.9,167.9 L146.8,173.2 L148.7,178.5 L150.5,183.7 L152.4,188.9 L154.3,194.1 L156.1,199.2 L158,204.3 L159.9,209.2 L161.7,214.1 L163.6,218.9 L165.5,223.6 L167.3,228.2 L169.2,232.7 L171.1,237.1 L172.9,241.4 L174.8,245.6 L176.7,249.6 L178.5,253.5 L180.4,257.3 L182.3,261 L184.2,264.6 L186,268 L187.9,271.3 L189.8,274.5 L191.6,277.6 L193.5,280.6 L195.4,283.5 L197.2,286.2 L199.1,288.8 L201,291.4 L202.8,293.8 L204.7,296.1 L206.6,298.3 L208.4,300.4 L210.3,302.4 L212.2,304.4 L214,306.2 L215.9,308 L217.8,309.6 L219.6,311.2 L221.5,312.7 L223.4,314.2 L225.2,315.5 L227.1,316.8 L229,318.1 L230.9,319.2 L232.7,320.3 L234.6,321.4 L236.5,322.4 L238.3,323.3 L240.2,324.2 L242.1,325 L243.9,325.8 L245.8,326.6 L247.7,327.3 L249.5,328 L251.4,328.6 L253.3,329.2 L255.1,329.8 L257,330.3 L258.9,330.8 L260.7,331.2 L262.6,331.7 L264.5,332.1 L266.3,332.5 L268.2,332.9 L270.1,333.2 L271.9,333.5 L273.8,333.8 L275.7,334.1 L277.6,334.4 L279.4,334.6 L281.3,334.9 L283.2,335.1 L285,335.3 L286.9,335.5 L288.8,335.7 L290.6,335.8 L292.5,336 L294.4,336.1 L296.2,336.3 L298.1,336.4 L300,336.5 L301.8,336.6 L303.7,336.8 L305.6,336.9 L307.4,336.9 L309.3,337 L311.2,337.1 L313,337.2 L314.9,337.3 L316.8,337.3 L318.6,337.4 L320.5,337.4 L322.4,337.5 L324.3,337.5 L326.1,337.6 L328,337.6 L329.9,337.7 L331.7,337.7 L333.6,337.7 L335.5,337.8 L337.3,337.8 L339.2,337.8 L341.1,337.9 L342.9,337.9 L344.8,337.9 L346.7,337.9 L348.5,337.9 L350.4,338 L352.3,338 L354.1,338 L356,338 L357.9,338 L359.7,338 L361.6,338.1 L363.5,338.1 L365.4,338.1 L367.2,338.1 L369.1,338.1 L371,338.1 L372.8,338.1 L374.7,338.1 L376.6,338.1 L378.4,338.1 L380.3,338.1 L382.2,338.1 L384,338.1 L385.9,338.1 L387.8,338.1 L389.6,338.2 L391.5,338.2 L393.4,338.2 L395.2,338.2 L397.1,338.2 L399,338.2 L400.8,338.2 L402.7,338.2 L404.6,338.2 L406.4,338.2 L408.3,338.2 L410.2,338.2 L412.1,338.2 L413.9,338.2 L415.8,338.2 L417.7,338.2 L419.5,338.2 L421.4,338.2 L423.3,338.2 L425.1,338.2 L427,338.2 L428.9,338.2 L430.7,338.2 L432.6,338.2 L434.5,338.2 L436.3,338.2 L438.2,338.2 L440.1,338.2 L441.9,338.2 " fill="none"/></g>
<g clip-path="url(#plot_window)" stroke="rgb(255,140,0)" stroke-width="1"><path d="M70.2,67.42 L72.07,67.42 L73.94,67.42 L75.8,67.42 L77.67,67.42 L79.54,67.42 L81.41,67.42 L83.28,67.42 L85.14,67.42 L87.01,67.42 L88.88,67.42 L90.75,67.42 L92.62,67.42 L94.48,67.42 L96.35,67.42 L98.22,67.42 L100.1,67.42 L102,67.42 L103.8,67.42 L105.7,67.42 L107.6,67.43 L109.4,67.43 L111.3,67.44 L113.2,67.45 L115,67.47 L116.9,67.49 L118.8,67.52 L120.6,67.55 L122.5,67.59 L124.4,67.65 L126.2,67.71 L128.1,67.8 L130,67.89 L131.8,68.01 L133.7,68.15 L135.6,68.31 L137.4,68.51 L139.3,68.73 L141.2,68.99 L143.1,69.28 L144.9,69.62 L146.8,70 L148.7,70.43 L150.5,70.91 L152.4,71.45 L154.3,72.04 L156.1,72.7 L158,73.43 L159.9,74.22 L161.7,75.09 L163.6,76.03 L165.5,77.06 L167.3,78.16 L169.2,79.35 L171.1,80.62 L172.9,81.98 L174.8,83.43 L176.7,84.97 L178.5,86.6 L180.4,88.32 L182.3,90.14 L184.2,92.05 L186,94.06 L187.9,96.15 L189.8,98.34 L191.6,100.6 L193.5,103 L195.4,105.4 L197.2,108 L199.1,110.6 L201,113.3 L202.8,116.1 L204.7,119 L206.6,121.9 L208.4,124.9 L210.3,128 L212.2,131.1 L214,134.3 L215.9,137.5 L217.8,140.8 L219.6,144.1 L221.5,147.5 L223.4,150.9 L225.2,154.4 L227.1,157.9 L229,161.4 L230.9,164.9 L232.7,168.5 L234.6,172 L236.5,175.6 L238.3,179.1 L240.2,182.7 L242.1,186.3 L243.9,189.8 L245.8,193.4 L247.7,196.9 L249.5,200.4 L251.4,203.9 L253.3,207.4 L255.1,210.8 L257,214.2 L258.9,217.6 L260.7,220.9 L262.6,224.2 L264.5,227.5 L266.3,230.7 L268.2,233.8 L270.1,236.9 L271.9,240 L273.8,243 L275.7,246 L277.6,248.9 L279.4,251.8 L281.3,254.6 L283.2,257.3 L285,260 L286.9,262.6 L288.8,265.2 L290.6,267.7 L292.5,270.2 L294.4,272.6 L296.2,274.9 L298.1,277.2 L300,279.4 L301.8,281.6 L303.7,283.7 L305.6,285.7 L307.4,287.7 L309.3,289.6 L311.2,291.5 L313,293.3 L314.9,295.1 L316.8,296.8 L318.6,298.4 L320.5,300 L322.4,301.6 L324.3,303.1 L326.1,304.5 L328,305.9 L329.9,307.3 L331.7,308.6 L333.6,309.8 L335.5,311.1 L337.3,312.2 L339.2,313.3 L341.1,314.4 L342.9,315.5 L344.8,316.5 L346.7,317.5 L348.5,318.4 L350.4,319.3 L352.3,320.1 L354.1,321 L356,321.8 L357.9,322.5 L359.7,323.3 L361.6,324 L363.5,324.6 L365.4,325.3 L367.2,325.9 L369.1,326.5 L371,327 L372.8,327.6 L374.7,328.1 L376.6,328.6 L378.4,329.1 L380.3,329.5 L382.2,329.9 L384,330.4 L385.9,330.8 L387.8,331.1 L389.6,331.5 L391.5,331.8 L393.4,332.2 L395.2,332.5 L397.1,332.8 L399,333 L400.8,333.3 L402.7,333.6 L404.6,333.8 L406.4,334 L408.3,334.3 L410.2,334.5 L412.1,334.7 L413.9,334.9 L415.8,335 L417.7,335.2 L419.5,335.4 L421.4,335.5 L423.3,335.7 L425.1,335.8 L427,335.9 L428.9,336.1 L430.7,336.2 L432.6,336.3 L434.5,336.4 L436.3,336.5 L438.2,336.6 L440.1,336.7 L441.9,336.8 " fill="none"/></g>
</g>
<g id="plotPoints" clip-path="url(#plot_window)"><g stroke="rgb(0,0,0)"></g>
<g stroke="rgb(0,0,0)"></g>
<g stroke="rgb(0,0,0)"></g>
<g stroke="rgb(0,0,0)"></g>
</g>
<g id="limitPoints" stroke="rgb(119,136,153)" fill="rgb(250,235,215)"></g>
<g id="legendBackground" stroke="rgb(119,136,153)" fill="rgb(255,255,255)" stroke-width="1"><rect x="465.3" y="62" width="122.7" height="126"/><rect x="465.3" y="62" width="122.7" height="126"/></g>
<g id="legendPoints"><g stroke="rgb(0,0,139)" stroke-width="1"><line x1="479.3" y1="90" x2="493.3" y2="90"/></g>
<g stroke="rgb(139,0,0)" stroke-width="1"><line x1="479.3" y1="118" x2="493.3" y2="118"/></g>
<g stroke="rgb(0,100,0)" stroke-width="1"><line x1="479.3" y1="146" x2="493.3" y2="146"/></g>
<g stroke="rgb(255,140,0)" stroke-width="1"><line x1="479.3" y1="174" x2="493.3" y2="174"/></g>
</g>
<g id="legendText">
<text x="500.3" y="90" font-size="14" font-family="Verdana">a = 0.5</text>
<text x="500.3" y="118" font-size="14" font-family="Verdana">a = 1.0</text>
<text x="500.3" y="146" font-size="14" font-family="Verdana">a = 5.0</text>
<text x="500.3" y="174" font-size="14" font-family="Verdana">a = 10.0</text></g>
<g id="title">
<text x="300" y="40" text-anchor="middle" font-size="20" font-family="Verdana">gamma_q</text></g>
</svg>
