<?xml version="1.0" encoding="UTF-8" standalone="no"?>
<svg width="750" height ="400" version="1.1" xmlns="http://www.w3.org/2000/svg"
 xmlns:xlink="http://www.w3.org/1999/xlink"
 xmlns:ev="http://www.w3.org/2001/xml-events">

<!-- SVG plot written using Boost.Plot program (Creator Jacob Voytko) --> 
<!-- Use, modification and distribution of Boost.Plot subject to the --> 
<!-- Boost Software License, Version 1.0.--> 
<!-- (See accompanying file LICENSE_1_0.txt --> 
<!-- or copy at http://www.boost.org/LICENSE_1_0.txt) --> 

<clipPath id="plot_window"><rect x="71.2" y="63" width="501.6" height="274.2"/></clipPath>
<g id="imageBackground" stroke="rgb(119,136,153)" fill="rgb(255,255,255)" stroke-width="2"><rect x="0" y="0" width="750" height="400"/></g>
<g id="plotBackground" stroke="rgb(119,136,153)" fill="rgb(255,255,255)" stroke-width="2"><rect x="70.2" y="62" width="503.6" height="276.2"/></g>
<g id="yMinorGrid" stroke="rgb(200,220,255)" stroke-width="0.5"></g>
<g id="yMajorGrid" stroke="rgb(200,220,255)" stroke-width="1"></g>
<g id="xMinorGrid" stroke="rgb(200,220,255)" stroke-width="0.5"></g>
<g id="xMajorGrid" stroke="rgb(200,220,255)" stroke-width="1"></g>
<g id="yAxis" stroke="rgb(0,0,0)" stroke-width="1"><line x1="70.2" y1="62" x2="70.2" y2="343.2"/><line x1="70.2" y1="62" x2="70.2" y2="338.2"/></g>
<g id="xAxis" stroke="rgb(0,0,0)" stroke-width="1"><line x1="65.2" y1="338.2" x2="573.8" y2="338.2"/><line x1="65.2" y1="338.2" x2="573.8" y2="338.2"/></g>
<g id="yMinorTicks" stroke="rgb(0,0,0)" stroke-width="1"><path d="M68.2,332.9 L70.2,332.9 M68.2,327.5 L70.2,327.5 M68.2,322.2 L70.2,322.2 M68.2,316.9 L70.2,316.9 M68.2,306.2 L70.2,306.2 M68.2,300.9 L70.2,300.9 M68.2,295.5 L70.2,295.5 M68.2,290.2 L70.2,290.2 M68.2,279.5 L70.2,279.5 M68.2,274.2 L70.2,274.2 M68.2,268.9 L70.2,268.9 M68.2,263.5 L70.2,263.5 M68.2,252.9 L70.2,252.9 M68.2,247.5 L70.2,247.5 M68.2,242.2 L70.2,242.2 M68.2,236.9 L70.2,236.9 M68.2,226.2 L70.2,226.2 M68.2,220.9 L70.2,220.9 M68.2,215.5 L70.2,215.5 M68.2,210.2 L70.2,210.2 M68.2,199.5 L70.2,199.5 M68.2,194.2 L70.2,194.2 M68.2,188.9 L70.2,188.9 M68.2,183.5 L70.2,183.5 M68.2,172.9 L70.2,172.9 M68.2,167.6 L70.2,167.6 M68.2,162.2 L70.2,162.2 M68.2,156.9 L70.2,156.9 M68.2,146.2 L70.2,146.2 M68.2,140.9 L70.2,140.9 M68.2,135.6 L70.2,135.6 M68.2,130.2 L70.2,130.2 M68.2,119.6 L70.2,119.6 M68.2,114.2 L70.2,114.2 M68.2,108.9 L70.2,108.9 M68.2,103.6 L70.2,103.6 M68.2,92.89 L70.2,92.89 M68.2,87.56 L70.2,87.56 M68.2,82.23 L70.2,82.23 M68.2,76.89 L70.2,76.89 M68.2,66.23 L70.2,66.23 M68.2,338.2 L70.2,338.2 "/></g>
<g id="xMinorTicks" stroke="rgb(0,0,0)" stroke-width="1"><path d="M80.88,338.2 L80.88,340.2 M91.57,338.2 L91.57,340.2 M102.2,338.2 L102.2,340.2 M112.9,338.2 L112.9,340.2 M134.3,338.2 L134.3,340.2 M145,338.2 L145,340.2 M155.7,338.2 L155.7,340.2 M166.3,338.2 L166.3,340.2 M187.7,338.2 L187.7,340.2 M198.4,338.2 L198.4,340.2 M209.1,338.2 L209.1,340.2 M219.8,338.2 L219.8,340.2 M241.1,338.2 L241.1,340.2 M251.8,338.2 L251.8,340.2 M262.5,338.2 L262.5,340.2 M273.2,338.2 L273.2,340.2 M294.5,338.2 L294.5,340.2 M305.2,338.2 L305.2,340.2 M315.9,338.2 L315.9,340.2 M326.6,338.2 L326.6,340.2 M348,338.2 L348,340.2 M358.6,338.2 L358.6,340.2 M369.3,338.2 L369.3,340.2 M380,338.2 L380,340.2 M401.4,338.2 L401.4,340.2 M412.1,338.2 L412.1,340.2 M422.7,338.2 L422.7,340.2 M433.4,338.2 L433.4,340.2 M454.8,338.2 L454.8,340.2 M465.5,338.2 L465.5,340.2 M476.1,338.2 L476.1,340.2 M486.8,338.2 L486.8,340.2 M508.2,338.2 L508.2,340.2 M518.9,338.2 L518.9,340.2 M529.6,338.2 L529.6,340.2 M540.2,338.2 L540.2,340.2 M561.6,338.2 L561.6,340.2 M572.3,338.2 L572.3,340.2 "/></g>
<g id="yMajorTicks" stroke="rgb(0,0,0)" stroke-width="2"><path d="M65.2,338.2 L70.2,338.2 M65.2,311.5 L70.2,311.5 M65.2,284.9 L70.2,284.9 M65.2,258.2 L70.2,258.2 M65.2,231.5 L70.2,231.5 M65.2,204.9 L70.2,204.9 M65.2,178.2 L70.2,178.2 M65.2,151.6 L70.2,151.6 M65.2,124.9 L70.2,124.9 M65.2,98.23 L70.2,98.23 M65.2,71.56 L70.2,71.56 M65.2,338.2 L70.2,338.2 "/></g>
<g id="xMajorTicks" stroke="rgb(0,0,0)" stroke-width="2"><path d="M70.2,338.2 L70.2,343.2 M123.6,338.2 L123.6,343.2 M177,338.2 L177,343.2 M230.4,338.2 L230.4,343.2 M283.9,338.2 L283.9,343.2 M337.3,338.2 L337.3,343.2 M390.7,338.2 L390.7,343.2 M444.1,338.2 L444.1,343.2 M497.5,338.2 L497.5,343.2 M550.9,338.2 L550.9,343.2 "/></g>
<g id="plotLabels">
<text x="70.2" y="357.6" text-anchor="middle" font-size="12" font-family="Verdana">0</text>
<text x="123.6" y="357.6" text-anchor="middle" font-size="12" font-family="Verdana">1</text>
<text x="177" y="357.6" text-anchor="middle" font-size="12" font-family="Verdana">2</text>
<text x="230.4" y="357.6" text-anchor="middle" font-size="12" font-family="Verdana">3</text>
<text x="283.9" y="357.6" text-anchor="middle" font-size="12" font-family="Verdana">4</text>
<text x="337.3" y="357.6" text-anchor="middle" font-size="12" font-family="Verdana">5</text>
<text x="390.7" y="357.6" text-anchor="middle" font-size="12" font-family="Verdana">6</text>
<text x="444.1" y="357.6" text-anchor="middle" font-size="12" font-family="Verdana">7</text>
<text x="497.5" y="357.6" text-anchor="middle" font-size="12" font-family="Verdana">8</text>
<text x="550.9" y="357.6" text-anchor="middle" font-size="12" font-family="Verdana">9</text>
<text x="59.2" y="340.6" text-anchor="end" font-size="12" font-family="Verdana">0</text>
<text x="59.2" y="313.9" text-anchor="end" font-size="12" font-family="Verdana">0.1</text>
<text x="59.2" y="287.3" text-anchor="end" font-size="12" font-family="Verdana">0.2</text>
<text x="59.2" y="260.6" text-anchor="end" font-size="12" font-family="Verdana">0.3</text>
<text x="59.2" y="233.9" text-anchor="end" font-size="12" font-family="Verdana">0.4</text>
<text x="59.2" y="207.3" text-anchor="end" font-size="12" font-family="Verdana">0.5</text>
<text x="59.2" y="180.6" text-anchor="end" font-size="12" font-family="Verdana">0.6</text>
<text x="59.2" y="154" text-anchor="end" font-size="12" font-family="Verdana">0.7</text>
<text x="59.2" y="127.3" text-anchor="end" font-size="12" font-family="Verdana">0.8</text>
<text x="59.2" y="100.6" text-anchor="end" font-size="12" font-family="Verdana">0.9</text>
<text x="59.2" y="73.96" text-anchor="end" font-size="12" font-family="Verdana">1</text>
<text x="59.2" y="340.6" text-anchor="end" font-size="12" font-family="Verdana">0</text></g>
<g id="yLabel">
<text x="30.2" y="200.1" text-anchor="middle" transform = "rotate(-90 30.2 200.1 )" font-size="14" font-family="Verdana">Probability</text></g>
<g id="xLabel">
<text x="322" y="384" text-anchor="middle" font-size="14" font-family="Verdana">Random Variable</text></g>
<g id="plotLines" stroke-width="2"><g clip-path="url(#plot_window)" stroke="rgb(0,0,139)" stroke-width="1"><path d="M70.2,71.56 L72.72,83.84 L75.24,95.55 L77.75,106.7 L80.27,117.4 L82.79,127.5 L85.31,137.2 L87.82,146.5 L90.34,155.3 L92.86,163.7 L95.38,171.8 L97.9,179.4 L100.4,186.8 L102.9,193.7 L105.4,200.4 L108,206.7 L110.5,212.8 L113,218.6 L115.5,224.1 L118,229.3 L120.6,234.3 L123.1,239.1 L125.6,243.7 L128.1,248 L130.6,252.2 L133.1,256.1 L135.7,259.9 L138.2,263.5 L140.7,267 L143.2,270.2 L145.7,273.4 L148.3,276.4 L150.8,279.2 L153.3,281.9 L155.8,284.5 L158.3,287 L160.8,289.3 L163.4,291.6 L165.9,293.7 L168.4,295.8 L170.9,297.7 L173.4,299.6 L175.9,301.4 L178.5,303.1 L181,304.7 L183.5,306.2 L186,307.7 L188.5,309.1 L191.1,310.4 L193.6,311.7 L196.1,312.9 L198.6,314.1 L201.1,315.2 L203.6,316.3 L206.2,317.3 L208.7,318.2 L211.2,319.2 L213.7,320 L216.2,320.9 L218.8,321.7 L221.3,322.4 L223.8,323.2 L226.3,323.9 L228.8,324.5 L231.3,325.1 L233.9,325.7 L236.4,326.3 L238.9,326.9 L241.4,327.4 L243.9,327.9 L246.4,328.4 L249,328.8 L251.5,329.2 L254,329.7 L256.5,330.1 L259,330.4 L261.6,330.8 L264.1,331.1 L266.6,331.5 L269.1,331.8 L271.6,332.1 L274.1,332.3 L276.7,332.6 L279.2,332.9 L281.7,333.1 L284.2,333.3 L286.7,333.6 L289.2,333.8 L291.8,334 L294.3,334.2 L296.8,334.4 L299.3,334.5 L301.8,334.7 L304.4,334.9 L306.9,335 L309.4,335.2 L311.9,335.3 L314.4,335.4 L316.9,335.6 L319.5,335.7 L322,335.8 L324.5,335.9 L327,336 L329.5,336.1 L332.1,336.2 L334.6,336.3 L337.1,336.4 L339.6,336.5 L342.1,336.6 L344.6,336.6 L347.2,336.7 L349.7,336.8 L352.2,336.8 L354.7,336.9 L357.2,337 L359.7,337 L362.3,337.1 L364.8,337.1 L367.3,337.2 L369.8,337.2 L372.3,337.3 L374.9,337.3 L377.4,337.4 L379.9,337.4 L382.4,337.4 L384.9,337.5 L387.4,337.5 L390,337.5 L392.5,337.6 L395,337.6 L397.5,337.6 L400,337.6 L402.5,337.7 L405.1,337.7 L407.6,337.7 L410.1,337.7 L412.6,337.8 L415.1,337.8 L417.7,337.8 L420.2,337.8 L422.7,337.8 L425.2,337.9 L427.7,337.9 L430.2,337.9 L432.8,337.9 L435.3,337.9 L437.8,337.9 L440.3,337.9 L442.8,338 L445.4,338 L447.9,338 L450.4,338 L452.9,338 L455.4,338 L457.9,338 L460.5,338 L463,338 L465.5,338 L468,338 L470.5,338.1 L473,338.1 L475.6,338.1 L478.1,338.1 L480.6,338.1 L483.1,338.1 L485.6,338.1 L488.2,338.1 L490.7,338.1 L493.2,338.1 L495.7,338.1 L498.2,338.1 L500.7,338.1 L503.3,338.1 L505.8,338.1 L508.3,338.1 L510.8,338.1 L513.3,338.1 L515.9,338.1 L518.4,338.1 L520.9,338.1 L523.4,338.1 L525.9,338.1 L528.4,338.1 L531,338.2 L533.5,338.2 L536,338.2 L538.5,338.2 L541,338.2 L543.5,338.2 L546.1,338.2 L548.6,338.2 L551.1,338.2 L553.6,338.2 L556.1,338.2 L558.7,338.2 L561.2,338.2 L563.7,338.2 L566.2,338.2 L568.7,338.2 L571.2,338.2 L573.8,338.2 " fill="none"/></g>
<g clip-path="url(#plot_window)" stroke="rgb(139,0,0)" stroke-width="1"><path d="M70.2,338.2 L72.72,326.2 L75.24,315.3 L77.75,305.5 L80.27,296.6 L82.79,288.6 L85.31,281.4 L87.82,274.9 L90.34,269.2 L92.86,264.2 L95.38,259.8 L97.9,255.9 L100.4,252.5 L102.9,249.7 L105.4,247.2 L108,245.2 L110.5,243.6 L113,242.3 L115.5,241.4 L118,240.7 L120.6,240.3 L123.1,240.1 L125.6,240.2 L128.1,240.4 L130.6,240.9 L133.1,241.5 L135.7,242.3 L138.2,243.2 L140.7,244.2 L143.2,245.3 L145.7,246.5 L148.3,247.8 L150.8,249.2 L153.3,250.7 L155.8,252.2 L158.3,253.7 L160.8,255.3 L163.4,256.9 L165.9,258.6 L168.4,260.2 L170.9,261.9 L173.4,263.6 L175.9,265.3 L178.5,267 L181,268.7 L183.5,270.4 L186,272.1 L188.5,273.7 L191.1,275.4 L193.6,277.1 L196.1,278.7 L198.6,280.3 L201.1,281.9 L203.6,283.4 L206.2,285 L208.7,286.5 L211.2,288 L213.7,289.4 L216.2,290.8 L218.8,292.2 L221.3,293.6 L223.8,295 L226.3,296.3 L228.8,297.6 L231.3,298.8 L233.9,300 L236.4,301.2 L238.9,302.4 L241.4,303.5 L243.9,304.7 L246.4,305.7 L249,306.8 L251.5,307.8 L254,308.8 L256.5,309.8 L259,310.7 L261.6,311.6 L264.1,312.5 L266.6,313.4 L269.1,314.2 L271.6,315 L274.1,315.8 L276.7,316.6 L279.2,317.3 L281.7,318.1 L284.2,318.8 L286.7,319.4 L289.2,320.1 L291.8,320.7 L294.3,321.3 L296.8,321.9 L299.3,322.5 L301.8,323.1 L304.4,323.6 L306.9,324.1 L309.4,324.6 L311.9,325.1 L314.4,325.6 L316.9,326.1 L319.5,326.5 L322,326.9 L324.5,327.3 L327,327.7 L329.5,328.1 L332.1,328.5 L334.6,328.8 L337.1,329.2 L339.6,329.5 L342.1,329.8 L344.6,330.2 L347.2,330.5 L349.7,330.7 L352.2,331 L354.7,331.3 L357.2,331.6 L359.7,331.8 L362.3,332 L364.8,332.3 L367.3,332.5 L369.8,332.7 L372.3,332.9 L374.9,333.1 L377.4,333.3 L379.9,333.5 L382.4,333.7 L384.9,333.9 L387.4,334 L390,334.2 L392.5,334.3 L395,334.5 L397.5,334.6 L400,334.8 L402.5,334.9 L405.1,335 L407.6,335.2 L410.1,335.3 L412.6,335.4 L415.1,335.5 L417.7,335.6 L420.2,335.7 L422.7,335.8 L425.2,335.9 L427.7,336 L430.2,336.1 L432.8,336.2 L435.3,336.2 L437.8,336.3 L440.3,336.4 L442.8,336.5 L445.4,336.5 L447.9,336.6 L450.4,336.7 L452.9,336.7 L455.4,336.8 L457.9,336.8 L460.5,336.9 L463,336.9 L465.5,337 L468,337 L470.5,337.1 L473,337.1 L475.6,337.2 L478.1,337.2 L480.6,337.3 L483.1,337.3 L485.6,337.3 L488.2,337.4 L490.7,337.4 L493.2,337.4 L495.7,337.5 L498.2,337.5 L500.7,337.5 L503.3,337.5 L505.8,337.6 L508.3,337.6 L510.8,337.6 L513.3,337.6 L515.9,337.7 L518.4,337.7 L520.9,337.7 L523.4,337.7 L525.9,337.8 L528.4,337.8 L531,337.8 L533.5,337.8 L536,337.8 L538.5,337.8 L541,337.9 L543.5,337.9 L546.1,337.9 L548.6,337.9 L551.1,337.9 L553.6,337.9 L556.1,337.9 L558.7,337.9 L561.2,338 L563.7,338 L566.2,338 L568.7,338 L571.2,338 L573.8,338 " fill="none"/></g>
<g clip-path="url(#plot_window)" stroke="rgb(0,100,0)" stroke-width="1"><path d="M70.2,338.2 L72.72,338.2 L75.24,338.2 L77.75,338.1 L80.27,338 L82.79,337.7 L85.31,337.4 L87.82,337.1 L90.34,336.6 L92.86,336 L95.38,335.3 L97.9,334.5 L100.4,333.6 L102.9,332.7 L105.4,331.6 L108,330.5 L110.5,329.2 L113,327.9 L115.5,326.6 L118,325.2 L120.6,323.7 L123.1,322.2 L125.6,320.6 L128.1,319 L130.6,317.4 L133.1,315.8 L135.7,314.2 L138.2,312.5 L140.7,310.9 L143.2,309.3 L145.7,307.6 L148.3,306 L150.8,304.5 L153.3,302.9 L155.8,301.4 L158.3,299.9 L160.8,298.4 L163.4,297 L165.9,295.6 L168.4,294.3 L170.9,293 L173.4,291.8 L175.9,290.6 L178.5,289.4 L181,288.4 L183.5,287.4 L186,286.4 L188.5,285.5 L191.1,284.6 L193.6,283.8 L196.1,283.1 L198.6,282.4 L201.1,281.8 L203.6,281.2 L206.2,280.7 L208.7,280.3 L211.2,279.9 L213.7,279.5 L216.2,279.2 L218.8,279 L221.3,278.8 L223.8,278.6 L226.3,278.5 L228.8,278.5 L231.3,278.5 L233.9,278.5 L236.4,278.6 L238.9,278.7 L241.4,278.9 L243.9,279.1 L246.4,279.3 L249,279.6 L251.5,279.9 L254,280.2 L256.5,280.6 L259,281 L261.6,281.4 L264.1,281.8 L266.6,282.3 L269.1,282.8 L271.6,283.3 L274.1,283.9 L276.7,284.4 L279.2,285 L281.7,285.6 L284.2,286.2 L286.7,286.8 L289.2,287.5 L291.8,288.1 L294.3,288.8 L296.8,289.4 L299.3,290.1 L301.8,290.8 L304.4,291.5 L306.9,292.2 L309.4,292.9 L311.9,293.6 L314.4,294.3 L316.9,295 L319.5,295.7 L322,296.4 L324.5,297.2 L327,297.9 L329.5,298.6 L332.1,299.3 L334.6,300 L337.1,300.7 L339.6,301.4 L342.1,302.1 L344.6,302.8 L347.2,303.5 L349.7,304.2 L352.2,304.9 L354.7,305.6 L357.2,306.2 L359.7,306.9 L362.3,307.5 L364.8,308.2 L367.3,308.8 L369.8,309.5 L372.3,310.1 L374.9,310.7 L377.4,311.3 L379.9,311.9 L382.4,312.5 L384.9,313.1 L387.4,313.7 L390,314.2 L392.5,314.8 L395,315.4 L397.5,315.9 L400,316.4 L402.5,317 L405.1,317.5 L407.6,318 L410.1,318.5 L412.6,319 L415.1,319.4 L417.7,319.9 L420.2,320.4 L422.7,320.8 L425.2,321.3 L427.7,321.7 L430.2,322.1 L432.8,322.5 L435.3,322.9 L437.8,323.3 L440.3,323.7 L442.8,324.1 L445.4,324.5 L447.9,324.9 L450.4,325.2 L452.9,325.6 L455.4,325.9 L457.9,326.2 L460.5,326.6 L463,326.9 L465.5,327.2 L468,327.5 L470.5,327.8 L473,328.1 L475.6,328.4 L478.1,328.6 L480.6,328.9 L483.1,329.2 L485.6,329.4 L488.2,329.7 L490.7,329.9 L493.2,330.2 L495.7,330.4 L498.2,330.6 L500.7,330.9 L503.3,331.1 L505.8,331.3 L508.3,331.5 L510.8,331.7 L513.3,331.9 L515.9,332.1 L518.4,332.2 L520.9,332.4 L523.4,332.6 L525.9,332.8 L528.4,332.9 L531,333.1 L533.5,333.2 L536,333.4 L538.5,333.5 L541,333.7 L543.5,333.8 L546.1,334 L548.6,334.1 L551.1,334.2 L553.6,334.3 L556.1,334.5 L558.7,334.6 L561.2,334.7 L563.7,334.8 L566.2,334.9 L568.7,335 L571.2,335.1 L573.8,335.2 " fill="none"/></g>
</g>
<g id="plotPoints" clip-path="url(#plot_window)"><g stroke="rgb(0,0,0)"></g>
<g stroke="rgb(0,0,0)"></g>
<g stroke="rgb(0,0,0)"></g>
</g>
<g id="limitPoints" stroke="rgb(119,136,153)" fill="rgb(250,235,215)"></g>
<g id="legendBackground" stroke="rgb(119,136,153)" fill="rgb(255,255,255)" stroke-width="1"><rect x="587.8" y="62" width="150.2" height="105"/><rect x="587.8" y="62" width="150.2" height="105"/></g>
<g id="legendPoints"><g stroke="rgb(0,0,139)" stroke-width="1"><line x1="602.8" y1="92" x2="617.8" y2="92"/></g>
<g stroke="rgb(139,0,0)" stroke-width="1"><line x1="602.8" y1="122" x2="617.8" y2="122"/></g>
<g stroke="rgb(0,100,0)" stroke-width="1"><line x1="602.8" y1="152" x2="617.8" y2="152"/></g>
</g>
<g id="legendText">
<text x="625.3" y="92" font-size="15" font-family="Verdana">shape = 0.5</text>
<text x="625.3" y="122" font-size="15" font-family="Verdana">shape = 1</text>
<text x="625.3" y="152" font-size="15" font-family="Verdana">shape = 3</text></g>
<g id="title">
<text x="375" y="40" text-anchor="middle" font-size="20" font-family="Verdana">Gamma Distribution PDF With Scale = 1</text></g>
</svg>
