<?xml version="1.0" encoding="UTF-8" standalone="no"?>
<svg width="600" height ="400" version="1.1" xmlns="http://www.w3.org/2000/svg"
 xmlns:xlink="http://www.w3.org/1999/xlink"
 xmlns:ev="http://www.w3.org/2001/xml-events">

<!-- SVG plot written using Boost.Plot program (Creator Jacob Voytko) --> 
<!-- Use, modification and distribution of Boost.Plot subject to the --> 
<!-- Boost Software License, Version 1.0.--> 
<!-- (See accompanying file LICENSE_1_0.txt --> 
<!-- or copy at http://www.boost.org/LICENSE_1_0.txt) --> 

<!-- SVG Plot Copyright John Maddock 2008 --> 
<meta name="copyright" content="John Maddock" />
<meta name="date" content="2008" />
<!-- Use, modification and distribution of this Scalable Vector Graphic file -->
<!-- are subject to the Boost Software License, Version 1.0. -->
<!-- (See accompanying file LICENSE_1_0.txt or copy at http://www.boost.org/LICENSE_1_0.txt) -->

<clipPath id="plot_window"><rect x="71.2" y="63" width="379.1" height="274.2"/></clipPath>
<g id="imageBackground" stroke="rgb(119,136,153)" fill="rgb(255,255,255)" stroke-width="2"><rect x="0" y="0" width="600" height="400"/></g>
<g id="plotBackground" stroke="rgb(119,136,153)" fill="rgb(255,255,255)" stroke-width="2"><rect x="70.2" y="62" width="381.1" height="276.2"/></g>
<g id="yMinorGrid" stroke="rgb(200,220,255)" stroke-width="0.5"></g>
<g id="yMajorGrid" stroke="rgb(200,220,255)" stroke-width="1"></g>
<g id="xMinorGrid" stroke="rgb(200,220,255)" stroke-width="0.5"></g>
<g id="xMajorGrid" stroke="rgb(200,220,255)" stroke-width="1"></g>
<g id="yAxis" stroke="rgb(0,0,0)" stroke-width="1"><line x1="70.2" y1="62" x2="70.2" y2="343.2"/><line x1="70.2" y1="62" x2="70.2" y2="338.2"/></g>
<g id="xAxis" stroke="rgb(0,0,0)" stroke-width="1"><line x1="65.2" y1="338.2" x2="451.3" y2="338.2"/><line x1="65.2" y1="338.2" x2="451.3" y2="338.2"/></g>
<g id="yMinorTicks" stroke="rgb(0,0,0)" stroke-width="1"><path d="M68.2,331.4 L70.2,331.4 M68.2,324.7 L70.2,324.7 M68.2,317.9 L70.2,317.9 M68.2,304.4 L70.2,304.4 M68.2,297.6 L70.2,297.6 M68.2,290.8 L70.2,290.8 M68.2,277.3 L70.2,277.3 M68.2,270.5 L70.2,270.5 M68.2,263.7 L70.2,263.7 M68.2,250.2 L70.2,250.2 M68.2,243.4 L70.2,243.4 M68.2,236.7 L70.2,236.7 M68.2,223.1 L70.2,223.1 M68.2,216.3 L70.2,216.3 M68.2,209.6 L70.2,209.6 M68.2,196 L70.2,196 M68.2,189.3 L70.2,189.3 M68.2,182.5 L70.2,182.5 M68.2,169 L70.2,169 M68.2,162.2 L70.2,162.2 M68.2,155.4 L70.2,155.4 M68.2,141.9 L70.2,141.9 M68.2,135.1 L70.2,135.1 M68.2,128.3 L70.2,128.3 M68.2,114.8 L70.2,114.8 M68.2,108 L70.2,108 M68.2,101.3 L70.2,101.3 M68.2,87.72 L70.2,87.72 M68.2,80.95 L70.2,80.95 M68.2,74.19 L70.2,74.19 M68.2,338.2 L70.2,338.2 "/></g>
<g id="xMinorTicks" stroke="rgb(0,0,0)" stroke-width="1"><path d="M93.55,338.2 L93.55,340.2 M116.9,338.2 L116.9,340.2 M140.3,338.2 L140.3,340.2 M187,338.2 L187,340.2 M210.3,338.2 L210.3,340.2 M233.7,338.2 L233.7,340.2 M280.4,338.2 L280.4,340.2 M303.7,338.2 L303.7,340.2 M327.1,338.2 L327.1,340.2 M373.8,338.2 L373.8,340.2 M397.1,338.2 L397.1,340.2 M420.5,338.2 L420.5,340.2 "/></g>
<g id="yMajorTicks" stroke="rgb(0,0,0)" stroke-width="2"><path d="M65.2,338.2 L70.2,338.2 M65.2,311.1 L70.2,311.1 M65.2,284 L70.2,284 M65.2,257 L70.2,257 M65.2,229.9 L70.2,229.9 M65.2,202.8 L70.2,202.8 M65.2,175.7 L70.2,175.7 M65.2,148.7 L70.2,148.7 M65.2,121.6 L70.2,121.6 M65.2,94.49 L70.2,94.49 M65.2,67.42 L70.2,67.42 M65.2,338.2 L70.2,338.2 "/></g>
<g id="xMajorTicks" stroke="rgb(0,0,0)" stroke-width="2"><path d="M70.2,338.2 L70.2,343.2 M163.6,338.2 L163.6,343.2 M257,338.2 L257,343.2 M350.4,338.2 L350.4,343.2 M443.8,338.2 L443.8,343.2 M70.2,338.2 L70.2,343.2 "/></g>
<g id="plotLabels">
<text x="70.2" y="357.6" text-anchor="middle" font-size="12" font-family="Verdana">0</text>
<text x="163.6" y="357.6" text-anchor="middle" font-size="12" font-family="Verdana">5</text>
<text x="257" y="357.6" text-anchor="middle" font-size="12" font-family="Verdana">10</text>
<text x="350.4" y="357.6" text-anchor="middle" font-size="12" font-family="Verdana">15</text>
<text x="443.8" y="357.6" text-anchor="middle" font-size="12" font-family="Verdana">20</text>
<text x="70.2" y="357.6" text-anchor="middle" font-size="12" font-family="Verdana">0</text>
<text x="59.2" y="340.6" text-anchor="end" font-size="12" font-family="Verdana">0</text>
<text x="59.2" y="313.5" text-anchor="end" font-size="12" font-family="Verdana">0.1</text>
<text x="59.2" y="286.4" text-anchor="end" font-size="12" font-family="Verdana">0.2</text>
<text x="59.2" y="259.4" text-anchor="end" font-size="12" font-family="Verdana">0.3</text>
<text x="59.2" y="232.3" text-anchor="end" font-size="12" font-family="Verdana">0.4</text>
<text x="59.2" y="205.2" text-anchor="end" font-size="12" font-family="Verdana">0.5</text>
<text x="59.2" y="178.1" text-anchor="end" font-size="12" font-family="Verdana">0.6</text>
<text x="59.2" y="151.1" text-anchor="end" font-size="12" font-family="Verdana">0.7</text>
<text x="59.2" y="124" text-anchor="end" font-size="12" font-family="Verdana">0.8</text>
<text x="59.2" y="96.89" text-anchor="end" font-size="12" font-family="Verdana">0.9</text>
<text x="59.2" y="69.82" text-anchor="end" font-size="12" font-family="Verdana">1</text>
<text x="59.2" y="340.6" text-anchor="end" font-size="12" font-family="Verdana">0</text></g>
<g id="yLabel">
<text x="30.2" y="200.1" text-anchor="middle" transform = "rotate(-90 30.2 200.1 )" font-size="14" font-family="Verdana">gamma_p(a, z)</text></g>
<g id="xLabel">
<text x="260.7" y="384" text-anchor="middle" font-size="14" font-family="Verdana">z</text></g>
<g id="plotLines" stroke-width="2"><g clip-path="url(#plot_window)" stroke="rgb(0,0,139)" stroke-width="1"><path d="M70.2,338.2 L72.07,244.7 L73.94,210.1 L75.8,186.2 L77.67,167.9 L79.54,153.3 L81.41,141.4 L83.28,131.5 L85.14,123.2 L87.01,116.1 L88.88,110 L90.75,104.8 L92.62,100.3 L94.48,96.35 L96.35,92.94 L98.22,89.96 L100.1,87.36 L102,85.07 L103.8,83.06 L105.7,81.29 L107.6,79.74 L109.4,78.36 L111.3,77.15 L113.2,76.07 L115,75.12 L116.9,74.28 L118.8,73.53 L120.6,72.87 L122.5,72.28 L124.4,71.76 L126.2,71.29 L128.1,70.87 L130,70.51 L131.8,70.18 L133.7,69.88 L135.6,69.62 L137.4,69.39 L139.3,69.18 L141.2,69 L143.1,68.83 L144.9,68.68 L146.8,68.55 L148.7,68.43 L150.5,68.33 L152.4,68.23 L154.3,68.15 L156.1,68.07 L158,68 L159.9,67.94 L161.7,67.89 L163.6,67.84 L165.5,67.8 L167.3,67.76 L169.2,67.72 L171.1,67.69 L172.9,67.66 L174.8,67.64 L176.7,67.61 L178.5,67.59 L180.4,67.58 L182.3,67.56 L184.2,67.55 L186,67.53 L187.9,67.52 L189.8,67.51 L191.6,67.5 L193.5,67.49 L195.4,67.48 L197.2,67.48 L199.1,67.47 L201,67.47 L202.8,67.46 L204.7,67.46 L206.6,67.45 L208.4,67.45 L210.3,67.44 L212.2,67.44 L214,67.44 L215.9,67.44 L217.8,67.43 L219.6,67.43 L221.5,67.43 L223.4,67.43 L225.2,67.43 L227.1,67.43 L229,67.43 L230.9,67.42 L232.7,67.42 L234.6,67.42 L236.5,67.42 L238.3,67.42 L240.2,67.42 L242.1,67.42 L243.9,67.42 L245.8,67.42 L247.7,67.42 L249.5,67.42 L251.4,67.42 L253.3,67.42 L255.1,67.42 L257,67.42 L258.9,67.42 L260.7,67.42 L262.6,67.42 L264.5,67.42 L266.3,67.42 L268.2,67.42 L270.1,67.42 L271.9,67.42 L273.8,67.42 L275.7,67.42 L277.6,67.42 L279.4,67.42 L281.3,67.42 L283.2,67.42 L285,67.42 L286.9,67.42 L288.8,67.42 L290.6,67.42 L292.5,67.42 L294.4,67.42 L296.2,67.42 L298.1,67.42 L300,67.42 L301.8,67.42 L303.7,67.42 L305.6,67.42 L307.4,67.42 L309.3,67.42 L311.2,67.42 L313,67.42 L314.9,67.42 L316.8,67.42 L318.6,67.42 L320.5,67.42 L322.4,67.42 L324.3,67.42 L326.1,67.42 L328,67.42 L329.9,67.42 L331.7,67.42 L333.6,67.42 L335.5,67.42 L337.3,67.42 L339.2,67.42 L341.1,67.42 L342.9,67.42 L344.8,67.42 L346.7,67.42 L348.5,67.42 L350.4,67.42 L352.3,67.42 L354.1,67.42 L356,67.42 L357.9,67.42 L359.7,67.42 L361.6,67.42 L363.5,67.42 L365.4,67.42 L367.2,67.42 L369.1,67.42 L371,67.42 L372.8,67.42 L374.7,67.42 L376.6,67.42 L378.4,67.42 L380.3,67.42 L382.2,67.42 L384,67.42 L385.9,67.42 L387.8,67.42 L389.6,67.42 L391.5,67.42 L393.4,67.42 L395.2,67.42 L397.1,67.42 L399,67.42 L400.8,67.42 L402.7,67.42 L404.6,67.42 L406.4,67.42 L408.3,67.42 L410.2,67.42 L412.1,67.42 L413.9,67.42 L415.8,67.42 L417.7,67.42 L419.5,67.42 L421.4,67.42 L423.3,67.42 L425.1,67.42 L427,67.42 L428.9,67.42 L430.7,67.42 L432.6,67.42 L434.5,67.42 L436.3,67.42 L438.2,67.42 L440.1,67.42 L441.9,67.42 " fill="none"/></g>
<g clip-path="url(#plot_window)" stroke="rgb(139,0,0)" stroke-width="1"><path d="M70.2,338.2 L72.07,312.4 L73.94,289.1 L75.8,268 L77.67,248.9 L79.54,231.7 L81.41,216 L83.28,201.9 L85.14,189.1 L87.01,177.5 L88.88,167 L90.75,157.6 L92.62,149 L94.48,141.2 L96.35,134.2 L98.22,127.8 L100.1,122.1 L102,116.9 L103.8,112.2 L105.7,107.9 L107.6,104.1 L109.4,100.6 L111.3,97.42 L113.2,94.56 L115,91.98 L116.9,89.64 L118.8,87.53 L120.6,85.61 L122.5,83.88 L124.4,82.32 L126.2,80.9 L128.1,79.61 L130,78.45 L131.8,77.4 L133.7,76.45 L135.6,75.59 L137.4,74.81 L139.3,74.11 L141.2,73.47 L143.1,72.9 L144.9,72.38 L146.8,71.9 L148.7,71.48 L150.5,71.09 L152.4,70.74 L154.3,70.42 L156.1,70.14 L158,69.88 L159.9,69.64 L161.7,69.43 L163.6,69.24 L165.5,69.07 L167.3,68.91 L169.2,68.77 L171.1,68.64 L172.9,68.52 L174.8,68.42 L176.7,68.32 L178.5,68.24 L180.4,68.16 L182.3,68.09 L184.2,68.02 L186,67.97 L187.9,67.91 L189.8,67.87 L191.6,67.82 L193.5,67.78 L195.4,67.75 L197.2,67.72 L199.1,67.69 L201,67.66 L202.8,67.64 L204.7,67.62 L206.6,67.6 L208.4,67.58 L210.3,67.57 L212.2,67.55 L214,67.54 L215.9,67.53 L217.8,67.52 L219.6,67.51 L221.5,67.5 L223.4,67.49 L225.2,67.48 L227.1,67.48 L229,67.47 L230.9,67.47 L232.7,67.46 L234.6,67.46 L236.5,67.45 L238.3,67.45 L240.2,67.45 L242.1,67.44 L243.9,67.44 L245.8,67.44 L247.7,67.44 L249.5,67.43 L251.4,67.43 L253.3,67.43 L255.1,67.43 L257,67.43 L258.9,67.43 L260.7,67.43 L262.6,67.42 L264.5,67.42 L266.3,67.42 L268.2,67.42 L270.1,67.42 L271.9,67.42 L273.8,67.42 L275.7,67.42 L277.6,67.42 L279.4,67.42 L281.3,67.42 L283.2,67.42 L285,67.42 L286.9,67.42 L288.8,67.42 L290.6,67.42 L292.5,67.42 L294.4,67.42 L296.2,67.42 L298.1,67.42 L300,67.42 L301.8,67.42 L303.7,67.42 L305.6,67.42 L307.4,67.42 L309.3,67.42 L311.2,67.42 L313,67.42 L314.9,67.42 L316.8,67.42 L318.6,67.42 L320.5,67.42 L322.4,67.42 L324.3,67.42 L326.1,67.42 L328,67.42 L329.9,67.42 L331.7,67.42 L333.6,67.42 L335.5,67.42 L337.3,67.42 L339.2,67.42 L341.1,67.42 L342.9,67.42 L344.8,67.42 L346.7,67.42 L348.5,67.42 L350.4,67.42 L352.3,67.42 L354.1,67.42 L356,67.42 L357.9,67.42 L359.7,67.42 L361.6,67.42 L363.5,67.42 L365.4,67.42 L367.2,67.42 L369.1,67.42 L371,67.42 L372.8,67.42 L374.7,67.42 L376.6,67.42 L378.4,67.42 L380.3,67.42 L382.2,67.42 L384,67.42 L385.9,67.42 L387.8,67.42 L389.6,67.42 L391.5,67.42 L393.4,67.42 L395.2,67.42 L397.1,67.42 L399,67.42 L400.8,67.42 L402.7,67.42 L404.6,67.42 L406.4,67.42 L408.3,67.42 L410.2,67.42 L412.1,67.42 L413.9,67.42 L415.8,67.42 L417.7,67.42 L419.5,67.42 L421.4,67.42 L423.3,67.42 L425.1,67.42 L427,67.42 L428.9,67.42 L430.7,67.42 L432.6,67.42 L434.5,67.42 L436.3,67.42 L438.2,67.42 L440.1,67.42 L441.9,67.42 " fill="none"/></g>
<g clip-path="url(#plot_window)" stroke="rgb(0,100,0)" stroke-width="1"><path d="M70.2,338.2 L72.07,338.2 L73.94,338.2 L75.8,338.2 L77.67,338.2 L79.54,338.2 L81.41,338.1 L83.28,338 L85.14,337.8 L87.01,337.6 L88.88,337.2 L90.75,336.7 L92.62,336.1 L94.48,335.3 L96.35,334.3 L98.22,333.2 L100.1,331.8 L102,330.2 L103.8,328.3 L105.7,326.3 L107.6,323.9 L109.4,321.4 L111.3,318.6 L113.2,315.5 L115,312.2 L116.9,308.7 L118.8,305 L120.6,301.1 L122.5,297 L124.4,292.6 L126.2,288.2 L128.1,283.6 L130,278.8 L131.8,273.9 L133.7,268.9 L135.6,263.9 L137.4,258.7 L139.3,253.5 L141.2,248.3 L143.1,243 L144.9,237.7 L146.8,232.4 L148.7,227.1 L150.5,221.9 L152.4,216.7 L154.3,211.5 L156.1,206.4 L158,201.3 L159.9,196.4 L161.7,191.5 L163.6,186.7 L165.5,182 L167.3,177.4 L169.2,172.9 L171.1,168.5 L172.9,164.2 L174.8,160.1 L176.7,156 L178.5,152.1 L180.4,148.3 L182.3,144.6 L184.2,141 L186,137.6 L187.9,134.3 L189.8,131.1 L191.6,128 L193.5,125 L195.4,122.2 L197.2,119.4 L199.1,116.8 L201,114.3 L202.8,111.8 L204.7,109.5 L206.6,107.3 L208.4,105.2 L210.3,103.2 L212.2,101.2 L214,99.41 L215.9,97.65 L217.8,95.98 L219.6,94.39 L221.5,92.88 L223.4,91.45 L225.2,90.08 L227.1,88.78 L229,87.55 L230.9,86.39 L232.7,85.28 L234.6,84.23 L236.5,83.24 L238.3,82.3 L240.2,81.41 L242.1,80.57 L243.9,79.78 L245.8,79.03 L247.7,78.32 L249.5,77.65 L251.4,77.02 L253.3,76.43 L255.1,75.86 L257,75.34 L258.9,74.84 L260.7,74.37 L262.6,73.93 L264.5,73.52 L266.3,73.13 L268.2,72.76 L270.1,72.42 L271.9,72.09 L273.8,71.79 L275.7,71.51 L277.6,71.24 L279.4,70.99 L281.3,70.75 L283.2,70.53 L285,70.33 L286.9,70.13 L288.8,69.95 L290.6,69.78 L292.5,69.62 L294.4,69.47 L296.2,69.33 L298.1,69.2 L300,69.08 L301.8,68.97 L303.7,68.86 L305.6,68.76 L307.4,68.67 L309.3,68.58 L311.2,68.5 L313,68.43 L314.9,68.36 L316.8,68.29 L318.6,68.23 L320.5,68.17 L322.4,68.12 L324.3,68.07 L326.1,68.03 L328,67.98 L329.9,67.94 L331.7,67.9 L333.6,67.87 L335.5,67.84 L337.3,67.81 L339.2,67.78 L341.1,67.75 L342.9,67.73 L344.8,67.71 L346.7,67.69 L348.5,67.67 L350.4,67.65 L352.3,67.63 L354.1,67.62 L356,67.6 L357.9,67.59 L359.7,67.57 L361.6,67.56 L363.5,67.55 L365.4,67.54 L367.2,67.53 L369.1,67.52 L371,67.52 L372.8,67.51 L374.7,67.5 L376.6,67.5 L378.4,67.49 L380.3,67.48 L382.2,67.48 L384,67.47 L385.9,67.47 L387.8,67.47 L389.6,67.46 L391.5,67.46 L393.4,67.46 L395.2,67.45 L397.1,67.45 L399,67.45 L400.8,67.44 L402.7,67.44 L404.6,67.44 L406.4,67.44 L408.3,67.44 L410.2,67.44 L412.1,67.43 L413.9,67.43 L415.8,67.43 L417.7,67.43 L419.5,67.43 L421.4,67.43 L423.3,67.43 L425.1,67.43 L427,67.43 L428.9,67.42 L430.7,67.42 L432.6,67.42 L434.5,67.42 L436.3,67.42 L438.2,67.42 L440.1,67.42 L441.9,67.42 " fill="none"/></g>
<g clip-path="url(#plot_window)" stroke="rgb(255,140,0)" stroke-width="1"><path d="M70.2,338.2 L72.07,338.2 L73.94,338.2 L75.8,338.2 L77.67,338.2 L79.54,338.2 L81.41,338.2 L83.28,338.2 L85.14,338.2 L87.01,338.2 L88.88,338.2 L90.75,338.2 L92.62,338.2 L94.48,338.2 L96.35,338.2 L98.22,338.2 L100.1,338.2 L102,338.2 L103.8,338.2 L105.7,338.2 L107.6,338.2 L109.4,338.2 L111.3,338.2 L113.2,338.2 L115,338.1 L116.9,338.1 L118.8,338.1 L120.6,338.1 L122.5,338 L124.4,338 L126.2,337.9 L128.1,337.8 L130,337.7 L131.8,337.6 L133.7,337.5 L135.6,337.3 L137.4,337.1 L139.3,336.9 L141.2,336.6 L143.1,336.3 L144.9,336 L146.8,335.6 L148.7,335.2 L150.5,334.7 L152.4,334.2 L154.3,333.6 L156.1,332.9 L158,332.2 L159.9,331.4 L161.7,330.5 L163.6,329.6 L165.5,328.6 L167.3,327.5 L169.2,326.3 L171.1,325 L172.9,323.6 L174.8,322.2 L176.7,320.6 L178.5,319 L180.4,317.3 L182.3,315.5 L184.2,313.6 L186,311.6 L187.9,309.5 L189.8,307.3 L191.6,305 L193.5,302.6 L195.4,300.2 L197.2,297.6 L199.1,295 L201,292.3 L202.8,289.5 L204.7,286.7 L206.6,283.7 L208.4,280.7 L210.3,277.7 L212.2,274.5 L214,271.3 L215.9,268.1 L217.8,264.8 L219.6,261.5 L221.5,258.1 L223.4,254.7 L225.2,251.2 L227.1,247.7 L229,244.2 L230.9,240.7 L232.7,237.2 L234.6,233.6 L236.5,230 L238.3,226.5 L240.2,222.9 L242.1,219.3 L243.9,215.8 L245.8,212.2 L247.7,208.7 L249.5,205.2 L251.4,201.7 L253.3,198.3 L255.1,194.8 L257,191.4 L258.9,188 L260.7,184.7 L262.6,181.4 L264.5,178.2 L266.3,175 L268.2,171.8 L270.1,168.7 L271.9,165.6 L273.8,162.6 L275.7,159.6 L277.6,156.7 L279.4,153.9 L281.3,151 L283.2,148.3 L285,145.6 L286.9,143 L288.8,140.4 L290.6,137.9 L292.5,135.4 L294.4,133.1 L296.2,130.7 L298.1,128.4 L300,126.2 L301.8,124.1 L303.7,122 L305.6,119.9 L307.4,117.9 L309.3,116 L311.2,114.1 L313,112.3 L314.9,110.6 L316.8,108.8 L318.6,107.2 L320.5,105.6 L322.4,104 L324.3,102.5 L326.1,101.1 L328,99.7 L329.9,98.34 L331.7,97.04 L333.6,95.78 L335.5,94.57 L337.3,93.39 L339.2,92.27 L341.1,91.18 L342.9,90.13 L344.8,89.13 L346.7,88.16 L348.5,87.23 L350.4,86.33 L352.3,85.47 L354.1,84.64 L356,83.85 L357.9,83.09 L359.7,82.36 L361.6,81.66 L363.5,80.99 L365.4,80.35 L367.2,79.73 L369.1,79.14 L371,78.58 L372.8,78.04 L374.7,77.52 L376.6,77.02 L378.4,76.55 L380.3,76.1 L382.2,75.67 L384,75.26 L385.9,74.86 L387.8,74.49 L389.6,74.13 L391.5,73.79 L393.4,73.47 L395.2,73.16 L397.1,72.86 L399,72.58 L400.8,72.31 L402.7,72.05 L404.6,71.81 L406.4,71.58 L408.3,71.36 L410.2,71.15 L412.1,70.95 L413.9,70.76 L415.8,70.58 L417.7,70.41 L419.5,70.25 L421.4,70.1 L423.3,69.95 L425.1,69.81 L427,69.68 L428.9,69.56 L430.7,69.44 L432.6,69.33 L434.5,69.22 L436.3,69.12 L438.2,69.03 L440.1,68.93 L441.9,68.85 " fill="none"/></g>
</g>
<g id="plotPoints" clip-path="url(#plot_window)"><g stroke="rgb(0,0,0)"></g>
<g stroke="rgb(0,0,0)"></g>
<g stroke="rgb(0,0,0)"></g>
<g stroke="rgb(0,0,0)"></g>
</g>
<g id="limitPoints" stroke="rgb(119,136,153)" fill="rgb(250,235,215)"></g>
<g id="legendBackground" stroke="rgb(119,136,153)" fill="rgb(255,255,255)" stroke-width="1"><rect x="465.3" y="62" width="122.7" height="126"/><rect x="465.3" y="62" width="122.7" height="126"/></g>
<g id="legendPoints"><g stroke="rgb(0,0,139)" stroke-width="1"><line x1="479.3" y1="90" x2="493.3" y2="90"/></g>
<g stroke="rgb(139,0,0)" stroke-width="1"><line x1="479.3" y1="118" x2="493.3" y2="118"/></g>
<g stroke="rgb(0,100,0)" stroke-width="1"><line x1="479.3" y1="146" x2="493.3" y2="146"/></g>
<g stroke="rgb(255,140,0)" stroke-width="1"><line x1="479.3" y1="174" x2="493.3" y2="174"/></g>
</g>
<g id="legendText">
<text x="500.3" y="90" font-size="14" font-family="Verdana">a = 0.5</text>
<text x="500.3" y="118" font-size="14" font-family="Verdana">a = 1.0</text>
<text x="500.3" y="146" font-size="14" font-family="Verdana">a = 5.0</text>
<text x="500.3" y="174" font-size="14" font-family="Verdana">a = 10.0</text></g>
<g id="title">
<text x="300" y="40" text-anchor="middle" font-size="20" font-family="Verdana">gamma_p</text></g>
</svg>
