<?xml version="1.0" encoding="UTF-8" standalone="no"?>
<svg width="750" height ="400" version="1.1" xmlns="http://www.w3.org/2000/svg"
 xmlns:xlink="http://www.w3.org/1999/xlink"
 xmlns:ev="http://www.w3.org/2001/xml-events">

<!-- SVG plot written using Boost.Plot program (Creator Jacob Voytko) --> 
<!-- Use, modification and distribution of Boost.Plot subject to the --> 
<!-- Boost Software License, Version 1.0.--> 
<!-- (See accompanying file LICENSE_1_0.txt --> 
<!-- or copy at http://www.boost.org/LICENSE_1_0.txt) --> 

<clipPath id="plot_window"><rect x="71.2" y="63" width="501.6" height="274.2"/></clipPath>
<g id="imageBackground" stroke="rgb(119,136,153)" fill="rgb(255,255,255)" stroke-width="2"><rect x="0" y="0" width="750" height="400"/></g>
<g id="plotBackground" stroke="rgb(119,136,153)" fill="rgb(255,255,255)" stroke-width="2"><rect x="70.2" y="62" width="503.6" height="276.2"/></g>
<g id="yMinorGrid" stroke="rgb(200,220,255)" stroke-width="0.5"></g>
<g id="yMajorGrid" stroke="rgb(200,220,255)" stroke-width="1"></g>
<g id="xMinorGrid" stroke="rgb(200,220,255)" stroke-width="0.5"></g>
<g id="xMajorGrid" stroke="rgb(200,220,255)" stroke-width="1"></g>
<g id="yAxis" stroke="rgb(0,0,0)" stroke-width="1"><line x1="70.2" y1="62" x2="70.2" y2="343.2"/><line x1="70.2" y1="62" x2="70.2" y2="338.2"/></g>
<g id="xAxis" stroke="rgb(0,0,0)" stroke-width="1"><line x1="65.2" y1="338.2" x2="573.8" y2="338.2"/><line x1="65.2" y1="338.2" x2="573.8" y2="338.2"/></g>
<g id="yMinorTicks" stroke="rgb(0,0,0)" stroke-width="1"><path d="M68.2,331.4 L70.2,331.4 M68.2,324.5 L70.2,324.5 M68.2,317.7 L70.2,317.7 M68.2,310.9 L70.2,310.9 M68.2,297.2 L70.2,297.2 M68.2,290.4 L70.2,290.4 M68.2,283.6 L70.2,283.6 M68.2,276.8 L70.2,276.8 M68.2,263.1 L70.2,263.1 M68.2,256.3 L70.2,256.3 M68.2,249.5 L70.2,249.5 M68.2,242.6 L70.2,242.6 M68.2,229 L70.2,229 M68.2,222.2 L70.2,222.2 M68.2,215.3 L70.2,215.3 M68.2,208.5 L70.2,208.5 M68.2,194.9 L70.2,194.9 M68.2,188 L70.2,188 M68.2,181.2 L70.2,181.2 M68.2,174.4 L70.2,174.4 M68.2,160.7 L70.2,160.7 M68.2,153.9 L70.2,153.9 M68.2,147.1 L70.2,147.1 M68.2,140.3 L70.2,140.3 M68.2,126.6 L70.2,126.6 M68.2,119.8 L70.2,119.8 M68.2,113 L70.2,113 M68.2,106.1 L70.2,106.1 M68.2,92.49 L70.2,92.49 M68.2,85.66 L70.2,85.66 M68.2,78.84 L70.2,78.84 M68.2,72.01 L70.2,72.01 M68.2,338.2 L70.2,338.2 "/></g>
<g id="xMinorTicks" stroke="rgb(0,0,0)" stroke-width="1"><path d="M114,338.2 L114,340.2 M157.9,338.2 L157.9,340.2 M201.7,338.2 L201.7,340.2 M245.6,338.2 L245.6,340.2 M333.2,338.2 L333.2,340.2 M377.1,338.2 L377.1,340.2 M420.9,338.2 L420.9,340.2 M464.8,338.2 L464.8,340.2 M552.4,338.2 L552.4,340.2 "/></g>
<g id="yMajorTicks" stroke="rgb(0,0,0)" stroke-width="2"><path d="M65.2,338.2 L70.2,338.2 M65.2,304.1 L70.2,304.1 M65.2,269.9 L70.2,269.9 M65.2,235.8 L70.2,235.8 M65.2,201.7 L70.2,201.7 M65.2,167.6 L70.2,167.6 M65.2,133.4 L70.2,133.4 M65.2,99.31 L70.2,99.31 M65.2,65.19 L70.2,65.19 M65.2,338.2 L70.2,338.2 "/></g>
<g id="xMajorTicks" stroke="rgb(0,0,0)" stroke-width="2"><path d="M70.2,338.2 L70.2,343.2 M289.4,338.2 L289.4,343.2 M508.6,338.2 L508.6,343.2 "/></g>
<g id="plotLabels">
<text x="70.2" y="357.6" text-anchor="middle" font-size="12" font-family="Verdana">0</text>
<text x="289.4" y="357.6" text-anchor="middle" font-size="12" font-family="Verdana">5</text>
<text x="508.6" y="357.6" text-anchor="middle" font-size="12" font-family="Verdana">10</text>
<text x="59.2" y="340.6" text-anchor="end" font-size="12" font-family="Verdana">0</text>
<text x="59.2" y="306.5" text-anchor="end" font-size="12" font-family="Verdana">0.1</text>
<text x="59.2" y="272.3" text-anchor="end" font-size="12" font-family="Verdana">0.2</text>
<text x="59.2" y="238.2" text-anchor="end" font-size="12" font-family="Verdana">0.3</text>
<text x="59.2" y="204.1" text-anchor="end" font-size="12" font-family="Verdana">0.4</text>
<text x="59.2" y="170" text-anchor="end" font-size="12" font-family="Verdana">0.5</text>
<text x="59.2" y="135.8" text-anchor="end" font-size="12" font-family="Verdana">0.6</text>
<text x="59.2" y="101.7" text-anchor="end" font-size="12" font-family="Verdana">0.7</text>
<text x="59.2" y="67.59" text-anchor="end" font-size="12" font-family="Verdana">0.8</text>
<text x="59.2" y="340.6" text-anchor="end" font-size="12" font-family="Verdana">0</text></g>
<g id="yLabel">
<text x="30.2" y="200.1" text-anchor="middle" transform = "rotate(-90 30.2 200.1 )" font-size="14" font-family="Verdana">Probability</text></g>
<g id="xLabel">
<text x="322" y="384" text-anchor="middle" font-size="14" font-family="Verdana">Random Variable</text></g>
<g id="plotLines" stroke-width="2"><g clip-path="url(#plot_window)" stroke="rgb(0,0,139)" stroke-width="1"><path d="M70.2,338.2 L72.72,268.3 L75.24,213.6 L77.75,171.6 L80.27,140.1 L82.79,117.5 L85.31,102.1 L87.82,92.61 L90.34,87.98 L92.86,87.25 L95.38,89.62 L97.9,94.44 L100.4,101.1 L102.9,109.2 L105.4,118.4 L108,128.2 L110.5,138.5 L113,149.1 L115.5,159.7 L118,170.2 L120.6,180.6 L123.1,190.6 L125.6,200.4 L128.1,209.8 L130.6,218.7 L133.1,227.2 L135.7,235.3 L138.2,243 L140.7,250.2 L143.2,256.9 L145.7,263.2 L148.3,269.1 L150.8,274.6 L153.3,279.8 L155.8,284.5 L158.3,288.9 L160.8,293 L163.4,296.8 L165.9,300.3 L168.4,303.5 L170.9,306.5 L173.4,309.2 L175.9,311.8 L178.5,314.1 L181,316.2 L183.5,318.1 L186,319.9 L188.5,321.5 L191.1,323 L193.6,324.4 L196.1,325.6 L198.6,326.8 L201.1,327.8 L203.6,328.8 L206.2,329.6 L208.7,330.4 L211.2,331.1 L213.7,331.8 L216.2,332.4 L218.8,332.9 L221.3,333.4 L223.8,333.9 L226.3,334.3 L228.8,334.6 L231.3,335 L233.9,335.3 L236.4,335.6 L238.9,335.8 L241.4,336 L243.9,336.2 L246.4,336.4 L249,336.6 L251.5,336.8 L254,336.9 L256.5,337 L259,337.1 L261.6,337.2 L264.1,337.3 L266.6,337.4 L269.1,337.5 L271.6,337.6 L274.1,337.6 L276.7,337.7 L279.2,337.7 L281.7,337.8 L284.2,337.8 L286.7,337.9 L289.2,337.9 L291.8,337.9 L294.3,337.9 L296.8,338 L299.3,338 L301.8,338 L304.4,338 L306.9,338 L309.4,338.1 L311.9,338.1 L314.4,338.1 L316.9,338.1 L319.5,338.1 L322,338.1 L324.5,338.1 L327,338.1 L329.5,338.1 L332.1,338.1 L334.6,338.2 L337.1,338.2 L339.6,338.2 L342.1,338.2 L344.6,338.2 L347.2,338.2 L349.7,338.2 L352.2,338.2 L354.7,338.2 L357.2,338.2 L359.7,338.2 L362.3,338.2 L364.8,338.2 L367.3,338.2 L369.8,338.2 L372.3,338.2 L374.9,338.2 L377.4,338.2 L379.9,338.2 L382.4,338.2 L384.9,338.2 L387.4,338.2 L390,338.2 L392.5,338.2 L395,338.2 L397.5,338.2 L400,338.2 L402.5,338.2 L405.1,338.2 L407.6,338.2 L410.1,338.2 L412.6,338.2 L415.1,338.2 L417.7,338.2 L420.2,338.2 L422.7,338.2 L425.2,338.2 L427.7,338.2 L430.2,338.2 L432.8,338.2 L435.3,338.2 L437.8,338.2 L440.3,338.2 L442.8,338.2 L445.4,338.2 L447.9,338.2 L450.4,338.2 L452.9,338.2 L455.4,338.2 L457.9,338.2 L460.5,338.2 L463,338.2 L465.5,338.2 L468,338.2 L470.5,338.2 L473,338.2 L475.6,338.2 L478.1,338.2 L480.6,338.2 L483.1,338.2 L485.6,338.2 L488.2,338.2 L490.7,338.2 L493.2,338.2 L495.7,338.2 L498.2,338.2 L500.7,338.2 L503.3,338.2 L505.8,338.2 L508.3,338.2 L510.8,338.2 L513.3,338.2 L515.9,338.2 L518.4,338.2 L520.9,338.2 L523.4,338.2 L525.9,338.2 L528.4,338.2 L531,338.2 L533.5,338.2 L536,338.2 L538.5,338.2 L541,338.2 L543.5,338.2 L546.1,338.2 L548.6,338.2 L551.1,338.2 L553.6,338.2 L556.1,338.2 L558.7,338.2 L561.2,338.2 L563.7,338.2 L566.2,338.2 L568.7,338.2 L571.2,338.2 L573.8,338.2 " fill="none"/></g>
<g clip-path="url(#plot_window)" stroke="rgb(139,0,0)" stroke-width="1"><path d="M70.2,338.2 L72.72,319.7 L75.24,303.3 L77.75,288.7 L80.27,275.9 L82.79,264.7 L85.31,254.9 L87.82,246.4 L90.34,239.2 L92.86,233 L95.38,227.8 L97.9,223.6 L100.4,220.1 L102.9,217.4 L105.4,215.4 L108,214 L110.5,213.1 L113,212.7 L115.5,212.7 L118,213.1 L120.6,213.9 L123.1,215 L125.6,216.3 L128.1,217.9 L130.6,219.7 L133.1,221.6 L135.7,223.7 L138.2,226 L140.7,228.3 L143.2,230.7 L145.7,233.2 L148.3,235.8 L150.8,238.4 L153.3,241 L155.8,243.6 L158.3,246.3 L160.8,248.9 L163.4,251.6 L165.9,254.2 L168.4,256.8 L170.9,259.4 L173.4,261.9 L175.9,264.4 L178.5,266.9 L181,269.3 L183.5,271.7 L186,274 L188.5,276.2 L191.1,278.5 L193.6,280.6 L196.1,282.7 L198.6,284.8 L201.1,286.8 L203.6,288.7 L206.2,290.6 L208.7,292.4 L211.2,294.2 L213.7,295.9 L216.2,297.6 L218.8,299.2 L221.3,300.7 L223.8,302.2 L226.3,303.7 L228.8,305.1 L231.3,306.4 L233.9,307.7 L236.4,309 L238.9,310.2 L241.4,311.4 L243.9,312.5 L246.4,313.6 L249,314.6 L251.5,315.6 L254,316.6 L256.5,317.5 L259,318.4 L261.6,319.3 L264.1,320.1 L266.6,320.9 L269.1,321.6 L271.6,322.4 L274.1,323 L276.7,323.7 L279.2,324.4 L281.7,325 L284.2,325.6 L286.7,326.1 L289.2,326.7 L291.8,327.2 L294.3,327.7 L296.8,328.2 L299.3,328.6 L301.8,329.1 L304.4,329.5 L306.9,329.9 L309.4,330.2 L311.9,330.6 L314.4,331 L316.9,331.3 L319.5,331.6 L322,331.9 L324.5,332.2 L327,332.5 L329.5,332.8 L332.1,333 L334.6,333.3 L337.1,333.5 L339.6,333.7 L342.1,333.9 L344.6,334.1 L347.2,334.3 L349.7,334.5 L352.2,334.7 L354.7,334.8 L357.2,335 L359.7,335.1 L362.3,335.3 L364.8,335.4 L367.3,335.6 L369.8,335.7 L372.3,335.8 L374.9,335.9 L377.4,336 L379.9,336.1 L382.4,336.2 L384.9,336.3 L387.4,336.4 L390,336.5 L392.5,336.6 L395,336.7 L397.5,336.7 L400,336.8 L402.5,336.9 L405.1,336.9 L407.6,337 L410.1,337.1 L412.6,337.1 L415.1,337.2 L417.7,337.2 L420.2,337.3 L422.7,337.3 L425.2,337.4 L427.7,337.4 L430.2,337.4 L432.8,337.5 L435.3,337.5 L437.8,337.5 L440.3,337.6 L442.8,337.6 L445.4,337.6 L447.9,337.7 L450.4,337.7 L452.9,337.7 L455.4,337.7 L457.9,337.8 L460.5,337.8 L463,337.8 L465.5,337.8 L468,337.8 L470.5,337.9 L473,337.9 L475.6,337.9 L478.1,337.9 L480.6,337.9 L483.1,337.9 L485.6,338 L488.2,338 L490.7,338 L493.2,338 L495.7,338 L498.2,338 L500.7,338 L503.3,338 L505.8,338 L508.3,338 L510.8,338.1 L513.3,338.1 L515.9,338.1 L518.4,338.1 L520.9,338.1 L523.4,338.1 L525.9,338.1 L528.4,338.1 L531,338.1 L533.5,338.1 L536,338.1 L538.5,338.1 L541,338.1 L543.5,338.1 L546.1,338.1 L548.6,338.1 L551.1,338.1 L553.6,338.1 L556.1,338.1 L558.7,338.1 L561.2,338.1 L563.7,338.2 L566.2,338.2 L568.7,338.2 L571.2,338.2 L573.8,338.2 " fill="none"/></g>
<g clip-path="url(#plot_window)" stroke="rgb(0,100,0)" stroke-width="1"><path d="M70.2,338.2 L72.72,333.4 L75.24,328.9 L77.75,324.7 L80.27,320.7 L82.79,317 L85.31,313.5 L87.82,310.1 L90.34,307 L92.86,304.1 L95.38,301.4 L97.9,298.9 L100.4,296.5 L102.9,294.3 L105.4,292.3 L108,290.4 L110.5,288.7 L113,287.1 L115.5,285.6 L118,284.3 L120.6,283 L123.1,281.9 L125.6,280.9 L128.1,280 L130.6,279.2 L133.1,278.4 L135.7,277.8 L138.2,277.3 L140.7,276.8 L143.2,276.4 L145.7,276.1 L148.3,275.8 L150.8,275.6 L153.3,275.5 L155.8,275.4 L158.3,275.4 L160.8,275.5 L163.4,275.5 L165.9,275.7 L168.4,275.8 L170.9,276.1 L173.4,276.3 L175.9,276.6 L178.5,276.9 L181,277.3 L183.5,277.6 L186,278 L188.5,278.5 L191.1,278.9 L193.6,279.4 L196.1,279.9 L198.6,280.4 L201.1,281 L203.6,281.5 L206.2,282.1 L208.7,282.7 L211.2,283.2 L213.7,283.8 L216.2,284.5 L218.8,285.1 L221.3,285.7 L223.8,286.3 L226.3,287 L228.8,287.6 L231.3,288.3 L233.9,288.9 L236.4,289.6 L238.9,290.3 L241.4,290.9 L243.9,291.6 L246.4,292.2 L249,292.9 L251.5,293.6 L254,294.2 L256.5,294.9 L259,295.6 L261.6,296.2 L264.1,296.9 L266.6,297.5 L269.1,298.2 L271.6,298.8 L274.1,299.4 L276.7,300.1 L279.2,300.7 L281.7,301.3 L284.2,301.9 L286.7,302.5 L289.2,303.1 L291.8,303.7 L294.3,304.3 L296.8,304.9 L299.3,305.5 L301.8,306.1 L304.4,306.7 L306.9,307.2 L309.4,307.8 L311.9,308.3 L314.4,308.9 L316.9,309.4 L319.5,309.9 L322,310.5 L324.5,311 L327,311.5 L329.5,312 L332.1,312.5 L334.6,313 L337.1,313.5 L339.6,313.9 L342.1,314.4 L344.6,314.9 L347.2,315.3 L349.7,315.7 L352.2,316.2 L354.7,316.6 L357.2,317 L359.7,317.5 L362.3,317.9 L364.8,318.3 L367.3,318.7 L369.8,319.1 L372.3,319.5 L374.9,319.8 L377.4,320.2 L379.9,320.6 L382.4,320.9 L384.9,321.3 L387.4,321.6 L390,322 L392.5,322.3 L395,322.6 L397.5,323 L400,323.3 L402.5,323.6 L405.1,323.9 L407.6,324.2 L410.1,324.5 L412.6,324.8 L415.1,325.1 L417.7,325.3 L420.2,325.6 L422.7,325.9 L425.2,326.1 L427.7,326.4 L430.2,326.7 L432.8,326.9 L435.3,327.2 L437.8,327.4 L440.3,327.6 L442.8,327.9 L445.4,328.1 L447.9,328.3 L450.4,328.5 L452.9,328.7 L455.4,328.9 L457.9,329.1 L460.5,329.3 L463,329.5 L465.5,329.7 L468,329.9 L470.5,330.1 L473,330.3 L475.6,330.5 L478.1,330.6 L480.6,330.8 L483.1,331 L485.6,331.1 L488.2,331.3 L490.7,331.4 L493.2,331.6 L495.7,331.7 L498.2,331.9 L500.7,332 L503.3,332.2 L505.8,332.3 L508.3,332.4 L510.8,332.6 L513.3,332.7 L515.9,332.8 L518.4,332.9 L520.9,333.1 L523.4,333.2 L525.9,333.3 L528.4,333.4 L531,333.5 L533.5,333.6 L536,333.7 L538.5,333.8 L541,333.9 L543.5,334 L546.1,334.1 L548.6,334.2 L551.1,334.3 L553.6,334.4 L556.1,334.5 L558.7,334.6 L561.2,334.7 L563.7,334.7 L566.2,334.8 L568.7,334.9 L571.2,335 L573.8,335.1 " fill="none"/></g>
</g>
<g id="plotPoints" clip-path="url(#plot_window)"><g stroke="rgb(0,0,0)"></g>
<g stroke="rgb(0,0,0)"></g>
<g stroke="rgb(0,0,0)"></g>
</g>
<g id="limitPoints" stroke="rgb(119,136,153)" fill="rgb(250,235,215)"></g>
<g id="legendBackground" stroke="rgb(119,136,153)" fill="rgb(255,255,255)" stroke-width="1"><rect x="587.8" y="62" width="150.2" height="105"/><rect x="587.8" y="62" width="150.2" height="105"/></g>
<g id="legendPoints"><g stroke="rgb(0,0,139)" stroke-width="1"><line x1="602.8" y1="92" x2="617.8" y2="92"/></g>
<g stroke="rgb(139,0,0)" stroke-width="1"><line x1="602.8" y1="122" x2="617.8" y2="122"/></g>
<g stroke="rgb(0,100,0)" stroke-width="1"><line x1="602.8" y1="152" x2="617.8" y2="152"/></g>
</g>
<g id="legendText">
<text x="625.3" y="92" font-size="15" font-family="Verdana">scale = 2</text>
<text x="625.3" y="122" font-size="15" font-family="Verdana">scale = 0.5</text>
<text x="625.3" y="152" font-size="15" font-family="Verdana">scale = 2</text></g>
<g id="title">
<text x="375" y="40" text-anchor="middle" font-size="20" font-family="Verdana">Gamma Distribution PDF With Shape = 2</text></g>
</svg>
