<?xml version="1.0" encoding="UTF-8" standalone="no"?>
<svg width="600" height ="400" version="1.1" xmlns="http://www.w3.org/2000/svg"
 xmlns:xlink="http://www.w3.org/1999/xlink"
 xmlns:ev="http://www.w3.org/2001/xml-events">

<!-- SVG plot written using Boost.Plot program (Creator Jacob Voytko) --> 
<!-- Use, modification and distribution of Boost.Plot subject to the --> 
<!-- Boost Software License, Version 1.0.--> 
<!-- (See accompanying file LICENSE_1_0.txt --> 
<!-- or copy at http://www.boost.org/LICENSE_1_0.txt) --> 

<!-- SVG Plot Copyright John Maddock 2008 --> 
<meta name="copyright" content="John Maddock" />
<meta name="date" content="2008" />
<!-- Use, modification and distribution of this Scalable Vector Graphic file -->
<!-- are subject to the Boost Software License, Version 1.0. -->
<!-- (See accompanying file LICENSE_1_0.txt or copy at http://www.boost.org/LICENSE_1_0.txt) -->

<clipPath id="plot_window"><rect x="71.2" y="63" width="402.6" height="274.2"/></clipPath>
<g id="imageBackground" stroke="rgb(119,136,153)" fill="rgb(255,255,255)" stroke-width="2"><rect x="0" y="0" width="600" height="400"/></g>
<g id="plotBackground" stroke="rgb(119,136,153)" fill="rgb(255,255,255)" stroke-width="2"><rect x="70.2" y="62" width="404.6" height="276.2"/></g>
<g id="yMinorGrid" stroke="rgb(200,220,255)" stroke-width="0.5"></g>
<g id="yMajorGrid" stroke="rgb(200,220,255)" stroke-width="1"></g>
<g id="xMinorGrid" stroke="rgb(200,220,255)" stroke-width="0.5"></g>
<g id="xMajorGrid" stroke="rgb(200,220,255)" stroke-width="1"></g>
<g id="yAxis" stroke="rgb(0,0,0)" stroke-width="1"><line x1="268.5" y1="62" x2="268.5" y2="343.2"/><line x1="70.2" y1="62" x2="70.2" y2="338.2"/></g>
<g id="xAxis" stroke="rgb(0,0,0)" stroke-width="1"><line x1="65.2" y1="201.1" x2="474.8" y2="201.1"/><line x1="65.2" y1="338.2" x2="474.8" y2="338.2"/></g>
<g id="yMinorTicks" stroke="rgb(0,0,0)" stroke-width="1"><path d="M68.2,187.5 L70.2,187.5 M68.2,173.8 L70.2,173.8 M68.2,160.1 L70.2,160.1 M68.2,132.7 L70.2,132.7 M68.2,119.1 L70.2,119.1 M68.2,105.4 L70.2,105.4 M68.2,78.04 L70.2,78.04 M68.2,64.36 L70.2,64.36 M68.2,201.1 L70.2,201.1 M68.2,214.8 L70.2,214.8 M68.2,228.5 L70.2,228.5 M68.2,242.2 L70.2,242.2 M68.2,255.8 L70.2,255.8 M68.2,269.5 L70.2,269.5 M68.2,283.2 L70.2,283.2 M68.2,296.9 L70.2,296.9 M68.2,310.5 L70.2,310.5 M68.2,324.2 L70.2,324.2 M68.2,337.9 L70.2,337.9 "/></g>
<g id="xMinorTicks" stroke="rgb(0,0,0)" stroke-width="1"><path d="M296.1,338.2 L296.1,340.2 M323.6,338.2 L323.6,340.2 M351.2,338.2 L351.2,340.2 M406.3,338.2 L406.3,340.2 M433.8,338.2 L433.8,340.2 M461.4,338.2 L461.4,340.2 M241,338.2 L241,340.2 M213.4,338.2 L213.4,340.2 M185.9,338.2 L185.9,340.2 M130.8,338.2 L130.8,340.2 M103.3,338.2 L103.3,340.2 M75.71,338.2 L75.71,340.2 "/></g>
<g id="yMajorTicks" stroke="rgb(0,0,0)" stroke-width="2"><path d="M65.2,201.1 L70.2,201.1 M65.2,146.4 L70.2,146.4 M65.2,91.71 L70.2,91.71 M65.2,201.1 L70.2,201.1 M65.2,255.8 L70.2,255.8 M65.2,310.5 L70.2,310.5 "/></g>
<g id="xMajorTicks" stroke="rgb(0,0,0)" stroke-width="2"><path d="M268.5,338.2 L268.5,343.2 M378.7,338.2 L378.7,343.2 M268.5,338.2 L268.5,343.2 M158.3,338.2 L158.3,343.2 "/></g>
<g id="plotLabels">
<text x="268.5" y="357.6" text-anchor="middle" font-size="12" font-family="Verdana">0</text>
<text x="378.7" y="357.6" text-anchor="middle" font-size="12" font-family="Verdana">1</text>
<text x="268.5" y="357.6" text-anchor="middle" font-size="12" font-family="Verdana">0</text>
<text x="158.3" y="357.6" text-anchor="middle" font-size="12" font-family="Verdana">-1</text>
<text x="59.2" y="203.5" text-anchor="end" font-size="12" font-family="Verdana">0</text>
<text x="59.2" y="148.8" text-anchor="end" font-size="12" font-family="Verdana">10</text>
<text x="59.2" y="94.11" text-anchor="end" font-size="12" font-family="Verdana">20</text>
<text x="59.2" y="203.5" text-anchor="end" font-size="12" font-family="Verdana">0</text>
<text x="59.2" y="258.2" text-anchor="end" font-size="12" font-family="Verdana">-10</text>
<text x="59.2" y="312.9" text-anchor="end" font-size="12" font-family="Verdana">-20</text></g>
<g id="yLabel">
<text x="30.2" y="200.1" text-anchor="middle" transform = "rotate(-90 30.2 200.1 )" font-size="14" font-family="Verdana">hermite(n, x)</text></g>
<g id="xLabel">
<text x="272.5" y="384" text-anchor="middle" font-size="14" font-family="Verdana">x</text></g>
<g id="plotLines" stroke-width="2"><g clip-path="url(#plot_window)" stroke="rgb(0,0,139)" stroke-width="1"><path d="M70.2,195.7 L72.18,195.7 L74.17,195.7 L76.15,195.7 L78.13,195.7 L80.12,195.7 L82.1,195.7 L84.08,195.7 L86.07,195.7 L88.05,195.7 L90.03,195.7 L92.02,195.7 L94,195.7 L95.98,195.7 L97.97,195.7 L99.95,195.7 L101.9,195.7 L103.9,195.7 L105.9,195.7 L107.9,195.7 L109.9,195.7 L111.9,195.7 L113.8,195.7 L115.8,195.7 L117.8,195.7 L119.8,195.7 L121.8,195.7 L123.8,195.7 L125.7,195.7 L127.7,195.7 L129.7,195.7 L131.7,195.7 L133.7,195.7 L135.7,195.7 L137.6,195.7 L139.6,195.7 L141.6,195.7 L143.6,195.7 L145.6,195.7 L147.6,195.7 L149.5,195.7 L151.5,195.7 L153.5,195.7 L155.5,195.7 L157.5,195.7 L159.5,195.7 L161.4,195.7 L163.4,195.7 L165.4,195.7 L167.4,195.7 L169.4,195.7 L171.4,195.7 L173.3,195.7 L175.3,195.7 L177.3,195.7 L179.3,195.7 L181.3,195.7 L183.3,195.7 L185.2,195.7 L187.2,195.7 L189.2,195.7 L191.2,195.7 L193.2,195.7 L195.2,195.7 L197.1,195.7 L199.1,195.7 L201.1,195.7 L203.1,195.7 L205.1,195.7 L207.1,195.7 L209,195.7 L211,195.7 L213,195.7 L215,195.7 L217,195.7 L219,195.7 L220.9,195.7 L222.9,195.7 L224.9,195.7 L226.9,195.7 L228.9,195.7 L230.9,195.7 L232.8,195.7 L234.8,195.7 L236.8,195.7 L238.8,195.7 L240.8,195.7 L242.8,195.7 L244.7,195.7 L246.7,195.7 L248.7,195.7 L250.7,195.7 L252.7,195.7 L254.7,195.7 L256.6,195.7 L258.6,195.7 L260.6,195.7 L262.6,195.7 L264.6,195.7 L266.6,195.7 L268.5,195.7 L270.5,195.7 L272.5,195.7 L274.5,195.7 L276.5,195.7 L278.5,195.7 L280.4,195.7 L282.4,195.7 L284.4,195.7 L286.4,195.7 L288.4,195.7 L290.4,195.7 L292.3,195.7 L294.3,195.7 L296.3,195.7 L298.3,195.7 L300.3,195.7 L302.3,195.7 L304.2,195.7 L306.2,195.7 L308.2,195.7 L310.2,195.7 L312.2,195.7 L314.2,195.7 L316.1,195.7 L318.1,195.7 L320.1,195.7 L322.1,195.7 L324.1,195.7 L326.1,195.7 L328,195.7 L330,195.7 L332,195.7 L334,195.7 L336,195.7 L338,195.7 L339.9,195.7 L341.9,195.7 L343.9,195.7 L345.9,195.7 L347.9,195.7 L349.9,195.7 L351.8,195.7 L353.8,195.7 L355.8,195.7 L357.8,195.7 L359.8,195.7 L361.8,195.7 L363.7,195.7 L365.7,195.7 L367.7,195.7 L369.7,195.7 L371.7,195.7 L373.7,195.7 L375.6,195.7 L377.6,195.7 L379.6,195.7 L381.6,195.7 L383.6,195.7 L385.6,195.7 L387.5,195.7 L389.5,195.7 L391.5,195.7 L393.5,195.7 L395.5,195.7 L397.5,195.7 L399.4,195.7 L401.4,195.7 L403.4,195.7 L405.4,195.7 L407.4,195.7 L409.4,195.7 L411.3,195.7 L413.3,195.7 L415.3,195.7 L417.3,195.7 L419.3,195.7 L421.3,195.7 L423.2,195.7 L425.2,195.7 L427.2,195.7 L429.2,195.7 L431.2,195.7 L433.2,195.7 L435.1,195.7 L437.1,195.7 L439.1,195.7 L441.1,195.7 L443.1,195.7 L445.1,195.7 L447,195.7 L449,195.7 L451,195.7 L453,195.7 L455,195.7 L457,195.7 L458.9,195.7 L460.9,195.7 L462.9,195.7 L464.9,195.7 " fill="none"/></g>
<g clip-path="url(#plot_window)" stroke="rgb(139,0,0)" stroke-width="1"><path d="M70.2,220.8 L72.18,220.6 L74.17,220.4 L76.15,220.2 L78.13,220 L80.12,219.8 L82.1,219.6 L84.08,219.4 L86.07,219.2 L88.05,219 L90.03,218.9 L92.02,218.7 L94,218.5 L95.98,218.3 L97.97,218.1 L99.95,217.9 L101.9,217.7 L103.9,217.5 L105.9,217.3 L107.9,217.1 L109.9,216.9 L111.9,216.7 L113.8,216.5 L115.8,216.3 L117.8,216.1 L119.8,215.9 L121.8,215.7 L123.8,215.5 L125.7,215.3 L127.7,215.1 L129.7,214.9 L131.7,214.7 L133.7,214.5 L135.7,214.3 L137.6,214.1 L139.6,213.9 L141.6,213.7 L143.6,213.5 L145.6,213.3 L147.6,213.1 L149.5,212.9 L151.5,212.7 L153.5,212.5 L155.5,212.4 L157.5,212.2 L159.5,212 L161.4,211.8 L163.4,211.6 L165.4,211.4 L167.4,211.2 L169.4,211 L171.4,210.8 L173.3,210.6 L175.3,210.4 L177.3,210.2 L179.3,210 L181.3,209.8 L183.3,209.6 L185.2,209.4 L187.2,209.2 L189.2,209 L191.2,208.8 L193.2,208.6 L195.2,208.4 L197.1,208.2 L199.1,208 L201.1,207.8 L203.1,207.6 L205.1,207.4 L207.1,207.2 L209,207 L211,206.8 L213,206.6 L215,206.4 L217,206.2 L219,206.1 L220.9,205.9 L222.9,205.7 L224.9,205.5 L226.9,205.3 L228.9,205.1 L230.9,204.9 L232.8,204.7 L234.8,204.5 L236.8,204.3 L238.8,204.1 L240.8,203.9 L242.8,203.7 L244.7,203.5 L246.7,203.3 L248.7,203.1 L250.7,202.9 L252.7,202.7 L254.7,202.5 L256.6,202.3 L258.6,202.1 L260.6,201.9 L262.6,201.7 L264.6,201.5 L266.6,201.3 L268.5,201.1 L270.5,200.9 L272.5,200.7 L274.5,200.5 L276.5,200.3 L278.5,200.1 L280.4,199.9 L282.4,199.7 L284.4,199.6 L286.4,199.4 L288.4,199.2 L290.4,199 L292.3,198.8 L294.3,198.6 L296.3,198.4 L298.3,198.2 L300.3,198 L302.3,197.8 L304.2,197.6 L306.2,197.4 L308.2,197.2 L310.2,197 L312.2,196.8 L314.2,196.6 L316.1,196.4 L318.1,196.2 L320.1,196 L322.1,195.8 L324.1,195.6 L326.1,195.4 L328,195.2 L330,195 L332,194.8 L334,194.6 L336,194.4 L338,194.2 L339.9,194 L341.9,193.8 L343.9,193.6 L345.9,193.4 L347.9,193.2 L349.9,193.1 L351.8,192.9 L353.8,192.7 L355.8,192.5 L357.8,192.3 L359.8,192.1 L361.8,191.9 L363.7,191.7 L365.7,191.5 L367.7,191.3 L369.7,191.1 L371.7,190.9 L373.7,190.7 L375.6,190.5 L377.6,190.3 L379.6,190.1 L381.6,189.9 L383.6,189.7 L385.6,189.5 L387.5,189.3 L389.5,189.1 L391.5,188.9 L393.5,188.7 L395.5,188.5 L397.5,188.3 L399.4,188.1 L401.4,187.9 L403.4,187.7 L405.4,187.5 L407.4,187.3 L409.4,187.1 L411.3,186.9 L413.3,186.8 L415.3,186.6 L417.3,186.4 L419.3,186.2 L421.3,186 L423.2,185.8 L425.2,185.6 L427.2,185.4 L429.2,185.2 L431.2,185 L433.2,184.8 L435.1,184.6 L437.1,184.4 L439.1,184.2 L441.1,184 L443.1,183.8 L445.1,183.6 L447,183.4 L449,183.2 L451,183 L453,182.8 L455,182.6 L457,182.4 L458.9,182.2 L460.9,182 L462.9,181.8 L464.9,181.6 " fill="none"/></g>
<g clip-path="url(#plot_window)" stroke="rgb(0,100,0)" stroke-width="1"><path d="M70.2,141.2 L72.18,142.6 L74.17,144 L76.15,145.4 L78.13,146.7 L80.12,148.1 L82.1,149.4 L84.08,150.7 L86.07,152.1 L88.05,153.4 L90.03,154.6 L92.02,155.9 L94,157.2 L95.98,158.4 L97.97,159.6 L99.95,160.8 L101.9,162 L103.9,163.2 L105.9,164.4 L107.9,165.6 L109.9,166.7 L111.9,167.8 L113.8,168.9 L115.8,170 L117.8,171.1 L119.8,172.2 L121.8,173.2 L123.8,174.3 L125.7,175.3 L127.7,176.3 L129.7,177.3 L131.7,178.3 L133.7,179.3 L135.7,180.2 L137.6,181.2 L139.6,182.1 L141.6,183 L143.6,183.9 L145.6,184.8 L147.6,185.7 L149.5,186.5 L151.5,187.4 L153.5,188.2 L155.5,189 L157.5,189.8 L159.5,190.6 L161.4,191.4 L163.4,192.2 L165.4,192.9 L167.4,193.6 L169.4,194.3 L171.4,195 L173.3,195.7 L175.3,196.4 L177.3,197.1 L179.3,197.7 L181.3,198.3 L183.3,199 L185.2,199.6 L187.2,200.2 L189.2,200.7 L191.2,201.3 L193.2,201.8 L195.2,202.4 L197.1,202.9 L199.1,203.4 L201.1,203.9 L203.1,204.3 L205.1,204.8 L207.1,205.3 L209,205.7 L211,206.1 L213,206.5 L215,206.9 L217,207.3 L219,207.6 L220.9,208 L222.9,208.3 L224.9,208.6 L226.9,208.9 L228.9,209.2 L230.9,209.5 L232.8,209.8 L234.8,210 L236.8,210.3 L238.8,210.5 L240.8,210.7 L242.8,210.9 L244.7,211 L246.7,211.2 L248.7,211.4 L250.7,211.5 L252.7,211.6 L254.7,211.7 L256.6,211.8 L258.6,211.9 L260.6,212 L262.6,212 L264.6,212 L266.6,212.1 L268.5,212.1 L270.5,212.1 L272.5,212 L274.5,212 L276.5,212 L278.5,211.9 L280.4,211.8 L282.4,211.7 L284.4,211.6 L286.4,211.5 L288.4,211.4 L290.4,211.2 L292.3,211 L294.3,210.9 L296.3,210.7 L298.3,210.5 L300.3,210.3 L302.3,210 L304.2,209.8 L306.2,209.5 L308.2,209.2 L310.2,208.9 L312.2,208.6 L314.2,208.3 L316.1,208 L318.1,207.6 L320.1,207.3 L322.1,206.9 L324.1,206.5 L326.1,206.1 L328,205.7 L330,205.3 L332,204.8 L334,204.3 L336,203.9 L338,203.4 L339.9,202.9 L341.9,202.4 L343.9,201.8 L345.9,201.3 L347.9,200.7 L349.9,200.2 L351.8,199.6 L353.8,199 L355.8,198.3 L357.8,197.7 L359.8,197.1 L361.8,196.4 L363.7,195.7 L365.7,195 L367.7,194.3 L369.7,193.6 L371.7,192.9 L373.7,192.2 L375.6,191.4 L377.6,190.6 L379.6,189.8 L381.6,189 L383.6,188.2 L385.6,187.4 L387.5,186.5 L389.5,185.7 L391.5,184.8 L393.5,183.9 L395.5,183 L397.5,182.1 L399.4,181.2 L401.4,180.2 L403.4,179.3 L405.4,178.3 L407.4,177.3 L409.4,176.3 L411.3,175.3 L413.3,174.3 L415.3,173.2 L417.3,172.2 L419.3,171.1 L421.3,170 L423.2,168.9 L425.2,167.8 L427.2,166.7 L429.2,165.6 L431.2,164.4 L433.2,163.2 L435.1,162 L437.1,160.8 L439.1,159.6 L441.1,158.4 L443.1,157.2 L445.1,155.9 L447,154.6 L449,153.4 L451,152.1 L453,150.7 L455,149.4 L457,148.1 L458.9,146.7 L460.9,145.4 L462.9,144 L464.9,142.6 " fill="none"/></g>
<g clip-path="url(#plot_window)" stroke="rgb(255,140,0)" stroke-width="1"><path d="M70.2,338.2 L72.18,331.8 L74.17,325.6 L76.15,319.5 L78.13,313.5 L80.12,307.7 L82.1,302 L84.08,296.5 L86.07,291.2 L88.05,285.9 L90.03,280.8 L92.02,275.9 L94,271.1 L95.98,266.4 L97.97,261.9 L99.95,257.4 L101.9,253.1 L103.9,249 L105.9,245 L107.9,241.1 L109.9,237.3 L111.9,233.6 L113.8,230.1 L115.8,226.7 L117.8,223.4 L119.8,220.2 L121.8,217.1 L123.8,214.2 L125.7,211.3 L127.7,208.6 L129.7,206 L131.7,203.4 L133.7,201 L135.7,198.7 L137.6,196.5 L139.6,194.4 L141.6,192.4 L143.6,190.5 L145.6,188.7 L147.6,187 L149.5,185.4 L151.5,183.8 L153.5,182.4 L155.5,181 L157.5,179.8 L159.5,178.6 L161.4,177.5 L163.4,176.5 L165.4,175.6 L167.4,174.7 L169.4,173.9 L171.4,173.3 L173.3,172.6 L175.3,172.1 L177.3,171.6 L179.3,171.2 L181.3,170.9 L183.3,170.6 L185.2,170.4 L187.2,170.3 L189.2,170.2 L191.2,170.2 L193.2,170.2 L195.2,170.3 L197.1,170.5 L199.1,170.7 L201.1,171 L203.1,171.3 L205.1,171.7 L207.1,172.1 L209,172.6 L211,173.1 L213,173.6 L215,174.2 L217,174.9 L219,175.6 L220.9,176.3 L222.9,177.1 L224.9,177.8 L226.9,178.7 L228.9,179.5 L230.9,180.4 L232.8,181.3 L234.8,182.3 L236.8,183.3 L238.8,184.3 L240.8,185.3 L242.8,186.3 L244.7,187.4 L246.7,188.5 L248.7,189.6 L250.7,190.7 L252.7,191.8 L254.7,192.9 L256.6,194.1 L258.6,195.3 L260.6,196.4 L262.6,197.6 L264.6,198.8 L266.6,199.9 L268.5,201.1 L270.5,202.3 L272.5,203.5 L274.5,204.7 L276.5,205.8 L278.5,207 L280.4,208.2 L282.4,209.3 L284.4,210.4 L286.4,211.6 L288.4,212.7 L290.4,213.8 L292.3,214.9 L294.3,215.9 L296.3,217 L298.3,218 L300.3,219 L302.3,220 L304.2,220.9 L306.2,221.8 L308.2,222.7 L310.2,223.6 L312.2,224.4 L314.2,225.2 L316.1,226 L318.1,226.7 L320.1,227.4 L322.1,228 L324.1,228.6 L326.1,229.2 L328,229.7 L330,230.2 L332,230.6 L334,230.9 L336,231.3 L338,231.5 L339.9,231.8 L341.9,231.9 L343.9,232 L345.9,232.1 L347.9,232.1 L349.9,232 L351.8,231.8 L353.8,231.6 L355.8,231.4 L357.8,231 L359.8,230.6 L361.8,230.2 L363.7,229.6 L365.7,229 L367.7,228.3 L369.7,227.5 L371.7,226.7 L373.7,225.8 L375.6,224.7 L377.6,223.7 L379.6,222.5 L381.6,221.2 L383.6,219.9 L385.6,218.4 L387.5,216.9 L389.5,215.3 L391.5,213.6 L393.5,211.8 L395.5,209.8 L397.5,207.8 L399.4,205.7 L401.4,203.5 L403.4,201.2 L405.4,198.8 L407.4,196.3 L409.4,193.7 L411.3,190.9 L413.3,188.1 L415.3,185.1 L417.3,182.1 L419.3,178.9 L421.3,175.6 L423.2,172.2 L425.2,168.6 L427.2,165 L429.2,161.2 L431.2,157.3 L433.2,153.3 L435.1,149.1 L437.1,144.8 L439.1,140.4 L441.1,135.9 L443.1,131.2 L445.1,126.4 L447,121.4 L449,116.3 L451,111.1 L453,105.7 L455,100.2 L457,94.55 L458.9,88.75 L460.9,82.8 L462.9,76.7 L464.9,70.45 " fill="none"/></g>
<g clip-path="url(#plot_window)" stroke="rgb(127,255,0)" stroke-width="1"><path d="M70.2,67.42 L72.18,86.69 L74.17,105.1 L76.15,122.5 L78.13,139.1 L80.12,154.9 L82.1,169.8 L84.08,184 L86.07,197.3 L88.05,209.9 L90.03,221.8 L92.02,232.9 L94,243.3 L95.98,253 L97.97,262.1 L99.95,270.5 L101.9,278.3 L103.9,285.5 L105.9,292.1 L107.9,298.1 L109.9,303.6 L111.9,308.6 L113.8,313 L115.8,316.9 L117.8,320.3 L119.8,323.3 L121.8,325.8 L123.8,327.9 L125.7,329.6 L127.7,330.9 L129.7,331.8 L131.7,332.3 L133.7,332.4 L135.7,332.2 L137.6,331.7 L139.6,330.9 L141.6,329.8 L143.6,328.4 L145.6,326.8 L147.6,324.8 L149.5,322.7 L151.5,320.3 L153.5,317.7 L155.5,314.9 L157.5,311.9 L159.5,308.8 L161.4,305.4 L163.4,302 L165.4,298.4 L167.4,294.6 L169.4,290.7 L171.4,286.8 L173.3,282.7 L175.3,278.6 L177.3,274.4 L179.3,270.1 L181.3,265.8 L183.3,261.4 L185.2,257 L187.2,252.5 L189.2,248.1 L191.2,243.6 L193.2,239.2 L195.2,234.7 L197.1,230.3 L199.1,225.9 L201.1,221.6 L203.1,217.2 L205.1,213 L207.1,208.8 L209,204.6 L211,200.5 L213,196.5 L215,192.6 L217,188.8 L219,185.1 L220.9,181.4 L222.9,177.9 L224.9,174.5 L226.9,171.2 L228.9,168 L230.9,165 L232.8,162.1 L234.8,159.3 L236.8,156.7 L238.8,154.2 L240.8,151.8 L242.8,149.6 L244.7,147.5 L246.7,145.6 L248.7,143.9 L250.7,142.3 L252.7,140.9 L254.7,139.6 L256.6,138.5 L258.6,137.6 L260.6,136.8 L262.6,136.2 L264.6,135.8 L266.6,135.6 L268.5,135.5 L270.5,135.6 L272.5,135.8 L274.5,136.2 L276.5,136.8 L278.5,137.6 L280.4,138.5 L282.4,139.6 L284.4,140.9 L286.4,142.3 L288.4,143.9 L290.4,145.6 L292.3,147.5 L294.3,149.6 L296.3,151.8 L298.3,154.2 L300.3,156.7 L302.3,159.3 L304.2,162.1 L306.2,165 L308.2,168 L310.2,171.2 L312.2,174.5 L314.2,177.9 L316.1,181.4 L318.1,185.1 L320.1,188.8 L322.1,192.6 L324.1,196.5 L326.1,200.5 L328,204.6 L330,208.8 L332,213 L334,217.2 L336,221.6 L338,225.9 L339.9,230.3 L341.9,234.7 L343.9,239.2 L345.9,243.6 L347.9,248.1 L349.9,252.5 L351.8,257 L353.8,261.4 L355.8,265.8 L357.8,270.1 L359.8,274.4 L361.8,278.6 L363.7,282.7 L365.7,286.8 L367.7,290.7 L369.7,294.6 L371.7,298.4 L373.7,302 L375.6,305.4 L377.6,308.8 L379.6,311.9 L381.6,314.9 L383.6,317.7 L385.6,320.3 L387.5,322.7 L389.5,324.8 L391.5,326.8 L393.5,328.4 L395.5,329.8 L397.5,330.9 L399.4,331.7 L401.4,332.2 L403.4,332.4 L405.4,332.3 L407.4,331.8 L409.4,330.9 L411.3,329.6 L413.3,327.9 L415.3,325.8 L417.3,323.3 L419.3,320.3 L421.3,316.9 L423.2,313 L425.2,308.6 L427.2,303.6 L429.2,298.1 L431.2,292.1 L433.2,285.5 L435.1,278.3 L437.1,270.5 L439.1,262.1 L441.1,253 L443.1,243.3 L445.1,232.9 L447,221.8 L449,209.9 L451,197.3 L453,184 L455,169.8 L457,154.9 L458.9,139.1 L460.9,122.5 L462.9,105.1 L464.9,86.69 " fill="none"/></g>
</g>
<g id="plotPoints" clip-path="url(#plot_window)"><g stroke="rgb(0,0,0)"></g>
<g stroke="rgb(0,0,0)"></g>
<g stroke="rgb(0,0,0)"></g>
<g stroke="rgb(0,0,0)"></g>
<g stroke="rgb(0,0,0)"></g>
</g>
<g id="limitPoints" stroke="rgb(119,136,153)" fill="rgb(250,235,215)"></g>
<g id="legendBackground" stroke="rgb(119,136,153)" fill="rgb(255,255,255)" stroke-width="1"><rect x="488.8" y="62" width="99.2" height="154"/><rect x="488.8" y="62" width="99.2" height="154"/></g>
<g id="legendPoints"><g stroke="rgb(0,0,139)" stroke-width="1"><line x1="502.8" y1="90" x2="516.8" y2="90"/></g>
<g stroke="rgb(139,0,0)" stroke-width="1"><line x1="502.8" y1="118" x2="516.8" y2="118"/></g>
<g stroke="rgb(0,100,0)" stroke-width="1"><line x1="502.8" y1="146" x2="516.8" y2="146"/></g>
<g stroke="rgb(255,140,0)" stroke-width="1"><line x1="502.8" y1="174" x2="516.8" y2="174"/></g>
<g stroke="rgb(127,255,0)" stroke-width="1"><line x1="502.8" y1="202" x2="516.8" y2="202"/></g>
</g>
<g id="legendText">
<text x="523.8" y="90" font-size="14" font-family="Verdana">n = 0</text>
<text x="523.8" y="118" font-size="14" font-family="Verdana">n = 1</text>
<text x="523.8" y="146" font-size="14" font-family="Verdana">n = 2</text>
<text x="523.8" y="174" font-size="14" font-family="Verdana">n = 3</text>
<text x="523.8" y="202" font-size="14" font-family="Verdana">n = 4</text></g>
<g id="title">
<text x="300" y="40" text-anchor="middle" font-size="20" font-family="Verdana">Hermite Polynomials</text></g>
</svg>
