<?xml version="1.0" encoding="UTF-8" standalone="no"?>
<svg width="600" height ="400" version="1.1" xmlns="http://www.w3.org/2000/svg"
 xmlns:xlink="http://www.w3.org/1999/xlink"
 xmlns:ev="http://www.w3.org/2001/xml-events">

<!-- SVG plot written using Boost.Plot program (Creator Jacob Voytko) --> 
<!-- Use, modification and distribution of Boost.Plot subject to the --> 
<!-- Boost Software License, Version 1.0.--> 
<!-- (See accompanying file LICENSE_1_0.txt --> 
<!-- or copy at http://www.boost.org/LICENSE_1_0.txt) --> 

<!-- SVG Plot Copyright John Maddock 2008 --> 
<meta name="copyright" content="John Maddock" />
<meta name="date" content="2008" />
<!-- Use, modification and distribution of this Scalable Vector Graphic file -->
<!-- are subject to the Boost Software License, Version 1.0. -->
<!-- (See accompanying file LICENSE_1_0.txt or copy at http://www.boost.org/LICENSE_1_0.txt) -->

<clipPath id="plot_window"><rect x="71.2" y="63" width="347.7" height="274.2"/></clipPath>
<g id="imageBackground" stroke="rgb(119,136,153)" fill="rgb(255,255,255)" stroke-width="2"><rect x="0" y="0" width="600" height="400"/></g>
<g id="plotBackground" stroke="rgb(119,136,153)" fill="rgb(255,255,255)" stroke-width="2"><rect x="70.2" y="62" width="349.7" height="276.2"/></g>
<g id="yMinorGrid" stroke="rgb(200,220,255)" stroke-width="0.5"></g>
<g id="yMajorGrid" stroke="rgb(200,220,255)" stroke-width="1"></g>
<g id="xMinorGrid" stroke="rgb(200,220,255)" stroke-width="0.5"></g>
<g id="xMajorGrid" stroke="rgb(200,220,255)" stroke-width="1"></g>
<g id="yAxis" stroke="rgb(0,0,0)" stroke-width="1"><line x1="70.2" y1="62" x2="70.2" y2="343.2"/><line x1="70.2" y1="62" x2="70.2" y2="338.2"/></g>
<g id="xAxis" stroke="rgb(0,0,0)" stroke-width="1"><line x1="65.2" y1="338.2" x2="419.9" y2="338.2"/><line x1="65.2" y1="338.2" x2="419.9" y2="338.2"/></g>
<g id="yMinorTicks" stroke="rgb(0,0,0)" stroke-width="1"><path d="M68.2,331.4 L70.2,331.4 M68.2,324.7 L70.2,324.7 M68.2,317.9 L70.2,317.9 M68.2,304.4 L70.2,304.4 M68.2,297.6 L70.2,297.6 M68.2,290.8 L70.2,290.8 M68.2,277.3 L70.2,277.3 M68.2,270.5 L70.2,270.5 M68.2,263.7 L70.2,263.7 M68.2,250.2 L70.2,250.2 M68.2,243.4 L70.2,243.4 M68.2,236.7 L70.2,236.7 M68.2,223.1 L70.2,223.1 M68.2,216.3 L70.2,216.3 M68.2,209.6 L70.2,209.6 M68.2,196 L70.2,196 M68.2,189.3 L70.2,189.3 M68.2,182.5 L70.2,182.5 M68.2,169 L70.2,169 M68.2,162.2 L70.2,162.2 M68.2,155.4 L70.2,155.4 M68.2,141.9 L70.2,141.9 M68.2,135.1 L70.2,135.1 M68.2,128.3 L70.2,128.3 M68.2,114.8 L70.2,114.8 M68.2,108 L70.2,108 M68.2,101.3 L70.2,101.3 M68.2,87.72 L70.2,87.72 M68.2,80.95 L70.2,80.95 M68.2,74.19 L70.2,74.19 M68.2,338.2 L70.2,338.2 "/></g>
<g id="xMinorTicks" stroke="rgb(0,0,0)" stroke-width="1"><path d="M78.77,338.2 L78.77,340.2 M87.34,338.2 L87.34,340.2 M95.91,338.2 L95.91,340.2 M113.1,338.2 L113.1,340.2 M121.6,338.2 L121.6,340.2 M130.2,338.2 L130.2,340.2 M147.3,338.2 L147.3,340.2 M155.9,338.2 L155.9,340.2 M164.5,338.2 L164.5,340.2 M181.6,338.2 L181.6,340.2 M190.2,338.2 L190.2,340.2 M198.8,338.2 L198.8,340.2 M215.9,338.2 L215.9,340.2 M224.5,338.2 L224.5,340.2 M233.1,338.2 L233.1,340.2 M250.2,338.2 L250.2,340.2 M258.8,338.2 L258.8,340.2 M267.3,338.2 L267.3,340.2 M284.5,338.2 L284.5,340.2 M293.1,338.2 L293.1,340.2 M301.6,338.2 L301.6,340.2 M318.8,338.2 L318.8,340.2 M327.3,338.2 L327.3,340.2 M335.9,338.2 L335.9,340.2 M353.1,338.2 L353.1,340.2 M361.6,338.2 L361.6,340.2 M370.2,338.2 L370.2,340.2 M387.3,338.2 L387.3,340.2 M395.9,338.2 L395.9,340.2 M404.5,338.2 L404.5,340.2 "/></g>
<g id="yMajorTicks" stroke="rgb(0,0,0)" stroke-width="2"><path d="M65.2,338.2 L70.2,338.2 M65.2,311.1 L70.2,311.1 M65.2,284 L70.2,284 M65.2,257 L70.2,257 M65.2,229.9 L70.2,229.9 M65.2,202.8 L70.2,202.8 M65.2,175.7 L70.2,175.7 M65.2,148.7 L70.2,148.7 M65.2,121.6 L70.2,121.6 M65.2,94.49 L70.2,94.49 M65.2,67.42 L70.2,67.42 M65.2,338.2 L70.2,338.2 "/></g>
<g id="xMajorTicks" stroke="rgb(0,0,0)" stroke-width="2"><path d="M70.2,338.2 L70.2,343.2 M104.5,338.2 L104.5,343.2 M138.8,338.2 L138.8,343.2 M173.1,338.2 L173.1,343.2 M207.3,338.2 L207.3,343.2 M241.6,338.2 L241.6,343.2 M275.9,338.2 L275.9,343.2 M310.2,338.2 L310.2,343.2 M344.5,338.2 L344.5,343.2 M378.8,338.2 L378.8,343.2 M413.1,338.2 L413.1,343.2 M70.2,338.2 L70.2,343.2 "/></g>
<g id="plotLabels">
<text x="70.2" y="357.6" text-anchor="middle" font-size="12" font-family="Verdana">0</text>
<text x="104.5" y="357.6" text-anchor="middle" font-size="12" font-family="Verdana">0.1</text>
<text x="138.8" y="357.6" text-anchor="middle" font-size="12" font-family="Verdana">0.2</text>
<text x="173.1" y="357.6" text-anchor="middle" font-size="12" font-family="Verdana">0.3</text>
<text x="207.3" y="357.6" text-anchor="middle" font-size="12" font-family="Verdana">0.4</text>
<text x="241.6" y="357.6" text-anchor="middle" font-size="12" font-family="Verdana">0.5</text>
<text x="275.9" y="357.6" text-anchor="middle" font-size="12" font-family="Verdana">0.6</text>
<text x="310.2" y="357.6" text-anchor="middle" font-size="12" font-family="Verdana">0.7</text>
<text x="344.5" y="357.6" text-anchor="middle" font-size="12" font-family="Verdana">0.8</text>
<text x="378.8" y="357.6" text-anchor="middle" font-size="12" font-family="Verdana">0.9</text>
<text x="413.1" y="357.6" text-anchor="middle" font-size="12" font-family="Verdana">1</text>
<text x="70.2" y="357.6" text-anchor="middle" font-size="12" font-family="Verdana">0</text>
<text x="59.2" y="340.6" text-anchor="end" font-size="12" font-family="Verdana">0</text>
<text x="59.2" y="313.5" text-anchor="end" font-size="12" font-family="Verdana">0.1</text>
<text x="59.2" y="286.4" text-anchor="end" font-size="12" font-family="Verdana">0.2</text>
<text x="59.2" y="259.4" text-anchor="end" font-size="12" font-family="Verdana">0.3</text>
<text x="59.2" y="232.3" text-anchor="end" font-size="12" font-family="Verdana">0.4</text>
<text x="59.2" y="205.2" text-anchor="end" font-size="12" font-family="Verdana">0.5</text>
<text x="59.2" y="178.1" text-anchor="end" font-size="12" font-family="Verdana">0.6</text>
<text x="59.2" y="151.1" text-anchor="end" font-size="12" font-family="Verdana">0.7</text>
<text x="59.2" y="124" text-anchor="end" font-size="12" font-family="Verdana">0.8</text>
<text x="59.2" y="96.89" text-anchor="end" font-size="12" font-family="Verdana">0.9</text>
<text x="59.2" y="69.82" text-anchor="end" font-size="12" font-family="Verdana">1</text>
<text x="59.2" y="340.6" text-anchor="end" font-size="12" font-family="Verdana">0</text></g>
<g id="yLabel">
<text x="30.2" y="200.1" text-anchor="middle" transform = "rotate(-90 30.2 200.1 )" font-size="14" font-family="Verdana">ibeta(a, b, z)</text></g>
<g id="xLabel">
<text x="245.1" y="384" text-anchor="middle" font-size="14" font-family="Verdana">z</text></g>
<g id="plotLines" stroke-width="2"><g clip-path="url(#plot_window)" stroke="rgb(0,0,139)" stroke-width="1"><path d="M70.2,338.2 L71.91,338.2 L73.63,338.2 L75.34,338.2 L77.06,338.2 L78.77,338.2 L80.49,338.2 L82.2,338.2 L83.91,338.2 L85.63,338.2 L87.34,338.2 L89.06,338.2 L90.77,338.2 L92.49,338.2 L94.2,338.2 L95.91,338.2 L97.63,338.2 L99.34,338.2 L101.1,338.2 L102.8,338.2 L104.5,338.2 L106.2,338.2 L107.9,338.2 L109.6,338.2 L111.3,338.2 L113.1,338.2 L114.8,338.2 L116.5,338.2 L118.2,338.2 L119.9,338.2 L121.6,338.2 L123.3,338.2 L125.1,338.2 L126.8,338.2 L128.5,338.2 L130.2,338.2 L131.9,338.2 L133.6,338.2 L135.3,338.2 L137.1,338.2 L138.8,338.2 L140.5,338.2 L142.2,338.2 L143.9,338.2 L145.6,338.2 L147.3,338.2 L149.1,338.2 L150.8,338.2 L152.5,338.2 L154.2,338.2 L155.9,338.2 L157.6,338.2 L159.3,338.2 L161.1,338.2 L162.8,338.2 L164.5,338.2 L166.2,338.2 L167.9,338.2 L169.6,338.2 L171.3,338.2 L173.1,338.2 L174.8,338.2 L176.5,338.2 L178.2,338.2 L179.9,338.2 L181.6,338.2 L183.3,338.2 L185.1,338.2 L186.8,338.2 L188.5,338.2 L190.2,338.2 L191.9,338.2 L193.6,338.2 L195.3,338.2 L197.1,338.2 L198.8,338.2 L200.5,338.2 L202.2,338.1 L203.9,338.1 L205.6,338.1 L207.3,338.1 L209.1,338.1 L210.8,338.1 L212.5,338.1 L214.2,338.1 L215.9,338.1 L217.6,338.1 L219.3,338 L221.1,338 L222.8,338 L224.5,338 L226.2,338 L227.9,338 L229.6,337.9 L231.3,337.9 L233.1,337.9 L234.8,337.8 L236.5,337.8 L238.2,337.8 L239.9,337.7 L241.6,337.7 L243.3,337.6 L245.1,337.6 L246.8,337.5 L248.5,337.4 L250.2,337.4 L251.9,337.3 L253.6,337.2 L255.3,337.1 L257.1,337.1 L258.8,337 L260.5,336.8 L262.2,336.7 L263.9,336.6 L265.6,336.5 L267.3,336.3 L269.1,336.2 L270.8,336 L272.5,335.9 L274.2,335.7 L275.9,335.5 L277.6,335.3 L279.3,335 L281.1,334.8 L282.8,334.5 L284.5,334.3 L286.2,334 L287.9,333.7 L289.6,333.3 L291.3,333 L293.1,332.6 L294.8,332.2 L296.5,331.8 L298.2,331.3 L299.9,330.8 L301.6,330.3 L303.3,329.8 L305.1,329.2 L306.8,328.6 L308.5,328 L310.2,327.3 L311.9,326.6 L313.6,325.8 L315.3,325 L317.1,324.1 L318.8,323.2 L320.5,322.3 L322.2,321.2 L323.9,320.2 L325.6,319.1 L327.3,317.9 L329.1,316.6 L330.8,315.3 L332.5,313.9 L334.2,312.4 L335.9,310.9 L337.6,309.3 L339.3,307.5 L341.1,305.7 L342.8,303.8 L344.5,301.9 L346.2,299.8 L347.9,297.6 L349.6,295.2 L351.3,292.8 L353.1,290.3 L354.8,287.6 L356.5,284.8 L358.2,281.8 L359.9,278.7 L361.6,275.5 L363.3,272.1 L365.1,268.5 L366.8,264.8 L368.5,260.9 L370.2,256.8 L371.9,252.5 L373.6,248 L375.3,243.3 L377.1,238.4 L378.8,233.3 L380.5,227.9 L382.2,222.3 L383.9,216.5 L385.6,210.3 L387.3,204 L389.1,197.3 L390.8,190.3 L392.5,183 L394.2,175.5 L395.9,167.5 L397.6,159.3 L399.3,150.7 L401.1,141.7 L402.8,132.3 L404.5,122.6 L406.2,112.4 L407.9,101.9 L409.6,90.83 L411.3,79.36 " fill="none"/></g>
<g clip-path="url(#plot_window)" stroke="rgb(139,0,0)" stroke-width="1"><path d="M70.2,338.2 L71.91,338.2 L73.63,338.2 L75.34,338.2 L77.06,338.2 L78.77,338.2 L80.49,338.2 L82.2,338.2 L83.91,338.2 L85.63,338.2 L87.34,338.2 L89.06,338.2 L90.77,338.2 L92.49,338.2 L94.2,338.2 L95.91,338.2 L97.63,338.2 L99.34,338.2 L101.1,338.2 L102.8,338.2 L104.5,338.2 L106.2,338.2 L107.9,338.2 L109.6,338.2 L111.3,338.2 L113.1,338.2 L114.8,338.2 L116.5,338.2 L118.2,338.2 L119.9,338.2 L121.6,338.2 L123.3,338.2 L125.1,338.2 L126.8,338.2 L128.5,338.2 L130.2,338.2 L131.9,338.2 L133.6,338.2 L135.3,338.2 L137.1,338.2 L138.8,338.2 L140.5,338.2 L142.2,338.2 L143.9,338.2 L145.6,338.2 L147.3,338.1 L149.1,338.1 L150.8,338.1 L152.5,338.1 L154.2,338.1 L155.9,338.1 L157.6,338.1 L159.3,338.1 L161.1,338 L162.8,338 L164.5,338 L166.2,338 L167.9,338 L169.6,337.9 L171.3,337.9 L173.1,337.9 L174.8,337.8 L176.5,337.8 L178.2,337.7 L179.9,337.7 L181.6,337.6 L183.3,337.5 L185.1,337.5 L186.8,337.4 L188.5,337.3 L190.2,337.2 L191.9,337.1 L193.6,337 L195.3,336.9 L197.1,336.8 L198.8,336.7 L200.5,336.5 L202.2,336.4 L203.9,336.2 L205.6,336.1 L207.3,335.9 L209.1,335.7 L210.8,335.5 L212.5,335.3 L214.2,335 L215.9,334.8 L217.6,334.5 L219.3,334.2 L221.1,333.9 L222.8,333.6 L224.5,333.3 L226.2,332.9 L227.9,332.6 L229.6,332.2 L231.3,331.7 L233.1,331.3 L234.8,330.8 L236.5,330.3 L238.2,329.8 L239.9,329.3 L241.6,328.7 L243.3,328.1 L245.1,327.4 L246.8,326.8 L248.5,326.1 L250.2,325.3 L251.9,324.6 L253.6,323.7 L255.3,322.9 L257.1,322 L258.8,321.1 L260.5,320.1 L262.2,319.1 L263.9,318.1 L265.6,317 L267.3,315.8 L269.1,314.6 L270.8,313.4 L272.5,312.1 L274.2,310.8 L275.9,309.4 L277.6,308 L279.3,306.5 L281.1,304.9 L282.8,303.3 L284.5,301.6 L286.2,299.9 L287.9,298.1 L289.6,296.3 L291.3,294.4 L293.1,292.4 L294.8,290.4 L296.5,288.3 L298.2,286.1 L299.9,283.9 L301.6,281.6 L303.3,279.2 L305.1,276.8 L306.8,274.3 L308.5,271.7 L310.2,269.1 L311.9,266.4 L313.6,263.6 L315.3,260.7 L317.1,257.8 L318.8,254.8 L320.5,251.7 L322.2,248.6 L323.9,245.4 L325.6,242.1 L327.3,238.8 L329.1,235.4 L330.8,231.9 L332.5,228.4 L334.2,224.8 L335.9,221.1 L337.6,217.4 L339.3,213.6 L341.1,209.8 L342.8,205.9 L344.5,201.9 L346.2,197.9 L347.9,193.9 L349.6,189.8 L351.3,185.6 L353.1,181.5 L354.8,177.3 L356.5,173.1 L358.2,168.8 L359.9,164.5 L361.6,160.2 L363.3,156 L365.1,151.7 L366.8,147.4 L368.5,143.1 L370.2,138.8 L371.9,134.6 L373.6,130.4 L375.3,126.2 L377.1,122.1 L378.8,118 L380.5,114 L382.2,110.1 L383.9,106.3 L385.6,102.6 L387.3,98.93 L389.1,95.43 L390.8,92.07 L392.5,88.85 L394.2,85.8 L395.9,82.92 L397.6,80.23 L399.3,77.75 L401.1,75.49 L402.8,73.47 L404.5,71.7 L406.2,70.21 L407.9,69.02 L409.6,68.14 L411.3,67.6 " fill="none"/></g>
<g clip-path="url(#plot_window)" stroke="rgb(0,100,0)" stroke-width="1"><path d="M70.2,338.2 L71.91,338.2 L73.63,338.2 L75.34,338.2 L77.06,338.2 L78.77,338.2 L80.49,338.2 L82.2,338.2 L83.91,338.2 L85.63,338.2 L87.34,338.2 L89.06,338.2 L90.77,338.2 L92.49,338.2 L94.2,338.2 L95.91,338.1 L97.63,338.1 L99.34,338.1 L101.1,338.1 L102.8,338 L104.5,338 L106.2,337.9 L107.9,337.8 L109.6,337.7 L111.3,337.6 L113.1,337.5 L114.8,337.4 L116.5,337.2 L118.2,337.1 L119.9,336.9 L121.6,336.7 L123.3,336.4 L125.1,336.2 L126.8,335.9 L128.5,335.6 L130.2,335.2 L131.9,334.8 L133.6,334.4 L135.3,333.9 L137.1,333.4 L138.8,332.9 L140.5,332.3 L142.2,331.7 L143.9,331 L145.6,330.3 L147.3,329.5 L149.1,328.7 L150.8,327.9 L152.5,326.9 L154.2,326 L155.9,325 L157.6,323.9 L159.3,322.7 L161.1,321.5 L162.8,320.3 L164.5,319 L166.2,317.6 L167.9,316.1 L169.6,314.6 L171.3,313.1 L173.1,311.4 L174.8,309.8 L176.5,308 L178.2,306.2 L179.9,304.3 L181.6,302.4 L183.3,300.4 L185.1,298.3 L186.8,296.1 L188.5,294 L190.2,291.7 L191.9,289.4 L193.6,287 L195.3,284.6 L197.1,282.1 L198.8,279.5 L200.5,276.9 L202.2,274.3 L203.9,271.6 L205.6,268.8 L207.3,266 L209.1,263.2 L210.8,260.3 L212.5,257.3 L214.2,254.3 L215.9,251.3 L217.6,248.3 L219.3,245.2 L221.1,242 L222.8,238.9 L224.5,235.7 L226.2,232.5 L227.9,229.2 L229.6,226 L231.3,222.7 L233.1,219.4 L234.8,216.1 L236.5,212.8 L238.2,209.5 L239.9,206.1 L241.6,202.8 L243.3,199.5 L245.1,196.1 L246.8,192.8 L248.5,189.5 L250.2,186.2 L251.9,182.9 L253.6,179.6 L255.3,176.4 L257.1,173.1 L258.8,169.9 L260.5,166.7 L262.2,163.6 L263.9,160.5 L265.6,157.4 L267.3,154.3 L269.1,151.3 L270.8,148.3 L272.5,145.3 L274.2,142.5 L275.9,139.6 L277.6,136.8 L279.3,134 L281.1,131.3 L282.8,128.7 L284.5,126.1 L286.2,123.5 L287.9,121 L289.6,118.6 L291.3,116.2 L293.1,113.9 L294.8,111.7 L296.5,109.5 L298.2,107.3 L299.9,105.3 L301.6,103.3 L303.3,101.3 L305.1,99.43 L306.8,97.62 L308.5,95.86 L310.2,94.17 L311.9,92.54 L313.6,90.98 L315.3,89.48 L317.1,88.04 L318.8,86.66 L320.5,85.34 L322.2,84.08 L323.9,82.89 L325.6,81.75 L327.3,80.66 L329.1,79.64 L330.8,78.67 L332.5,77.75 L334.2,76.88 L335.9,76.07 L337.6,75.31 L339.3,74.59 L341.1,73.92 L342.8,73.3 L344.5,72.72 L346.2,72.18 L347.9,71.68 L349.6,71.22 L351.3,70.8 L353.1,70.41 L354.8,70.06 L356.5,69.74 L358.2,69.44 L359.9,69.18 L361.6,68.94 L363.3,68.73 L365.1,68.54 L366.8,68.37 L368.5,68.22 L370.2,68.09 L371.9,67.97 L373.6,67.88 L375.3,67.79 L377.1,67.72 L378.8,67.66 L380.5,67.61 L382.2,67.56 L383.9,67.53 L385.6,67.5 L387.3,67.48 L389.1,67.46 L390.8,67.45 L392.5,67.44 L394.2,67.43 L395.9,67.42 L397.6,67.42 L399.3,67.42 L401.1,67.42 L402.8,67.42 L404.5,67.42 L406.2,67.42 L407.9,67.42 L409.6,67.42 L411.3,67.42 " fill="none"/></g>
<g clip-path="url(#plot_window)" stroke="rgb(255,140,0)" stroke-width="1"><path d="M70.2,338.2 L71.91,338 L73.63,337.5 L75.34,336.6 L77.06,335.4 L78.77,333.9 L80.49,332.2 L82.2,330.1 L83.91,327.9 L85.63,325.4 L87.34,322.7 L89.06,319.8 L90.77,316.8 L92.49,313.5 L94.2,310.2 L95.91,306.7 L97.63,303.1 L99.34,299.3 L101.1,295.5 L102.8,291.6 L104.5,287.6 L106.2,283.5 L107.9,279.4 L109.6,275.2 L111.3,271 L113.1,266.8 L114.8,262.5 L116.5,258.2 L118.2,254 L119.9,249.7 L121.6,245.4 L123.3,241.1 L125.1,236.8 L126.8,232.6 L128.5,228.3 L130.2,224.1 L131.9,220 L133.6,215.8 L135.3,211.8 L137.1,207.7 L138.8,203.7 L140.5,199.8 L142.2,195.9 L143.9,192 L145.6,188.2 L147.3,184.5 L149.1,180.8 L150.8,177.2 L152.5,173.7 L154.2,170.2 L155.9,166.8 L157.6,163.5 L159.3,160.2 L161.1,157 L162.8,153.9 L164.5,150.8 L166.2,147.8 L167.9,144.9 L169.6,142 L171.3,139.3 L173.1,136.5 L174.8,133.9 L176.5,131.3 L178.2,128.8 L179.9,126.4 L181.6,124 L183.3,121.7 L185.1,119.5 L186.8,117.3 L188.5,115.2 L190.2,113.2 L191.9,111.2 L193.6,109.3 L195.3,107.5 L197.1,105.7 L198.8,104 L200.5,102.3 L202.2,100.7 L203.9,99.16 L205.6,97.66 L207.3,96.22 L209.1,94.83 L210.8,93.5 L212.5,92.21 L214.2,90.97 L215.9,89.78 L217.6,88.64 L219.3,87.55 L221.1,86.5 L222.8,85.49 L224.5,84.52 L226.2,83.6 L227.9,82.72 L229.6,81.87 L231.3,81.06 L233.1,80.29 L234.8,79.55 L236.5,78.85 L238.2,78.18 L239.9,77.54 L241.6,76.94 L243.3,76.36 L245.1,75.81 L246.8,75.29 L248.5,74.79 L250.2,74.32 L251.9,73.88 L253.6,73.46 L255.3,73.06 L257.1,72.68 L258.8,72.32 L260.5,71.99 L262.2,71.67 L263.9,71.37 L265.6,71.09 L267.3,70.82 L269.1,70.57 L270.8,70.34 L272.5,70.12 L274.2,69.92 L275.9,69.72 L277.6,69.54 L279.3,69.37 L281.1,69.22 L282.8,69.07 L284.5,68.93 L286.2,68.81 L287.9,68.69 L289.6,68.58 L291.3,68.48 L293.1,68.38 L294.8,68.3 L296.5,68.21 L298.2,68.14 L299.9,68.07 L301.6,68.01 L303.3,67.95 L305.1,67.9 L306.8,67.85 L308.5,67.81 L310.2,67.77 L311.9,67.73 L313.6,67.69 L315.3,67.66 L317.1,67.64 L318.8,67.61 L320.5,67.59 L322.2,67.57 L323.9,67.55 L325.6,67.53 L327.3,67.52 L329.1,67.51 L330.8,67.49 L332.5,67.48 L334.2,67.47 L335.9,67.47 L337.6,67.46 L339.3,67.45 L341.1,67.45 L342.8,67.44 L344.5,67.44 L346.2,67.43 L347.9,67.43 L349.6,67.43 L351.3,67.43 L353.1,67.42 L354.8,67.42 L356.5,67.42 L358.2,67.42 L359.9,67.42 L361.6,67.42 L363.3,67.42 L365.1,67.42 L366.8,67.42 L368.5,67.42 L370.2,67.42 L371.9,67.42 L373.6,67.42 L375.3,67.42 L377.1,67.42 L378.8,67.42 L380.5,67.42 L382.2,67.42 L383.9,67.42 L385.6,67.42 L387.3,67.42 L389.1,67.42 L390.8,67.42 L392.5,67.42 L394.2,67.42 L395.9,67.42 L397.6,67.42 L399.3,67.42 L401.1,67.42 L402.8,67.42 L404.5,67.42 L406.2,67.42 L407.9,67.42 L409.6,67.42 L411.3,67.42 " fill="none"/></g>
<g clip-path="url(#plot_window)" stroke="rgb(127,255,0)" stroke-width="1"><path d="M70.2,338.2 L71.91,326.3 L73.63,314.8 L75.34,303.8 L77.06,293.2 L78.77,283 L80.49,273.3 L82.2,263.9 L83.91,254.9 L85.63,246.3 L87.34,238.1 L89.06,230.2 L90.77,222.6 L92.49,215.3 L94.2,208.3 L95.91,201.7 L97.63,195.3 L99.34,189.2 L101.1,183.3 L102.8,177.7 L104.5,172.3 L106.2,167.2 L107.9,162.3 L109.6,157.6 L111.3,153.1 L113.1,148.8 L114.8,144.7 L116.5,140.8 L118.2,137.1 L119.9,133.5 L121.6,130.1 L123.3,126.9 L125.1,123.8 L126.8,120.8 L128.5,118 L130.2,115.4 L131.9,112.8 L133.6,110.4 L135.3,108.1 L137.1,105.9 L138.8,103.8 L140.5,101.8 L142.2,99.87 L143.9,98.07 L145.6,96.35 L147.3,94.73 L149.1,93.18 L150.8,91.71 L152.5,90.32 L154.2,89 L155.9,87.75 L157.6,86.56 L159.3,85.43 L161.1,84.37 L162.8,83.36 L164.5,82.4 L166.2,81.5 L167.9,80.64 L169.6,79.83 L171.3,79.07 L173.1,78.34 L174.8,77.66 L176.5,77.02 L178.2,76.41 L179.9,75.83 L181.6,75.29 L183.3,74.78 L185.1,74.3 L186.8,73.85 L188.5,73.42 L190.2,73.02 L191.9,72.65 L193.6,72.29 L195.3,71.96 L197.1,71.65 L198.8,71.36 L200.5,71.08 L202.2,70.82 L203.9,70.58 L205.6,70.36 L207.3,70.14 L209.1,69.95 L210.8,69.76 L212.5,69.59 L214.2,69.43 L215.9,69.28 L217.6,69.14 L219.3,69 L221.1,68.88 L222.8,68.77 L224.5,68.66 L226.2,68.56 L227.9,68.47 L229.6,68.39 L231.3,68.31 L233.1,68.24 L234.8,68.17 L236.5,68.11 L238.2,68.05 L239.9,67.99 L241.6,67.94 L243.3,67.9 L245.1,67.86 L246.8,67.82 L248.5,67.78 L250.2,67.75 L251.9,67.72 L253.6,67.69 L255.3,67.67 L257.1,67.64 L258.8,67.62 L260.5,67.6 L262.2,67.58 L263.9,67.57 L265.6,67.55 L267.3,67.54 L269.1,67.53 L270.8,67.51 L272.5,67.5 L274.2,67.5 L275.9,67.49 L277.6,67.48 L279.3,67.47 L281.1,67.47 L282.8,67.46 L284.5,67.46 L286.2,67.45 L287.9,67.45 L289.6,67.44 L291.3,67.44 L293.1,67.44 L294.8,67.43 L296.5,67.43 L298.2,67.43 L299.9,67.43 L301.6,67.43 L303.3,67.43 L305.1,67.42 L306.8,67.42 L308.5,67.42 L310.2,67.42 L311.9,67.42 L313.6,67.42 L315.3,67.42 L317.1,67.42 L318.8,67.42 L320.5,67.42 L322.2,67.42 L323.9,67.42 L325.6,67.42 L327.3,67.42 L329.1,67.42 L330.8,67.42 L332.5,67.42 L334.2,67.42 L335.9,67.42 L337.6,67.42 L339.3,67.42 L341.1,67.42 L342.8,67.42 L344.5,67.42 L346.2,67.42 L347.9,67.42 L349.6,67.42 L351.3,67.42 L353.1,67.42 L354.8,67.42 L356.5,67.42 L358.2,67.42 L359.9,67.42 L361.6,67.42 L363.3,67.42 L365.1,67.42 L366.8,67.42 L368.5,67.42 L370.2,67.42 L371.9,67.42 L373.6,67.42 L375.3,67.42 L377.1,67.42 L378.8,67.42 L380.5,67.42 L382.2,67.42 L383.9,67.42 L385.6,67.42 L387.3,67.42 L389.1,67.42 L390.8,67.42 L392.5,67.42 L394.2,67.42 L395.9,67.42 L397.6,67.42 L399.3,67.42 L401.1,67.42 L402.8,67.42 L404.5,67.42 L406.2,67.42 L407.9,67.42 L409.6,67.42 L411.3,67.42 " fill="none"/></g>
</g>
<g id="plotPoints" clip-path="url(#plot_window)"><g stroke="rgb(0,0,0)"></g>
<g stroke="rgb(0,0,0)"></g>
<g stroke="rgb(0,0,0)"></g>
<g stroke="rgb(0,0,0)"></g>
<g stroke="rgb(0,0,0)"></g>
</g>
<g id="limitPoints" stroke="rgb(119,136,153)" fill="rgb(250,235,215)"></g>
<g id="legendBackground" stroke="rgb(119,136,153)" fill="rgb(255,255,255)" stroke-width="1"><rect x="433.9" y="62" width="154.1" height="154"/><rect x="433.9" y="62" width="154.1" height="154"/></g>
<g id="legendPoints"><g stroke="rgb(0,0,139)" stroke-width="1"><line x1="447.9" y1="90" x2="461.9" y2="90"/></g>
<g stroke="rgb(139,0,0)" stroke-width="1"><line x1="447.9" y1="118" x2="461.9" y2="118"/></g>
<g stroke="rgb(0,100,0)" stroke-width="1"><line x1="447.9" y1="146" x2="461.9" y2="146"/></g>
<g stroke="rgb(255,140,0)" stroke-width="1"><line x1="447.9" y1="174" x2="461.9" y2="174"/></g>
<g stroke="rgb(127,255,0)" stroke-width="1"><line x1="447.9" y1="202" x2="461.9" y2="202"/></g>
</g>
<g id="legendText">
<text x="468.9" y="90" font-size="14" font-family="Verdana">a = 9, b = 1</text>
<text x="468.9" y="118" font-size="14" font-family="Verdana">a = 7, b = 2</text>
<text x="468.9" y="146" font-size="14" font-family="Verdana">a = 1, b = 1</text>
<text x="468.9" y="174" font-size="14" font-family="Verdana">a = 2, b = 7</text>
<text x="468.9" y="202" font-size="14" font-family="Verdana">a = 1, b = 9</text></g>
<g id="title">
<text x="300" y="40" text-anchor="middle" font-size="20" font-family="Verdana">ibeta</text></g>
</svg>
