<?xml version="1.0" encoding="UTF-8" standalone="no"?>
<svg width="600" height ="400" version="1.1" xmlns="http://www.w3.org/2000/svg"
 xmlns:xlink="http://www.w3.org/1999/xlink"
 xmlns:ev="http://www.w3.org/2001/xml-events">

<!-- SVG plot written using Boost.Plot program (Creator Jacob Voytko) --> 
<!-- Use, modification and distribution of Boost.Plot subject to the --> 
<!-- Boost Software License, Version 1.0.--> 
<!-- (See accompanying file LICENSE_1_0.txt --> 
<!-- or copy at http://www.boost.org/LICENSE_1_0.txt) --> 

<!-- SVG Plot Copyright John Maddock 2008 --> 
<meta name="copyright" content="John Maddock" />
<meta name="date" content="2008" />
<!-- Use, modification and distribution of this Scalable Vector Graphic file -->
<!-- are subject to the Boost Software License, Version 1.0. -->
<!-- (See accompanying file LICENSE_1_0.txt or copy at http://www.boost.org/LICENSE_1_0.txt) -->

<clipPath id="plot_window"><rect x="71.2" y="63" width="402.6" height="274.2"/></clipPath>
<g id="imageBackground" stroke="rgb(119,136,153)" fill="rgb(255,255,255)" stroke-width="2"><rect x="0" y="0" width="600" height="400"/></g>
<g id="plotBackground" stroke="rgb(119,136,153)" fill="rgb(255,255,255)" stroke-width="2"><rect x="70.2" y="62" width="404.6" height="276.2"/></g>
<g id="yMinorGrid" stroke="rgb(200,220,255)" stroke-width="0.5"></g>
<g id="yMajorGrid" stroke="rgb(200,220,255)" stroke-width="1"></g>
<g id="xMinorGrid" stroke="rgb(200,220,255)" stroke-width="0.5"></g>
<g id="xMajorGrid" stroke="rgb(200,220,255)" stroke-width="1"></g>
<g id="yAxis" stroke="rgb(0,0,0)" stroke-width="1"><line x1="199.4" y1="62" x2="199.4" y2="343.2"/><line x1="70.2" y1="62" x2="70.2" y2="338.2"/></g>
<g id="xAxis" stroke="rgb(0,0,0)" stroke-width="1"><line x1="65.2" y1="237.9" x2="474.8" y2="237.9"/><line x1="65.2" y1="338.2" x2="474.8" y2="338.2"/></g>
<g id="yMinorTicks" stroke="rgb(0,0,0)" stroke-width="1"><path d="M68.2,216.6 L70.2,216.6 M68.2,195.3 L70.2,195.3 M68.2,174 L70.2,174 M68.2,131.4 L70.2,131.4 M68.2,110 L70.2,110 M68.2,88.73 L70.2,88.73 M68.2,237.9 L70.2,237.9 M68.2,259.2 L70.2,259.2 M68.2,280.5 L70.2,280.5 M68.2,301.8 L70.2,301.8 M68.2,323.2 L70.2,323.2 "/></g>
<g id="xMinorTicks" stroke="rgb(0,0,0)" stroke-width="1"><path d="M231.7,338.2 L231.7,340.2 M264,338.2 L264,340.2 M296.3,338.2 L296.3,340.2 M360.9,338.2 L360.9,340.2 M393.2,338.2 L393.2,340.2 M425.5,338.2 L425.5,340.2 M167.1,338.2 L167.1,340.2 M134.8,338.2 L134.8,340.2 M102.5,338.2 L102.5,340.2 "/></g>
<g id="yMajorTicks" stroke="rgb(0,0,0)" stroke-width="2"><path d="M65.2,237.9 L70.2,237.9 M65.2,152.7 L70.2,152.7 M65.2,67.42 L70.2,67.42 M65.2,237.9 L70.2,237.9 M65.2,323.2 L70.2,323.2 "/></g>
<g id="xMajorTicks" stroke="rgb(0,0,0)" stroke-width="2"><path d="M199.4,338.2 L199.4,343.2 M328.6,338.2 L328.6,343.2 M457.8,338.2 L457.8,343.2 M199.4,338.2 L199.4,343.2 M70.2,338.2 L70.2,343.2 "/></g>
<g id="plotLabels">
<text x="199.4" y="357.6" text-anchor="middle" font-size="12" font-family="Verdana">0</text>
<text x="328.6" y="357.6" text-anchor="middle" font-size="12" font-family="Verdana">5</text>
<text x="457.8" y="357.6" text-anchor="middle" font-size="12" font-family="Verdana">10</text>
<text x="199.4" y="357.6" text-anchor="middle" font-size="12" font-family="Verdana">0</text>
<text x="70.2" y="357.6" text-anchor="middle" font-size="12" font-family="Verdana">-5</text>
<text x="59.2" y="240.3" text-anchor="end" font-size="12" font-family="Verdana">0</text>
<text x="59.2" y="155.1" text-anchor="end" font-size="12" font-family="Verdana">10</text>
<text x="59.2" y="69.82" text-anchor="end" font-size="12" font-family="Verdana">20</text>
<text x="59.2" y="240.3" text-anchor="end" font-size="12" font-family="Verdana">0</text>
<text x="59.2" y="325.6" text-anchor="end" font-size="12" font-family="Verdana">-10</text></g>
<g id="yLabel">
<text x="30.2" y="200.1" text-anchor="middle" transform = "rotate(-90 30.2 200.1 )" font-size="14" font-family="Verdana">laguerre(n, x)</text></g>
<g id="xLabel">
<text x="272.5" y="384" text-anchor="middle" font-size="14" font-family="Verdana">x</text></g>
<g id="plotLines" stroke-width="2"><g clip-path="url(#plot_window)" stroke="rgb(0,0,139)" stroke-width="1"><path d="M70.2,229.4 L72.14,229.4 L74.08,229.4 L76.01,229.4 L77.95,229.4 L79.89,229.4 L81.83,229.4 L83.77,229.4 L85.7,229.4 L87.64,229.4 L89.58,229.4 L91.52,229.4 L93.46,229.4 L95.39,229.4 L97.33,229.4 L99.27,229.4 L101.2,229.4 L103.1,229.4 L105.1,229.4 L107,229.4 L109,229.4 L110.9,229.4 L112.8,229.4 L114.8,229.4 L116.7,229.4 L118.6,229.4 L120.6,229.4 L122.5,229.4 L124.5,229.4 L126.4,229.4 L128.3,229.4 L130.3,229.4 L132.2,229.4 L134.2,229.4 L136.1,229.4 L138,229.4 L140,229.4 L141.9,229.4 L143.8,229.4 L145.8,229.4 L147.7,229.4 L149.7,229.4 L151.6,229.4 L153.5,229.4 L155.5,229.4 L157.4,229.4 L159.3,229.4 L161.3,229.4 L163.2,229.4 L165.2,229.4 L167.1,229.4 L169,229.4 L171,229.4 L172.9,229.4 L174.8,229.4 L176.8,229.4 L178.7,229.4 L180.7,229.4 L182.6,229.4 L184.5,229.4 L186.5,229.4 L188.4,229.4 L190.4,229.4 L192.3,229.4 L194.2,229.4 L196.2,229.4 L198.1,229.4 L200,229.4 L202,229.4 L203.9,229.4 L205.9,229.4 L207.8,229.4 L209.7,229.4 L211.7,229.4 L213.6,229.4 L215.5,229.4 L217.5,229.4 L219.4,229.4 L221.4,229.4 L223.3,229.4 L225.2,229.4 L227.2,229.4 L229.1,229.4 L231,229.4 L233,229.4 L234.9,229.4 L236.9,229.4 L238.8,229.4 L240.7,229.4 L242.7,229.4 L244.6,229.4 L246.6,229.4 L248.5,229.4 L250.4,229.4 L252.4,229.4 L254.3,229.4 L256.2,229.4 L258.2,229.4 L260.1,229.4 L262.1,229.4 L264,229.4 L265.9,229.4 L267.9,229.4 L269.8,229.4 L271.7,229.4 L273.7,229.4 L275.6,229.4 L277.6,229.4 L279.5,229.4 L281.4,229.4 L283.4,229.4 L285.3,229.4 L287.2,229.4 L289.2,229.4 L291.1,229.4 L293.1,229.4 L295,229.4 L296.9,229.4 L298.9,229.4 L300.8,229.4 L302.8,229.4 L304.7,229.4 L306.6,229.4 L308.6,229.4 L310.5,229.4 L312.4,229.4 L314.4,229.4 L316.3,229.4 L318.3,229.4 L320.2,229.4 L322.1,229.4 L324.1,229.4 L326,229.4 L327.9,229.4 L329.9,229.4 L331.8,229.4 L333.8,229.4 L335.7,229.4 L337.6,229.4 L339.6,229.4 L341.5,229.4 L343.4,229.4 L345.4,229.4 L347.3,229.4 L349.3,229.4 L351.2,229.4 L353.1,229.4 L355.1,229.4 L357,229.4 L359,229.4 L360.9,229.4 L362.8,229.4 L364.8,229.4 L366.7,229.4 L368.6,229.4 L370.6,229.4 L372.5,229.4 L374.5,229.4 L376.4,229.4 L378.3,229.4 L380.3,229.4 L382.2,229.4 L384.1,229.4 L386.1,229.4 L388,229.4 L390,229.4 L391.9,229.4 L393.8,229.4 L395.8,229.4 L397.7,229.4 L399.6,229.4 L401.6,229.4 L403.5,229.4 L405.5,229.4 L407.4,229.4 L409.3,229.4 L411.3,229.4 L413.2,229.4 L415.1,229.4 L417.1,229.4 L419,229.4 L421,229.4 L422.9,229.4 L424.8,229.4 L426.8,229.4 L428.7,229.4 L430.7,229.4 L432.6,229.4 L434.5,229.4 L436.5,229.4 L438.4,229.4 L440.3,229.4 L442.3,229.4 L444.2,229.4 L446.2,229.4 L448.1,229.4 L450,229.4 L452,229.4 L453.9,229.4 L455.8,229.4 L457.8,229.4 " fill="none"/></g>
<g clip-path="url(#plot_window)" stroke="rgb(139,0,0)" stroke-width="1"><path d="M70.2,186.8 L72.14,187.4 L74.08,188 L76.01,188.7 L77.95,189.3 L79.89,190 L81.83,190.6 L83.77,191.2 L85.7,191.9 L87.64,192.5 L89.58,193.2 L91.52,193.8 L93.46,194.4 L95.39,195.1 L97.33,195.7 L99.27,196.4 L101.2,197 L103.1,197.6 L105.1,198.3 L107,198.9 L109,199.5 L110.9,200.2 L112.8,200.8 L114.8,201.5 L116.7,202.1 L118.6,202.7 L120.6,203.4 L122.5,204 L124.5,204.7 L126.4,205.3 L128.3,205.9 L130.3,206.6 L132.2,207.2 L134.2,207.9 L136.1,208.5 L138,209.1 L140,209.8 L141.9,210.4 L143.8,211.1 L145.8,211.7 L147.7,212.3 L149.7,213 L151.6,213.6 L153.5,214.3 L155.5,214.9 L157.4,215.5 L159.3,216.2 L161.3,216.8 L163.2,217.5 L165.2,218.1 L167.1,218.7 L169,219.4 L171,220 L172.9,220.6 L174.8,221.3 L176.8,221.9 L178.7,222.6 L180.7,223.2 L182.6,223.8 L184.5,224.5 L186.5,225.1 L188.4,225.8 L190.4,226.4 L192.3,227 L194.2,227.7 L196.2,228.3 L198.1,229 L200,229.6 L202,230.2 L203.9,230.9 L205.9,231.5 L207.8,232.2 L209.7,232.8 L211.7,233.4 L213.6,234.1 L215.5,234.7 L217.5,235.4 L219.4,236 L221.4,236.6 L223.3,237.3 L225.2,237.9 L227.2,238.5 L229.1,239.2 L231,239.8 L233,240.5 L234.9,241.1 L236.9,241.7 L238.8,242.4 L240.7,243 L242.7,243.7 L244.6,244.3 L246.6,244.9 L248.5,245.6 L250.4,246.2 L252.4,246.9 L254.3,247.5 L256.2,248.1 L258.2,248.8 L260.1,249.4 L262.1,250.1 L264,250.7 L265.9,251.3 L267.9,252 L269.8,252.6 L271.7,253.3 L273.7,253.9 L275.6,254.5 L277.6,255.2 L279.5,255.8 L281.4,256.5 L283.4,257.1 L285.3,257.7 L287.2,258.4 L289.2,259 L291.1,259.6 L293.1,260.3 L295,260.9 L296.9,261.6 L298.9,262.2 L300.8,262.8 L302.8,263.5 L304.7,264.1 L306.6,264.8 L308.6,265.4 L310.5,266 L312.4,266.7 L314.4,267.3 L316.3,268 L318.3,268.6 L320.2,269.2 L322.1,269.9 L324.1,270.5 L326,271.2 L327.9,271.8 L329.9,272.4 L331.8,273.1 L333.8,273.7 L335.7,274.4 L337.6,275 L339.6,275.6 L341.5,276.3 L343.4,276.9 L345.4,277.6 L347.3,278.2 L349.3,278.8 L351.2,279.5 L353.1,280.1 L355.1,280.7 L357,281.4 L359,282 L360.9,282.7 L362.8,283.3 L364.8,283.9 L366.7,284.6 L368.6,285.2 L370.6,285.9 L372.5,286.5 L374.5,287.1 L376.4,287.8 L378.3,288.4 L380.3,289.1 L382.2,289.7 L384.1,290.3 L386.1,291 L388,291.6 L390,292.3 L391.9,292.9 L393.8,293.5 L395.8,294.2 L397.7,294.8 L399.6,295.5 L401.6,296.1 L403.5,296.7 L405.5,297.4 L407.4,298 L409.3,298.6 L411.3,299.3 L413.2,299.9 L415.1,300.6 L417.1,301.2 L419,301.8 L421,302.5 L422.9,303.1 L424.8,303.8 L426.8,304.4 L428.7,305 L430.7,305.7 L432.6,306.3 L434.5,307 L436.5,307.6 L438.4,308.2 L440.3,308.9 L442.3,309.5 L444.2,310.2 L446.2,310.8 L448.1,311.4 L450,312.1 L452,312.7 L453.9,313.4 L455.8,314 L457.8,314.6 " fill="none"/></g>
<g clip-path="url(#plot_window)" stroke="rgb(0,100,0)" stroke-width="1"><path d="M83.62,67.42 L85.29,70.98 L86.97,74.5 L88.64,78 L90.32,81.45 L91.99,84.87 L93.66,88.25 L95.34,91.6 L97.01,94.91 L98.69,98.19 L100.4,101.4 L102,104.6 L103.7,107.8 L105.4,110.9 L107.1,114 L108.7,117.1 L110.4,120.1 L112.1,123.1 L113.8,126.1 L115.4,129 L117.1,131.9 L118.8,134.7 L120.5,137.5 L122.1,140.3 L123.8,143 L125.5,145.7 L127.2,148.4 L128.8,151 L130.5,153.6 L132.2,156.2 L133.9,158.7 L135.5,161.2 L137.2,163.7 L138.9,166.1 L140.6,168.5 L142.2,170.8 L143.9,173.1 L145.6,175.4 L147.3,177.6 L148.9,179.8 L150.6,182 L152.3,184.1 L153.9,186.2 L155.6,188.3 L157.3,190.3 L159,192.3 L160.6,194.2 L162.3,196.1 L164,198 L165.7,199.9 L167.3,201.7 L169,203.5 L170.7,205.2 L172.4,206.9 L174,208.6 L175.7,210.2 L177.4,211.8 L179.1,213.3 L180.7,214.9 L182.4,216.3 L184.1,217.8 L185.8,219.2 L187.4,220.6 L189.1,221.9 L190.8,223.2 L192.5,224.5 L194.1,225.7 L195.8,226.9 L197.5,228.1 L199.2,229.2 L200.8,230.3 L202.5,231.4 L204.2,232.4 L205.9,233.4 L207.5,234.3 L209.2,235.2 L210.9,236.1 L212.6,237 L214.2,237.8 L215.9,238.5 L217.6,239.3 L219.3,240 L220.9,240.6 L222.6,241.3 L224.3,241.9 L226,242.4 L227.6,242.9 L229.3,243.4 L231,243.9 L232.7,244.3 L234.3,244.6 L236,245 L237.7,245.3 L239.4,245.6 L241,245.8 L242.7,246 L244.4,246.1 L246,246.3 L247.7,246.4 L249.4,246.4 L251.1,246.4 L252.7,246.4 L254.4,246.4 L256.1,246.3 L257.8,246.1 L259.4,246 L261.1,245.8 L262.8,245.6 L264.5,245.3 L266.1,245 L267.8,244.6 L269.5,244.3 L271.2,243.9 L272.8,243.4 L274.5,242.9 L276.2,242.4 L277.9,241.9 L279.5,241.3 L281.2,240.6 L282.9,240 L284.6,239.3 L286.2,238.5 L287.9,237.8 L289.6,237 L291.3,236.1 L292.9,235.2 L294.6,234.3 L296.3,233.4 L298,232.4 L299.6,231.4 L301.3,230.3 L303,229.2 L304.7,228.1 L306.3,226.9 L308,225.7 L309.7,224.5 L311.4,223.2 L313,221.9 L314.7,220.6 L316.4,219.2 L318.1,217.8 L319.7,216.3 L321.4,214.9 L323.1,213.3 L324.8,211.8 L326.4,210.2 L328.1,208.6 L329.8,206.9 L331.5,205.2 L333.1,203.5 L334.8,201.7 L336.5,199.9 L338.1,198 L339.8,196.1 L341.5,194.2 L343.2,192.3 L344.8,190.3 L346.5,188.3 L348.2,186.2 L349.9,184.1 L351.5,182 L353.2,179.8 L354.9,177.6 L356.6,175.4 L358.2,173.1 L359.9,170.8 L361.6,168.5 L363.3,166.1 L364.9,163.7 L366.6,161.2 L368.3,158.7 L370,156.2 L371.6,153.6 L373.3,151 L375,148.4 L376.7,145.7 L378.3,143 L380,140.3 L381.7,137.5 L383.4,134.7 L385,131.9 L386.7,129 L388.4,126.1 L390.1,123.1 L391.7,120.1 L393.4,117.1 L395.1,114 L396.8,110.9 L398.4,107.8 L400.1,104.6 L401.8,101.4 L403.5,98.19 L405.1,94.91 L406.8,91.6 L408.5,88.25 L410.2,84.87 L411.8,81.45 L413.5,78 L415.2,74.5 L416.9,70.98 L418.5,67.42 " fill="none"/></g>
<g clip-path="url(#plot_window)" stroke="rgb(255,140,0)" stroke-width="1"><path d="M135.7,67.42 L137.1,73.34 L138.4,79.14 L139.8,84.82 L141.1,90.37 L142.5,95.8 L143.8,101.1 L145.2,106.3 L146.5,111.4 L147.9,116.3 L149.2,121.1 L150.6,125.9 L151.9,130.5 L153.3,135 L154.6,139.3 L156,143.6 L157.3,147.8 L158.7,151.8 L160,155.8 L161.4,159.6 L162.8,163.4 L164.1,167 L165.5,170.5 L166.8,173.9 L168.2,177.3 L169.5,180.5 L170.9,183.6 L172.2,186.7 L173.6,189.6 L174.9,192.5 L176.3,195.2 L177.6,197.9 L179,200.5 L180.3,203 L181.7,205.4 L183,207.7 L184.4,209.9 L185.7,212.1 L187.1,214.1 L188.4,216.1 L189.8,218 L191.1,219.9 L192.5,221.6 L193.8,223.3 L195.2,224.9 L196.6,226.4 L197.9,227.9 L199.3,229.2 L200.6,230.6 L202,231.8 L203.3,233 L204.7,234.1 L206,235.1 L207.4,236.1 L208.7,237 L210.1,237.9 L211.4,238.7 L212.8,239.4 L214.1,240.1 L215.5,240.7 L216.8,241.3 L218.2,241.8 L219.5,242.2 L220.9,242.6 L222.2,243 L223.6,243.3 L224.9,243.5 L226.3,243.8 L227.6,243.9 L229,244 L230.4,244.1 L231.7,244.1 L233.1,244.1 L234.4,244.1 L235.8,244 L237.1,243.9 L238.5,243.7 L239.8,243.5 L241.2,243.3 L242.5,243.1 L243.9,242.8 L245.2,242.4 L246.6,242.1 L247.9,241.7 L249.3,241.3 L250.6,240.9 L252,240.4 L253.3,240 L254.7,239.5 L256,239 L257.4,238.4 L258.7,237.9 L260.1,237.3 L261.4,236.7 L262.8,236.1 L264.1,235.5 L265.5,234.9 L266.9,234.3 L268.2,233.6 L269.6,233 L270.9,232.3 L272.3,231.7 L273.6,231 L275,230.3 L276.3,229.7 L277.7,229 L279,228.3 L280.4,227.7 L281.7,227 L283.1,226.4 L284.4,225.7 L285.8,225.1 L287.1,224.4 L288.5,223.8 L289.8,223.2 L291.2,222.6 L292.5,222 L293.9,221.4 L295.2,220.8 L296.6,220.3 L297.9,219.7 L299.3,219.2 L300.7,218.7 L302,218.3 L303.4,217.8 L304.7,217.4 L306.1,217 L307.4,216.6 L308.8,216.3 L310.1,216 L311.5,215.7 L312.8,215.4 L314.2,215.2 L315.5,215 L316.9,214.9 L318.2,214.7 L319.6,214.7 L320.9,214.6 L322.3,214.6 L323.6,214.7 L325,214.7 L326.3,214.9 L327.7,215 L329,215.3 L330.4,215.5 L331.7,215.8 L333.1,216.2 L334.5,216.6 L335.8,217.1 L337.2,217.6 L338.5,218.2 L339.9,218.8 L341.2,219.5 L342.6,220.2 L343.9,221 L345.3,221.9 L346.6,222.8 L348,223.8 L349.3,224.8 L350.7,225.9 L352,227.1 L353.4,228.4 L354.7,229.7 L356.1,231.1 L357.4,232.5 L358.8,234.1 L360.1,235.7 L361.5,237.4 L362.8,239.1 L364.2,241 L365.5,242.9 L366.9,244.9 L368.3,246.9 L369.6,249.1 L371,251.3 L372.3,253.7 L373.7,256.1 L375,258.6 L376.4,261.2 L377.7,263.9 L379.1,266.6 L380.4,269.5 L381.8,272.4 L383.1,275.5 L384.5,278.6 L385.8,281.9 L387.2,285.2 L388.5,288.7 L389.9,292.2 L391.2,295.9 L392.6,299.6 L393.9,303.5 L395.3,307.4 L396.6,311.5 L398,315.7 L399.3,319.9 L400.7,324.3 L402.1,328.8 L403.4,333.5 L404.8,338.2 " fill="none"/></g>
<g clip-path="url(#plot_window)" stroke="rgb(127,255,0)" stroke-width="1"><path d="M155.6,67.42 L157.1,77.84 L158.7,87.84 L160.3,97.43 L161.8,106.6 L163.4,115.4 L164.9,123.8 L166.5,131.8 L168,139.4 L169.6,146.7 L171.1,153.6 L172.7,160.2 L174.3,166.5 L175.8,172.4 L177.4,178 L178.9,183.4 L180.5,188.4 L182,193.2 L183.6,197.6 L185.2,201.8 L186.7,205.8 L188.3,209.5 L189.8,213 L191.4,216.2 L192.9,219.2 L194.5,222 L196.1,224.5 L197.6,226.9 L199.2,229.1 L200.7,231.1 L202.3,232.9 L203.8,234.5 L205.4,236 L206.9,237.3 L208.5,238.5 L210.1,239.5 L211.6,240.4 L213.2,241.1 L214.7,241.8 L216.3,242.3 L217.8,242.7 L219.4,243 L221,243.2 L222.5,243.3 L224.1,243.3 L225.6,243.2 L227.2,243.1 L228.7,242.9 L230.3,242.6 L231.8,242.2 L233.4,241.9 L235,241.4 L236.5,240.9 L238.1,240.4 L239.6,239.8 L241.2,239.3 L242.7,238.6 L244.3,238 L245.9,237.3 L247.4,236.7 L249,236 L250.5,235.3 L252.1,234.6 L253.6,233.9 L255.2,233.3 L256.8,232.6 L258.3,231.9 L259.9,231.3 L261.4,230.7 L263,230.1 L264.5,229.5 L266.1,229 L267.6,228.5 L269.2,228 L270.8,227.5 L272.3,227.1 L273.9,226.8 L275.4,226.5 L277,226.2 L278.5,225.9 L280.1,225.8 L281.7,225.6 L283.2,225.5 L284.8,225.5 L286.3,225.5 L287.9,225.6 L289.4,225.8 L291,226 L292.5,226.2 L294.1,226.5 L295.7,226.9 L297.2,227.3 L298.8,227.8 L300.3,228.4 L301.9,229 L303.4,229.7 L305,230.4 L306.6,231.2 L308.1,232.1 L309.7,233 L311.2,234 L312.8,235.1 L314.3,236.2 L315.9,237.3 L317.5,238.6 L319,239.9 L320.6,241.2 L322.1,242.6 L323.7,244 L325.2,245.5 L326.8,247.1 L328.3,248.7 L329.9,250.3 L331.5,252 L333,253.7 L334.6,255.5 L336.1,257.3 L337.7,259.1 L339.2,261 L340.8,262.9 L342.4,264.9 L343.9,266.8 L345.5,268.8 L347,270.8 L348.6,272.8 L350.1,274.9 L351.7,276.9 L353.2,279 L354.8,281 L356.4,283.1 L357.9,285.1 L359.5,287.2 L361,289.2 L362.6,291.2 L364.1,293.2 L365.7,295.2 L367.3,297.1 L368.8,299 L370.4,300.9 L371.9,302.7 L373.5,304.4 L375,306.1 L376.6,307.8 L378.2,309.4 L379.7,310.9 L381.3,312.4 L382.8,313.7 L384.4,315 L385.9,316.2 L387.5,317.3 L389,318.2 L390.6,319.1 L392.2,319.9 L393.7,320.5 L395.3,321 L396.8,321.4 L398.4,321.6 L399.9,321.6 L401.5,321.6 L403.1,321.3 L404.6,320.9 L406.2,320.3 L407.7,319.5 L409.3,318.5 L410.8,317.3 L412.4,316 L413.9,314.3 L415.5,312.5 L417.1,310.5 L418.6,308.2 L420.2,305.6 L421.7,302.8 L423.3,299.7 L424.8,296.4 L426.4,292.7 L428,288.8 L429.5,284.6 L431.1,280 L432.6,275.2 L434.2,270 L435.7,264.5 L437.3,258.6 L438.9,252.4 L440.4,245.8 L442,238.8 L443.5,231.4 L445.1,223.7 L446.6,215.5 L448.2,206.9 L449.7,197.9 L451.3,188.4 L452.9,178.5 L454.4,168.2 L456,157.4 L457.5,146 L459.1,134.2 L460.6,121.9 L462.2,109.1 L463.8,95.75 L465.3,81.86 L466.9,67.42 " fill="none"/></g>
<g clip-path="url(#plot_window)" stroke="rgb(0,0,139)" stroke-width="1"><path d="M166,67.42 L167.3,79.4 L168.7,90.79 L170,101.6 L171.3,111.9 L172.6,121.6 L174,130.8 L175.3,139.5 L176.6,147.7 L177.9,155.5 L179.2,162.8 L180.6,169.7 L181.9,176.1 L183.2,182.2 L184.5,187.9 L185.9,193.2 L187.2,198.1 L188.5,202.7 L189.8,207 L191.1,210.9 L192.5,214.6 L193.8,218 L195.1,221.1 L196.4,223.9 L197.8,226.5 L199.1,228.9 L200.4,231 L201.7,232.9 L203,234.6 L204.4,236.1 L205.7,237.4 L207,238.6 L208.3,239.6 L209.7,240.4 L211,241.1 L212.3,241.7 L213.6,242.1 L214.9,242.5 L216.3,242.7 L217.6,242.8 L218.9,242.8 L220.2,242.8 L221.6,242.6 L222.9,242.4 L224.2,242.1 L225.5,241.8 L226.8,241.4 L228.2,241 L229.5,240.5 L230.8,240 L232.1,239.5 L233.5,239 L234.8,238.4 L236.1,237.8 L237.4,237.2 L238.7,236.7 L240.1,236.1 L241.4,235.5 L242.7,234.9 L244,234.3 L245.4,233.8 L246.7,233.3 L248,232.7 L249.3,232.3 L250.6,231.8 L252,231.4 L253.3,231 L254.6,230.6 L255.9,230.3 L257.3,230 L258.6,229.7 L259.9,229.5 L261.2,229.3 L262.5,229.2 L263.9,229.1 L265.2,229.1 L266.5,229.1 L267.8,229.1 L269.2,229.2 L270.5,229.3 L271.8,229.5 L273.1,229.8 L274.4,230 L275.8,230.4 L277.1,230.7 L278.4,231.1 L279.7,231.6 L281.1,232.1 L282.4,232.6 L283.7,233.2 L285,233.8 L286.3,234.5 L287.7,235.2 L289,235.9 L290.3,236.7 L291.6,237.5 L293,238.3 L294.3,239.2 L295.6,240.1 L296.9,241 L298.2,241.9 L299.6,242.9 L300.9,243.9 L302.2,244.9 L303.5,245.9 L304.9,246.9 L306.2,248 L307.5,249 L308.8,250.1 L310.2,251.2 L311.5,252.2 L312.8,253.3 L314.1,254.3 L315.4,255.4 L316.8,256.4 L318.1,257.5 L319.4,258.5 L320.7,259.5 L322.1,260.5 L323.4,261.4 L324.7,262.3 L326,263.2 L327.3,264.1 L328.7,265 L330,265.7 L331.3,266.5 L332.6,267.2 L334,267.9 L335.3,268.5 L336.6,269.1 L337.9,269.6 L339.2,270 L340.6,270.4 L341.9,270.8 L343.2,271 L344.5,271.2 L345.9,271.4 L347.2,271.4 L348.5,271.4 L349.8,271.3 L351.1,271.1 L352.5,270.9 L353.8,270.5 L355.1,270.1 L356.4,269.5 L357.8,268.9 L359.1,268.2 L360.4,267.4 L361.7,266.5 L363,265.5 L364.4,264.4 L365.7,263.1 L367,261.8 L368.3,260.4 L369.7,258.8 L371,257.2 L372.3,255.4 L373.6,253.5 L374.9,251.5 L376.3,249.4 L377.6,247.2 L378.9,244.8 L380.2,242.4 L381.6,239.8 L382.9,237.1 L384.2,234.3 L385.5,231.3 L386.8,228.3 L388.2,225.1 L389.5,221.8 L390.8,218.4 L392.1,214.8 L393.5,211.2 L394.8,207.4 L396.1,203.5 L397.4,199.5 L398.7,195.3 L400.1,191.1 L401.4,186.7 L402.7,182.3 L404,177.7 L405.4,173 L406.7,168.2 L408,163.3 L409.3,158.3 L410.6,153.2 L412,148 L413.3,142.7 L414.6,137.4 L415.9,131.9 L417.3,126.4 L418.6,120.8 L419.9,115.1 L421.2,109.3 L422.5,103.5 L423.9,97.6 L425.2,91.65 L426.5,85.66 L427.8,79.62 L429.2,73.53 " fill="none"/></g>
</g>
<g id="plotPoints" clip-path="url(#plot_window)"><g stroke="rgb(0,0,0)"></g>
<g stroke="rgb(0,0,0)"></g>
<g stroke="rgb(0,0,0)"></g>
<g stroke="rgb(0,0,0)"></g>
<g stroke="rgb(0,0,0)"></g>
<g stroke="rgb(0,0,0)"></g>
</g>
<g id="limitPoints" stroke="rgb(119,136,153)" fill="rgb(250,235,215)"></g>
<g id="legendBackground" stroke="rgb(119,136,153)" fill="rgb(255,255,255)" stroke-width="1"><rect x="488.8" y="62" width="99.2" height="182"/><rect x="488.8" y="62" width="99.2" height="182"/></g>
<g id="legendPoints"><g stroke="rgb(0,0,139)" stroke-width="1"><line x1="502.8" y1="90" x2="516.8" y2="90"/></g>
<g stroke="rgb(139,0,0)" stroke-width="1"><line x1="502.8" y1="118" x2="516.8" y2="118"/></g>
<g stroke="rgb(0,100,0)" stroke-width="1"><line x1="502.8" y1="146" x2="516.8" y2="146"/></g>
<g stroke="rgb(255,140,0)" stroke-width="1"><line x1="502.8" y1="174" x2="516.8" y2="174"/></g>
<g stroke="rgb(127,255,0)" stroke-width="1"><line x1="502.8" y1="202" x2="516.8" y2="202"/></g>
<g stroke="rgb(0,0,139)" stroke-width="1"><line x1="502.8" y1="230" x2="516.8" y2="230"/></g>
</g>
<g id="legendText">
<text x="523.8" y="90" font-size="14" font-family="Verdana">n = 0</text>
<text x="523.8" y="118" font-size="14" font-family="Verdana">n = 1</text>
<text x="523.8" y="146" font-size="14" font-family="Verdana">n = 2</text>
<text x="523.8" y="174" font-size="14" font-family="Verdana">n = 3</text>
<text x="523.8" y="202" font-size="14" font-family="Verdana">n = 4</text>
<text x="523.8" y="230" font-size="14" font-family="Verdana">n = 5</text></g>
<g id="title">
<text x="300" y="40" text-anchor="middle" font-size="20" font-family="Verdana">Laguerre Polynomials</text></g>
</svg>
