<?xml version="1.0" encoding="UTF-8" standalone="no"?>
<svg width="600" height ="400" version="1.1" xmlns="http://www.w3.org/2000/svg"
 xmlns:xlink="http://www.w3.org/1999/xlink"
 xmlns:ev="http://www.w3.org/2001/xml-events">

<!-- SVG plot written using Boost.Plot program (Creator Jacob Voytko) --> 
<!-- Use, modification and distribution of Boost.Plot subject to the --> 
<!-- Boost Software License, Version 1.0.--> 
<!-- (See accompanying file LICENSE_1_0.txt --> 
<!-- or copy at http://www.boost.org/LICENSE_1_0.txt) --> 

<!-- SVG Plot Copyright John Maddock 2008 --> 
<meta name="copyright" content="John Maddock" />
<meta name="date" content="2008" />
<!-- Use, modification and distribution of this Scalable Vector Graphic file -->
<!-- are subject to the Boost Software License, Version 1.0. -->
<!-- (See accompanying file LICENSE_1_0.txt or copy at http://www.boost.org/LICENSE_1_0.txt) -->

<clipPath id="plot_window"><rect x="79.6" y="63" width="394.2" height="274.2"/></clipPath>
<g id="imageBackground" stroke="rgb(119,136,153)" fill="rgb(255,255,255)" stroke-width="2"><rect x="0" y="0" width="600" height="400"/></g>
<g id="plotBackground" stroke="rgb(119,136,153)" fill="rgb(255,255,255)" stroke-width="2"><rect x="78.6" y="62" width="396.2" height="276.2"/></g>
<g id="yMinorGrid" stroke="rgb(200,220,255)" stroke-width="0.5"></g>
<g id="yMajorGrid" stroke="rgb(200,220,255)" stroke-width="1"></g>
<g id="xMinorGrid" stroke="rgb(200,220,255)" stroke-width="0.5"></g>
<g id="xMajorGrid" stroke="rgb(200,220,255)" stroke-width="1"></g>
<g id="yAxis" stroke="rgb(0,0,0)" stroke-width="1"><line x1="272.8" y1="62" x2="272.8" y2="343.2"/><line x1="78.6" y1="62" x2="78.6" y2="338.2"/></g>
<g id="xAxis" stroke="rgb(0,0,0)" stroke-width="1"><line x1="73.6" y1="193.7" x2="474.8" y2="193.7"/><line x1="73.6" y1="338.2" x2="474.8" y2="338.2"/></g>
<g id="yMinorTicks" stroke="rgb(0,0,0)" stroke-width="1"><path d="M76.6,175.7 L78.6,175.7 M76.6,157.6 L78.6,157.6 M76.6,139.6 L78.6,139.6 M76.6,103.5 L78.6,103.5 M76.6,85.39 L78.6,85.39 M76.6,67.34 L78.6,67.34 M76.6,193.7 L78.6,193.7 M76.6,211.8 L78.6,211.8 M76.6,229.9 L78.6,229.9 M76.6,247.9 L78.6,247.9 M76.6,266 L78.6,266 M76.6,284 L78.6,284 M76.6,302.1 L78.6,302.1 M76.6,320.1 L78.6,320.1 M76.6,338.2 L78.6,338.2 "/></g>
<g id="xMinorTicks" stroke="rgb(0,0,0)" stroke-width="1"><path d="M298.4,338.2 L298.4,340.2 M323.9,338.2 L323.9,340.2 M349.5,338.2 L349.5,340.2 M400.6,338.2 L400.6,340.2 M426.1,338.2 L426.1,340.2 M451.7,338.2 L451.7,340.2 M247.3,338.2 L247.3,340.2 M221.7,338.2 L221.7,340.2 M196.2,338.2 L196.2,340.2 M145,338.2 L145,340.2 M119.5,338.2 L119.5,340.2 M93.93,338.2 L93.93,340.2 "/></g>
<g id="yMajorTicks" stroke="rgb(0,0,0)" stroke-width="2"><path d="M73.6,193.7 L78.6,193.7 M73.6,121.5 L78.6,121.5 M73.6,193.7 L78.6,193.7 M73.6,266 L78.6,266 M73.6,338.2 L78.6,338.2 "/></g>
<g id="xMajorTicks" stroke="rgb(0,0,0)" stroke-width="2"><path d="M272.8,338.2 L272.8,343.2 M375,338.2 L375,343.2 M272.8,338.2 L272.8,343.2 M170.6,338.2 L170.6,343.2 "/></g>
<g id="plotLabels">
<text x="272.8" y="357.6" text-anchor="middle" font-size="12" font-family="Verdana">0</text>
<text x="375" y="357.6" text-anchor="middle" font-size="12" font-family="Verdana">0.5</text>
<text x="272.8" y="357.6" text-anchor="middle" font-size="12" font-family="Verdana">0</text>
<text x="170.6" y="357.6" text-anchor="middle" font-size="12" font-family="Verdana">-0.5</text>
<text x="67.6" y="196.1" text-anchor="end" font-size="12" font-family="Verdana">0</text>
<text x="67.6" y="123.9" text-anchor="end" font-size="12" font-family="Verdana">0.5</text>
<text x="67.6" y="196.1" text-anchor="end" font-size="12" font-family="Verdana">0</text>
<text x="67.6" y="268.4" text-anchor="end" font-size="12" font-family="Verdana">-0.5</text>
<text x="67.6" y="340.6" text-anchor="end" font-size="12" font-family="Verdana">-1</text></g>
<g id="yLabel">
<text x="30.2" y="200.1" text-anchor="middle" transform = "rotate(-90 30.2 200.1 )" font-size="14" font-family="Verdana">legendre_q(l, x)</text></g>
<g id="xLabel">
<text x="276.7" y="384" text-anchor="middle" font-size="14" font-family="Verdana">x</text></g>
<g id="plotLines" stroke-width="2"><g clip-path="url(#plot_window)" stroke="rgb(0,0,139)" stroke-width="1"><path d="M78.6,86.81 L80.54,101.5 L82.48,114.2 L84.43,125.4 L86.37,135.4 L88.31,144.5 L90.25,152.9 L92.2,160.6 L94.14,167.8 L96.08,174.5 L98.02,180.8 L99.96,186.7 L101.9,192.3 L103.8,197.7 L105.8,202.7 L107.7,207.6 L109.7,212.2 L111.6,216.6 L113.6,220.8 L115.5,224.9 L117.4,228.8 L119.4,232.6 L121.3,236.2 L123.3,239.7 L125.2,243.1 L127.2,246.4 L129.1,249.5 L131,252.6 L133,255.5 L134.9,258.4 L136.9,261.2 L138.8,263.9 L140.7,266.5 L142.7,269 L144.6,271.5 L146.6,273.9 L148.5,276.2 L150.5,278.5 L152.4,280.7 L154.3,282.8 L156.3,284.9 L158.2,286.9 L160.2,288.9 L162.1,290.8 L164.1,292.6 L166,294.4 L167.9,296.2 L169.9,297.9 L171.8,299.6 L173.8,301.2 L175.7,302.8 L177.6,304.3 L179.6,305.8 L181.5,307.2 L183.5,308.6 L185.4,310 L187.4,311.3 L189.3,312.6 L191.2,313.8 L193.2,315.1 L195.1,316.2 L197.1,317.4 L199,318.5 L201,319.6 L202.9,320.6 L204.8,321.6 L206.8,322.6 L208.7,323.5 L210.7,324.4 L212.6,325.3 L214.6,326.1 L216.5,326.9 L218.4,327.7 L220.4,328.5 L222.3,329.2 L224.3,329.9 L226.2,330.6 L228.1,331.2 L230.1,331.8 L232,332.4 L234,332.9 L235.9,333.4 L237.9,333.9 L239.8,334.4 L241.7,334.8 L243.7,335.2 L245.6,335.6 L247.6,336 L249.5,336.3 L251.5,336.6 L253.4,336.9 L255.3,337.1 L257.3,337.4 L259.2,337.6 L261.2,337.7 L263.1,337.9 L265,338 L267,338.1 L268.9,338.1 L270.9,338.2 L272.8,338.2 L274.8,338.2 L276.7,338.1 L278.6,338.1 L280.6,338 L282.5,337.9 L284.5,337.7 L286.4,337.6 L288.4,337.4 L290.3,337.1 L292.2,336.9 L294.2,336.6 L296.1,336.3 L298.1,336 L300,335.6 L301.9,335.2 L303.9,334.8 L305.8,334.4 L307.8,333.9 L309.7,333.4 L311.7,332.9 L313.6,332.4 L315.5,331.8 L317.5,331.2 L319.4,330.6 L321.4,329.9 L323.3,329.2 L325.3,328.5 L327.2,327.7 L329.1,326.9 L331.1,326.1 L333,325.3 L335,324.4 L336.9,323.5 L338.8,322.6 L340.8,321.6 L342.7,320.6 L344.7,319.6 L346.6,318.5 L348.6,317.4 L350.5,316.2 L352.4,315.1 L354.4,313.8 L356.3,312.6 L358.3,311.3 L360.2,310 L362.2,308.6 L364.1,307.2 L366,305.8 L368,304.3 L369.9,302.8 L371.9,301.2 L373.8,299.6 L375.7,297.9 L377.7,296.2 L379.6,294.4 L381.6,292.6 L383.5,290.8 L385.5,288.9 L387.4,286.9 L389.3,284.9 L391.3,282.8 L393.2,280.7 L395.2,278.5 L397.1,276.2 L399.1,273.9 L401,271.5 L402.9,269 L404.9,266.5 L406.8,263.9 L408.8,261.2 L410.7,258.4 L412.7,255.5 L414.6,252.6 L416.5,249.5 L418.5,246.4 L420.4,243.1 L422.4,239.7 L424.3,236.2 L426.2,232.6 L428.2,228.8 L430.1,224.9 L432.1,220.8 L434,216.6 L436,212.2 L437.9,207.6 L439.8,202.7 L441.8,197.7 L443.7,192.3 L445.7,186.7 L447.6,180.8 L449.6,174.5 L451.5,167.8 L453.4,160.6 L455.4,152.9 L457.3,144.5 L459.3,135.4 L461.2,125.4 L463.1,114.2 L465.1,101.5 L467,86.81 " fill="none"/></g>
<g clip-path="url(#plot_window)" stroke="rgb(139,0,0)" stroke-width="1"><path d="M78.6,213.8 L80.54,198.1 L82.48,184.6 L84.43,172.8 L86.37,162.4 L88.31,153.1 L90.25,144.7 L92.2,137.1 L94.14,130.3 L96.08,124 L98.02,118.3 L99.96,113.1 L101.9,108.3 L103.8,103.8 L105.8,99.81 L107.7,96.1 L109.7,92.7 L111.6,89.59 L113.6,86.74 L115.5,84.14 L117.4,81.78 L119.4,79.64 L121.3,77.71 L123.3,75.97 L125.2,74.42 L127.2,73.05 L129.1,71.85 L131,70.8 L133,69.91 L134.9,69.16 L136.9,68.56 L138.8,68.08 L140.7,67.74 L142.7,67.52 L144.6,67.42 L146.6,67.43 L148.5,67.55 L150.5,67.77 L152.4,68.1 L154.3,68.52 L156.3,69.04 L158.2,69.65 L160.2,70.35 L162.1,71.13 L164.1,72 L166,72.94 L167.9,73.96 L169.9,75.05 L171.8,76.22 L173.8,77.45 L175.7,78.76 L177.6,80.12 L179.6,81.55 L181.5,83.04 L183.5,84.59 L185.4,86.2 L187.4,87.86 L189.3,89.57 L191.2,91.34 L193.2,93.15 L195.1,95.02 L197.1,96.93 L199,98.88 L201,100.9 L202.9,102.9 L204.8,105 L206.8,107.1 L208.7,109.3 L210.7,111.5 L212.6,113.7 L214.6,116 L216.5,118.3 L218.4,120.6 L220.4,122.9 L222.3,125.3 L224.3,127.7 L226.2,130.2 L228.1,132.6 L230.1,135.1 L232,137.6 L234,140.2 L235.9,142.7 L237.9,145.3 L239.8,147.9 L241.7,150.5 L243.7,153.1 L245.6,155.8 L247.6,158.4 L249.5,161.1 L251.5,163.8 L253.4,166.5 L255.3,169.2 L257.3,171.9 L259.2,174.6 L261.2,177.3 L263.1,180 L265,182.8 L267,185.5 L268.9,188.3 L270.9,191 L272.8,193.7 L274.8,196.5 L276.7,199.2 L278.6,202 L280.6,204.7 L282.5,207.4 L284.5,210.2 L286.4,212.9 L288.4,215.6 L290.3,218.3 L292.2,221 L294.2,223.7 L296.1,226.4 L298.1,229.1 L300,231.7 L301.9,234.3 L303.9,237 L305.8,239.6 L307.8,242.2 L309.7,244.7 L311.7,247.3 L313.6,249.8 L315.5,252.3 L317.5,254.8 L319.4,257.3 L321.4,259.7 L323.3,262.1 L325.3,264.5 L327.2,266.9 L329.1,269.2 L331.1,271.5 L333,273.8 L335,276 L336.9,278.2 L338.8,280.4 L340.8,282.5 L342.7,284.6 L344.7,286.6 L346.6,288.6 L348.6,290.6 L350.5,292.5 L352.4,294.3 L354.4,296.1 L356.3,297.9 L358.3,299.6 L360.2,301.3 L362.2,302.9 L364.1,304.4 L366,305.9 L368,307.4 L369.9,308.7 L371.9,310 L373.8,311.3 L375.7,312.4 L377.7,313.5 L379.6,314.5 L381.6,315.5 L383.5,316.3 L385.5,317.1 L387.4,317.8 L389.3,318.4 L391.3,319 L393.2,319.4 L395.2,319.7 L397.1,319.9 L399.1,320.1 L401,320.1 L402.9,320 L404.9,319.7 L406.8,319.4 L408.8,318.9 L410.7,318.3 L412.7,317.6 L414.6,316.7 L416.5,315.6 L418.5,314.4 L420.4,313.1 L422.4,311.5 L424.3,309.8 L426.2,307.8 L428.2,305.7 L430.1,303.3 L432.1,300.7 L434,297.9 L436,294.8 L437.9,291.4 L439.8,287.7 L441.8,283.6 L443.7,279.2 L445.7,274.4 L447.6,269.2 L449.6,263.5 L451.5,257.2 L453.4,250.3 L455.4,242.8 L457.3,234.4 L459.3,225.1 L461.2,214.7 L463.1,202.9 L465.1,189.4 L467,173.7 " fill="none"/></g>
<g clip-path="url(#plot_window)" stroke="rgb(0,100,0)" stroke-width="1"><path d="M78.6,233.3 L80.54,248.5 L82.48,261 L84.43,271.5 L86.37,280.3 L88.31,287.7 L90.25,294 L92.2,299.2 L94.14,303.5 L96.08,307 L98.02,309.9 L99.96,312.1 L101.9,313.8 L103.8,314.9 L105.8,315.6 L107.7,315.9 L109.7,315.8 L111.6,315.4 L113.6,314.6 L115.5,313.5 L117.4,312.2 L119.4,310.6 L121.3,308.7 L123.3,306.7 L125.2,304.4 L127.2,302 L129.1,299.4 L131,296.6 L133,293.7 L134.9,290.7 L136.9,287.5 L138.8,284.3 L140.7,280.9 L142.7,277.4 L144.6,273.9 L146.6,270.3 L148.5,266.6 L150.5,262.9 L152.4,259.1 L154.3,255.3 L156.3,251.4 L158.2,247.6 L160.2,243.6 L162.1,239.7 L164.1,235.8 L166,231.8 L167.9,227.8 L169.9,223.9 L171.8,219.9 L173.8,216 L175.7,212.1 L177.6,208.2 L179.6,204.3 L181.5,200.5 L183.5,196.6 L185.4,192.9 L187.4,189.1 L189.3,185.4 L191.2,181.8 L193.2,178.2 L195.1,174.6 L197.1,171.1 L199,167.6 L201,164.3 L202.9,160.9 L204.8,157.7 L206.8,154.5 L208.7,151.4 L210.7,148.3 L212.6,145.3 L214.6,142.4 L216.5,139.6 L218.4,136.8 L220.4,134.2 L222.3,131.6 L224.3,129.1 L226.2,126.7 L228.1,124.4 L230.1,122.1 L232,120 L234,117.9 L235.9,115.9 L237.9,114.1 L239.8,112.3 L241.7,110.6 L243.7,109 L245.6,107.6 L247.6,106.2 L249.5,104.9 L251.5,103.7 L253.4,102.6 L255.3,101.6 L257.3,100.8 L259.2,99.98 L261.2,99.31 L263.1,98.73 L265,98.27 L267,97.9 L268.9,97.64 L270.9,97.48 L272.8,97.43 L274.8,97.48 L276.7,97.64 L278.6,97.9 L280.6,98.27 L282.5,98.73 L284.5,99.31 L286.4,99.98 L288.4,100.8 L290.3,101.6 L292.2,102.6 L294.2,103.7 L296.1,104.9 L298.1,106.2 L300,107.6 L301.9,109 L303.9,110.6 L305.8,112.3 L307.8,114.1 L309.7,115.9 L311.7,117.9 L313.6,120 L315.5,122.1 L317.5,124.4 L319.4,126.7 L321.4,129.1 L323.3,131.6 L325.3,134.2 L327.2,136.8 L329.1,139.6 L331.1,142.4 L333,145.3 L335,148.3 L336.9,151.4 L338.8,154.5 L340.8,157.7 L342.7,160.9 L344.7,164.3 L346.6,167.6 L348.6,171.1 L350.5,174.6 L352.4,178.2 L354.4,181.8 L356.3,185.4 L358.3,189.1 L360.2,192.9 L362.2,196.6 L364.1,200.5 L366,204.3 L368,208.2 L369.9,212.1 L371.9,216 L373.8,219.9 L375.7,223.9 L377.7,227.8 L379.6,231.8 L381.6,235.8 L383.5,239.7 L385.5,243.6 L387.4,247.6 L389.3,251.4 L391.3,255.3 L393.2,259.1 L395.2,262.9 L397.1,266.6 L399.1,270.3 L401,273.9 L402.9,277.4 L404.9,280.9 L406.8,284.3 L408.8,287.5 L410.7,290.7 L412.7,293.7 L414.6,296.6 L416.5,299.4 L418.5,302 L420.4,304.4 L422.4,306.7 L424.3,308.7 L426.2,310.6 L428.2,312.2 L430.1,313.5 L432.1,314.6 L434,315.4 L436,315.8 L437.9,315.9 L439.8,315.6 L441.8,314.9 L443.7,313.8 L445.7,312.1 L447.6,309.9 L449.6,307 L451.5,303.5 L453.4,299.2 L455.4,294 L457.3,287.7 L459.3,280.3 L461.2,271.5 L463.1,261 L465.1,248.5 L467,233.3 " fill="none"/></g>
<g clip-path="url(#plot_window)" stroke="rgb(255,140,0)" stroke-width="1"><path d="M78.6,113 L80.54,100.4 L82.48,90.96 L84.43,84.02 L86.37,79.08 L88.31,75.8 L90.25,73.9 L92.2,73.18 L94.14,73.47 L96.08,74.63 L98.02,76.54 L99.96,79.11 L101.9,82.23 L103.8,85.85 L105.8,89.9 L107.7,94.31 L109.7,99.03 L111.6,104 L113.6,109.2 L115.5,114.6 L117.4,120.2 L119.4,125.9 L121.3,131.7 L123.3,137.5 L125.2,143.4 L127.2,149.3 L129.1,155.2 L131,161.1 L133,166.9 L134.9,172.8 L136.9,178.5 L138.8,184.1 L140.7,189.7 L142.7,195.2 L144.6,200.5 L146.6,205.7 L148.5,210.8 L150.5,215.8 L152.4,220.6 L154.3,225.2 L156.3,229.7 L158.2,234 L160.2,238.2 L162.1,242.1 L164.1,245.9 L166,249.5 L167.9,253 L169.9,256.2 L171.8,259.2 L173.8,262.1 L175.7,264.7 L177.6,267.2 L179.6,269.4 L181.5,271.5 L183.5,273.4 L185.4,275.1 L187.4,276.5 L189.3,277.8 L191.2,278.9 L193.2,279.8 L195.1,280.5 L197.1,281 L199,281.4 L201,281.5 L202.9,281.5 L204.8,281.3 L206.8,280.9 L208.7,280.3 L210.7,279.6 L212.6,278.7 L214.6,277.7 L216.5,276.5 L218.4,275.1 L220.4,273.6 L222.3,271.9 L224.3,270.1 L226.2,268.2 L228.1,266.1 L230.1,263.9 L232,261.6 L234,259.1 L235.9,256.6 L237.9,253.9 L239.8,251.1 L241.7,248.3 L243.7,245.3 L245.6,242.3 L247.6,239.2 L249.5,236 L251.5,232.7 L253.4,229.3 L255.3,226 L257.3,222.5 L259.2,219 L261.2,215.5 L263.1,211.9 L265,208.3 L267,204.7 L268.9,201.1 L270.9,197.4 L272.8,193.7 L274.8,190.1 L276.7,186.4 L278.6,182.8 L280.6,179.2 L282.5,175.6 L284.5,172 L286.4,168.5 L288.4,165 L290.3,161.5 L292.2,158.1 L294.2,154.8 L296.1,151.5 L298.1,148.3 L300,145.2 L301.9,142.2 L303.9,139.2 L305.8,136.3 L307.8,133.6 L309.7,130.9 L311.7,128.4 L313.6,125.9 L315.5,123.6 L317.5,121.4 L319.4,119.3 L321.4,117.4 L323.3,115.6 L325.3,113.9 L327.2,112.4 L329.1,111 L331.1,109.8 L333,108.8 L335,107.9 L336.9,107.1 L338.8,106.6 L340.8,106.2 L342.7,106 L344.7,106 L346.6,106.1 L348.6,106.4 L350.5,107 L352.4,107.7 L354.4,108.6 L356.3,109.7 L358.3,110.9 L360.2,112.4 L362.2,114.1 L364.1,116 L366,118 L368,120.3 L369.9,122.8 L371.9,125.4 L373.8,128.3 L375.7,131.3 L377.7,134.5 L379.6,137.9 L381.6,141.5 L383.5,145.3 L385.5,149.3 L387.4,153.5 L389.3,157.8 L391.3,162.3 L393.2,166.9 L395.2,171.7 L397.1,176.7 L399.1,181.7 L401,187 L402.9,192.3 L404.9,197.8 L406.8,203.3 L408.8,209 L410.7,214.7 L412.7,220.5 L414.6,226.4 L416.5,232.3 L418.5,238.2 L420.4,244.1 L422.4,250 L424.3,255.8 L426.2,261.6 L428.2,267.3 L430.1,272.8 L432.1,278.2 L434,283.5 L436,288.4 L437.9,293.2 L439.8,297.6 L441.8,301.6 L443.7,305.2 L445.7,308.4 L447.6,310.9 L449.6,312.8 L451.5,314 L453.4,314.3 L455.4,313.6 L457.3,311.7 L459.3,308.4 L461.2,303.5 L463.1,296.5 L465.1,287.1 L467,274.5 " fill="none"/></g>
<g clip-path="url(#plot_window)" stroke="rgb(127,255,0)" stroke-width="1"><path d="M78.6,300.2 L80.54,308 L82.48,312.1 L84.43,313.5 L86.37,312.7 L88.31,310.1 L90.25,306.2 L92.2,301.1 L94.14,295.1 L96.08,288.4 L98.02,281.2 L99.96,273.5 L101.9,265.5 L103.8,257.3 L105.8,248.9 L107.7,240.5 L109.7,232.1 L111.6,223.8 L113.6,215.5 L115.5,207.5 L117.4,199.6 L119.4,191.9 L121.3,184.6 L123.3,177.4 L125.2,170.6 L127.2,164.1 L129.1,158 L131,152.2 L133,146.7 L134.9,141.7 L136.9,137 L138.8,132.6 L140.7,128.7 L142.7,125.1 L144.6,122 L146.6,119.2 L148.5,116.7 L150.5,114.7 L152.4,113 L154.3,111.7 L156.3,110.7 L158.2,110 L160.2,109.8 L162.1,109.8 L164.1,110.1 L166,110.8 L167.9,111.8 L169.9,113 L171.8,114.5 L173.8,116.3 L175.7,118.4 L177.6,120.6 L179.6,123.1 L181.5,125.9 L183.5,128.8 L185.4,131.9 L187.4,135.1 L189.3,138.6 L191.2,142.2 L193.2,145.9 L195.1,149.7 L197.1,153.6 L199,157.7 L201,161.8 L202.9,166 L204.8,170.2 L206.8,174.5 L208.7,178.8 L210.7,183.1 L212.6,187.4 L214.6,191.7 L216.5,196 L218.4,200.3 L220.4,204.5 L222.3,208.7 L224.3,212.8 L226.2,216.8 L228.1,220.8 L230.1,224.6 L232,228.4 L234,232 L235.9,235.6 L237.9,238.9 L239.8,242.2 L241.7,245.3 L243.7,248.3 L245.6,251.1 L247.6,253.7 L249.5,256.2 L251.5,258.4 L253.4,260.5 L255.3,262.5 L257.3,264.2 L259.2,265.7 L261.2,267.1 L263.1,268.2 L265,269.1 L267,269.8 L268.9,270.4 L270.9,270.7 L272.8,270.8 L274.8,270.7 L276.7,270.4 L278.6,269.8 L280.6,269.1 L282.5,268.2 L284.5,267.1 L286.4,265.7 L288.4,264.2 L290.3,262.5 L292.2,260.5 L294.2,258.4 L296.1,256.2 L298.1,253.7 L300,251.1 L301.9,248.3 L303.9,245.3 L305.8,242.2 L307.8,238.9 L309.7,235.6 L311.7,232 L313.6,228.4 L315.5,224.6 L317.5,220.8 L319.4,216.8 L321.4,212.8 L323.3,208.7 L325.3,204.5 L327.2,200.3 L329.1,196 L331.1,191.7 L333,187.4 L335,183.1 L336.9,178.8 L338.8,174.5 L340.8,170.2 L342.7,166 L344.7,161.8 L346.6,157.7 L348.6,153.6 L350.5,149.7 L352.4,145.9 L354.4,142.2 L356.3,138.6 L358.3,135.1 L360.2,131.9 L362.2,128.8 L364.1,125.9 L366,123.1 L368,120.6 L369.9,118.4 L371.9,116.3 L373.8,114.5 L375.7,113 L377.7,111.8 L379.6,110.8 L381.6,110.1 L383.5,109.8 L385.5,109.8 L387.4,110 L389.3,110.7 L391.3,111.7 L393.2,113 L395.2,114.7 L397.1,116.7 L399.1,119.2 L401,122 L402.9,125.1 L404.9,128.7 L406.8,132.6 L408.8,137 L410.7,141.7 L412.7,146.7 L414.6,152.2 L416.5,158 L418.5,164.1 L420.4,170.6 L422.4,177.4 L424.3,184.6 L426.2,191.9 L428.2,199.6 L430.1,207.5 L432.1,215.5 L434,223.8 L436,232.1 L437.9,240.5 L439.8,248.9 L441.8,257.3 L443.7,265.5 L445.7,273.5 L447.6,281.2 L449.6,288.4 L451.5,295.1 L453.4,301.1 L455.4,306.2 L457.3,310.1 L459.3,312.7 L461.2,313.5 L463.1,312.1 L465.1,308 L467,300.2 " fill="none"/></g>
</g>
<g id="plotPoints" clip-path="url(#plot_window)"><g stroke="rgb(0,0,0)"></g>
<g stroke="rgb(0,0,0)"></g>
<g stroke="rgb(0,0,0)"></g>
<g stroke="rgb(0,0,0)"></g>
<g stroke="rgb(0,0,0)"></g>
</g>
<g id="limitPoints" stroke="rgb(119,136,153)" fill="rgb(250,235,215)"></g>
<g id="legendBackground" stroke="rgb(119,136,153)" fill="rgb(255,255,255)" stroke-width="1"><rect x="488.8" y="62" width="99.2" height="154"/><rect x="488.8" y="62" width="99.2" height="154"/></g>
<g id="legendPoints"><g stroke="rgb(0,0,139)" stroke-width="1"><line x1="502.8" y1="90" x2="516.8" y2="90"/></g>
<g stroke="rgb(139,0,0)" stroke-width="1"><line x1="502.8" y1="118" x2="516.8" y2="118"/></g>
<g stroke="rgb(0,100,0)" stroke-width="1"><line x1="502.8" y1="146" x2="516.8" y2="146"/></g>
<g stroke="rgb(255,140,0)" stroke-width="1"><line x1="502.8" y1="174" x2="516.8" y2="174"/></g>
<g stroke="rgb(127,255,0)" stroke-width="1"><line x1="502.8" y1="202" x2="516.8" y2="202"/></g>
</g>
<g id="legendText">
<text x="523.8" y="90" font-size="14" font-family="Verdana">l = 1</text>
<text x="523.8" y="118" font-size="14" font-family="Verdana">l = 2</text>
<text x="523.8" y="146" font-size="14" font-family="Verdana">l = 3</text>
<text x="523.8" y="174" font-size="14" font-family="Verdana">l = 4</text>
<text x="523.8" y="202" font-size="14" font-family="Verdana">l = 5</text></g>
<g id="title">
<text x="300" y="40" text-anchor="middle" font-size="20" font-family="Verdana">Legendre Polynomials of the Second Kind</text></g>
</svg>
