<?xml version="1.0" encoding="UTF-8" standalone="no"?>
<svg width="600" height ="400" version="1.1" xmlns="http://www.w3.org/2000/svg"
 xmlns:xlink="http://www.w3.org/1999/xlink"
 xmlns:ev="http://www.w3.org/2001/xml-events">

<!-- SVG plot written using Boost.Plot program (Creator Jacob Voytko) --> 
<!-- Use, modification and distribution of Boost.Plot subject to the --> 
<!-- Boost Software License, Version 1.0.--> 
<!-- (See accompanying file LICENSE_1_0.txt --> 
<!-- or copy at http://www.boost.org/LICENSE_1_0.txt) --> 

<!-- SVG Plot Copyright John Maddock 2008 --> 
<meta name="copyright" content="John Maddock" />
<meta name="date" content="2008" />
<!-- Use, modification and distribution of this Scalable Vector Graphic file -->
<!-- are subject to the Boost Software License, Version 1.0. -->
<!-- (See accompanying file LICENSE_1_0.txt or copy at http://www.boost.org/LICENSE_1_0.txt) -->

<clipPath id="plot_window"><rect x="79.6" y="63" width="394.2" height="274.2"/></clipPath>
<g id="imageBackground" stroke="rgb(119,136,153)" fill="rgb(255,255,255)" stroke-width="2"><rect x="0" y="0" width="600" height="400"/></g>
<g id="plotBackground" stroke="rgb(119,136,153)" fill="rgb(255,255,255)" stroke-width="2"><rect x="78.6" y="62" width="396.2" height="276.2"/></g>
<g id="yMinorGrid" stroke="rgb(200,220,255)" stroke-width="0.5"></g>
<g id="yMajorGrid" stroke="rgb(200,220,255)" stroke-width="1"></g>
<g id="xMinorGrid" stroke="rgb(200,220,255)" stroke-width="0.5"></g>
<g id="xMajorGrid" stroke="rgb(200,220,255)" stroke-width="1"></g>
<g id="yAxis" stroke="rgb(0,0,0)" stroke-width="1"><line x1="272.8" y1="62" x2="272.8" y2="343.2"/><line x1="78.6" y1="62" x2="78.6" y2="338.2"/></g>
<g id="xAxis" stroke="rgb(0,0,0)" stroke-width="1"><line x1="73.6" y1="202.8" x2="474.8" y2="202.8"/><line x1="73.6" y1="338.2" x2="474.8" y2="338.2"/></g>
<g id="yMinorTicks" stroke="rgb(0,0,0)" stroke-width="1"><path d="M76.6,185.9 L78.6,185.9 M76.6,169 L78.6,169 M76.6,152 L78.6,152 M76.6,118.2 L78.6,118.2 M76.6,101.3 L78.6,101.3 M76.6,84.34 L78.6,84.34 M76.6,202.8 L78.6,202.8 M76.6,219.7 L78.6,219.7 M76.6,236.7 L78.6,236.7 M76.6,253.6 L78.6,253.6 M76.6,270.5 L78.6,270.5 M76.6,287.4 L78.6,287.4 M76.6,304.4 L78.6,304.4 M76.6,321.3 L78.6,321.3 M76.6,338.2 L78.6,338.2 "/></g>
<g id="xMinorTicks" stroke="rgb(0,0,0)" stroke-width="1"><path d="M297.1,338.2 L297.1,340.2 M321.4,338.2 L321.4,340.2 M345.6,338.2 L345.6,340.2 M394.2,338.2 L394.2,340.2 M418.5,338.2 L418.5,340.2 M442.8,338.2 L442.8,340.2 M248.5,338.2 L248.5,340.2 M224.3,338.2 L224.3,340.2 M200,338.2 L200,340.2 M151.4,338.2 L151.4,340.2 M127.2,338.2 L127.2,340.2 M102.9,338.2 L102.9,340.2 "/></g>
<g id="yMajorTicks" stroke="rgb(0,0,0)" stroke-width="2"><path d="M73.6,202.8 L78.6,202.8 M73.6,135.1 L78.6,135.1 M73.6,67.42 L78.6,67.42 M73.6,202.8 L78.6,202.8 M73.6,270.5 L78.6,270.5 M73.6,338.2 L78.6,338.2 "/></g>
<g id="xMajorTicks" stroke="rgb(0,0,0)" stroke-width="2"><path d="M272.8,338.2 L272.8,343.2 M369.9,338.2 L369.9,343.2 M467,338.2 L467,343.2 M272.8,338.2 L272.8,343.2 M175.7,338.2 L175.7,343.2 M78.6,338.2 L78.6,343.2 "/></g>
<g id="plotLabels">
<text x="272.8" y="357.6" text-anchor="middle" font-size="12" font-family="Verdana">0</text>
<text x="369.9" y="357.6" text-anchor="middle" font-size="12" font-family="Verdana">0.5</text>
<text x="467" y="357.6" text-anchor="middle" font-size="12" font-family="Verdana">1</text>
<text x="272.8" y="357.6" text-anchor="middle" font-size="12" font-family="Verdana">0</text>
<text x="175.7" y="357.6" text-anchor="middle" font-size="12" font-family="Verdana">-0.5</text>
<text x="78.6" y="357.6" text-anchor="middle" font-size="12" font-family="Verdana">-1</text>
<text x="67.6" y="205.2" text-anchor="end" font-size="12" font-family="Verdana">0</text>
<text x="67.6" y="137.5" text-anchor="end" font-size="12" font-family="Verdana">0.5</text>
<text x="67.6" y="69.82" text-anchor="end" font-size="12" font-family="Verdana">1</text>
<text x="67.6" y="205.2" text-anchor="end" font-size="12" font-family="Verdana">0</text>
<text x="67.6" y="272.9" text-anchor="end" font-size="12" font-family="Verdana">-0.5</text>
<text x="67.6" y="340.6" text-anchor="end" font-size="12" font-family="Verdana">-1</text></g>
<g id="yLabel">
<text x="30.2" y="200.1" text-anchor="middle" transform = "rotate(-90 30.2 200.1 )" font-size="14" font-family="Verdana">legendre_p(l, x)</text></g>
<g id="xLabel">
<text x="276.7" y="384" text-anchor="middle" font-size="14" font-family="Verdana">x</text></g>
<g id="plotLines" stroke-width="2"><g clip-path="url(#plot_window)" stroke="rgb(0,0,139)" stroke-width="1"><path d="M78.6,338.2 L80.54,336.8 L82.48,335.5 L84.43,334.1 L86.37,332.8 L88.31,331.4 L90.25,330.1 L92.2,328.7 L94.14,327.4 L96.08,326 L98.02,324.7 L99.96,323.3 L101.9,322 L103.8,320.6 L105.8,319.2 L107.7,317.9 L109.7,316.5 L111.6,315.2 L113.6,313.8 L115.5,312.5 L117.4,311.1 L119.4,309.8 L121.3,308.4 L123.3,307.1 L125.2,305.7 L127.2,304.4 L129.1,303 L131,301.6 L133,300.3 L134.9,298.9 L136.9,297.6 L138.8,296.2 L140.7,294.9 L142.7,293.5 L144.6,292.2 L146.6,290.8 L148.5,289.5 L150.5,288.1 L152.4,286.8 L154.3,285.4 L156.3,284 L158.2,282.7 L160.2,281.3 L162.1,280 L164.1,278.6 L166,277.3 L167.9,275.9 L169.9,274.6 L171.8,273.2 L173.8,271.9 L175.7,270.5 L177.7,269.1 L179.6,267.8 L181.5,266.4 L183.5,265.1 L185.4,263.7 L187.4,262.4 L189.3,261 L191.2,259.7 L193.2,258.3 L195.1,257 L197.1,255.6 L199,254.3 L201,252.9 L202.9,251.5 L204.8,250.2 L206.8,248.8 L208.7,247.5 L210.7,246.1 L212.6,244.8 L214.6,243.4 L216.5,242.1 L218.4,240.7 L220.4,239.4 L222.3,238 L224.3,236.7 L226.2,235.3 L228.1,233.9 L230.1,232.6 L232,231.2 L234,229.9 L235.9,228.5 L237.9,227.2 L239.8,225.8 L241.7,224.5 L243.7,223.1 L245.6,221.8 L247.6,220.4 L249.5,219.1 L251.5,217.7 L253.4,216.3 L255.3,215 L257.3,213.6 L259.2,212.3 L261.2,210.9 L263.1,209.6 L265,208.2 L267,206.9 L268.9,205.5 L270.9,204.2 L272.8,202.8 L274.8,201.5 L276.7,200.1 L278.6,198.7 L280.6,197.4 L282.5,196 L284.5,194.7 L286.4,193.3 L288.4,192 L290.3,190.6 L292.2,189.3 L294.2,187.9 L296.1,186.6 L298.1,185.2 L300,183.9 L301.9,182.5 L303.9,181.1 L305.8,179.8 L307.8,178.4 L309.7,177.1 L311.7,175.7 L313.6,174.4 L315.5,173 L317.5,171.7 L319.4,170.3 L321.4,169 L323.3,167.6 L325.3,166.3 L327.2,164.9 L329.1,163.5 L331.1,162.2 L333,160.8 L335,159.5 L336.9,158.1 L338.8,156.8 L340.8,155.4 L342.7,154.1 L344.7,152.7 L346.6,151.4 L348.6,150 L350.5,148.7 L352.4,147.3 L354.4,145.9 L356.3,144.6 L358.3,143.2 L360.2,141.9 L362.2,140.5 L364.1,139.2 L366,137.8 L368,136.5 L369.9,135.1 L371.9,133.8 L373.8,132.4 L375.8,131 L377.7,129.7 L379.6,128.3 L381.6,127 L383.5,125.6 L385.5,124.3 L387.4,122.9 L389.3,121.6 L391.3,120.2 L393.2,118.9 L395.2,117.5 L397.1,116.2 L399.1,114.8 L401,113.4 L402.9,112.1 L404.9,110.7 L406.8,109.4 L408.8,108 L410.7,106.7 L412.7,105.3 L414.6,104 L416.5,102.6 L418.5,101.3 L420.4,99.91 L422.4,98.56 L424.3,97.2 L426.2,95.85 L428.2,94.49 L430.1,93.14 L432.1,91.79 L434,90.43 L436,89.08 L437.9,87.72 L439.8,86.37 L441.8,85.02 L443.7,83.66 L445.7,82.31 L447.6,80.95 L449.6,79.6 L451.5,78.25 L453.4,76.89 L455.4,75.54 L457.3,74.19 L459.3,72.83 L461.2,71.48 L463.1,70.12 L465.1,68.77 " fill="none"/></g>
<g clip-path="url(#plot_window)" stroke="rgb(139,0,0)" stroke-width="1"><path d="M78.6,67.42 L80.54,71.46 L82.48,75.46 L84.43,79.42 L86.37,83.34 L88.31,87.22 L90.25,91.06 L92.2,94.85 L94.14,98.61 L96.08,102.3 L98.02,106 L99.96,109.6 L101.9,113.2 L103.8,116.8 L105.8,120.3 L107.7,123.8 L109.7,127.2 L111.6,130.6 L113.6,133.9 L115.5,137.3 L117.4,140.5 L119.4,143.8 L121.3,146.9 L123.3,150.1 L125.2,153.2 L127.2,156.3 L129.1,159.3 L131,162.3 L133,165.2 L134.9,168.1 L136.9,171 L138.8,173.8 L140.7,176.6 L142.7,179.3 L144.6,182 L146.6,184.7 L148.5,187.3 L150.5,189.9 L152.4,192.4 L154.3,194.9 L156.3,197.4 L158.2,199.8 L160.2,202.2 L162.1,204.5 L164.1,206.8 L166,209.1 L167.9,211.3 L169.9,213.5 L171.8,215.6 L173.8,217.7 L175.7,219.7 L177.7,221.7 L179.6,223.7 L181.5,225.6 L183.5,227.5 L185.4,229.4 L187.4,231.2 L189.3,233 L191.2,234.7 L193.2,236.4 L195.1,238 L197.1,239.6 L199,241.2 L201,242.7 L202.9,244.2 L204.8,245.6 L206.8,247 L208.7,248.4 L210.7,249.7 L212.6,251 L214.6,252.2 L216.5,253.4 L218.4,254.6 L220.4,255.7 L222.3,256.8 L224.3,257.8 L226.2,258.8 L228.1,259.8 L230.1,260.7 L232,261.5 L234,262.4 L235.9,263.2 L237.9,263.9 L239.8,264.6 L241.7,265.3 L243.7,265.9 L245.6,266.5 L247.6,267.1 L249.5,267.6 L251.5,268 L253.4,268.5 L255.3,268.9 L257.3,269.2 L259.2,269.5 L261.2,269.8 L263.1,270 L265,270.2 L267,270.3 L268.9,270.4 L270.9,270.5 L272.8,270.5 L274.8,270.5 L276.7,270.4 L278.6,270.3 L280.6,270.2 L282.5,270 L284.5,269.8 L286.4,269.5 L288.4,269.2 L290.3,268.9 L292.2,268.5 L294.2,268 L296.1,267.6 L298.1,267.1 L300,266.5 L301.9,265.9 L303.9,265.3 L305.8,264.6 L307.8,263.9 L309.7,263.2 L311.7,262.4 L313.6,261.5 L315.5,260.7 L317.5,259.8 L319.4,258.8 L321.4,257.8 L323.3,256.8 L325.3,255.7 L327.2,254.6 L329.1,253.4 L331.1,252.2 L333,251 L335,249.7 L336.9,248.4 L338.8,247 L340.8,245.6 L342.7,244.2 L344.7,242.7 L346.6,241.2 L348.6,239.6 L350.5,238 L352.4,236.4 L354.4,234.7 L356.3,233 L358.3,231.2 L360.2,229.4 L362.2,227.5 L364.1,225.6 L366,223.7 L368,221.7 L369.9,219.7 L371.9,217.7 L373.8,215.6 L375.8,213.5 L377.7,211.3 L379.6,209.1 L381.6,206.8 L383.5,204.5 L385.5,202.2 L387.4,199.8 L389.3,197.4 L391.3,194.9 L393.2,192.4 L395.2,189.9 L397.1,187.3 L399.1,184.7 L401,182 L402.9,179.3 L404.9,176.6 L406.8,173.8 L408.8,171 L410.7,168.1 L412.7,165.2 L414.6,162.3 L416.5,159.3 L418.5,156.3 L420.4,153.2 L422.4,150.1 L424.3,146.9 L426.2,143.8 L428.2,140.5 L430.1,137.3 L432.1,133.9 L434,130.6 L436,127.2 L437.9,123.8 L439.8,120.3 L441.8,116.8 L443.7,113.2 L445.7,109.6 L447.6,106 L449.6,102.3 L451.5,98.61 L453.4,94.85 L455.4,91.06 L457.3,87.22 L459.3,83.34 L461.2,79.42 L463.1,75.46 L465.1,71.46 " fill="none"/></g>
<g clip-path="url(#plot_window)" stroke="rgb(0,100,0)" stroke-width="1"><path d="M78.6,338.2 L80.54,330.2 L82.48,322.4 L84.43,314.7 L86.37,307.3 L88.31,300.1 L90.25,293 L92.2,286.2 L94.14,279.5 L96.08,273.1 L98.02,266.8 L99.96,260.7 L101.9,254.8 L103.8,249 L105.8,243.4 L107.7,238.1 L109.7,232.8 L111.6,227.8 L113.6,222.9 L115.5,218.2 L117.4,213.6 L119.4,209.3 L121.3,205 L123.3,201 L125.2,197 L127.2,193.3 L129.1,189.7 L131,186.2 L133,182.9 L134.9,179.8 L136.9,176.7 L138.8,173.9 L140.7,171.1 L142.7,168.5 L144.6,166.1 L146.6,163.8 L148.5,161.6 L150.5,159.5 L152.4,157.6 L154.3,155.8 L156.3,154.1 L158.2,152.5 L160.2,151.1 L162.1,149.7 L164.1,148.5 L166,147.4 L167.9,146.4 L169.9,145.6 L171.8,144.8 L173.8,144.1 L175.7,143.6 L177.7,143.1 L179.6,142.8 L181.5,142.5 L183.5,142.3 L185.4,142.3 L187.4,142.3 L189.3,142.4 L191.2,142.6 L193.2,142.9 L195.1,143.2 L197.1,143.7 L199,144.2 L201,144.8 L202.9,145.5 L204.8,146.2 L206.8,147.1 L208.7,148 L210.7,148.9 L212.6,149.9 L214.6,151 L216.5,152.2 L218.4,153.4 L220.4,154.6 L222.3,156 L224.3,157.3 L226.2,158.7 L228.1,160.2 L230.1,161.7 L232,163.3 L234,164.9 L235.9,166.5 L237.9,168.2 L239.8,169.9 L241.7,171.7 L243.7,173.5 L245.6,175.3 L247.6,177.2 L249.5,179 L251.5,180.9 L253.4,182.8 L255.3,184.8 L257.3,186.7 L259.2,188.7 L261.2,190.7 L263.1,192.7 L265,194.7 L267,196.7 L268.9,198.7 L270.9,200.8 L272.8,202.8 L274.8,204.8 L276.7,206.9 L278.6,208.9 L280.6,210.9 L282.5,212.9 L284.5,214.9 L286.4,216.9 L288.4,218.9 L290.3,220.8 L292.2,222.8 L294.2,224.7 L296.1,226.6 L298.1,228.5 L300,230.3 L301.9,232.1 L303.9,233.9 L305.8,235.7 L307.8,237.4 L309.7,239.1 L311.7,240.7 L313.6,242.3 L315.5,243.9 L317.5,245.4 L319.4,246.9 L321.4,248.3 L323.3,249.7 L325.3,251 L327.2,252.2 L329.1,253.4 L331.1,254.6 L333,255.7 L335,256.7 L336.9,257.7 L338.8,258.6 L340.8,259.4 L342.7,260.1 L344.7,260.8 L346.6,261.4 L348.6,261.9 L350.5,262.4 L352.4,262.7 L354.4,263 L356.3,263.2 L358.3,263.3 L360.2,263.4 L362.2,263.3 L364.1,263.1 L366,262.9 L368,262.5 L369.9,262 L371.9,261.5 L373.8,260.8 L375.8,260.1 L377.7,259.2 L379.6,258.2 L381.6,257.1 L383.5,255.9 L385.5,254.6 L387.4,253.1 L389.3,251.5 L391.3,249.9 L393.2,248.1 L395.2,246.1 L397.1,244.1 L399.1,241.9 L401,239.5 L402.9,237.1 L404.9,234.5 L406.8,231.7 L408.8,228.9 L410.7,225.9 L412.7,222.7 L414.6,219.4 L416.5,215.9 L418.5,212.3 L420.4,208.6 L422.4,204.7 L424.3,200.6 L426.2,196.4 L428.2,192 L430.1,187.4 L432.1,182.7 L434,177.8 L436,172.8 L437.9,167.6 L439.8,162.2 L441.8,156.6 L443.7,150.9 L445.7,144.9 L447.6,138.8 L449.6,132.5 L451.5,126.1 L453.4,119.4 L455.4,112.6 L457.3,105.5 L459.3,98.31 L461.2,90.88 L463.1,83.26 L465.1,75.44 " fill="none"/></g>
<g clip-path="url(#plot_window)" stroke="rgb(255,140,0)" stroke-width="1"><path d="M78.6,67.42 L80.54,80.65 L82.48,93.29 L84.43,105.4 L86.37,116.8 L88.31,127.8 L90.25,138.2 L92.2,148.1 L94.14,157.4 L96.08,166.3 L98.02,174.7 L99.96,182.6 L101.9,190 L103.8,197 L105.8,203.5 L107.7,209.7 L109.7,215.4 L111.6,220.7 L113.6,225.6 L115.5,230.2 L117.4,234.4 L119.4,238.2 L121.3,241.7 L123.3,244.8 L125.2,247.7 L127.2,250.2 L129.1,252.4 L131,254.4 L133,256.1 L134.9,257.5 L136.9,258.6 L138.8,259.5 L140.7,260.2 L142.7,260.6 L144.6,260.8 L146.6,260.8 L148.5,260.6 L150.5,260.2 L152.4,259.7 L154.3,258.9 L156.3,258 L158.2,257 L160.2,255.8 L162.1,254.5 L164.1,253 L166,251.4 L167.9,249.7 L169.9,247.9 L171.8,246 L173.8,244 L175.7,241.9 L177.7,239.8 L179.6,237.6 L181.5,235.3 L183.5,232.9 L185.4,230.6 L187.4,228.1 L189.3,225.7 L191.2,223.2 L193.2,220.6 L195.1,218.1 L197.1,215.6 L199,213 L201,210.4 L202.9,207.9 L204.8,205.3 L206.8,202.8 L208.7,200.3 L210.7,197.8 L212.6,195.4 L214.6,192.9 L216.5,190.5 L218.4,188.2 L220.4,185.9 L222.3,183.7 L224.3,181.5 L226.2,179.3 L228.1,177.2 L230.1,175.2 L232,173.3 L234,171.4 L235.9,169.6 L237.9,167.9 L239.8,166.2 L241.7,164.6 L243.7,163.2 L245.6,161.8 L247.6,160.4 L249.5,159.2 L251.5,158.1 L253.4,157.1 L255.3,156.1 L257.3,155.3 L259.2,154.5 L261.2,153.9 L263.1,153.3 L265,152.8 L267,152.5 L268.9,152.2 L270.9,152.1 L272.8,152 L274.8,152.1 L276.7,152.2 L278.6,152.5 L280.6,152.8 L282.5,153.3 L284.5,153.9 L286.4,154.5 L288.4,155.3 L290.3,156.1 L292.2,157.1 L294.2,158.1 L296.1,159.2 L298.1,160.4 L300,161.8 L301.9,163.2 L303.9,164.6 L305.8,166.2 L307.8,167.9 L309.7,169.6 L311.7,171.4 L313.6,173.3 L315.5,175.2 L317.5,177.2 L319.4,179.3 L321.4,181.5 L323.3,183.7 L325.3,185.9 L327.2,188.2 L329.1,190.5 L331.1,192.9 L333,195.4 L335,197.8 L336.9,200.3 L338.8,202.8 L340.8,205.3 L342.7,207.9 L344.7,210.4 L346.6,213 L348.6,215.6 L350.5,218.1 L352.4,220.6 L354.4,223.2 L356.3,225.7 L358.3,228.1 L360.2,230.6 L362.2,232.9 L364.1,235.3 L366,237.6 L368,239.8 L369.9,241.9 L371.9,244 L373.8,246 L375.8,247.9 L377.7,249.7 L379.6,251.4 L381.6,253 L383.5,254.5 L385.5,255.8 L387.4,257 L389.3,258 L391.3,258.9 L393.2,259.7 L395.2,260.2 L397.1,260.6 L399.1,260.8 L401,260.8 L402.9,260.6 L404.9,260.2 L406.8,259.5 L408.8,258.6 L410.7,257.5 L412.7,256.1 L414.6,254.4 L416.5,252.4 L418.5,250.2 L420.4,247.7 L422.4,244.8 L424.3,241.7 L426.2,238.2 L428.2,234.4 L430.1,230.2 L432.1,225.6 L434,220.7 L436,215.4 L437.9,209.7 L439.8,203.5 L441.8,197 L443.7,190 L445.7,182.6 L447.6,174.7 L449.6,166.3 L451.5,157.4 L453.4,148.1 L455.4,138.2 L457.3,127.8 L459.3,116.8 L461.2,105.4 L463.1,93.29 L465.1,80.65 " fill="none"/></g>
<g clip-path="url(#plot_window)" stroke="rgb(127,255,0)" stroke-width="1"><path d="M78.6,338.2 L80.54,318.6 L82.48,300.4 L84.43,283.4 L86.37,267.7 L88.31,253.3 L90.25,240 L92.2,227.7 L94.14,216.6 L96.08,206.4 L98.02,197.2 L99.96,189 L101.9,181.6 L103.8,175 L105.8,169.2 L107.7,164.1 L109.7,159.8 L111.6,156.1 L113.6,153.1 L115.5,150.6 L117.4,148.7 L119.4,147.3 L121.3,146.5 L123.3,146 L125.2,146 L127.2,146.4 L129.1,147.2 L131,148.3 L133,149.7 L134.9,151.4 L136.9,153.4 L138.8,155.6 L140.7,158 L142.7,160.5 L144.6,163.3 L146.6,166.2 L148.5,169.2 L150.5,172.3 L152.4,175.5 L154.3,178.8 L156.3,182.1 L158.2,185.5 L160.2,188.9 L162.1,192.3 L164.1,195.6 L166,199 L167.9,202.3 L169.9,205.6 L171.8,208.8 L173.8,211.9 L175.7,215 L177.7,217.9 L179.6,220.8 L181.5,223.6 L183.5,226.2 L185.4,228.8 L187.4,231.2 L189.3,233.5 L191.2,235.6 L193.2,237.6 L195.1,239.5 L197.1,241.2 L199,242.7 L201,244.1 L202.9,245.4 L204.8,246.5 L206.8,247.4 L208.7,248.2 L210.7,248.8 L212.6,249.3 L214.6,249.6 L216.5,249.7 L218.4,249.7 L220.4,249.6 L222.3,249.3 L224.3,248.8 L226.2,248.2 L228.1,247.5 L230.1,246.6 L232,245.6 L234,244.4 L235.9,243.2 L237.9,241.8 L239.8,240.3 L241.7,238.7 L243.7,237 L245.6,235.2 L247.6,233.2 L249.5,231.3 L251.5,229.2 L253.4,227 L255.3,224.8 L257.3,222.5 L259.2,220.2 L261.2,217.8 L263.1,215.4 L265,212.9 L267,210.4 L268.9,207.9 L270.9,205.3 L272.8,202.8 L274.8,200.3 L276.7,197.7 L278.6,195.2 L280.6,192.7 L282.5,190.3 L284.5,187.8 L286.4,185.4 L288.4,183.1 L290.3,180.8 L292.2,178.6 L294.2,176.4 L296.1,174.4 L298.1,172.4 L300,170.5 L301.9,168.6 L303.9,166.9 L305.8,165.3 L307.8,163.8 L309.7,162.4 L311.7,161.2 L313.6,160 L315.5,159 L317.5,158.1 L319.4,157.4 L321.4,156.8 L323.3,156.4 L325.3,156.1 L327.2,155.9 L329.1,155.9 L331.1,156 L333,156.4 L335,156.8 L336.9,157.4 L338.8,158.2 L340.8,159.2 L342.7,160.2 L344.7,161.5 L346.6,162.9 L348.6,164.5 L350.5,166.2 L352.4,168 L354.4,170 L356.3,172.2 L358.3,174.4 L360.2,176.9 L362.2,179.4 L364.1,182 L366,184.8 L368,187.7 L369.9,190.6 L371.9,193.7 L373.8,196.8 L375.8,200 L377.7,203.3 L379.6,206.6 L381.6,210 L383.5,213.3 L385.5,216.7 L387.4,220.1 L389.3,223.5 L391.3,226.8 L393.2,230.1 L395.2,233.3 L397.1,236.4 L399.1,239.4 L401,242.3 L402.9,245.1 L404.9,247.7 L406.8,250.1 L408.8,252.3 L410.7,254.2 L412.7,255.9 L414.6,257.3 L416.5,258.4 L418.5,259.2 L420.4,259.6 L422.4,259.6 L424.3,259.2 L426.2,258.3 L428.2,256.9 L430.1,255 L432.1,252.6 L434,249.5 L436,245.8 L437.9,241.5 L439.8,236.4 L441.8,230.6 L443.7,224.1 L445.7,216.7 L447.6,208.4 L449.6,199.2 L451.5,189 L453.4,177.9 L455.4,165.7 L457.3,152.3 L459.3,137.9 L461.2,122.2 L463.1,105.3 L465.1,87.02 " fill="none"/></g>
</g>
<g id="plotPoints" clip-path="url(#plot_window)"><g stroke="rgb(0,0,0)"></g>
<g stroke="rgb(0,0,0)"></g>
<g stroke="rgb(0,0,0)"></g>
<g stroke="rgb(0,0,0)"></g>
<g stroke="rgb(0,0,0)"></g>
</g>
<g id="limitPoints" stroke="rgb(119,136,153)" fill="rgb(250,235,215)"></g>
<g id="legendBackground" stroke="rgb(119,136,153)" fill="rgb(255,255,255)" stroke-width="1"><rect x="488.8" y="62" width="99.2" height="154"/><rect x="488.8" y="62" width="99.2" height="154"/></g>
<g id="legendPoints"><g stroke="rgb(0,0,139)" stroke-width="1"><line x1="502.8" y1="90" x2="516.8" y2="90"/></g>
<g stroke="rgb(139,0,0)" stroke-width="1"><line x1="502.8" y1="118" x2="516.8" y2="118"/></g>
<g stroke="rgb(0,100,0)" stroke-width="1"><line x1="502.8" y1="146" x2="516.8" y2="146"/></g>
<g stroke="rgb(255,140,0)" stroke-width="1"><line x1="502.8" y1="174" x2="516.8" y2="174"/></g>
<g stroke="rgb(127,255,0)" stroke-width="1"><line x1="502.8" y1="202" x2="516.8" y2="202"/></g>
</g>
<g id="legendText">
<text x="523.8" y="90" font-size="14" font-family="Verdana">l = 1</text>
<text x="523.8" y="118" font-size="14" font-family="Verdana">l = 2</text>
<text x="523.8" y="146" font-size="14" font-family="Verdana">l = 3</text>
<text x="523.8" y="174" font-size="14" font-family="Verdana">l = 4</text>
<text x="523.8" y="202" font-size="14" font-family="Verdana">l = 5</text></g>
<g id="title">
<text x="300" y="40" text-anchor="middle" font-size="20" font-family="Verdana">Legendre Polynomials</text></g>
</svg>
