<?xml version="1.0" encoding="UTF-8" standalone="no"?>
<svg width="600" height ="400" version="1.1" xmlns="http://www.w3.org/2000/svg"
 xmlns:xlink="http://www.w3.org/1999/xlink"
 xmlns:ev="http://www.w3.org/2001/xml-events">

<!-- SVG plot written using Boost.Plot program (Creator Jacob Voytko) --> 
<!-- Use, modification and distribution of Boost.Plot subject to the --> 
<!-- Boost Software License, Version 1.0.--> 
<!-- (See accompanying file LICENSE_1_0.txt --> 
<!-- or copy at http://www.boost.org/LICENSE_1_0.txt) --> 

<!-- SVG Plot Copyright John Maddock 2008 --> 
<meta name="copyright" content="John Maddock" />
<meta name="date" content="2008" />
<!-- Use, modification and distribution of this Scalable Vector Graphic file -->
<!-- are subject to the Boost Software License, Version 1.0. -->
<!-- (See accompanying file LICENSE_1_0.txt or copy at http://www.boost.org/LICENSE_1_0.txt) -->

<clipPath id="plot_window"><rect x="62.8" y="63" width="524.2" height="274.2"/></clipPath>
<g id="imageBackground" stroke="rgb(119,136,153)" fill="rgb(255,255,255)" stroke-width="2"><rect x="0" y="0" width="600" height="400"/></g>
<g id="plotBackground" stroke="rgb(119,136,153)" fill="rgb(255,255,255)" stroke-width="2"><rect x="61.8" y="62" width="526.2" height="276.2"/></g>
<g id="yMinorGrid" stroke="rgb(200,220,255)" stroke-width="0.5"></g>
<g id="yMajorGrid" stroke="rgb(200,220,255)" stroke-width="1"></g>
<g id="xMinorGrid" stroke="rgb(200,220,255)" stroke-width="0.5"></g>
<g id="xMajorGrid" stroke="rgb(200,220,255)" stroke-width="1"></g>
<g id="yAxis" stroke="rgb(0,0,0)" stroke-width="1"><line x1="233.8" y1="62" x2="233.8" y2="343.2"/><line x1="61.8" y1="62" x2="61.8" y2="338.2"/></g>
<g id="xAxis" stroke="rgb(0,0,0)" stroke-width="1"><line x1="56.8" y1="287.6" x2="588" y2="287.6"/><line x1="56.8" y1="338.2" x2="588" y2="338.2"/></g>
<g id="yMinorTicks" stroke="rgb(0,0,0)" stroke-width="1"><path d="M59.8,266.1 L61.8,266.1 M59.8,244.6 L61.8,244.6 M59.8,223.1 L61.8,223.1 M59.8,180.1 L61.8,180.1 M59.8,158.6 L61.8,158.6 M59.8,137.1 L61.8,137.1 M59.8,94.11 L61.8,94.11 M59.8,72.61 L61.8,72.61 M59.8,287.6 L61.8,287.6 M59.8,309.1 L61.8,309.1 M59.8,330.6 L61.8,330.6 "/></g>
<g id="xMinorTicks" stroke="rgb(0,0,0)" stroke-width="1"><path d="M276.8,338.2 L276.8,340.2 M319.7,338.2 L319.7,340.2 M362.7,338.2 L362.7,340.2 M448.7,338.2 L448.7,340.2 M491.7,338.2 L491.7,340.2 M534.7,338.2 L534.7,340.2 M190.8,338.2 L190.8,340.2 M147.8,338.2 L147.8,340.2 M104.8,338.2 L104.8,340.2 "/></g>
<g id="yMajorTicks" stroke="rgb(0,0,0)" stroke-width="2"><path d="M56.8,287.6 L61.8,287.6 M56.8,201.6 L61.8,201.6 M56.8,115.6 L61.8,115.6 M56.8,287.6 L61.8,287.6 "/></g>
<g id="xMajorTicks" stroke="rgb(0,0,0)" stroke-width="2"><path d="M233.8,338.2 L233.8,343.2 M405.7,338.2 L405.7,343.2 M577.7,338.2 L577.7,343.2 M233.8,338.2 L233.8,343.2 "/></g>
<g id="plotLabels">
<text x="233.8" y="357.6" text-anchor="middle" font-size="12" font-family="Verdana">0</text>
<text x="405.7" y="357.6" text-anchor="middle" font-size="12" font-family="Verdana">5</text>
<text x="577.7" y="357.6" text-anchor="middle" font-size="12" font-family="Verdana">10</text>
<text x="233.8" y="357.6" text-anchor="middle" font-size="12" font-family="Verdana">0</text>
<text x="50.8" y="290" text-anchor="end" font-size="12" font-family="Verdana">0</text>
<text x="50.8" y="204" text-anchor="end" font-size="12" font-family="Verdana">5</text>
<text x="50.8" y="118" text-anchor="end" font-size="12" font-family="Verdana">10</text>
<text x="50.8" y="290" text-anchor="end" font-size="12" font-family="Verdana">0</text></g>
<g id="yLabel">
<text x="30.2" y="200.1" text-anchor="middle" transform = "rotate(-90 30.2 200.1 )" font-size="14" font-family="Verdana">lgamma(z)</text></g>
<g id="xLabel">
<text x="324.9" y="384" text-anchor="middle" font-size="14" font-family="Verdana">z</text></g>
<g id="plotLines" stroke-width="2"><g clip-path="url(#plot_window)" stroke="rgb(0,0,139)" stroke-width="1"><path d="M233.8,67.42 L235.5,236.5 L237.2,248.9 L238.9,256.2 L240.6,261.4 L242.4,265.5 L244.1,268.8 L245.8,271.5 L247.5,273.9 L249.2,276 L251,277.8 L252.7,279.3 L254.4,280.8 L256.1,282 L257.8,283.1 L259.6,284.1 L261.3,285 L263,285.8 L264.7,286.5 L266.4,287.1 L268.2,287.6 L269.9,288.1 L271.6,288.5 L273.3,288.8 L275,289.1 L276.8,289.3 L278.5,289.5 L280.2,289.6 L281.9,289.7 L283.6,289.7 L285.3,289.7 L287.1,289.6 L288.8,289.5 L290.5,289.4 L292.2,289.3 L293.9,289.1 L295.7,288.8 L297.4,288.6 L299.1,288.3 L300.8,288 L302.5,287.6 L304.3,287.2 L306,286.8 L307.7,286.4 L309.4,285.9 L311.1,285.5 L312.9,285 L314.6,284.4 L316.3,283.9 L318,283.3 L319.7,282.7 L321.5,282.1 L323.2,281.5 L324.9,280.8 L326.6,280.1 L328.3,279.4 L330.1,278.7 L331.8,278 L333.5,277.2 L335.2,276.5 L336.9,275.7 L338.7,274.9 L340.4,274.1 L342.1,273.2 L343.8,272.4 L345.5,271.5 L347.3,270.6 L349,269.7 L350.7,268.8 L352.4,267.9 L354.1,266.9 L355.9,266 L357.6,265 L359.3,264 L361,263 L362.7,262 L364.5,261 L366.2,260 L367.9,258.9 L369.6,257.9 L371.3,256.8 L373,255.7 L374.8,254.6 L376.5,253.5 L378.2,252.4 L379.9,251.2 L381.6,250.1 L383.4,248.9 L385.1,247.8 L386.8,246.6 L388.5,245.4 L390.2,244.2 L392,243 L393.7,241.8 L395.4,240.5 L397.1,239.3 L398.8,238 L400.6,236.8 L402.3,235.5 L404,234.2 L405.7,232.9 L407.4,231.6 L409.2,230.3 L410.9,229 L412.6,227.7 L414.3,226.3 L416,225 L417.8,223.6 L419.5,222.3 L421.2,220.9 L422.9,219.5 L424.6,218.1 L426.4,216.7 L428.1,215.3 L429.8,213.9 L431.5,212.5 L433.2,211.1 L435,209.6 L436.7,208.2 L438.4,206.7 L440.1,205.3 L441.8,203.8 L443.6,202.3 L445.3,200.8 L447,199.3 L448.7,197.8 L450.4,196.3 L452.2,194.8 L453.9,193.3 L455.6,191.7 L457.3,190.2 L459,188.7 L460.7,187.1 L462.5,185.6 L464.2,184 L465.9,182.4 L467.6,180.8 L469.3,179.2 L471.1,177.7 L472.8,176.1 L474.5,174.4 L476.2,172.8 L477.9,171.2 L479.7,169.6 L481.4,167.9 L483.1,166.3 L484.8,164.7 L486.5,163 L488.3,161.4 L490,159.7 L491.7,158 L493.4,156.3 L495.1,154.7 L496.9,153 L498.6,151.3 L500.3,149.6 L502,147.9 L503.7,146.1 L505.5,144.4 L507.2,142.7 L508.9,141 L510.6,139.2 L512.3,137.5 L514.1,135.7 L515.8,134 L517.5,132.2 L519.2,130.5 L520.9,128.7 L522.7,126.9 L524.4,125.1 L526.1,123.4 L527.8,121.6 L529.5,119.8 L531.3,118 L533,116.2 L534.7,114.3 L536.4,112.5 L538.1,110.7 L539.9,108.9 L541.6,107 L543.3,105.2 L545,103.4 L546.7,101.5 L548.4,99.66 L550.2,97.8 L551.9,95.94 L553.6,94.07 L555.3,92.2 L557,90.32 L558.8,88.44 L560.5,86.55 L562.2,84.66 L563.9,82.76 L565.6,80.86 L567.4,78.95 L569.1,77.04 L570.8,75.13 L572.5,73.2 L574.2,71.28 L576,69.35 L577.7,67.42 " fill="none"/></g>
<g clip-path="url(#plot_window)" stroke="rgb(0,0,139)" stroke-width="1"><path d="M199.4,67.42 L199.5,196.4 L199.7,208.3 L199.9,215.3 L200.1,220.2 L200.2,224 L200.4,227.1 L200.6,229.7 L200.7,231.9 L200.9,233.9 L201.1,235.7 L201.3,237.3 L201.4,238.7 L201.6,240 L201.8,241.2 L201.9,242.4 L202.1,243.4 L202.3,244.4 L202.5,245.4 L202.6,246.2 L202.8,247 L203,247.8 L203.2,248.6 L203.3,249.3 L203.5,249.9 L203.7,250.6 L203.8,251.2 L204,251.8 L204.2,252.3 L204.4,252.9 L204.5,253.4 L204.7,253.9 L204.9,254.3 L205,254.8 L205.2,255.2 L205.4,255.7 L205.6,256.1 L205.7,256.5 L205.9,256.8 L206.1,257.2 L206.2,257.6 L206.4,257.9 L206.6,258.2 L206.8,258.5 L206.9,258.9 L207.1,259.2 L207.3,259.4 L207.5,259.7 L207.6,260 L207.8,260.3 L208,260.5 L208.1,260.7 L208.3,261 L208.5,261.2 L208.7,261.4 L208.8,261.7 L209,261.9 L209.2,262.1 L209.3,262.3 L209.5,262.4 L209.7,262.6 L209.9,262.8 L210,263 L210.2,263.1 L210.4,263.3 L210.5,263.4 L210.7,263.6 L210.9,263.7 L211.1,263.9 L211.2,264 L211.4,264.1 L211.6,264.2 L211.7,264.4 L211.9,264.5 L212.1,264.6 L212.3,264.7 L212.4,264.8 L212.6,264.9 L212.8,265 L213,265 L213.1,265.1 L213.3,265.2 L213.5,265.3 L213.6,265.3 L213.8,265.4 L214,265.4 L214.2,265.5 L214.3,265.6 L214.5,265.6 L214.7,265.6 L214.8,265.7 L215,265.7 L215.2,265.7 L215.4,265.8 L215.5,265.8 L215.7,265.8 L215.9,265.8 L216,265.8 L216.2,265.8 L216.4,265.8 L216.6,265.8 L216.7,265.8 L216.9,265.8 L217.1,265.8 L217.3,265.8 L217.4,265.8 L217.6,265.8 L217.8,265.7 L217.9,265.7 L218.1,265.7 L218.3,265.6 L218.5,265.6 L218.6,265.5 L218.8,265.5 L219,265.4 L219.1,265.4 L219.3,265.3 L219.5,265.2 L219.7,265.2 L219.8,265.1 L220,265 L220.2,264.9 L220.3,264.8 L220.5,264.7 L220.7,264.6 L220.9,264.5 L221,264.4 L221.2,264.3 L221.4,264.2 L221.6,264.1 L221.7,263.9 L221.9,263.8 L222.1,263.7 L222.2,263.5 L222.4,263.4 L222.6,263.2 L222.8,263.1 L222.9,262.9 L223.1,262.8 L223.3,262.6 L223.4,262.4 L223.6,262.2 L223.8,262 L224,261.8 L224.1,261.6 L224.3,261.4 L224.5,261.2 L224.6,261 L224.8,260.8 L225,260.5 L225.2,260.3 L225.3,260 L225.5,259.7 L225.7,259.5 L225.9,259.2 L226,258.9 L226.2,258.6 L226.4,258.3 L226.5,258 L226.7,257.6 L226.9,257.3 L227.1,257 L227.2,256.6 L227.4,256.2 L227.6,255.8 L227.7,255.4 L227.9,255 L228.1,254.6 L228.3,254.1 L228.4,253.6 L228.6,253.1 L228.8,252.6 L228.9,252.1 L229.1,251.5 L229.3,251 L229.5,250.4 L229.6,249.7 L229.8,249.1 L230,248.4 L230.1,247.6 L230.3,246.9 L230.5,246 L230.7,245.2 L230.8,244.3 L231,243.3 L231.2,242.2 L231.4,241.1 L231.5,239.9 L231.7,238.6 L231.9,237.1 L232,235.5 L232.2,233.8 L232.4,231.8 L232.6,229.6 L232.7,227 L232.9,223.9 L233.1,220.1 L233.2,215.2 L233.4,208.3 L233.6,196.4 " fill="none"/></g>
<g clip-path="url(#plot_window)" stroke="rgb(0,0,139)" stroke-width="1"><path d="M165,67.42 L165.1,208.3 L165.3,220.2 L165.5,227.1 L165.7,231.9 L165.8,235.7 L166,238.7 L166.2,241.3 L166.4,243.5 L166.5,245.4 L166.7,247.1 L166.9,248.7 L167,250.1 L167.2,251.4 L167.4,252.6 L167.6,253.6 L167.7,254.7 L167.9,255.6 L168.1,256.5 L168.2,257.3 L168.4,258.1 L168.6,258.8 L168.8,259.5 L168.9,260.2 L169.1,260.8 L169.3,261.4 L169.4,261.9 L169.6,262.5 L169.8,263 L170,263.5 L170.1,264 L170.3,264.4 L170.5,264.8 L170.7,265.2 L170.8,265.6 L171,266 L171.2,266.4 L171.3,266.7 L171.5,267 L171.7,267.4 L171.9,267.7 L172,268 L172.2,268.2 L172.4,268.5 L172.5,268.8 L172.7,269 L172.9,269.3 L173.1,269.5 L173.2,269.7 L173.4,269.9 L173.6,270.1 L173.7,270.3 L173.9,270.5 L174.1,270.7 L174.3,270.9 L174.4,271 L174.6,271.2 L174.8,271.3 L175,271.5 L175.1,271.6 L175.3,271.7 L175.5,271.9 L175.6,272 L175.8,272.1 L176,272.2 L176.2,272.3 L176.3,272.4 L176.5,272.5 L176.7,272.6 L176.8,272.7 L177,272.7 L177.2,272.8 L177.4,272.9 L177.5,272.9 L177.7,273 L177.9,273 L178,273.1 L178.2,273.1 L178.4,273.1 L178.6,273.2 L178.7,273.2 L178.9,273.2 L179.1,273.2 L179.2,273.2 L179.4,273.3 L179.6,273.3 L179.8,273.3 L179.9,273.3 L180.1,273.2 L180.3,273.2 L180.5,273.2 L180.6,273.2 L180.8,273.2 L181,273.1 L181.1,273.1 L181.3,273.1 L181.5,273 L181.7,273 L181.8,272.9 L182,272.9 L182.2,272.8 L182.3,272.7 L182.5,272.7 L182.7,272.6 L182.9,272.5 L183,272.5 L183.2,272.4 L183.4,272.3 L183.5,272.2 L183.7,272.1 L183.9,272 L184.1,271.9 L184.2,271.8 L184.4,271.7 L184.6,271.6 L184.8,271.4 L184.9,271.3 L185.1,271.2 L185.3,271.1 L185.4,270.9 L185.6,270.8 L185.8,270.6 L186,270.5 L186.1,270.3 L186.3,270.2 L186.5,270 L186.6,269.8 L186.8,269.7 L187,269.5 L187.2,269.3 L187.3,269.1 L187.5,268.9 L187.7,268.7 L187.8,268.5 L188,268.3 L188.2,268.1 L188.4,267.9 L188.5,267.6 L188.7,267.4 L188.9,267.2 L189.1,266.9 L189.2,266.7 L189.4,266.4 L189.6,266.2 L189.7,265.9 L189.9,265.6 L190.1,265.3 L190.3,265 L190.4,264.7 L190.6,264.4 L190.8,264.1 L190.9,263.8 L191.1,263.4 L191.3,263.1 L191.5,262.8 L191.6,262.4 L191.8,262 L192,261.6 L192.1,261.3 L192.3,260.9 L192.5,260.4 L192.7,260 L192.8,259.6 L193,259.1 L193.2,258.7 L193.3,258.2 L193.5,257.7 L193.7,257.2 L193.9,256.7 L194,256.1 L194.2,255.5 L194.4,255 L194.6,254.4 L194.7,253.7 L194.9,253.1 L195.1,252.4 L195.2,251.7 L195.4,250.9 L195.6,250.2 L195.8,249.4 L195.9,248.5 L196.1,247.6 L196.3,246.7 L196.4,245.7 L196.6,244.6 L196.8,243.5 L197,242.3 L197.1,241 L197.3,239.6 L197.5,238 L197.6,236.4 L197.8,234.5 L198,232.5 L198.2,230.2 L198.3,227.5 L198.5,224.3 L198.7,220.5 L198.9,215.5 L199,208.5 L199.2,196.5 " fill="none"/></g>
<g clip-path="url(#plot_window)" stroke="rgb(0,0,139)" stroke-width="1"><path d="M130.6,67.42 L130.8,227.2 L130.9,239 L131.1,245.9 L131.3,250.7 L131.4,254.4 L131.6,257.4 L131.8,260 L132,262.2 L132.1,264.1 L132.3,265.8 L132.5,267.3 L132.6,268.6 L132.8,269.9 L133,271 L133.2,272.1 L133.3,273.1 L133.5,274 L133.7,274.9 L133.9,275.7 L134,276.4 L134.2,277.1 L134.4,277.8 L134.5,278.4 L134.7,279 L134.9,279.6 L135.1,280.1 L135.2,280.6 L135.4,281.1 L135.6,281.5 L135.7,282 L135.9,282.4 L136.1,282.8 L136.3,283.2 L136.4,283.5 L136.6,283.9 L136.8,284.2 L136.9,284.5 L137.1,284.8 L137.3,285.1 L137.5,285.4 L137.6,285.6 L137.8,285.9 L138,286.1 L138.2,286.4 L138.3,286.6 L138.5,286.8 L138.7,287 L138.8,287.2 L139,287.4 L139.2,287.5 L139.4,287.7 L139.5,287.8 L139.7,288 L139.9,288.1 L140,288.3 L140.2,288.4 L140.4,288.5 L140.6,288.6 L140.7,288.7 L140.9,288.8 L141.1,288.9 L141.2,289 L141.4,289.1 L141.6,289.2 L141.8,289.2 L141.9,289.3 L142.1,289.4 L142.3,289.4 L142.4,289.5 L142.6,289.5 L142.8,289.5 L143,289.6 L143.1,289.6 L143.3,289.6 L143.5,289.6 L143.7,289.6 L143.8,289.6 L144,289.6 L144.2,289.6 L144.3,289.6 L144.5,289.6 L144.7,289.6 L144.9,289.6 L145,289.6 L145.2,289.5 L145.4,289.5 L145.5,289.5 L145.7,289.4 L145.9,289.4 L146.1,289.3 L146.2,289.3 L146.4,289.2 L146.6,289.1 L146.7,289.1 L146.9,289 L147.1,288.9 L147.3,288.8 L147.4,288.8 L147.6,288.7 L147.8,288.6 L148,288.5 L148.1,288.4 L148.3,288.3 L148.5,288.2 L148.6,288 L148.8,287.9 L149,287.8 L149.2,287.7 L149.3,287.6 L149.5,287.4 L149.7,287.3 L149.8,287.1 L150,287 L150.2,286.8 L150.4,286.7 L150.5,286.5 L150.7,286.4 L150.9,286.2 L151,286 L151.2,285.8 L151.4,285.7 L151.6,285.5 L151.7,285.3 L151.9,285.1 L152.1,284.9 L152.3,284.7 L152.4,284.5 L152.6,284.3 L152.8,284 L152.9,283.8 L153.1,283.6 L153.3,283.3 L153.5,283.1 L153.6,282.9 L153.8,282.6 L154,282.3 L154.1,282.1 L154.3,281.8 L154.5,281.5 L154.7,281.2 L154.8,281 L155,280.7 L155.2,280.4 L155.3,280.1 L155.5,279.7 L155.7,279.4 L155.9,279.1 L156,278.7 L156.2,278.4 L156.4,278.1 L156.6,277.7 L156.7,277.3 L156.9,276.9 L157.1,276.6 L157.2,276.2 L157.4,275.7 L157.6,275.3 L157.8,274.9 L157.9,274.5 L158.1,274 L158.3,273.5 L158.4,273.1 L158.6,272.6 L158.8,272.1 L159,271.6 L159.1,271 L159.3,270.5 L159.5,269.9 L159.6,269.3 L159.8,268.7 L160,268.1 L160.2,267.4 L160.3,266.8 L160.5,266.1 L160.7,265.4 L160.8,264.6 L161,263.8 L161.2,263 L161.4,262.2 L161.5,261.3 L161.7,260.3 L161.9,259.3 L162.1,258.3 L162.2,257.2 L162.4,256 L162.6,254.8 L162.7,253.4 L162.9,252 L163.1,250.4 L163.3,248.7 L163.4,246.9 L163.6,244.8 L163.8,242.4 L163.9,239.7 L164.1,236.5 L164.3,232.5 L164.5,227.5 L164.6,220.5 L164.8,208.5 " fill="none"/></g>
<g clip-path="url(#plot_window)" stroke="rgb(0,0,139)" stroke-width="1"><path d="M96.19,67.42 L96.36,251 L96.54,262.8 L96.71,269.6 L96.88,274.5 L97.05,278.2 L97.22,281.2 L97.4,283.7 L97.57,285.8 L97.74,287.7 L97.91,289.4 L98.08,290.9 L98.26,292.2 L98.43,293.5 L98.6,294.6 L98.77,295.6 L98.94,296.6 L99.12,297.5 L99.29,298.3 L99.46,299.1 L99.63,299.8 L99.8,300.5 L99.98,301.1 L100.1,301.7 L100.3,302.3 L100.5,302.8 L100.7,303.4 L100.8,303.8 L101,304.3 L101.2,304.7 L101.4,305.2 L101.5,305.5 L101.7,305.9 L101.9,306.3 L102,306.6 L102.2,306.9 L102.4,307.2 L102.6,307.5 L102.7,307.8 L102.9,308.1 L103.1,308.3 L103.2,308.6 L103.4,308.8 L103.6,309 L103.8,309.2 L103.9,309.4 L104.1,309.6 L104.3,309.8 L104.4,310 L104.6,310.1 L104.8,310.3 L105,310.4 L105.1,310.5 L105.3,310.7 L105.5,310.8 L105.6,310.9 L105.8,311 L106,311.1 L106.2,311.2 L106.3,311.3 L106.5,311.3 L106.7,311.4 L106.9,311.5 L107,311.5 L107.2,311.6 L107.4,311.6 L107.5,311.7 L107.7,311.7 L107.9,311.7 L108.1,311.7 L108.2,311.8 L108.4,311.8 L108.6,311.8 L108.7,311.8 L108.9,311.8 L109.1,311.8 L109.3,311.8 L109.4,311.7 L109.6,311.7 L109.8,311.7 L109.9,311.7 L110.1,311.6 L110.3,311.6 L110.5,311.5 L110.6,311.5 L110.8,311.4 L111,311.4 L111.2,311.3 L111.3,311.3 L111.5,311.2 L111.7,311.1 L111.8,311 L112,310.9 L112.2,310.9 L112.4,310.8 L112.5,310.7 L112.7,310.6 L112.9,310.5 L113,310.4 L113.2,310.2 L113.4,310.1 L113.6,310 L113.7,309.9 L113.9,309.7 L114.1,309.6 L114.2,309.5 L114.4,309.3 L114.6,309.2 L114.8,309 L114.9,308.9 L115.1,308.7 L115.3,308.6 L115.5,308.4 L115.6,308.2 L115.8,308 L116,307.9 L116.1,307.7 L116.3,307.5 L116.5,307.3 L116.7,307.1 L116.8,306.9 L117,306.7 L117.2,306.5 L117.3,306.3 L117.5,306 L117.7,305.8 L117.9,305.6 L118,305.3 L118.2,305.1 L118.4,304.9 L118.5,304.6 L118.7,304.3 L118.9,304.1 L119.1,303.8 L119.2,303.5 L119.4,303.3 L119.6,303 L119.8,302.7 L119.9,302.4 L120.1,302.1 L120.3,301.8 L120.4,301.5 L120.6,301.1 L120.8,300.8 L121,300.5 L121.1,300.1 L121.3,299.8 L121.5,299.4 L121.6,299.1 L121.8,298.7 L122,298.3 L122.2,297.9 L122.3,297.5 L122.5,297.1 L122.7,296.7 L122.8,296.3 L123,295.9 L123.2,295.4 L123.4,295 L123.5,294.5 L123.7,294 L123.9,293.5 L124,293 L124.2,292.5 L124.4,292 L124.6,291.4 L124.7,290.9 L124.9,290.3 L125.1,289.7 L125.3,289.1 L125.4,288.4 L125.6,287.8 L125.8,287.1 L125.9,286.4 L126.1,285.7 L126.3,285 L126.5,284.2 L126.6,283.4 L126.8,282.5 L127,281.6 L127.1,280.7 L127.3,279.8 L127.5,278.7 L127.7,277.7 L127.8,276.5 L128,275.3 L128.2,274.1 L128.3,272.7 L128.5,271.2 L128.7,269.6 L128.9,267.9 L129,266 L129.2,263.9 L129.4,261.5 L129.6,258.7 L129.7,255.5 L129.9,251.6 L130.1,246.5 L130.2,239.4 L130.4,227.4 " fill="none"/></g>
<g clip-path="url(#plot_window)" stroke="rgb(0,0,139)" stroke-width="1"><path d="M61.8,67.42 L61.97,278.7 L62.14,290.4 L62.32,297.3 L62.49,302.1 L62.66,305.8 L62.83,308.7 L63,311.2 L63.18,313.4 L63.35,315.2 L63.52,316.9 L63.69,318.4 L63.86,319.7 L64.04,320.9 L64.21,322 L64.38,323 L64.55,324 L64.72,324.9 L64.9,325.7 L65.07,326.4 L65.24,327.1 L65.41,327.8 L65.58,328.4 L65.76,329 L65.93,329.6 L66.1,330.1 L66.27,330.6 L66.44,331.1 L66.61,331.5 L66.79,331.9 L66.96,332.3 L67.13,332.7 L67.3,333 L67.47,333.4 L67.65,333.7 L67.82,334 L67.99,334.3 L68.16,334.6 L68.33,334.8 L68.51,335.1 L68.68,335.3 L68.85,335.5 L69.02,335.7 L69.19,335.9 L69.37,336.1 L69.54,336.3 L69.71,336.5 L69.88,336.6 L70.05,336.8 L70.23,336.9 L70.4,337.1 L70.57,337.2 L70.74,337.3 L70.91,337.4 L71.09,337.5 L71.26,337.6 L71.43,337.7 L71.6,337.8 L71.77,337.8 L71.95,337.9 L72.12,338 L72.29,338 L72.46,338.1 L72.63,338.1 L72.81,338.1 L72.98,338.1 L73.15,338.2 L73.32,338.2 L73.49,338.2 L73.67,338.2 L73.84,338.2 L74.01,338.2 L74.18,338.2 L74.35,338.2 L74.53,338.1 L74.7,338.1 L74.87,338.1 L75.04,338.1 L75.21,338 L75.38,338 L75.56,337.9 L75.73,337.9 L75.9,337.8 L76.07,337.7 L76.24,337.7 L76.42,337.6 L76.59,337.5 L76.76,337.4 L76.93,337.4 L77.1,337.3 L77.28,337.2 L77.45,337.1 L77.62,337 L77.79,336.9 L77.96,336.7 L78.14,336.6 L78.31,336.5 L78.48,336.4 L78.65,336.3 L78.82,336.1 L79,336 L79.17,335.8 L79.34,335.7 L79.51,335.6 L79.68,335.4 L79.86,335.2 L80.03,335.1 L80.2,334.9 L80.37,334.7 L80.54,334.6 L80.72,334.4 L80.89,334.2 L81.06,334 L81.23,333.8 L81.4,333.6 L81.58,333.4 L81.75,333.2 L81.92,333 L82.09,332.8 L82.26,332.6 L82.44,332.4 L82.61,332.1 L82.78,331.9 L82.95,331.7 L83.12,331.4 L83.3,331.2 L83.47,330.9 L83.64,330.7 L83.81,330.4 L83.98,330.2 L84.15,329.9 L84.33,329.6 L84.5,329.3 L84.67,329 L84.84,328.7 L85.01,328.5 L85.19,328.1 L85.36,327.8 L85.53,327.5 L85.7,327.2 L85.87,326.9 L86.05,326.5 L86.22,326.2 L86.39,325.8 L86.56,325.5 L86.73,325.1 L86.91,324.8 L87.08,324.4 L87.25,324 L87.42,323.6 L87.59,323.2 L87.77,322.8 L87.94,322.4 L88.11,322 L88.28,321.5 L88.45,321.1 L88.63,320.6 L88.8,320.2 L88.97,319.7 L89.14,319.2 L89.31,318.7 L89.49,318.2 L89.66,317.7 L89.83,317.1 L90,316.6 L90.17,316 L90.35,315.4 L90.52,314.8 L90.69,314.2 L90.86,313.6 L91.03,312.9 L91.21,312.3 L91.38,311.6 L91.55,310.8 L91.72,310.1 L91.89,309.3 L92.07,308.5 L92.24,307.7 L92.41,306.8 L92.58,305.9 L92.75,305 L92.92,304 L93.1,303 L93.27,301.9 L93.44,300.7 L93.61,299.5 L93.78,298.2 L93.96,296.8 L94.13,295.3 L94.3,293.7 L94.47,292 L94.64,290 L94.82,287.9 L94.99,285.5 L95.16,282.7 L95.33,279.4 L95.5,275.5 L95.68,270.4 L95.85,263.3 L96.02,251.3 " fill="none"/></g>
</g>
<g id="plotPoints" clip-path="url(#plot_window)"><g stroke="rgb(0,0,0)"></g>
<g stroke="rgb(0,0,0)"></g>
<g stroke="rgb(0,0,0)"></g>
<g stroke="rgb(0,0,0)"></g>
<g stroke="rgb(0,0,0)"></g>
<g stroke="rgb(0,0,0)"></g>
</g>
<g id="limitPoints" stroke="rgb(119,136,153)" fill="rgb(250,235,215)"></g>
<g id="legendBackground" stroke="rgb(119,136,153)" fill="rgb(255,255,255)"></g>
<g id="legendPoints"></g>
<g id="legendText"></g>
<g id="title">
<text x="300" y="40" text-anchor="middle" font-size="20" font-family="Verdana">lgamma</text></g>
</svg>
