<?xml version="1.0" encoding="UTF-8" standalone="no"?>
<svg width="750" height ="400" version="1.1" xmlns="http://www.w3.org/2000/svg"
 xmlns:xlink="http://www.w3.org/1999/xlink"
 xmlns:ev="http://www.w3.org/2001/xml-events">

<!-- SVG plot written using Boost.Plot program (Creator Jacob Voytko) --> 
<!-- Use, modification and distribution of Boost.Plot subject to the --> 
<!-- Boost Software License, Version 1.0.--> 
<!-- (See accompanying file LICENSE_1_0.txt --> 
<!-- or copy at http://www.boost.org/LICENSE_1_0.txt) --> 

<clipPath id="plot_window"><rect x="71.2" y="63" width="517.2" height="274.2"/></clipPath>
<g id="imageBackground" stroke="rgb(119,136,153)" fill="rgb(255,255,255)" stroke-width="2"><rect x="0" y="0" width="750" height="400"/></g>
<g id="plotBackground" stroke="rgb(119,136,153)" fill="rgb(255,255,255)" stroke-width="2"><rect x="70.2" y="62" width="519.2" height="276.2"/></g>
<g id="yMinorGrid" stroke="rgb(200,220,255)" stroke-width="0.5"></g>
<g id="yMajorGrid" stroke="rgb(200,220,255)" stroke-width="1"></g>
<g id="xMinorGrid" stroke="rgb(200,220,255)" stroke-width="0.5"></g>
<g id="xMajorGrid" stroke="rgb(200,220,255)" stroke-width="1"></g>
<g id="yAxis" stroke="rgb(0,0,0)" stroke-width="1"><line x1="70.2" y1="62" x2="70.2" y2="343.2"/><line x1="70.2" y1="62" x2="70.2" y2="338.2"/></g>
<g id="xAxis" stroke="rgb(0,0,0)" stroke-width="1"><line x1="65.2" y1="338.2" x2="589.4" y2="338.2"/><line x1="65.2" y1="338.2" x2="589.4" y2="338.2"/></g>
<g id="yMinorTicks" stroke="rgb(0,0,0)" stroke-width="1"><path d="M68.2,319 L70.2,319 M68.2,299.8 L70.2,299.8 M68.2,280.5 L70.2,280.5 M68.2,261.3 L70.2,261.3 M68.2,222.9 L70.2,222.9 M68.2,203.6 L70.2,203.6 M68.2,184.4 L70.2,184.4 M68.2,165.2 L70.2,165.2 M68.2,126.7 L70.2,126.7 M68.2,107.5 L70.2,107.5 M68.2,88.28 L70.2,88.28 M68.2,69.05 L70.2,69.05 M68.2,338.2 L70.2,338.2 "/></g>
<g id="xMinorTicks" stroke="rgb(0,0,0)" stroke-width="1"><path d="M94.62,338.2 L94.62,340.2 M119,338.2 L119,340.2 M143.5,338.2 L143.5,340.2 M167.9,338.2 L167.9,340.2 M216.7,338.2 L216.7,340.2 M241.2,338.2 L241.2,340.2 M265.6,338.2 L265.6,340.2 M290,338.2 L290,340.2 M338.9,338.2 L338.9,340.2 M363.3,338.2 L363.3,340.2 M387.7,338.2 L387.7,340.2 M412.1,338.2 L412.1,340.2 M461,338.2 L461,340.2 M485.4,338.2 L485.4,340.2 M509.8,338.2 L509.8,340.2 M534.3,338.2 L534.3,340.2 M583.1,338.2 L583.1,340.2 "/></g>
<g id="yMajorTicks" stroke="rgb(0,0,0)" stroke-width="2"><path d="M65.2,338.2 L70.2,338.2 M65.2,242.1 L70.2,242.1 M65.2,146 L70.2,146 M65.2,338.2 L70.2,338.2 "/></g>
<g id="xMajorTicks" stroke="rgb(0,0,0)" stroke-width="2"><path d="M70.2,338.2 L70.2,343.2 M192.3,338.2 L192.3,343.2 M314.4,338.2 L314.4,343.2 M436.6,338.2 L436.6,343.2 M558.7,338.2 L558.7,343.2 M70.2,338.2 L70.2,343.2 "/></g>
<g id="plotLabels">
<text x="70.2" y="357.6" text-anchor="middle" font-size="12" font-family="Verdana">0</text>
<text x="192.3" y="357.6" text-anchor="middle" font-size="12" font-family="Verdana">1</text>
<text x="314.4" y="357.6" text-anchor="middle" font-size="12" font-family="Verdana">2</text>
<text x="436.6" y="357.6" text-anchor="middle" font-size="12" font-family="Verdana">3</text>
<text x="558.7" y="357.6" text-anchor="middle" font-size="12" font-family="Verdana">4</text>
<text x="70.2" y="357.6" text-anchor="middle" font-size="12" font-family="Verdana">0</text>
<text x="59.2" y="340.6" text-anchor="end" font-size="12" font-family="Verdana">0</text>
<text x="59.2" y="244.5" text-anchor="end" font-size="12" font-family="Verdana">0.5</text>
<text x="59.2" y="148.4" text-anchor="end" font-size="12" font-family="Verdana">1</text>
<text x="59.2" y="340.6" text-anchor="end" font-size="12" font-family="Verdana">0</text></g>
<g id="yLabel">
<text x="30.2" y="200.1" text-anchor="middle" transform = "rotate(-90 30.2 200.1 )" font-size="14" font-family="Verdana">Probability</text></g>
<g id="xLabel">
<text x="329.8" y="384" text-anchor="middle" font-size="14" font-family="Verdana">Random Variable</text></g>
<g id="plotLines" stroke-width="2"><g clip-path="url(#plot_window)" stroke="rgb(0,0,139)" stroke-width="1"><path d="M70.2,338.2 L72.8,338.2 L75.39,338.2 L77.99,338.2 L80.58,338.2 L83.18,338.1 L85.78,338 L88.37,337.5 L90.97,336.5 L93.57,334.8 L96.16,332.2 L98.76,328.6 L101.4,323.8 L104,317.9 L106.5,310.9 L109.1,302.9 L111.7,294.1 L114.3,284.7 L116.9,274.9 L119.5,264.8 L122.1,254.7 L124.7,244.6 L127.3,234.9 L129.9,225.5 L132.5,216.7 L135.1,208.4 L137.7,200.8 L140.3,193.9 L142.9,187.8 L145.5,182.4 L148.1,177.7 L150.7,173.8 L153.3,170.6 L155.9,168.1 L158.5,166.3 L161.1,165.1 L163.7,164.5 L166.3,164.4 L168.9,164.8 L171.5,165.7 L174,167 L176.6,168.7 L179.2,170.8 L181.8,173.1 L184.4,175.7 L187,178.5 L189.6,181.5 L192.2,184.7 L194.8,188 L197.4,191.4 L200,195 L202.6,198.6 L205.2,202.2 L207.8,205.9 L210.4,209.6 L213,213.3 L215.6,217 L218.2,220.6 L220.8,224.3 L223.4,227.8 L226,231.4 L228.6,234.9 L231.2,238.3 L233.8,241.6 L236.4,244.9 L239,248.1 L241.5,251.3 L244.1,254.4 L246.7,257.3 L249.3,260.2 L251.9,263.1 L254.5,265.8 L257.1,268.5 L259.7,271 L262.3,273.5 L264.9,275.9 L267.5,278.3 L270.1,280.6 L272.7,282.7 L275.3,284.9 L277.9,286.9 L280.5,288.9 L283.1,290.8 L285.7,292.6 L288.3,294.4 L290.9,296.1 L293.5,297.7 L296.1,299.3 L298.7,300.8 L301.3,302.3 L303.9,303.7 L306.5,305 L309.1,306.3 L311.6,307.6 L314.2,308.8 L316.8,309.9 L319.4,311 L322,312.1 L324.6,313.1 L327.2,314.1 L329.8,315.1 L332.4,316 L335,316.9 L337.6,317.7 L340.2,318.5 L342.8,319.3 L345.4,320 L348,320.7 L350.6,321.4 L353.2,322.1 L355.8,322.7 L358.4,323.3 L361,323.9 L363.6,324.5 L366.2,325 L368.8,325.5 L371.4,326 L374,326.5 L376.6,326.9 L379.1,327.4 L381.7,327.8 L384.3,328.2 L386.9,328.6 L389.5,329 L392.1,329.3 L394.7,329.7 L397.3,330 L399.9,330.3 L402.5,330.6 L405.1,330.9 L407.7,331.2 L410.3,331.4 L412.9,331.7 L415.5,331.9 L418.1,332.2 L420.7,332.4 L423.3,332.6 L425.9,332.8 L428.5,333 L431.1,333.2 L433.7,333.4 L436.3,333.6 L438.9,333.8 L441.5,333.9 L444.1,334.1 L446.6,334.3 L449.2,334.4 L451.8,334.5 L454.4,334.7 L457,334.8 L459.6,334.9 L462.2,335.1 L464.8,335.2 L467.4,335.3 L470,335.4 L472.6,335.5 L475.2,335.6 L477.8,335.7 L480.4,335.8 L483,335.9 L485.6,335.9 L488.2,336 L490.8,336.1 L493.4,336.2 L496,336.3 L498.6,336.3 L501.2,336.4 L503.8,336.5 L506.4,336.5 L509,336.6 L511.6,336.6 L514.2,336.7 L516.7,336.7 L519.3,336.8 L521.9,336.8 L524.5,336.9 L527.1,336.9 L529.7,337 L532.3,337 L534.9,337.1 L537.5,337.1 L540.1,337.1 L542.7,337.2 L545.3,337.2 L547.9,337.3 L550.5,337.3 L553.1,337.3 L555.7,337.3 L558.3,337.4 L560.9,337.4 L563.5,337.4 L566.1,337.5 L568.7,337.5 L571.3,337.5 L573.9,337.5 L576.5,337.6 L579.1,337.6 L581.7,337.6 L584.2,337.6 L586.8,337.6 L589.4,337.7 " fill="none"/></g>
<g clip-path="url(#plot_window)" stroke="rgb(139,0,0)" stroke-width="1"><path d="M70.2,338.2 L72.8,336 L75.39,325.9 L77.99,311 L80.58,294.9 L83.18,279.7 L85.78,266 L88.37,254.2 L90.97,244.3 L93.57,236.1 L96.16,229.4 L98.76,224.1 L101.4,219.9 L104,216.8 L106.5,214.6 L109.1,213 L111.7,212.1 L114.3,211.8 L116.9,211.8 L119.5,212.3 L122.1,213.1 L124.7,214.1 L127.3,215.3 L129.9,216.8 L132.5,218.3 L135.1,220 L137.7,221.8 L140.3,223.7 L142.9,225.6 L145.5,227.5 L148.1,229.5 L150.7,231.5 L153.3,233.5 L155.9,235.5 L158.5,237.5 L161.1,239.5 L163.7,241.5 L166.3,243.5 L168.9,245.4 L171.5,247.3 L174,249.2 L176.6,251 L179.2,252.9 L181.8,254.6 L184.4,256.4 L187,258.1 L189.6,259.8 L192.2,261.4 L194.8,263.1 L197.4,264.6 L200,266.2 L202.6,267.7 L205.2,269.2 L207.8,270.6 L210.4,272 L213,273.4 L215.6,274.7 L218.2,276.1 L220.8,277.3 L223.4,278.6 L226,279.8 L228.6,281 L231.2,282.2 L233.8,283.3 L236.4,284.4 L239,285.5 L241.5,286.6 L244.1,287.6 L246.7,288.6 L249.3,289.6 L251.9,290.6 L254.5,291.5 L257.1,292.4 L259.7,293.3 L262.3,294.2 L264.9,295.1 L267.5,295.9 L270.1,296.7 L272.7,297.5 L275.3,298.3 L277.9,299 L280.5,299.8 L283.1,300.5 L285.7,301.2 L288.3,301.9 L290.9,302.6 L293.5,303.2 L296.1,303.9 L298.7,304.5 L301.3,305.1 L303.9,305.7 L306.5,306.3 L309.1,306.9 L311.6,307.4 L314.2,308 L316.8,308.5 L319.4,309.1 L322,309.6 L324.6,310.1 L327.2,310.6 L329.8,311.1 L332.4,311.5 L335,312 L337.6,312.4 L340.2,312.9 L342.8,313.3 L345.4,313.7 L348,314.1 L350.6,314.6 L353.2,314.9 L355.8,315.3 L358.4,315.7 L361,316.1 L363.6,316.5 L366.2,316.8 L368.8,317.2 L371.4,317.5 L374,317.8 L376.6,318.2 L379.1,318.5 L381.7,318.8 L384.3,319.1 L386.9,319.4 L389.5,319.7 L392.1,320 L394.7,320.3 L397.3,320.6 L399.9,320.9 L402.5,321.1 L405.1,321.4 L407.7,321.6 L410.3,321.9 L412.9,322.2 L415.5,322.4 L418.1,322.6 L420.7,322.9 L423.3,323.1 L425.9,323.3 L428.5,323.6 L431.1,323.8 L433.7,324 L436.3,324.2 L438.9,324.4 L441.5,324.6 L444.1,324.8 L446.6,325 L449.2,325.2 L451.8,325.4 L454.4,325.6 L457,325.7 L459.6,325.9 L462.2,326.1 L464.8,326.3 L467.4,326.4 L470,326.6 L472.6,326.8 L475.2,326.9 L477.8,327.1 L480.4,327.2 L483,327.4 L485.6,327.5 L488.2,327.7 L490.8,327.8 L493.4,328 L496,328.1 L498.6,328.3 L501.2,328.4 L503.8,328.5 L506.4,328.6 L509,328.8 L511.6,328.9 L514.2,329 L516.7,329.1 L519.3,329.3 L521.9,329.4 L524.5,329.5 L527.1,329.6 L529.7,329.7 L532.3,329.8 L534.9,329.9 L537.5,330.1 L540.1,330.2 L542.7,330.3 L545.3,330.4 L547.9,330.5 L550.5,330.6 L553.1,330.7 L555.7,330.8 L558.3,330.9 L560.9,330.9 L563.5,331 L566.1,331.1 L568.7,331.2 L571.3,331.3 L573.9,331.4 L576.5,331.5 L579.1,331.6 L581.7,331.6 L584.2,331.7 L586.8,331.8 L589.4,331.9 " fill="none"/></g>
<g clip-path="url(#plot_window)" stroke="rgb(0,100,0)" stroke-width="1"><path d="M70.2,338.2 L72.8,55.63 L75.39,78.88 L77.99,104.9 L80.58,127.2 L83.18,145.7 L85.78,161.2 L88.37,174.5 L90.97,185.9 L93.57,195.8 L96.16,204.5 L98.76,212.3 L101.4,219.2 L104,225.4 L106.5,231 L109.1,236.1 L111.7,240.7 L114.3,245 L116.9,248.9 L119.5,252.5 L122.1,255.9 L124.7,259 L127.3,261.9 L129.9,264.6 L132.5,267.2 L135.1,269.6 L137.7,271.8 L140.3,273.9 L142.9,275.9 L145.5,277.8 L148.1,279.6 L150.7,281.3 L153.3,282.9 L155.9,284.4 L158.5,285.8 L161.1,287.2 L163.7,288.5 L166.3,289.8 L168.9,291 L171.5,292.2 L174,293.3 L176.6,294.3 L179.2,295.3 L181.8,296.3 L184.4,297.2 L187,298.1 L189.6,299 L192.2,299.8 L194.8,300.6 L197.4,301.4 L200,302.1 L202.6,302.9 L205.2,303.6 L207.8,304.2 L210.4,304.9 L213,305.5 L215.6,306.1 L218.2,306.7 L220.8,307.3 L223.4,307.8 L226,308.4 L228.6,308.9 L231.2,309.4 L233.8,309.9 L236.4,310.3 L239,310.8 L241.5,311.3 L244.1,311.7 L246.7,312.1 L249.3,312.5 L251.9,312.9 L254.5,313.3 L257.1,313.7 L259.7,314.1 L262.3,314.4 L264.9,314.8 L267.5,315.1 L270.1,315.5 L272.7,315.8 L275.3,316.1 L277.9,316.4 L280.5,316.7 L283.1,317 L285.7,317.3 L288.3,317.6 L290.9,317.9 L293.5,318.2 L296.1,318.4 L298.7,318.7 L301.3,318.9 L303.9,319.2 L306.5,319.4 L309.1,319.7 L311.6,319.9 L314.2,320.1 L316.8,320.3 L319.4,320.6 L322,320.8 L324.6,321 L327.2,321.2 L329.8,321.4 L332.4,321.6 L335,321.8 L337.6,322 L340.2,322.2 L342.8,322.4 L345.4,322.5 L348,322.7 L350.6,322.9 L353.2,323 L355.8,323.2 L358.4,323.4 L361,323.5 L363.6,323.7 L366.2,323.9 L368.8,324 L371.4,324.2 L374,324.3 L376.6,324.4 L379.1,324.6 L381.7,324.7 L384.3,324.9 L386.9,325 L389.5,325.1 L392.1,325.3 L394.7,325.4 L397.3,325.5 L399.9,325.6 L402.5,325.8 L405.1,325.9 L407.7,326 L410.3,326.1 L412.9,326.2 L415.5,326.4 L418.1,326.5 L420.7,326.6 L423.3,326.7 L425.9,326.8 L428.5,326.9 L431.1,327 L433.7,327.1 L436.3,327.2 L438.9,327.3 L441.5,327.4 L444.1,327.5 L446.6,327.6 L449.2,327.7 L451.8,327.8 L454.4,327.9 L457,327.9 L459.6,328 L462.2,328.1 L464.8,328.2 L467.4,328.3 L470,328.4 L472.6,328.5 L475.2,328.5 L477.8,328.6 L480.4,328.7 L483,328.8 L485.6,328.9 L488.2,328.9 L490.8,329 L493.4,329.1 L496,329.1 L498.6,329.2 L501.2,329.3 L503.8,329.4 L506.4,329.4 L509,329.5 L511.6,329.6 L514.2,329.6 L516.7,329.7 L519.3,329.8 L521.9,329.8 L524.5,329.9 L527.1,330 L529.7,330 L532.3,330.1 L534.9,330.1 L537.5,330.2 L540.1,330.3 L542.7,330.3 L545.3,330.4 L547.9,330.4 L550.5,330.5 L553.1,330.5 L555.7,330.6 L558.3,330.7 L560.9,330.7 L563.5,330.8 L566.1,330.8 L568.7,330.9 L571.3,330.9 L573.9,331 L576.5,331 L579.1,331.1 L581.7,331.1 L584.2,331.2 L586.8,331.2 L589.4,331.3 " fill="none"/></g>
</g>
<g id="plotPoints" clip-path="url(#plot_window)"><g stroke="rgb(0,0,0)"></g>
<g stroke="rgb(0,0,0)"></g>
<g stroke="rgb(0,0,0)"></g>
</g>
<g id="limitPoints" stroke="rgb(119,136,153)" fill="rgb(250,235,215)"></g>
<g id="legendBackground" stroke="rgb(119,136,153)" fill="rgb(255,255,255)" stroke-width="1"><rect x="603.4" y="62" width="134.6" height="105"/><rect x="603.4" y="62" width="134.6" height="105"/></g>
<g id="legendPoints"><g stroke="rgb(0,0,139)" stroke-width="1"><line x1="618.4" y1="92" x2="633.4" y2="92"/></g>
<g stroke="rgb(139,0,0)" stroke-width="1"><line x1="618.4" y1="122" x2="633.4" y2="122"/></g>
<g stroke="rgb(0,100,0)" stroke-width="1"><line x1="618.4" y1="152" x2="633.4" y2="152"/></g>
</g>
<g id="legendText">
<text x="640.9" y="92" font-size="15" font-family="Verdana">scale=0.5</text>
<text x="640.9" y="122" font-size="15" font-family="Verdana">scale=1</text>
<text x="640.9" y="152" font-size="15" font-family="Verdana">scale=2</text></g>
<g id="title">
<text x="375" y="40" text-anchor="middle" font-size="20" font-family="Verdana">Lognormal Distribution PDF (location=0)</text></g>
</svg>
