<?xml version="1.0" encoding="UTF-8" standalone="no"?>
<svg width="750" height ="400" version="1.1" xmlns="http://www.w3.org/2000/svg"
 xmlns:xlink="http://www.w3.org/1999/xlink"
 xmlns:ev="http://www.w3.org/2001/xml-events">

<!-- SVG plot written using Boost.Plot program (Creator Jacob Voytko) --> 
<!-- Use, modification and distribution of Boost.Plot subject to the --> 
<!-- Boost Software License, Version 1.0.--> 
<!-- (See accompanying file LICENSE_1_0.txt --> 
<!-- or copy at http://www.boost.org/LICENSE_1_0.txt) --> 

<clipPath id="plot_window"><rect x="71.2" y="63" width="501.6" height="274.2"/></clipPath>
<g id="imageBackground" stroke="rgb(119,136,153)" fill="rgb(255,255,255)" stroke-width="2"><rect x="0" y="0" width="750" height="400"/></g>
<g id="plotBackground" stroke="rgb(119,136,153)" fill="rgb(255,255,255)" stroke-width="2"><rect x="70.2" y="62" width="503.6" height="276.2"/></g>
<g id="yMinorGrid" stroke="rgb(200,220,255)" stroke-width="0.5"></g>
<g id="yMajorGrid" stroke="rgb(200,220,255)" stroke-width="1"></g>
<g id="xMinorGrid" stroke="rgb(200,220,255)" stroke-width="0.5"></g>
<g id="xMajorGrid" stroke="rgb(200,220,255)" stroke-width="1"></g>
<g id="yAxis" stroke="rgb(0,0,0)" stroke-width="1"><line x1="70.2" y1="62" x2="70.2" y2="343.2"/><line x1="70.2" y1="62" x2="70.2" y2="338.2"/></g>
<g id="xAxis" stroke="rgb(0,0,0)" stroke-width="1"><line x1="65.2" y1="338.2" x2="573.8" y2="338.2"/><line x1="65.2" y1="338.2" x2="573.8" y2="338.2"/></g>
<g id="yMinorTicks" stroke="rgb(0,0,0)" stroke-width="1"><path d="M68.2,324.2 L70.2,324.2 M68.2,310.1 L70.2,310.1 M68.2,296.1 L70.2,296.1 M68.2,282 L70.2,282 M68.2,253.9 L70.2,253.9 M68.2,239.9 L70.2,239.9 M68.2,225.9 L70.2,225.9 M68.2,211.8 L70.2,211.8 M68.2,183.7 L70.2,183.7 M68.2,169.7 L70.2,169.7 M68.2,155.6 L70.2,155.6 M68.2,141.6 L70.2,141.6 M68.2,113.5 L70.2,113.5 M68.2,99.46 L70.2,99.46 M68.2,85.41 L70.2,85.41 M68.2,71.37 L70.2,71.37 M68.2,338.2 L70.2,338.2 "/></g>
<g id="xMinorTicks" stroke="rgb(0,0,0)" stroke-width="1"><path d="M113.8,338.2 L113.8,340.2 M157.3,338.2 L157.3,340.2 M200.9,338.2 L200.9,340.2 M244.5,338.2 L244.5,340.2 M331.6,338.2 L331.6,340.2 M375.2,338.2 L375.2,340.2 M418.8,338.2 L418.8,340.2 M462.3,338.2 L462.3,340.2 M549.5,338.2 L549.5,340.2 "/></g>
<g id="yMajorTicks" stroke="rgb(0,0,0)" stroke-width="2"><path d="M65.2,338.2 L70.2,338.2 M65.2,268 L70.2,268 M65.2,197.8 L70.2,197.8 M65.2,127.5 L70.2,127.5 M65.2,338.2 L70.2,338.2 "/></g>
<g id="xMajorTicks" stroke="rgb(0,0,0)" stroke-width="2"><path d="M70.2,338.2 L70.2,343.2 M288,338.2 L288,343.2 M505.9,338.2 L505.9,343.2 M70.2,338.2 L70.2,343.2 "/></g>
<g id="plotLabels">
<text x="70.2" y="357.6" text-anchor="middle" font-size="12" font-family="Verdana">0</text>
<text x="288" y="357.6" text-anchor="middle" font-size="12" font-family="Verdana">5</text>
<text x="505.9" y="357.6" text-anchor="middle" font-size="12" font-family="Verdana">10</text>
<text x="70.2" y="357.6" text-anchor="middle" font-size="12" font-family="Verdana">0</text>
<text x="59.2" y="340.6" text-anchor="end" font-size="12" font-family="Verdana">0</text>
<text x="59.2" y="270.4" text-anchor="end" font-size="12" font-family="Verdana">0.5</text>
<text x="59.2" y="200.2" text-anchor="end" font-size="12" font-family="Verdana">1</text>
<text x="59.2" y="129.9" text-anchor="end" font-size="12" font-family="Verdana">1.5</text>
<text x="59.2" y="340.6" text-anchor="end" font-size="12" font-family="Verdana">0</text></g>
<g id="yLabel">
<text x="30.2" y="200.1" text-anchor="middle" transform = "rotate(-90 30.2 200.1 )" font-size="14" font-family="Verdana">Probability</text></g>
<g id="xLabel">
<text x="322" y="384" text-anchor="middle" font-size="14" font-family="Verdana">Random Variable</text></g>
<g id="plotLines" stroke-width="2"><g clip-path="url(#plot_window)" stroke="rgb(0,0,139)" stroke-width="1"><path d="M70.2,338.2 L72.72,163.4 L75.24,90.22 L77.75,94.69 L80.27,120.6 L82.79,149.9 L85.31,176.9 L87.82,200.3 L90.34,220.1 L92.86,236.7 L95.38,250.7 L97.9,262.3 L100.4,272.1 L102.9,280.4 L105.4,287.4 L108,293.4 L110.5,298.6 L113,303 L115.5,306.8 L118,310.1 L120.6,313 L123.1,315.6 L125.6,317.8 L128.1,319.7 L130.6,321.5 L133.1,323 L135.7,324.3 L138.2,325.6 L140.7,326.6 L143.2,327.6 L145.7,328.5 L148.3,329.3 L150.8,330 L153.3,330.6 L155.8,331.2 L158.3,331.7 L160.8,332.2 L163.4,332.6 L165.9,333 L168.4,333.4 L170.9,333.7 L173.4,334 L175.9,334.3 L178.5,334.6 L181,334.8 L183.5,335 L186,335.2 L188.5,335.4 L191.1,335.6 L193.6,335.7 L196.1,335.9 L198.6,336 L201.1,336.1 L203.6,336.3 L206.2,336.4 L208.7,336.5 L211.2,336.6 L213.7,336.7 L216.2,336.7 L218.8,336.8 L221.3,336.9 L223.8,337 L226.3,337 L228.8,337.1 L231.3,337.1 L233.9,337.2 L236.4,337.2 L238.9,337.3 L241.4,337.3 L243.9,337.4 L246.4,337.4 L249,337.5 L251.5,337.5 L254,337.5 L256.5,337.6 L259,337.6 L261.6,337.6 L264.1,337.6 L266.6,337.7 L269.1,337.7 L271.6,337.7 L274.1,337.7 L276.7,337.7 L279.2,337.8 L281.7,337.8 L284.2,337.8 L286.7,337.8 L289.2,337.8 L291.8,337.8 L294.3,337.9 L296.8,337.9 L299.3,337.9 L301.8,337.9 L304.4,337.9 L306.9,337.9 L309.4,337.9 L311.9,337.9 L314.4,338 L316.9,338 L319.5,338 L322,338 L324.5,338 L327,338 L329.5,338 L332.1,338 L334.6,338 L337.1,338 L339.6,338 L342.1,338 L344.6,338 L347.2,338 L349.7,338.1 L352.2,338.1 L354.7,338.1 L357.2,338.1 L359.7,338.1 L362.3,338.1 L364.8,338.1 L367.3,338.1 L369.8,338.1 L372.3,338.1 L374.9,338.1 L377.4,338.1 L379.9,338.1 L382.4,338.1 L384.9,338.1 L387.4,338.1 L390,338.1 L392.5,338.1 L395,338.1 L397.5,338.1 L400,338.1 L402.5,338.1 L405.1,338.1 L407.6,338.1 L410.1,338.1 L412.6,338.1 L415.1,338.1 L417.7,338.1 L420.2,338.1 L422.7,338.1 L425.2,338.1 L427.7,338.1 L430.2,338.1 L432.8,338.1 L435.3,338.1 L437.8,338.2 L440.3,338.2 L442.8,338.2 L445.4,338.2 L447.9,338.2 L450.4,338.2 L452.9,338.2 L455.4,338.2 L457.9,338.2 L460.5,338.2 L463,338.2 L465.5,338.2 L468,338.2 L470.5,338.2 L473,338.2 L475.6,338.2 L478.1,338.2 L480.6,338.2 L483.1,338.2 L485.6,338.2 L488.2,338.2 L490.7,338.2 L493.2,338.2 L495.7,338.2 L498.2,338.2 L500.7,338.2 L503.3,338.2 L505.8,338.2 L508.3,338.2 L510.8,338.2 L513.3,338.2 L515.9,338.2 L518.4,338.2 L520.9,338.2 L523.4,338.2 L525.9,338.2 L528.4,338.2 L531,338.2 L533.5,338.2 L536,338.2 L538.5,338.2 L541,338.2 L543.5,338.2 L546.1,338.2 L548.6,338.2 L551.1,338.2 L553.6,338.2 L556.1,338.2 L558.7,338.2 L561.2,338.2 L563.7,338.2 L566.2,338.2 L568.7,338.2 L571.2,338.2 L573.8,338.2 " fill="none"/></g>
<g clip-path="url(#plot_window)" stroke="rgb(139,0,0)" stroke-width="1"><path d="M70.2,338.2 L72.72,321.5 L75.24,290.9 L77.75,268.6 L80.27,255.3 L82.79,248.5 L85.31,246 L87.82,246.2 L90.34,248.2 L92.86,251.2 L95.38,254.8 L97.9,258.7 L100.4,262.6 L102.9,266.6 L105.4,270.5 L108,274.2 L110.5,277.8 L113,281.2 L115.5,284.4 L118,287.4 L120.6,290.2 L123.1,292.9 L125.6,295.4 L128.1,297.7 L130.6,299.9 L133.1,302 L135.7,303.9 L138.2,305.7 L140.7,307.4 L143.2,308.9 L145.7,310.4 L148.3,311.8 L150.8,313.1 L153.3,314.3 L155.8,315.5 L158.3,316.6 L160.8,317.6 L163.4,318.6 L165.9,319.5 L168.4,320.3 L170.9,321.1 L173.4,321.9 L175.9,322.6 L178.5,323.3 L181,323.9 L183.5,324.6 L186,325.1 L188.5,325.7 L191.1,326.2 L193.6,326.7 L196.1,327.2 L198.6,327.6 L201.1,328 L203.6,328.4 L206.2,328.8 L208.7,329.2 L211.2,329.5 L213.7,329.8 L216.2,330.2 L218.8,330.5 L221.3,330.7 L223.8,331 L226.3,331.3 L228.8,331.5 L231.3,331.8 L233.9,332 L236.4,332.2 L238.9,332.4 L241.4,332.6 L243.9,332.8 L246.4,333 L249,333.2 L251.5,333.3 L254,333.5 L256.5,333.6 L259,333.8 L261.6,333.9 L264.1,334.1 L266.6,334.2 L269.1,334.3 L271.6,334.4 L274.1,334.6 L276.7,334.7 L279.2,334.8 L281.7,334.9 L284.2,335 L286.7,335.1 L289.2,335.2 L291.8,335.3 L294.3,335.4 L296.8,335.4 L299.3,335.5 L301.8,335.6 L304.4,335.7 L306.9,335.7 L309.4,335.8 L311.9,335.9 L314.4,335.9 L316.9,336 L319.5,336.1 L322,336.1 L324.5,336.2 L327,336.2 L329.5,336.3 L332.1,336.3 L334.6,336.4 L337.1,336.4 L339.6,336.5 L342.1,336.5 L344.6,336.6 L347.2,336.6 L349.7,336.6 L352.2,336.7 L354.7,336.7 L357.2,336.8 L359.7,336.8 L362.3,336.8 L364.8,336.9 L367.3,336.9 L369.8,336.9 L372.3,337 L374.9,337 L377.4,337 L379.9,337 L382.4,337.1 L384.9,337.1 L387.4,337.1 L390,337.2 L392.5,337.2 L395,337.2 L397.5,337.2 L400,337.2 L402.5,337.3 L405.1,337.3 L407.6,337.3 L410.1,337.3 L412.6,337.3 L415.1,337.4 L417.7,337.4 L420.2,337.4 L422.7,337.4 L425.2,337.4 L427.7,337.5 L430.2,337.5 L432.8,337.5 L435.3,337.5 L437.8,337.5 L440.3,337.5 L442.8,337.5 L445.4,337.6 L447.9,337.6 L450.4,337.6 L452.9,337.6 L455.4,337.6 L457.9,337.6 L460.5,337.6 L463,337.6 L465.5,337.7 L468,337.7 L470.5,337.7 L473,337.7 L475.6,337.7 L478.1,337.7 L480.6,337.7 L483.1,337.7 L485.6,337.7 L488.2,337.7 L490.7,337.8 L493.2,337.8 L495.7,337.8 L498.2,337.8 L500.7,337.8 L503.3,337.8 L505.8,337.8 L508.3,337.8 L510.8,337.8 L513.3,337.8 L515.9,337.8 L518.4,337.8 L520.9,337.8 L523.4,337.9 L525.9,337.9 L528.4,337.9 L531,337.9 L533.5,337.9 L536,337.9 L538.5,337.9 L541,337.9 L543.5,337.9 L546.1,337.9 L548.6,337.9 L551.1,337.9 L553.6,337.9 L556.1,337.9 L558.7,337.9 L561.2,337.9 L563.7,337.9 L566.2,337.9 L568.7,337.9 L571.2,338 L573.8,338 " fill="none"/></g>
<g clip-path="url(#plot_window)" stroke="rgb(0,100,0)" stroke-width="1"><path d="M70.2,338.2 L72.72,337.6 L75.24,334.9 L77.75,330.9 L80.27,326.6 L82.79,322.5 L85.31,318.8 L87.82,315.6 L90.34,313 L92.86,310.8 L95.38,309 L97.9,307.5 L100.4,306.4 L102.9,305.6 L105.4,305 L108,304.6 L110.5,304.3 L113,304.2 L115.5,304.2 L118,304.4 L120.6,304.6 L123.1,304.8 L125.6,305.2 L128.1,305.6 L130.6,306 L133.1,306.4 L135.7,306.9 L138.2,307.4 L140.7,307.9 L143.2,308.5 L145.7,309 L148.3,309.5 L150.8,310.1 L153.3,310.6 L155.8,311.1 L158.3,311.7 L160.8,312.2 L163.4,312.7 L165.9,313.3 L168.4,313.8 L170.9,314.3 L173.4,314.8 L175.9,315.3 L178.5,315.7 L181,316.2 L183.5,316.7 L186,317.1 L188.5,317.6 L191.1,318 L193.6,318.4 L196.1,318.8 L198.6,319.3 L201.1,319.6 L203.6,320 L206.2,320.4 L208.7,320.8 L211.2,321.1 L213.7,321.5 L216.2,321.8 L218.8,322.2 L221.3,322.5 L223.8,322.8 L226.3,323.1 L228.8,323.5 L231.3,323.8 L233.9,324 L236.4,324.3 L238.9,324.6 L241.4,324.9 L243.9,325.1 L246.4,325.4 L249,325.7 L251.5,325.9 L254,326.1 L256.5,326.4 L259,326.6 L261.6,326.8 L264.1,327 L266.6,327.3 L269.1,327.5 L271.6,327.7 L274.1,327.9 L276.7,328.1 L279.2,328.3 L281.7,328.4 L284.2,328.6 L286.7,328.8 L289.2,329 L291.8,329.1 L294.3,329.3 L296.8,329.5 L299.3,329.6 L301.8,329.8 L304.4,329.9 L306.9,330.1 L309.4,330.2 L311.9,330.4 L314.4,330.5 L316.9,330.6 L319.5,330.8 L322,330.9 L324.5,331 L327,331.2 L329.5,331.3 L332.1,331.4 L334.6,331.5 L337.1,331.6 L339.6,331.7 L342.1,331.8 L344.6,332 L347.2,332.1 L349.7,332.2 L352.2,332.3 L354.7,332.4 L357.2,332.5 L359.7,332.5 L362.3,332.6 L364.8,332.7 L367.3,332.8 L369.8,332.9 L372.3,333 L374.9,333.1 L377.4,333.2 L379.9,333.2 L382.4,333.3 L384.9,333.4 L387.4,333.5 L390,333.5 L392.5,333.6 L395,333.7 L397.5,333.8 L400,333.8 L402.5,333.9 L405.1,334 L407.6,334 L410.1,334.1 L412.6,334.1 L415.1,334.2 L417.7,334.3 L420.2,334.3 L422.7,334.4 L425.2,334.4 L427.7,334.5 L430.2,334.5 L432.8,334.6 L435.3,334.7 L437.8,334.7 L440.3,334.8 L442.8,334.8 L445.4,334.9 L447.9,334.9 L450.4,334.9 L452.9,335 L455.4,335 L457.9,335.1 L460.5,335.1 L463,335.2 L465.5,335.2 L468,335.3 L470.5,335.3 L473,335.3 L475.6,335.4 L478.1,335.4 L480.6,335.5 L483.1,335.5 L485.6,335.5 L488.2,335.6 L490.7,335.6 L493.2,335.6 L495.7,335.7 L498.2,335.7 L500.7,335.7 L503.3,335.8 L505.8,335.8 L508.3,335.8 L510.8,335.9 L513.3,335.9 L515.9,335.9 L518.4,336 L520.9,336 L523.4,336 L525.9,336 L528.4,336.1 L531,336.1 L533.5,336.1 L536,336.1 L538.5,336.2 L541,336.2 L543.5,336.2 L546.1,336.2 L548.6,336.3 L551.1,336.3 L553.6,336.3 L556.1,336.3 L558.7,336.4 L561.2,336.4 L563.7,336.4 L566.2,336.4 L568.7,336.5 L571.2,336.5 L573.8,336.5 " fill="none"/></g>
</g>
<g id="plotPoints" clip-path="url(#plot_window)"><g stroke="rgb(0,0,0)"></g>
<g stroke="rgb(0,0,0)"></g>
<g stroke="rgb(0,0,0)"></g>
</g>
<g id="limitPoints" stroke="rgb(119,136,153)" fill="rgb(250,235,215)"></g>
<g id="legendBackground" stroke="rgb(119,136,153)" fill="rgb(255,255,255)" stroke-width="1"><rect x="587.8" y="62" width="150.2" height="105"/><rect x="587.8" y="62" width="150.2" height="105"/></g>
<g id="legendPoints"><g stroke="rgb(0,0,139)" stroke-width="1"><line x1="602.8" y1="92" x2="617.8" y2="92"/></g>
<g stroke="rgb(139,0,0)" stroke-width="1"><line x1="602.8" y1="122" x2="617.8" y2="122"/></g>
<g stroke="rgb(0,100,0)" stroke-width="1"><line x1="602.8" y1="152" x2="617.8" y2="152"/></g>
</g>
<g id="legendText">
<text x="625.3" y="92" font-size="15" font-family="Verdana">location=-1</text>
<text x="625.3" y="122" font-size="15" font-family="Verdana">location=0</text>
<text x="625.3" y="152" font-size="15" font-family="Verdana">location=1</text></g>
<g id="title">
<text x="375" y="40" text-anchor="middle" font-size="20" font-family="Verdana">Lognormal Distribution PDF (scale=1)</text></g>
</svg>
