<?xml version="1.0" encoding="UTF-8" standalone="no"?>
<svg width="750" height ="400" version="1.1" xmlns="http://www.w3.org/2000/svg"
 xmlns:xlink="http://www.w3.org/1999/xlink"
 xmlns:ev="http://www.w3.org/2001/xml-events">

<!-- SVG plot written using Boost.Plot program (Creator Jacob Voytko) --> 
<!-- Use, modification and distribution of Boost.Plot subject to the --> 
<!-- Boost Software License, Version 1.0.--> 
<!-- (See accompanying file LICENSE_1_0.txt --> 
<!-- or copy at http://www.boost.org/LICENSE_1_0.txt) --> 

<clipPath id="plot_window"><rect x="54.4" y="63" width="471.3" height="274.2"/></clipPath>
<g id="imageBackground" stroke="rgb(119,136,153)" fill="rgb(255,255,255)" stroke-width="2"><rect x="0" y="0" width="750" height="400"/></g>
<g id="plotBackground" stroke="rgb(119,136,153)" fill="rgb(255,255,255)" stroke-width="2"><rect x="53.4" y="62" width="473.3" height="276.2"/></g>
<g id="yMinorGrid" stroke="rgb(200,220,255)" stroke-width="0.5"></g>
<g id="yMajorGrid" stroke="rgb(200,220,255)" stroke-width="1"></g>
<g id="xMinorGrid" stroke="rgb(200,220,255)" stroke-width="0.5"></g>
<g id="xMajorGrid" stroke="rgb(200,220,255)" stroke-width="1"></g>
<g id="yAxis" stroke="rgb(0,0,0)" stroke-width="1"><line x1="53.4" y1="62" x2="53.4" y2="343.2"/><line x1="53.4" y1="62" x2="53.4" y2="338.2"/></g>
<g id="xAxis" stroke="rgb(0,0,0)" stroke-width="1"><line x1="48.4" y1="338.2" x2="526.7" y2="338.2"/><line x1="48.4" y1="338.2" x2="526.7" y2="338.2"/></g>
<g id="yMinorTicks" stroke="rgb(0,0,0)" stroke-width="1"><path d="M51.4,332 L53.4,332 M51.4,325.8 L53.4,325.8 M51.4,319.6 L53.4,319.6 M51.4,313.4 L53.4,313.4 M51.4,301 L53.4,301 M51.4,294.8 L53.4,294.8 M51.4,288.6 L53.4,288.6 M51.4,282.4 L53.4,282.4 M51.4,270 L53.4,270 M51.4,263.8 L53.4,263.8 M51.4,257.5 L53.4,257.5 M51.4,251.3 L53.4,251.3 M51.4,238.9 L53.4,238.9 M51.4,232.7 L53.4,232.7 M51.4,226.5 L53.4,226.5 M51.4,220.3 L53.4,220.3 M51.4,207.9 L53.4,207.9 M51.4,201.7 L53.4,201.7 M51.4,195.5 L53.4,195.5 M51.4,189.3 L53.4,189.3 M51.4,176.9 L53.4,176.9 M51.4,170.7 L53.4,170.7 M51.4,164.5 L53.4,164.5 M51.4,158.3 L53.4,158.3 M51.4,145.9 L53.4,145.9 M51.4,139.7 L53.4,139.7 M51.4,133.5 L53.4,133.5 M51.4,127.3 L53.4,127.3 M51.4,114.9 L53.4,114.9 M51.4,108.7 L53.4,108.7 M51.4,102.5 L53.4,102.5 M51.4,96.25 L53.4,96.25 M51.4,83.84 L53.4,83.84 M51.4,77.63 L53.4,77.63 M51.4,71.43 L53.4,71.43 M51.4,65.23 L53.4,65.23 M51.4,338.2 L53.4,338.2 "/></g>
<g id="xMinorTicks" stroke="rgb(0,0,0)" stroke-width="1"><path d="M62.87,338.2 L62.87,340.2 M72.33,338.2 L72.33,340.2 M81.8,338.2 L81.8,340.2 M91.27,338.2 L91.27,340.2 M110.2,338.2 L110.2,340.2 M119.7,338.2 L119.7,340.2 M129.1,338.2 L129.1,340.2 M138.6,338.2 L138.6,340.2 M157.5,338.2 L157.5,340.2 M167,338.2 L167,340.2 M176.5,338.2 L176.5,340.2 M185.9,338.2 L185.9,340.2 M204.9,338.2 L204.9,340.2 M214.3,338.2 L214.3,340.2 M223.8,338.2 L223.8,340.2 M233.3,338.2 L233.3,340.2 M252.2,338.2 L252.2,340.2 M261.7,338.2 L261.7,340.2 M271.1,338.2 L271.1,340.2 M280.6,338.2 L280.6,340.2 M299.5,338.2 L299.5,340.2 M309,338.2 L309,340.2 M318.5,338.2 L318.5,340.2 M327.9,338.2 L327.9,340.2 M346.9,338.2 L346.9,340.2 M356.3,338.2 L356.3,340.2 M365.8,338.2 L365.8,340.2 M375.3,338.2 L375.3,340.2 M394.2,338.2 L394.2,340.2 M403.7,338.2 L403.7,340.2 M413.1,338.2 L413.1,340.2 M422.6,338.2 L422.6,340.2 M441.5,338.2 L441.5,340.2 M451,338.2 L451,340.2 M460.5,338.2 L460.5,340.2 M469.9,338.2 L469.9,340.2 M488.9,338.2 L488.9,340.2 M498.3,338.2 L498.3,340.2 M507.8,338.2 L507.8,340.2 M517.3,338.2 L517.3,340.2 "/></g>
<g id="yMajorTicks" stroke="rgb(0,0,0)" stroke-width="2"><path d="M48.4,338.2 L53.4,338.2 M48.4,307.2 L53.4,307.2 M48.4,276.2 L53.4,276.2 M48.4,245.1 L53.4,245.1 M48.4,214.1 L53.4,214.1 M48.4,183.1 L53.4,183.1 M48.4,152.1 L53.4,152.1 M48.4,121.1 L53.4,121.1 M48.4,90.04 L53.4,90.04 M48.4,338.2 L53.4,338.2 "/></g>
<g id="xMajorTicks" stroke="rgb(0,0,0)" stroke-width="2"><path d="M53.4,338.2 L53.4,343.2 M100.7,338.2 L100.7,343.2 M148.1,338.2 L148.1,343.2 M195.4,338.2 L195.4,343.2 M242.7,338.2 L242.7,343.2 M290.1,338.2 L290.1,343.2 M337.4,338.2 L337.4,343.2 M384.7,338.2 L384.7,343.2 M432.1,338.2 L432.1,343.2 M479.4,338.2 L479.4,343.2 M526.7,338.2 L526.7,343.2 M53.4,338.2 L53.4,343.2 "/></g>
<g id="plotLabels">
<text x="53.4" y="357.6" text-anchor="middle" font-size="12" font-family="Verdana">0</text>
<text x="100.7" y="357.6" text-anchor="middle" font-size="12" font-family="Verdana">0.1</text>
<text x="148.1" y="357.6" text-anchor="middle" font-size="12" font-family="Verdana">0.2</text>
<text x="195.4" y="357.6" text-anchor="middle" font-size="12" font-family="Verdana">0.3</text>
<text x="242.7" y="357.6" text-anchor="middle" font-size="12" font-family="Verdana">0.4</text>
<text x="290.1" y="357.6" text-anchor="middle" font-size="12" font-family="Verdana">0.5</text>
<text x="337.4" y="357.6" text-anchor="middle" font-size="12" font-family="Verdana">0.6</text>
<text x="384.7" y="357.6" text-anchor="middle" font-size="12" font-family="Verdana">0.7</text>
<text x="432.1" y="357.6" text-anchor="middle" font-size="12" font-family="Verdana">0.8</text>
<text x="479.4" y="357.6" text-anchor="middle" font-size="12" font-family="Verdana">0.9</text>
<text x="526.7" y="357.6" text-anchor="middle" font-size="12" font-family="Verdana">1</text>
<text x="53.4" y="357.6" text-anchor="middle" font-size="12" font-family="Verdana">0</text>
<text x="42.4" y="340.6" text-anchor="end" font-size="12" font-family="Verdana">0</text>
<text x="42.4" y="309.6" text-anchor="end" font-size="12" font-family="Verdana">1</text>
<text x="42.4" y="278.6" text-anchor="end" font-size="12" font-family="Verdana">2</text>
<text x="42.4" y="247.5" text-anchor="end" font-size="12" font-family="Verdana">3</text>
<text x="42.4" y="216.5" text-anchor="end" font-size="12" font-family="Verdana">4</text>
<text x="42.4" y="185.5" text-anchor="end" font-size="12" font-family="Verdana">5</text>
<text x="42.4" y="154.5" text-anchor="end" font-size="12" font-family="Verdana">6</text>
<text x="42.4" y="123.5" text-anchor="end" font-size="12" font-family="Verdana">7</text>
<text x="42.4" y="92.44" text-anchor="end" font-size="12" font-family="Verdana">8</text>
<text x="42.4" y="340.6" text-anchor="end" font-size="12" font-family="Verdana">0</text></g>
<g id="yLabel">
<text x="30.2" y="200.1" text-anchor="middle" transform = "rotate(-90 30.2 200.1 )" font-size="14" font-family="Verdana">Probability</text></g>
<g id="xLabel">
<text x="290.1" y="384" text-anchor="middle" font-size="14" font-family="Verdana">Random Variable</text></g>
<g id="plotLines" stroke-width="2"><g clip-path="url(#plot_window)" stroke="rgb(0,0,139)" stroke-width="1"><path d="M53.4,338.2 L55.77,338.2 L58.13,338.2 L60.5,338.2 L62.87,338.2 L65.23,338.2 L67.6,338.2 L69.97,338.2 L72.33,338.2 L74.7,338.2 L77.07,338.2 L79.43,338.2 L81.8,338.2 L84.17,338.2 L86.53,338.2 L88.9,338.2 L91.27,338.2 L93.63,338.2 L96,338.1 L98.37,338.1 L100.7,338.1 L103.1,338 L105.5,337.9 L107.8,337.8 L110.2,337.7 L112.6,337.5 L114.9,337.3 L117.3,337 L119.7,336.7 L122,336.3 L124.4,335.8 L126.8,335.2 L129.1,334.6 L131.5,333.8 L133.9,332.9 L136.2,331.9 L138.6,330.7 L141,329.4 L143.3,327.9 L145.7,326.3 L148.1,324.5 L150.4,322.5 L152.8,320.4 L155.2,318 L157.5,315.5 L159.9,312.8 L162.3,310 L164.6,306.9 L167,303.7 L169.4,300.4 L171.7,296.8 L174.1,293.2 L176.5,289.4 L178.8,285.5 L181.2,281.6 L183.6,277.5 L185.9,273.4 L188.3,269.3 L190.7,265.2 L193,261.1 L195.4,257 L197.8,253 L200.1,249 L202.5,245.2 L204.9,241.5 L207.2,237.9 L209.6,234.5 L212,231.3 L214.3,228.3 L216.7,225.5 L219.1,223 L221.4,220.7 L223.8,218.7 L226.2,217 L228.5,215.5 L230.9,214.4 L233.3,213.5 L235.6,213 L238,212.8 L240.4,212.9 L242.7,213.2 L245.1,213.9 L247.5,214.8 L249.8,216.1 L252.2,217.6 L254.6,219.3 L256.9,221.3 L259.3,223.6 L261.7,226 L264,228.7 L266.4,231.5 L268.8,234.5 L271.1,237.6 L273.5,240.9 L275.9,244.2 L278.2,247.7 L280.6,251.2 L283,254.8 L285.3,258.4 L287.7,262 L290.1,265.7 L292.4,269.3 L294.8,272.9 L297.2,276.4 L299.5,279.9 L301.9,283.3 L304.3,286.7 L306.6,289.9 L309,293.1 L311.4,296.1 L313.7,299.1 L316.1,301.9 L318.5,304.6 L320.8,307.2 L323.2,309.7 L325.6,312 L327.9,314.2 L330.3,316.3 L332.7,318.2 L335,320 L337.4,321.7 L339.8,323.3 L342.1,324.8 L344.5,326.2 L346.9,327.4 L349.2,328.6 L351.6,329.6 L354,330.6 L356.3,331.5 L358.7,332.3 L361.1,333 L363.4,333.6 L365.8,334.2 L368.2,334.7 L370.5,335.2 L372.9,335.6 L375.3,336 L377.6,336.3 L380,336.6 L382.4,336.8 L384.7,337 L387.1,337.2 L389.5,337.4 L391.8,337.5 L394.2,337.6 L396.6,337.7 L398.9,337.8 L401.3,337.9 L403.7,337.9 L406,338 L408.4,338 L410.8,338.1 L413.1,338.1 L415.5,338.1 L417.9,338.1 L420.2,338.1 L422.6,338.2 L425,338.2 L427.3,338.2 L429.7,338.2 L432.1,338.2 L434.4,338.2 L436.8,338.2 L439.2,338.2 L441.5,338.2 L443.9,338.2 L446.3,338.2 L448.6,338.2 L451,338.2 L453.4,338.2 L455.7,338.2 L458.1,338.2 L460.5,338.2 L462.8,338.2 L465.2,338.2 L467.6,338.2 L469.9,338.2 L472.3,338.2 L474.7,338.2 L477,338.2 L479.4,338.2 L481.8,338.2 L484.1,338.2 L486.5,338.2 L488.9,338.2 L491.2,338.2 L493.6,338.2 L496,338.2 L498.3,338.2 L500.7,338.2 L503.1,338.2 L505.4,338.2 L507.8,338.2 L510.2,338.2 L512.5,338.2 L514.9,338.2 L517.3,338.2 L519.6,338.2 L522,338.2 L524.4,338.2 " fill="none"/></g>
<g clip-path="url(#plot_window)" stroke="rgb(139,0,0)" stroke-width="1"><path d="M53.4,338.2 L55.77,338.2 L58.13,338.2 L60.5,338.2 L62.87,338.2 L65.23,338.2 L67.6,338.2 L69.97,338.2 L72.33,338.2 L74.7,338.2 L77.07,338.2 L79.43,338.2 L81.8,338.2 L84.17,338.2 L86.53,338.2 L88.9,338.2 L91.27,338.2 L93.63,338.2 L96,338.2 L98.37,338.1 L100.7,338.1 L103.1,338.1 L105.5,338 L107.8,337.9 L110.2,337.8 L112.6,337.7 L114.9,337.5 L117.3,337.3 L119.7,337.1 L122,336.8 L124.4,336.4 L126.8,336 L129.1,335.5 L131.5,334.9 L133.9,334.2 L136.2,333.4 L138.6,332.5 L141,331.5 L143.3,330.3 L145.7,329 L148.1,327.5 L150.4,325.9 L152.8,324.2 L155.2,322.2 L157.5,320.1 L159.9,317.9 L162.3,315.4 L164.6,312.8 L167,310 L169.4,307.1 L171.7,304 L174.1,300.8 L176.5,297.4 L178.8,293.9 L181.2,290.2 L183.6,286.5 L185.9,282.6 L188.3,278.7 L190.7,274.8 L193,270.8 L195.4,266.8 L197.8,262.8 L200.1,258.8 L202.5,254.9 L204.9,251 L207.2,247.3 L209.6,243.6 L212,240.1 L214.3,236.7 L216.7,233.5 L219.1,230.5 L221.4,227.7 L223.8,225.1 L226.2,222.8 L228.5,220.7 L230.9,218.9 L233.3,217.3 L235.6,216.1 L238,215.1 L240.4,214.4 L242.7,214 L245.1,213.9 L247.5,214.1 L249.8,214.6 L252.2,215.4 L254.6,216.5 L256.9,217.8 L259.3,219.4 L261.7,221.2 L264,223.3 L266.4,225.5 L268.8,228 L271.1,230.7 L273.5,233.6 L275.9,236.6 L278.2,239.7 L280.6,243 L283,246.3 L285.3,249.8 L287.7,253.3 L290.1,256.8 L292.4,260.4 L294.8,264 L297.2,267.6 L299.5,271.2 L301.9,274.8 L304.3,278.3 L306.6,281.7 L309,285.1 L311.4,288.4 L313.7,291.6 L316.1,294.7 L318.5,297.7 L320.8,300.6 L323.2,303.3 L325.6,306 L327.9,308.5 L330.3,310.9 L332.7,313.2 L335,315.3 L337.4,317.4 L339.8,319.3 L342.1,321 L344.5,322.7 L346.9,324.2 L349.2,325.6 L351.6,327 L354,328.2 L356.3,329.3 L358.7,330.3 L361.1,331.2 L363.4,332 L365.8,332.8 L368.2,333.5 L370.5,334.1 L372.9,334.6 L375.3,335.1 L377.6,335.5 L380,335.9 L382.4,336.2 L384.7,336.5 L387.1,336.8 L389.5,337 L391.8,337.2 L394.2,337.4 L396.6,337.5 L398.9,337.6 L401.3,337.7 L403.7,337.8 L406,337.9 L408.4,337.9 L410.8,338 L413.1,338 L415.5,338.1 L417.9,338.1 L420.2,338.1 L422.6,338.1 L425,338.2 L427.3,338.2 L429.7,338.2 L432.1,338.2 L434.4,338.2 L436.8,338.2 L439.2,338.2 L441.5,338.2 L443.9,338.2 L446.3,338.2 L448.6,338.2 L451,338.2 L453.4,338.2 L455.7,338.2 L458.1,338.2 L460.5,338.2 L462.8,338.2 L465.2,338.2 L467.6,338.2 L469.9,338.2 L472.3,338.2 L474.7,338.2 L477,338.2 L479.4,338.2 L481.8,338.2 L484.1,338.2 L486.5,338.2 L488.9,338.2 L491.2,338.2 L493.6,338.2 L496,338.2 L498.3,338.2 L500.7,338.2 L503.1,338.2 L505.4,338.2 L507.8,338.2 L510.2,338.2 L512.5,338.2 L514.9,338.2 L517.3,338.2 L519.6,338.2 L522,338.2 L524.4,338.2 " fill="none"/></g>
<g clip-path="url(#plot_window)" stroke="rgb(0,100,0)" stroke-width="1"><path d="M53.4,338.2 L55.77,338.2 L58.13,338.2 L60.5,338.2 L62.87,338.2 L65.23,338.2 L67.6,338.2 L69.97,338.2 L72.33,338.2 L74.7,338.2 L77.07,338.2 L79.43,338.2 L81.8,338.2 L84.17,338.2 L86.53,338.2 L88.9,338.2 L91.27,338.2 L93.63,338.2 L96,338.2 L98.37,338.2 L100.7,338.2 L103.1,338.2 L105.5,338.2 L107.8,338.1 L110.2,338.1 L112.6,338.1 L114.9,338 L117.3,338 L119.7,337.9 L122,337.8 L124.4,337.7 L126.8,337.6 L129.1,337.4 L131.5,337.2 L133.9,337 L136.2,336.7 L138.6,336.4 L141,336 L143.3,335.5 L145.7,335 L148.1,334.4 L150.4,333.8 L152.8,333 L155.2,332.1 L157.5,331.2 L159.9,330.1 L162.3,328.9 L164.6,327.6 L167,326.2 L169.4,324.6 L171.7,322.9 L174.1,321.1 L176.5,319.1 L178.8,317 L181.2,314.7 L183.6,312.3 L185.9,309.8 L188.3,307.1 L190.7,304.2 L193,301.3 L195.4,298.2 L197.8,295 L200.1,291.7 L202.5,288.2 L204.9,284.7 L207.2,281.2 L209.6,277.5 L212,273.9 L214.3,270.1 L216.7,266.4 L219.1,262.7 L221.4,259 L223.8,255.3 L226.2,251.7 L228.5,248.2 L230.9,244.7 L233.3,241.4 L235.6,238.2 L238,235.2 L240.4,232.3 L242.7,229.6 L245.1,227.2 L247.5,224.9 L249.8,222.8 L252.2,221 L254.6,219.5 L256.9,218.2 L259.3,217.2 L261.7,216.4 L264,215.9 L266.4,215.7 L268.8,215.8 L271.1,216.2 L273.5,216.8 L275.9,217.7 L278.2,218.9 L280.6,220.4 L283,222.1 L285.3,224 L287.7,226.2 L290.1,228.5 L292.4,231.1 L294.8,233.9 L297.2,236.8 L299.5,239.9 L301.9,243.1 L304.3,246.4 L306.6,249.8 L309,253.3 L311.4,256.9 L313.7,260.5 L316.1,264.1 L318.5,267.7 L320.8,271.4 L323.2,275 L325.6,278.6 L327.9,282.1 L330.3,285.5 L332.7,288.9 L335,292.2 L337.4,295.4 L339.8,298.4 L342.1,301.4 L344.5,304.2 L346.9,307 L349.2,309.5 L351.6,312 L354,314.3 L356.3,316.5 L358.7,318.5 L361.1,320.5 L363.4,322.2 L365.8,323.9 L368.2,325.4 L370.5,326.8 L372.9,328.1 L375.3,329.3 L377.6,330.4 L380,331.3 L382.4,332.2 L384.7,333 L387.1,333.7 L389.5,334.3 L391.8,334.9 L394.2,335.4 L396.6,335.8 L398.9,336.2 L401.3,336.5 L403.7,336.8 L406,337 L408.4,337.2 L410.8,337.4 L413.1,337.5 L415.5,337.7 L417.9,337.8 L420.2,337.9 L422.6,337.9 L425,338 L427.3,338 L429.7,338.1 L432.1,338.1 L434.4,338.1 L436.8,338.1 L439.2,338.2 L441.5,338.2 L443.9,338.2 L446.3,338.2 L448.6,338.2 L451,338.2 L453.4,338.2 L455.7,338.2 L458.1,338.2 L460.5,338.2 L462.8,338.2 L465.2,338.2 L467.6,338.2 L469.9,338.2 L472.3,338.2 L474.7,338.2 L477,338.2 L479.4,338.2 L481.8,338.2 L484.1,338.2 L486.5,338.2 L488.9,338.2 L491.2,338.2 L493.6,338.2 L496,338.2 L498.3,338.2 L500.7,338.2 L503.1,338.2 L505.4,338.2 L507.8,338.2 L510.2,338.2 L512.5,338.2 L514.9,338.2 L517.3,338.2 L519.6,338.2 L522,338.2 L524.4,338.2 " fill="none"/></g>
<g clip-path="url(#plot_window)" stroke="rgb(255,140,0)" stroke-width="1"><path d="M53.4,338.2 L55.77,338.2 L58.13,338.2 L60.5,338.2 L62.87,338.2 L65.23,338.2 L67.6,338.2 L69.97,338.2 L72.33,338.2 L74.7,338.2 L77.07,338.2 L79.43,338.2 L81.8,338.2 L84.17,338.2 L86.53,338.2 L88.9,338.2 L91.27,338.2 L93.63,338.2 L96,338.2 L98.37,338.2 L100.7,338.2 L103.1,338.2 L105.5,338.2 L107.8,338.2 L110.2,338.2 L112.6,338.2 L114.9,338.2 L117.3,338.2 L119.7,338.1 L122,338.1 L124.4,338.1 L126.8,338.1 L129.1,338 L131.5,338 L133.9,337.9 L136.2,337.9 L138.6,337.8 L141,337.7 L143.3,337.5 L145.7,337.4 L148.1,337.2 L150.4,337 L152.8,336.8 L155.2,336.5 L157.5,336.2 L159.9,335.8 L162.3,335.4 L164.6,334.9 L167,334.4 L169.4,333.8 L171.7,333.1 L174.1,332.3 L176.5,331.4 L178.8,330.5 L181.2,329.5 L183.6,328.3 L185.9,327.1 L188.3,325.7 L190.7,324.2 L193,322.6 L195.4,320.8 L197.8,319 L200.1,317 L202.5,314.8 L204.9,312.6 L207.2,310.2 L209.6,307.6 L212,305 L214.3,302.2 L216.7,299.3 L219.1,296.2 L221.4,293.1 L223.8,289.8 L226.2,286.5 L228.5,283 L230.9,279.5 L233.3,276 L235.6,272.3 L238,268.7 L240.4,265 L242.7,261.3 L245.1,257.7 L247.5,254 L249.8,250.5 L252.2,246.9 L254.6,243.5 L256.9,240.2 L259.3,237 L261.7,233.9 L264,231 L266.4,228.3 L268.8,225.8 L271.1,223.5 L273.5,221.4 L275.9,219.5 L278.2,217.9 L280.6,216.6 L283,215.6 L285.3,214.8 L287.7,214.3 L290.1,214.1 L292.4,214.2 L294.8,214.6 L297.2,215.3 L299.5,216.2 L301.9,217.5 L304.3,219 L306.6,220.8 L309,222.9 L311.4,225.2 L313.7,227.8 L316.1,230.5 L318.5,233.5 L320.8,236.6 L323.2,239.9 L325.6,243.4 L327.9,246.9 L330.3,250.6 L332.7,254.4 L335,258.2 L337.4,262.1 L339.8,265.9 L342.1,269.8 L344.5,273.7 L346.9,277.5 L349.2,281.3 L351.6,285 L354,288.7 L356.3,292.2 L358.7,295.6 L361.1,298.9 L363.4,302.1 L365.8,305.1 L368.2,308 L370.5,310.7 L372.9,313.3 L375.3,315.7 L377.6,318 L380,320.1 L382.4,322.1 L384.7,323.9 L387.1,325.5 L389.5,327.1 L391.8,328.4 L394.2,329.7 L396.6,330.8 L398.9,331.8 L401.3,332.7 L403.7,333.5 L406,334.2 L408.4,334.9 L410.8,335.4 L413.1,335.9 L415.5,336.3 L417.9,336.6 L420.2,336.9 L422.6,337.1 L425,337.4 L427.3,337.5 L429.7,337.7 L432.1,337.8 L434.4,337.9 L436.8,337.9 L439.2,338 L441.5,338.1 L443.9,338.1 L446.3,338.1 L448.6,338.1 L451,338.2 L453.4,338.2 L455.7,338.2 L458.1,338.2 L460.5,338.2 L462.8,338.2 L465.2,338.2 L467.6,338.2 L469.9,338.2 L472.3,338.2 L474.7,338.2 L477,338.2 L479.4,338.2 L481.8,338.2 L484.1,338.2 L486.5,338.2 L488.9,338.2 L491.2,338.2 L493.6,338.2 L496,338.2 L498.3,338.2 L500.7,338.2 L503.1,338.2 L505.4,338.2 L507.8,338.2 L510.2,338.2 L512.5,338.2 L514.9,338.2 L517.3,338.2 L519.6,338.2 L522,338.2 L524.4,338.2 " fill="none"/></g>
<g clip-path="url(#plot_window)" stroke="rgb(127,255,0)" stroke-width="1"><path d="M53.4,338.2 L55.77,338.2 L58.13,338.2 L60.5,338.2 L62.87,338.2 L65.23,338.2 L67.6,338.2 L69.97,338.2 L72.33,338.2 L74.7,338.2 L77.07,338.2 L79.43,338.2 L81.8,338.2 L84.17,338.2 L86.53,338.2 L88.9,338.2 L91.27,338.2 L93.63,338.2 L96,338.2 L98.37,338.2 L100.7,338.2 L103.1,338.2 L105.5,338.2 L107.8,338.2 L110.2,338.2 L112.6,338.2 L114.9,338.2 L117.3,338.2 L119.7,338.2 L122,338.2 L124.4,338.2 L126.8,338.2 L129.1,338.2 L131.5,338.2 L133.9,338.2 L136.2,338.2 L138.6,338.2 L141,338.2 L143.3,338.2 L145.7,338.2 L148.1,338.2 L150.4,338.2 L152.8,338.2 L155.2,338.2 L157.5,338.2 L159.9,338.2 L162.3,338.2 L164.6,338.2 L167,338.2 L169.4,338.2 L171.7,338.2 L174.1,338.2 L176.5,338.2 L178.8,338.2 L181.2,338.2 L183.6,338.2 L185.9,338.2 L188.3,338.2 L190.7,338.2 L193,338.2 L195.4,338.2 L197.8,338.2 L200.1,338.2 L202.5,338.1 L204.9,338.1 L207.2,338.1 L209.6,338.1 L212,338.1 L214.3,338 L216.7,338 L219.1,338 L221.4,337.9 L223.8,337.9 L226.2,337.8 L228.5,337.7 L230.9,337.6 L233.3,337.5 L235.6,337.4 L238,337.2 L240.4,337.1 L242.7,336.9 L245.1,336.6 L247.5,336.4 L249.8,336.1 L252.2,335.7 L254.6,335.3 L256.9,334.8 L259.3,334.3 L261.7,333.7 L264,333.1 L266.4,332.3 L268.8,331.5 L271.1,330.5 L273.5,329.5 L275.9,328.3 L278.2,327 L280.6,325.6 L283,324 L285.3,322.2 L287.7,320.3 L290.1,318.2 L292.4,316 L294.8,313.5 L297.2,310.8 L299.5,308 L301.9,304.9 L304.3,301.6 L306.6,298 L309,294.3 L311.4,290.3 L313.7,286.1 L316.1,281.7 L318.5,277.1 L320.8,272.3 L323.2,267.4 L325.6,262.2 L327.9,257 L330.3,251.6 L332.7,246.1 L335,240.6 L337.4,235 L339.8,229.5 L342.1,224.1 L344.5,218.7 L346.9,213.5 L349.2,208.4 L351.6,203.6 L354,199.1 L356.3,195 L358.7,191.2 L361.1,187.9 L363.4,185 L365.8,182.6 L368.2,180.8 L370.5,179.6 L372.9,179.1 L375.3,179.1 L377.6,179.8 L380,181.2 L382.4,183.2 L384.7,185.9 L387.1,189.2 L389.5,193.1 L391.8,197.6 L394.2,202.6 L396.6,208.1 L398.9,214 L401.3,220.3 L403.7,226.9 L406,233.8 L408.4,240.8 L410.8,247.9 L413.1,255 L415.5,262 L417.9,269 L420.2,275.7 L422.6,282.3 L425,288.5 L427.3,294.4 L429.7,299.9 L432.1,305 L434.4,309.7 L436.8,314 L439.2,317.8 L441.5,321.2 L443.9,324.2 L446.3,326.8 L448.6,329.1 L451,331 L453.4,332.5 L455.7,333.8 L458.1,334.9 L460.5,335.7 L462.8,336.4 L465.2,336.9 L467.6,337.3 L469.9,337.6 L472.3,337.8 L474.7,337.9 L477,338 L479.4,338.1 L481.8,338.1 L484.1,338.2 L486.5,338.2 L488.9,338.2 L491.2,338.2 L493.6,338.2 L496,338.2 L498.3,338.2 L500.7,338.2 L503.1,338.2 L505.4,338.2 L507.8,338.2 L510.2,338.2 L512.5,338.2 L514.9,338.2 L517.3,338.2 L519.6,338.2 L522,338.2 L524.4,338.2 " fill="none"/></g>
<g clip-path="url(#plot_window)" stroke="rgb(0,0,139)" stroke-width="1"><path d="M53.4,338.2 L55.77,338.2 L58.13,338.2 L60.5,338.2 L62.87,338.2 L65.23,338.2 L67.6,338.2 L69.97,338.2 L72.33,338.2 L74.7,338.2 L77.07,338.2 L79.43,338.2 L81.8,338.2 L84.17,338.2 L86.53,338.2 L88.9,338.2 L91.27,338.2 L93.63,338.2 L96,338.2 L98.37,338.2 L100.7,338.2 L103.1,338.2 L105.5,338.2 L107.8,338.2 L110.2,338.2 L112.6,338.2 L114.9,338.2 L117.3,338.2 L119.7,338.2 L122,338.2 L124.4,338.2 L126.8,338.2 L129.1,338.2 L131.5,338.2 L133.9,338.2 L136.2,338.2 L138.6,338.2 L141,338.2 L143.3,338.2 L145.7,338.2 L148.1,338.2 L150.4,338.2 L152.8,338.2 L155.2,338.2 L157.5,338.2 L159.9,338.2 L162.3,338.2 L164.6,338.2 L167,338.2 L169.4,338.2 L171.7,338.2 L174.1,338.2 L176.5,338.2 L178.8,338.2 L181.2,338.2 L183.6,338.2 L185.9,338.2 L188.3,338.2 L190.7,338.2 L193,338.2 L195.4,338.2 L197.8,338.2 L200.1,338.2 L202.5,338.2 L204.9,338.2 L207.2,338.2 L209.6,338.2 L212,338.2 L214.3,338.2 L216.7,338.2 L219.1,338.2 L221.4,338.2 L223.8,338.2 L226.2,338.2 L228.5,338.2 L230.9,338.2 L233.3,338.2 L235.6,338.2 L238,338.2 L240.4,338.2 L242.7,338.2 L245.1,338.2 L247.5,338.2 L249.8,338.2 L252.2,338.2 L254.6,338.2 L256.9,338.2 L259.3,338.2 L261.7,338.2 L264,338.2 L266.4,338.2 L268.8,338.2 L271.1,338.2 L273.5,338.2 L275.9,338.2 L278.2,338.2 L280.6,338.2 L283,338.2 L285.3,338.2 L287.7,338.2 L290.1,338.2 L292.4,338.2 L294.8,338.2 L297.2,338.2 L299.5,338.2 L301.9,338.2 L304.3,338.2 L306.6,338.2 L309,338.2 L311.4,338.1 L313.7,338.1 L316.1,338.1 L318.5,338.1 L320.8,338 L323.2,338 L325.6,337.9 L327.9,337.9 L330.3,337.8 L332.7,337.7 L335,337.5 L337.4,337.4 L339.8,337.1 L342.1,336.9 L344.5,336.5 L346.9,336.2 L349.2,335.7 L351.6,335.1 L354,334.4 L356.3,333.5 L358.7,332.5 L361.1,331.3 L363.4,329.8 L365.8,328.1 L368.2,326.1 L370.5,323.7 L372.9,320.9 L375.3,317.7 L377.6,314 L380,309.8 L382.4,304.9 L384.7,299.4 L387.1,293.3 L389.5,286.3 L391.8,278.6 L394.2,270.2 L396.6,260.9 L398.9,250.8 L401.3,239.9 L403.7,228.4 L406,216.2 L408.4,203.5 L410.8,190.3 L413.1,177 L415.5,163.6 L417.9,150.5 L420.2,137.8 L422.6,125.9 L425,115.1 L427.3,105.6 L429.7,97.79 L432.1,91.94 L434.4,88.31 L436.8,87.11 L439.2,88.49 L441.5,92.55 L443.9,99.28 L446.3,108.6 L448.6,120.4 L451,134.3 L453.4,150 L455.7,167.1 L458.1,185.2 L460.5,203.7 L462.8,222.1 L465.2,239.9 L467.6,256.8 L469.9,272.3 L472.3,286.1 L474.7,298.2 L477,308.3 L479.4,316.6 L481.8,323.1 L484.1,328.1 L486.5,331.7 L488.9,334.2 L491.2,335.9 L493.6,337 L496,337.6 L498.3,337.9 L500.7,338.1 L503.1,338.2 L505.4,338.2 L507.8,338.2 L510.2,338.2 L512.5,338.2 L514.9,338.2 L517.3,338.2 L519.6,338.2 L522,338.2 L524.4,338.2 " fill="none"/></g>
</g>
<g id="plotPoints" clip-path="url(#plot_window)"><g stroke="rgb(0,0,0)"></g>
<g stroke="rgb(0,0,0)"></g>
<g stroke="rgb(0,0,0)"></g>
<g stroke="rgb(0,0,0)"></g>
<g stroke="rgb(0,0,0)"></g>
<g stroke="rgb(0,0,0)"></g>
</g>
<g id="limitPoints" stroke="rgb(119,136,153)" fill="rgb(250,235,215)"></g>
<g id="legendBackground" stroke="rgb(119,136,153)" fill="rgb(255,255,255)" stroke-width="1"><rect x="540.7" y="62" width="197.3" height="195"/><rect x="540.7" y="62" width="197.3" height="195"/></g>
<g id="legendPoints"><g stroke="rgb(0,0,139)" stroke-width="1"><line x1="555.7" y1="92" x2="570.7" y2="92"/></g>
<g stroke="rgb(139,0,0)" stroke-width="1"><line x1="555.7" y1="122" x2="570.7" y2="122"/></g>
<g stroke="rgb(0,100,0)" stroke-width="1"><line x1="555.7" y1="152" x2="570.7" y2="152"/></g>
<g stroke="rgb(255,140,0)" stroke-width="1"><line x1="555.7" y1="182" x2="570.7" y2="182"/></g>
<g stroke="rgb(127,255,0)" stroke-width="1"><line x1="555.7" y1="212" x2="570.7" y2="212"/></g>
<g stroke="rgb(0,0,139)" stroke-width="1"><line x1="555.7" y1="242" x2="570.7" y2="242"/></g>
</g>
<g id="legendText">
<text x="578.2" y="92" font-size="15" font-family="Verdana">&#x3B1;=10, &#x3B2;=15, &#x3B4;=0</text>
<text x="578.2" y="122" font-size="15" font-family="Verdana">&#x3B1;=10, &#x3B2;=15, &#x3B4;=1</text>
<text x="578.2" y="152" font-size="15" font-family="Verdana">&#x3B1;=10, &#x3B2;=15, &#x3B4;=5</text>
<text x="578.2" y="182" font-size="15" font-family="Verdana">&#x3B1;=10, &#x3B2;=15, &#x3B4;=10</text>
<text x="578.2" y="212" font-size="15" font-family="Verdana">&#x3B1;=10, &#x3B2;=15, &#x3B4;=40</text>
<text x="578.2" y="242" font-size="15" font-family="Verdana">&#x3B1;=10, &#x3B2;=15, &#x3B4;=100</text></g>
<g id="title">
<text x="375" y="40" text-anchor="middle" font-size="20" font-family="Verdana">Non Central Beta PDF</text></g>
</svg>
