<?xml version="1.0" encoding="UTF-8" standalone="no"?>
<svg width="750" height ="400" version="1.1" xmlns="http://www.w3.org/2000/svg"
 xmlns:xlink="http://www.w3.org/1999/xlink"
 xmlns:ev="http://www.w3.org/2001/xml-events">

<!-- SVG plot written using Boost.Plot program (Creator Jacob Voytko) --> 
<!-- Use, modification and distribution of Boost.Plot subject to the --> 
<!-- Boost Software License, Version 1.0.--> 
<!-- (See accompanying file LICENSE_1_0.txt --> 
<!-- or copy at http://www.boost.org/LICENSE_1_0.txt) --> 

<clipPath id="plot_window"><rect x="71.2" y="63" width="438.8" height="274.2"/></clipPath>
<g id="imageBackground" stroke="rgb(119,136,153)" fill="rgb(255,255,255)" stroke-width="2"><rect x="0" y="0" width="750" height="400"/></g>
<g id="plotBackground" stroke="rgb(119,136,153)" fill="rgb(255,255,255)" stroke-width="2"><rect x="70.2" y="62" width="440.8" height="276.2"/></g>
<g id="yMinorGrid" stroke="rgb(200,220,255)" stroke-width="0.5"></g>
<g id="yMajorGrid" stroke="rgb(200,220,255)" stroke-width="1"></g>
<g id="xMinorGrid" stroke="rgb(200,220,255)" stroke-width="0.5"></g>
<g id="xMajorGrid" stroke="rgb(200,220,255)" stroke-width="1"></g>
<g id="yAxis" stroke="rgb(0,0,0)" stroke-width="1"><line x1="70.2" y1="62" x2="70.2" y2="343.2"/><line x1="70.2" y1="62" x2="70.2" y2="338.2"/></g>
<g id="xAxis" stroke="rgb(0,0,0)" stroke-width="1"><line x1="65.2" y1="338.2" x2="511" y2="338.2"/><line x1="65.2" y1="338.2" x2="511" y2="338.2"/></g>
<g id="yMinorTicks" stroke="rgb(0,0,0)" stroke-width="1"><path d="M68.2,332.2 L70.2,332.2 M68.2,326.2 L70.2,326.2 M68.2,320.2 L70.2,320.2 M68.2,314.1 L70.2,314.1 M68.2,302.1 L70.2,302.1 M68.2,296.1 L70.2,296.1 M68.2,290.1 L70.2,290.1 M68.2,284.1 L70.2,284.1 M68.2,272 L70.2,272 M68.2,266 L70.2,266 M68.2,260 L70.2,260 M68.2,254 L70.2,254 M68.2,242 L70.2,242 M68.2,235.9 L70.2,235.9 M68.2,229.9 L70.2,229.9 M68.2,223.9 L70.2,223.9 M68.2,211.9 L70.2,211.9 M68.2,205.9 L70.2,205.9 M68.2,199.8 L70.2,199.8 M68.2,193.8 L70.2,193.8 M68.2,181.8 L70.2,181.8 M68.2,175.8 L70.2,175.8 M68.2,169.8 L70.2,169.8 M68.2,163.8 L70.2,163.8 M68.2,151.7 L70.2,151.7 M68.2,145.7 L70.2,145.7 M68.2,139.7 L70.2,139.7 M68.2,133.7 L70.2,133.7 M68.2,121.6 L70.2,121.6 M68.2,115.6 L70.2,115.6 M68.2,109.6 L70.2,109.6 M68.2,103.6 L70.2,103.6 M68.2,91.57 L70.2,91.57 M68.2,85.55 L70.2,85.55 M68.2,79.54 L70.2,79.54 M68.2,73.52 L70.2,73.52 M68.2,338.2 L70.2,338.2 "/></g>
<g id="xMinorTicks" stroke="rgb(0,0,0)" stroke-width="1"><path d="M87.99,338.2 L87.99,340.2 M105.8,338.2 L105.8,340.2 M123.6,338.2 L123.6,340.2 M141.4,338.2 L141.4,340.2 M176.9,338.2 L176.9,340.2 M194.7,338.2 L194.7,340.2 M212.5,338.2 L212.5,340.2 M230.3,338.2 L230.3,340.2 M265.9,338.2 L265.9,340.2 M283.7,338.2 L283.7,340.2 M301.4,338.2 L301.4,340.2 M319.2,338.2 L319.2,340.2 M354.8,338.2 L354.8,340.2 M372.6,338.2 L372.6,340.2 M390.4,338.2 L390.4,340.2 M408.2,338.2 L408.2,340.2 M443.7,338.2 L443.7,340.2 M461.5,338.2 L461.5,340.2 M479.3,338.2 L479.3,340.2 M497.1,338.2 L497.1,340.2 "/></g>
<g id="yMajorTicks" stroke="rgb(0,0,0)" stroke-width="2"><path d="M65.2,338.2 L70.2,338.2 M65.2,308.1 L70.2,308.1 M65.2,278 L70.2,278 M65.2,248 L70.2,248 M65.2,217.9 L70.2,217.9 M65.2,187.8 L70.2,187.8 M65.2,157.7 L70.2,157.7 M65.2,127.7 L70.2,127.7 M65.2,97.58 L70.2,97.58 M65.2,67.51 L70.2,67.51 M65.2,338.2 L70.2,338.2 "/></g>
<g id="xMajorTicks" stroke="rgb(0,0,0)" stroke-width="2"><path d="M70.2,338.2 L70.2,343.2 M159.1,338.2 L159.1,343.2 M248.1,338.2 L248.1,343.2 M337,338.2 L337,343.2 M426,338.2 L426,343.2 M70.2,338.2 L70.2,343.2 "/></g>
<g id="plotLabels">
<text x="70.2" y="357.6" text-anchor="middle" font-size="12" font-family="Verdana">0</text>
<text x="159.1" y="357.6" text-anchor="middle" font-size="12" font-family="Verdana">5</text>
<text x="248.1" y="357.6" text-anchor="middle" font-size="12" font-family="Verdana">10</text>
<text x="337" y="357.6" text-anchor="middle" font-size="12" font-family="Verdana">15</text>
<text x="426" y="357.6" text-anchor="middle" font-size="12" font-family="Verdana">20</text>
<text x="70.2" y="357.6" text-anchor="middle" font-size="12" font-family="Verdana">0</text>
<text x="59.2" y="340.6" text-anchor="end" font-size="12" font-family="Verdana">0</text>
<text x="59.2" y="310.5" text-anchor="end" font-size="12" font-family="Verdana">0.1</text>
<text x="59.2" y="280.4" text-anchor="end" font-size="12" font-family="Verdana">0.2</text>
<text x="59.2" y="250.4" text-anchor="end" font-size="12" font-family="Verdana">0.3</text>
<text x="59.2" y="220.3" text-anchor="end" font-size="12" font-family="Verdana">0.4</text>
<text x="59.2" y="190.2" text-anchor="end" font-size="12" font-family="Verdana">0.5</text>
<text x="59.2" y="160.1" text-anchor="end" font-size="12" font-family="Verdana">0.6</text>
<text x="59.2" y="130.1" text-anchor="end" font-size="12" font-family="Verdana">0.7</text>
<text x="59.2" y="99.98" text-anchor="end" font-size="12" font-family="Verdana">0.8</text>
<text x="59.2" y="69.91" text-anchor="end" font-size="12" font-family="Verdana">0.9</text>
<text x="59.2" y="340.6" text-anchor="end" font-size="12" font-family="Verdana">0</text></g>
<g id="yLabel">
<text x="30.2" y="200.1" text-anchor="middle" transform = "rotate(-90 30.2 200.1 )" font-size="14" font-family="Verdana">Probability</text></g>
<g id="xLabel">
<text x="290.6" y="384" text-anchor="middle" font-size="14" font-family="Verdana">Random Variable</text></g>
<g id="plotLines" stroke-width="2"><g clip-path="url(#plot_window)" stroke="rgb(0,0,139)" stroke-width="1"><path d="M70.2,338.2 L72.4,329.2 L74.61,276.7 L76.81,198.9 L79.02,133.1 L81.22,96.16 L83.43,87.29 L85.63,98.58 L87.83,121.5 L90.04,149.4 L92.24,177.9 L94.45,204.5 L96.65,228.2 L98.85,248.5 L101.1,265.4 L103.3,279.4 L105.5,290.8 L107.7,300.1 L109.9,307.5 L112.1,313.5 L114.3,318.3 L116.5,322.1 L118.7,325.2 L120.9,327.7 L123.1,329.7 L125.3,331.2 L127.5,332.5 L129.7,333.6 L131.9,334.4 L134.1,335.1 L136.3,335.6 L138.5,336.1 L140.7,336.4 L142.9,336.7 L145.1,337 L147.3,337.2 L149.6,337.3 L151.8,337.5 L154,337.6 L156.2,337.7 L158.4,337.8 L160.6,337.8 L162.8,337.9 L165,337.9 L167.2,338 L169.4,338 L171.6,338 L173.8,338.1 L176,338.1 L178.2,338.1 L180.4,338.1 L182.6,338.1 L184.8,338.1 L187,338.1 L189.2,338.1 L191.4,338.2 L193.6,338.2 L195.8,338.2 L198,338.2 L200.2,338.2 L202.5,338.2 L204.7,338.2 L206.9,338.2 L209.1,338.2 L211.3,338.2 L213.5,338.2 L215.7,338.2 L217.9,338.2 L220.1,338.2 L222.3,338.2 L224.5,338.2 L226.7,338.2 L228.9,338.2 L231.1,338.2 L233.3,338.2 L235.5,338.2 L237.7,338.2 L239.9,338.2 L242.1,338.2 L244.3,338.2 L246.5,338.2 L248.7,338.2 L250.9,338.2 L253.1,338.2 L255.4,338.2 L257.6,338.2 L259.8,338.2 L262,338.2 L264.2,338.2 L266.4,338.2 L268.6,338.2 L270.8,338.2 L273,338.2 L275.2,338.2 L277.4,338.2 L279.6,338.2 L281.8,338.2 L284,338.2 L286.2,338.2 L288.4,338.2 L290.6,338.2 L292.8,338.2 L295,338.2 L297.2,338.2 L299.4,338.2 L301.6,338.2 L303.8,338.2 L306,338.2 L308.3,338.2 L310.5,338.2 L312.7,338.2 L314.9,338.2 L317.1,338.2 L319.3,338.2 L321.5,338.2 L323.7,338.2 L325.9,338.2 L328.1,338.2 L330.3,338.2 L332.5,338.2 L334.7,338.2 L336.9,338.2 L339.1,338.2 L341.3,338.2 L343.5,338.2 L345.7,338.2 L347.9,338.2 L350.1,338.2 L352.3,338.2 L354.5,338.2 L356.7,338.2 L359,338.2 L361.2,338.2 L363.4,338.2 L365.6,338.2 L367.8,338.2 L370,338.2 L372.2,338.2 L374.4,338.2 L376.6,338.2 L378.8,338.2 L381,338.2 L383.2,338.2 L385.4,338.2 L387.6,338.2 L389.8,338.2 L392,338.2 L394.2,338.2 L396.4,338.2 L398.6,338.2 L400.8,338.2 L403,338.2 L405.2,338.2 L407.4,338.2 L409.6,338.2 L411.9,338.2 L414.1,338.2 L416.3,338.2 L418.5,338.2 L420.7,338.2 L422.9,338.2 L425.1,338.2 L427.3,338.2 L429.5,338.2 L431.7,338.2 L433.9,338.2 L436.1,338.2 L438.3,338.2 L440.5,338.2 L442.7,338.2 L444.9,338.2 L447.1,338.2 L449.3,338.2 L451.5,338.2 L453.7,338.2 L455.9,338.2 L458.1,338.2 L460.3,338.2 L462.5,338.2 L464.8,338.2 L467,338.2 L469.2,338.2 L471.4,338.2 L473.6,338.2 L475.8,338.2 L478,338.2 L480.2,338.2 L482.4,338.2 L484.6,338.2 L486.8,338.2 L489,338.2 L491.2,338.2 L493.4,338.2 L495.6,338.2 L497.8,338.2 L500,338.2 L502.2,338.2 L504.4,338.2 L506.6,338.2 L508.8,338.2 L511,338.2 " fill="none"/></g>
<g clip-path="url(#plot_window)" stroke="rgb(139,0,0)" stroke-width="1"><path d="M70.2,338.2 L72.4,332.2 L74.61,294.2 L76.81,231.6 L79.02,171.4 L81.22,130.3 L83.43,111.6 L85.63,111.8 L87.83,124.9 L90.04,145.1 L92.24,168.5 L94.45,192.1 L96.65,214.3 L98.85,234.3 L101.1,251.7 L103.3,266.7 L105.5,279.3 L107.7,289.7 L109.9,298.4 L112.1,305.6 L114.3,311.4 L116.5,316.2 L118.7,320.2 L120.9,323.4 L123.1,326 L125.3,328.1 L127.5,329.9 L129.7,331.3 L131.9,332.5 L134.1,333.4 L136.3,334.2 L138.5,334.9 L140.7,335.4 L142.9,335.9 L145.1,336.2 L147.3,336.6 L149.6,336.8 L151.8,337 L154,337.2 L156.2,337.4 L158.4,337.5 L160.6,337.6 L162.8,337.7 L165,337.8 L167.2,337.8 L169.4,337.9 L171.6,337.9 L173.8,338 L176,338 L178.2,338 L180.4,338 L182.6,338.1 L184.8,338.1 L187,338.1 L189.2,338.1 L191.4,338.1 L193.6,338.1 L195.8,338.1 L198,338.1 L200.2,338.2 L202.5,338.2 L204.7,338.2 L206.9,338.2 L209.1,338.2 L211.3,338.2 L213.5,338.2 L215.7,338.2 L217.9,338.2 L220.1,338.2 L222.3,338.2 L224.5,338.2 L226.7,338.2 L228.9,338.2 L231.1,338.2 L233.3,338.2 L235.5,338.2 L237.7,338.2 L239.9,338.2 L242.1,338.2 L244.3,338.2 L246.5,338.2 L248.7,338.2 L250.9,338.2 L253.1,338.2 L255.4,338.2 L257.6,338.2 L259.8,338.2 L262,338.2 L264.2,338.2 L266.4,338.2 L268.6,338.2 L270.8,338.2 L273,338.2 L275.2,338.2 L277.4,338.2 L279.6,338.2 L281.8,338.2 L284,338.2 L286.2,338.2 L288.4,338.2 L290.6,338.2 L292.8,338.2 L295,338.2 L297.2,338.2 L299.4,338.2 L301.6,338.2 L303.8,338.2 L306,338.2 L308.3,338.2 L310.5,338.2 L312.7,338.2 L314.9,338.2 L317.1,338.2 L319.3,338.2 L321.5,338.2 L323.7,338.2 L325.9,338.2 L328.1,338.2 L330.3,338.2 L332.5,338.2 L334.7,338.2 L336.9,338.2 L339.1,338.2 L341.3,338.2 L343.5,338.2 L345.7,338.2 L347.9,338.2 L350.1,338.2 L352.3,338.2 L354.5,338.2 L356.7,338.2 L359,338.2 L361.2,338.2 L363.4,338.2 L365.6,338.2 L367.8,338.2 L370,338.2 L372.2,338.2 L374.4,338.2 L376.6,338.2 L378.8,338.2 L381,338.2 L383.2,338.2 L385.4,338.2 L387.6,338.2 L389.8,338.2 L392,338.2 L394.2,338.2 L396.4,338.2 L398.6,338.2 L400.8,338.2 L403,338.2 L405.2,338.2 L407.4,338.2 L409.6,338.2 L411.9,338.2 L414.1,338.2 L416.3,338.2 L418.5,338.2 L420.7,338.2 L422.9,338.2 L425.1,338.2 L427.3,338.2 L429.5,338.2 L431.7,338.2 L433.9,338.2 L436.1,338.2 L438.3,338.2 L440.5,338.2 L442.7,338.2 L444.9,338.2 L447.1,338.2 L449.3,338.2 L451.5,338.2 L453.7,338.2 L455.9,338.2 L458.1,338.2 L460.3,338.2 L462.5,338.2 L464.8,338.2 L467,338.2 L469.2,338.2 L471.4,338.2 L473.6,338.2 L475.8,338.2 L478,338.2 L480.2,338.2 L482.4,338.2 L484.6,338.2 L486.8,338.2 L489,338.2 L491.2,338.2 L493.4,338.2 L495.6,338.2 L497.8,338.2 L500,338.2 L502.2,338.2 L504.4,338.2 L506.6,338.2 L508.8,338.2 L511,338.2 " fill="none"/></g>
<g clip-path="url(#plot_window)" stroke="rgb(0,100,0)" stroke-width="1"><path d="M70.2,338.2 L72.4,337.1 L74.61,327 L76.81,303.5 L79.02,270.7 L81.22,236.2 L83.43,206.4 L85.63,184.7 L87.83,172.1 L90.04,167.8 L92.24,170.3 L94.45,177.7 L96.65,188.3 L98.85,200.8 L101.1,214.1 L103.3,227.4 L105.5,240.1 L107.7,252 L109.9,262.9 L112.1,272.7 L114.3,281.5 L116.5,289.2 L118.7,295.9 L120.9,301.8 L123.1,306.9 L125.3,311.3 L127.5,315.1 L129.7,318.3 L131.9,321.1 L134.1,323.5 L136.3,325.5 L138.5,327.3 L140.7,328.8 L142.9,330.1 L145.1,331.2 L147.3,332.2 L149.6,333 L151.8,333.7 L154,334.3 L156.2,334.8 L158.4,335.2 L160.6,335.6 L162.8,335.9 L165,336.2 L167.2,336.5 L169.4,336.7 L171.6,336.9 L173.8,337 L176,337.2 L178.2,337.3 L180.4,337.4 L182.6,337.5 L184.8,337.6 L187,337.7 L189.2,337.7 L191.4,337.8 L193.6,337.8 L195.8,337.9 L198,337.9 L200.2,337.9 L202.5,338 L204.7,338 L206.9,338 L209.1,338 L211.3,338.1 L213.5,338.1 L215.7,338.1 L217.9,338.1 L220.1,338.1 L222.3,338.1 L224.5,338.1 L226.7,338.1 L228.9,338.1 L231.1,338.1 L233.3,338.1 L235.5,338.2 L237.7,338.2 L239.9,338.2 L242.1,338.2 L244.3,338.2 L246.5,338.2 L248.7,338.2 L250.9,338.2 L253.1,338.2 L255.4,338.2 L257.6,338.2 L259.8,338.2 L262,338.2 L264.2,338.2 L266.4,338.2 L268.6,338.2 L270.8,338.2 L273,338.2 L275.2,338.2 L277.4,338.2 L279.6,338.2 L281.8,338.2 L284,338.2 L286.2,338.2 L288.4,338.2 L290.6,338.2 L292.8,338.2 L295,338.2 L297.2,338.2 L299.4,338.2 L301.6,338.2 L303.8,338.2 L306,338.2 L308.3,338.2 L310.5,338.2 L312.7,338.2 L314.9,338.2 L317.1,338.2 L319.3,338.2 L321.5,338.2 L323.7,338.2 L325.9,338.2 L328.1,338.2 L330.3,338.2 L332.5,338.2 L334.7,338.2 L336.9,338.2 L339.1,338.2 L341.3,338.2 L343.5,338.2 L345.7,338.2 L347.9,338.2 L350.1,338.2 L352.3,338.2 L354.5,338.2 L356.7,338.2 L359,338.2 L361.2,338.2 L363.4,338.2 L365.6,338.2 L367.8,338.2 L370,338.2 L372.2,338.2 L374.4,338.2 L376.6,338.2 L378.8,338.2 L381,338.2 L383.2,338.2 L385.4,338.2 L387.6,338.2 L389.8,338.2 L392,338.2 L394.2,338.2 L396.4,338.2 L398.6,338.2 L400.8,338.2 L403,338.2 L405.2,338.2 L407.4,338.2 L409.6,338.2 L411.9,338.2 L414.1,338.2 L416.3,338.2 L418.5,338.2 L420.7,338.2 L422.9,338.2 L425.1,338.2 L427.3,338.2 L429.5,338.2 L431.7,338.2 L433.9,338.2 L436.1,338.2 L438.3,338.2 L440.5,338.2 L442.7,338.2 L444.9,338.2 L447.1,338.2 L449.3,338.2 L451.5,338.2 L453.7,338.2 L455.9,338.2 L458.1,338.2 L460.3,338.2 L462.5,338.2 L464.8,338.2 L467,338.2 L469.2,338.2 L471.4,338.2 L473.6,338.2 L475.8,338.2 L478,338.2 L480.2,338.2 L482.4,338.2 L484.6,338.2 L486.8,338.2 L489,338.2 L491.2,338.2 L493.4,338.2 L495.6,338.2 L497.8,338.2 L500,338.2 L502.2,338.2 L504.4,338.2 L506.6,338.2 L508.8,338.2 L511,338.2 " fill="none"/></g>
<g clip-path="url(#plot_window)" stroke="rgb(255,140,0)" stroke-width="1"><path d="M70.2,338.2 L72.4,338.1 L74.61,336.3 L76.81,330.4 L79.02,318.9 L81.22,302.6 L83.43,283.2 L85.63,263.2 L87.83,244.7 L90.04,229.2 L92.24,217.6 L94.45,210 L96.65,206.4 L98.85,206.1 L101.1,208.6 L103.3,213.3 L105.5,219.6 L107.7,226.9 L109.9,234.7 L112.1,242.9 L114.3,251 L116.5,258.9 L118.7,266.4 L120.9,273.5 L123.1,280.1 L125.3,286.1 L127.5,291.7 L129.7,296.7 L131.9,301.3 L134.1,305.4 L136.3,309 L138.5,312.3 L140.7,315.2 L142.9,317.8 L145.1,320.1 L147.3,322.2 L149.6,324 L151.8,325.6 L154,327 L156.2,328.3 L158.4,329.4 L160.6,330.4 L162.8,331.3 L165,332 L167.2,332.7 L169.4,333.3 L171.6,333.8 L173.8,334.3 L176,334.7 L178.2,335.1 L180.4,335.4 L182.6,335.7 L184.8,336 L187,336.2 L189.2,336.4 L191.4,336.6 L193.6,336.8 L195.8,336.9 L198,337 L200.2,337.2 L202.5,337.3 L204.7,337.4 L206.9,337.4 L209.1,337.5 L211.3,337.6 L213.5,337.6 L215.7,337.7 L217.9,337.7 L220.1,337.8 L222.3,337.8 L224.5,337.9 L226.7,337.9 L228.9,337.9 L231.1,337.9 L233.3,338 L235.5,338 L237.7,338 L239.9,338 L242.1,338 L244.3,338.1 L246.5,338.1 L248.7,338.1 L250.9,338.1 L253.1,338.1 L255.4,338.1 L257.6,338.1 L259.8,338.1 L262,338.1 L264.2,338.1 L266.4,338.1 L268.6,338.1 L270.8,338.1 L273,338.2 L275.2,338.2 L277.4,338.2 L279.6,338.2 L281.8,338.2 L284,338.2 L286.2,338.2 L288.4,338.2 L290.6,338.2 L292.8,338.2 L295,338.2 L297.2,338.2 L299.4,338.2 L301.6,338.2 L303.8,338.2 L306,338.2 L308.3,338.2 L310.5,338.2 L312.7,338.2 L314.9,338.2 L317.1,338.2 L319.3,338.2 L321.5,338.2 L323.7,338.2 L325.9,338.2 L328.1,338.2 L330.3,338.2 L332.5,338.2 L334.7,338.2 L336.9,338.2 L339.1,338.2 L341.3,338.2 L343.5,338.2 L345.7,338.2 L347.9,338.2 L350.1,338.2 L352.3,338.2 L354.5,338.2 L356.7,338.2 L359,338.2 L361.2,338.2 L363.4,338.2 L365.6,338.2 L367.8,338.2 L370,338.2 L372.2,338.2 L374.4,338.2 L376.6,338.2 L378.8,338.2 L381,338.2 L383.2,338.2 L385.4,338.2 L387.6,338.2 L389.8,338.2 L392,338.2 L394.2,338.2 L396.4,338.2 L398.6,338.2 L400.8,338.2 L403,338.2 L405.2,338.2 L407.4,338.2 L409.6,338.2 L411.9,338.2 L414.1,338.2 L416.3,338.2 L418.5,338.2 L420.7,338.2 L422.9,338.2 L425.1,338.2 L427.3,338.2 L429.5,338.2 L431.7,338.2 L433.9,338.2 L436.1,338.2 L438.3,338.2 L440.5,338.2 L442.7,338.2 L444.9,338.2 L447.1,338.2 L449.3,338.2 L451.5,338.2 L453.7,338.2 L455.9,338.2 L458.1,338.2 L460.3,338.2 L462.5,338.2 L464.8,338.2 L467,338.2 L469.2,338.2 L471.4,338.2 L473.6,338.2 L475.8,338.2 L478,338.2 L480.2,338.2 L482.4,338.2 L484.6,338.2 L486.8,338.2 L489,338.2 L491.2,338.2 L493.4,338.2 L495.6,338.2 L497.8,338.2 L500,338.2 L502.2,338.2 L504.4,338.2 L506.6,338.2 L508.8,338.2 L511,338.2 " fill="none"/></g>
<g clip-path="url(#plot_window)" stroke="rgb(127,255,0)" stroke-width="1"><path d="M70.2,338.2 L72.4,338.2 L74.61,338.2 L76.81,338.2 L79.02,338.2 L81.22,338.2 L83.43,338.2 L85.63,338.1 L87.83,337.9 L90.04,337.6 L92.24,337.1 L94.45,336.2 L96.65,335.1 L98.85,333.5 L101.1,331.4 L103.3,329 L105.5,326.1 L107.7,322.8 L109.9,319.1 L112.1,315.3 L114.3,311.2 L116.5,307.1 L118.7,303.1 L120.9,299.1 L123.1,295.4 L125.3,291.8 L127.5,288.6 L129.7,285.8 L131.9,283.3 L134.1,281.2 L136.3,279.5 L138.5,278.1 L140.7,277.2 L142.9,276.6 L145.1,276.4 L147.3,276.5 L149.6,276.8 L151.8,277.5 L154,278.3 L156.2,279.4 L158.4,280.6 L160.6,282 L162.8,283.5 L165,285.1 L167.2,286.8 L169.4,288.5 L171.6,290.3 L173.8,292.1 L176,293.9 L178.2,295.8 L180.4,297.5 L182.6,299.3 L184.8,301.1 L187,302.8 L189.2,304.4 L191.4,306.1 L193.6,307.6 L195.8,309.1 L198,310.6 L200.2,312 L202.5,313.4 L204.7,314.7 L206.9,315.9 L209.1,317.1 L211.3,318.2 L213.5,319.3 L215.7,320.3 L217.9,321.3 L220.1,322.2 L222.3,323.1 L224.5,324 L226.7,324.7 L228.9,325.5 L231.1,326.2 L233.3,326.9 L235.5,327.5 L237.7,328.1 L239.9,328.7 L242.1,329.2 L244.3,329.7 L246.5,330.2 L248.7,330.7 L250.9,331.1 L253.1,331.5 L255.4,331.9 L257.6,332.2 L259.8,332.6 L262,332.9 L264.2,333.2 L266.4,333.5 L268.6,333.7 L270.8,334 L273,334.2 L275.2,334.4 L277.4,334.7 L279.6,334.8 L281.8,335 L284,335.2 L286.2,335.4 L288.4,335.5 L290.6,335.7 L292.8,335.8 L295,335.9 L297.2,336.1 L299.4,336.2 L301.6,336.3 L303.8,336.4 L306,336.5 L308.3,336.6 L310.5,336.7 L312.7,336.8 L314.9,336.8 L317.1,336.9 L319.3,337 L321.5,337 L323.7,337.1 L325.9,337.2 L328.1,337.2 L330.3,337.3 L332.5,337.3 L334.7,337.4 L336.9,337.4 L339.1,337.4 L341.3,337.5 L343.5,337.5 L345.7,337.6 L347.9,337.6 L350.1,337.6 L352.3,337.6 L354.5,337.7 L356.7,337.7 L359,337.7 L361.2,337.8 L363.4,337.8 L365.6,337.8 L367.8,337.8 L370,337.8 L372.2,337.9 L374.4,337.9 L376.6,337.9 L378.8,337.9 L381,337.9 L383.2,337.9 L385.4,337.9 L387.6,338 L389.8,338 L392,338 L394.2,338 L396.4,338 L398.6,338 L400.8,338 L403,338 L405.2,338 L407.4,338 L409.6,338 L411.9,338.1 L414.1,338.1 L416.3,338.1 L418.5,338.1 L420.7,338.1 L422.9,338.1 L425.1,338.1 L427.3,338.1 L429.5,338.1 L431.7,338.1 L433.9,338.1 L436.1,338.1 L438.3,338.1 L440.5,338.1 L442.7,338.1 L444.9,338.1 L447.1,338.1 L449.3,338.1 L451.5,338.1 L453.7,338.1 L455.9,338.1 L458.1,338.1 L460.3,338.1 L462.5,338.1 L464.8,338.2 L467,338.2 L469.2,338.2 L471.4,338.2 L473.6,338.2 L475.8,338.2 L478,338.2 L480.2,338.2 L482.4,338.2 L484.6,338.2 L486.8,338.2 L489,338.2 L491.2,338.2 L493.4,338.2 L495.6,338.2 L497.8,338.2 L500,338.2 L502.2,338.2 L504.4,338.2 L506.6,338.2 L508.8,338.2 L511,338.2 " fill="none"/></g>
<g clip-path="url(#plot_window)" stroke="rgb(0,0,139)" stroke-width="1"><path d="M70.2,338.2 L72.4,338.2 L74.61,338.2 L76.81,338.2 L79.02,338.2 L81.22,338.2 L83.43,338.2 L85.63,338.2 L87.83,338.2 L90.04,338.2 L92.24,338.2 L94.45,338.2 L96.65,338.2 L98.85,338.2 L101.1,338.2 L103.3,338.2 L105.5,338.2 L107.7,338.2 L109.9,338.2 L112.1,338.2 L114.3,338.2 L116.5,338.2 L118.7,338.2 L120.9,338.1 L123.1,338.1 L125.3,338.1 L127.5,338 L129.7,337.9 L131.9,337.8 L134.1,337.7 L136.3,337.6 L138.5,337.4 L140.7,337.1 L142.9,336.8 L145.1,336.5 L147.3,336.1 L149.6,335.7 L151.8,335.2 L154,334.6 L156.2,334 L158.4,333.4 L160.6,332.7 L162.8,331.9 L165,331.1 L167.2,330.2 L169.4,329.3 L171.6,328.4 L173.8,327.4 L176,326.4 L178.2,325.4 L180.4,324.4 L182.6,323.3 L184.8,322.3 L187,321.2 L189.2,320.2 L191.4,319.2 L193.6,318.2 L195.8,317.2 L198,316.3 L200.2,315.4 L202.5,314.5 L204.7,313.7 L206.9,312.9 L209.1,312.1 L211.3,311.4 L213.5,310.8 L215.7,310.2 L217.9,309.6 L220.1,309.1 L222.3,308.7 L224.5,308.3 L226.7,307.9 L228.9,307.6 L231.1,307.4 L233.3,307.2 L235.5,307 L237.7,306.9 L239.9,306.9 L242.1,306.8 L244.3,306.9 L246.5,306.9 L248.7,307 L250.9,307.1 L253.1,307.3 L255.4,307.5 L257.6,307.7 L259.8,308 L262,308.2 L264.2,308.5 L266.4,308.9 L268.6,309.2 L270.8,309.6 L273,309.9 L275.2,310.3 L277.4,310.7 L279.6,311.1 L281.8,311.6 L284,312 L286.2,312.4 L288.4,312.9 L290.6,313.4 L292.8,313.8 L295,314.3 L297.2,314.7 L299.4,315.2 L301.6,315.7 L303.8,316.2 L306,316.6 L308.3,317.1 L310.5,317.5 L312.7,318 L314.9,318.5 L317.1,318.9 L319.3,319.4 L321.5,319.8 L323.7,320.2 L325.9,320.7 L328.1,321.1 L330.3,321.5 L332.5,321.9 L334.7,322.4 L336.9,322.8 L339.1,323.1 L341.3,323.5 L343.5,323.9 L345.7,324.3 L347.9,324.7 L350.1,325 L352.3,325.4 L354.5,325.7 L356.7,326 L359,326.4 L361.2,326.7 L363.4,327 L365.6,327.3 L367.8,327.6 L370,327.9 L372.2,328.2 L374.4,328.5 L376.6,328.8 L378.8,329 L381,329.3 L383.2,329.5 L385.4,329.8 L387.6,330 L389.8,330.2 L392,330.5 L394.2,330.7 L396.4,330.9 L398.6,331.1 L400.8,331.3 L403,331.5 L405.2,331.7 L407.4,331.9 L409.6,332.1 L411.9,332.3 L414.1,332.4 L416.3,332.6 L418.5,332.8 L420.7,332.9 L422.9,333.1 L425.1,333.2 L427.3,333.4 L429.5,333.5 L431.7,333.7 L433.9,333.8 L436.1,333.9 L438.3,334 L440.5,334.2 L442.7,334.3 L444.9,334.4 L447.1,334.5 L449.3,334.6 L451.5,334.7 L453.7,334.8 L455.9,334.9 L458.1,335 L460.3,335.1 L462.5,335.2 L464.8,335.3 L467,335.4 L469.2,335.5 L471.4,335.5 L473.6,335.6 L475.8,335.7 L478,335.8 L480.2,335.8 L482.4,335.9 L484.6,336 L486.8,336 L489,336.1 L491.2,336.2 L493.4,336.2 L495.6,336.3 L497.8,336.3 L500,336.4 L502.2,336.4 L504.4,336.5 L506.6,336.5 L508.8,336.6 L511,336.6 " fill="none"/></g>
</g>
<g id="plotPoints" clip-path="url(#plot_window)"><g stroke="rgb(0,0,0)"></g>
<g stroke="rgb(0,0,0)"></g>
<g stroke="rgb(0,0,0)"></g>
<g stroke="rgb(0,0,0)"></g>
<g stroke="rgb(0,0,0)"></g>
<g stroke="rgb(0,0,0)"></g>
</g>
<g id="limitPoints" stroke="rgb(119,136,153)" fill="rgb(250,235,215)"></g>
<g id="legendBackground" stroke="rgb(119,136,153)" fill="rgb(255,255,255)" stroke-width="1"><rect x="525" y="62" width="213" height="195"/><rect x="525" y="62" width="213" height="195"/></g>
<g id="legendPoints"><g stroke="rgb(0,0,139)" stroke-width="1"><line x1="540" y1="92" x2="555" y2="92"/></g>
<g stroke="rgb(139,0,0)" stroke-width="1"><line x1="540" y1="122" x2="555" y2="122"/></g>
<g stroke="rgb(0,100,0)" stroke-width="1"><line x1="540" y1="152" x2="555" y2="152"/></g>
<g stroke="rgb(255,140,0)" stroke-width="1"><line x1="540" y1="182" x2="555" y2="182"/></g>
<g stroke="rgb(127,255,0)" stroke-width="1"><line x1="540" y1="212" x2="555" y2="212"/></g>
<g stroke="rgb(0,0,139)" stroke-width="1"><line x1="540" y1="242" x2="555" y2="242"/></g>
</g>
<g id="legendText">
<text x="562.5" y="92" font-size="15" font-family="Verdana">v1=10, v2=20, &#x3BB;=0</text>
<text x="562.5" y="122" font-size="15" font-family="Verdana">v1=10, v2=20, &#x3BB;=1</text>
<text x="562.5" y="152" font-size="15" font-family="Verdana">v1=10, v2=20, &#x3BB;=5</text>
<text x="562.5" y="182" font-size="15" font-family="Verdana">v1=10, v2=20, &#x3BB;=10</text>
<text x="562.5" y="212" font-size="15" font-family="Verdana">v1=10, v2=20, &#x3BB;=40</text>
<text x="562.5" y="242" font-size="15" font-family="Verdana">v1=10, v2=20, &#x3BB;=100</text></g>
<g id="title">
<text x="375" y="40" text-anchor="middle" font-size="20" font-family="Verdana">Non Central F PDF</text></g>
</svg>
