<?xml version="1.0" encoding="UTF-8" standalone="no"?>
<svg width="750" height ="400" version="1.1" xmlns="http://www.w3.org/2000/svg"
 xmlns:xlink="http://www.w3.org/1999/xlink"
 xmlns:ev="http://www.w3.org/2001/xml-events">

<!-- SVG plot written using Boost.Plot program (Creator Jacob Voytko) --> 
<!-- Use, modification and distribution of Boost.Plot subject to the --> 
<!-- Boost Software License, Version 1.0.--> 
<!-- (See accompanying file LICENSE_1_0.txt --> 
<!-- or copy at http://www.boost.org/LICENSE_1_0.txt) --> 

<clipPath id="plot_window"><rect x="71.2" y="63" width="501.6" height="274.2"/></clipPath>
<g id="imageBackground" stroke="rgb(119,136,153)" fill="rgb(255,255,255)" stroke-width="2"><rect x="0" y="0" width="750" height="400"/></g>
<g id="plotBackground" stroke="rgb(119,136,153)" fill="rgb(255,255,255)" stroke-width="2"><rect x="70.2" y="62" width="503.6" height="276.2"/></g>
<g id="yMinorGrid" stroke="rgb(200,220,255)" stroke-width="0.5"></g>
<g id="yMajorGrid" stroke="rgb(200,220,255)" stroke-width="1"></g>
<g id="xMinorGrid" stroke="rgb(200,220,255)" stroke-width="0.5"></g>
<g id="xMajorGrid" stroke="rgb(200,220,255)" stroke-width="1"></g>
<g id="yAxis" stroke="rgb(0,0,0)" stroke-width="1"><line x1="322" y1="62" x2="322" y2="343.2"/><line x1="70.2" y1="62" x2="70.2" y2="338.2"/></g>
<g id="xAxis" stroke="rgb(0,0,0)" stroke-width="1"><line x1="65.2" y1="338.2" x2="573.8" y2="338.2"/><line x1="65.2" y1="338.2" x2="573.8" y2="338.2"/></g>
<g id="yMinorTicks" stroke="rgb(0,0,0)" stroke-width="1"><path d="M68.2,325.3 L70.2,325.3 M68.2,312.4 L70.2,312.4 M68.2,299.5 L70.2,299.5 M68.2,286.6 L70.2,286.6 M68.2,260.8 L70.2,260.8 M68.2,247.9 L70.2,247.9 M68.2,235 L70.2,235 M68.2,222 L70.2,222 M68.2,196.2 L70.2,196.2 M68.2,183.3 L70.2,183.3 M68.2,170.4 L70.2,170.4 M68.2,157.5 L70.2,157.5 M68.2,131.7 L70.2,131.7 M68.2,118.8 L70.2,118.8 M68.2,105.9 L70.2,105.9 M68.2,92.99 L70.2,92.99 M68.2,67.17 L70.2,67.17 M68.2,338.2 L70.2,338.2 "/></g>
<g id="xMinorTicks" stroke="rgb(0,0,0)" stroke-width="1"><path d="M349.2,338.2 L349.2,340.2 M376.4,338.2 L376.4,340.2 M403.6,338.2 L403.6,340.2 M430.8,338.2 L430.8,340.2 M485.2,338.2 L485.2,340.2 M512.5,338.2 L512.5,340.2 M539.7,338.2 L539.7,340.2 M566.9,338.2 L566.9,340.2 M294.8,338.2 L294.8,340.2 M267.6,338.2 L267.6,340.2 M240.3,338.2 L240.3,340.2 M213.1,338.2 L213.1,340.2 M158.7,338.2 L158.7,340.2 M131.5,338.2 L131.5,340.2 M104.3,338.2 L104.3,340.2 M77.08,338.2 L77.08,340.2 "/></g>
<g id="yMajorTicks" stroke="rgb(0,0,0)" stroke-width="2"><path d="M65.2,338.2 L70.2,338.2 M65.2,273.7 L70.2,273.7 M65.2,209.1 L70.2,209.1 M65.2,144.6 L70.2,144.6 M65.2,80.08 L70.2,80.08 M65.2,338.2 L70.2,338.2 "/></g>
<g id="xMajorTicks" stroke="rgb(0,0,0)" stroke-width="2"><path d="M322,338.2 L322,343.2 M458,338.2 L458,343.2 M322,338.2 L322,343.2 M185.9,338.2 L185.9,343.2 "/></g>
<g id="plotLabels">
<text x="322" y="357.6" text-anchor="middle" font-size="12" font-family="Verdana">0</text>
<text x="458" y="357.6" text-anchor="middle" font-size="12" font-family="Verdana">10</text>
<text x="322" y="357.6" text-anchor="middle" font-size="12" font-family="Verdana">0</text>
<text x="185.9" y="357.6" text-anchor="middle" font-size="12" font-family="Verdana">-10</text>
<text x="59.2" y="340.6" text-anchor="end" font-size="12" font-family="Verdana">0</text>
<text x="59.2" y="276.1" text-anchor="end" font-size="12" font-family="Verdana">0.1</text>
<text x="59.2" y="211.5" text-anchor="end" font-size="12" font-family="Verdana">0.2</text>
<text x="59.2" y="147" text-anchor="end" font-size="12" font-family="Verdana">0.3</text>
<text x="59.2" y="82.48" text-anchor="end" font-size="12" font-family="Verdana">0.4</text>
<text x="59.2" y="340.6" text-anchor="end" font-size="12" font-family="Verdana">0</text></g>
<g id="yLabel">
<text x="30.2" y="200.1" text-anchor="middle" transform = "rotate(-90 30.2 200.1 )" font-size="14" font-family="Verdana">Probability</text></g>
<g id="xLabel">
<text x="322" y="384" text-anchor="middle" font-size="14" font-family="Verdana">Random Variable</text></g>
<g id="plotLines" stroke-width="2"><g clip-path="url(#plot_window)" stroke="rgb(0,0,139)" stroke-width="1"><path d="M70.2,332.9 L72.72,332.5 L75.24,332 L77.75,331.5 L80.27,331 L82.79,330.4 L85.31,329.8 L87.82,329.1 L90.34,328.4 L92.86,327.6 L95.38,326.8 L97.9,325.9 L100.4,324.9 L102.9,323.8 L105.4,322.7 L108,321.4 L110.5,320.1 L113,318.7 L115.5,317.1 L118,315.5 L120.6,313.7 L123.1,311.9 L125.6,309.8 L128.1,307.7 L130.6,305.4 L133.1,303 L135.7,300.4 L138.2,297.7 L140.7,294.9 L143.2,291.9 L145.7,288.7 L148.3,285.4 L150.8,282 L153.3,278.5 L155.8,274.8 L158.3,271.1 L160.8,267.3 L163.4,263.5 L165.9,259.6 L168.4,255.8 L170.9,252.1 L173.4,248.5 L175.9,245.2 L178.5,242 L181,239.2 L183.5,236.8 L186,234.8 L188.5,233.4 L191.1,232.6 L193.6,232.4 L196.1,233.1 L198.6,234.5 L201.1,236.7 L203.6,239.7 L206.2,243.6 L208.7,248.3 L211.2,253.8 L213.7,259.9 L216.2,266.6 L218.8,273.7 L221.3,281 L223.8,288.4 L226.3,295.6 L228.8,302.6 L231.3,309.1 L233.9,315 L236.4,320.2 L238.9,324.7 L241.4,328.3 L243.9,331.3 L246.4,333.5 L249,335.2 L251.5,336.3 L254,337.1 L256.5,337.6 L259,337.9 L261.6,338 L264.1,338.1 L266.6,338.2 L269.1,338.2 L271.6,338.2 L274.1,338.2 L276.7,338.2 L279.2,338.2 L281.7,338.2 L284.2,338.2 L286.7,338.2 L289.2,338.2 L291.8,338.2 L294.3,338.2 L296.8,338.2 L299.3,338.2 L301.8,338.2 L304.4,338.2 L306.9,338.2 L309.4,338.2 L311.9,338.2 L314.4,338.2 L316.9,338.2 L319.5,338.2 L322,338.2 L324.5,338.2 L327,338.2 L329.5,338.2 L332.1,338.2 L334.6,338.2 L337.1,338.2 L339.6,338.2 L342.1,338.2 L344.6,338.2 L347.2,338.2 L349.7,338.2 L352.2,338.2 L354.7,338.2 L357.2,338.2 L359.7,338.2 L362.3,338.2 L364.8,338.2 L367.3,338.2 L369.8,338.2 L372.3,338.2 L374.9,338.2 L377.4,338.2 L379.9,338.2 L382.4,338.2 L384.9,338.2 L387.4,338.2 L390,338.2 L392.5,338.2 L395,338.2 L397.5,338.2 L400,338.2 L402.5,338.2 L405.1,338.2 L407.6,338.2 L410.1,338.2 L412.6,338.2 L415.1,338.2 L417.7,338.2 L420.2,338.2 L422.7,338.2 L425.2,338.2 L427.7,338.2 L430.2,338.2 L432.8,338.2 L435.3,338.2 L437.8,338.2 L440.3,338.2 L442.8,338.2 L445.4,338.2 L447.9,338.2 L450.4,338.2 L452.9,338.2 L455.4,338.2 L457.9,338.2 L460.5,338.2 L463,338.2 L465.5,338.2 L468,338.2 L470.5,338.2 L473,338.2 L475.6,338.2 L478.1,338.2 L480.6,338.2 L483.1,338.2 L485.6,338.2 L488.2,338.2 L490.7,338.2 L493.2,338.2 L495.7,338.2 L498.2,338.2 L500.7,338.2 L503.3,338.2 L505.8,338.2 L508.3,338.2 L510.8,338.2 L513.3,338.2 L515.9,338.2 L518.4,338.2 L520.9,338.2 L523.4,338.2 L525.9,338.2 L528.4,338.2 L531,338.2 L533.5,338.2 L536,338.2 L538.5,338.2 L541,338.2 L543.5,338.2 L546.1,338.2 L548.6,338.2 L551.1,338.2 L553.6,338.2 L556.1,338.2 L558.7,338.2 L561.2,338.2 L563.7,338.2 L566.2,338.2 L568.7,338.2 L571.2,338.2 L573.8,338.2 " fill="none"/></g>
<g clip-path="url(#plot_window)" stroke="rgb(139,0,0)" stroke-width="1"><path d="M70.2,338.2 L72.72,338.2 L75.24,338.2 L77.75,338.1 L80.27,338.1 L82.79,338.1 L85.31,338.1 L87.82,338.1 L90.34,338.1 L92.86,338.1 L95.38,338.1 L97.9,338.1 L100.4,338.1 L102.9,338 L105.4,338 L108,338 L110.5,338 L113,338 L115.5,337.9 L118,337.9 L120.6,337.9 L123.1,337.8 L125.6,337.8 L128.1,337.7 L130.6,337.7 L133.1,337.6 L135.7,337.5 L138.2,337.4 L140.7,337.3 L143.2,337.2 L145.7,337.1 L148.3,337 L150.8,336.8 L153.3,336.6 L155.8,336.4 L158.3,336.1 L160.8,335.9 L163.4,335.5 L165.9,335.2 L168.4,334.7 L170.9,334.3 L173.4,333.7 L175.9,333.1 L178.5,332.3 L181,331.5 L183.5,330.6 L186,329.5 L188.5,328.2 L191.1,326.8 L193.6,325.1 L196.1,323.3 L198.6,321.1 L201.1,318.7 L203.6,315.9 L206.2,312.7 L208.7,309.1 L211.2,305.1 L213.7,300.5 L216.2,295.4 L218.8,289.7 L221.3,283.3 L223.8,276.3 L226.3,268.6 L228.8,260.2 L231.3,251.2 L233.9,241.6 L236.4,231.6 L238.9,221.2 L241.4,210.8 L243.9,200.6 L246.4,191 L249,182.3 L251.5,175.1 L254,169.8 L256.5,166.9 L259,166.9 L261.6,170 L264.1,176.6 L266.6,186.4 L269.1,199.3 L271.6,214.8 L274.1,231.9 L276.7,249.8 L279.2,267.5 L281.7,283.9 L284.2,298.4 L286.7,310.4 L289.2,319.7 L291.8,326.6 L294.3,331.3 L296.8,334.3 L299.3,336.1 L301.8,337.2 L304.4,337.7 L306.9,338 L309.4,338.1 L311.9,338.2 L314.4,338.2 L316.9,338.2 L319.5,338.2 L322,338.2 L324.5,338.2 L327,338.2 L329.5,338.2 L332.1,338.2 L334.6,338.2 L337.1,338.2 L339.6,338.2 L342.1,338.2 L344.6,338.2 L347.2,338.2 L349.7,338.2 L352.2,338.2 L354.7,338.2 L357.2,338.2 L359.7,338.2 L362.3,338.2 L364.8,338.2 L367.3,338.2 L369.8,338.2 L372.3,338.2 L374.9,338.2 L377.4,338.2 L379.9,338.2 L382.4,338.2 L384.9,338.2 L387.4,338.2 L390,338.2 L392.5,338.2 L395,338.2 L397.5,338.2 L400,338.2 L402.5,338.2 L405.1,338.2 L407.6,338.2 L410.1,338.2 L412.6,338.2 L415.1,338.2 L417.7,338.2 L420.2,338.2 L422.7,338.2 L425.2,338.2 L427.7,338.2 L430.2,338.2 L432.8,338.2 L435.3,338.2 L437.8,338.2 L440.3,338.2 L442.8,338.2 L445.4,338.2 L447.9,338.2 L450.4,338.2 L452.9,338.2 L455.4,338.2 L457.9,338.2 L460.5,338.2 L463,338.2 L465.5,338.2 L468,338.2 L470.5,338.2 L473,338.2 L475.6,338.2 L478.1,338.2 L480.6,338.2 L483.1,338.2 L485.6,338.2 L488.2,338.2 L490.7,338.2 L493.2,338.2 L495.7,338.2 L498.2,338.2 L500.7,338.2 L503.3,338.2 L505.8,338.2 L508.3,338.2 L510.8,338.2 L513.3,338.2 L515.9,338.2 L518.4,338.2 L520.9,338.2 L523.4,338.2 L525.9,338.2 L528.4,338.2 L531,338.2 L533.5,338.2 L536,338.2 L538.5,338.2 L541,338.2 L543.5,338.2 L546.1,338.2 L548.6,338.2 L551.1,338.2 L553.6,338.2 L556.1,338.2 L558.7,338.2 L561.2,338.2 L563.7,338.2 L566.2,338.2 L568.7,338.2 L571.2,338.2 L573.8,338.2 " fill="none"/></g>
<g clip-path="url(#plot_window)" stroke="rgb(0,100,0)" stroke-width="1"><path d="M70.2,338.2 L72.72,338.2 L75.24,338.2 L77.75,338.2 L80.27,338.2 L82.79,338.2 L85.31,338.2 L87.82,338.2 L90.34,338.2 L92.86,338.2 L95.38,338.2 L97.9,338.2 L100.4,338.2 L102.9,338.2 L105.4,338.2 L108,338.2 L110.5,338.2 L113,338.2 L115.5,338.2 L118,338.2 L120.6,338.2 L123.1,338.2 L125.6,338.2 L128.1,338.2 L130.6,338.2 L133.1,338.2 L135.7,338.2 L138.2,338.2 L140.7,338.2 L143.2,338.2 L145.7,338.2 L148.3,338.2 L150.8,338.2 L153.3,338.2 L155.8,338.2 L158.3,338.2 L160.8,338.2 L163.4,338.2 L165.9,338.2 L168.4,338.2 L170.9,338.2 L173.4,338.2 L175.9,338.2 L178.5,338.2 L181,338.2 L183.5,338.2 L186,338.2 L188.5,338.2 L191.1,338.2 L193.6,338.2 L196.1,338.2 L198.6,338.2 L201.1,338.2 L203.6,338.2 L206.2,338.2 L208.7,338.2 L211.2,338.2 L213.7,338.2 L216.2,338.2 L218.8,338.2 L221.3,338.2 L223.8,338.2 L226.3,338.2 L228.8,338.2 L231.3,338.2 L233.9,338.2 L236.4,338.2 L238.9,338.2 L241.4,338.1 L243.9,338.1 L246.4,338.1 L249,338.1 L251.5,338 L254,337.9 L256.5,337.9 L259,337.7 L261.6,337.6 L264.1,337.3 L266.6,337 L269.1,336.6 L271.6,336 L274.1,335.2 L276.7,334.1 L279.2,332.5 L281.7,330.3 L284.2,327.4 L286.7,323.3 L289.2,317.8 L291.8,310.5 L294.3,300.9 L296.8,288.5 L299.3,272.9 L301.8,253.8 L304.4,231.2 L306.9,205.7 L309.4,178.4 L311.9,151 L314.4,125.7 L316.9,105.2 L319.5,91.79 L322,87.11 L324.5,91.79 L327,105.2 L329.5,125.7 L332.1,151 L334.6,178.4 L337.1,205.7 L339.6,231.2 L342.1,253.8 L344.6,272.9 L347.2,288.5 L349.7,300.9 L352.2,310.5 L354.7,317.8 L357.2,323.3 L359.7,327.4 L362.3,330.3 L364.8,332.5 L367.3,334.1 L369.8,335.2 L372.3,336 L374.9,336.6 L377.4,337 L379.9,337.3 L382.4,337.6 L384.9,337.7 L387.4,337.9 L390,337.9 L392.5,338 L395,338.1 L397.5,338.1 L400,338.1 L402.5,338.1 L405.1,338.2 L407.6,338.2 L410.1,338.2 L412.6,338.2 L415.1,338.2 L417.7,338.2 L420.2,338.2 L422.7,338.2 L425.2,338.2 L427.7,338.2 L430.2,338.2 L432.8,338.2 L435.3,338.2 L437.8,338.2 L440.3,338.2 L442.8,338.2 L445.4,338.2 L447.9,338.2 L450.4,338.2 L452.9,338.2 L455.4,338.2 L457.9,338.2 L460.5,338.2 L463,338.2 L465.5,338.2 L468,338.2 L470.5,338.2 L473,338.2 L475.6,338.2 L478.1,338.2 L480.6,338.2 L483.1,338.2 L485.6,338.2 L488.2,338.2 L490.7,338.2 L493.2,338.2 L495.7,338.2 L498.2,338.2 L500.7,338.2 L503.3,338.2 L505.8,338.2 L508.3,338.2 L510.8,338.2 L513.3,338.2 L515.9,338.2 L518.4,338.2 L520.9,338.2 L523.4,338.2 L525.9,338.2 L528.4,338.2 L531,338.2 L533.5,338.2 L536,338.2 L538.5,338.2 L541,338.2 L543.5,338.2 L546.1,338.2 L548.6,338.2 L551.1,338.2 L553.6,338.2 L556.1,338.2 L558.7,338.2 L561.2,338.2 L563.7,338.2 L566.2,338.2 L568.7,338.2 L571.2,338.2 L573.8,338.2 " fill="none"/></g>
<g clip-path="url(#plot_window)" stroke="rgb(255,140,0)" stroke-width="1"><path d="M70.2,338.2 L72.72,338.2 L75.24,338.2 L77.75,338.2 L80.27,338.2 L82.79,338.2 L85.31,338.2 L87.82,338.2 L90.34,338.2 L92.86,338.2 L95.38,338.2 L97.9,338.2 L100.4,338.2 L102.9,338.2 L105.4,338.2 L108,338.2 L110.5,338.2 L113,338.2 L115.5,338.2 L118,338.2 L120.6,338.2 L123.1,338.2 L125.6,338.2 L128.1,338.2 L130.6,338.2 L133.1,338.2 L135.7,338.2 L138.2,338.2 L140.7,338.2 L143.2,338.2 L145.7,338.2 L148.3,338.2 L150.8,338.2 L153.3,338.2 L155.8,338.2 L158.3,338.2 L160.8,338.2 L163.4,338.2 L165.9,338.2 L168.4,338.2 L170.9,338.2 L173.4,338.2 L175.9,338.2 L178.5,338.2 L181,338.2 L183.5,338.2 L186,338.2 L188.5,338.2 L191.1,338.2 L193.6,338.2 L196.1,338.2 L198.6,338.2 L201.1,338.2 L203.6,338.2 L206.2,338.2 L208.7,338.2 L211.2,338.2 L213.7,338.2 L216.2,338.2 L218.8,338.2 L221.3,338.2 L223.8,338.2 L226.3,338.2 L228.8,338.2 L231.3,338.2 L233.9,338.2 L236.4,338.2 L238.9,338.2 L241.4,338.2 L243.9,338.2 L246.4,338.2 L249,338.2 L251.5,338.2 L254,338.2 L256.5,338.2 L259,338.2 L261.6,338.2 L264.1,338.2 L266.6,338.2 L269.1,338.2 L271.6,338.2 L274.1,338.2 L276.7,338.2 L279.2,338.2 L281.7,338.2 L284.2,338.2 L286.7,338.2 L289.2,338.2 L291.8,338.2 L294.3,338.2 L296.8,338.2 L299.3,338.2 L301.8,338.2 L304.4,338.2 L306.9,338.2 L309.4,338.2 L311.9,338.2 L314.4,338.2 L316.9,338.2 L319.5,338.2 L322,338.2 L324.5,338.2 L327,338.2 L329.5,338.2 L332.1,338.2 L334.6,338.1 L337.1,338 L339.6,337.7 L342.1,337.2 L344.6,336.1 L347.2,334.3 L349.7,331.3 L352.2,326.6 L354.7,319.7 L357.2,310.4 L359.7,298.4 L362.3,283.9 L364.8,267.5 L367.3,249.8 L369.8,231.9 L372.3,214.8 L374.9,199.3 L377.4,186.4 L379.9,176.6 L382.4,170 L384.9,166.9 L387.4,166.9 L390,169.8 L392.5,175.1 L395,182.3 L397.5,191 L400,200.6 L402.5,210.8 L405.1,221.2 L407.6,231.6 L410.1,241.6 L412.6,251.2 L415.1,260.2 L417.7,268.6 L420.2,276.3 L422.7,283.3 L425.2,289.7 L427.7,295.4 L430.2,300.5 L432.8,305.1 L435.3,309.1 L437.8,312.7 L440.3,315.9 L442.8,318.7 L445.4,321.1 L447.9,323.3 L450.4,325.1 L452.9,326.8 L455.4,328.2 L457.9,329.5 L460.5,330.6 L463,331.5 L465.5,332.3 L468,333.1 L470.5,333.7 L473,334.3 L475.6,334.7 L478.1,335.2 L480.6,335.5 L483.1,335.9 L485.6,336.1 L488.2,336.4 L490.7,336.6 L493.2,336.8 L495.7,337 L498.2,337.1 L500.7,337.2 L503.3,337.3 L505.8,337.4 L508.3,337.5 L510.8,337.6 L513.3,337.7 L515.9,337.7 L518.4,337.8 L520.9,337.8 L523.4,337.9 L525.9,337.9 L528.4,337.9 L531,338 L533.5,338 L536,338 L538.5,338 L541,338 L543.5,338.1 L546.1,338.1 L548.6,338.1 L551.1,338.1 L553.6,338.1 L556.1,338.1 L558.7,338.1 L561.2,338.1 L563.7,338.1 L566.2,338.1 L568.7,338.2 L571.2,338.2 L573.8,338.2 " fill="none"/></g>
<g clip-path="url(#plot_window)" stroke="rgb(127,255,0)" stroke-width="1"><path d="M70.2,338.2 L72.72,338.2 L75.24,338.2 L77.75,338.2 L80.27,338.2 L82.79,338.2 L85.31,338.2 L87.82,338.2 L90.34,338.2 L92.86,338.2 L95.38,338.2 L97.9,338.2 L100.4,338.2 L102.9,338.2 L105.4,338.2 L108,338.2 L110.5,338.2 L113,338.2 L115.5,338.2 L118,338.2 L120.6,338.2 L123.1,338.2 L125.6,338.2 L128.1,338.2 L130.6,338.2 L133.1,338.2 L135.7,338.2 L138.2,338.2 L140.7,338.2 L143.2,338.2 L145.7,338.2 L148.3,338.2 L150.8,338.2 L153.3,338.2 L155.8,338.2 L158.3,338.2 L160.8,338.2 L163.4,338.2 L165.9,338.2 L168.4,338.2 L170.9,338.2 L173.4,338.2 L175.9,338.2 L178.5,338.2 L181,338.2 L183.5,338.2 L186,338.2 L188.5,338.2 L191.1,338.2 L193.6,338.2 L196.1,338.2 L198.6,338.2 L201.1,338.2 L203.6,338.2 L206.2,338.2 L208.7,338.2 L211.2,338.2 L213.7,338.2 L216.2,338.2 L218.8,338.2 L221.3,338.2 L223.8,338.2 L226.3,338.2 L228.8,338.2 L231.3,338.2 L233.9,338.2 L236.4,338.2 L238.9,338.2 L241.4,338.2 L243.9,338.2 L246.4,338.2 L249,338.2 L251.5,338.2 L254,338.2 L256.5,338.2 L259,338.2 L261.6,338.2 L264.1,338.2 L266.6,338.2 L269.1,338.2 L271.6,338.2 L274.1,338.2 L276.7,338.2 L279.2,338.2 L281.7,338.2 L284.2,338.2 L286.7,338.2 L289.2,338.2 L291.8,338.2 L294.3,338.2 L296.8,338.2 L299.3,338.2 L301.8,338.2 L304.4,338.2 L306.9,338.2 L309.4,338.2 L311.9,338.2 L314.4,338.2 L316.9,338.2 L319.5,338.2 L322,338.2 L324.5,338.2 L327,338.2 L329.5,338.2 L332.1,338.2 L334.6,338.2 L337.1,338.2 L339.6,338.2 L342.1,338.2 L344.6,338.2 L347.2,338.2 L349.7,338.2 L352.2,338.2 L354.7,338.2 L357.2,338.2 L359.7,338.2 L362.3,338.2 L364.8,338.2 L367.3,338.2 L369.8,338.2 L372.3,338.2 L374.9,338.2 L377.4,338.2 L379.9,338.1 L382.4,338 L384.9,337.9 L387.4,337.6 L390,337.1 L392.5,336.3 L395,335.2 L397.5,333.5 L400,331.3 L402.5,328.3 L405.1,324.7 L407.6,320.2 L410.1,315 L412.6,309.1 L415.1,302.6 L417.7,295.6 L420.2,288.4 L422.7,281 L425.2,273.7 L427.7,266.6 L430.2,259.9 L432.8,253.8 L435.3,248.3 L437.8,243.6 L440.3,239.7 L442.8,236.7 L445.4,234.5 L447.9,233.1 L450.4,232.4 L452.9,232.6 L455.4,233.4 L457.9,234.8 L460.5,236.8 L463,239.2 L465.5,242 L468,245.2 L470.5,248.5 L473,252.1 L475.6,255.8 L478.1,259.6 L480.6,263.5 L483.1,267.3 L485.6,271.1 L488.2,274.8 L490.7,278.5 L493.2,282 L495.7,285.4 L498.2,288.7 L500.7,291.9 L503.3,294.9 L505.8,297.7 L508.3,300.4 L510.8,303 L513.3,305.4 L515.9,307.7 L518.4,309.8 L520.9,311.9 L523.4,313.7 L525.9,315.5 L528.4,317.1 L531,318.7 L533.5,320.1 L536,321.4 L538.5,322.7 L541,323.8 L543.5,324.9 L546.1,325.9 L548.6,326.8 L551.1,327.6 L553.6,328.4 L556.1,329.1 L558.7,329.8 L561.2,330.4 L563.7,331 L566.2,331.5 L568.7,332 L571.2,332.5 L573.8,332.9 " fill="none"/></g>
</g>
<g id="plotPoints" clip-path="url(#plot_window)"><g stroke="rgb(0,0,0)"></g>
<g stroke="rgb(0,0,0)"></g>
<g stroke="rgb(0,0,0)"></g>
<g stroke="rgb(0,0,0)"></g>
<g stroke="rgb(0,0,0)"></g>
</g>
<g id="limitPoints" stroke="rgb(119,136,153)" fill="rgb(250,235,215)"></g>
<g id="legendBackground" stroke="rgb(119,136,153)" fill="rgb(255,255,255)" stroke-width="1"><rect x="587.8" y="62" width="150.2" height="165"/><rect x="587.8" y="62" width="150.2" height="165"/></g>
<g id="legendPoints"><g stroke="rgb(0,0,139)" stroke-width="1"><line x1="602.8" y1="92" x2="617.8" y2="92"/></g>
<g stroke="rgb(139,0,0)" stroke-width="1"><line x1="602.8" y1="122" x2="617.8" y2="122"/></g>
<g stroke="rgb(0,100,0)" stroke-width="1"><line x1="602.8" y1="152" x2="617.8" y2="152"/></g>
<g stroke="rgb(255,140,0)" stroke-width="1"><line x1="602.8" y1="182" x2="617.8" y2="182"/></g>
<g stroke="rgb(127,255,0)" stroke-width="1"><line x1="602.8" y1="212" x2="617.8" y2="212"/></g>
</g>
<g id="legendText">
<text x="625.3" y="92" font-size="15" font-family="Verdana">v=10, &#x3B4;=-10</text>
<text x="625.3" y="122" font-size="15" font-family="Verdana">v=10, &#x3B4;=-5</text>
<text x="625.3" y="152" font-size="15" font-family="Verdana">v=10, &#x3B4;=0</text>
<text x="625.3" y="182" font-size="15" font-family="Verdana">v=10, &#x3B4;=5</text>
<text x="625.3" y="212" font-size="15" font-family="Verdana">v=10, &#x3B4;=10</text></g>
<g id="title">
<text x="375" y="40" text-anchor="middle" font-size="20" font-family="Verdana">Non Central T PDF</text></g>
</svg>
