<?xml version="1.0" encoding="UTF-8" standalone="no"?>
<svg width="750" height ="400" version="1.1" xmlns="http://www.w3.org/2000/svg"
 xmlns:xlink="http://www.w3.org/1999/xlink"
 xmlns:ev="http://www.w3.org/2001/xml-events">

<!-- SVG plot written using Boost.Plot program (Creator Jacob Voytko) --> 
<!-- Use, modification and distribution of Boost.Plot subject to the --> 
<!-- Boost Software License, Version 1.0.--> 
<!-- (See accompanying file LICENSE_1_0.txt --> 
<!-- or copy at http://www.boost.org/LICENSE_1_0.txt) --> 

<clipPath id="plot_window"><rect x="79.6" y="63" width="493.2" height="274.2"/></clipPath>
<g id="imageBackground" stroke="rgb(119,136,153)" fill="rgb(255,255,255)" stroke-width="2"><rect x="0" y="0" width="750" height="400"/></g>
<g id="plotBackground" stroke="rgb(119,136,153)" fill="rgb(255,255,255)" stroke-width="2"><rect x="78.6" y="62" width="495.2" height="276.2"/></g>
<g id="yMinorGrid" stroke="rgb(200,220,255)" stroke-width="0.5"></g>
<g id="yMajorGrid" stroke="rgb(200,220,255)" stroke-width="1"></g>
<g id="xMinorGrid" stroke="rgb(200,220,255)" stroke-width="0.5"></g>
<g id="xMajorGrid" stroke="rgb(200,220,255)" stroke-width="1"></g>
<g id="yAxis" stroke="rgb(0,0,0)" stroke-width="1"><line x1="78.6" y1="62" x2="78.6" y2="343.2"/><line x1="78.6" y1="62" x2="78.6" y2="338.2"/></g>
<g id="xAxis" stroke="rgb(0,0,0)" stroke-width="1"><line x1="73.6" y1="338.2" x2="573.8" y2="338.2"/><line x1="73.6" y1="338.2" x2="573.8" y2="338.2"/></g>
<g id="yMinorTicks" stroke="rgb(0,0,0)" stroke-width="1"><path d="M76.6,330.6 L78.6,330.6 M76.6,323 L78.6,323 M76.6,315.3 L78.6,315.3 M76.6,307.7 L78.6,307.7 M76.6,292.5 L78.6,292.5 M76.6,284.8 L78.6,284.8 M76.6,277.2 L78.6,277.2 M76.6,269.6 L78.6,269.6 M76.6,254.3 L78.6,254.3 M76.6,246.7 L78.6,246.7 M76.6,239.1 L78.6,239.1 M76.6,231.5 L78.6,231.5 M76.6,216.2 L78.6,216.2 M76.6,208.6 L78.6,208.6 M76.6,201 L78.6,201 M76.6,193.4 L78.6,193.4 M76.6,178.1 L78.6,178.1 M76.6,170.5 L78.6,170.5 M76.6,162.9 L78.6,162.9 M76.6,155.2 L78.6,155.2 M76.6,140 L78.6,140 M76.6,132.4 L78.6,132.4 M76.6,124.8 L78.6,124.8 M76.6,117.1 L78.6,117.1 M76.6,101.9 L78.6,101.9 M76.6,94.27 L78.6,94.27 M76.6,86.64 L78.6,86.64 M76.6,79.02 L78.6,79.02 M76.6,63.77 L78.6,63.77 M76.6,338.2 L78.6,338.2 "/></g>
<g id="xMinorTicks" stroke="rgb(0,0,0)" stroke-width="1"><path d="M107.1,338.2 L107.1,340.2 M135.5,338.2 L135.5,340.2 M164,338.2 L164,340.2 M192.5,338.2 L192.5,340.2 M249.4,338.2 L249.4,340.2 M277.9,338.2 L277.9,340.2 M306.4,338.2 L306.4,340.2 M334.8,338.2 L334.8,340.2 M391.8,338.2 L391.8,340.2 M420.2,338.2 L420.2,340.2 M448.7,338.2 L448.7,340.2 M477.2,338.2 L477.2,340.2 M534.1,338.2 L534.1,340.2 M562.6,338.2 L562.6,340.2 "/></g>
<g id="yMajorTicks" stroke="rgb(0,0,0)" stroke-width="2"><path d="M73.6,338.2 L78.6,338.2 M73.6,300.1 L78.6,300.1 M73.6,262 L78.6,262 M73.6,223.9 L78.6,223.9 M73.6,185.7 L78.6,185.7 M73.6,147.6 L78.6,147.6 M73.6,109.5 L78.6,109.5 M73.6,71.4 L78.6,71.4 M73.6,338.2 L78.6,338.2 "/></g>
<g id="xMajorTicks" stroke="rgb(0,0,0)" stroke-width="2"><path d="M78.6,338.2 L78.6,343.2 M221,338.2 L221,343.2 M363.3,338.2 L363.3,343.2 M505.7,338.2 L505.7,343.2 M78.6,338.2 L78.6,343.2 "/></g>
<g id="plotLabels">
<text x="78.6" y="357.6" text-anchor="middle" font-size="12" font-family="Verdana">0</text>
<text x="221" y="357.6" text-anchor="middle" font-size="12" font-family="Verdana">50</text>
<text x="363.3" y="357.6" text-anchor="middle" font-size="12" font-family="Verdana">100</text>
<text x="505.7" y="357.6" text-anchor="middle" font-size="12" font-family="Verdana">150</text>
<text x="78.6" y="357.6" text-anchor="middle" font-size="12" font-family="Verdana">0</text>
<text x="67.6" y="340.6" text-anchor="end" font-size="12" font-family="Verdana">0</text>
<text x="67.6" y="302.5" text-anchor="end" font-size="12" font-family="Verdana">0.01</text>
<text x="67.6" y="264.4" text-anchor="end" font-size="12" font-family="Verdana">0.02</text>
<text x="67.6" y="226.3" text-anchor="end" font-size="12" font-family="Verdana">0.03</text>
<text x="67.6" y="188.1" text-anchor="end" font-size="12" font-family="Verdana">0.04</text>
<text x="67.6" y="150" text-anchor="end" font-size="12" font-family="Verdana">0.05</text>
<text x="67.6" y="111.9" text-anchor="end" font-size="12" font-family="Verdana">0.06</text>
<text x="67.6" y="73.8" text-anchor="end" font-size="12" font-family="Verdana">0.07</text>
<text x="67.6" y="340.6" text-anchor="end" font-size="12" font-family="Verdana">0</text></g>
<g id="yLabel">
<text x="30.2" y="200.1" text-anchor="middle" transform = "rotate(-90 30.2 200.1 )" font-size="14" font-family="Verdana">Probability</text></g>
<g id="xLabel">
<text x="326.2" y="384" text-anchor="middle" font-size="14" font-family="Verdana">Random Variable</text></g>
<g id="plotLines" stroke-width="2"><g clip-path="url(#plot_window)" stroke="rgb(0,0,139)" stroke-width="1"><path d="M78.6,338.2 L81.08,338.2 L83.55,338.2 L86.03,338.2 L88.5,338.1 L90.98,337.6 L93.45,336 L95.93,332.6 L98.41,326.1 L100.9,315.6 L103.4,300.5 L105.8,280.6 L108.3,256.6 L110.8,229.7 L113.3,201.3 L115.7,173.3 L118.2,147.3 L120.7,125 L123.2,107.3 L125.6,95.04 L128.1,88.42 L130.6,87.35 L133.1,91.36 L135.5,99.79 L138,111.8 L140.5,126.6 L143,143.2 L145.4,160.9 L147.9,179 L150.4,196.8 L152.9,214 L155.3,230.2 L157.8,245.2 L160.3,258.8 L162.8,270.9 L165.3,281.7 L167.7,291 L170.2,299.1 L172.7,306 L175.2,311.9 L177.6,316.8 L180.1,320.9 L182.6,324.3 L185.1,327.1 L187.5,329.3 L190,331.2 L192.5,332.7 L195,333.8 L197.4,334.8 L199.9,335.5 L202.4,336.1 L204.9,336.6 L207.3,337 L209.8,337.3 L212.3,337.5 L214.8,337.6 L217.2,337.8 L219.7,337.9 L222.2,338 L224.7,338 L227.1,338.1 L229.6,338.1 L232.1,338.1 L234.6,338.1 L237.1,338.2 L239.5,338.2 L242,338.2 L244.5,338.2 L247,338.2 L249.4,338.2 L251.9,338.2 L254.4,338.2 L256.9,338.2 L259.3,338.2 L261.8,338.2 L264.3,338.2 L266.8,338.2 L269.2,338.2 L271.7,338.2 L274.2,338.2 L276.7,338.2 L279.1,338.2 L281.6,338.2 L284.1,338.2 L286.6,338.2 L289,338.2 L291.5,338.2 L294,338.2 L296.5,338.2 L298.9,338.2 L301.4,338.2 L303.9,338.2 L306.4,338.2 L308.8,338.2 L311.3,338.2 L313.8,338.2 L316.3,338.2 L318.8,338.2 L321.2,338.2 L323.7,338.2 L326.2,338.2 L328.7,338.2 L331.1,338.2 L333.6,338.2 L336.1,338.2 L338.6,338.2 L341,338.2 L343.5,338.2 L346,338.2 L348.5,338.2 L350.9,338.2 L353.4,338.2 L355.9,338.2 L358.4,338.2 L360.8,338.2 L363.3,338.2 L365.8,338.2 L368.3,338.2 L370.7,338.2 L373.2,338.2 L375.7,338.2 L378.2,338.2 L380.6,338.2 L383.1,338.2 L385.6,338.2 L388.1,338.2 L390.6,338.2 L393,338.2 L395.5,338.2 L398,338.2 L400.5,338.2 L402.9,338.2 L405.4,338.2 L407.9,338.2 L410.4,338.2 L412.8,338.2 L415.3,338.2 L417.8,338.2 L420.3,338.2 L422.7,338.2 L425.2,338.2 L427.7,338.2 L430.2,338.2 L432.6,338.2 L435.1,338.2 L437.6,338.2 L440.1,338.2 L442.5,338.2 L445,338.2 L447.5,338.2 L450,338.2 L452.4,338.2 L454.9,338.2 L457.4,338.2 L459.9,338.2 L462.3,338.2 L464.8,338.2 L467.3,338.2 L469.8,338.2 L472.3,338.2 L474.7,338.2 L477.2,338.2 L479.7,338.2 L482.2,338.2 L484.6,338.2 L487.1,338.2 L489.6,338.2 L492.1,338.2 L494.5,338.2 L497,338.2 L499.5,338.2 L502,338.2 L504.4,338.2 L506.9,338.2 L509.4,338.2 L511.9,338.2 L514.3,338.2 L516.8,338.2 L519.3,338.2 L521.8,338.2 L524.2,338.2 L526.7,338.2 L529.2,338.2 L531.7,338.2 L534.1,338.2 L536.6,338.2 L539.1,338.2 L541.6,338.2 L544.1,338.2 L546.5,338.2 L549,338.2 L551.5,338.2 L554,338.2 L556.4,338.2 L558.9,338.2 L561.4,338.2 L563.9,338.2 L566.3,338.2 L568.8,338.2 L571.3,338.2 L573.8,338.2 " fill="none"/></g>
<g clip-path="url(#plot_window)" stroke="rgb(139,0,0)" stroke-width="1"><path d="M78.6,338.2 L81.08,338.2 L83.55,338.2 L86.03,338.2 L88.5,338.1 L90.98,337.8 L93.45,336.7 L95.93,334.2 L98.41,329.5 L100.9,321.6 L103.4,309.8 L105.8,293.9 L108.3,274.2 L110.8,251.2 L113.3,226.1 L115.7,200.2 L118.2,175.2 L120.7,152.2 L123.2,132.5 L125.6,116.9 L128.1,106.1 L130.6,100.2 L133.1,99.04 L135.5,102.3 L138,109.5 L140.5,119.9 L143,132.9 L145.4,147.6 L147.9,163.5 L150.4,179.8 L152.9,196.2 L155.3,212.1 L157.8,227.4 L160.3,241.6 L162.8,254.7 L165.3,266.6 L167.7,277.2 L170.2,286.6 L172.7,294.9 L175.2,302.1 L177.6,308.2 L180.1,313.5 L182.6,317.9 L185.1,321.6 L187.5,324.7 L190,327.3 L192.5,329.4 L195,331.2 L197.4,332.6 L199.9,333.7 L202.4,334.7 L204.9,335.4 L207.3,336 L209.8,336.5 L212.3,336.9 L214.8,337.2 L217.2,337.4 L219.7,337.6 L222.2,337.7 L224.7,337.8 L227.1,337.9 L229.6,338 L232.1,338 L234.6,338.1 L237.1,338.1 L239.5,338.1 L242,338.1 L244.5,338.2 L247,338.2 L249.4,338.2 L251.9,338.2 L254.4,338.2 L256.9,338.2 L259.3,338.2 L261.8,338.2 L264.3,338.2 L266.8,338.2 L269.2,338.2 L271.7,338.2 L274.2,338.2 L276.7,338.2 L279.1,338.2 L281.6,338.2 L284.1,338.2 L286.6,338.2 L289,338.2 L291.5,338.2 L294,338.2 L296.5,338.2 L298.9,338.2 L301.4,338.2 L303.9,338.2 L306.4,338.2 L308.8,338.2 L311.3,338.2 L313.8,338.2 L316.3,338.2 L318.8,338.2 L321.2,338.2 L323.7,338.2 L326.2,338.2 L328.7,338.2 L331.1,338.2 L333.6,338.2 L336.1,338.2 L338.6,338.2 L341,338.2 L343.5,338.2 L346,338.2 L348.5,338.2 L350.9,338.2 L353.4,338.2 L355.9,338.2 L358.4,338.2 L360.8,338.2 L363.3,338.2 L365.8,338.2 L368.3,338.2 L370.7,338.2 L373.2,338.2 L375.7,338.2 L378.2,338.2 L380.6,338.2 L383.1,338.2 L385.6,338.2 L388.1,338.2 L390.6,338.2 L393,338.2 L395.5,338.2 L398,338.2 L400.5,338.2 L402.9,338.2 L405.4,338.2 L407.9,338.2 L410.4,338.2 L412.8,338.2 L415.3,338.2 L417.8,338.2 L420.3,338.2 L422.7,338.2 L425.2,338.2 L427.7,338.2 L430.2,338.2 L432.6,338.2 L435.1,338.2 L437.6,338.2 L440.1,338.2 L442.5,338.2 L445,338.2 L447.5,338.2 L450,338.2 L452.4,338.2 L454.9,338.2 L457.4,338.2 L459.9,338.2 L462.3,338.2 L464.8,338.2 L467.3,338.2 L469.8,338.2 L472.3,338.2 L474.7,338.2 L477.2,338.2 L479.7,338.2 L482.2,338.2 L484.6,338.2 L487.1,338.2 L489.6,338.2 L492.1,338.2 L494.5,338.2 L497,338.2 L499.5,338.2 L502,338.2 L504.4,338.2 L506.9,338.2 L509.4,338.2 L511.9,338.2 L514.3,338.2 L516.8,338.2 L519.3,338.2 L521.8,338.2 L524.2,338.2 L526.7,338.2 L529.2,338.2 L531.7,338.2 L534.1,338.2 L536.6,338.2 L539.1,338.2 L541.6,338.2 L544.1,338.2 L546.5,338.2 L549,338.2 L551.5,338.2 L554,338.2 L556.4,338.2 L558.9,338.2 L561.4,338.2 L563.9,338.2 L566.3,338.2 L568.8,338.2 L571.3,338.2 L573.8,338.2 " fill="none"/></g>
<g clip-path="url(#plot_window)" stroke="rgb(0,100,0)" stroke-width="1"><path d="M78.6,338.2 L81.08,338.2 L83.55,338.2 L86.03,338.2 L88.5,338.2 L90.98,338.1 L93.45,337.9 L95.93,337.2 L98.41,335.9 L100.9,333.5 L103.4,329.4 L105.8,323.4 L108.3,315.1 L110.8,304.4 L113.3,291.2 L115.7,275.8 L118.2,258.8 L120.7,240.7 L123.2,222.1 L125.6,204 L128.1,186.9 L130.6,171.5 L133.1,158.4 L135.5,147.9 L138,140.4 L140.5,135.8 L143,134.3 L145.4,135.5 L147.9,139.3 L150.4,145.4 L152.9,153.3 L155.3,162.8 L157.8,173.4 L160.3,184.8 L162.8,196.7 L165.3,208.7 L167.7,220.6 L170.2,232.2 L172.7,243.3 L175.2,253.9 L177.6,263.7 L180.1,272.8 L182.6,281.1 L185.1,288.6 L187.5,295.3 L190,301.4 L192.5,306.7 L195,311.4 L197.4,315.5 L199.9,319 L202.4,322.1 L204.9,324.7 L207.3,326.9 L209.8,328.8 L212.3,330.4 L214.8,331.8 L217.2,332.9 L219.7,333.9 L222.2,334.7 L224.7,335.3 L227.1,335.9 L229.6,336.3 L232.1,336.7 L234.6,337 L237.1,337.2 L239.5,337.4 L242,337.6 L244.5,337.7 L247,337.8 L249.4,337.9 L251.9,337.9 L254.4,338 L256.9,338 L259.3,338.1 L261.8,338.1 L264.3,338.1 L266.8,338.1 L269.2,338.2 L271.7,338.2 L274.2,338.2 L276.7,338.2 L279.1,338.2 L281.6,338.2 L284.1,338.2 L286.6,338.2 L289,338.2 L291.5,338.2 L294,338.2 L296.5,338.2 L298.9,338.2 L301.4,338.2 L303.9,338.2 L306.4,338.2 L308.8,338.2 L311.3,338.2 L313.8,338.2 L316.3,338.2 L318.8,338.2 L321.2,338.2 L323.7,338.2 L326.2,338.2 L328.7,338.2 L331.1,338.2 L333.6,338.2 L336.1,338.2 L338.6,338.2 L341,338.2 L343.5,338.2 L346,338.2 L348.5,338.2 L350.9,338.2 L353.4,338.2 L355.9,338.2 L358.4,338.2 L360.8,338.2 L363.3,338.2 L365.8,338.2 L368.3,338.2 L370.7,338.2 L373.2,338.2 L375.7,338.2 L378.2,338.2 L380.6,338.2 L383.1,338.2 L385.6,338.2 L388.1,338.2 L390.6,338.2 L393,338.2 L395.5,338.2 L398,338.2 L400.5,338.2 L402.9,338.2 L405.4,338.2 L407.9,338.2 L410.4,338.2 L412.8,338.2 L415.3,338.2 L417.8,338.2 L420.3,338.2 L422.7,338.2 L425.2,338.2 L427.7,338.2 L430.2,338.2 L432.6,338.2 L435.1,338.2 L437.6,338.2 L440.1,338.2 L442.5,338.2 L445,338.2 L447.5,338.2 L450,338.2 L452.4,338.2 L454.9,338.2 L457.4,338.2 L459.9,338.2 L462.3,338.2 L464.8,338.2 L467.3,338.2 L469.8,338.2 L472.3,338.2 L474.7,338.2 L477.2,338.2 L479.7,338.2 L482.2,338.2 L484.6,338.2 L487.1,338.2 L489.6,338.2 L492.1,338.2 L494.5,338.2 L497,338.2 L499.5,338.2 L502,338.2 L504.4,338.2 L506.9,338.2 L509.4,338.2 L511.9,338.2 L514.3,338.2 L516.8,338.2 L519.3,338.2 L521.8,338.2 L524.2,338.2 L526.7,338.2 L529.2,338.2 L531.7,338.2 L534.1,338.2 L536.6,338.2 L539.1,338.2 L541.6,338.2 L544.1,338.2 L546.5,338.2 L549,338.2 L551.5,338.2 L554,338.2 L556.4,338.2 L558.9,338.2 L561.4,338.2 L563.9,338.2 L566.3,338.2 L568.8,338.2 L571.3,338.2 L573.8,338.2 " fill="none"/></g>
<g clip-path="url(#plot_window)" stroke="rgb(255,140,0)" stroke-width="1"><path d="M78.6,338.2 L81.08,338.2 L83.55,338.2 L86.03,338.2 L88.5,338.2 L90.98,338.2 L93.45,338.1 L95.93,338 L98.41,337.8 L100.9,337.3 L103.4,336.3 L105.8,334.8 L108.3,332.3 L110.8,328.9 L113.3,324.2 L115.7,318 L118.2,310.5 L120.7,301.4 L123.2,291 L125.6,279.3 L128.1,266.8 L130.6,253.6 L133.1,240.2 L135.5,226.9 L138,214.1 L140.5,202.2 L143,191.5 L145.4,182.3 L147.9,174.7 L150.4,169 L152.9,165.1 L155.3,163.1 L157.8,162.9 L160.3,164.4 L162.8,167.6 L165.3,172.2 L167.7,178 L170.2,184.8 L172.7,192.4 L175.2,200.7 L177.6,209.4 L180.1,218.3 L182.6,227.3 L185.1,236.2 L187.5,245 L190,253.4 L192.5,261.6 L195,269.2 L197.4,276.5 L199.9,283.2 L202.4,289.4 L204.9,295.1 L207.3,300.3 L209.8,305 L212.3,309.2 L214.8,313 L217.2,316.4 L219.7,319.4 L222.2,322 L224.7,324.3 L227.1,326.3 L229.6,328.1 L232.1,329.6 L234.6,330.9 L237.1,332.1 L239.5,333 L242,333.9 L244.5,334.6 L247,335.2 L249.4,335.7 L251.9,336.1 L254.4,336.5 L256.9,336.8 L259.3,337 L261.8,337.2 L264.3,337.4 L266.8,337.5 L269.2,337.7 L271.7,337.8 L274.2,337.8 L276.7,337.9 L279.1,338 L281.6,338 L284.1,338 L286.6,338.1 L289,338.1 L291.5,338.1 L294,338.1 L296.5,338.1 L298.9,338.2 L301.4,338.2 L303.9,338.2 L306.4,338.2 L308.8,338.2 L311.3,338.2 L313.8,338.2 L316.3,338.2 L318.8,338.2 L321.2,338.2 L323.7,338.2 L326.2,338.2 L328.7,338.2 L331.1,338.2 L333.6,338.2 L336.1,338.2 L338.6,338.2 L341,338.2 L343.5,338.2 L346,338.2 L348.5,338.2 L350.9,338.2 L353.4,338.2 L355.9,338.2 L358.4,338.2 L360.8,338.2 L363.3,338.2 L365.8,338.2 L368.3,338.2 L370.7,338.2 L373.2,338.2 L375.7,338.2 L378.2,338.2 L380.6,338.2 L383.1,338.2 L385.6,338.2 L388.1,338.2 L390.6,338.2 L393,338.2 L395.5,338.2 L398,338.2 L400.5,338.2 L402.9,338.2 L405.4,338.2 L407.9,338.2 L410.4,338.2 L412.8,338.2 L415.3,338.2 L417.8,338.2 L420.3,338.2 L422.7,338.2 L425.2,338.2 L427.7,338.2 L430.2,338.2 L432.6,338.2 L435.1,338.2 L437.6,338.2 L440.1,338.2 L442.5,338.2 L445,338.2 L447.5,338.2 L450,338.2 L452.4,338.2 L454.9,338.2 L457.4,338.2 L459.9,338.2 L462.3,338.2 L464.8,338.2 L467.3,338.2 L469.8,338.2 L472.3,338.2 L474.7,338.2 L477.2,338.2 L479.7,338.2 L482.2,338.2 L484.6,338.2 L487.1,338.2 L489.6,338.2 L492.1,338.2 L494.5,338.2 L497,338.2 L499.5,338.2 L502,338.2 L504.4,338.2 L506.9,338.2 L509.4,338.2 L511.9,338.2 L514.3,338.2 L516.8,338.2 L519.3,338.2 L521.8,338.2 L524.2,338.2 L526.7,338.2 L529.2,338.2 L531.7,338.2 L534.1,338.2 L536.6,338.2 L539.1,338.2 L541.6,338.2 L544.1,338.2 L546.5,338.2 L549,338.2 L551.5,338.2 L554,338.2 L556.4,338.2 L558.9,338.2 L561.4,338.2 L563.9,338.2 L566.3,338.2 L568.8,338.2 L571.3,338.2 L573.8,338.2 " fill="none"/></g>
<g clip-path="url(#plot_window)" stroke="rgb(127,255,0)" stroke-width="1"><path d="M78.6,338.2 L81.08,338.2 L83.55,338.2 L86.03,338.2 L88.5,338.2 L90.98,338.2 L93.45,338.2 L95.93,338.2 L98.41,338.2 L100.9,338.2 L103.4,338.1 L105.8,338 L108.3,337.9 L110.8,337.6 L113.3,337.3 L115.7,336.7 L118.2,335.8 L120.7,334.6 L123.2,332.9 L125.6,330.8 L128.1,328.1 L130.6,324.7 L133.1,320.7 L135.5,316 L138,310.5 L140.5,304.4 L143,297.7 L145.4,290.3 L147.9,282.5 L150.4,274.3 L152.9,265.9 L155.3,257.5 L157.8,249 L160.3,240.8 L162.8,233 L165.3,225.7 L167.7,219 L170.2,213 L172.7,207.8 L175.2,203.6 L177.6,200.3 L180.1,197.9 L182.6,196.6 L185.1,196.2 L187.5,196.8 L190,198.2 L192.5,200.5 L195,203.5 L197.4,207.2 L199.9,211.5 L202.4,216.3 L204.9,221.5 L207.3,227 L209.8,232.8 L212.3,238.7 L214.8,244.7 L217.2,250.7 L219.7,256.7 L222.2,262.5 L224.7,268.2 L227.1,273.8 L229.6,279.1 L232.1,284.2 L234.6,289 L237.1,293.5 L239.5,297.7 L242,301.7 L244.5,305.4 L247,308.8 L249.4,311.9 L251.9,314.8 L254.4,317.4 L256.9,319.7 L259.3,321.9 L261.8,323.8 L264.3,325.5 L266.8,327.1 L269.2,328.5 L271.7,329.7 L274.2,330.8 L276.7,331.8 L279.1,332.6 L281.6,333.4 L284.1,334 L286.6,334.6 L289,335.1 L291.5,335.6 L294,335.9 L296.5,336.3 L298.9,336.6 L301.4,336.8 L303.9,337 L306.4,337.2 L308.8,337.3 L311.3,337.5 L313.8,337.6 L316.3,337.7 L318.8,337.8 L321.2,337.8 L323.7,337.9 L326.2,337.9 L328.7,338 L331.1,338 L333.6,338.1 L336.1,338.1 L338.6,338.1 L341,338.1 L343.5,338.1 L346,338.1 L348.5,338.2 L350.9,338.2 L353.4,338.2 L355.9,338.2 L358.4,338.2 L360.8,338.2 L363.3,338.2 L365.8,338.2 L368.3,338.2 L370.7,338.2 L373.2,338.2 L375.7,338.2 L378.2,338.2 L380.6,338.2 L383.1,338.2 L385.6,338.2 L388.1,338.2 L390.6,338.2 L393,338.2 L395.5,338.2 L398,338.2 L400.5,338.2 L402.9,338.2 L405.4,338.2 L407.9,338.2 L410.4,338.2 L412.8,338.2 L415.3,338.2 L417.8,338.2 L420.3,338.2 L422.7,338.2 L425.2,338.2 L427.7,338.2 L430.2,338.2 L432.6,338.2 L435.1,338.2 L437.6,338.2 L440.1,338.2 L442.5,338.2 L445,338.2 L447.5,338.2 L450,338.2 L452.4,338.2 L454.9,338.2 L457.4,338.2 L459.9,338.2 L462.3,338.2 L464.8,338.2 L467.3,338.2 L469.8,338.2 L472.3,338.2 L474.7,338.2 L477.2,338.2 L479.7,338.2 L482.2,338.2 L484.6,338.2 L487.1,338.2 L489.6,338.2 L492.1,338.2 L494.5,338.2 L497,338.2 L499.5,338.2 L502,338.2 L504.4,338.2 L506.9,338.2 L509.4,338.2 L511.9,338.2 L514.3,338.2 L516.8,338.2 L519.3,338.2 L521.8,338.2 L524.2,338.2 L526.7,338.2 L529.2,338.2 L531.7,338.2 L534.1,338.2 L536.6,338.2 L539.1,338.2 L541.6,338.2 L544.1,338.2 L546.5,338.2 L549,338.2 L551.5,338.2 L554,338.2 L556.4,338.2 L558.9,338.2 L561.4,338.2 L563.9,338.2 L566.3,338.2 L568.8,338.2 L571.3,338.2 L573.8,338.2 " fill="none"/></g>
<g clip-path="url(#plot_window)" stroke="rgb(0,0,139)" stroke-width="1"><path d="M78.6,338.2 L81.08,338.2 L83.55,338.2 L86.03,338.2 L88.5,338.2 L90.98,338.2 L93.45,338.2 L95.93,338.2 L98.41,338.2 L100.9,338.2 L103.4,338.2 L105.8,338.2 L108.3,338.2 L110.8,338.2 L113.3,338.2 L115.7,338.2 L118.2,338.2 L120.7,338.2 L123.2,338.2 L125.6,338.2 L128.1,338.2 L130.6,338.2 L133.1,338.2 L135.5,338.2 L138,338.2 L140.5,338.2 L143,338.2 L145.4,338.2 L147.9,338.2 L150.4,338.2 L152.9,338.2 L155.3,338.2 L157.8,338.2 L160.3,338.2 L162.8,338.2 L165.3,338.2 L167.7,338.2 L170.2,338.2 L172.7,338.2 L175.2,338.2 L177.6,338.2 L180.1,338.2 L182.6,338.2 L185.1,338.2 L187.5,338.2 L190,338.2 L192.5,338.2 L195,338.2 L197.4,338.2 L199.9,338.2 L202.4,338.2 L204.9,338.2 L207.3,338.2 L209.8,338.2 L212.3,338.2 L214.8,338.2 L217.2,338.2 L219.7,338.2 L222.2,338.2 L224.7,338.2 L227.1,338.1 L229.6,338.1 L232.1,338.1 L234.6,338.1 L237.1,338.1 L239.5,338 L242,338 L244.5,337.9 L247,337.9 L249.4,337.8 L251.9,337.7 L254.4,337.6 L256.9,337.5 L259.3,337.4 L261.8,337.2 L264.3,337 L266.8,336.8 L269.2,336.6 L271.7,336.3 L274.2,336 L276.7,335.7 L279.1,335.3 L281.6,334.9 L284.1,334.4 L286.6,333.9 L289,333.3 L291.5,332.7 L294,332 L296.5,331.2 L298.9,330.4 L301.4,329.5 L303.9,328.5 L306.4,327.5 L308.8,326.4 L311.3,325.2 L313.8,323.9 L316.3,322.6 L318.8,321.2 L321.2,319.7 L323.7,318.2 L326.2,316.6 L328.7,314.9 L331.1,313.1 L333.6,311.3 L336.1,309.5 L338.6,307.6 L341,305.6 L343.5,303.7 L346,301.7 L348.5,299.6 L350.9,297.6 L353.4,295.6 L355.9,293.5 L358.4,291.5 L360.8,289.5 L363.3,287.5 L365.8,285.6 L368.3,283.7 L370.7,281.8 L373.2,280 L375.7,278.3 L378.2,276.7 L380.6,275.2 L383.1,273.7 L385.6,272.4 L388.1,271.1 L390.6,270 L393,268.9 L395.5,268 L398,267.3 L400.5,266.6 L402.9,266.1 L405.4,265.7 L407.9,265.4 L410.4,265.3 L412.8,265.2 L415.3,265.3 L417.8,265.6 L420.3,265.9 L422.7,266.4 L425.2,267 L427.7,267.7 L430.2,268.5 L432.6,269.4 L435.1,270.4 L437.6,271.5 L440.1,272.7 L442.5,273.9 L445,275.3 L447.5,276.7 L450,278.1 L452.4,279.6 L454.9,281.2 L457.4,282.7 L459.9,284.4 L462.3,286 L464.8,287.7 L467.3,289.4 L469.8,291 L472.3,292.7 L474.7,294.4 L477.2,296.1 L479.7,297.8 L482.2,299.4 L484.6,301.1 L487.1,302.7 L489.6,304.3 L492.1,305.8 L494.5,307.3 L497,308.8 L499.5,310.3 L502,311.7 L504.4,313.1 L506.9,314.4 L509.4,315.7 L511.9,316.9 L514.3,318.1 L516.8,319.3 L519.3,320.4 L521.8,321.4 L524.2,322.4 L526.7,323.4 L529.2,324.3 L531.7,325.2 L534.1,326 L536.6,326.8 L539.1,327.6 L541.6,328.3 L544.1,329 L546.5,329.6 L549,330.2 L551.5,330.8 L554,331.3 L556.4,331.8 L558.9,332.3 L561.4,332.7 L563.9,333.2 L566.3,333.5 L568.8,333.9 L571.3,334.2 L573.8,334.6 " fill="none"/></g>
</g>
<g id="plotPoints" clip-path="url(#plot_window)"><g stroke="rgb(0,0,0)"></g>
<g stroke="rgb(0,0,0)"></g>
<g stroke="rgb(0,0,0)"></g>
<g stroke="rgb(0,0,0)"></g>
<g stroke="rgb(0,0,0)"></g>
<g stroke="rgb(0,0,0)"></g>
</g>
<g id="limitPoints" stroke="rgb(119,136,153)" fill="rgb(250,235,215)"></g>
<g id="legendBackground" stroke="rgb(119,136,153)" fill="rgb(255,255,255)" stroke-width="1"><rect x="587.8" y="62" width="150.2" height="195"/><rect x="587.8" y="62" width="150.2" height="195"/></g>
<g id="legendPoints"><g stroke="rgb(0,0,139)" stroke-width="1"><line x1="602.8" y1="92" x2="617.8" y2="92"/></g>
<g stroke="rgb(139,0,0)" stroke-width="1"><line x1="602.8" y1="122" x2="617.8" y2="122"/></g>
<g stroke="rgb(0,100,0)" stroke-width="1"><line x1="602.8" y1="152" x2="617.8" y2="152"/></g>
<g stroke="rgb(255,140,0)" stroke-width="1"><line x1="602.8" y1="182" x2="617.8" y2="182"/></g>
<g stroke="rgb(127,255,0)" stroke-width="1"><line x1="602.8" y1="212" x2="617.8" y2="212"/></g>
<g stroke="rgb(0,0,139)" stroke-width="1"><line x1="602.8" y1="242" x2="617.8" y2="242"/></g>
</g>
<g id="legendText">
<text x="625.3" y="92" font-size="15" font-family="Verdana">v=20, &#x3BB;=0</text>
<text x="625.3" y="122" font-size="15" font-family="Verdana">v=20, &#x3BB;=1</text>
<text x="625.3" y="152" font-size="15" font-family="Verdana">v=20, &#x3BB;=5</text>
<text x="625.3" y="182" font-size="15" font-family="Verdana">v=20, &#x3BB;=10</text>
<text x="625.3" y="212" font-size="15" font-family="Verdana">v=20, &#x3BB;=20</text>
<text x="625.3" y="242" font-size="15" font-family="Verdana">v=20, &#x3BB;=100</text></g>
<g id="title">
<text x="375" y="40" text-anchor="middle" font-size="20" font-family="Verdana">Non Central Chi Squared PDF</text></g>
</svg>
