<?xml version="1.0" encoding="UTF-8" standalone="no"?>
<svg width="750" height ="400" version="1.1" xmlns="http://www.w3.org/2000/svg"
 xmlns:xlink="http://www.w3.org/1999/xlink"
 xmlns:ev="http://www.w3.org/2001/xml-events">

<!-- SVG plot written using Boost.Plot program (Creator Jacob Voytko) --> 
<!-- Use, modification and distribution of Boost.Plot subject to the --> 
<!-- Boost Software License, Version 1.0.--> 
<!-- (See accompanying file LICENSE_1_0.txt --> 
<!-- or copy at http://www.boost.org/LICENSE_1_0.txt) --> 

<clipPath id="plot_window"><rect x="79.6" y="63" width="493.2" height="274.2"/></clipPath>
<g id="imageBackground" stroke="rgb(119,136,153)" fill="rgb(255,255,255)" stroke-width="2"><rect x="0" y="0" width="750" height="400"/></g>
<g id="plotBackground" stroke="rgb(119,136,153)" fill="rgb(255,255,255)" stroke-width="2"><rect x="78.6" y="62" width="495.2" height="276.2"/></g>
<g id="yMinorGrid" stroke="rgb(200,220,255)" stroke-width="0.5"></g>
<g id="yMajorGrid" stroke="rgb(200,220,255)" stroke-width="1"></g>
<g id="xMinorGrid" stroke="rgb(200,220,255)" stroke-width="0.5"></g>
<g id="xMajorGrid" stroke="rgb(200,220,255)" stroke-width="1"></g>
<g id="yAxis" stroke="rgb(0,0,0)" stroke-width="1"><line x1="81.03" y1="62" x2="81.03" y2="343.2"/><line x1="78.6" y1="62" x2="78.6" y2="338.2"/></g>
<g id="xAxis" stroke="rgb(0,0,0)" stroke-width="1"><line x1="73.6" y1="338.2" x2="573.8" y2="338.2"/><line x1="73.6" y1="338.2" x2="573.8" y2="338.2"/></g>
<g id="yMinorTicks" stroke="rgb(0,0,0)" stroke-width="1"><path d="M76.6,319.9 L78.6,319.9 M76.6,301.6 L78.6,301.6 M76.6,283.3 L78.6,283.3 M76.6,265 L78.6,265 M76.6,228.3 L78.6,228.3 M76.6,210 L78.6,210 M76.6,191.7 L78.6,191.7 M76.6,173.4 L78.6,173.4 M76.6,136.8 L78.6,136.8 M76.6,118.5 L78.6,118.5 M76.6,100.1 L78.6,100.1 M76.6,81.83 L78.6,81.83 M76.6,338.2 L78.6,338.2 "/></g>
<g id="xMinorTicks" stroke="rgb(0,0,0)" stroke-width="1"></g>
<g id="yMajorTicks" stroke="rgb(0,0,0)" stroke-width="2"><path d="M73.6,338.2 L78.6,338.2 M73.6,246.6 L78.6,246.6 M73.6,155.1 L78.6,155.1 M73.6,63.51 L78.6,63.51 M73.6,338.2 L78.6,338.2 "/></g>
<g id="xMajorTicks" stroke="rgb(0,0,0)" stroke-width="2"><path d="M81.03,338.2 L81.03,343.2 M324.5,338.2 L324.5,343.2 M567.9,338.2 L567.9,343.2 M81.03,338.2 L81.03,343.2 "/></g>
<g id="plotLabels">
<text x="81.03" y="357.6" text-anchor="middle" font-size="12" font-family="Verdana">0</text>
<text x="324.5" y="357.6" text-anchor="middle" font-size="12" font-family="Verdana">50</text>
<text x="567.9" y="357.6" text-anchor="middle" font-size="12" font-family="Verdana">100</text>
<text x="81.03" y="357.6" text-anchor="middle" font-size="12" font-family="Verdana">0</text>
<text x="67.6" y="340.6" text-anchor="end" font-size="12" font-family="Verdana">0</text>
<text x="67.6" y="249" text-anchor="end" font-size="12" font-family="Verdana">0.05</text>
<text x="67.6" y="157.5" text-anchor="end" font-size="12" font-family="Verdana">0.1</text>
<text x="67.6" y="65.91" text-anchor="end" font-size="12" font-family="Verdana">0.15</text>
<text x="67.6" y="340.6" text-anchor="end" font-size="12" font-family="Verdana">0</text></g>
<g id="yLabel">
<text x="30.2" y="200.1" text-anchor="middle" transform = "rotate(-90 30.2 200.1 )" font-size="14" font-family="Verdana">Probability</text></g>
<g id="xLabel">
<text x="326.2" y="384" text-anchor="middle" font-size="14" font-family="Verdana">Random Variable</text></g>
<g id="plotLines" stroke-width="2"><g clip-path="url(#plot_window)" stroke="rgb(0,0,139)" stroke-width="1"><path d="M79.21,338.2 L79.21,338.2 L79.21,338.2 L80.43,338.2 L80.43,338.2 L84.08,338.2 L84.08,338.2 L85.29,338.2 L85.29,338.2 L88.95,338.2 L88.95,338.2 L90.16,338.2 L90.16,338.2 L93.82,338.2 L93.82,338.2 L95.03,338.2 L95.03,338.2 L98.68,338.2 L98.68,338.2 L99.9,338.2 L99.9,338.2 L103.6,338.2 L103.6,338.2 L104.8,338.2 L104.8,338.2 L108.4,338.2 L108.4,338.2 L109.6,338.2 L109.6,338.2 L113.3,338.2 L113.3,338.2 L114.5,338.2 L114.5,338.2 L118.2,338.2 L118.2,338.2 L119.4,338.2 L119.4,338.2 L123,338.2 L123,338.2 L124.2,338.2 L124.2,338.2 L127.9,338.2 L127.9,338.2 L129.1,338.2 L129.1,338.2 L132.8,338.2 L132.8,338.2 L134,338.2 L134,338.2 L137.6,338.2 L137.6,338.2 L138.9,338.2 L138.9,338.2 L142.5,338.2 L142.5,338.2 L143.7,338.2 L143.7,338.2 L147.4,338.2 L147.4,338.2 L148.6,338.2 L148.6,338.2 L152.2,338.2 L152.2,338.2 L153.5,338.2 L153.5,338.2 L157.1,338.2 L157.1,338.1 L158.3,338.1 L158.3,338.2 L162,338.2 L162,338.1 L163.2,338.1 L163.2,338.2 L166.8,338.2 L166.8,338 L168.1,338 L168.1,338.2 L171.7,338.2 L171.7,338 L172.9,338 L172.9,338.2 L176.6,338.2 L176.6,337.8 L177.8,337.8 L177.8,338.2 L181.5,338.2 L181.5,337.7 L182.7,337.7 L182.7,338.2 L186.3,338.2 L186.3,337.5 L187.5,337.5 L187.5,338.2 L191.2,338.2 L191.2,337.2 L192.4,337.2 L192.4,338.2 L196.1,338.2 L196.1,336.9 L197.3,336.9 L197.3,338.2 L200.9,338.2 L200.9,336.4 L202.1,336.4 L202.1,338.2 L205.8,338.2 L205.8,335.9 L207,335.9 L207,338.2 L210.7,338.2 L210.7,335.3 L211.9,335.3 L211.9,338.2 L215.5,338.2 L215.5,334.5 L216.8,334.5 L216.8,338.2 L220.4,338.2 L220.4,333.6 L221.6,333.6 L221.6,338.2 L225.3,338.2 L225.3,332.6 L226.5,332.6 L226.5,338.2 L230.1,338.2 L230.1,331.4 L231.4,331.4 L231.4,338.2 L235,338.2 L235,330.1 L236.2,330.1 L236.2,338.2 L239.9,338.2 L239.9,328.6 L241.1,328.6 L241.1,338.2 L244.8,338.2 L244.8,327 L246,327 L246,338.2 L249.6,338.2 L249.6,325.2 L250.8,325.2 L250.8,338.2 L254.5,338.2 L254.5,323.3 L255.7,323.3 L255.7,338.2 L259.4,338.2 L259.4,321.3 L260.6,321.3 L260.6,338.2 L264.2,338.2 L264.2,319.2 L265.4,319.2 L265.4,338.2 L269.1,338.2 L269.1,317 L270.3,317 L270.3,338.2 L274,338.2 L274,314.8 L275.2,314.8 L275.2,338.2 L278.8,338.2 L278.8,312.5 L280.1,312.5 L280.1,338.2 L283.7,338.2 L283.7,310.2 L284.9,310.2 L284.9,338.2 L288.6,338.2 L288.6,307.9 L289.8,307.9 L289.8,338.2 L293.4,338.2 L293.4,305.7 L294.7,305.7 L294.7,338.2 L298.3,338.2 L298.3,303.5 L299.5,303.5 L299.5,338.2 L303.2,338.2 L303.2,301.5 L304.4,301.5 L304.4,338.2 L308,338.2 L308,299.5 L309.3,299.5 L309.3,338.2 L312.9,338.2 L312.9,297.7 L314.1,297.7 L314.1,338.2 L317.8,338.2 L317.8,296 L319,296 L319,338.2 L322.7,338.2 L322.7,294.6 L323.9,294.6 L323.9,338.2 L327.5,338.2 L327.5,293.3 L328.7,293.3 L328.7,338.2 L332.4,338.2 L332.4,292.2 L333.6,292.2 L333.6,338.2 L337.3,338.2 L337.3,291.3 L338.5,291.3 L338.5,338.2 L342.1,338.2 L342.1,290.7 L343.3,290.7 L343.3,338.2 L347,338.2 L347,290.3 L348.2,290.3 L348.2,338.2 L351.9,338.2 L351.9,290 L353.1,290 L353.1,338.2 L356.7,338.2 L356.7,290 L358,290 L358,338.2 L361.6,338.2 L361.6,290.3 L362.8,290.3 L362.8,338.2 L366.5,338.2 L366.5,290.7 L367.7,290.7 L367.7,338.2 L371.3,338.2 L371.3,291.3 L372.6,291.3 L372.6,338.2 L376.2,338.2 L376.2,292 L377.4,292 L377.4,338.2 L381.1,338.2 L381.1,293 L382.3,293 L382.3,338.2 L386,338.2 L386,294 L387.2,294 L387.2,338.2 L390.8,338.2 L390.8,295.2 L392,295.2 L392,338.2 L395.7,338.2 L395.7,296.6 L396.9,296.6 L396.9,338.2 L400.6,338.2 L400.6,298 L401.8,298 L401.8,338.2 L405.4,338.2 L405.4,299.5 L406.6,299.5 L406.6,338.2 L410.3,338.2 L410.3,301 L411.5,301 L411.5,338.2 L415.2,338.2 L415.2,302.7 L416.4,302.7 L416.4,338.2 L420,338.2 L420,304.3 L421.3,304.3 L421.3,338.2 L424.9,338.2 L424.9,306 L426.1,306 L426.1,338.2 L429.8,338.2 L429.8,307.7 L431,307.7 L431,338.2 L434.6,338.2 L434.6,309.3 L435.9,309.3 L435.9,338.2 L439.5,338.2 L439.5,311 L440.7,311 L440.7,338.2 L444.4,338.2 L444.4,312.6 L445.6,312.6 L445.6,338.2 L449.2,338.2 L449.2,314.2 L450.5,314.2 L450.5,338.2 L454.1,338.2 L454.1,315.8 L455.3,315.8 L455.3,338.2 L459,338.2 L459,317.3 L460.2,317.3 L460.2,338.2 L463.9,338.2 L463.9,318.7 L465.1,318.7 L465.1,338.2 L468.7,338.2 L468.7,320.1 L469.9,320.1 L469.9,338.2 L473.6,338.2 L473.6,321.5 L474.8,321.5 L474.8,338.2 L478.5,338.2 L478.5,322.8 L479.7,322.8 L479.7,338.2 L483.3,338.2 L483.3,324 L484.5,324 L484.5,338.2 L488.2,338.2 L488.2,325.1 L489.4,325.1 L489.4,338.2 L493.1,338.2 L493.1,326.2 L494.3,326.2 L494.3,338.2 L497.9,338.2 L497.9,327.2 L499.2,327.2 L499.2,338.2 L502.8,338.2 L502.8,328.1 L504,328.1 L504,338.2 L507.7,338.2 L507.7,329 L508.9,329 L508.9,338.2 L512.5,338.2 L512.5,329.9 L513.8,329.9 L513.8,338.2 L517.4,338.2 L517.4,330.6 L518.6,330.6 L518.6,338.2 L522.3,338.2 L522.3,331.3 L523.5,331.3 L523.5,338.2 L527.2,338.2 L527.2,332 L528.4,332 L528.4,338.2 L532,338.2 L532,332.6 L533.2,332.6 L533.2,338.2 L536.9,338.2 L536.9,333.1 L538.1,333.1 L538.1,338.2 L541.8,338.2 L541.8,333.6 L543,333.6 L543,338.2 L546.6,338.2 L546.6,334.1 L547.8,334.1 L547.8,338.2 L551.5,338.2 L551.5,334.5 L552.7,334.5 L552.7,338.2 L556.4,338.2 L556.4,334.9 L557.6,334.9 L557.6,338.2 L561.2,338.2 L561.2,335.3 L562.5,335.3 L562.5,338.2 L566.1,338.2 L566.1,335.6 L567.3,335.6 L567.3,338.2 L567.3,338.2 Z" fill="rgb(0,0,139)"/></g>
<g clip-path="url(#plot_window)" stroke="rgb(139,0,0)" stroke-width="1"><path d="M80.43,338.2 L80.43,338.2 L80.43,338.2 L81.64,338.2 L81.64,338.2 L85.29,338.2 L85.29,338.2 L86.51,338.2 L86.51,338.2 L90.16,338.2 L90.16,338.1 L91.38,338.1 L91.38,338.2 L95.03,338.2 L95.03,337.9 L96.25,337.9 L96.25,338.2 L99.9,338.2 L99.9,337.2 L101.1,337.2 L101.1,338.2 L104.8,338.2 L104.8,335.9 L106,335.9 L106,338.2 L109.6,338.2 L109.6,333.4 L110.9,333.4 L110.9,338.2 L114.5,338.2 L114.5,329.2 L115.7,329.2 L115.7,338.2 L119.4,338.2 L119.4,323.1 L120.6,323.1 L120.6,338.2 L124.2,338.2 L124.2,314.6 L125.5,314.6 L125.5,338.2 L129.1,338.2 L129.1,304 L130.3,304 L130.3,338.2 L134,338.2 L134,291.6 L135.2,291.6 L135.2,338.2 L138.9,338.2 L138.9,278 L140.1,278 L140.1,338.2 L143.7,338.2 L143.7,264.1 L144.9,264.1 L144.9,338.2 L148.6,338.2 L148.6,250.9 L149.8,250.9 L149.8,338.2 L153.5,338.2 L153.5,239.3 L154.7,239.3 L154.7,338.2 L158.3,338.2 L158.3,230 L159.5,230 L159.5,338.2 L163.2,338.2 L163.2,223.6 L164.4,223.6 L164.4,338.2 L168.1,338.2 L168.1,220.5 L169.3,220.5 L169.3,338.2 L172.9,338.2 L172.9,220.5 L174.2,220.5 L174.2,338.2 L177.8,338.2 L177.8,223.4 L179,223.4 L179,338.2 L182.7,338.2 L182.7,228.9 L183.9,228.9 L183.9,338.2 L187.5,338.2 L187.5,236.3 L188.8,236.3 L188.8,338.2 L192.4,338.2 L192.4,245.2 L193.6,245.2 L193.6,338.2 L197.3,338.2 L197.3,254.9 L198.5,254.9 L198.5,338.2 L202.1,338.2 L202.1,264.9 L203.4,264.9 L203.4,338.2 L207,338.2 L207,274.7 L208.2,274.7 L208.2,338.2 L211.9,338.2 L211.9,284.1 L213.1,284.1 L213.1,338.2 L216.8,338.2 L216.8,292.8 L218,292.8 L218,338.2 L221.6,338.2 L221.6,300.7 L222.8,300.7 L222.8,338.2 L226.5,338.2 L226.5,307.5 L227.7,307.5 L227.7,338.2 L231.4,338.2 L231.4,313.5 L232.6,313.5 L232.6,338.2 L236.2,338.2 L236.2,318.5 L237.4,318.5 L237.4,338.2 L241.1,338.2 L241.1,322.7 L242.3,322.7 L242.3,338.2 L246,338.2 L246,326.1 L247.2,326.1 L247.2,338.2 L250.8,338.2 L250.8,328.9 L252.1,328.9 L252.1,338.2 L255.7,338.2 L255.7,331.1 L256.9,331.1 L256.9,338.2 L260.6,338.2 L260.6,332.8 L261.8,332.8 L261.8,338.2 L265.4,338.2 L265.4,334.2 L266.7,334.2 L266.7,338.2 L270.3,338.2 L270.3,335.2 L271.5,335.2 L271.5,338.2 L275.2,338.2 L275.2,336 L276.4,336 L276.4,338.2 L280.1,338.2 L280.1,336.6 L281.3,336.6 L281.3,338.2 L284.9,338.2 L284.9,337 L286.1,337 L286.1,338.2 L289.8,338.2 L289.8,337.3 L291,337.3 L291,338.2 L294.7,338.2 L294.7,337.6 L295.9,337.6 L295.9,338.2 L299.5,338.2 L299.5,337.8 L300.7,337.8 L300.7,338.2 L304.4,338.2 L304.4,337.9 L305.6,337.9 L305.6,338.2 L309.3,338.2 L309.3,338 L310.5,338 L310.5,338.2 L314.1,338.2 L314.1,338.1 L315.4,338.1 L315.4,338.2 L319,338.2 L319,338.1 L320.2,338.1 L320.2,338.2 L323.9,338.2 L323.9,338.1 L325.1,338.1 L325.1,338.2 L328.7,338.2 L328.7,338.2 L330,338.2 L330,338.2 L333.6,338.2 L333.6,338.2 L334.8,338.2 L334.8,338.2 L338.5,338.2 L338.5,338.2 L339.7,338.2 L339.7,338.2 L343.3,338.2 L343.3,338.2 L344.6,338.2 L344.6,338.2 L348.2,338.2 L348.2,338.2 L349.4,338.2 L349.4,338.2 L353.1,338.2 L353.1,338.2 L354.3,338.2 L354.3,338.2 L358,338.2 L358,338.2 L359.2,338.2 L359.2,338.2 L362.8,338.2 L362.8,338.2 L364,338.2 L364,338.2 L367.7,338.2 L367.7,338.2 L368.9,338.2 L368.9,338.2 L372.6,338.2 L372.6,338.2 L373.8,338.2 L373.8,338.2 L377.4,338.2 L377.4,338.2 L378.6,338.2 L378.6,338.2 L382.3,338.2 L382.3,338.2 L383.5,338.2 L383.5,338.2 L387.2,338.2 L387.2,338.2 L388.4,338.2 L388.4,338.2 L392,338.2 L392,338.2 L393.3,338.2 L393.3,338.2 L396.9,338.2 L396.9,338.2 L398.1,338.2 L398.1,338.2 L401.8,338.2 L401.8,338.2 L403,338.2 L403,338.2 L406.6,338.2 L406.6,338.2 L407.9,338.2 L407.9,338.2 L411.5,338.2 L411.5,338.2 L412.7,338.2 L412.7,338.2 L416.4,338.2 L416.4,338.2 L417.6,338.2 L417.6,338.2 L421.3,338.2 L421.3,338.2 L422.5,338.2 L422.5,338.2 L426.1,338.2 L426.1,338.2 L427.3,338.2 L427.3,338.2 L431,338.2 L431,338.2 L432.2,338.2 L432.2,338.2 L435.9,338.2 L435.9,338.2 L437.1,338.2 L437.1,338.2 L440.7,338.2 L440.7,338.2 L441.9,338.2 L441.9,338.2 L445.6,338.2 L445.6,338.2 L446.8,338.2 L446.8,338.2 L450.5,338.2 L450.5,338.2 L451.7,338.2 L451.7,338.2 L455.3,338.2 L455.3,338.2 L456.6,338.2 L456.6,338.2 L460.2,338.2 L460.2,338.2 L461.4,338.2 L461.4,338.2 L465.1,338.2 L465.1,338.2 L466.3,338.2 L466.3,338.2 L469.9,338.2 L469.9,338.2 L471.2,338.2 L471.2,338.2 L474.8,338.2 L474.8,338.2 L476,338.2 L476,338.2 L479.7,338.2 L479.7,338.2 L480.9,338.2 L480.9,338.2 L484.5,338.2 L484.5,338.2 L485.8,338.2 L485.8,338.2 L489.4,338.2 L489.4,338.2 L490.6,338.2 L490.6,338.2 L494.3,338.2 L494.3,338.2 L495.5,338.2 L495.5,338.2 L499.2,338.2 L499.2,338.2 L500.4,338.2 L500.4,338.2 L504,338.2 L504,338.2 L505.2,338.2 L505.2,338.2 L508.9,338.2 L508.9,338.2 L510.1,338.2 L510.1,338.2 L513.8,338.2 L513.8,338.2 L515,338.2 L515,338.2 L518.6,338.2 L518.6,338.2 L519.8,338.2 L519.8,338.2 L523.5,338.2 L523.5,338.2 L524.7,338.2 L524.7,338.2 L528.4,338.2 L528.4,338.2 L529.6,338.2 L529.6,338.2 L533.2,338.2 L533.2,338.2 L534.5,338.2 L534.5,338.2 L538.1,338.2 L538.1,338.2 L539.3,338.2 L539.3,338.2 L543,338.2 L543,338.2 L544.2,338.2 L544.2,338.2 L547.8,338.2 L547.8,338.2 L549.1,338.2 L549.1,338.2 L552.7,338.2 L552.7,338.2 L553.9,338.2 L553.9,338.2 L557.6,338.2 L557.6,338.2 L558.8,338.2 L558.8,338.2 L562.5,338.2 L562.5,338.2 L563.7,338.2 L563.7,338.2 L567.3,338.2 L567.3,338.2 L568.5,338.2 L568.5,338.2 L568.5,338.2 Z" fill="rgb(139,0,0)"/></g>
<g clip-path="url(#plot_window)" stroke="rgb(0,100,0)" stroke-width="1"><path d="M81.64,338.2 L81.64,338.2 L81.64,332.4 L82.86,332.4 L82.86,338.2 L86.51,338.2 L86.51,309.2 L87.73,309.2 L87.73,338.2 L91.38,338.2 L91.38,262 L92.6,262 L92.6,338.2 L96.25,338.2 L96.25,198.5 L97.47,198.5 L97.47,338.2 L101.1,338.2 L101.1,137.3 L102.3,137.3 L102.3,338.2 L106,338.2 L106,97.15 L107.2,97.15 L107.2,338.2 L110.9,338.2 L110.9,87.11 L112.1,87.11 L112.1,338.2 L115.7,338.2 L115.7,105 L116.9,105 L116.9,338.2 L120.6,338.2 L120.6,141.5 L121.8,141.5 L121.8,338.2 L125.5,338.2 L125.5,185.2 L126.7,185.2 L126.7,338.2 L130.3,338.2 L130.3,227.3 L131.5,227.3 L131.5,338.2 L135.2,338.2 L135.2,262.6 L136.4,262.6 L136.4,338.2 L140.1,338.2 L140.1,289.4 L141.3,289.4 L141.3,338.2 L144.9,338.2 L144.9,308.1 L146.2,308.1 L146.2,338.2 L149.8,338.2 L149.8,320.5 L151,320.5 L151,338.2 L154.7,338.2 L154.7,328.2 L155.9,328.2 L155.9,338.2 L159.5,338.2 L159.5,332.7 L160.8,332.7 L160.8,338.2 L164.4,338.2 L164.4,335.3 L165.6,335.3 L165.6,338.2 L169.3,338.2 L169.3,336.7 L170.5,336.7 L170.5,338.2 L174.2,338.2 L174.2,337.5 L175.4,337.5 L175.4,338.2 L179,338.2 L179,337.8 L180.2,337.8 L180.2,338.2 L183.9,338.2 L183.9,338 L185.1,338 L185.1,338.2 L188.8,338.2 L188.8,338.1 L190,338.1 L190,338.2 L193.6,338.2 L193.6,338.2 L194.8,338.2 L194.8,338.2 L198.5,338.2 L198.5,338.2 L199.7,338.2 L199.7,338.2 L203.4,338.2 L203.4,338.2 L204.6,338.2 L204.6,338.2 L208.2,338.2 L208.2,338.2 L209.5,338.2 L209.5,338.2 L213.1,338.2 L213.1,338.2 L214.3,338.2 L214.3,338.2 L218,338.2 L218,338.2 L219.2,338.2 L219.2,338.2 L222.8,338.2 L222.8,338.2 L224.1,338.2 L224.1,338.2 L227.7,338.2 L227.7,338.2 L228.9,338.2 L228.9,338.2 L232.6,338.2 L232.6,338.2 L233.8,338.2 L233.8,338.2 L237.4,338.2 L237.4,338.2 L238.7,338.2 L238.7,338.2 L242.3,338.2 L242.3,338.2 L243.5,338.2 L243.5,338.2 L247.2,338.2 L247.2,338.2 L248.4,338.2 L248.4,338.2 L252.1,338.2 L252.1,338.2 L253.3,338.2 L253.3,338.2 L256.9,338.2 L256.9,338.2 L258.1,338.2 L258.1,338.2 L261.8,338.2 L261.8,338.2 L263,338.2 L263,338.2 L266.7,338.2 L266.7,338.2 L267.9,338.2 L267.9,338.2 L271.5,338.2 L271.5,338.2 L272.7,338.2 L272.7,338.2 L276.4,338.2 L276.4,338.2 L277.6,338.2 L277.6,338.2 L281.3,338.2 L281.3,338.2 L282.5,338.2 L282.5,338.2 L286.1,338.2 L286.1,338.2 L287.4,338.2 L287.4,338.2 L291,338.2 L291,338.2 L292.2,338.2 L292.2,338.2 L295.9,338.2 L295.9,338.2 L297.1,338.2 L297.1,338.2 L300.7,338.2 L300.7,338.2 L302,338.2 L302,338.2 L305.6,338.2 L305.6,338.2 L306.8,338.2 L306.8,338.2 L310.5,338.2 L310.5,338.2 L311.7,338.2 L311.7,338.2 L315.4,338.2 L315.4,338.2 L316.6,338.2 L316.6,338.2 L320.2,338.2 L320.2,338.2 L321.4,338.2 L321.4,338.2 L325.1,338.2 L325.1,338.2 L326.3,338.2 L326.3,338.2 L330,338.2 L330,338.2 L331.2,338.2 L331.2,338.2 L334.8,338.2 L334.8,338.2 L336,338.2 L336,338.2 L339.7,338.2 L339.7,338.2 L340.9,338.2 L340.9,338.2 L344.6,338.2 L344.6,338.2 L345.8,338.2 L345.8,338.2 L349.4,338.2 L349.4,338.2 L350.7,338.2 L350.7,338.2 L354.3,338.2 L354.3,338.2 L355.5,338.2 L355.5,338.2 L359.2,338.2 L359.2,338.2 L360.4,338.2 L360.4,338.2 L364,338.2 L364,338.2 L365.3,338.2 L365.3,338.2 L368.9,338.2 L368.9,338.2 L370.1,338.2 L370.1,338.2 L373.8,338.2 L373.8,338.2 L375,338.2 L375,338.2 L378.6,338.2 L378.6,338.2 L379.9,338.2 L379.9,338.2 L383.5,338.2 L383.5,338.2 L384.7,338.2 L384.7,338.2 L388.4,338.2 L388.4,338.2 L389.6,338.2 L389.6,338.2 L393.3,338.2 L393.3,338.2 L394.5,338.2 L394.5,338.2 L398.1,338.2 L398.1,338.2 L399.3,338.2 L399.3,338.2 L403,338.2 L403,338.2 L404.2,338.2 L404.2,338.2 L407.9,338.2 L407.9,338.2 L409.1,338.2 L409.1,338.2 L412.7,338.2 L412.7,338.2 L413.9,338.2 L413.9,338.2 L417.6,338.2 L417.6,338.2 L418.8,338.2 L418.8,338.2 L422.5,338.2 L422.5,338.2 L423.7,338.2 L423.7,338.2 L427.3,338.2 L427.3,338.2 L428.6,338.2 L428.6,338.2 L432.2,338.2 L432.2,338.2 L433.4,338.2 L433.4,338.2 L437.1,338.2 L437.1,338.2 L438.3,338.2 L438.3,338.2 L441.9,338.2 L441.9,338.2 L443.2,338.2 L443.2,338.2 L446.8,338.2 L446.8,338.2 L448,338.2 L448,338.2 L451.7,338.2 L451.7,338.2 L452.9,338.2 L452.9,338.2 L456.6,338.2 L456.6,338.2 L457.8,338.2 L457.8,338.2 L461.4,338.2 L461.4,338.2 L462.6,338.2 L462.6,338.2 L466.3,338.2 L466.3,338.2 L467.5,338.2 L467.5,338.2 L471.2,338.2 L471.2,338.2 L472.4,338.2 L472.4,338.2 L476,338.2 L476,338.2 L477.2,338.2 L477.2,338.2 L480.9,338.2 L480.9,338.2 L482.1,338.2 L482.1,338.2 L485.8,338.2 L485.8,338.2 L487,338.2 L487,338.2 L490.6,338.2 L490.6,338.2 L491.9,338.2 L491.9,338.2 L495.5,338.2 L495.5,338.2 L496.7,338.2 L496.7,338.2 L500.4,338.2 L500.4,338.2 L501.6,338.2 L501.6,338.2 L505.2,338.2 L505.2,338.2 L506.5,338.2 L506.5,338.2 L510.1,338.2 L510.1,338.2 L511.3,338.2 L511.3,338.2 L515,338.2 L515,338.2 L516.2,338.2 L516.2,338.2 L519.8,338.2 L519.8,338.2 L521.1,338.2 L521.1,338.2 L524.7,338.2 L524.7,338.2 L525.9,338.2 L525.9,338.2 L529.6,338.2 L529.6,338.2 L530.8,338.2 L530.8,338.2 L534.5,338.2 L534.5,338.2 L535.7,338.2 L535.7,338.2 L539.3,338.2 L539.3,338.2 L540.5,338.2 L540.5,338.2 L544.2,338.2 L544.2,338.2 L545.4,338.2 L545.4,338.2 L549.1,338.2 L549.1,338.2 L550.3,338.2 L550.3,338.2 L553.9,338.2 L553.9,338.2 L555.1,338.2 L555.1,338.2 L558.8,338.2 L558.8,338.2 L560,338.2 L560,338.2 L563.7,338.2 L563.7,338.2 L564.9,338.2 L564.9,338.2 L568.5,338.2 L568.5,338.2 L569.8,338.2 L569.8,338.2 L569.8,338.2 Z" fill="rgb(0,100,0)"/></g>
</g>
<g id="plotPoints" clip-path="url(#plot_window)"><g stroke="rgb(0,0,0)"></g>
<g stroke="rgb(0,0,0)"></g>
<g stroke="rgb(0,0,0)"></g>
</g>
<g id="limitPoints" stroke="rgb(119,136,153)" fill="rgb(250,235,215)"></g>
<g id="legendBackground" stroke="rgb(119,136,153)" fill="rgb(255,255,255)" stroke-width="1"><rect x="587.8" y="62" width="150.2" height="105"/><rect x="587.8" y="62" width="150.2" height="105"/></g>
<g id="legendPoints"><g stroke="rgb(0,0,139)" stroke-width="1"><line x1="602.8" y1="92" x2="617.8" y2="92"/></g>
<g stroke="rgb(139,0,0)" stroke-width="1"><line x1="602.8" y1="122" x2="617.8" y2="122"/></g>
<g stroke="rgb(0,100,0)" stroke-width="1"><line x1="602.8" y1="152" x2="617.8" y2="152"/></g>
</g>
<g id="legendText">
<text x="625.3" y="92" font-size="15" font-family="Verdana">n=20 p=0.25</text>
<text x="625.3" y="122" font-size="15" font-family="Verdana">n=20 p=0.5</text>
<text x="625.3" y="152" font-size="15" font-family="Verdana">n=20 p=0.75</text></g>
<g id="title">
<text x="375" y="40" text-anchor="middle" font-size="20" font-family="Verdana">Negative Binomial Distribution PDF</text></g>
</svg>
