<?xml version="1.0" encoding="UTF-8" standalone="no"?>
<svg width="750" height ="400" version="1.1" xmlns="http://www.w3.org/2000/svg"
 xmlns:xlink="http://www.w3.org/1999/xlink"
 xmlns:ev="http://www.w3.org/2001/xml-events">

<!-- SVG plot written using Boost.Plot program (Creator Jacob Voytko) --> 
<!-- Use, modification and distribution of Boost.Plot subject to the --> 
<!-- Boost Software License, Version 1.0.--> 
<!-- (See accompanying file LICENSE_1_0.txt --> 
<!-- or copy at http://www.boost.org/LICENSE_1_0.txt) --> 

<clipPath id="plot_window"><rect x="79.6" y="63" width="501" height="274.2"/></clipPath>
<g id="imageBackground" stroke="rgb(119,136,153)" fill="rgb(255,255,255)" stroke-width="2"><rect x="0" y="0" width="750" height="400"/></g>
<g id="plotBackground" stroke="rgb(119,136,153)" fill="rgb(255,255,255)" stroke-width="2"><rect x="78.6" y="62" width="503" height="276.2"/></g>
<g id="yMinorGrid" stroke="rgb(200,220,255)" stroke-width="0.5"></g>
<g id="yMajorGrid" stroke="rgb(200,220,255)" stroke-width="1"></g>
<g id="xMinorGrid" stroke="rgb(200,220,255)" stroke-width="0.5"></g>
<g id="xMajorGrid" stroke="rgb(200,220,255)" stroke-width="1"></g>
<g id="yAxis" stroke="rgb(0,0,0)" stroke-width="1"><line x1="81.08" y1="62" x2="81.08" y2="343.2"/><line x1="78.6" y1="62" x2="78.6" y2="338.2"/></g>
<g id="xAxis" stroke="rgb(0,0,0)" stroke-width="1"><line x1="73.6" y1="338.2" x2="581.6" y2="338.2"/><line x1="73.6" y1="338.2" x2="581.6" y2="338.2"/></g>
<g id="yMinorTicks" stroke="rgb(0,0,0)" stroke-width="1"><path d="M76.6,332.8 L78.6,332.8 M76.6,327.4 L78.6,327.4 M76.6,322 L78.6,322 M76.6,316.5 L78.6,316.5 M76.6,305.7 L78.6,305.7 M76.6,300.3 L78.6,300.3 M76.6,294.9 L78.6,294.9 M76.6,289.5 L78.6,289.5 M76.6,278.6 L78.6,278.6 M76.6,273.2 L78.6,273.2 M76.6,267.8 L78.6,267.8 M76.6,262.4 L78.6,262.4 M76.6,251.6 L78.6,251.6 M76.6,246.1 L78.6,246.1 M76.6,240.7 L78.6,240.7 M76.6,235.3 L78.6,235.3 M76.6,224.5 L78.6,224.5 M76.6,219.1 L78.6,219.1 M76.6,213.6 L78.6,213.6 M76.6,208.2 L78.6,208.2 M76.6,197.4 L78.6,197.4 M76.6,192 L78.6,192 M76.6,186.6 L78.6,186.6 M76.6,181.2 L78.6,181.2 M76.6,170.3 L78.6,170.3 M76.6,164.9 L78.6,164.9 M76.6,159.5 L78.6,159.5 M76.6,154.1 L78.6,154.1 M76.6,143.3 L78.6,143.3 M76.6,137.8 L78.6,137.8 M76.6,132.4 L78.6,132.4 M76.6,127 L78.6,127 M76.6,116.2 L78.6,116.2 M76.6,110.8 L78.6,110.8 M76.6,105.3 L78.6,105.3 M76.6,99.93 L78.6,99.93 M76.6,89.1 L78.6,89.1 M76.6,83.68 L78.6,83.68 M76.6,78.27 L78.6,78.27 M76.6,72.85 L78.6,72.85 M76.6,62.02 L78.6,62.02 M76.6,338.2 L78.6,338.2 "/></g>
<g id="xMinorTicks" stroke="rgb(0,0,0)" stroke-width="1"></g>
<g id="yMajorTicks" stroke="rgb(0,0,0)" stroke-width="2"><path d="M73.6,338.2 L78.6,338.2 M73.6,311.1 L78.6,311.1 M73.6,284 L78.6,284 M73.6,257 L78.6,257 M73.6,229.9 L78.6,229.9 M73.6,202.8 L78.6,202.8 M73.6,175.7 L78.6,175.7 M73.6,148.7 L78.6,148.7 M73.6,121.6 L78.6,121.6 M73.6,94.52 L78.6,94.52 M73.6,67.44 L78.6,67.44 M73.6,338.2 L78.6,338.2 "/></g>
<g id="xMajorTicks" stroke="rgb(0,0,0)" stroke-width="2"><path d="M81.08,338.2 L81.08,343.2 M329.5,338.2 L329.5,343.2 M577.9,338.2 L577.9,343.2 M81.08,338.2 L81.08,343.2 "/></g>
<g id="plotLabels">
<text x="81.08" y="357.6" text-anchor="middle" font-size="12" font-family="Verdana">0</text>
<text x="329.5" y="357.6" text-anchor="middle" font-size="12" font-family="Verdana">50</text>
<text x="577.9" y="357.6" text-anchor="middle" font-size="12" font-family="Verdana">100</text>
<text x="81.08" y="357.6" text-anchor="middle" font-size="12" font-family="Verdana">0</text>
<text x="67.6" y="340.6" text-anchor="end" font-size="12" font-family="Verdana">0</text>
<text x="67.6" y="313.5" text-anchor="end" font-size="12" font-family="Verdana">0.01</text>
<text x="67.6" y="286.4" text-anchor="end" font-size="12" font-family="Verdana">0.02</text>
<text x="67.6" y="259.4" text-anchor="end" font-size="12" font-family="Verdana">0.03</text>
<text x="67.6" y="232.3" text-anchor="end" font-size="12" font-family="Verdana">0.04</text>
<text x="67.6" y="205.2" text-anchor="end" font-size="12" font-family="Verdana">0.05</text>
<text x="67.6" y="178.1" text-anchor="end" font-size="12" font-family="Verdana">0.06</text>
<text x="67.6" y="151.1" text-anchor="end" font-size="12" font-family="Verdana">0.07</text>
<text x="67.6" y="124" text-anchor="end" font-size="12" font-family="Verdana">0.08</text>
<text x="67.6" y="96.92" text-anchor="end" font-size="12" font-family="Verdana">0.09</text>
<text x="67.6" y="69.84" text-anchor="end" font-size="12" font-family="Verdana">0.1</text>
<text x="67.6" y="340.6" text-anchor="end" font-size="12" font-family="Verdana">0</text></g>
<g id="yLabel">
<text x="30.2" y="200.1" text-anchor="middle" transform = "rotate(-90 30.2 200.1 )" font-size="14" font-family="Verdana">Probability</text></g>
<g id="xLabel">
<text x="330.1" y="384" text-anchor="middle" font-size="14" font-family="Verdana">Random Variable</text></g>
<g id="plotLines" stroke-width="2"><g clip-path="url(#plot_window)" stroke="rgb(0,0,139)" stroke-width="1"><path d="M79.22,338.2 L79.22,338.2 L79.22,335.6 L80.46,335.6 L80.46,338.2 L84.19,338.2 L84.19,325 L85.43,325 L85.43,338.2 L89.16,338.2 L89.16,301.8 L90.4,301.8 L90.4,338.2 L94.13,338.2 L94.13,265.5 L95.37,265.5 L95.37,338.2 L99.1,338.2 L99.1,220 L100.3,220 L100.3,338.2 L104.1,338.2 L104.1,172.8 L105.3,172.8 L105.3,338.2 L109,338.2 L109,131.4 L110.3,131.4 L110.3,338.2 L114,338.2 L114,101.9 L115.2,101.9 L115.2,338.2 L119,338.2 L119,87.11 L120.2,87.11 L120.2,338.2 L123.9,338.2 L123.9,87.11 L125.2,87.11 L125.2,338.2 L128.9,338.2 L128.9,99.66 L130.1,99.66 L130.1,338.2 L133.9,338.2 L133.9,121.3 L135.1,121.3 L135.1,338.2 L138.8,338.2 L138.8,148.5 L140.1,148.5 L140.1,338.2 L143.8,338.2 L143.8,177.6 L145.1,177.6 L145.1,338.2 L148.8,338.2 L148.8,206.3 L150,206.3 L150,338.2 L153.7,338.2 L153.7,232.7 L155,232.7 L155,338.2 L158.7,338.2 L158.7,255.8 L160,255.8 L160,338.2 L163.7,338.2 L163.7,275.2 L164.9,275.2 L164.9,338.2 L168.7,338.2 L168.7,290.9 L169.9,290.9 L169.9,338.2 L173.6,338.2 L173.6,303.4 L174.9,303.4 L174.9,338.2 L178.6,338.2 L178.6,312.9 L179.8,312.9 L179.8,338.2 L183.6,338.2 L183.6,320.2 L184.8,320.2 L184.8,338.2 L188.5,338.2 L188.5,325.5 L189.8,325.5 L189.8,338.2 L193.5,338.2 L193.5,329.4 L194.7,329.4 L194.7,338.2 L198.5,338.2 L198.5,332.1 L199.7,332.1 L199.7,338.2 L203.4,338.2 L203.4,334.1 L204.7,334.1 L204.7,338.2 L208.4,338.2 L208.4,335.4 L209.6,335.4 L209.6,338.2 L213.4,338.2 L213.4,336.3 L214.6,336.3 L214.6,338.2 L218.3,338.2 L218.3,337 L219.6,337 L219.6,338.2 L223.3,338.2 L223.3,337.4 L224.5,337.4 L224.5,338.2 L228.3,338.2 L228.3,337.7 L229.5,337.7 L229.5,338.2 L233.2,338.2 L233.2,337.9 L234.5,337.9 L234.5,338.2 L238.2,338.2 L238.2,338 L239.5,338 L239.5,338.2 L243.2,338.2 L243.2,338.1 L244.4,338.1 L244.4,338.2 L248.1,338.2 L248.2,338.1 L249.4,338.1 L249.4,338.2 L253.1,338.2 L253.1,338.1 L254.4,338.1 L254.4,338.2 L258.1,338.2 L258.1,338.2 L259.3,338.2 L259.3,338.2 L263.1,338.2 L263.1,338.2 L264.3,338.2 L264.3,338.2 L268,338.2 L268,338.2 L269.3,338.2 L269.3,338.2 L273,338.2 L273,338.2 L274.2,338.2 L274.2,338.2 L278,338.2 L278,338.2 L279.2,338.2 L279.2,338.2 L282.9,338.2 L282.9,338.2 L284.2,338.2 L284.2,338.2 L287.9,338.2 L287.9,338.2 L289.1,338.2 L289.1,338.2 L292.9,338.2 L292.9,338.2 L294.1,338.2 L294.1,338.2 L297.8,338.2 L297.8,338.2 L299.1,338.2 L299.1,338.2 L302.8,338.2 L302.8,338.2 L304,338.2 L304,338.2 L307.8,338.2 L307.8,338.2 L309,338.2 L309,338.2 L312.7,338.2 L312.7,338.2 L314,338.2 L314,338.2 L317.7,338.2 L317.7,338.2 L319,338.2 L319,338.2 L322.7,338.2 L322.7,338.2 L323.9,338.2 L323.9,338.2 L327.6,338.2 L327.6,338.2 L328.9,338.2 L328.9,338.2 L332.6,338.2 L332.6,338.2 L333.9,338.2 L333.9,338.2 L337.6,338.2 L337.6,338.2 L338.8,338.2 L338.8,338.2 L342.6,338.2 L342.6,338.2 L343.8,338.2 L343.8,338.2 L347.5,338.2 L347.5,338.2 L348.8,338.2 L348.8,338.2 L352.5,338.2 L352.5,338.2 L353.7,338.2 L353.7,338.2 L357.5,338.2 L357.5,338.2 L358.7,338.2 L358.7,338.2 L362.4,338.2 L362.4,338.2 L363.7,338.2 L363.7,338.2 L367.4,338.2 L367.4,338.2 L368.6,338.2 L368.6,338.2 L372.4,338.2 L372.4,338.2 L373.6,338.2 L373.6,338.2 L377.3,338.2 L377.3,338.2 L378.6,338.2 L378.6,338.2 L382.3,338.2 L382.3,338.2 L383.5,338.2 L383.5,338.2 L387.3,338.2 L387.3,338.2 L388.5,338.2 L388.5,338.2 L392.2,338.2 L392.2,338.2 L393.5,338.2 L393.5,338.2 L397.2,338.2 L397.2,338.2 L398.4,338.2 L398.4,338.2 L402.2,338.2 L402.2,338.2 L403.4,338.2 L403.4,338.2 L407.1,338.2 L407.1,338.2 L408.4,338.2 L408.4,338.2 L412.1,338.2 L412.1,338.2 L413.4,338.2 L413.4,338.2 L417.1,338.2 L417.1,338.2 L418.3,338.2 L418.3,338.2 L422,338.2 L422,338.2 L423.3,338.2 L423.3,338.2 L427,338.2 L427,338.2 L428.3,338.2 L428.3,338.2 L432,338.2 L432,338.2 L433.2,338.2 L433.2,338.2 L437,338.2 L437,338.2 L438.2,338.2 L438.2,338.2 L441.9,338.2 L441.9,338.2 L443.2,338.2 L443.2,338.2 L446.9,338.2 L446.9,338.2 L448.1,338.2 L448.1,338.2 L451.9,338.2 L451.9,338.2 L453.1,338.2 L453.1,338.2 L456.8,338.2 L456.8,338.2 L458.1,338.2 L458.1,338.2 L461.8,338.2 L461.8,338.2 L463,338.2 L463,338.2 L466.8,338.2 L466.8,338.2 L468,338.2 L468,338.2 L471.7,338.2 L471.7,338.2 L473,338.2 L473,338.2 L476.7,338.2 L476.7,338.2 L477.9,338.2 L477.9,338.2 L481.7,338.2 L481.7,338.2 L482.9,338.2 L482.9,338.2 L486.6,338.2 L486.6,338.2 L487.9,338.2 L487.9,338.2 L491.6,338.2 L491.6,338.2 L492.8,338.2 L492.8,338.2 L496.6,338.2 L496.6,338.2 L497.8,338.2 L497.8,338.2 L501.5,338.2 L501.5,338.2 L502.8,338.2 L502.8,338.2 L506.5,338.2 L506.5,338.2 L507.8,338.2 L507.8,338.2 L511.5,338.2 L511.5,338.2 L512.7,338.2 L512.7,338.2 L516.4,338.2 L516.4,338.2 L517.7,338.2 L517.7,338.2 L521.4,338.2 L521.4,338.2 L522.7,338.2 L522.7,338.2 L526.4,338.2 L526.4,338.2 L527.6,338.2 L527.6,338.2 L531.4,338.2 L531.4,338.2 L532.6,338.2 L532.6,338.2 L536.3,338.2 L536.3,338.2 L537.6,338.2 L537.6,338.2 L541.3,338.2 L541.3,338.2 L542.5,338.2 L542.5,338.2 L546.3,338.2 L546.3,338.2 L547.5,338.2 L547.5,338.2 L551.2,338.2 L551.2,338.2 L552.5,338.2 L552.5,338.2 L556.2,338.2 L556.2,338.2 L557.4,338.2 L557.4,338.2 L561.2,338.2 L561.2,338.2 L562.4,338.2 L562.4,338.2 L566.1,338.2 L566.1,338.2 L567.4,338.2 L567.4,338.2 L571.1,338.2 L571.1,338.2 L572.3,338.2 L572.3,338.2 L576.1,338.2 L576.1,338.2 L577.3,338.2 L577.3,338.2 L577.3,338.2 Z" fill="rgb(0,0,139)"/></g>
<g clip-path="url(#plot_window)" stroke="rgb(139,0,0)" stroke-width="1"><path d="M80.46,338.2 L80.46,338.2 L80.46,338.2 L81.71,338.2 L81.71,338.2 L85.43,338.2 L85.43,338.2 L86.67,338.2 L86.67,338.2 L90.4,338.2 L90.4,338.1 L91.64,338.1 L91.64,338.2 L95.37,338.2 L95.37,337.7 L96.61,337.7 L96.61,338.2 L100.3,338.2 L100.3,336.8 L101.6,336.8 L101.6,338.2 L105.3,338.2 L105.3,334.8 L106.5,334.8 L106.5,338.2 L110.3,338.2 L110.3,331.1 L111.5,331.1 L111.5,338.2 L115.2,338.2 L115.2,324.9 L116.5,324.9 L116.5,338.2 L120.2,338.2 L120.2,315.8 L121.5,315.8 L121.5,338.2 L125.2,338.2 L125.2,303.4 L126.4,303.4 L126.4,338.2 L130.1,338.2 L130.1,287.7 L131.4,287.7 L131.4,338.2 L135.1,338.2 L135.1,269.3 L136.4,269.3 L136.4,338.2 L140.1,338.2 L140.1,249.2 L141.3,249.2 L141.3,338.2 L145.1,338.2 L145.1,228.7 L146.3,228.7 L146.3,338.2 L150,338.2 L150,209.2 L151.3,209.2 L151.3,338.2 L155,338.2 L155,191.9 L156.2,191.9 L156.2,338.2 L160,338.2 L160,178.2 L161.2,178.2 L161.2,338.2 L164.9,338.2 L164.9,168.8 L166.2,168.8 L166.2,338.2 L169.9,338.2 L169.9,164.1 L171.1,164.1 L171.1,338.2 L174.9,338.2 L174.9,164.1 L176.1,164.1 L176.1,338.2 L179.8,338.2 L179.8,168.5 L181.1,168.5 L181.1,338.2 L184.8,338.2 L184.8,176.6 L186,176.6 L186,338.2 L189.8,338.2 L189.8,187.6 L191,187.6 L191,338.2 L194.7,338.2 L194.7,200.7 L196,200.7 L196,338.2 L199.7,338.2 L199.7,215 L200.9,215 L200.9,338.2 L204.7,338.2 L204.7,229.8 L205.9,229.8 L205.9,338.2 L209.6,338.2 L209.6,244.4 L210.9,244.4 L210.9,338.2 L214.6,338.2 L214.6,258.3 L215.9,258.3 L215.9,338.2 L219.6,338.2 L219.6,271.1 L220.8,271.1 L220.8,338.2 L224.5,338.2 L224.5,282.7 L225.8,282.7 L225.8,338.2 L229.5,338.2 L229.5,292.9 L230.8,292.9 L230.8,338.2 L234.5,338.2 L234.5,301.6 L235.7,301.6 L235.7,338.2 L239.5,338.2 L239.5,309.1 L240.7,309.1 L240.7,338.2 L244.4,338.2 L244.4,315.2 L245.7,315.2 L245.7,338.2 L249.4,338.2 L249.4,320.3 L250.6,320.3 L250.6,338.2 L254.4,338.2 L254.4,324.4 L255.6,324.4 L255.6,338.2 L259.3,338.2 L259.3,327.7 L260.6,327.7 L260.6,338.2 L264.3,338.2 L264.3,330.2 L265.5,330.2 L265.5,338.2 L269.3,338.2 L269.3,332.2 L270.5,332.2 L270.5,338.2 L274.2,338.2 L274.2,333.8 L275.5,333.8 L275.5,338.2 L279.2,338.2 L279.2,334.9 L280.4,334.9 L280.4,338.2 L284.2,338.2 L284.2,335.8 L285.4,335.8 L285.4,338.2 L289.1,338.2 L289.1,336.5 L290.4,336.5 L290.4,338.2 L294.1,338.2 L294.1,336.9 L295.4,336.9 L295.4,338.2 L299.1,338.2 L299.1,337.3 L300.3,337.3 L300.3,338.2 L304,338.2 L304,337.6 L305.3,337.6 L305.3,338.2 L309,338.2 L309,337.7 L310.3,337.7 L310.3,338.2 L314,338.2 L314,337.9 L315.2,337.9 L315.2,338.2 L319,338.2 L319,338 L320.2,338 L320.2,338.2 L323.9,338.2 L323.9,338 L325.2,338 L325.2,338.2 L328.9,338.2 L328.9,338.1 L330.1,338.1 L330.1,338.2 L333.9,338.2 L333.9,338.1 L335.1,338.1 L335.1,338.2 L338.8,338.2 L338.8,338.2 L340.1,338.2 L340.1,338.2 L343.8,338.2 L343.8,338.2 L345,338.2 L345,338.2 L348.8,338.2 L348.8,338.2 L350,338.2 L350,338.2 L353.7,338.2 L353.7,338.2 L355,338.2 L355,338.2 L358.7,338.2 L358.7,338.2 L359.9,338.2 L359.9,338.2 L363.7,338.2 L363.7,338.2 L364.9,338.2 L364.9,338.2 L368.6,338.2 L368.6,338.2 L369.9,338.2 L369.9,338.2 L373.6,338.2 L373.6,338.2 L374.8,338.2 L374.8,338.2 L378.6,338.2 L378.6,338.2 L379.8,338.2 L379.8,338.2 L383.5,338.2 L383.5,338.2 L384.8,338.2 L384.8,338.2 L388.5,338.2 L388.5,338.2 L389.8,338.2 L389.8,338.2 L393.5,338.2 L393.5,338.2 L394.7,338.2 L394.7,338.2 L398.4,338.2 L398.4,338.2 L399.7,338.2 L399.7,338.2 L403.4,338.2 L403.4,338.2 L404.7,338.2 L404.7,338.2 L408.4,338.2 L408.4,338.2 L409.6,338.2 L409.6,338.2 L413.4,338.2 L413.4,338.2 L414.6,338.2 L414.6,338.2 L418.3,338.2 L418.3,338.2 L419.6,338.2 L419.6,338.2 L423.3,338.2 L423.3,338.2 L424.5,338.2 L424.5,338.2 L428.3,338.2 L428.3,338.2 L429.5,338.2 L429.5,338.2 L433.2,338.2 L433.2,338.2 L434.5,338.2 L434.5,338.2 L438.2,338.2 L438.2,338.2 L439.4,338.2 L439.4,338.2 L443.2,338.2 L443.2,338.2 L444.4,338.2 L444.4,338.2 L448.1,338.2 L448.1,338.2 L449.4,338.2 L449.4,338.2 L453.1,338.2 L453.1,338.2 L454.3,338.2 L454.3,338.2 L458.1,338.2 L458.1,338.2 L459.3,338.2 L459.3,338.2 L463,338.2 L463,338.2 L464.3,338.2 L464.3,338.2 L468,338.2 L468,338.2 L469.2,338.2 L469.2,338.2 L473,338.2 L473,338.2 L474.2,338.2 L474.2,338.2 L477.9,338.2 L477.9,338.2 L479.2,338.2 L479.2,338.2 L482.9,338.2 L482.9,338.2 L484.2,338.2 L484.2,338.2 L487.9,338.2 L487.9,338.2 L489.1,338.2 L489.1,338.2 L492.8,338.2 L492.8,338.2 L494.1,338.2 L494.1,338.2 L497.8,338.2 L497.8,338.2 L499.1,338.2 L499.1,338.2 L502.8,338.2 L502.8,338.2 L504,338.2 L504,338.2 L507.8,338.2 L507.8,338.2 L509,338.2 L509,338.2 L512.7,338.2 L512.7,338.2 L514,338.2 L514,338.2 L517.7,338.2 L517.7,338.2 L518.9,338.2 L518.9,338.2 L522.7,338.2 L522.7,338.2 L523.9,338.2 L523.9,338.2 L527.6,338.2 L527.6,338.2 L528.9,338.2 L528.9,338.2 L532.6,338.2 L532.6,338.2 L533.8,338.2 L533.8,338.2 L537.6,338.2 L537.6,338.2 L538.8,338.2 L538.8,338.2 L542.5,338.2 L542.5,338.2 L543.8,338.2 L543.8,338.2 L547.5,338.2 L547.5,338.2 L548.7,338.2 L548.7,338.2 L552.5,338.2 L552.5,338.2 L553.7,338.2 L553.7,338.2 L557.4,338.2 L557.4,338.2 L558.7,338.2 L558.7,338.2 L562.4,338.2 L562.4,338.2 L563.6,338.2 L563.6,338.2 L567.4,338.2 L567.4,338.2 L568.6,338.2 L568.6,338.2 L572.3,338.2 L572.3,338.2 L573.6,338.2 L573.6,338.2 L577.3,338.2 L577.3,338.2 L578.6,338.2 L578.6,338.2 L578.6,338.2 Z" fill="rgb(139,0,0)"/></g>
<g clip-path="url(#plot_window)" stroke="rgb(0,100,0)" stroke-width="1"><path d="M81.71,338.2 L81.71,338.2 L81.71,338.2 L82.95,338.2 L82.95,338.2 L86.67,338.2 L86.67,338.2 L87.92,338.2 L87.92,338.2 L91.64,338.2 L91.64,338.2 L92.88,338.2 L92.88,338.2 L96.61,338.2 L96.61,338.2 L97.85,338.2 L97.85,338.2 L101.6,338.2 L101.6,338.2 L102.8,338.2 L102.8,338.2 L106.5,338.2 L106.5,338.2 L107.8,338.2 L107.8,338.2 L111.5,338.2 L111.5,338.2 L112.8,338.2 L112.8,338.2 L116.5,338.2 L116.5,338.2 L117.7,338.2 L117.7,338.2 L121.5,338.2 L121.5,338.2 L122.7,338.2 L122.7,338.2 L126.4,338.2 L126.4,338.2 L127.7,338.2 L127.7,338.2 L131.4,338.2 L131.4,338.2 L132.6,338.2 L132.6,338.2 L136.4,338.2 L136.4,338.2 L137.6,338.2 L137.6,338.2 L141.3,338.2 L141.3,338.2 L142.6,338.2 L142.6,338.2 L146.3,338.2 L146.3,338.2 L147.5,338.2 L147.5,338.2 L151.3,338.2 L151.3,338.2 L152.5,338.2 L152.5,338.2 L156.2,338.2 L156.2,338.2 L157.5,338.2 L157.5,338.2 L161.2,338.2 L161.2,338.2 L162.4,338.2 L162.4,338.2 L166.2,338.2 L166.2,338.2 L167.4,338.2 L167.4,338.2 L171.1,338.2 L171.1,338.2 L172.4,338.2 L172.4,338.2 L176.1,338.2 L176.1,338.2 L177.3,338.2 L177.3,338.2 L181.1,338.2 L181.1,338.2 L182.3,338.2 L182.3,338.2 L186,338.2 L186,338.2 L187.3,338.2 L187.3,338.2 L191,338.2 L191,338.2 L192.3,338.2 L192.3,338.2 L196,338.2 L196,338.2 L197.2,338.2 L197.2,338.2 L200.9,338.2 L200.9,338.2 L202.2,338.2 L202.2,338.2 L205.9,338.2 L205.9,338.2 L207.2,338.2 L207.2,338.2 L210.9,338.2 L210.9,338.2 L212.1,338.2 L212.1,338.2 L215.9,338.2 L215.9,338.2 L217.1,338.2 L217.1,338.2 L220.8,338.2 L220.8,338.2 L222.1,338.2 L222.1,338.2 L225.8,338.2 L225.8,338.2 L227,338.2 L227,338.2 L230.8,338.2 L230.8,338.2 L232,338.2 L232,338.2 L235.7,338.2 L235.7,338.1 L237,338.1 L237,338.2 L240.7,338.2 L240.7,338.1 L241.9,338.1 L241.9,338.2 L245.7,338.2 L245.7,338 L246.9,338 L246.9,338.2 L250.6,338.2 L250.6,337.9 L251.9,337.9 L251.9,338.2 L255.6,338.2 L255.6,337.8 L256.8,337.8 L256.8,338.2 L260.6,338.2 L260.6,337.6 L261.8,337.6 L261.8,338.2 L265.5,338.2 L265.5,337.4 L266.8,337.4 L266.8,338.2 L270.5,338.2 L270.5,337.1 L271.8,337.1 L271.8,338.2 L275.5,338.2 L275.5,336.6 L276.7,336.6 L276.7,338.2 L280.4,338.2 L280.4,336 L281.7,336 L281.7,338.2 L285.4,338.2 L285.4,335.3 L286.7,335.3 L286.7,338.2 L290.4,338.2 L290.4,334.4 L291.6,334.4 L291.6,338.2 L295.4,338.2 L295.4,333.2 L296.6,333.2 L296.6,338.2 L300.3,338.2 L300.3,331.8 L301.6,331.8 L301.6,338.2 L305.3,338.2 L305.3,330.1 L306.5,330.1 L306.5,338.2 L310.3,338.2 L310.3,328.1 L311.5,328.1 L311.5,338.2 L315.2,338.2 L315.2,325.7 L316.5,325.7 L316.5,338.2 L320.2,338.2 L320.2,323 L321.4,323 L321.4,338.2 L325.2,338.2 L325.2,319.9 L326.4,319.9 L326.4,338.2 L330.1,338.2 L330.1,316.4 L331.4,316.4 L331.4,338.2 L335.1,338.2 L335.1,312.5 L336.3,312.5 L336.3,338.2 L340.1,338.2 L340.1,308.3 L341.3,308.3 L341.3,338.2 L345,338.2 L345,303.8 L346.3,303.8 L346.3,338.2 L350,338.2 L350,299.1 L351.2,299.1 L351.2,338.2 L355,338.2 L355,294.1 L356.2,294.1 L356.2,338.2 L359.9,338.2 L359.9,288.9 L361.2,288.9 L361.2,338.2 L364.9,338.2 L364.9,283.8 L366.2,283.8 L366.2,338.2 L369.9,338.2 L369.9,278.6 L371.1,278.6 L371.1,338.2 L374.8,338.2 L374.8,273.6 L376.1,273.6 L376.1,338.2 L379.8,338.2 L379.8,268.7 L381.1,268.7 L381.1,338.2 L384.8,338.2 L384.8,264.1 L386,264.1 L386,338.2 L389.8,338.2 L389.8,260 L391,260 L391,338.2 L394.7,338.2 L394.7,256.2 L396,256.2 L396,338.2 L399.7,338.2 L399.7,253 L400.9,253 L400.9,338.2 L404.7,338.2 L404.7,250.4 L405.9,250.4 L405.9,338.2 L409.6,338.2 L409.6,248.4 L410.9,248.4 L410.9,338.2 L414.6,338.2 L414.6,247.1 L415.8,247.1 L415.8,338.2 L419.6,338.2 L419.6,246.4 L420.8,246.4 L420.8,338.2 L424.5,338.2 L424.5,246.4 L425.8,246.4 L425.8,338.2 L429.5,338.2 L429.5,247.1 L430.7,247.1 L430.7,338.2 L434.5,338.2 L434.5,248.4 L435.7,248.4 L435.7,338.2 L439.4,338.2 L439.4,250.2 L440.7,250.2 L440.7,338.2 L444.4,338.2 L444.4,252.6 L445.6,252.6 L445.6,338.2 L449.4,338.2 L449.4,255.5 L450.6,255.5 L450.6,338.2 L454.3,338.2 L454.3,258.8 L455.6,258.8 L455.6,338.2 L459.3,338.2 L459.3,262.5 L460.6,262.5 L460.6,338.2 L464.3,338.2 L464.3,266.4 L465.5,266.4 L465.5,338.2 L469.2,338.2 L469.2,270.6 L470.5,270.6 L470.5,338.2 L474.2,338.2 L474.2,274.8 L475.5,274.8 L475.5,338.2 L479.2,338.2 L479.2,279.2 L480.4,279.2 L480.4,338.2 L484.2,338.2 L484.2,283.6 L485.4,283.6 L485.4,338.2 L489.1,338.2 L489.1,287.9 L490.4,287.9 L490.4,338.2 L494.1,338.2 L494.1,292.1 L495.3,292.1 L495.3,338.2 L499.1,338.2 L499.1,296.3 L500.3,296.3 L500.3,338.2 L504,338.2 L504,300.2 L505.3,300.2 L505.3,338.2 L509,338.2 L509,304 L510.2,304 L510.2,338.2 L514,338.2 L514,307.5 L515.2,307.5 L515.2,338.2 L518.9,338.2 L518.9,310.8 L520.2,310.8 L520.2,338.2 L523.9,338.2 L523.9,313.9 L525.1,313.9 L525.1,338.2 L528.9,338.2 L528.9,316.7 L530.1,316.7 L530.1,338.2 L533.8,338.2 L533.8,319.3 L535.1,319.3 L535.1,338.2 L538.8,338.2 L538.8,321.7 L540,321.7 L540,338.2 L543.8,338.2 L543.8,323.8 L545,323.8 L545,338.2 L548.7,338.2 L548.7,325.7 L550,325.7 L550,338.2 L553.7,338.2 L553.7,327.4 L555,327.4 L555,338.2 L558.7,338.2 L558.7,328.9 L559.9,328.9 L559.9,338.2 L563.6,338.2 L563.6,330.3 L564.9,330.3 L564.9,338.2 L568.6,338.2 L568.6,331.5 L569.9,331.5 L569.9,338.2 L573.6,338.2 L573.6,332.5 L574.8,332.5 L574.8,338.2 L578.6,338.2 L578.6,333.4 L579.8,333.4 L579.8,338.2 L579.8,338.2 Z" fill="rgb(0,100,0)"/></g>
</g>
<g id="plotPoints" clip-path="url(#plot_window)"><g stroke="rgb(0,0,0)"></g>
<g stroke="rgb(0,0,0)"></g>
<g stroke="rgb(0,0,0)"></g>
</g>
<g id="limitPoints" stroke="rgb(119,136,153)" fill="rgb(250,235,215)"></g>
<g id="legendBackground" stroke="rgb(119,136,153)" fill="rgb(255,255,255)" stroke-width="1"><rect x="595.6" y="62" width="142.4" height="105"/><rect x="595.6" y="62" width="142.4" height="105"/></g>
<g id="legendPoints"><g stroke="rgb(0,0,139)" stroke-width="1"><line x1="610.6" y1="92" x2="625.6" y2="92"/></g>
<g stroke="rgb(139,0,0)" stroke-width="1"><line x1="610.6" y1="122" x2="625.6" y2="122"/></g>
<g stroke="rgb(0,100,0)" stroke-width="1"><line x1="610.6" y1="152" x2="625.6" y2="152"/></g>
</g>
<g id="legendText">
<text x="633.1" y="92" font-size="15" font-family="Verdana">n=10 p=0.5</text>
<text x="633.1" y="122" font-size="15" font-family="Verdana">n=40 p=0.5</text>
<text x="633.1" y="152" font-size="15" font-family="Verdana">n=70 p=0.5</text></g>
<g id="title">
<text x="375" y="40" text-anchor="middle" font-size="20" font-family="Verdana">Negative Binomial Distribution PDF</text></g>
</svg>
