<?xml version="1.0" encoding="UTF-8" standalone="no"?>
<svg width="750" height ="400" version="1.1" xmlns="http://www.w3.org/2000/svg"
 xmlns:xlink="http://www.w3.org/1999/xlink"
 xmlns:ev="http://www.w3.org/2001/xml-events">

<!-- SVG plot written using Boost.Plot program (Creator Jacob Voytko) --> 
<!-- Use, modification and distribution of Boost.Plot subject to the --> 
<!-- Boost Software License, Version 1.0.--> 
<!-- (See accompanying file LICENSE_1_0.txt --> 
<!-- or copy at http://www.boost.org/LICENSE_1_0.txt) --> 

<clipPath id="plot_window"><rect x="71.2" y="63" width="478" height="274.2"/></clipPath>
<g id="imageBackground" stroke="rgb(119,136,153)" fill="rgb(255,255,255)" stroke-width="2"><rect x="0" y="0" width="750" height="400"/></g>
<g id="plotBackground" stroke="rgb(119,136,153)" fill="rgb(255,255,255)" stroke-width="2"><rect x="70.2" y="62" width="480" height="276.2"/></g>
<g id="yMinorGrid" stroke="rgb(200,220,255)" stroke-width="0.5"></g>
<g id="yMajorGrid" stroke="rgb(200,220,255)" stroke-width="1"></g>
<g id="xMinorGrid" stroke="rgb(200,220,255)" stroke-width="0.5"></g>
<g id="xMajorGrid" stroke="rgb(200,220,255)" stroke-width="1"></g>
<g id="yAxis" stroke="rgb(0,0,0)" stroke-width="1"><line x1="310.2" y1="62" x2="310.2" y2="343.2"/><line x1="70.2" y1="62" x2="70.2" y2="338.2"/></g>
<g id="xAxis" stroke="rgb(0,0,0)" stroke-width="1"><line x1="65.2" y1="338.2" x2="550.2" y2="338.2"/><line x1="65.2" y1="338.2" x2="550.2" y2="338.2"/></g>
<g id="yMinorTicks" stroke="rgb(0,0,0)" stroke-width="1"><path d="M68.2,331.9 L70.2,331.9 M68.2,325.6 L70.2,325.6 M68.2,319.3 L70.2,319.3 M68.2,313 L70.2,313 M68.2,300.4 L70.2,300.4 M68.2,294.1 L70.2,294.1 M68.2,287.8 L70.2,287.8 M68.2,281.6 L70.2,281.6 M68.2,269 L70.2,269 M68.2,262.7 L70.2,262.7 M68.2,256.4 L70.2,256.4 M68.2,250.1 L70.2,250.1 M68.2,237.5 L70.2,237.5 M68.2,231.2 L70.2,231.2 M68.2,224.9 L70.2,224.9 M68.2,218.6 L70.2,218.6 M68.2,206 L70.2,206 M68.2,199.7 L70.2,199.7 M68.2,193.4 L70.2,193.4 M68.2,187.1 L70.2,187.1 M68.2,174.6 L70.2,174.6 M68.2,168.3 L70.2,168.3 M68.2,162 L70.2,162 M68.2,155.7 L70.2,155.7 M68.2,143.1 L70.2,143.1 M68.2,136.8 L70.2,136.8 M68.2,130.5 L70.2,130.5 M68.2,124.2 L70.2,124.2 M68.2,111.6 L70.2,111.6 M68.2,105.3 L70.2,105.3 M68.2,99.03 L70.2,99.03 M68.2,92.74 L70.2,92.74 M68.2,80.15 L70.2,80.15 M68.2,73.86 L70.2,73.86 M68.2,67.56 L70.2,67.56 M68.2,338.2 L70.2,338.2 "/></g>
<g id="xMinorTicks" stroke="rgb(0,0,0)" stroke-width="1"><path d="M320,338.2 L320,340.2 M329.8,338.2 L329.8,340.2 M339.6,338.2 L339.6,340.2 M349.4,338.2 L349.4,340.2 M369.1,338.2 L369.1,340.2 M378.9,338.2 L378.9,340.2 M388.7,338.2 L388.7,340.2 M398.5,338.2 L398.5,340.2 M418.1,338.2 L418.1,340.2 M427.9,338.2 L427.9,340.2 M437.7,338.2 L437.7,340.2 M447.5,338.2 L447.5,340.2 M467.1,338.2 L467.1,340.2 M476.9,338.2 L476.9,340.2 M486.7,338.2 L486.7,340.2 M496.5,338.2 L496.5,340.2 M516.1,338.2 L516.1,340.2 M525.9,338.2 L525.9,340.2 M535.8,338.2 L535.8,340.2 M545.6,338.2 L545.6,340.2 M300.4,338.2 L300.4,340.2 M290.6,338.2 L290.6,340.2 M280.8,338.2 L280.8,340.2 M271,338.2 L271,340.2 M251.4,338.2 L251.4,340.2 M241.6,338.2 L241.6,340.2 M231.8,338.2 L231.8,340.2 M222,338.2 L222,340.2 M202.4,338.2 L202.4,340.2 M192.6,338.2 L192.6,340.2 M182.7,338.2 L182.7,340.2 M172.9,338.2 L172.9,340.2 M153.3,338.2 L153.3,340.2 M143.5,338.2 L143.5,340.2 M133.7,338.2 L133.7,340.2 M123.9,338.2 L123.9,340.2 M104.3,338.2 L104.3,340.2 M94.5,338.2 L94.5,340.2 M84.69,338.2 L84.69,340.2 M74.89,338.2 L74.89,340.2 "/></g>
<g id="yMajorTicks" stroke="rgb(0,0,0)" stroke-width="2"><path d="M65.2,338.2 L70.2,338.2 M65.2,306.7 L70.2,306.7 M65.2,275.3 L70.2,275.3 M65.2,243.8 L70.2,243.8 M65.2,212.3 L70.2,212.3 M65.2,180.9 L70.2,180.9 M65.2,149.4 L70.2,149.4 M65.2,117.9 L70.2,117.9 M65.2,86.44 L70.2,86.44 M65.2,338.2 L70.2,338.2 "/></g>
<g id="xMajorTicks" stroke="rgb(0,0,0)" stroke-width="2"><path d="M310.2,338.2 L310.2,343.2 M359.3,338.2 L359.3,343.2 M408.3,338.2 L408.3,343.2 M457.3,338.2 L457.3,343.2 M506.3,338.2 L506.3,343.2 M310.2,338.2 L310.2,343.2 M261.2,338.2 L261.2,343.2 M212.2,338.2 L212.2,343.2 M163.1,338.2 L163.1,343.2 M114.1,338.2 L114.1,343.2 "/></g>
<g id="plotLabels">
<text x="310.2" y="357.6" text-anchor="middle" font-size="12" font-family="Verdana">0</text>
<text x="359.3" y="357.6" text-anchor="middle" font-size="12" font-family="Verdana">1</text>
<text x="408.3" y="357.6" text-anchor="middle" font-size="12" font-family="Verdana">2</text>
<text x="457.3" y="357.6" text-anchor="middle" font-size="12" font-family="Verdana">3</text>
<text x="506.3" y="357.6" text-anchor="middle" font-size="12" font-family="Verdana">4</text>
<text x="310.2" y="357.6" text-anchor="middle" font-size="12" font-family="Verdana">0</text>
<text x="261.2" y="357.6" text-anchor="middle" font-size="12" font-family="Verdana">-1</text>
<text x="212.2" y="357.6" text-anchor="middle" font-size="12" font-family="Verdana">-2</text>
<text x="163.1" y="357.6" text-anchor="middle" font-size="12" font-family="Verdana">-3</text>
<text x="114.1" y="357.6" text-anchor="middle" font-size="12" font-family="Verdana">-4</text>
<text x="59.2" y="340.6" text-anchor="end" font-size="12" font-family="Verdana">0</text>
<text x="59.2" y="309.1" text-anchor="end" font-size="12" font-family="Verdana">0.1</text>
<text x="59.2" y="277.7" text-anchor="end" font-size="12" font-family="Verdana">0.2</text>
<text x="59.2" y="246.2" text-anchor="end" font-size="12" font-family="Verdana">0.3</text>
<text x="59.2" y="214.7" text-anchor="end" font-size="12" font-family="Verdana">0.4</text>
<text x="59.2" y="183.3" text-anchor="end" font-size="12" font-family="Verdana">0.5</text>
<text x="59.2" y="151.8" text-anchor="end" font-size="12" font-family="Verdana">0.6</text>
<text x="59.2" y="120.3" text-anchor="end" font-size="12" font-family="Verdana">0.7</text>
<text x="59.2" y="88.84" text-anchor="end" font-size="12" font-family="Verdana">0.8</text>
<text x="59.2" y="340.6" text-anchor="end" font-size="12" font-family="Verdana">0</text></g>
<g id="yLabel">
<text x="30.2" y="200.1" text-anchor="middle" transform = "rotate(-90 30.2 200.1 )" font-size="14" font-family="Verdana">Probability</text></g>
<g id="xLabel">
<text x="310.2" y="384" text-anchor="middle" font-size="14" font-family="Verdana">Random Variable</text></g>
<g id="plotLines" stroke-width="2"><g clip-path="url(#plot_window)" stroke="rgb(0,0,139)" stroke-width="1"><path d="M70.2,338.2 L72.6,338.2 L75,338.2 L77.4,338.2 L79.8,338.2 L82.2,338.2 L84.6,338.2 L87,338.2 L89.4,338.2 L91.8,338.2 L94.2,338.2 L96.6,338.2 L99,338.2 L101.4,338.2 L103.8,338.2 L106.2,338.2 L108.6,338.2 L111,338.2 L113.4,338.2 L115.8,338.2 L118.2,338.1 L120.6,338.1 L123,338.1 L125.4,338.1 L127.8,338.1 L130.2,338.1 L132.6,338 L135,338 L137.4,337.9 L139.8,337.9 L142.2,337.8 L144.6,337.8 L147,337.7 L149.4,337.6 L151.8,337.5 L154.2,337.4 L156.6,337.3 L159,337.1 L161.4,336.9 L163.8,336.7 L166.2,336.5 L168.6,336.3 L171,336 L173.4,335.6 L175.8,335.3 L178.2,334.9 L180.6,334.4 L183,333.9 L185.4,333.3 L187.8,332.6 L190.2,331.9 L192.6,331.1 L195,330.3 L197.4,329.3 L199.8,328.3 L202.2,327.1 L204.6,325.9 L207,324.5 L209.4,323 L211.8,321.5 L214.2,319.7 L216.6,317.9 L219,316 L221.4,313.9 L223.8,311.6 L226.2,309.3 L228.6,306.8 L231,304.2 L233.4,301.4 L235.8,298.5 L238.2,295.5 L240.6,292.4 L243,289.1 L245.4,285.8 L247.8,282.4 L250.2,278.8 L252.6,275.2 L255,271.6 L257.4,267.9 L259.8,264.2 L262.2,260.5 L264.6,256.7 L267,253.1 L269.4,249.4 L271.8,245.8 L274.2,242.3 L276.6,238.9 L279,235.7 L281.4,232.6 L283.8,229.6 L286.2,226.8 L288.6,224.3 L291,221.9 L293.4,219.8 L295.8,218 L298.2,216.4 L300.6,215 L303,214 L305.4,213.3 L307.8,212.8 L310.2,212.7 L312.6,212.8 L315,213.3 L317.4,214 L319.8,215 L322.2,216.4 L324.6,218 L327,219.8 L329.4,221.9 L331.8,224.3 L334.2,226.8 L336.6,229.6 L339,232.5 L341.4,235.7 L343.8,238.9 L346.2,242.3 L348.6,245.8 L351,249.4 L353.4,253 L355.8,256.7 L358.2,260.5 L360.6,264.2 L363,267.9 L365.4,271.6 L367.8,275.2 L370.2,278.8 L372.6,282.3 L375,285.8 L377.4,289.1 L379.8,292.4 L382.2,295.5 L384.6,298.5 L387,301.4 L389.4,304.2 L391.8,306.8 L394.2,309.3 L396.6,311.6 L399,313.9 L401.4,315.9 L403.8,317.9 L406.2,319.7 L408.6,321.4 L411,323 L413.4,324.5 L415.8,325.9 L418.2,327.1 L420.6,328.3 L423,329.3 L425.4,330.3 L427.8,331.1 L430.2,331.9 L432.6,332.6 L435,333.3 L437.4,333.9 L439.8,334.4 L442.2,334.9 L444.6,335.3 L447,335.6 L449.4,336 L451.8,336.3 L454.2,336.5 L456.6,336.7 L459,336.9 L461.4,337.1 L463.8,337.3 L466.2,337.4 L468.6,337.5 L471,337.6 L473.4,337.7 L475.8,337.8 L478.2,337.8 L480.6,337.9 L483,337.9 L485.4,338 L487.8,338 L490.2,338.1 L492.6,338.1 L495,338.1 L497.4,338.1 L499.8,338.1 L502.2,338.1 L504.6,338.2 L507,338.2 L509.4,338.2 L511.8,338.2 L514.2,338.2 L516.6,338.2 L519,338.2 L521.4,338.2 L523.8,338.2 L526.2,338.2 L528.6,338.2 L531,338.2 L533.4,338.2 L535.8,338.2 L538.2,338.2 L540.6,338.2 L543,338.2 L545.4,338.2 L547.8,338.2 L550.2,338.2 " fill="none"/></g>
<g clip-path="url(#plot_window)" stroke="rgb(139,0,0)" stroke-width="1"><path d="M70.2,338.2 L72.6,338.2 L75,338.2 L77.4,338.2 L79.8,338.2 L82.2,338.2 L84.6,338.2 L87,338.2 L89.4,338.2 L91.8,338.2 L94.2,338.2 L96.6,338.2 L99,338.2 L101.4,338.2 L103.8,338.2 L106.2,338.2 L108.6,338.2 L111,338.2 L113.4,338.2 L115.8,338.2 L118.2,338.2 L120.6,338.2 L123,338.2 L125.4,338.2 L127.8,338.2 L130.2,338.2 L132.6,338.2 L135,338.2 L137.4,338.2 L139.8,338.2 L142.2,338.2 L144.6,338.2 L147,338.2 L149.4,338.2 L151.8,338.2 L154.2,338.2 L156.6,338.2 L159,338.2 L161.4,338.2 L163.8,338.2 L166.2,338.2 L168.6,338.2 L171,338.2 L173.4,338.2 L175.8,338.2 L178.2,338.2 L180.6,338.2 L183,338.2 L185.4,338.2 L187.8,338.2 L190.2,338.2 L192.6,338.2 L195,338.2 L197.4,338.2 L199.8,338.2 L202.2,338.2 L204.6,338.2 L207,338.2 L209.4,338.1 L211.8,338.1 L214.2,338.1 L216.6,338 L219,338 L221.4,337.8 L223.8,337.7 L226.2,337.5 L228.6,337.2 L231,336.8 L233.4,336.3 L235.8,335.7 L238.2,334.8 L240.6,333.7 L243,332.3 L245.4,330.6 L247.8,328.4 L250.2,325.6 L252.6,322.3 L255,318.3 L257.4,313.5 L259.8,307.9 L262.2,301.3 L264.6,293.7 L267,285.1 L269.4,275.4 L271.8,264.6 L274.2,252.8 L276.6,240.1 L279,226.5 L281.4,212.3 L283.8,197.6 L286.2,182.7 L288.6,167.9 L291,153.5 L293.4,139.7 L295.8,126.9 L298.2,115.5 L300.6,105.7 L303,97.72 L305.4,91.88 L307.8,88.31 L310.2,87.11 L312.6,88.31 L315,91.87 L317.4,97.7 L319.8,105.6 L322.2,115.5 L324.6,126.9 L327,139.7 L329.4,153.4 L331.8,167.9 L334.2,182.7 L336.6,197.6 L339,212.3 L341.4,226.5 L343.8,240 L346.2,252.8 L348.6,264.6 L351,275.3 L353.4,285.1 L355.8,293.7 L358.2,301.3 L360.6,307.9 L363,313.5 L365.4,318.3 L367.8,322.3 L370.2,325.6 L372.6,328.4 L375,330.6 L377.4,332.3 L379.8,333.7 L382.2,334.8 L384.6,335.7 L387,336.3 L389.4,336.8 L391.8,337.2 L394.2,337.5 L396.6,337.7 L399,337.8 L401.4,338 L403.8,338 L406.2,338.1 L408.6,338.1 L411,338.1 L413.4,338.2 L415.8,338.2 L418.2,338.2 L420.6,338.2 L423,338.2 L425.4,338.2 L427.8,338.2 L430.2,338.2 L432.6,338.2 L435,338.2 L437.4,338.2 L439.8,338.2 L442.2,338.2 L444.6,338.2 L447,338.2 L449.4,338.2 L451.8,338.2 L454.2,338.2 L456.6,338.2 L459,338.2 L461.4,338.2 L463.8,338.2 L466.2,338.2 L468.6,338.2 L471,338.2 L473.4,338.2 L475.8,338.2 L478.2,338.2 L480.6,338.2 L483,338.2 L485.4,338.2 L487.8,338.2 L490.2,338.2 L492.6,338.2 L495,338.2 L497.4,338.2 L499.8,338.2 L502.2,338.2 L504.6,338.2 L507,338.2 L509.4,338.2 L511.8,338.2 L514.2,338.2 L516.6,338.2 L519,338.2 L521.4,338.2 L523.8,338.2 L526.2,338.2 L528.6,338.2 L531,338.2 L533.4,338.2 L535.8,338.2 L538.2,338.2 L540.6,338.2 L543,338.2 L545.4,338.2 L547.8,338.2 L550.2,338.2 " fill="none"/></g>
<g clip-path="url(#plot_window)" stroke="rgb(0,100,0)" stroke-width="1"><path d="M70.2,335.1 L72.6,334.9 L75,334.7 L77.4,334.5 L79.8,334.2 L82.2,334 L84.6,333.8 L87,333.5 L89.4,333.2 L91.8,332.9 L94.2,332.7 L96.6,332.3 L99,332 L101.4,331.7 L103.8,331.4 L106.2,331 L108.6,330.6 L111,330.2 L113.4,329.8 L115.8,329.4 L118.2,329 L120.6,328.5 L123,328.1 L125.4,327.6 L127.8,327.1 L130.2,326.6 L132.6,326 L135,325.5 L137.4,324.9 L139.8,324.3 L142.2,323.7 L144.6,323.1 L147,322.5 L149.4,321.8 L151.8,321.2 L154.2,320.5 L156.6,319.8 L159,319.1 L161.4,318.4 L163.8,317.6 L166.2,316.9 L168.6,316.1 L171,315.3 L173.4,314.5 L175.8,313.7 L178.2,312.8 L180.6,312 L183,311.1 L185.4,310.3 L187.8,309.4 L190.2,308.5 L192.6,307.6 L195,306.7 L197.4,305.8 L199.8,304.9 L202.2,304 L204.6,303.1 L207,302.1 L209.4,301.2 L211.8,300.3 L214.2,299.3 L216.6,298.4 L219,297.5 L221.4,296.5 L223.8,295.6 L226.2,294.7 L228.6,293.8 L231,292.9 L233.4,292 L235.8,291.1 L238.2,290.3 L240.6,289.4 L243,288.6 L245.4,287.7 L247.8,286.9 L250.2,286.1 L252.6,285.4 L255,284.6 L257.4,283.9 L259.8,283.2 L262.2,282.5 L264.6,281.9 L267,281.2 L269.4,280.6 L271.8,280.1 L274.2,279.5 L276.6,279 L279,278.5 L281.4,278.1 L283.8,277.7 L286.2,277.3 L288.6,276.9 L291,276.6 L293.4,276.3 L295.8,276.1 L298.2,275.9 L300.6,275.7 L303,275.6 L305.4,275.5 L307.8,275.4 L310.2,275.4 L312.6,275.4 L315,275.5 L317.4,275.6 L319.8,275.7 L322.2,275.9 L324.6,276.1 L327,276.3 L329.4,276.6 L331.8,276.9 L334.2,277.3 L336.6,277.7 L339,278.1 L341.4,278.5 L343.8,279 L346.2,279.5 L348.6,280.1 L351,280.6 L353.4,281.2 L355.8,281.9 L358.2,282.5 L360.6,283.2 L363,283.9 L365.4,284.6 L367.8,285.4 L370.2,286.1 L372.6,286.9 L375,287.7 L377.4,288.6 L379.8,289.4 L382.2,290.3 L384.6,291.1 L387,292 L389.4,292.9 L391.8,293.8 L394.2,294.7 L396.6,295.6 L399,296.5 L401.4,297.5 L403.8,298.4 L406.2,299.3 L408.6,300.3 L411,301.2 L413.4,302.1 L415.8,303.1 L418.2,304 L420.6,304.9 L423,305.8 L425.4,306.7 L427.8,307.6 L430.2,308.5 L432.6,309.4 L435,310.3 L437.4,311.1 L439.8,312 L442.2,312.8 L444.6,313.7 L447,314.5 L449.4,315.3 L451.8,316.1 L454.2,316.8 L456.6,317.6 L459,318.4 L461.4,319.1 L463.8,319.8 L466.2,320.5 L468.6,321.2 L471,321.8 L473.4,322.5 L475.8,323.1 L478.2,323.7 L480.6,324.3 L483,324.9 L485.4,325.5 L487.8,326 L490.2,326.6 L492.6,327.1 L495,327.6 L497.4,328.1 L499.8,328.5 L502.2,329 L504.6,329.4 L507,329.8 L509.4,330.2 L511.8,330.6 L514.2,331 L516.6,331.4 L519,331.7 L521.4,332 L523.8,332.3 L526.2,332.7 L528.6,332.9 L531,333.2 L533.4,333.5 L535.8,333.8 L538.2,334 L540.6,334.2 L543,334.5 L545.4,334.7 L547.8,334.9 L550.2,335.1 " fill="none"/></g>
<g clip-path="url(#plot_window)" stroke="rgb(255,140,0)" stroke-width="1"><path d="M70.2,338.1 L72.6,338.1 L75,338.1 L77.4,338.1 L79.8,338.1 L82.2,338 L84.6,338 L87,338 L89.4,337.9 L91.8,337.9 L94.2,337.8 L96.6,337.8 L99,337.7 L101.4,337.6 L103.8,337.5 L106.2,337.4 L108.6,337.2 L111,337 L113.4,336.9 L115.8,336.7 L118.2,336.4 L120.6,336.1 L123,335.8 L125.4,335.5 L127.8,335.1 L130.2,334.7 L132.6,334.2 L135,333.6 L137.4,333 L139.8,332.3 L142.2,331.6 L144.6,330.8 L147,329.9 L149.4,328.9 L151.8,327.8 L154.2,326.6 L156.6,325.3 L159,323.9 L161.4,322.4 L163.8,320.7 L166.2,319 L168.6,317.1 L171,315.1 L173.4,312.9 L175.8,310.6 L178.2,308.2 L180.6,305.7 L183,303 L185.4,300.2 L187.8,297.2 L190.2,294.2 L192.6,291 L195,287.7 L197.4,284.3 L199.8,280.9 L202.2,277.3 L204.6,273.7 L207,270 L209.4,266.3 L211.8,262.6 L214.2,258.9 L216.6,255.2 L219,251.5 L221.4,247.9 L223.8,244.3 L226.2,240.9 L228.6,237.5 L231,234.3 L233.4,231.3 L235.8,228.4 L238.2,225.7 L240.6,223.2 L243,221 L245.4,219 L247.8,217.2 L250.2,215.8 L252.6,214.6 L255,213.6 L257.4,213 L259.8,212.7 L262.2,212.7 L264.6,213 L267,213.5 L269.4,214.4 L271.8,215.6 L274.2,217 L276.6,218.7 L279,220.7 L281.4,222.9 L283.8,225.3 L286.2,228 L288.6,230.8 L291,233.9 L293.4,237 L295.8,240.4 L298.2,243.8 L300.6,247.3 L303,250.9 L305.4,254.6 L307.8,258.3 L310.2,262 L312.6,265.8 L315,269.5 L317.4,273.2 L319.8,276.8 L322.2,280.3 L324.6,283.8 L327,287.2 L329.4,290.5 L331.8,293.7 L334.2,296.8 L336.6,299.8 L339,302.6 L341.4,305.3 L343.8,307.9 L346.2,310.3 L348.6,312.6 L351,314.8 L353.4,316.8 L355.8,318.7 L358.2,320.5 L360.6,322.1 L363,323.7 L365.4,325.1 L367.8,326.4 L370.2,327.6 L372.6,328.7 L375,329.7 L377.4,330.6 L379.8,331.5 L382.2,332.2 L384.6,332.9 L387,333.5 L389.4,334.1 L391.8,334.6 L394.2,335 L396.6,335.4 L399,335.8 L401.4,336.1 L403.8,336.4 L406.2,336.6 L408.6,336.8 L411,337 L413.4,337.2 L415.8,337.3 L418.2,337.5 L420.6,337.6 L423,337.7 L425.4,337.7 L427.8,337.8 L430.2,337.9 L432.6,337.9 L435,338 L437.4,338 L439.8,338 L442.2,338.1 L444.6,338.1 L447,338.1 L449.4,338.1 L451.8,338.1 L454.2,338.1 L456.6,338.2 L459,338.2 L461.4,338.2 L463.8,338.2 L466.2,338.2 L468.6,338.2 L471,338.2 L473.4,338.2 L475.8,338.2 L478.2,338.2 L480.6,338.2 L483,338.2 L485.4,338.2 L487.8,338.2 L490.2,338.2 L492.6,338.2 L495,338.2 L497.4,338.2 L499.8,338.2 L502.2,338.2 L504.6,338.2 L507,338.2 L509.4,338.2 L511.8,338.2 L514.2,338.2 L516.6,338.2 L519,338.2 L521.4,338.2 L523.8,338.2 L526.2,338.2 L528.6,338.2 L531,338.2 L533.4,338.2 L535.8,338.2 L538.2,338.2 L540.6,338.2 L543,338.2 L545.4,338.2 L547.8,338.2 L550.2,338.2 " fill="none"/></g>
<g clip-path="url(#plot_window)" stroke="rgb(127,255,0)" stroke-width="1"><path d="M70.2,338.2 L72.6,338.2 L75,338.2 L77.4,338.2 L79.8,338.2 L82.2,338.2 L84.6,338.2 L87,338.2 L89.4,338.2 L91.8,338.2 L94.2,338.2 L96.6,338.2 L99,338.2 L101.4,338.2 L103.8,338.2 L106.2,338.2 L108.6,338.2 L111,338.2 L113.4,338.2 L115.8,338.2 L118.2,338.2 L120.6,338.2 L123,338.2 L125.4,338.2 L127.8,338.2 L130.2,338.2 L132.6,338.2 L135,338.2 L137.4,338.2 L139.8,338.2 L142.2,338.2 L144.6,338.2 L147,338.2 L149.4,338.2 L151.8,338.2 L154.2,338.2 L156.6,338.2 L159,338.2 L161.4,338.2 L163.8,338.2 L166.2,338.1 L168.6,338.1 L171,338.1 L173.4,338.1 L175.8,338.1 L178.2,338.1 L180.6,338 L183,338 L185.4,338 L187.8,337.9 L190.2,337.9 L192.6,337.8 L195,337.7 L197.4,337.7 L199.8,337.6 L202.2,337.5 L204.6,337.3 L207,337.2 L209.4,337 L211.8,336.8 L214.2,336.6 L216.6,336.4 L219,336.1 L221.4,335.8 L223.8,335.4 L226.2,335 L228.6,334.6 L231,334.1 L233.4,333.5 L235.8,332.9 L238.2,332.2 L240.6,331.5 L243,330.6 L245.4,329.7 L247.8,328.7 L250.2,327.6 L252.6,326.4 L255,325.1 L257.4,323.7 L259.8,322.1 L262.2,320.5 L264.6,318.7 L267,316.8 L269.4,314.8 L271.8,312.6 L274.2,310.3 L276.6,307.9 L279,305.3 L281.4,302.6 L283.8,299.8 L286.2,296.8 L288.6,293.7 L291,290.5 L293.4,287.2 L295.8,283.8 L298.2,280.3 L300.6,276.8 L303,273.2 L305.4,269.5 L307.8,265.8 L310.2,262.1 L312.6,258.3 L315,254.6 L317.4,251 L319.8,247.3 L322.2,243.8 L324.6,240.4 L327,237.1 L329.4,233.9 L331.8,230.8 L334.2,228 L336.6,225.3 L339,222.9 L341.4,220.7 L343.8,218.7 L346.2,217 L348.6,215.6 L351,214.4 L353.4,213.5 L355.8,213 L358.2,212.7 L360.6,212.7 L363,213 L365.4,213.6 L367.8,214.6 L370.2,215.8 L372.6,217.2 L375,219 L377.4,221 L379.8,223.2 L382.2,225.7 L384.6,228.4 L387,231.3 L389.4,234.3 L391.8,237.5 L394.2,240.9 L396.6,244.3 L399,247.9 L401.4,251.5 L403.8,255.2 L406.2,258.9 L408.6,262.6 L411,266.3 L413.4,270 L415.8,273.7 L418.2,277.3 L420.6,280.9 L423,284.3 L425.4,287.7 L427.8,291 L430.2,294.2 L432.6,297.2 L435,300.2 L437.4,303 L439.8,305.7 L442.2,308.2 L444.6,310.6 L447,312.9 L449.4,315.1 L451.8,317.1 L454.2,319 L456.6,320.7 L459,322.4 L461.4,323.9 L463.8,325.3 L466.2,326.6 L468.6,327.8 L471,328.9 L473.4,329.9 L475.8,330.8 L478.2,331.6 L480.6,332.3 L483,333 L485.4,333.6 L487.8,334.2 L490.2,334.7 L492.6,335.1 L495,335.5 L497.4,335.8 L499.8,336.1 L502.2,336.4 L504.6,336.7 L507,336.9 L509.4,337 L511.8,337.2 L514.2,337.4 L516.6,337.5 L519,337.6 L521.4,337.7 L523.8,337.8 L526.2,337.8 L528.6,337.9 L531,337.9 L533.4,338 L535.8,338 L538.2,338 L540.6,338.1 L543,338.1 L545.4,338.1 L547.8,338.1 L550.2,338.1 " fill="none"/></g>
</g>
<g id="plotPoints" clip-path="url(#plot_window)"><g stroke="rgb(0,0,0)"></g>
<g stroke="rgb(0,0,0)"></g>
<g stroke="rgb(0,0,0)"></g>
<g stroke="rgb(0,0,0)"></g>
<g stroke="rgb(0,0,0)"></g>
</g>
<g id="limitPoints" stroke="rgb(119,136,153)" fill="rgb(250,235,215)"></g>
<g id="legendBackground" stroke="rgb(119,136,153)" fill="rgb(255,255,255)" stroke-width="1"><rect x="564.2" y="62" width="173.8" height="165"/><rect x="564.2" y="62" width="173.8" height="165"/></g>
<g id="legendPoints"><g stroke="rgb(0,0,139)" stroke-width="1"><line x1="579.2" y1="92" x2="594.2" y2="92"/></g>
<g stroke="rgb(139,0,0)" stroke-width="1"><line x1="579.2" y1="122" x2="594.2" y2="122"/></g>
<g stroke="rgb(0,100,0)" stroke-width="1"><line x1="579.2" y1="152" x2="594.2" y2="152"/></g>
<g stroke="rgb(255,140,0)" stroke-width="1"><line x1="579.2" y1="182" x2="594.2" y2="182"/></g>
<g stroke="rgb(127,255,0)" stroke-width="1"><line x1="579.2" y1="212" x2="594.2" y2="212"/></g>
</g>
<g id="legendText">
<text x="601.7" y="92" font-size="15" font-family="Verdana">&#x3BC; = 0, &#x3C3; = 1</text>
<text x="601.7" y="122" font-size="15" font-family="Verdana">&#x3BC; = 0, &#x3C3; = 0.5</text>
<text x="601.7" y="152" font-size="15" font-family="Verdana">&#x3BC; = 0, &#x3C3; = 2</text>
<text x="601.7" y="182" font-size="15" font-family="Verdana">&#x3BC; = -1, &#x3C3; = 1</text>
<text x="601.7" y="212" font-size="15" font-family="Verdana">&#x3BC; = 1, &#x3C3; = 1</text></g>
<g id="title">
<text x="375" y="40" text-anchor="middle" font-size="20" font-family="Verdana">Normal Distribution PDF</text></g>
</svg>
