<?xml version="1.0" encoding="UTF-8" standalone="no"?>
<svg width="750" height ="400" version="1.1" xmlns="http://www.w3.org/2000/svg"
 xmlns:xlink="http://www.w3.org/1999/xlink"
 xmlns:ev="http://www.w3.org/2001/xml-events">

<!-- SVG plot written using Boost.Plot program (Creator Jacob Voytko) --> 
<!-- Use, modification and distribution of Boost.Plot subject to the --> 
<!-- Boost Software License, Version 1.0.--> 
<!-- (See accompanying file LICENSE_1_0.txt --> 
<!-- or copy at http://www.boost.org/LICENSE_1_0.txt) --> 

<clipPath id="plot_window"><rect x="71.2" y="63" width="517.2" height="274.2"/></clipPath>
<g id="imageBackground" stroke="rgb(119,136,153)" fill="rgb(255,255,255)" stroke-width="2"><rect x="0" y="0" width="750" height="400"/></g>
<g id="plotBackground" stroke="rgb(119,136,153)" fill="rgb(255,255,255)" stroke-width="2"><rect x="70.2" y="62" width="519.2" height="276.2"/></g>
<g id="yMinorGrid" stroke="rgb(200,220,255)" stroke-width="0.5"></g>
<g id="yMajorGrid" stroke="rgb(200,220,255)" stroke-width="1"></g>
<g id="xMinorGrid" stroke="rgb(200,220,255)" stroke-width="0.5"></g>
<g id="xMajorGrid" stroke="rgb(200,220,255)" stroke-width="1"></g>
<g id="yAxis" stroke="rgb(0,0,0)" stroke-width="1"><line x1="70.2" y1="62" x2="70.2" y2="338.2"/></g>
<g id="xAxis" stroke="rgb(0,0,0)" stroke-width="1"><line x1="65.2" y1="338.2" x2="589.4" y2="338.2"/><line x1="65.2" y1="338.2" x2="589.4" y2="338.2"/></g>
<g id="yMinorTicks" stroke="rgb(0,0,0)" stroke-width="1"><path d="M68.2,324.3 L70.2,324.3 M68.2,310.4 L70.2,310.4 M68.2,296.5 L70.2,296.5 M68.2,282.5 L70.2,282.5 M68.2,254.7 L70.2,254.7 M68.2,240.8 L70.2,240.8 M68.2,226.9 L70.2,226.9 M68.2,213 L70.2,213 M68.2,185.2 L70.2,185.2 M68.2,171.2 L70.2,171.2 M68.2,157.3 L70.2,157.3 M68.2,143.4 L70.2,143.4 M68.2,115.6 L70.2,115.6 M68.2,101.7 L70.2,101.7 M68.2,87.77 L70.2,87.77 M68.2,73.86 L70.2,73.86 M68.2,338.2 L70.2,338.2 "/></g>
<g id="xMinorTicks" stroke="rgb(0,0,0)" stroke-width="1"><path d="M86.35,338.2 L86.35,340.2 M102.5,338.2 L102.5,340.2 M118.6,338.2 L118.6,340.2 M134.8,338.2 L134.8,340.2 M167.1,338.2 L167.1,340.2 M183.2,338.2 L183.2,340.2 M199.4,338.2 L199.4,340.2 M215.5,338.2 L215.5,340.2 M247.8,338.2 L247.8,340.2 M264,338.2 L264,340.2 M280.1,338.2 L280.1,340.2 M296.3,338.2 L296.3,340.2 M328.6,338.2 L328.6,340.2 M344.7,338.2 L344.7,340.2 M360.9,338.2 L360.9,340.2 M377,338.2 L377,340.2 M409.3,338.2 L409.3,340.2 M425.5,338.2 L425.5,340.2 M441.6,338.2 L441.6,340.2 M457.8,338.2 L457.8,340.2 M490.1,338.2 L490.1,340.2 M506.2,338.2 L506.2,340.2 M522.4,338.2 L522.4,340.2 M538.5,338.2 L538.5,340.2 M570.8,338.2 L570.8,340.2 M587,338.2 L587,340.2 "/></g>
<g id="yMajorTicks" stroke="rgb(0,0,0)" stroke-width="2"><path d="M65.2,338.2 L70.2,338.2 M65.2,268.6 L70.2,268.6 M65.2,199.1 L70.2,199.1 M65.2,129.5 L70.2,129.5 M65.2,338.2 L70.2,338.2 "/></g>
<g id="xMajorTicks" stroke="rgb(0,0,0)" stroke-width="2"><path d="M70.2,338.2 L70.2,343.2 M150.9,338.2 L150.9,343.2 M231.7,338.2 L231.7,343.2 M312.4,338.2 L312.4,343.2 M393.2,338.2 L393.2,343.2 M473.9,338.2 L473.9,343.2 M554.7,338.2 L554.7,343.2 "/></g>
<g id="plotLabels">
<text x="70.2" y="357.6" text-anchor="middle" font-size="12" font-family="Verdana">1</text>
<text x="150.9" y="357.6" text-anchor="middle" font-size="12" font-family="Verdana">2</text>
<text x="231.7" y="357.6" text-anchor="middle" font-size="12" font-family="Verdana">3</text>
<text x="312.4" y="357.6" text-anchor="middle" font-size="12" font-family="Verdana">4</text>
<text x="393.2" y="357.6" text-anchor="middle" font-size="12" font-family="Verdana">5</text>
<text x="473.9" y="357.6" text-anchor="middle" font-size="12" font-family="Verdana">6</text>
<text x="554.7" y="357.6" text-anchor="middle" font-size="12" font-family="Verdana">7</text>
<text x="59.2" y="340.6" text-anchor="end" font-size="12" font-family="Verdana">0</text>
<text x="59.2" y="271" text-anchor="end" font-size="12" font-family="Verdana">0.5</text>
<text x="59.2" y="201.5" text-anchor="end" font-size="12" font-family="Verdana">1</text>
<text x="59.2" y="131.9" text-anchor="end" font-size="12" font-family="Verdana">1.5</text>
<text x="59.2" y="340.6" text-anchor="end" font-size="12" font-family="Verdana">0</text></g>
<g id="yLabel">
<text x="30.2" y="200.1" text-anchor="middle" transform = "rotate(-90 30.2 200.1 )" font-size="14" font-family="Verdana">Probability</text></g>
<g id="xLabel">
<text x="329.8" y="384" text-anchor="middle" font-size="14" font-family="Verdana">Random Variable</text></g>
<g id="plotLines" stroke-width="2"><g clip-path="url(#plot_window)" stroke="rgb(0,0,139)" stroke-width="1"><path d="M70.2,268.6 L72.8,271.9 L75.39,274.8 L77.99,277.6 L80.58,280.2 L83.18,282.6 L85.78,284.8 L88.37,286.9 L90.97,288.9 L93.57,290.7 L96.16,292.4 L98.76,294 L101.4,295.6 L104,297 L106.5,298.4 L109.1,299.7 L111.7,300.9 L114.3,302 L116.9,303.1 L119.5,304.2 L122.1,305.2 L124.7,306.1 L127.3,307 L129.9,307.9 L132.5,308.7 L135.1,309.5 L137.7,310.2 L140.3,311 L142.9,311.6 L145.5,312.3 L148.1,312.9 L150.7,313.5 L153.3,314.1 L155.9,314.7 L158.5,315.2 L161.1,315.7 L163.7,316.2 L166.3,316.7 L168.9,317.2 L171.5,317.6 L174,318.1 L176.6,318.5 L179.2,318.9 L181.8,319.3 L184.4,319.7 L187,320 L189.6,320.4 L192.2,320.7 L194.8,321 L197.4,321.4 L200,321.7 L202.6,322 L205.2,322.3 L207.8,322.6 L210.4,322.8 L213,323.1 L215.6,323.4 L218.2,323.6 L220.8,323.9 L223.4,324.1 L226,324.3 L228.6,324.5 L231.2,324.8 L233.8,325 L236.4,325.2 L239,325.4 L241.5,325.6 L244.1,325.8 L246.7,326 L249.3,326.2 L251.9,326.3 L254.5,326.5 L257.1,326.7 L259.7,326.8 L262.3,327 L264.9,327.2 L267.5,327.3 L270.1,327.5 L272.7,327.6 L275.3,327.8 L277.9,327.9 L280.5,328 L283.1,328.2 L285.7,328.3 L288.3,328.4 L290.9,328.6 L293.5,328.7 L296.1,328.8 L298.7,328.9 L301.3,329 L303.9,329.1 L306.5,329.3 L309.1,329.4 L311.6,329.5 L314.2,329.6 L316.8,329.7 L319.4,329.8 L322,329.9 L324.6,330 L327.2,330.1 L329.8,330.2 L332.4,330.3 L335,330.3 L337.6,330.4 L340.2,330.5 L342.8,330.6 L345.4,330.7 L348,330.8 L350.6,330.8 L353.2,330.9 L355.8,331 L358.4,331.1 L361,331.2 L363.6,331.2 L366.2,331.3 L368.8,331.4 L371.4,331.4 L374,331.5 L376.6,331.6 L379.1,331.6 L381.7,331.7 L384.3,331.8 L386.9,331.8 L389.5,331.9 L392.1,332 L394.7,332 L397.3,332.1 L399.9,332.1 L402.5,332.2 L405.1,332.2 L407.7,332.3 L410.3,332.4 L412.9,332.4 L415.5,332.5 L418.1,332.5 L420.7,332.6 L423.3,332.6 L425.9,332.7 L428.5,332.7 L431.1,332.8 L433.7,332.8 L436.3,332.9 L438.9,332.9 L441.5,332.9 L444.1,333 L446.6,333 L449.2,333.1 L451.8,333.1 L454.4,333.2 L457,333.2 L459.6,333.2 L462.2,333.3 L464.8,333.3 L467.4,333.4 L470,333.4 L472.6,333.4 L475.2,333.5 L477.8,333.5 L480.4,333.6 L483,333.6 L485.6,333.6 L488.2,333.7 L490.8,333.7 L493.4,333.7 L496,333.8 L498.6,333.8 L501.2,333.8 L503.8,333.9 L506.4,333.9 L509,333.9 L511.6,334 L514.2,334 L516.7,334 L519.3,334.1 L521.9,334.1 L524.5,334.1 L527.1,334.2 L529.7,334.2 L532.3,334.2 L534.9,334.2 L537.5,334.3 L540.1,334.3 L542.7,334.3 L545.3,334.3 L547.9,334.4 L550.5,334.4 L553.1,334.4 L555.7,334.5 L558.3,334.5 L560.9,334.5 L563.5,334.5 L566.1,334.6 L568.7,334.6 L571.3,334.6 L573.9,334.6 L576.5,334.7 L579.1,334.7 L581.7,334.7 L584.2,334.7 L586.8,334.7 " fill="none"/></g>
<g clip-path="url(#plot_window)" stroke="rgb(139,0,0)" stroke-width="1"><path d="M70.2,199.1 L72.8,207.6 L75.39,215.4 L77.99,222.5 L80.58,229 L83.18,234.9 L85.78,240.4 L88.37,245.5 L90.97,250.2 L93.57,254.5 L96.16,258.5 L98.76,262.3 L101.4,265.8 L104,269 L106.5,272 L109.1,274.9 L111.7,277.5 L114.3,280 L116.9,282.4 L119.5,284.6 L122.1,286.7 L124.7,288.6 L127.3,290.5 L129.9,292.2 L132.5,293.9 L135.1,295.4 L137.7,296.9 L140.3,298.3 L142.9,299.7 L145.5,300.9 L148.1,302.2 L150.7,303.3 L153.3,304.4 L155.9,305.4 L158.5,306.4 L161.1,307.4 L163.7,308.3 L166.3,309.2 L168.9,310 L171.5,310.8 L174,311.6 L176.6,312.3 L179.2,313 L181.8,313.7 L184.4,314.3 L187,315 L189.6,315.6 L192.2,316.1 L194.8,316.7 L197.4,317.2 L200,317.7 L202.6,318.2 L205.2,318.7 L207.8,319.2 L210.4,319.6 L213,320 L215.6,320.5 L218.2,320.9 L220.8,321.2 L223.4,321.6 L226,322 L228.6,322.3 L231.2,322.7 L233.8,323 L236.4,323.3 L239,323.6 L241.5,323.9 L244.1,324.2 L246.7,324.5 L249.3,324.8 L251.9,325 L254.5,325.3 L257.1,325.5 L259.7,325.8 L262.3,326 L264.9,326.2 L267.5,326.5 L270.1,326.7 L272.7,326.9 L275.3,327.1 L277.9,327.3 L280.5,327.5 L283.1,327.7 L285.7,327.9 L288.3,328 L290.9,328.2 L293.5,328.4 L296.1,328.6 L298.7,328.7 L301.3,328.9 L303.9,329 L306.5,329.2 L309.1,329.3 L311.6,329.5 L314.2,329.6 L316.8,329.7 L319.4,329.9 L322,330 L324.6,330.1 L327.2,330.2 L329.8,330.4 L332.4,330.5 L335,330.6 L337.6,330.7 L340.2,330.8 L342.8,330.9 L345.4,331 L348,331.1 L350.6,331.2 L353.2,331.3 L355.8,331.4 L358.4,331.5 L361,331.6 L363.6,331.7 L366.2,331.8 L368.8,331.9 L371.4,332 L374,332.1 L376.6,332.1 L379.1,332.2 L381.7,332.3 L384.3,332.4 L386.9,332.5 L389.5,332.5 L392.1,332.6 L394.7,332.7 L397.3,332.7 L399.9,332.8 L402.5,332.9 L405.1,332.9 L407.7,333 L410.3,333.1 L412.9,333.1 L415.5,333.2 L418.1,333.3 L420.7,333.3 L423.3,333.4 L425.9,333.4 L428.5,333.5 L431.1,333.5 L433.7,333.6 L436.3,333.7 L438.9,333.7 L441.5,333.8 L444.1,333.8 L446.6,333.9 L449.2,333.9 L451.8,334 L454.4,334 L457,334.1 L459.6,334.1 L462.2,334.1 L464.8,334.2 L467.4,334.2 L470,334.3 L472.6,334.3 L475.2,334.4 L477.8,334.4 L480.4,334.4 L483,334.5 L485.6,334.5 L488.2,334.6 L490.8,334.6 L493.4,334.6 L496,334.7 L498.6,334.7 L501.2,334.7 L503.8,334.8 L506.4,334.8 L509,334.8 L511.6,334.9 L514.2,334.9 L516.7,334.9 L519.3,335 L521.9,335 L524.5,335 L527.1,335.1 L529.7,335.1 L532.3,335.1 L534.9,335.2 L537.5,335.2 L540.1,335.2 L542.7,335.2 L545.3,335.3 L547.9,335.3 L550.5,335.3 L553.1,335.3 L555.7,335.4 L558.3,335.4 L560.9,335.4 L563.5,335.4 L566.1,335.5 L568.7,335.5 L571.3,335.5 L573.9,335.5 L576.5,335.6 L579.1,335.6 L581.7,335.6 L584.2,335.6 L586.8,335.7 " fill="none"/></g>
<g clip-path="url(#plot_window)" stroke="rgb(0,100,0)" stroke-width="1"><path d="M70.2,59.95 L72.8,85.15 L75.39,107.4 L77.99,127.1 L80.58,144.6 L83.18,160.3 L85.78,174.3 L88.37,186.9 L90.97,198.2 L93.57,208.4 L96.16,217.6 L98.76,226 L101.4,233.7 L104,240.6 L106.5,247 L109.1,252.8 L111.7,258.1 L114.3,263 L116.9,267.5 L119.5,271.6 L122.1,275.5 L124.7,279 L127.3,282.3 L129.9,285.3 L132.5,288.2 L135.1,290.8 L137.7,293.2 L140.3,295.5 L142.9,297.7 L145.5,299.6 L148.1,301.5 L150.7,303.2 L153.3,304.9 L155.9,306.4 L158.5,307.9 L161.1,309.2 L163.7,310.5 L166.3,311.7 L168.9,312.8 L171.5,313.9 L174,314.9 L176.6,315.9 L179.2,316.8 L181.8,317.6 L184.4,318.4 L187,319.2 L189.6,319.9 L192.2,320.6 L194.8,321.3 L197.4,321.9 L200,322.5 L202.6,323.1 L205.2,323.6 L207.8,324.1 L210.4,324.6 L213,325.1 L215.6,325.5 L218.2,326 L220.8,326.4 L223.4,326.8 L226,327.1 L228.6,327.5 L231.2,327.8 L233.8,328.2 L236.4,328.5 L239,328.8 L241.5,329.1 L244.1,329.3 L246.7,329.6 L249.3,329.9 L251.9,330.1 L254.5,330.3 L257.1,330.6 L259.7,330.8 L262.3,331 L264.9,331.2 L267.5,331.4 L270.1,331.6 L272.7,331.8 L275.3,331.9 L277.9,332.1 L280.5,332.3 L283.1,332.4 L285.7,332.6 L288.3,332.7 L290.9,332.9 L293.5,333 L296.1,333.1 L298.7,333.2 L301.3,333.4 L303.9,333.5 L306.5,333.6 L309.1,333.7 L311.6,333.8 L314.2,333.9 L316.8,334 L319.4,334.1 L322,334.2 L324.6,334.3 L327.2,334.4 L329.8,334.5 L332.4,334.6 L335,334.6 L337.6,334.7 L340.2,334.8 L342.8,334.9 L345.4,335 L348,335 L350.6,335.1 L353.2,335.2 L355.8,335.2 L358.4,335.3 L361,335.3 L363.6,335.4 L366.2,335.5 L368.8,335.5 L371.4,335.6 L374,335.6 L376.6,335.7 L379.1,335.7 L381.7,335.8 L384.3,335.8 L386.9,335.9 L389.5,335.9 L392.1,336 L394.7,336 L397.3,336 L399.9,336.1 L402.5,336.1 L405.1,336.2 L407.7,336.2 L410.3,336.2 L412.9,336.3 L415.5,336.3 L418.1,336.3 L420.7,336.4 L423.3,336.4 L425.9,336.4 L428.5,336.5 L431.1,336.5 L433.7,336.5 L436.3,336.6 L438.9,336.6 L441.5,336.6 L444.1,336.6 L446.6,336.7 L449.2,336.7 L451.8,336.7 L454.4,336.7 L457,336.8 L459.6,336.8 L462.2,336.8 L464.8,336.8 L467.4,336.9 L470,336.9 L472.6,336.9 L475.2,336.9 L477.8,336.9 L480.4,337 L483,337 L485.6,337 L488.2,337 L490.8,337 L493.4,337.1 L496,337.1 L498.6,337.1 L501.2,337.1 L503.8,337.1 L506.4,337.1 L509,337.2 L511.6,337.2 L514.2,337.2 L516.7,337.2 L519.3,337.2 L521.9,337.2 L524.5,337.2 L527.1,337.3 L529.7,337.3 L532.3,337.3 L534.9,337.3 L537.5,337.3 L540.1,337.3 L542.7,337.3 L545.3,337.3 L547.9,337.4 L550.5,337.4 L553.1,337.4 L555.7,337.4 L558.3,337.4 L560.9,337.4 L563.5,337.4 L566.1,337.4 L568.7,337.4 L571.3,337.5 L573.9,337.5 L576.5,337.5 L579.1,337.5 L581.7,337.5 L584.2,337.5 L586.8,337.5 " fill="none"/></g>
</g>
<g id="plotPoints" clip-path="url(#plot_window)"><g stroke="rgb(0,0,0)"></g>
<g stroke="rgb(0,0,0)"></g>
<g stroke="rgb(0,0,0)"></g>
</g>
<g id="limitPoints" stroke="rgb(119,136,153)" fill="rgb(250,235,215)"></g>
<g id="legendBackground" stroke="rgb(119,136,153)" fill="rgb(255,255,255)" stroke-width="1"><rect x="603.4" y="62" width="134.6" height="105"/><rect x="603.4" y="62" width="134.6" height="105"/></g>
<g id="legendPoints"><g stroke="rgb(0,0,139)" stroke-width="1"><line x1="618.4" y1="92" x2="633.4" y2="92"/></g>
<g stroke="rgb(139,0,0)" stroke-width="1"><line x1="618.4" y1="122" x2="633.4" y2="122"/></g>
<g stroke="rgb(0,100,0)" stroke-width="1"><line x1="618.4" y1="152" x2="633.4" y2="152"/></g>
</g>
<g id="legendText">
<text x="640.9" y="92" font-size="15" font-family="Verdana">scale=0.5</text>
<text x="640.9" y="122" font-size="15" font-family="Verdana">scale=1</text>
<text x="640.9" y="152" font-size="15" font-family="Verdana">scale=2</text></g>
<g id="title">
<text x="375" y="40" text-anchor="middle" font-size="20" font-family="Verdana">Pareto Distribution PDF (location=1)</text></g>
</svg>
