<?xml version="1.0" encoding="UTF-8" standalone="no"?>
<svg width="750" height ="400" version="1.1" xmlns="http://www.w3.org/2000/svg"
 xmlns:xlink="http://www.w3.org/1999/xlink"
 xmlns:ev="http://www.w3.org/2001/xml-events">

<!-- SVG plot written using Boost.Plot program (Creator Jacob Voytko) --> 
<!-- Use, modification and distribution of Boost.Plot subject to the --> 
<!-- Boost Software License, Version 1.0.--> 
<!-- (See accompanying file LICENSE_1_0.txt --> 
<!-- or copy at http://www.boost.org/LICENSE_1_0.txt) --> 

<clipPath id="plot_window"><rect x="71.2" y="63" width="509.4" height="274.2"/></clipPath>
<g id="imageBackground" stroke="rgb(119,136,153)" fill="rgb(255,255,255)" stroke-width="2"><rect x="0" y="0" width="750" height="400"/></g>
<g id="plotBackground" stroke="rgb(119,136,153)" fill="rgb(255,255,255)" stroke-width="2"><rect x="70.2" y="62" width="511.4" height="276.2"/></g>
<g id="yMinorGrid" stroke="rgb(200,220,255)" stroke-width="0.5"></g>
<g id="yMajorGrid" stroke="rgb(200,220,255)" stroke-width="1"></g>
<g id="xMinorGrid" stroke="rgb(200,220,255)" stroke-width="0.5"></g>
<g id="xMajorGrid" stroke="rgb(200,220,255)" stroke-width="1"></g>
<g id="yAxis" stroke="rgb(0,0,0)" stroke-width="1"><line x1="70.2" y1="62" x2="70.2" y2="338.2"/></g>
<g id="xAxis" stroke="rgb(0,0,0)" stroke-width="1"><line x1="65.2" y1="338.2" x2="581.6" y2="338.2"/><line x1="65.2" y1="338.2" x2="581.6" y2="338.2"/></g>
<g id="yMinorTicks" stroke="rgb(0,0,0)" stroke-width="1"><path d="M68.2,332.4 L70.2,332.4 M68.2,326.7 L70.2,326.7 M68.2,320.9 L70.2,320.9 M68.2,315.2 L70.2,315.2 M68.2,303.7 L70.2,303.7 M68.2,297.9 L70.2,297.9 M68.2,292.2 L70.2,292.2 M68.2,286.4 L70.2,286.4 M68.2,274.9 L70.2,274.9 M68.2,269.2 L70.2,269.2 M68.2,263.4 L70.2,263.4 M68.2,257.7 L70.2,257.7 M68.2,246.2 L70.2,246.2 M68.2,240.4 L70.2,240.4 M68.2,234.6 L70.2,234.6 M68.2,228.9 L70.2,228.9 M68.2,217.4 L70.2,217.4 M68.2,211.6 L70.2,211.6 M68.2,205.9 L70.2,205.9 M68.2,200.1 L70.2,200.1 M68.2,188.6 L70.2,188.6 M68.2,182.9 L70.2,182.9 M68.2,177.1 L70.2,177.1 M68.2,171.4 L70.2,171.4 M68.2,159.9 L70.2,159.9 M68.2,154.1 L70.2,154.1 M68.2,148.3 L70.2,148.3 M68.2,142.6 L70.2,142.6 M68.2,131.1 L70.2,131.1 M68.2,125.3 L70.2,125.3 M68.2,119.6 L70.2,119.6 M68.2,113.8 L70.2,113.8 M68.2,102.3 L70.2,102.3 M68.2,96.57 L70.2,96.57 M68.2,90.82 L70.2,90.82 M68.2,85.06 L70.2,85.06 M68.2,73.56 L70.2,73.56 M68.2,67.8 L70.2,67.8 M68.2,62.05 L70.2,62.05 M68.2,338.2 L70.2,338.2 "/></g>
<g id="xMinorTicks" stroke="rgb(0,0,0)" stroke-width="1"><path d="M70.2,338.2 L70.2,340.2 M110.9,338.2 L110.9,340.2 M151.7,338.2 L151.7,340.2 M192.4,338.2 L192.4,340.2 M273.9,338.2 L273.9,340.2 M314.7,338.2 L314.7,340.2 M355.4,338.2 L355.4,340.2 M396.2,338.2 L396.2,340.2 M477.7,338.2 L477.7,340.2 M518.4,338.2 L518.4,340.2 M559.2,338.2 L559.2,340.2 "/></g>
<g id="yMajorTicks" stroke="rgb(0,0,0)" stroke-width="2"><path d="M65.2,338.2 L70.2,338.2 M65.2,309.4 L70.2,309.4 M65.2,280.7 L70.2,280.7 M65.2,251.9 L70.2,251.9 M65.2,223.1 L70.2,223.1 M65.2,194.4 L70.2,194.4 M65.2,165.6 L70.2,165.6 M65.2,136.8 L70.2,136.8 M65.2,108.1 L70.2,108.1 M65.2,79.31 L70.2,79.31 M65.2,338.2 L70.2,338.2 "/></g>
<g id="xMajorTicks" stroke="rgb(0,0,0)" stroke-width="2"><path d="M233.2,338.2 L233.2,343.2 M436.9,338.2 L436.9,343.2 "/></g>
<g id="plotLabels">
<text x="233.2" y="357.6" text-anchor="middle" font-size="12" font-family="Verdana">5</text>
<text x="436.9" y="357.6" text-anchor="middle" font-size="12" font-family="Verdana">10</text>
<text x="59.2" y="340.6" text-anchor="end" font-size="12" font-family="Verdana">0</text>
<text x="59.2" y="311.8" text-anchor="end" font-size="12" font-family="Verdana">0.1</text>
<text x="59.2" y="283.1" text-anchor="end" font-size="12" font-family="Verdana">0.2</text>
<text x="59.2" y="254.3" text-anchor="end" font-size="12" font-family="Verdana">0.3</text>
<text x="59.2" y="225.5" text-anchor="end" font-size="12" font-family="Verdana">0.4</text>
<text x="59.2" y="196.8" text-anchor="end" font-size="12" font-family="Verdana">0.5</text>
<text x="59.2" y="168" text-anchor="end" font-size="12" font-family="Verdana">0.6</text>
<text x="59.2" y="139.2" text-anchor="end" font-size="12" font-family="Verdana">0.7</text>
<text x="59.2" y="110.5" text-anchor="end" font-size="12" font-family="Verdana">0.8</text>
<text x="59.2" y="81.71" text-anchor="end" font-size="12" font-family="Verdana">0.9</text>
<text x="59.2" y="340.6" text-anchor="end" font-size="12" font-family="Verdana">0</text></g>
<g id="yLabel">
<text x="30.2" y="200.1" text-anchor="middle" transform = "rotate(-90 30.2 200.1 )" font-size="14" font-family="Verdana">Probability</text></g>
<g id="xLabel">
<text x="325.9" y="384" text-anchor="middle" font-size="14" font-family="Verdana">Random Variable</text></g>
<g id="plotLines" stroke-width="2"><g clip-path="url(#plot_window)" stroke="rgb(0,0,139)" stroke-width="1"><path d="M70.2,50.54 L72.76,83.51 L75.31,111.1 L77.87,134.5 L80.43,154.4 L82.99,171.5 L85.54,186.4 L88.1,199.3 L90.66,210.7 L93.21,220.7 L95.77,229.6 L98.33,237.5 L100.9,244.6 L103.4,251 L106,256.7 L108.6,261.9 L111.1,266.6 L113.7,270.9 L116.2,274.8 L118.8,278.3 L121.3,281.6 L123.9,284.7 L126.5,287.4 L129,290 L131.6,292.4 L134.1,294.6 L136.7,296.7 L139.2,298.6 L141.8,300.4 L144.4,302 L146.9,303.6 L149.5,305 L152,306.4 L154.6,307.7 L157.1,308.9 L159.7,310 L162.3,311.1 L164.8,312.1 L167.4,313.1 L169.9,314 L172.5,314.9 L175,315.7 L177.6,316.4 L180.2,317.2 L182.7,317.9 L185.3,318.5 L187.8,319.2 L190.4,319.8 L192.9,320.3 L195.5,320.9 L198,321.4 L200.6,321.9 L203.2,322.4 L205.7,322.8 L208.3,323.3 L210.8,323.7 L213.4,324.1 L215.9,324.5 L218.5,324.8 L221.1,325.2 L223.6,325.5 L226.2,325.9 L228.7,326.2 L231.3,326.5 L233.8,326.8 L236.4,327 L239,327.3 L241.5,327.6 L244.1,327.8 L246.6,328.1 L249.2,328.3 L251.7,328.5 L254.3,328.8 L256.9,329 L259.4,329.2 L262,329.4 L264.5,329.6 L267.1,329.7 L269.6,329.9 L272.2,330.1 L274.8,330.3 L277.3,330.4 L279.9,330.6 L282.4,330.7 L285,330.9 L287.5,331 L290.1,331.2 L292.7,331.3 L295.2,331.4 L297.8,331.6 L300.3,331.7 L302.9,331.8 L305.4,331.9 L308,332 L310.6,332.2 L313.1,332.3 L315.7,332.4 L318.2,332.5 L320.8,332.6 L323.3,332.7 L325.9,332.8 L328.5,332.9 L331,332.9 L333.6,333 L336.1,333.1 L338.7,333.2 L341.2,333.3 L343.8,333.4 L346.4,333.4 L348.9,333.5 L351.5,333.6 L354,333.7 L356.6,333.7 L359.1,333.8 L361.7,333.9 L364.3,333.9 L366.8,334 L369.4,334.1 L371.9,334.1 L374.5,334.2 L377,334.2 L379.6,334.3 L382.2,334.4 L384.7,334.4 L387.3,334.5 L389.8,334.5 L392.4,334.6 L394.9,334.6 L397.5,334.7 L400.1,334.7 L402.6,334.8 L405.2,334.8 L407.7,334.9 L410.3,334.9 L412.8,335 L415.4,335 L418,335 L420.5,335.1 L423.1,335.1 L425.6,335.2 L428.2,335.2 L430.7,335.2 L433.3,335.3 L435.9,335.3 L438.4,335.3 L441,335.4 L443.5,335.4 L446.1,335.4 L448.6,335.5 L451.2,335.5 L453.7,335.5 L456.3,335.6 L458.9,335.6 L461.4,335.6 L464,335.7 L466.5,335.7 L469.1,335.7 L471.6,335.8 L474.2,335.8 L476.8,335.8 L479.3,335.8 L481.9,335.9 L484.4,335.9 L487,335.9 L489.5,335.9 L492.1,336 L494.7,336 L497.2,336 L499.8,336 L502.3,336.1 L504.9,336.1 L507.4,336.1 L510,336.1 L512.6,336.2 L515.1,336.2 L517.7,336.2 L520.2,336.2 L522.8,336.2 L525.3,336.3 L527.9,336.3 L530.5,336.3 L533,336.3 L535.6,336.3 L538.1,336.4 L540.7,336.4 L543.2,336.4 L545.8,336.4 L548.4,336.4 L550.9,336.4 L553.5,336.5 L556,336.5 L558.6,336.5 L561.1,336.5 L563.7,336.5 L566.3,336.5 L568.8,336.6 L571.4,336.6 L573.9,336.6 L576.5,336.6 L579,336.6 L581.6,336.6 " fill="none"/></g>
<g clip-path="url(#plot_window)" stroke="rgb(139,0,0)" stroke-width="1"><path d="M70.2,338.2 L72.76,338.2 L75.31,338.2 L77.87,338.2 L80.43,338.2 L82.99,338.2 L85.54,338.2 L88.1,338.2 L90.66,338.2 L93.21,338.2 L95.77,338.2 L98.33,338.2 L100.9,338.2 L103.4,338.2 L106,338.2 L108.6,338.2 L111.1,195 L113.7,203.5 L116.2,211.3 L118.8,218.5 L121.3,225.1 L123.9,231.1 L126.5,236.7 L129,241.8 L131.6,246.6 L134.1,251 L136.7,255.1 L139.2,258.9 L141.8,262.5 L144.4,265.8 L146.9,269 L149.5,271.9 L152,274.6 L154.6,277.2 L157.1,279.6 L159.7,281.9 L162.3,284 L164.8,286.1 L167.4,288 L169.9,289.8 L172.5,291.5 L175,293.1 L177.6,294.7 L180.2,296.1 L182.7,297.5 L185.3,298.9 L187.8,300.1 L190.4,301.3 L192.9,302.5 L195.5,303.6 L198,304.6 L200.6,305.6 L203.2,306.5 L205.7,307.5 L208.3,308.3 L210.8,309.2 L213.4,310 L215.9,310.7 L218.5,311.5 L221.1,312.2 L223.6,312.9 L226.2,313.5 L228.7,314.1 L231.3,314.8 L233.8,315.3 L236.4,315.9 L239,316.4 L241.5,317 L244.1,317.5 L246.6,317.9 L249.2,318.4 L251.7,318.9 L254.3,319.3 L256.9,319.7 L259.4,320.1 L262,320.5 L264.5,320.9 L267.1,321.3 L269.6,321.6 L272.2,322 L274.8,322.3 L277.3,322.7 L279.9,323 L282.4,323.3 L285,323.6 L287.5,323.9 L290.1,324.1 L292.7,324.4 L295.2,324.7 L297.8,324.9 L300.3,325.2 L302.9,325.4 L305.4,325.7 L308,325.9 L310.6,326.1 L313.1,326.3 L315.7,326.5 L318.2,326.7 L320.8,326.9 L323.3,327.1 L325.9,327.3 L328.5,327.5 L331,327.7 L333.6,327.9 L336.1,328 L338.7,328.2 L341.2,328.4 L343.8,328.5 L346.4,328.7 L348.9,328.8 L351.5,329 L354,329.1 L356.6,329.3 L359.1,329.4 L361.7,329.5 L364.3,329.7 L366.8,329.8 L369.4,329.9 L371.9,330.1 L374.5,330.2 L377,330.3 L379.6,330.4 L382.2,330.5 L384.7,330.6 L387.3,330.7 L389.8,330.8 L392.4,330.9 L394.9,331 L397.5,331.1 L400.1,331.2 L402.6,331.3 L405.2,331.4 L407.7,331.5 L410.3,331.6 L412.8,331.7 L415.4,331.8 L418,331.9 L420.5,332 L423.1,332 L425.6,332.1 L428.2,332.2 L430.7,332.3 L433.3,332.3 L435.9,332.4 L438.4,332.5 L441,332.6 L443.5,332.6 L446.1,332.7 L448.6,332.8 L451.2,332.8 L453.7,332.9 L456.3,333 L458.9,333 L461.4,333.1 L464,333.1 L466.5,333.2 L469.1,333.3 L471.6,333.3 L474.2,333.4 L476.8,333.4 L479.3,333.5 L481.9,333.5 L484.4,333.6 L487,333.6 L489.5,333.7 L492.1,333.7 L494.7,333.8 L497.2,333.8 L499.8,333.9 L502.3,333.9 L504.9,334 L507.4,334 L510,334.1 L512.6,334.1 L515.1,334.2 L517.7,334.2 L520.2,334.2 L522.8,334.3 L525.3,334.3 L527.9,334.4 L530.5,334.4 L533,334.4 L535.6,334.5 L538.1,334.5 L540.7,334.5 L543.2,334.6 L545.8,334.6 L548.4,334.7 L550.9,334.7 L553.5,334.7 L556,334.8 L558.6,334.8 L561.1,334.8 L563.7,334.9 L566.3,334.9 L568.8,334.9 L571.4,334.9 L573.9,335 L576.5,335 L579,335 L581.6,335.1 " fill="none"/></g>
<g clip-path="url(#plot_window)" stroke="rgb(0,100,0)" stroke-width="1"><path d="M70.2,338.2 L72.76,338.2 L75.31,338.2 L77.87,338.2 L80.43,338.2 L82.99,338.2 L85.54,338.2 L88.1,338.2 L90.66,338.2 L93.21,338.2 L95.77,338.2 L98.33,338.2 L100.9,338.2 L103.4,338.2 L106,338.2 L108.6,338.2 L111.1,338.2 L113.7,338.2 L116.2,338.2 L118.8,338.2 L121.3,338.2 L123.9,338.2 L126.5,338.2 L129,338.2 L131.6,338.2 L134.1,338.2 L136.7,338.2 L139.2,338.2 L141.8,338.2 L144.4,338.2 L146.9,338.2 L149.5,338.2 L152,242.8 L154.6,246.7 L157.1,250.3 L159.7,253.7 L162.3,257 L164.8,260 L167.4,262.9 L169.9,265.6 L172.5,268.2 L175,270.6 L177.6,272.9 L180.2,275.1 L182.7,277.2 L185.3,279.2 L187.8,281.1 L190.4,282.9 L192.9,284.6 L195.5,286.2 L198,287.8 L200.6,289.3 L203.2,290.7 L205.7,292.1 L208.3,293.4 L210.8,294.6 L213.4,295.9 L215.9,297 L218.5,298.1 L221.1,299.2 L223.6,300.2 L226.2,301.2 L228.7,302.1 L231.3,303 L233.8,303.9 L236.4,304.7 L239,305.6 L241.5,306.3 L244.1,307.1 L246.6,307.8 L249.2,308.5 L251.7,309.2 L254.3,309.9 L256.9,310.5 L259.4,311.1 L262,311.7 L264.5,312.3 L267.1,312.8 L269.6,313.4 L272.2,313.9 L274.8,314.4 L277.3,314.9 L279.9,315.4 L282.4,315.8 L285,316.3 L287.5,316.7 L290.1,317.1 L292.7,317.5 L295.2,317.9 L297.8,318.3 L300.3,318.7 L302.9,319 L305.4,319.4 L308,319.7 L310.6,320.1 L313.1,320.4 L315.7,320.7 L318.2,321 L320.8,321.3 L323.3,321.6 L325.9,321.9 L328.5,322.2 L331,322.4 L333.6,322.7 L336.1,323 L338.7,323.2 L341.2,323.5 L343.8,323.7 L346.4,323.9 L348.9,324.2 L351.5,324.4 L354,324.6 L356.6,324.8 L359.1,325 L361.7,325.2 L364.3,325.4 L366.8,325.6 L369.4,325.8 L371.9,326 L374.5,326.2 L377,326.3 L379.6,326.5 L382.2,326.7 L384.7,326.8 L387.3,327 L389.8,327.2 L392.4,327.3 L394.9,327.5 L397.5,327.6 L400.1,327.8 L402.6,327.9 L405.2,328 L407.7,328.2 L410.3,328.3 L412.8,328.5 L415.4,328.6 L418,328.7 L420.5,328.8 L423.1,329 L425.6,329.1 L428.2,329.2 L430.7,329.3 L433.3,329.4 L435.9,329.5 L438.4,329.6 L441,329.7 L443.5,329.8 L446.1,329.9 L448.6,330 L451.2,330.1 L453.7,330.2 L456.3,330.3 L458.9,330.4 L461.4,330.5 L464,330.6 L466.5,330.7 L469.1,330.8 L471.6,330.9 L474.2,331 L476.8,331 L479.3,331.1 L481.9,331.2 L484.4,331.3 L487,331.4 L489.5,331.4 L492.1,331.5 L494.7,331.6 L497.2,331.7 L499.8,331.7 L502.3,331.8 L504.9,331.9 L507.4,331.9 L510,332 L512.6,332.1 L515.1,332.1 L517.7,332.2 L520.2,332.3 L522.8,332.3 L525.3,332.4 L527.9,332.4 L530.5,332.5 L533,332.5 L535.6,332.6 L538.1,332.7 L540.7,332.7 L543.2,332.8 L545.8,332.8 L548.4,332.9 L550.9,332.9 L553.5,333 L556,333 L558.6,333.1 L561.1,333.1 L563.7,333.2 L566.3,333.2 L568.8,333.3 L571.4,333.3 L573.9,333.4 L576.5,333.4 L579,333.5 L581.6,333.5 " fill="none"/></g>
</g>
<g id="plotPoints" clip-path="url(#plot_window)"><g stroke="rgb(0,0,0)"></g>
<g stroke="rgb(0,0,0)"></g>
<g stroke="rgb(0,0,0)"></g>
</g>
<g id="limitPoints" stroke="rgb(119,136,153)" fill="rgb(250,235,215)"></g>
<g id="legendBackground" stroke="rgb(119,136,153)" fill="rgb(255,255,255)" stroke-width="1"><rect x="595.6" y="62" width="142.4" height="105"/><rect x="595.6" y="62" width="142.4" height="105"/></g>
<g id="legendPoints"><g stroke="rgb(0,0,139)" stroke-width="1"><line x1="610.6" y1="92" x2="625.6" y2="92"/></g>
<g stroke="rgb(139,0,0)" stroke-width="1"><line x1="610.6" y1="122" x2="625.6" y2="122"/></g>
<g stroke="rgb(0,100,0)" stroke-width="1"><line x1="610.6" y1="152" x2="625.6" y2="152"/></g>
</g>
<g id="legendText">
<text x="633.1" y="92" font-size="15" font-family="Verdana">location=1</text>
<text x="633.1" y="122" font-size="15" font-family="Verdana">location=2</text>
<text x="633.1" y="152" font-size="15" font-family="Verdana">location=3</text></g>
<g id="title">
<text x="375" y="40" text-anchor="middle" font-size="20" font-family="Verdana">Pareto Distribution PDF (scale=1)</text></g>
</svg>
