<?xml version="1.0" encoding="UTF-8" standalone="no"?>
<svg width="600" height ="400" version="1.1" xmlns="http://www.w3.org/2000/svg"
 xmlns:xlink="http://www.w3.org/1999/xlink"
 xmlns:ev="http://www.w3.org/2001/xml-events">

<!-- SVG plot written using Boost.Plot program (Creator Jacob Voytko) --> 
<!-- Use, modification and distribution of Boost.Plot subject to the --> 
<!-- Boost Software License, Version 1.0.--> 
<!-- (See accompanying file LICENSE_1_0.txt --> 
<!-- or copy at http://www.boost.org/LICENSE_1_0.txt) --> 

<!-- SVG Plot Copyright John Maddock 2008 --> 
<meta name="copyright" content="John Maddock" />
<meta name="date" content="2008" />
<!-- Use, modification and distribution of this Scalable Vector Graphic file -->
<!-- are subject to the Boost Software License, Version 1.0. -->
<!-- (See accompanying file LICENSE_1_0.txt or copy at http://www.boost.org/LICENSE_1_0.txt) -->

<clipPath id="plot_window"><rect x="62.8" y="63" width="387.5" height="274.2"/></clipPath>
<g id="imageBackground" stroke="rgb(119,136,153)" fill="rgb(255,255,255)" stroke-width="2"><rect x="0" y="0" width="600" height="400"/></g>
<g id="plotBackground" stroke="rgb(119,136,153)" fill="rgb(255,255,255)" stroke-width="2"><rect x="61.8" y="62" width="389.5" height="276.2"/></g>
<g id="yMinorGrid" stroke="rgb(200,220,255)" stroke-width="0.5"></g>
<g id="yMajorGrid" stroke="rgb(200,220,255)" stroke-width="1"></g>
<g id="xMinorGrid" stroke="rgb(200,220,255)" stroke-width="0.5"></g>
<g id="xMajorGrid" stroke="rgb(200,220,255)" stroke-width="1"></g>
<g id="yAxis" stroke="rgb(0,0,0)" stroke-width="1"><line x1="252.7" y1="62" x2="252.7" y2="343.2"/><line x1="61.8" y1="62" x2="61.8" y2="338.2"/></g>
<g id="xAxis" stroke="rgb(0,0,0)" stroke-width="1"><line x1="56.8" y1="313.6" x2="451.3" y2="313.6"/><line x1="56.8" y1="338.2" x2="451.3" y2="338.2"/></g>
<g id="yMinorTicks" stroke="rgb(0,0,0)" stroke-width="1"><path d="M59.8,282.8 L61.8,282.8 M59.8,252 L61.8,252 M59.8,221.3 L61.8,221.3 M59.8,159.7 L61.8,159.7 M59.8,129 L61.8,129 M59.8,98.19 L61.8,98.19 M59.8,313.6 L61.8,313.6 "/></g>
<g id="xMinorTicks" stroke="rgb(0,0,0)" stroke-width="1"><path d="M262.3,338.2 L262.3,340.2 M271.8,338.2 L271.8,340.2 M281.4,338.2 L281.4,340.2 M300.5,338.2 L300.5,340.2 M310,338.2 L310,340.2 M319.5,338.2 L319.5,340.2 M338.6,338.2 L338.6,340.2 M348.2,338.2 L348.2,340.2 M357.7,338.2 L357.7,340.2 M376.8,338.2 L376.8,340.2 M386.4,338.2 L386.4,340.2 M395.9,338.2 L395.9,340.2 M415,338.2 L415,340.2 M424.6,338.2 L424.6,340.2 M434.1,338.2 L434.1,340.2 M243.2,338.2 L243.2,340.2 M233.6,338.2 L233.6,340.2 M224.1,338.2 L224.1,340.2 M205,338.2 L205,340.2 M195.4,338.2 L195.4,340.2 M185.9,338.2 L185.9,340.2 M166.8,338.2 L166.8,340.2 M157.3,338.2 L157.3,340.2 M147.7,338.2 L147.7,340.2 M128.6,338.2 L128.6,340.2 M119.1,338.2 L119.1,340.2 M109.5,338.2 L109.5,340.2 M90.44,338.2 L90.44,340.2 M80.89,338.2 L80.89,340.2 M71.35,338.2 L71.35,340.2 "/></g>
<g id="yMajorTicks" stroke="rgb(0,0,0)" stroke-width="2"><path d="M56.8,313.6 L61.8,313.6 M56.8,190.5 L61.8,190.5 M56.8,67.42 L61.8,67.42 M56.8,313.6 L61.8,313.6 "/></g>
<g id="xMajorTicks" stroke="rgb(0,0,0)" stroke-width="2"><path d="M252.7,338.2 L252.7,343.2 M290.9,338.2 L290.9,343.2 M329.1,338.2 L329.1,343.2 M367.3,338.2 L367.3,343.2 M405.5,338.2 L405.5,343.2 M443.6,338.2 L443.6,343.2 M252.7,338.2 L252.7,343.2 M214.5,338.2 L214.5,343.2 M176.4,338.2 L176.4,343.2 M138.2,338.2 L138.2,343.2 M99.98,338.2 L99.98,343.2 M61.8,338.2 L61.8,343.2 "/></g>
<g id="plotLabels">
<text x="252.7" y="357.6" text-anchor="middle" font-size="12" font-family="Verdana">0</text>
<text x="290.9" y="357.6" text-anchor="middle" font-size="12" font-family="Verdana">1</text>
<text x="329.1" y="357.6" text-anchor="middle" font-size="12" font-family="Verdana">2</text>
<text x="367.3" y="357.6" text-anchor="middle" font-size="12" font-family="Verdana">3</text>
<text x="405.5" y="357.6" text-anchor="middle" font-size="12" font-family="Verdana">4</text>
<text x="443.6" y="357.6" text-anchor="middle" font-size="12" font-family="Verdana">5</text>
<text x="252.7" y="357.6" text-anchor="middle" font-size="12" font-family="Verdana">0</text>
<text x="214.5" y="357.6" text-anchor="middle" font-size="12" font-family="Verdana">-1</text>
<text x="176.4" y="357.6" text-anchor="middle" font-size="12" font-family="Verdana">-2</text>
<text x="138.2" y="357.6" text-anchor="middle" font-size="12" font-family="Verdana">-3</text>
<text x="99.98" y="357.6" text-anchor="middle" font-size="12" font-family="Verdana">-4</text>
<text x="61.8" y="357.6" text-anchor="middle" font-size="12" font-family="Verdana">-5</text>
<text x="50.8" y="316" text-anchor="end" font-size="12" font-family="Verdana">0</text>
<text x="50.8" y="192.9" text-anchor="end" font-size="12" font-family="Verdana">5</text>
<text x="50.8" y="69.82" text-anchor="end" font-size="12" font-family="Verdana">10</text>
<text x="50.8" y="316" text-anchor="end" font-size="12" font-family="Verdana">0</text></g>
<g id="yLabel">
<text x="30.2" y="200.1" text-anchor="middle" transform = "rotate(-90 30.2 200.1 )" font-size="14" font-family="Verdana">powm1(a, z)</text></g>
<g id="xLabel">
<text x="256.5" y="384" text-anchor="middle" font-size="14" font-family="Verdana">z</text></g>
<g id="plotLines" stroke-width="2"><g clip-path="url(#plot_window)" stroke="rgb(0,0,139)" stroke-width="1"><path d="M242.8,67.42 L243.8,125.7 L244.8,171.4 L245.8,207.3 L246.8,235.4 L247.8,257.6 L248.8,274.9 L249.8,288.5 L250.8,299.2 L251.8,307.6 L252.8,314.2 L253.8,319.3 L254.8,323.4 L255.8,326.6 L256.8,329.1 L257.8,331 L258.8,332.6 L259.9,333.8 L260.9,334.7 L261.9,335.5 L262.9,336.1 L263.9,336.5 L264.9,336.9 L265.9,337.2 L266.9,337.4 L267.9,337.6 L268.9,337.7 L269.9,337.8 L270.9,337.9 L271.9,338 L272.9,338 L273.9,338.1 L274.9,338.1 L275.9,338.1 L276.9,338.1 L277.9,338.1 L278.9,338.2 L279.9,338.2 L280.9,338.2 L281.9,338.2 L283,338.2 L284,338.2 L285,338.2 L286,338.2 L287,338.2 L288,338.2 L289,338.2 L290,338.2 L291,338.2 L292,338.2 L293,338.2 L294,338.2 L295,338.2 L296,338.2 L297,338.2 L298,338.2 L299,338.2 L300,338.2 L301,338.2 L302,338.2 L303,338.2 L304,338.2 L305,338.2 L306.1,338.2 L307.1,338.2 L308.1,338.2 L309.1,338.2 L310.1,338.2 L311.1,338.2 L312.1,338.2 L313.1,338.2 L314.1,338.2 L315.1,338.2 L316.1,338.2 L317.1,338.2 L318.1,338.2 L319.1,338.2 L320.1,338.2 L321.1,338.2 L322.1,338.2 L323.1,338.2 L324.1,338.2 L325.1,338.2 L326.1,338.2 L327.1,338.2 L328.1,338.2 L329.2,338.2 L330.2,338.2 L331.2,338.2 L332.2,338.2 L333.2,338.2 L334.2,338.2 L335.2,338.2 L336.2,338.2 L337.2,338.2 L338.2,338.2 L339.2,338.2 L340.2,338.2 L341.2,338.2 L342.2,338.2 L343.2,338.2 L344.2,338.2 L345.2,338.2 L346.2,338.2 L347.2,338.2 L348.2,338.2 L349.2,338.2 L350.2,338.2 L351.2,338.2 L352.3,338.2 L353.3,338.2 L354.3,338.2 L355.3,338.2 L356.3,338.2 L357.3,338.2 L358.3,338.2 L359.3,338.2 L360.3,338.2 L361.3,338.2 L362.3,338.2 L363.3,338.2 L364.3,338.2 L365.3,338.2 L366.3,338.2 L367.3,338.2 L368.3,338.2 L369.3,338.2 L370.3,338.2 L371.3,338.2 L372.3,338.2 L373.3,338.2 L374.3,338.2 L375.3,338.2 L376.4,338.2 L377.4,338.2 L378.4,338.2 L379.4,338.2 L380.4,338.2 L381.4,338.2 L382.4,338.2 L383.4,338.2 L384.4,338.2 L385.4,338.2 L386.4,338.2 L387.4,338.2 L388.4,338.2 L389.4,338.2 L390.4,338.2 L391.4,338.2 L392.4,338.2 L393.4,338.2 L394.4,338.2 L395.4,338.2 L396.4,338.2 L397.4,338.2 L398.4,338.2 L399.5,338.2 L400.5,338.2 L401.5,338.2 L402.5,338.2 L403.5,338.2 L404.5,338.2 L405.5,338.2 L406.5,338.2 L407.5,338.2 L408.5,338.2 L409.5,338.2 L410.5,338.2 L411.5,338.2 L412.5,338.2 L413.5,338.2 L414.5,338.2 L415.5,338.2 L416.5,338.2 L417.5,338.2 L418.5,338.2 L419.5,338.2 L420.5,338.2 L421.5,338.2 L422.6,338.2 L423.6,338.2 L424.6,338.2 L425.6,338.2 L426.6,338.2 L427.6,338.2 L428.6,338.2 L429.6,338.2 L430.6,338.2 L431.6,338.2 L432.6,338.2 L433.6,338.2 L434.6,338.2 L435.6,338.2 L436.6,338.2 L437.6,338.2 L438.6,338.2 L439.6,338.2 L440.6,338.2 L441.6,338.2 L442.6,338.2 L443.6,338.2 " fill="none"/></g>
<g clip-path="url(#plot_window)" stroke="rgb(139,0,0)" stroke-width="1"><path d="M239.5,67.42 L240.5,113.1 L241.5,151 L242.5,182.6 L243.6,208.8 L244.6,230.7 L245.6,248.8 L246.6,263.9 L247.6,276.4 L248.7,286.8 L249.7,295.5 L250.7,302.7 L251.7,308.7 L252.7,313.7 L253.8,317.8 L254.8,321.2 L255.8,324.1 L256.8,326.5 L257.8,328.5 L258.9,330.1 L259.9,331.5 L260.9,332.6 L261.9,333.5 L262.9,334.3 L264,335 L265,335.5 L266,336 L267,336.4 L268.1,336.7 L269.1,336.9 L270.1,337.1 L271.1,337.3 L272.1,337.5 L273.2,337.6 L274.2,337.7 L275.2,337.8 L276.2,337.8 L277.2,337.9 L278.3,338 L279.3,338 L280.3,338 L281.3,338.1 L282.3,338.1 L283.4,338.1 L284.4,338.1 L285.4,338.1 L286.4,338.1 L287.4,338.2 L288.5,338.2 L289.5,338.2 L290.5,338.2 L291.5,338.2 L292.6,338.2 L293.6,338.2 L294.6,338.2 L295.6,338.2 L296.6,338.2 L297.7,338.2 L298.7,338.2 L299.7,338.2 L300.7,338.2 L301.7,338.2 L302.8,338.2 L303.8,338.2 L304.8,338.2 L305.8,338.2 L306.8,338.2 L307.9,338.2 L308.9,338.2 L309.9,338.2 L310.9,338.2 L311.9,338.2 L313,338.2 L314,338.2 L315,338.2 L316,338.2 L317.1,338.2 L318.1,338.2 L319.1,338.2 L320.1,338.2 L321.1,338.2 L322.2,338.2 L323.2,338.2 L324.2,338.2 L325.2,338.2 L326.2,338.2 L327.3,338.2 L328.3,338.2 L329.3,338.2 L330.3,338.2 L331.3,338.2 L332.4,338.2 L333.4,338.2 L334.4,338.2 L335.4,338.2 L336.5,338.2 L337.5,338.2 L338.5,338.2 L339.5,338.2 L340.5,338.2 L341.6,338.2 L342.6,338.2 L343.6,338.2 L344.6,338.2 L345.6,338.2 L346.7,338.2 L347.7,338.2 L348.7,338.2 L349.7,338.2 L350.7,338.2 L351.8,338.2 L352.8,338.2 L353.8,338.2 L354.8,338.2 L355.8,338.2 L356.9,338.2 L357.9,338.2 L358.9,338.2 L359.9,338.2 L361,338.2 L362,338.2 L363,338.2 L364,338.2 L365,338.2 L366.1,338.2 L367.1,338.2 L368.1,338.2 L369.1,338.2 L370.1,338.2 L371.2,338.2 L372.2,338.2 L373.2,338.2 L374.2,338.2 L375.2,338.2 L376.3,338.2 L377.3,338.2 L378.3,338.2 L379.3,338.2 L380.3,338.2 L381.4,338.2 L382.4,338.2 L383.4,338.2 L384.4,338.2 L385.5,338.2 L386.5,338.2 L387.5,338.2 L388.5,338.2 L389.5,338.2 L390.6,338.2 L391.6,338.2 L392.6,338.2 L393.6,338.2 L394.6,338.2 L395.7,338.2 L396.7,338.2 L397.7,338.2 L398.7,338.2 L399.7,338.2 L400.8,338.2 L401.8,338.2 L402.8,338.2 L403.8,338.2 L404.8,338.2 L405.9,338.2 L406.9,338.2 L407.9,338.2 L408.9,338.2 L410,338.2 L411,338.2 L412,338.2 L413,338.2 L414,338.2 L415.1,338.2 L416.1,338.2 L417.1,338.2 L418.1,338.2 L419.1,338.2 L420.2,338.2 L421.2,338.2 L422.2,338.2 L423.2,338.2 L424.2,338.2 L425.3,338.2 L426.3,338.2 L427.3,338.2 L428.3,338.2 L429.4,338.2 L430.4,338.2 L431.4,338.2 L432.4,338.2 L433.4,338.2 L434.5,338.2 L435.5,338.2 L436.5,338.2 L437.5,338.2 L438.5,338.2 L439.6,338.2 L440.6,338.2 L441.6,338.2 L442.6,338.2 " fill="none"/></g>
<g clip-path="url(#plot_window)" stroke="rgb(0,100,0)" stroke-width="1"><path d="M232.8,67.42 L233.9,99.74 L234.9,128.2 L236,153.3 L237.1,175.3 L238.1,194.8 L239.2,211.9 L240.2,227 L241.3,240.3 L242.3,251.9 L243.4,262.2 L244.4,271.3 L245.5,279.3 L246.5,286.3 L247.6,292.5 L248.6,298 L249.7,302.8 L250.8,307 L251.8,310.7 L252.9,314 L253.9,316.9 L255,319.4 L256,321.7 L257.1,323.6 L258.1,325.4 L259.2,326.9 L260.2,328.3 L261.3,329.4 L262.4,330.5 L263.4,331.4 L264.5,332.2 L265.5,332.9 L266.6,333.6 L267.6,334.1 L268.7,334.6 L269.7,335 L270.8,335.4 L271.8,335.7 L272.9,336 L273.9,336.3 L275,336.5 L276.1,336.7 L277.1,336.9 L278.2,337.1 L279.2,337.2 L280.3,337.3 L281.3,337.4 L282.4,337.5 L283.4,337.6 L284.5,337.7 L285.5,337.7 L286.6,337.8 L287.6,337.8 L288.7,337.9 L289.8,337.9 L290.8,338 L291.9,338 L292.9,338 L294,338 L295,338.1 L296.1,338.1 L297.1,338.1 L298.2,338.1 L299.2,338.1 L300.3,338.1 L301.4,338.1 L302.4,338.1 L303.5,338.1 L304.5,338.2 L305.6,338.2 L306.6,338.2 L307.7,338.2 L308.7,338.2 L309.8,338.2 L310.8,338.2 L311.9,338.2 L312.9,338.2 L314,338.2 L315.1,338.2 L316.1,338.2 L317.2,338.2 L318.2,338.2 L319.3,338.2 L320.3,338.2 L321.4,338.2 L322.4,338.2 L323.5,338.2 L324.5,338.2 L325.6,338.2 L326.6,338.2 L327.7,338.2 L328.8,338.2 L329.8,338.2 L330.9,338.2 L331.9,338.2 L333,338.2 L334,338.2 L335.1,338.2 L336.1,338.2 L337.2,338.2 L338.2,338.2 L339.3,338.2 L340.3,338.2 L341.4,338.2 L342.5,338.2 L343.5,338.2 L344.6,338.2 L345.6,338.2 L346.7,338.2 L347.7,338.2 L348.8,338.2 L349.8,338.2 L350.9,338.2 L351.9,338.2 L353,338.2 L354.1,338.2 L355.1,338.2 L356.2,338.2 L357.2,338.2 L358.3,338.2 L359.3,338.2 L360.4,338.2 L361.4,338.2 L362.5,338.2 L363.5,338.2 L364.6,338.2 L365.6,338.2 L366.7,338.2 L367.8,338.2 L368.8,338.2 L369.9,338.2 L370.9,338.2 L372,338.2 L373,338.2 L374.1,338.2 L375.1,338.2 L376.2,338.2 L377.2,338.2 L378.3,338.2 L379.3,338.2 L380.4,338.2 L381.5,338.2 L382.5,338.2 L383.6,338.2 L384.6,338.2 L385.7,338.2 L386.7,338.2 L387.8,338.2 L388.8,338.2 L389.9,338.2 L390.9,338.2 L392,338.2 L393.1,338.2 L394.1,338.2 L395.2,338.2 L396.2,338.2 L397.3,338.2 L398.3,338.2 L399.4,338.2 L400.4,338.2 L401.5,338.2 L402.5,338.2 L403.6,338.2 L404.6,338.2 L405.7,338.2 L406.8,338.2 L407.8,338.2 L408.9,338.2 L409.9,338.2 L411,338.2 L412,338.2 L413.1,338.2 L414.1,338.2 L415.2,338.2 L416.2,338.2 L417.3,338.2 L418.3,338.2 L419.4,338.2 L420.5,338.2 L421.5,338.2 L422.6,338.2 L423.6,338.2 L424.7,338.2 L425.7,338.2 L426.8,338.2 L427.8,338.2 L428.9,338.2 L429.9,338.2 L431,338.2 L432,338.2 L433.1,338.2 L434.2,338.2 L435.2,338.2 L436.3,338.2 L437.3,338.2 L438.4,338.2 L439.4,338.2 L440.5,338.2 L441.5,338.2 L442.6,338.2 L443.6,338.2 " fill="none"/></g>
<g clip-path="url(#plot_window)" stroke="rgb(255,140,0)" stroke-width="1"><path d="M213,67.42 L214.1,85.61 L215.3,102.6 L216.4,118.4 L217.6,133.2 L218.7,147 L219.9,159.8 L221,171.8 L222.2,183 L223.3,193.4 L224.5,203.1 L225.6,212.2 L226.8,220.7 L228,228.6 L229.1,235.9 L230.3,242.8 L231.4,249.2 L232.6,255.2 L233.7,260.8 L234.9,266 L236,270.8 L237.2,275.4 L238.3,279.6 L239.5,283.5 L240.6,287.2 L241.8,290.6 L242.9,293.8 L244.1,296.8 L245.3,299.6 L246.4,302.2 L247.6,304.6 L248.7,306.9 L249.9,309 L251,310.9 L252.2,312.8 L253.3,314.5 L254.5,316.1 L255.6,317.5 L256.8,318.9 L257.9,320.2 L259.1,321.4 L260.2,322.6 L261.4,323.6 L262.6,324.6 L263.7,325.5 L264.9,326.4 L266,327.2 L267.2,327.9 L268.3,328.6 L269.5,329.2 L270.6,329.8 L271.8,330.4 L272.9,330.9 L274.1,331.4 L275.2,331.9 L276.4,332.3 L277.5,332.7 L278.7,333.1 L279.9,333.4 L281,333.7 L282.2,334 L283.3,334.3 L284.5,334.6 L285.6,334.8 L286.8,335 L287.9,335.3 L289.1,335.5 L290.2,335.6 L291.4,335.8 L292.5,336 L293.7,336.1 L294.9,336.3 L296,336.4 L297.2,336.5 L298.3,336.6 L299.5,336.7 L300.6,336.8 L301.8,336.9 L302.9,337 L304.1,337.1 L305.2,337.2 L306.4,337.2 L307.5,337.3 L308.7,337.4 L309.8,337.4 L311,337.5 L312.2,337.5 L313.3,337.6 L314.5,337.6 L315.6,337.6 L316.8,337.7 L317.9,337.7 L319.1,337.7 L320.2,337.8 L321.4,337.8 L322.5,337.8 L323.7,337.9 L324.8,337.9 L326,337.9 L327.1,337.9 L328.3,337.9 L329.5,338 L330.6,338 L331.8,338 L332.9,338 L334.1,338 L335.2,338 L336.4,338 L337.5,338.1 L338.7,338.1 L339.8,338.1 L341,338.1 L342.1,338.1 L343.3,338.1 L344.4,338.1 L345.6,338.1 L346.8,338.1 L347.9,338.1 L349.1,338.1 L350.2,338.1 L351.4,338.1 L352.5,338.1 L353.7,338.1 L354.8,338.1 L356,338.2 L357.1,338.2 L358.3,338.2 L359.4,338.2 L360.6,338.2 L361.7,338.2 L362.9,338.2 L364.1,338.2 L365.2,338.2 L366.4,338.2 L367.5,338.2 L368.7,338.2 L369.8,338.2 L371,338.2 L372.1,338.2 L373.3,338.2 L374.4,338.2 L375.6,338.2 L376.7,338.2 L377.9,338.2 L379.1,338.2 L380.2,338.2 L381.4,338.2 L382.5,338.2 L383.7,338.2 L384.8,338.2 L386,338.2 L387.1,338.2 L388.3,338.2 L389.4,338.2 L390.6,338.2 L391.7,338.2 L392.9,338.2 L394,338.2 L395.2,338.2 L396.4,338.2 L397.5,338.2 L398.7,338.2 L399.8,338.2 L401,338.2 L402.1,338.2 L403.3,338.2 L404.4,338.2 L405.6,338.2 L406.7,338.2 L407.9,338.2 L409,338.2 L410.2,338.2 L411.3,338.2 L412.5,338.2 L413.7,338.2 L414.8,338.2 L416,338.2 L417.1,338.2 L418.3,338.2 L419.4,338.2 L420.6,338.2 L421.7,338.2 L422.9,338.2 L424,338.2 L425.2,338.2 L426.3,338.2 L427.5,338.2 L428.6,338.2 L429.8,338.2 L431,338.2 L432.1,338.2 L433.3,338.2 L434.4,338.2 L435.6,338.2 L436.7,338.2 L437.9,338.2 L439,338.2 L440.2,338.2 L441.3,338.2 L442.5,338.2 " fill="none"/></g>
<g clip-path="url(#plot_window)" stroke="rgb(127,255,0)" stroke-width="1"><path d="M61.8,234.5 L63.71,235.9 L65.62,237.4 L67.53,238.8 L69.44,240.3 L71.35,241.7 L73.26,243 L75.16,244.4 L77.07,245.7 L78.98,247.1 L80.89,248.4 L82.8,249.6 L84.71,250.9 L86.62,252.2 L88.53,253.4 L90.44,254.6 L92.35,255.8 L94.26,257 L96.17,258.1 L98.08,259.3 L99.98,260.4 L101.9,261.5 L103.8,262.6 L105.7,263.7 L107.6,264.7 L109.5,265.8 L111.4,266.8 L113.3,267.9 L115.3,268.9 L117.2,269.8 L119.1,270.8 L121,271.8 L122.9,272.7 L124.8,273.7 L126.7,274.6 L128.6,275.5 L130.5,276.4 L132.4,277.3 L134.4,278.1 L136.3,279 L138.2,279.8 L140.1,280.7 L142,281.5 L143.9,282.3 L145.8,283.1 L147.7,283.9 L149.6,284.7 L151.5,285.4 L153.4,286.2 L155.4,286.9 L157.3,287.7 L159.2,288.4 L161.1,289.1 L163,289.8 L164.9,290.5 L166.8,291.2 L168.7,291.8 L170.6,292.5 L172.5,293.2 L174.4,293.8 L176.4,294.4 L178.3,295.1 L180.2,295.7 L182.1,296.3 L184,296.9 L185.9,297.5 L187.8,298.1 L189.7,298.6 L191.6,299.2 L193.5,299.8 L195.4,300.3 L197.4,300.8 L199.3,301.4 L201.2,301.9 L203.1,302.4 L205,302.9 L206.9,303.4 L208.8,303.9 L210.7,304.4 L212.6,304.9 L214.5,305.4 L216.4,305.8 L218.4,306.3 L220.3,306.8 L222.2,307.2 L224.1,307.7 L226,308.1 L227.9,308.5 L229.8,308.9 L231.7,309.4 L233.6,309.8 L235.5,310.2 L237.4,310.6 L239.4,311 L241.3,311.4 L243.2,311.7 L245.1,312.1 L247,312.5 L248.9,312.9 L250.8,313.2 L252.7,313.6 L254.6,313.9 L256.5,314.3 L258.4,314.6 L260.4,315 L262.3,315.3 L264.2,315.6 L266.1,315.9 L268,316.3 L269.9,316.6 L271.8,316.9 L273.7,317.2 L275.6,317.5 L277.5,317.8 L279.5,318.1 L281.4,318.4 L283.3,318.6 L285.2,318.9 L287.1,319.2 L289,319.5 L290.9,319.7 L292.8,320 L294.7,320.3 L296.6,320.5 L298.5,320.8 L300.5,321 L302.4,321.3 L304.3,321.5 L306.2,321.7 L308.1,322 L310,322.2 L311.9,322.4 L313.8,322.7 L315.7,322.9 L317.6,323.1 L319.5,323.3 L321.5,323.5 L323.4,323.7 L325.3,323.9 L327.2,324.2 L329.1,324.4 L331,324.6 L332.9,324.7 L334.8,324.9 L336.7,325.1 L338.6,325.3 L340.5,325.5 L342.5,325.7 L344.4,325.9 L346.3,326 L348.2,326.2 L350.1,326.4 L352,326.5 L353.9,326.7 L355.8,326.9 L357.7,327 L359.6,327.2 L361.5,327.4 L363.5,327.5 L365.4,327.7 L367.3,327.8 L369.2,328 L371.1,328.1 L373,328.3 L374.9,328.4 L376.8,328.5 L378.7,328.7 L380.6,328.8 L382.5,328.9 L384.5,329.1 L386.4,329.2 L388.3,329.3 L390.2,329.5 L392.1,329.6 L394,329.7 L395.9,329.8 L397.8,329.9 L399.7,330.1 L401.6,330.2 L403.5,330.3 L405.5,330.4 L407.4,330.5 L409.3,330.6 L411.2,330.7 L413.1,330.8 L415,331 L416.9,331.1 L418.8,331.2 L420.7,331.3 L422.6,331.4 L424.6,331.5 L426.5,331.6 L428.4,331.6 L430.3,331.7 L432.2,331.8 L434.1,331.9 L436,332 L437.9,332.1 L439.8,332.2 L441.7,332.3 L443.6,332.4 " fill="none"/></g>
<g clip-path="url(#plot_window)" stroke="rgb(0,0,139)" stroke-width="1"><path d="M61.8,330.1 L63.71,330 L65.62,330 L67.53,329.9 L69.44,329.8 L71.35,329.7 L73.26,329.6 L75.16,329.5 L77.07,329.4 L78.98,329.3 L80.89,329.2 L82.8,329.1 L84.71,329 L86.62,328.9 L88.53,328.8 L90.44,328.7 L92.35,328.6 L94.26,328.4 L96.17,328.3 L98.08,328.2 L99.98,328.1 L101.9,328 L103.8,327.9 L105.7,327.8 L107.6,327.7 L109.5,327.5 L111.4,327.4 L113.3,327.3 L115.3,327.2 L117.2,327.1 L119.1,326.9 L121,326.8 L122.9,326.7 L124.8,326.5 L126.7,326.4 L128.6,326.3 L130.5,326.1 L132.4,326 L134.4,325.9 L136.3,325.7 L138.2,325.6 L140.1,325.5 L142,325.3 L143.9,325.2 L145.8,325 L147.7,324.9 L149.6,324.7 L151.5,324.6 L153.4,324.4 L155.4,324.3 L157.3,324.1 L159.2,324 L161.1,323.8 L163,323.6 L164.9,323.5 L166.8,323.3 L168.7,323.1 L170.6,323 L172.5,322.8 L174.4,322.6 L176.4,322.4 L178.3,322.3 L180.2,322.1 L182.1,321.9 L184,321.7 L185.9,321.5 L187.8,321.4 L189.7,321.2 L191.6,321 L193.5,320.8 L195.4,320.6 L197.4,320.4 L199.3,320.2 L201.2,320 L203.1,319.8 L205,319.6 L206.9,319.4 L208.8,319.2 L210.7,318.9 L212.6,318.7 L214.5,318.5 L216.4,318.3 L218.4,318.1 L220.3,317.8 L222.2,317.6 L224.1,317.4 L226,317.1 L227.9,316.9 L229.8,316.7 L231.7,316.4 L233.6,316.2 L235.5,315.9 L237.4,315.7 L239.4,315.4 L241.3,315.2 L243.2,314.9 L245.1,314.7 L247,314.4 L248.9,314.1 L250.8,313.9 L252.7,313.6 L254.6,313.3 L256.5,313 L258.4,312.7 L260.4,312.5 L262.3,312.2 L264.2,311.9 L266.1,311.6 L268,311.3 L269.9,311 L271.8,310.7 L273.7,310.4 L275.6,310.1 L277.5,309.7 L279.5,309.4 L281.4,309.1 L283.3,308.8 L285.2,308.4 L287.1,308.1 L289,307.8 L290.9,307.4 L292.8,307.1 L294.7,306.7 L296.6,306.4 L298.5,306 L300.5,305.7 L302.4,305.3 L304.3,304.9 L306.2,304.6 L308.1,304.2 L310,303.8 L311.9,303.4 L313.8,303 L315.7,302.6 L317.6,302.2 L319.5,301.8 L321.5,301.4 L323.4,301 L325.3,300.6 L327.2,300.2 L329.1,299.7 L331,299.3 L332.9,298.9 L334.8,298.4 L336.7,298 L338.6,297.5 L340.5,297.1 L342.5,296.6 L344.4,296.1 L346.3,295.7 L348.2,295.2 L350.1,294.7 L352,294.2 L353.9,293.7 L355.8,293.2 L357.7,292.7 L359.6,292.2 L361.5,291.7 L363.5,291.2 L365.4,290.7 L367.3,290.1 L369.2,289.6 L371.1,289 L373,288.5 L374.9,287.9 L376.8,287.4 L378.7,286.8 L380.6,286.2 L382.5,285.6 L384.5,285 L386.4,284.4 L388.3,283.8 L390.2,283.2 L392.1,282.6 L394,282 L395.9,281.4 L397.8,280.7 L399.7,280.1 L401.6,279.4 L403.5,278.8 L405.5,278.1 L407.4,277.4 L409.3,276.7 L411.2,276.1 L413.1,275.4 L415,274.7 L416.9,273.9 L418.8,273.2 L420.7,272.5 L422.6,271.8 L424.6,271 L426.5,270.3 L428.4,269.5 L430.3,268.7 L432.2,267.9 L434.1,267.2 L436,266.4 L437.9,265.5 L439.8,264.7 L441.7,263.9 L443.6,263.1 " fill="none"/></g>
</g>
<g id="plotPoints" clip-path="url(#plot_window)"><g stroke="rgb(0,0,0)"></g>
<g stroke="rgb(0,0,0)"></g>
<g stroke="rgb(0,0,0)"></g>
<g stroke="rgb(0,0,0)"></g>
<g stroke="rgb(0,0,0)"></g>
<g stroke="rgb(0,0,0)"></g>
</g>
<g id="limitPoints" stroke="rgb(119,136,153)" fill="rgb(250,235,215)"></g>
<g id="legendBackground" stroke="rgb(119,136,153)" fill="rgb(255,255,255)" stroke-width="1"><rect x="465.3" y="62" width="122.7" height="182"/><rect x="465.3" y="62" width="122.7" height="182"/></g>
<g id="legendPoints"><g stroke="rgb(0,0,139)" stroke-width="1"><line x1="479.3" y1="90" x2="493.3" y2="90"/></g>
<g stroke="rgb(139,0,0)" stroke-width="1"><line x1="479.3" y1="118" x2="493.3" y2="118"/></g>
<g stroke="rgb(0,100,0)" stroke-width="1"><line x1="479.3" y1="146" x2="493.3" y2="146"/></g>
<g stroke="rgb(255,140,0)" stroke-width="1"><line x1="479.3" y1="174" x2="493.3" y2="174"/></g>
<g stroke="rgb(127,255,0)" stroke-width="1"><line x1="479.3" y1="202" x2="493.3" y2="202"/></g>
<g stroke="rgb(0,0,139)" stroke-width="1"><line x1="479.3" y1="230" x2="493.3" y2="230"/></g>
</g>
<g id="legendText">
<text x="500.3" y="90" font-size="14" font-family="Verdana">a=0.0001</text>
<text x="500.3" y="118" font-size="14" font-family="Verdana">a=0.001</text>
<text x="500.3" y="146" font-size="14" font-family="Verdana">a=0.01</text>
<text x="500.3" y="174" font-size="14" font-family="Verdana">a=0.1</text>
<text x="500.3" y="202" font-size="14" font-family="Verdana">a=0.75</text>
<text x="500.3" y="230" font-size="14" font-family="Verdana">a=1.25</text></g>
<g id="title">
<text x="300" y="40" text-anchor="middle" font-size="20" font-family="Verdana">powm1</text></g>
</svg>
