<?xml version="1.0" encoding="UTF-8" standalone="no"?>
<svg width="750" height ="400" version="1.1" xmlns="http://www.w3.org/2000/svg"
 xmlns:xlink="http://www.w3.org/1999/xlink"
 xmlns:ev="http://www.w3.org/2001/xml-events">

<!-- SVG plot written using Boost.Plot program (Creator Jacob Voytko) --> 
<!-- Use, modification and distribution of Boost.Plot subject to the --> 
<!-- Boost Software License, Version 1.0.--> 
<!-- (See accompanying file LICENSE_1_0.txt --> 
<!-- or copy at http://www.boost.org/LICENSE_1_0.txt) --> 

<clipPath id="plot_window"><rect x="71.2" y="63" width="548.6" height="274.2"/></clipPath>
<g id="imageBackground" stroke="rgb(119,136,153)" fill="rgb(255,255,255)" stroke-width="2"><rect x="0" y="0" width="750" height="400"/></g>
<g id="plotBackground" stroke="rgb(119,136,153)" fill="rgb(255,255,255)" stroke-width="2"><rect x="70.2" y="62" width="550.6" height="276.2"/></g>
<g id="yMinorGrid" stroke="rgb(200,220,255)" stroke-width="0.5"></g>
<g id="yMajorGrid" stroke="rgb(200,220,255)" stroke-width="1"></g>
<g id="xMinorGrid" stroke="rgb(200,220,255)" stroke-width="0.5"></g>
<g id="xMajorGrid" stroke="rgb(200,220,255)" stroke-width="1"></g>
<g id="yAxis" stroke="rgb(0,0,0)" stroke-width="1"><line x1="70.2" y1="62" x2="70.2" y2="338.2"/></g>
<g id="xAxis" stroke="rgb(0,0,0)" stroke-width="1"><line x1="65.2" y1="338.2" x2="620.8" y2="338.2"/><line x1="65.2" y1="338.2" x2="620.8" y2="338.2"/></g>
<g id="yMinorTicks" stroke="rgb(0,0,0)" stroke-width="1"><path d="M68.2,333.2 L70.2,333.2 M68.2,328.2 L70.2,328.2 M68.2,323.1 L70.2,323.1 M68.2,318.1 L70.2,318.1 M68.2,308.1 L70.2,308.1 M68.2,303 L70.2,303 M68.2,298 L70.2,298 M68.2,293 L70.2,293 M68.2,283 L70.2,283 M68.2,277.9 L70.2,277.9 M68.2,272.9 L70.2,272.9 M68.2,267.9 L70.2,267.9 M68.2,257.9 L70.2,257.9 M68.2,252.8 L70.2,252.8 M68.2,247.8 L70.2,247.8 M68.2,242.8 L70.2,242.8 M68.2,232.7 L70.2,232.7 M68.2,227.7 L70.2,227.7 M68.2,222.7 L70.2,222.7 M68.2,217.7 L70.2,217.7 M68.2,207.6 L70.2,207.6 M68.2,202.6 L70.2,202.6 M68.2,197.6 L70.2,197.6 M68.2,192.6 L70.2,192.6 M68.2,182.5 L70.2,182.5 M68.2,177.5 L70.2,177.5 M68.2,172.5 L70.2,172.5 M68.2,167.5 L70.2,167.5 M68.2,157.4 L70.2,157.4 M68.2,152.4 L70.2,152.4 M68.2,147.4 L70.2,147.4 M68.2,142.3 L70.2,142.3 M68.2,132.3 L70.2,132.3 M68.2,127.3 L70.2,127.3 M68.2,122.3 L70.2,122.3 M68.2,117.2 L70.2,117.2 M68.2,107.2 L70.2,107.2 M68.2,102.2 L70.2,102.2 M68.2,97.15 L70.2,97.15 M68.2,92.13 L70.2,92.13 M68.2,82.09 L70.2,82.09 M68.2,77.07 L70.2,77.07 M68.2,72.04 L70.2,72.04 M68.2,67.02 L70.2,67.02 M68.2,338.2 L70.2,338.2 "/></g>
<g id="xMinorTicks" stroke="rgb(0,0,0)" stroke-width="1"><path d="M70.2,338.2 L70.2,340.2 M88.96,338.2 L88.96,340.2 M107.7,338.2 L107.7,340.2 M126.5,338.2 L126.5,340.2 M164,338.2 L164,340.2 M182.8,338.2 L182.8,340.2 M201.5,338.2 L201.5,340.2 M220.3,338.2 L220.3,340.2 M257.8,338.2 L257.8,340.2 M276.5,338.2 L276.5,340.2 M295.3,338.2 L295.3,340.2 M314.1,338.2 L314.1,340.2 M351.6,338.2 L351.6,340.2 M370.3,338.2 L370.3,340.2 M389.1,338.2 L389.1,340.2 M407.9,338.2 L407.9,340.2 M445.4,338.2 L445.4,340.2 M464.1,338.2 L464.1,340.2 M482.9,338.2 L482.9,340.2 M501.7,338.2 L501.7,340.2 M539.2,338.2 L539.2,340.2 M557.9,338.2 L557.9,340.2 M576.7,338.2 L576.7,340.2 M595.5,338.2 L595.5,340.2 "/></g>
<g id="yMajorTicks" stroke="rgb(0,0,0)" stroke-width="2"><path d="M65.2,338.2 L70.2,338.2 M65.2,313.1 L70.2,313.1 M65.2,288 L70.2,288 M65.2,262.9 L70.2,262.9 M65.2,237.8 L70.2,237.8 M65.2,212.7 L70.2,212.7 M65.2,187.5 L70.2,187.5 M65.2,162.4 L70.2,162.4 M65.2,137.3 L70.2,137.3 M65.2,112.2 L70.2,112.2 M65.2,87.11 L70.2,87.11 M65.2,62 L70.2,62 M65.2,338.2 L70.2,338.2 "/></g>
<g id="xMajorTicks" stroke="rgb(0,0,0)" stroke-width="2"><path d="M145.2,338.2 L145.2,343.2 M239,338.2 L239,343.2 M332.8,338.2 L332.8,343.2 M426.6,338.2 L426.6,343.2 M520.4,338.2 L520.4,343.2 M614.2,338.2 L614.2,343.2 "/></g>
<g id="plotLabels">
<text x="145.2" y="357.6" text-anchor="middle" font-size="12" font-family="Verdana">5</text>
<text x="239" y="357.6" text-anchor="middle" font-size="12" font-family="Verdana">10</text>
<text x="332.8" y="357.6" text-anchor="middle" font-size="12" font-family="Verdana">15</text>
<text x="426.6" y="357.6" text-anchor="middle" font-size="12" font-family="Verdana">20</text>
<text x="520.4" y="357.6" text-anchor="middle" font-size="12" font-family="Verdana">25</text>
<text x="614.2" y="357.6" text-anchor="middle" font-size="12" font-family="Verdana">30</text>
<text x="59.2" y="340.6" text-anchor="end" font-size="12" font-family="Verdana">0</text>
<text x="59.2" y="315.5" text-anchor="end" font-size="12" font-family="Verdana">0.1</text>
<text x="59.2" y="290.4" text-anchor="end" font-size="12" font-family="Verdana">0.2</text>
<text x="59.2" y="265.3" text-anchor="end" font-size="12" font-family="Verdana">0.3</text>
<text x="59.2" y="240.2" text-anchor="end" font-size="12" font-family="Verdana">0.4</text>
<text x="59.2" y="215.1" text-anchor="end" font-size="12" font-family="Verdana">0.5</text>
<text x="59.2" y="189.9" text-anchor="end" font-size="12" font-family="Verdana">0.6</text>
<text x="59.2" y="164.8" text-anchor="end" font-size="12" font-family="Verdana">0.7</text>
<text x="59.2" y="139.7" text-anchor="end" font-size="12" font-family="Verdana">0.8</text>
<text x="59.2" y="114.6" text-anchor="end" font-size="12" font-family="Verdana">0.9</text>
<text x="59.2" y="89.51" text-anchor="end" font-size="12" font-family="Verdana">1</text>
<text x="59.2" y="64.4" text-anchor="end" font-size="12" font-family="Verdana">1.1</text>
<text x="59.2" y="340.6" text-anchor="end" font-size="12" font-family="Verdana">0</text></g>
<g id="yLabel">
<text x="30.2" y="200.1" text-anchor="middle" transform = "rotate(-90 30.2 200.1 )" font-size="14" font-family="Verdana">Probability</text></g>
<g id="xLabel">
<text x="345.5" y="384" text-anchor="middle" font-size="14" font-family="Verdana">Random Variable</text></g>
<g id="plotLines" stroke-width="2"><g clip-path="url(#plot_window)" stroke="rgb(0,0,139)" stroke-width="1"><path d="M70.2,121.1 L72.95,105.2 L75.71,95.95 L78.46,91.07 L81.21,88.74 L83.97,87.72 L86.72,87.32 L89.47,87.18 L92.22,87.13 L94.98,87.11 L97.73,87.11 L100.5,87.11 L103.2,87.11 L106,87.11 L108.7,87.11 L111.5,87.11 L114.2,87.11 L117,87.11 L119.8,87.11 L122.5,87.11 L125.3,87.11 L128,87.11 L130.8,87.11 L133.5,87.11 L136.3,87.11 L139,87.11 L141.8,87.11 L144.5,87.11 L147.3,87.11 L150,87.11 L152.8,87.11 L155.5,87.11 L158.3,87.11 L161,87.11 L163.8,87.11 L166.6,87.11 L169.3,87.11 L172.1,87.11 L174.8,87.11 L177.6,87.11 L180.3,87.11 L183.1,87.11 L185.8,87.11 L188.6,87.11 L191.3,87.11 L194.1,87.11 L196.8,87.11 L199.6,87.11 L202.3,87.11 L205.1,87.11 L207.8,87.11 L210.6,87.11 L213.4,87.11 L216.1,87.11 L218.9,87.11 L221.6,87.11 L224.4,87.11 L227.1,87.11 L229.9,87.11 L232.6,87.11 L235.4,87.11 L238.1,87.11 L240.9,87.11 L243.6,87.11 L246.4,87.11 L249.1,87.11 L251.9,87.11 L254.7,87.11 L257.4,87.11 L260.2,87.11 L262.9,87.11 L265.7,87.11 L268.4,87.11 L271.2,87.11 L273.9,87.11 L276.7,87.11 L279.4,87.11 L282.2,87.11 L284.9,87.11 L287.7,87.11 L290.4,87.11 L293.2,87.11 L295.9,87.11 L298.7,87.11 L301.5,87.11 L304.2,87.11 L307,87.11 L309.7,87.11 L312.5,87.11 L315.2,87.11 L318,87.11 L320.7,87.11 L323.5,87.11 L326.2,87.11 L329,87.11 L331.7,87.11 L334.5,87.11 L337.2,87.11 L340,87.11 L342.7,87.11 L345.5,87.11 L348.3,87.11 L351,87.11 L353.8,87.11 L356.5,87.11 L359.3,87.11 L362,87.11 L364.8,87.11 L367.5,87.11 L370.3,87.11 L373,87.11 L375.8,87.11 L378.5,87.11 L381.3,87.11 L384,87.11 L386.8,87.11 L389.5,87.11 L392.3,87.11 L395.1,87.11 L397.8,87.11 L400.6,87.11 L403.3,87.11 L406.1,87.11 L408.8,87.11 L411.6,87.11 L414.3,87.11 L417.1,87.11 L419.8,87.11 L422.6,87.11 L425.3,87.11 L428.1,87.11 L430.8,87.11 L433.6,87.11 L436.3,87.11 L439.1,87.11 L441.9,87.11 L444.6,87.11 L447.4,87.11 L450.1,87.11 L452.9,87.11 L455.6,87.11 L458.4,87.11 L461.1,87.11 L463.9,87.11 L466.6,87.11 L469.4,87.11 L472.1,87.11 L474.9,87.11 L477.6,87.11 L480.4,87.11 L483.2,87.11 L485.9,87.11 L488.7,87.11 L491.4,87.11 L494.2,87.11 L496.9,87.11 L499.7,87.11 L502.4,87.11 L505.2,87.11 L507.9,87.11 L510.7,87.11 L513.4,87.11 L516.2,87.11 L518.9,87.11 L521.7,87.11 L524.4,87.11 L527.2,87.11 L530,87.11 L532.7,87.11 L535.5,87.11 L538.2,87.11 L541,87.11 L543.7,87.11 L546.5,87.11 L549.2,87.11 L552,87.11 L554.7,87.11 L557.5,87.11 L560.2,87.11 L563,87.11 L565.7,87.11 L568.5,87.11 L571.2,87.11 L574,87.11 L576.8,87.11 L579.5,87.11 L582.3,87.11 L585,87.11 L587.8,87.11 L590.5,87.11 L593.3,87.11 L596,87.11 L598.8,87.11 L601.5,87.11 L604.3,87.11 L607,87.11 L609.8,87.11 L612.5,87.11 L615.3,87.11 L618,87.11 " fill="none"/></g>
<g clip-path="url(#plot_window)" stroke="rgb(139,0,0)" stroke-width="1"><path d="M70.2,239.4 L72.95,217.2 L75.71,195.9 L78.46,176.1 L81.21,158.4 L83.97,143 L86.72,130 L89.47,119.3 L92.22,110.7 L94.98,104.1 L97.73,99.07 L100.5,95.34 L103.2,92.66 L106,90.77 L108.7,89.47 L111.5,88.6 L114.2,88.03 L117,87.67 L119.8,87.44 L122.5,87.3 L125.3,87.22 L128,87.17 L130.8,87.14 L133.5,87.13 L136.3,87.12 L139,87.11 L141.8,87.11 L144.5,87.11 L147.3,87.11 L150,87.11 L152.8,87.11 L155.5,87.11 L158.3,87.11 L161,87.11 L163.8,87.11 L166.6,87.11 L169.3,87.11 L172.1,87.11 L174.8,87.11 L177.6,87.11 L180.3,87.11 L183.1,87.11 L185.8,87.11 L188.6,87.11 L191.3,87.11 L194.1,87.11 L196.8,87.11 L199.6,87.11 L202.3,87.11 L205.1,87.11 L207.8,87.11 L210.6,87.11 L213.4,87.11 L216.1,87.11 L218.9,87.11 L221.6,87.11 L224.4,87.11 L227.1,87.11 L229.9,87.11 L232.6,87.11 L235.4,87.11 L238.1,87.11 L240.9,87.11 L243.6,87.11 L246.4,87.11 L249.1,87.11 L251.9,87.11 L254.7,87.11 L257.4,87.11 L260.2,87.11 L262.9,87.11 L265.7,87.11 L268.4,87.11 L271.2,87.11 L273.9,87.11 L276.7,87.11 L279.4,87.11 L282.2,87.11 L284.9,87.11 L287.7,87.11 L290.4,87.11 L293.2,87.11 L295.9,87.11 L298.7,87.11 L301.5,87.11 L304.2,87.11 L307,87.11 L309.7,87.11 L312.5,87.11 L315.2,87.11 L318,87.11 L320.7,87.11 L323.5,87.11 L326.2,87.11 L329,87.11 L331.7,87.11 L334.5,87.11 L337.2,87.11 L340,87.11 L342.7,87.11 L345.5,87.11 L348.3,87.11 L351,87.11 L353.8,87.11 L356.5,87.11 L359.3,87.11 L362,87.11 L364.8,87.11 L367.5,87.11 L370.3,87.11 L373,87.11 L375.8,87.11 L378.5,87.11 L381.3,87.11 L384,87.11 L386.8,87.11 L389.5,87.11 L392.3,87.11 L395.1,87.11 L397.8,87.11 L400.6,87.11 L403.3,87.11 L406.1,87.11 L408.8,87.11 L411.6,87.11 L414.3,87.11 L417.1,87.11 L419.8,87.11 L422.6,87.11 L425.3,87.11 L428.1,87.11 L430.8,87.11 L433.6,87.11 L436.3,87.11 L439.1,87.11 L441.9,87.11 L444.6,87.11 L447.4,87.11 L450.1,87.11 L452.9,87.11 L455.6,87.11 L458.4,87.11 L461.1,87.11 L463.9,87.11 L466.6,87.11 L469.4,87.11 L472.1,87.11 L474.9,87.11 L477.6,87.11 L480.4,87.11 L483.2,87.11 L485.9,87.11 L488.7,87.11 L491.4,87.11 L494.2,87.11 L496.9,87.11 L499.7,87.11 L502.4,87.11 L505.2,87.11 L507.9,87.11 L510.7,87.11 L513.4,87.11 L516.2,87.11 L518.9,87.11 L521.7,87.11 L524.4,87.11 L527.2,87.11 L530,87.11 L532.7,87.11 L535.5,87.11 L538.2,87.11 L541,87.11 L543.7,87.11 L546.5,87.11 L549.2,87.11 L552,87.11 L554.7,87.11 L557.5,87.11 L560.2,87.11 L563,87.11 L565.7,87.11 L568.5,87.11 L571.2,87.11 L574,87.11 L576.8,87.11 L579.5,87.11 L582.3,87.11 L585,87.11 L587.8,87.11 L590.5,87.11 L593.3,87.11 L596,87.11 L598.8,87.11 L601.5,87.11 L604.3,87.11 L607,87.11 L609.8,87.11 L612.5,87.11 L615.3,87.11 L618,87.11 " fill="none"/></g>
<g clip-path="url(#plot_window)" stroke="rgb(0,100,0)" stroke-width="1"><path d="M70.2,308.7 L72.95,300.1 L75.71,290.8 L78.46,280.8 L81.21,270.4 L83.97,259.6 L86.72,248.5 L89.47,237.3 L92.22,226.2 L94.98,215.2 L97.73,204.4 L100.5,194 L103.2,183.9 L106,174.4 L108.7,165.3 L111.5,156.8 L114.2,149 L117,141.7 L119.8,135 L122.5,128.9 L125.3,123.3 L128,118.4 L130.8,114 L133.5,110 L136.3,106.6 L139,103.6 L141.8,100.9 L144.5,98.67 L147.3,96.72 L150,95.06 L152.8,93.64 L155.5,92.45 L158.3,91.46 L161,90.63 L163.8,89.94 L166.6,89.38 L169.3,88.91 L172.1,88.54 L174.8,88.24 L177.6,87.99 L180.3,87.8 L183.1,87.64 L185.8,87.52 L188.6,87.42 L191.3,87.35 L194.1,87.29 L196.8,87.25 L199.6,87.21 L202.3,87.19 L205.1,87.17 L207.8,87.15 L210.6,87.14 L213.4,87.13 L216.1,87.13 L218.9,87.12 L221.6,87.12 L224.4,87.12 L227.1,87.11 L229.9,87.11 L232.6,87.11 L235.4,87.11 L238.1,87.11 L240.9,87.11 L243.6,87.11 L246.4,87.11 L249.1,87.11 L251.9,87.11 L254.7,87.11 L257.4,87.11 L260.2,87.11 L262.9,87.11 L265.7,87.11 L268.4,87.11 L271.2,87.11 L273.9,87.11 L276.7,87.11 L279.4,87.11 L282.2,87.11 L284.9,87.11 L287.7,87.11 L290.4,87.11 L293.2,87.11 L295.9,87.11 L298.7,87.11 L301.5,87.11 L304.2,87.11 L307,87.11 L309.7,87.11 L312.5,87.11 L315.2,87.11 L318,87.11 L320.7,87.11 L323.5,87.11 L326.2,87.11 L329,87.11 L331.7,87.11 L334.5,87.11 L337.2,87.11 L340,87.11 L342.7,87.11 L345.5,87.11 L348.3,87.11 L351,87.11 L353.8,87.11 L356.5,87.11 L359.3,87.11 L362,87.11 L364.8,87.11 L367.5,87.11 L370.3,87.11 L373,87.11 L375.8,87.11 L378.5,87.11 L381.3,87.11 L384,87.11 L386.8,87.11 L389.5,87.11 L392.3,87.11 L395.1,87.11 L397.8,87.11 L400.6,87.11 L403.3,87.11 L406.1,87.11 L408.8,87.11 L411.6,87.11 L414.3,87.11 L417.1,87.11 L419.8,87.11 L422.6,87.11 L425.3,87.11 L428.1,87.11 L430.8,87.11 L433.6,87.11 L436.3,87.11 L439.1,87.11 L441.9,87.11 L444.6,87.11 L447.4,87.11 L450.1,87.11 L452.9,87.11 L455.6,87.11 L458.4,87.11 L461.1,87.11 L463.9,87.11 L466.6,87.11 L469.4,87.11 L472.1,87.11 L474.9,87.11 L477.6,87.11 L480.4,87.11 L483.2,87.11 L485.9,87.11 L488.7,87.11 L491.4,87.11 L494.2,87.11 L496.9,87.11 L499.7,87.11 L502.4,87.11 L505.2,87.11 L507.9,87.11 L510.7,87.11 L513.4,87.11 L516.2,87.11 L518.9,87.11 L521.7,87.11 L524.4,87.11 L527.2,87.11 L530,87.11 L532.7,87.11 L535.5,87.11 L538.2,87.11 L541,87.11 L543.7,87.11 L546.5,87.11 L549.2,87.11 L552,87.11 L554.7,87.11 L557.5,87.11 L560.2,87.11 L563,87.11 L565.7,87.11 L568.5,87.11 L571.2,87.11 L574,87.11 L576.8,87.11 L579.5,87.11 L582.3,87.11 L585,87.11 L587.8,87.11 L590.5,87.11 L593.3,87.11 L596,87.11 L598.8,87.11 L601.5,87.11 L604.3,87.11 L607,87.11 L609.8,87.11 L612.5,87.11 L615.3,87.11 L618,87.11 " fill="none"/></g>
<g clip-path="url(#plot_window)" stroke="rgb(255,140,0)" stroke-width="1"><path d="M70.2,330.5 L72.95,328.1 L75.71,325.4 L78.46,322.4 L81.21,319.2 L83.97,315.7 L86.72,311.9 L89.47,307.9 L92.22,303.7 L94.98,299.3 L97.73,294.7 L100.5,289.9 L103.2,285 L106,279.9 L108.7,274.7 L111.5,269.4 L114.2,264 L117,258.5 L119.8,253 L122.5,247.5 L125.3,241.9 L128,236.3 L130.8,230.7 L133.5,225.2 L136.3,219.6 L139,214.2 L141.8,208.8 L144.5,203.4 L147.3,198.2 L150,193 L152.8,188 L155.5,183 L158.3,178.2 L161,173.5 L163.8,168.9 L166.6,164.5 L169.3,160.2 L172.1,156.1 L174.8,152.1 L177.6,148.2 L180.3,144.6 L183.1,141 L185.8,137.6 L188.6,134.4 L191.3,131.3 L194.1,128.3 L196.8,125.5 L199.6,122.9 L202.3,120.3 L205.1,118 L207.8,115.7 L210.6,113.6 L213.4,111.6 L216.1,109.7 L218.9,107.9 L221.6,106.3 L224.4,104.8 L227.1,103.3 L229.9,102 L232.6,100.7 L235.4,99.55 L238.1,98.48 L240.9,97.48 L243.6,96.55 L246.4,95.7 L249.1,94.91 L251.9,94.19 L254.7,93.52 L257.4,92.91 L260.2,92.35 L262.9,91.84 L265.7,91.37 L268.4,90.95 L271.2,90.56 L273.9,90.21 L276.7,89.88 L279.4,89.59 L282.2,89.33 L284.9,89.09 L287.7,88.88 L290.4,88.68 L293.2,88.51 L295.9,88.35 L298.7,88.21 L301.5,88.08 L304.2,87.97 L307,87.87 L309.7,87.78 L312.5,87.7 L315.2,87.63 L318,87.57 L320.7,87.51 L323.5,87.46 L326.2,87.42 L329,87.38 L331.7,87.34 L334.5,87.31 L337.2,87.29 L340,87.26 L342.7,87.24 L345.5,87.23 L348.3,87.21 L351,87.2 L353.8,87.18 L356.5,87.17 L359.3,87.16 L362,87.16 L364.8,87.15 L367.5,87.14 L370.3,87.14 L373,87.13 L375.8,87.13 L378.5,87.13 L381.3,87.13 L384,87.12 L386.8,87.12 L389.5,87.12 L392.3,87.12 L395.1,87.12 L397.8,87.12 L400.6,87.11 L403.3,87.11 L406.1,87.11 L408.8,87.11 L411.6,87.11 L414.3,87.11 L417.1,87.11 L419.8,87.11 L422.6,87.11 L425.3,87.11 L428.1,87.11 L430.8,87.11 L433.6,87.11 L436.3,87.11 L439.1,87.11 L441.9,87.11 L444.6,87.11 L447.4,87.11 L450.1,87.11 L452.9,87.11 L455.6,87.11 L458.4,87.11 L461.1,87.11 L463.9,87.11 L466.6,87.11 L469.4,87.11 L472.1,87.11 L474.9,87.11 L477.6,87.11 L480.4,87.11 L483.2,87.11 L485.9,87.11 L488.7,87.11 L491.4,87.11 L494.2,87.11 L496.9,87.11 L499.7,87.11 L502.4,87.11 L505.2,87.11 L507.9,87.11 L510.7,87.11 L513.4,87.11 L516.2,87.11 L518.9,87.11 L521.7,87.11 L524.4,87.11 L527.2,87.11 L530,87.11 L532.7,87.11 L535.5,87.11 L538.2,87.11 L541,87.11 L543.7,87.11 L546.5,87.11 L549.2,87.11 L552,87.11 L554.7,87.11 L557.5,87.11 L560.2,87.11 L563,87.11 L565.7,87.11 L568.5,87.11 L571.2,87.11 L574,87.11 L576.8,87.11 L579.5,87.11 L582.3,87.11 L585,87.11 L587.8,87.11 L590.5,87.11 L593.3,87.11 L596,87.11 L598.8,87.11 L601.5,87.11 L604.3,87.11 L607,87.11 L609.8,87.11 L612.5,87.11 L615.3,87.11 L618,87.11 " fill="none"/></g>
<g clip-path="url(#plot_window)" stroke="rgb(127,255,0)" stroke-width="1"><path d="M70.2,336.9 L72.95,336.6 L75.71,336.1 L78.46,335.6 L81.21,335.1 L83.97,334.5 L86.72,333.8 L89.47,333.1 L92.22,332.3 L94.98,331.5 L97.73,330.7 L100.5,329.8 L103.2,328.8 L106,327.8 L108.7,326.8 L111.5,325.7 L114.2,324.5 L117,323.3 L119.8,322.1 L122.5,320.8 L125.3,319.5 L128,318.1 L130.8,316.7 L133.5,315.3 L136.3,313.8 L139,312.3 L141.8,310.7 L144.5,309.1 L147.3,307.5 L150,305.8 L152.8,304.1 L155.5,302.4 L158.3,300.6 L161,298.8 L163.8,297 L166.6,295.1 L169.3,293.2 L172.1,291.3 L174.8,289.4 L177.6,287.4 L180.3,285.4 L183.1,283.4 L185.8,281.4 L188.6,279.3 L191.3,277.2 L194.1,275.2 L196.8,273.1 L199.6,270.9 L202.3,268.8 L205.1,266.6 L207.8,264.5 L210.6,262.3 L213.4,260.1 L216.1,257.9 L218.9,255.7 L221.6,253.5 L224.4,251.3 L227.1,249.1 L229.9,246.8 L232.6,244.6 L235.4,242.4 L238.1,240.1 L240.9,237.9 L243.6,235.7 L246.4,233.4 L249.1,231.2 L251.9,229 L254.7,226.8 L257.4,224.5 L260.2,222.3 L262.9,220.1 L265.7,217.9 L268.4,215.7 L271.2,213.6 L273.9,211.4 L276.7,209.2 L279.4,207.1 L282.2,205 L284.9,202.8 L287.7,200.7 L290.4,198.6 L293.2,196.6 L295.9,194.5 L298.7,192.4 L301.5,190.4 L304.2,188.4 L307,186.4 L309.7,184.4 L312.5,182.5 L315.2,180.5 L318,178.6 L320.7,176.7 L323.5,174.8 L326.2,173 L329,171.2 L331.7,169.3 L334.5,167.5 L337.2,165.8 L340,164 L342.7,162.3 L345.5,160.6 L348.3,158.9 L351,157.3 L353.8,155.6 L356.5,154 L359.3,152.4 L362,150.9 L364.8,149.3 L367.5,147.8 L370.3,146.3 L373,144.9 L375.8,143.4 L378.5,142 L381.3,140.6 L384,139.3 L386.8,137.9 L389.5,136.6 L392.3,135.3 L395.1,134 L397.8,132.8 L400.6,131.5 L403.3,130.3 L406.1,129.2 L408.8,128 L411.6,126.9 L414.3,125.8 L417.1,124.7 L419.8,123.6 L422.6,122.6 L425.3,121.6 L428.1,120.6 L430.8,119.6 L433.6,118.6 L436.3,117.7 L439.1,116.8 L441.9,115.9 L444.6,115 L447.4,114.2 L450.1,113.4 L452.9,112.5 L455.6,111.8 L458.4,111 L461.1,110.2 L463.9,109.5 L466.6,108.8 L469.4,108.1 L472.1,107.4 L474.9,106.8 L477.6,106.1 L480.4,105.5 L483.2,104.9 L485.9,104.3 L488.7,103.7 L491.4,103.2 L494.2,102.6 L496.9,102.1 L499.7,101.6 L502.4,101.1 L505.2,100.6 L507.9,100.1 L510.7,99.65 L513.4,99.21 L516.2,98.78 L518.9,98.36 L521.7,97.96 L524.4,97.56 L527.2,97.18 L530,96.81 L532.7,96.45 L535.5,96.11 L538.2,95.77 L541,95.45 L543.7,95.13 L546.5,94.83 L549.2,94.54 L552,94.25 L554.7,93.98 L557.5,93.71 L560.2,93.45 L563,93.21 L565.7,92.97 L568.5,92.73 L571.2,92.51 L574,92.29 L576.8,92.09 L579.5,91.89 L582.3,91.69 L585,91.51 L587.8,91.32 L590.5,91.15 L593.3,90.98 L596,90.82 L598.8,90.67 L601.5,90.52 L604.3,90.37 L607,90.24 L609.8,90.1 L612.5,89.97 L615.3,89.85 L618,89.73 " fill="none"/></g>
</g>
<g id="plotPoints" clip-path="url(#plot_window)"><g stroke="rgb(0,0,0)"></g>
<g stroke="rgb(0,0,0)"></g>
<g stroke="rgb(0,0,0)"></g>
<g stroke="rgb(0,0,0)"></g>
<g stroke="rgb(0,0,0)"></g>
</g>
<g id="limitPoints" stroke="rgb(119,136,153)" fill="rgb(250,235,215)"></g>
<g id="legendBackground" stroke="rgb(119,136,153)" fill="rgb(255,255,255)" stroke-width="1"><rect x="634.8" y="62" width="103.2" height="165"/><rect x="634.8" y="62" width="103.2" height="165"/></g>
<g id="legendPoints"><g stroke="rgb(0,0,139)" stroke-width="1"><line x1="649.8" y1="92" x2="664.8" y2="92"/></g>
<g stroke="rgb(139,0,0)" stroke-width="1"><line x1="649.8" y1="122" x2="664.8" y2="122"/></g>
<g stroke="rgb(0,100,0)" stroke-width="1"><line x1="649.8" y1="152" x2="664.8" y2="152"/></g>
<g stroke="rgb(255,140,0)" stroke-width="1"><line x1="649.8" y1="182" x2="664.8" y2="182"/></g>
<g stroke="rgb(127,255,0)" stroke-width="1"><line x1="649.8" y1="212" x2="664.8" y2="212"/></g>
</g>
<g id="legendText">
<text x="672.3" y="92" font-size="15" font-family="Verdana">&#x3C3;=0.5</text>
<text x="672.3" y="122" font-size="15" font-family="Verdana">&#x3C3;=1</text>
<text x="672.3" y="152" font-size="15" font-family="Verdana">&#x3C3;=2</text>
<text x="672.3" y="182" font-size="15" font-family="Verdana">&#x3C3;=4</text>
<text x="672.3" y="212" font-size="15" font-family="Verdana">&#x3C3;=10</text></g>
<g id="title">
<text x="375" y="40" text-anchor="middle" font-size="20" font-family="Verdana">Rayleigh Distribution CDF</text></g>
</svg>
