<?xml version="1.0" encoding="UTF-8" standalone="no"?>
<svg width="750" height ="400" version="1.1" xmlns="http://www.w3.org/2000/svg"
 xmlns:xlink="http://www.w3.org/1999/xlink"
 xmlns:ev="http://www.w3.org/2001/xml-events">

<!-- SVG plot written using Boost.Plot program (Creator Jacob Voytko) --> 
<!-- Use, modification and distribution of Boost.Plot subject to the --> 
<!-- Boost Software License, Version 1.0.--> 
<!-- (See accompanying file LICENSE_1_0.txt --> 
<!-- or copy at http://www.boost.org/LICENSE_1_0.txt) --> 

<clipPath id="plot_window"><rect x="71.2" y="63" width="548.6" height="274.2"/></clipPath>
<g id="imageBackground" stroke="rgb(119,136,153)" fill="rgb(255,255,255)" stroke-width="2"><rect x="0" y="0" width="750" height="400"/></g>
<g id="plotBackground" stroke="rgb(119,136,153)" fill="rgb(255,255,255)" stroke-width="2"><rect x="70.2" y="62" width="550.6" height="276.2"/></g>
<g id="yMinorGrid" stroke="rgb(200,220,255)" stroke-width="0.5"></g>
<g id="yMajorGrid" stroke="rgb(200,220,255)" stroke-width="1"></g>
<g id="xMinorGrid" stroke="rgb(200,220,255)" stroke-width="0.5"></g>
<g id="xMajorGrid" stroke="rgb(200,220,255)" stroke-width="1"></g>
<g id="yAxis" stroke="rgb(0,0,0)" stroke-width="1"><line x1="70.2" y1="62" x2="70.2" y2="338.2"/></g>
<g id="xAxis" stroke="rgb(0,0,0)" stroke-width="1"><line x1="65.2" y1="338.2" x2="620.8" y2="338.2"/><line x1="65.2" y1="338.2" x2="620.8" y2="338.2"/></g>
<g id="yMinorTicks" stroke="rgb(0,0,0)" stroke-width="1"><path d="M68.2,329.9 L70.2,329.9 M68.2,321.6 L70.2,321.6 M68.2,313.3 L70.2,313.3 M68.2,305 L70.2,305 M68.2,288.4 L70.2,288.4 M68.2,280.1 L70.2,280.1 M68.2,271.9 L70.2,271.9 M68.2,263.6 L70.2,263.6 M68.2,247 L70.2,247 M68.2,238.7 L70.2,238.7 M68.2,230.4 L70.2,230.4 M68.2,222.1 L70.2,222.1 M68.2,205.5 L70.2,205.5 M68.2,197.2 L70.2,197.2 M68.2,188.9 L70.2,188.9 M68.2,180.6 L70.2,180.6 M68.2,164 L70.2,164 M68.2,155.8 L70.2,155.8 M68.2,147.5 L70.2,147.5 M68.2,139.2 L70.2,139.2 M68.2,122.6 L70.2,122.6 M68.2,114.3 L70.2,114.3 M68.2,106 L70.2,106 M68.2,97.7 L70.2,97.7 M68.2,81.11 L70.2,81.11 M68.2,72.82 L70.2,72.82 M68.2,64.53 L70.2,64.53 M68.2,338.2 L70.2,338.2 "/></g>
<g id="xMinorTicks" stroke="rgb(0,0,0)" stroke-width="1"><path d="M70.2,338.2 L70.2,340.2 M88.96,338.2 L88.96,340.2 M107.7,338.2 L107.7,340.2 M126.5,338.2 L126.5,340.2 M164,338.2 L164,340.2 M182.8,338.2 L182.8,340.2 M201.5,338.2 L201.5,340.2 M220.3,338.2 L220.3,340.2 M257.8,338.2 L257.8,340.2 M276.5,338.2 L276.5,340.2 M295.3,338.2 L295.3,340.2 M314.1,338.2 L314.1,340.2 M351.6,338.2 L351.6,340.2 M370.3,338.2 L370.3,340.2 M389.1,338.2 L389.1,340.2 M407.9,338.2 L407.9,340.2 M445.4,338.2 L445.4,340.2 M464.1,338.2 L464.1,340.2 M482.9,338.2 L482.9,340.2 M501.7,338.2 L501.7,340.2 M539.2,338.2 L539.2,340.2 M557.9,338.2 L557.9,340.2 M576.7,338.2 L576.7,340.2 M595.5,338.2 L595.5,340.2 "/></g>
<g id="yMajorTicks" stroke="rgb(0,0,0)" stroke-width="2"><path d="M65.2,338.2 L70.2,338.2 M65.2,296.7 L70.2,296.7 M65.2,255.3 L70.2,255.3 M65.2,213.8 L70.2,213.8 M65.2,172.3 L70.2,172.3 M65.2,130.9 L70.2,130.9 M65.2,89.41 L70.2,89.41 M65.2,338.2 L70.2,338.2 "/></g>
<g id="xMajorTicks" stroke="rgb(0,0,0)" stroke-width="2"><path d="M145.2,338.2 L145.2,343.2 M239,338.2 L239,343.2 M332.8,338.2 L332.8,343.2 M426.6,338.2 L426.6,343.2 M520.4,338.2 L520.4,343.2 M614.2,338.2 L614.2,343.2 "/></g>
<g id="plotLabels">
<text x="145.2" y="357.6" text-anchor="middle" font-size="12" font-family="Verdana">5</text>
<text x="239" y="357.6" text-anchor="middle" font-size="12" font-family="Verdana">10</text>
<text x="332.8" y="357.6" text-anchor="middle" font-size="12" font-family="Verdana">15</text>
<text x="426.6" y="357.6" text-anchor="middle" font-size="12" font-family="Verdana">20</text>
<text x="520.4" y="357.6" text-anchor="middle" font-size="12" font-family="Verdana">25</text>
<text x="614.2" y="357.6" text-anchor="middle" font-size="12" font-family="Verdana">30</text>
<text x="59.2" y="340.6" text-anchor="end" font-size="12" font-family="Verdana">0</text>
<text x="59.2" y="299.1" text-anchor="end" font-size="12" font-family="Verdana">0.1</text>
<text x="59.2" y="257.7" text-anchor="end" font-size="12" font-family="Verdana">0.2</text>
<text x="59.2" y="216.2" text-anchor="end" font-size="12" font-family="Verdana">0.3</text>
<text x="59.2" y="174.7" text-anchor="end" font-size="12" font-family="Verdana">0.4</text>
<text x="59.2" y="133.3" text-anchor="end" font-size="12" font-family="Verdana">0.5</text>
<text x="59.2" y="91.81" text-anchor="end" font-size="12" font-family="Verdana">0.6</text>
<text x="59.2" y="340.6" text-anchor="end" font-size="12" font-family="Verdana">0</text></g>
<g id="yLabel">
<text x="30.2" y="200.1" text-anchor="middle" transform = "rotate(-90 30.2 200.1 )" font-size="14" font-family="Verdana">Probability</text></g>
<g id="xLabel">
<text x="345.5" y="384" text-anchor="middle" font-size="14" font-family="Verdana">Random Variable</text></g>
<g id="plotLines" stroke-width="2"><g clip-path="url(#plot_window)" stroke="rgb(0,0,139)" stroke-width="1"><path d="M70.2,113.7 L72.95,201.1 L75.71,262.7 L78.46,300.5 L81.21,321.1 L83.97,331.2 L86.72,335.6 L89.47,337.3 L92.22,337.9 L94.98,338.1 L97.73,338.2 L100.5,338.2 L103.2,338.2 L106,338.2 L108.7,338.2 L111.5,338.2 L114.2,338.2 L117,338.2 L119.8,338.2 L122.5,338.2 L125.3,338.2 L128,338.2 L130.8,338.2 L133.5,338.2 L136.3,338.2 L139,338.2 L141.8,338.2 L144.5,338.2 L147.3,338.2 L150,338.2 L152.8,338.2 L155.5,338.2 L158.3,338.2 L161,338.2 L163.8,338.2 L166.6,338.2 L169.3,338.2 L172.1,338.2 L174.8,338.2 L177.6,338.2 L180.3,338.2 L183.1,338.2 L185.8,338.2 L188.6,338.2 L191.3,338.2 L194.1,338.2 L196.8,338.2 L199.6,338.2 L202.3,338.2 L205.1,338.2 L207.8,338.2 L210.6,338.2 L213.4,338.2 L216.1,338.2 L218.9,338.2 L221.6,338.2 L224.4,338.2 L227.1,338.2 L229.9,338.2 L232.6,338.2 L235.4,338.2 L238.1,338.2 L240.9,338.2 L243.6,338.2 L246.4,338.2 L249.1,338.2 L251.9,338.2 L254.7,338.2 L257.4,338.2 L260.2,338.2 L262.9,338.2 L265.7,338.2 L268.4,338.2 L271.2,338.2 L273.9,338.2 L276.7,338.2 L279.4,338.2 L282.2,338.2 L284.9,338.2 L287.7,338.2 L290.4,338.2 L293.2,338.2 L295.9,338.2 L298.7,338.2 L301.5,338.2 L304.2,338.2 L307,338.2 L309.7,338.2 L312.5,338.2 L315.2,338.2 L318,338.2 L320.7,338.2 L323.5,338.2 L326.2,338.2 L329,338.2 L331.7,338.2 L334.5,338.2 L337.2,338.2 L340,338.2 L342.7,338.2 L345.5,338.2 L348.3,338.2 L351,338.2 L353.8,338.2 L356.5,338.2 L359.3,338.2 L362,338.2 L364.8,338.2 L367.5,338.2 L370.3,338.2 L373,338.2 L375.8,338.2 L378.5,338.2 L381.3,338.2 L384,338.2 L386.8,338.2 L389.5,338.2 L392.3,338.2 L395.1,338.2 L397.8,338.2 L400.6,338.2 L403.3,338.2 L406.1,338.2 L408.8,338.2 L411.6,338.2 L414.3,338.2 L417.1,338.2 L419.8,338.2 L422.6,338.2 L425.3,338.2 L428.1,338.2 L430.8,338.2 L433.6,338.2 L436.3,338.2 L439.1,338.2 L441.9,338.2 L444.6,338.2 L447.4,338.2 L450.1,338.2 L452.9,338.2 L455.6,338.2 L458.4,338.2 L461.1,338.2 L463.9,338.2 L466.6,338.2 L469.4,338.2 L472.1,338.2 L474.9,338.2 L477.6,338.2 L480.4,338.2 L483.2,338.2 L485.9,338.2 L488.7,338.2 L491.4,338.2 L494.2,338.2 L496.9,338.2 L499.7,338.2 L502.4,338.2 L505.2,338.2 L507.9,338.2 L510.7,338.2 L513.4,338.2 L516.2,338.2 L518.9,338.2 L521.7,338.2 L524.4,338.2 L527.2,338.2 L530,338.2 L532.7,338.2 L535.5,338.2 L538.2,338.2 L541,338.2 L543.7,338.2 L546.5,338.2 L549.2,338.2 L552,338.2 L554.7,338.2 L557.5,338.2 L560.2,338.2 L563,338.2 L565.7,338.2 L568.5,338.2 L571.2,338.2 L574,338.2 L576.8,338.2 L579.5,338.2 L582.3,338.2 L585,338.2 L587.8,338.2 L590.5,338.2 L593.3,338.2 L596,338.2 L598.8,338.2 L601.5,338.2 L604.3,338.2 L607,338.2 L609.8,338.2 L612.5,338.2 L615.3,338.2 L618,338.2 " fill="none"/></g>
<g clip-path="url(#plot_window)" stroke="rgb(139,0,0)" stroke-width="1"><path d="M70.2,86.7 L72.95,91.82 L75.71,105.9 L78.46,126.5 L81.21,151.4 L83.97,178.3 L86.72,205.1 L89.47,230.5 L92.22,253.4 L94.98,273.1 L97.73,289.5 L100.5,302.6 L103.2,312.9 L106,320.6 L108.7,326.3 L111.5,330.3 L114.2,333.1 L117,335 L119.8,336.2 L122.5,337 L125.3,337.5 L128,337.8 L130.8,338 L133.5,338.1 L136.3,338.1 L139,338.2 L141.8,338.2 L144.5,338.2 L147.3,338.2 L150,338.2 L152.8,338.2 L155.5,338.2 L158.3,338.2 L161,338.2 L163.8,338.2 L166.6,338.2 L169.3,338.2 L172.1,338.2 L174.8,338.2 L177.6,338.2 L180.3,338.2 L183.1,338.2 L185.8,338.2 L188.6,338.2 L191.3,338.2 L194.1,338.2 L196.8,338.2 L199.6,338.2 L202.3,338.2 L205.1,338.2 L207.8,338.2 L210.6,338.2 L213.4,338.2 L216.1,338.2 L218.9,338.2 L221.6,338.2 L224.4,338.2 L227.1,338.2 L229.9,338.2 L232.6,338.2 L235.4,338.2 L238.1,338.2 L240.9,338.2 L243.6,338.2 L246.4,338.2 L249.1,338.2 L251.9,338.2 L254.7,338.2 L257.4,338.2 L260.2,338.2 L262.9,338.2 L265.7,338.2 L268.4,338.2 L271.2,338.2 L273.9,338.2 L276.7,338.2 L279.4,338.2 L282.2,338.2 L284.9,338.2 L287.7,338.2 L290.4,338.2 L293.2,338.2 L295.9,338.2 L298.7,338.2 L301.5,338.2 L304.2,338.2 L307,338.2 L309.7,338.2 L312.5,338.2 L315.2,338.2 L318,338.2 L320.7,338.2 L323.5,338.2 L326.2,338.2 L329,338.2 L331.7,338.2 L334.5,338.2 L337.2,338.2 L340,338.2 L342.7,338.2 L345.5,338.2 L348.3,338.2 L351,338.2 L353.8,338.2 L356.5,338.2 L359.3,338.2 L362,338.2 L364.8,338.2 L367.5,338.2 L370.3,338.2 L373,338.2 L375.8,338.2 L378.5,338.2 L381.3,338.2 L384,338.2 L386.8,338.2 L389.5,338.2 L392.3,338.2 L395.1,338.2 L397.8,338.2 L400.6,338.2 L403.3,338.2 L406.1,338.2 L408.8,338.2 L411.6,338.2 L414.3,338.2 L417.1,338.2 L419.8,338.2 L422.6,338.2 L425.3,338.2 L428.1,338.2 L430.8,338.2 L433.6,338.2 L436.3,338.2 L439.1,338.2 L441.9,338.2 L444.6,338.2 L447.4,338.2 L450.1,338.2 L452.9,338.2 L455.6,338.2 L458.4,338.2 L461.1,338.2 L463.9,338.2 L466.6,338.2 L469.4,338.2 L472.1,338.2 L474.9,338.2 L477.6,338.2 L480.4,338.2 L483.2,338.2 L485.9,338.2 L488.7,338.2 L491.4,338.2 L494.2,338.2 L496.9,338.2 L499.7,338.2 L502.4,338.2 L505.2,338.2 L507.9,338.2 L510.7,338.2 L513.4,338.2 L516.2,338.2 L518.9,338.2 L521.7,338.2 L524.4,338.2 L527.2,338.2 L530,338.2 L532.7,338.2 L535.5,338.2 L538.2,338.2 L541,338.2 L543.7,338.2 L546.5,338.2 L549.2,338.2 L552,338.2 L554.7,338.2 L557.5,338.2 L560.2,338.2 L563,338.2 L565.7,338.2 L568.5,338.2 L571.2,338.2 L574,338.2 L576.8,338.2 L579.5,338.2 L582.3,338.2 L585,338.2 L587.8,338.2 L590.5,338.2 L593.3,338.2 L596,338.2 L598.8,338.2 L601.5,338.2 L604.3,338.2 L607,338.2 L609.8,338.2 L612.5,338.2 L615.3,338.2 L618,338.2 " fill="none"/></g>
<g clip-path="url(#plot_window)" stroke="rgb(0,100,0)" stroke-width="1"><path d="M70.2,246.7 L72.95,237.3 L75.71,229.4 L78.46,223 L81.21,218.1 L83.97,214.8 L86.72,212.9 L89.47,212.5 L92.22,213.4 L94.98,215.5 L97.73,218.7 L100.5,222.9 L103.2,227.8 L106,233.4 L108.7,239.6 L111.5,246 L114.2,252.7 L117,259.5 L119.8,266.3 L122.5,272.9 L125.3,279.3 L128,285.5 L130.8,291.3 L133.5,296.8 L136.3,301.8 L139,306.5 L141.8,310.7 L144.5,314.5 L147.3,317.9 L150,321 L152.8,323.6 L155.5,326 L158.3,328 L161,329.7 L163.8,331.2 L166.6,332.5 L169.3,333.5 L172.1,334.4 L174.8,335.1 L177.6,335.7 L180.3,336.2 L183.1,336.7 L185.8,337 L188.6,337.2 L191.3,337.5 L194.1,337.6 L196.8,337.8 L199.6,337.9 L202.3,337.9 L205.1,338 L207.8,338.1 L210.6,338.1 L213.4,338.1 L216.1,338.1 L218.9,338.2 L221.6,338.2 L224.4,338.2 L227.1,338.2 L229.9,338.2 L232.6,338.2 L235.4,338.2 L238.1,338.2 L240.9,338.2 L243.6,338.2 L246.4,338.2 L249.1,338.2 L251.9,338.2 L254.7,338.2 L257.4,338.2 L260.2,338.2 L262.9,338.2 L265.7,338.2 L268.4,338.2 L271.2,338.2 L273.9,338.2 L276.7,338.2 L279.4,338.2 L282.2,338.2 L284.9,338.2 L287.7,338.2 L290.4,338.2 L293.2,338.2 L295.9,338.2 L298.7,338.2 L301.5,338.2 L304.2,338.2 L307,338.2 L309.7,338.2 L312.5,338.2 L315.2,338.2 L318,338.2 L320.7,338.2 L323.5,338.2 L326.2,338.2 L329,338.2 L331.7,338.2 L334.5,338.2 L337.2,338.2 L340,338.2 L342.7,338.2 L345.5,338.2 L348.3,338.2 L351,338.2 L353.8,338.2 L356.5,338.2 L359.3,338.2 L362,338.2 L364.8,338.2 L367.5,338.2 L370.3,338.2 L373,338.2 L375.8,338.2 L378.5,338.2 L381.3,338.2 L384,338.2 L386.8,338.2 L389.5,338.2 L392.3,338.2 L395.1,338.2 L397.8,338.2 L400.6,338.2 L403.3,338.2 L406.1,338.2 L408.8,338.2 L411.6,338.2 L414.3,338.2 L417.1,338.2 L419.8,338.2 L422.6,338.2 L425.3,338.2 L428.1,338.2 L430.8,338.2 L433.6,338.2 L436.3,338.2 L439.1,338.2 L441.9,338.2 L444.6,338.2 L447.4,338.2 L450.1,338.2 L452.9,338.2 L455.6,338.2 L458.4,338.2 L461.1,338.2 L463.9,338.2 L466.6,338.2 L469.4,338.2 L472.1,338.2 L474.9,338.2 L477.6,338.2 L480.4,338.2 L483.2,338.2 L485.9,338.2 L488.7,338.2 L491.4,338.2 L494.2,338.2 L496.9,338.2 L499.7,338.2 L502.4,338.2 L505.2,338.2 L507.9,338.2 L510.7,338.2 L513.4,338.2 L516.2,338.2 L518.9,338.2 L521.7,338.2 L524.4,338.2 L527.2,338.2 L530,338.2 L532.7,338.2 L535.5,338.2 L538.2,338.2 L541,338.2 L543.7,338.2 L546.5,338.2 L549.2,338.2 L552,338.2 L554.7,338.2 L557.5,338.2 L560.2,338.2 L563,338.2 L565.7,338.2 L568.5,338.2 L571.2,338.2 L574,338.2 L576.8,338.2 L579.5,338.2 L582.3,338.2 L585,338.2 L587.8,338.2 L590.5,338.2 L593.3,338.2 L596,338.2 L598.8,338.2 L601.5,338.2 L604.3,338.2 L607,338.2 L609.8,338.2 L612.5,338.2 L615.3,338.2 L618,338.2 " fill="none"/></g>
<g clip-path="url(#plot_window)" stroke="rgb(255,140,0)" stroke-width="1"><path d="M70.2,313.1 L72.95,309.7 L75.71,306.4 L78.46,303.2 L81.21,300.2 L83.97,297.3 L86.72,294.6 L89.47,292 L92.22,289.6 L94.98,287.4 L97.73,285.3 L100.5,283.5 L103.2,281.8 L106,280.3 L108.7,279.1 L111.5,278 L114.2,277.1 L117,276.4 L119.8,275.8 L122.5,275.5 L125.3,275.3 L128,275.4 L130.8,275.5 L133.5,275.9 L136.3,276.3 L139,277 L141.8,277.7 L144.5,278.6 L147.3,279.6 L150,280.7 L152.8,282 L155.5,283.3 L158.3,284.6 L161,286.1 L163.8,287.6 L166.6,289.2 L169.3,290.8 L172.1,292.4 L174.8,294.1 L177.6,295.8 L180.3,297.5 L183.1,299.2 L185.8,300.9 L188.6,302.5 L191.3,304.2 L194.1,305.8 L196.8,307.5 L199.6,309.1 L202.3,310.6 L205.1,312.1 L207.8,313.6 L210.6,315 L213.4,316.4 L216.1,317.7 L218.9,319 L221.6,320.2 L224.4,321.4 L227.1,322.5 L229.9,323.6 L232.6,324.6 L235.4,325.6 L238.1,326.5 L240.9,327.4 L243.6,328.2 L246.4,329 L249.1,329.7 L251.9,330.4 L254.7,331 L257.4,331.6 L260.2,332.2 L262.9,332.7 L265.7,333.2 L268.4,333.6 L271.2,334 L273.9,334.4 L276.7,334.8 L279.4,335.1 L282.2,335.4 L284.9,335.7 L287.7,335.9 L290.4,336.1 L293.2,336.3 L295.9,336.5 L298.7,336.7 L301.5,336.9 L304.2,337 L307,337.1 L309.7,337.2 L312.5,337.4 L315.2,337.4 L318,337.5 L320.7,337.6 L323.5,337.7 L326.2,337.7 L329,337.8 L331.7,337.8 L334.5,337.9 L337.2,337.9 L340,338 L342.7,338 L345.5,338 L348.3,338 L351,338.1 L353.8,338.1 L356.5,338.1 L359.3,338.1 L362,338.1 L364.8,338.1 L367.5,338.1 L370.3,338.1 L373,338.2 L375.8,338.2 L378.5,338.2 L381.3,338.2 L384,338.2 L386.8,338.2 L389.5,338.2 L392.3,338.2 L395.1,338.2 L397.8,338.2 L400.6,338.2 L403.3,338.2 L406.1,338.2 L408.8,338.2 L411.6,338.2 L414.3,338.2 L417.1,338.2 L419.8,338.2 L422.6,338.2 L425.3,338.2 L428.1,338.2 L430.8,338.2 L433.6,338.2 L436.3,338.2 L439.1,338.2 L441.9,338.2 L444.6,338.2 L447.4,338.2 L450.1,338.2 L452.9,338.2 L455.6,338.2 L458.4,338.2 L461.1,338.2 L463.9,338.2 L466.6,338.2 L469.4,338.2 L472.1,338.2 L474.9,338.2 L477.6,338.2 L480.4,338.2 L483.2,338.2 L485.9,338.2 L488.7,338.2 L491.4,338.2 L494.2,338.2 L496.9,338.2 L499.7,338.2 L502.4,338.2 L505.2,338.2 L507.9,338.2 L510.7,338.2 L513.4,338.2 L516.2,338.2 L518.9,338.2 L521.7,338.2 L524.4,338.2 L527.2,338.2 L530,338.2 L532.7,338.2 L535.5,338.2 L538.2,338.2 L541,338.2 L543.7,338.2 L546.5,338.2 L549.2,338.2 L552,338.2 L554.7,338.2 L557.5,338.2 L560.2,338.2 L563,338.2 L565.7,338.2 L568.5,338.2 L571.2,338.2 L574,338.2 L576.8,338.2 L579.5,338.2 L582.3,338.2 L585,338.2 L587.8,338.2 L590.5,338.2 L593.3,338.2 L596,338.2 L598.8,338.2 L601.5,338.2 L604.3,338.2 L607,338.2 L609.8,338.2 L612.5,338.2 L615.3,338.2 L618,338.2 " fill="none"/></g>
<g clip-path="url(#plot_window)" stroke="rgb(127,255,0)" stroke-width="1"><path d="M70.2,334.1 L72.95,333.5 L75.71,332.9 L78.46,332.3 L81.21,331.7 L83.97,331.1 L86.72,330.5 L89.47,330 L92.22,329.4 L94.98,328.8 L97.73,328.3 L100.5,327.7 L103.2,327.2 L106,326.6 L108.7,326.1 L111.5,325.6 L114.2,325.1 L117,324.6 L119.8,324.1 L122.5,323.6 L125.3,323.1 L128,322.6 L130.8,322.2 L133.5,321.7 L136.3,321.3 L139,320.8 L141.8,320.4 L144.5,320 L147.3,319.6 L150,319.2 L152.8,318.8 L155.5,318.5 L158.3,318.1 L161,317.8 L163.8,317.4 L166.6,317.1 L169.3,316.8 L172.1,316.5 L174.8,316.2 L177.6,316 L180.3,315.7 L183.1,315.5 L185.8,315.2 L188.6,315 L191.3,314.8 L194.1,314.6 L196.8,314.4 L199.6,314.2 L202.3,314.1 L205.1,313.9 L207.8,313.8 L210.6,313.7 L213.4,313.5 L216.1,313.4 L218.9,313.4 L221.6,313.3 L224.4,313.2 L227.1,313.2 L229.9,313.1 L232.6,313.1 L235.4,313.1 L238.1,313.1 L240.9,313.1 L243.6,313.1 L246.4,313.1 L249.1,313.1 L251.9,313.2 L254.7,313.2 L257.4,313.3 L260.2,313.4 L262.9,313.4 L265.7,313.5 L268.4,313.6 L271.2,313.7 L273.9,313.9 L276.7,314 L279.4,314.1 L282.2,314.3 L284.9,314.4 L287.7,314.6 L290.4,314.7 L293.2,314.9 L295.9,315.1 L298.7,315.3 L301.5,315.5 L304.2,315.7 L307,315.9 L309.7,316.1 L312.5,316.3 L315.2,316.5 L318,316.7 L320.7,317 L323.5,317.2 L326.2,317.4 L329,317.7 L331.7,317.9 L334.5,318.2 L337.2,318.4 L340,318.7 L342.7,318.9 L345.5,319.2 L348.3,319.4 L351,319.7 L353.8,320 L356.5,320.2 L359.3,320.5 L362,320.8 L364.8,321 L367.5,321.3 L370.3,321.6 L373,321.8 L375.8,322.1 L378.5,322.4 L381.3,322.7 L384,322.9 L386.8,323.2 L389.5,323.5 L392.3,323.7 L395.1,324 L397.8,324.3 L400.6,324.5 L403.3,324.8 L406.1,325.1 L408.8,325.3 L411.6,325.6 L414.3,325.9 L417.1,326.1 L419.8,326.4 L422.6,326.6 L425.3,326.9 L428.1,327.1 L430.8,327.4 L433.6,327.6 L436.3,327.8 L439.1,328.1 L441.9,328.3 L444.6,328.5 L447.4,328.8 L450.1,329 L452.9,329.2 L455.6,329.4 L458.4,329.6 L461.1,329.9 L463.9,330.1 L466.6,330.3 L469.4,330.5 L472.1,330.7 L474.9,330.9 L477.6,331.1 L480.4,331.3 L483.2,331.4 L485.9,331.6 L488.7,331.8 L491.4,332 L494.2,332.2 L496.9,332.3 L499.7,332.5 L502.4,332.7 L505.2,332.8 L507.9,333 L510.7,333.1 L513.4,333.3 L516.2,333.4 L518.9,333.6 L521.7,333.7 L524.4,333.8 L527.2,334 L530,334.1 L532.7,334.2 L535.5,334.4 L538.2,334.5 L541,334.6 L543.7,334.7 L546.5,334.8 L549.2,334.9 L552,335.1 L554.7,335.2 L557.5,335.3 L560.2,335.4 L563,335.5 L565.7,335.5 L568.5,335.6 L571.2,335.7 L574,335.8 L576.8,335.9 L579.5,336 L582.3,336.1 L585,336.1 L587.8,336.2 L590.5,336.3 L593.3,336.4 L596,336.4 L598.8,336.5 L601.5,336.5 L604.3,336.6 L607,336.7 L609.8,336.7 L612.5,336.8 L615.3,336.8 L618,336.9 " fill="none"/></g>
</g>
<g id="plotPoints" clip-path="url(#plot_window)"><g stroke="rgb(0,0,0)"></g>
<g stroke="rgb(0,0,0)"></g>
<g stroke="rgb(0,0,0)"></g>
<g stroke="rgb(0,0,0)"></g>
<g stroke="rgb(0,0,0)"></g>
</g>
<g id="limitPoints" stroke="rgb(119,136,153)" fill="rgb(250,235,215)"></g>
<g id="legendBackground" stroke="rgb(119,136,153)" fill="rgb(255,255,255)" stroke-width="1"><rect x="634.8" y="62" width="103.2" height="165"/><rect x="634.8" y="62" width="103.2" height="165"/></g>
<g id="legendPoints"><g stroke="rgb(0,0,139)" stroke-width="1"><line x1="649.8" y1="92" x2="664.8" y2="92"/></g>
<g stroke="rgb(139,0,0)" stroke-width="1"><line x1="649.8" y1="122" x2="664.8" y2="122"/></g>
<g stroke="rgb(0,100,0)" stroke-width="1"><line x1="649.8" y1="152" x2="664.8" y2="152"/></g>
<g stroke="rgb(255,140,0)" stroke-width="1"><line x1="649.8" y1="182" x2="664.8" y2="182"/></g>
<g stroke="rgb(127,255,0)" stroke-width="1"><line x1="649.8" y1="212" x2="664.8" y2="212"/></g>
</g>
<g id="legendText">
<text x="672.3" y="92" font-size="15" font-family="Verdana">&#x3C3;=0.5</text>
<text x="672.3" y="122" font-size="15" font-family="Verdana">&#x3C3;=1</text>
<text x="672.3" y="152" font-size="15" font-family="Verdana">&#x3C3;=2</text>
<text x="672.3" y="182" font-size="15" font-family="Verdana">&#x3C3;=4</text>
<text x="672.3" y="212" font-size="15" font-family="Verdana">&#x3C3;=10</text></g>
<g id="title">
<text x="375" y="40" text-anchor="middle" font-size="20" font-family="Verdana">Rayleigh Distribution PDF</text></g>
</svg>
