<?xml version="1.0" encoding="UTF-8" standalone="no"?>
<svg width="600" height ="400" version="1.1" xmlns="http://www.w3.org/2000/svg"
 xmlns:xlink="http://www.w3.org/1999/xlink"
 xmlns:ev="http://www.w3.org/2001/xml-events">

<!-- SVG plot written using Boost.Plot program (Creator Jacob Voytko) --> 
<!-- Use, modification and distribution of Boost.Plot subject to the --> 
<!-- Boost Software License, Version 1.0.--> 
<!-- (See accompanying file LICENSE_1_0.txt --> 
<!-- or copy at http://www.boost.org/LICENSE_1_0.txt) --> 

<!-- SVG Plot Copyright John Maddock 2008 --> 
<meta name="copyright" content="John Maddock" />
<meta name="date" content="2008" />
<!-- Use, modification and distribution of this Scalable Vector Graphic file -->
<!-- are subject to the Boost Software License, Version 1.0. -->
<!-- (See accompanying file LICENSE_1_0.txt or copy at http://www.boost.org/LICENSE_1_0.txt) -->

<clipPath id="plot_window"><rect x="71.2" y="63" width="515.8" height="274.2"/></clipPath>
<g id="imageBackground" stroke="rgb(119,136,153)" fill="rgb(255,255,255)" stroke-width="2"><rect x="0" y="0" width="600" height="400"/></g>
<g id="plotBackground" stroke="rgb(119,136,153)" fill="rgb(255,255,255)" stroke-width="2"><rect x="70.2" y="62" width="517.8" height="276.2"/></g>
<g id="yMinorGrid" stroke="rgb(200,220,255)" stroke-width="0.5"></g>
<g id="yMajorGrid" stroke="rgb(200,220,255)" stroke-width="1"></g>
<g id="xMinorGrid" stroke="rgb(200,220,255)" stroke-width="0.5"></g>
<g id="xMajorGrid" stroke="rgb(200,220,255)" stroke-width="1"></g>
<g id="yAxis" stroke="rgb(0,0,0)" stroke-width="1"><line x1="324" y1="62" x2="324" y2="343.2"/><line x1="70.2" y1="62" x2="70.2" y2="338.2"/></g>
<g id="xAxis" stroke="rgb(0,0,0)" stroke-width="1"><line x1="65.2" y1="289.9" x2="588" y2="289.9"/><line x1="65.2" y1="338.2" x2="588" y2="338.2"/></g>
<g id="yMinorTicks" stroke="rgb(0,0,0)" stroke-width="1"><path d="M68.2,262.1 L70.2,262.1 M68.2,234.3 L70.2,234.3 M68.2,206.5 L70.2,206.5 M68.2,150.8 L70.2,150.8 M68.2,123 L70.2,123 M68.2,95.22 L70.2,95.22 M68.2,289.9 L70.2,289.9 M68.2,317.7 L70.2,317.7 "/></g>
<g id="xMinorTicks" stroke="rgb(0,0,0)" stroke-width="1"><path d="M355.8,338.2 L355.8,340.2 M387.5,338.2 L387.5,340.2 M419.2,338.2 L419.2,340.2 M482.7,338.2 L482.7,340.2 M514.4,338.2 L514.4,340.2 M546.1,338.2 L546.1,340.2 M292.3,338.2 L292.3,340.2 M260.6,338.2 L260.6,340.2 M228.8,338.2 L228.8,340.2 M165.4,338.2 L165.4,340.2 M133.7,338.2 L133.7,340.2 M101.9,338.2 L101.9,340.2 "/></g>
<g id="yMajorTicks" stroke="rgb(0,0,0)" stroke-width="2"><path d="M65.2,289.9 L70.2,289.9 M65.2,178.6 L70.2,178.6 M65.2,67.42 L70.2,67.42 M65.2,289.9 L70.2,289.9 "/></g>
<g id="xMajorTicks" stroke="rgb(0,0,0)" stroke-width="2"><path d="M324,338.2 L324,343.2 M450.9,338.2 L450.9,343.2 M577.8,338.2 L577.8,343.2 M324,338.2 L324,343.2 M197.1,338.2 L197.1,343.2 M70.2,338.2 L70.2,343.2 "/></g>
<g id="plotLabels">
<text x="324" y="357.6" text-anchor="middle" font-size="12" font-family="Verdana">0</text>
<text x="450.9" y="357.6" text-anchor="middle" font-size="12" font-family="Verdana">5</text>
<text x="577.8" y="357.6" text-anchor="middle" font-size="12" font-family="Verdana">10</text>
<text x="324" y="357.6" text-anchor="middle" font-size="12" font-family="Verdana">0</text>
<text x="197.1" y="357.6" text-anchor="middle" font-size="12" font-family="Verdana">-5</text>
<text x="70.2" y="357.6" text-anchor="middle" font-size="12" font-family="Verdana">-10</text>
<text x="59.2" y="292.3" text-anchor="end" font-size="12" font-family="Verdana">0</text>
<text x="59.2" y="181" text-anchor="end" font-size="12" font-family="Verdana">0.5</text>
<text x="59.2" y="69.82" text-anchor="end" font-size="12" font-family="Verdana">1</text>
<text x="59.2" y="292.3" text-anchor="end" font-size="12" font-family="Verdana">0</text></g>
<g id="yLabel">
<text x="30.2" y="200.1" text-anchor="middle" transform = "rotate(-90 30.2 200.1 )" font-size="14" font-family="Verdana">sinc_pi(z)</text></g>
<g id="xLabel">
<text x="329.1" y="384" text-anchor="middle" font-size="14" font-family="Verdana">z</text></g>
<g id="plotLines" stroke-width="2"><g clip-path="url(#plot_window)" stroke="rgb(0,0,139)" stroke-width="1"><path d="M70.2,302 L72.74,300.2 L75.28,298.2 L77.81,296.1 L80.35,293.9 L82.89,291.6 L85.43,289.3 L87.97,286.9 L90.51,284.5 L93.04,282.1 L95.58,279.7 L98.12,277.4 L100.7,275.1 L103.2,272.9 L105.7,270.9 L108.3,269 L110.8,267.2 L113.3,265.7 L115.9,264.4 L118.4,263.2 L121,262.4 L123.5,261.7 L126,261.4 L128.6,261.3 L131.1,261.5 L133.7,262.1 L136.2,262.9 L138.7,264 L141.3,265.4 L143.8,267 L146.3,269 L148.9,271.2 L151.4,273.7 L154,276.4 L156.5,279.4 L159,282.5 L161.6,285.8 L164.1,289.3 L166.7,292.9 L169.2,296.5 L171.7,300.2 L174.3,304 L176.8,307.7 L179.3,311.4 L181.9,315 L184.4,318.4 L187,321.7 L189.5,324.8 L192,327.7 L194.6,330.3 L197.1,332.5 L199.6,334.5 L202.2,336 L204.7,337.2 L207.3,337.9 L209.8,338.2 L212.3,338 L214.9,337.3 L217.4,336 L220,334.3 L222.5,332 L225,329.1 L227.6,325.7 L230.1,321.7 L232.6,317.2 L235.2,312.2 L237.7,306.6 L240.3,300.5 L242.8,293.9 L245.3,286.9 L247.9,279.4 L250.4,271.5 L253,263.3 L255.5,254.7 L258,245.8 L260.6,236.6 L263.1,227.3 L265.6,217.7 L268.2,208.1 L270.7,198.4 L273.3,188.7 L275.8,179.1 L278.3,169.5 L280.9,160.1 L283.4,150.9 L285.9,141.9 L288.5,133.3 L291,125 L293.6,117.1 L296.1,109.6 L298.6,102.7 L301.2,96.25 L303.7,90.4 L306.3,85.14 L308.8,80.53 L311.3,76.57 L313.9,73.3 L316.4,70.74 L318.9,68.9 L321.5,67.79 L324,67.42 L326.6,67.79 L329.1,68.9 L331.6,70.74 L334.2,73.3 L336.7,76.57 L339.3,80.53 L341.8,85.14 L344.3,90.4 L346.9,96.25 L349.4,102.7 L351.9,109.6 L354.5,117.1 L357,125 L359.6,133.3 L362.1,141.9 L364.6,150.9 L367.2,160.1 L369.7,169.5 L372.2,179.1 L374.8,188.7 L377.3,198.4 L379.9,208.1 L382.4,217.7 L384.9,227.3 L387.5,236.6 L390,245.8 L392.6,254.7 L395.1,263.3 L397.6,271.5 L400.2,279.4 L402.7,286.9 L405.2,293.9 L407.8,300.5 L410.3,306.6 L412.9,312.2 L415.4,317.2 L417.9,321.7 L420.5,325.7 L423,329.1 L425.6,332 L428.1,334.3 L430.6,336 L433.2,337.3 L435.7,338 L438.2,338.2 L440.8,337.9 L443.3,337.2 L445.9,336 L448.4,334.5 L450.9,332.5 L453.5,330.3 L456,327.7 L458.5,324.8 L461.1,321.7 L463.6,318.4 L466.2,315 L468.7,311.4 L471.2,307.7 L473.8,304 L476.3,300.2 L478.9,296.5 L481.4,292.9 L483.9,289.3 L486.5,285.8 L489,282.5 L491.5,279.4 L494.1,276.4 L496.6,273.7 L499.2,271.2 L501.7,269 L504.2,267 L506.8,265.4 L509.3,264 L511.9,262.9 L514.4,262.1 L516.9,261.5 L519.5,261.3 L522,261.4 L524.5,261.7 L527.1,262.4 L529.6,263.2 L532.2,264.4 L534.7,265.7 L537.2,267.2 L539.8,269 L542.3,270.9 L544.8,272.9 L547.4,275.1 L549.9,277.4 L552.5,279.7 L555,282.1 L557.5,284.5 L560.1,286.9 L562.6,289.3 L565.2,291.6 L567.7,293.9 L570.2,296.1 L572.8,298.2 L575.3,300.2 L577.8,302 " fill="none"/></g>
</g>
<g id="plotPoints" clip-path="url(#plot_window)"><g stroke="rgb(0,0,0)"></g>
</g>
<g id="limitPoints" stroke="rgb(119,136,153)" fill="rgb(250,235,215)"></g>
<g id="legendBackground" stroke="rgb(119,136,153)" fill="rgb(255,255,255)"></g>
<g id="legendPoints"></g>
<g id="legendText"></g>
<g id="title">
<text x="300" y="40" text-anchor="middle" font-size="20" font-family="Verdana">sinc_pi</text></g>
</svg>
