<?xml version="1.0" encoding="UTF-8" standalone="no"?>
<svg width="600" height ="400" version="1.1" xmlns="http://www.w3.org/2000/svg"
 xmlns:xlink="http://www.w3.org/1999/xlink"
 xmlns:ev="http://www.w3.org/2001/xml-events">

<!-- SVG plot written using Boost.Plot program (Creator Jacob Voytko) --> 
<!-- Use, modification and distribution of Boost.Plot subject to the --> 
<!-- Boost Software License, Version 1.0.--> 
<!-- (See accompanying file LICENSE_1_0.txt --> 
<!-- or copy at http://www.boost.org/LICENSE_1_0.txt) --> 

<!-- SVG Plot Copyright John Maddock 2008 --> 
<meta name="copyright" content="John Maddock" />
<meta name="date" content="2008" />
<!-- Use, modification and distribution of this Scalable Vector Graphic file -->
<!-- are subject to the Boost Software License, Version 1.0. -->
<!-- (See accompanying file LICENSE_1_0.txt or copy at http://www.boost.org/LICENSE_1_0.txt) -->

<clipPath id="plot_window"><rect x="62.8" y="63" width="403.2" height="274.2"/></clipPath>
<g id="imageBackground" stroke="rgb(119,136,153)" fill="rgb(255,255,255)" stroke-width="2"><rect x="0" y="0" width="600" height="400"/></g>
<g id="plotBackground" stroke="rgb(119,136,153)" fill="rgb(255,255,255)" stroke-width="2"><rect x="61.8" y="62" width="405.2" height="276.2"/></g>
<g id="yMinorGrid" stroke="rgb(200,220,255)" stroke-width="0.5"></g>
<g id="yMajorGrid" stroke="rgb(200,220,255)" stroke-width="1"></g>
<g id="xMinorGrid" stroke="rgb(200,220,255)" stroke-width="0.5"></g>
<g id="xMajorGrid" stroke="rgb(200,220,255)" stroke-width="1"></g>
<g id="yAxis" stroke="rgb(0,0,0)" stroke-width="1"><line x1="61.8" y1="62" x2="61.8" y2="338.2"/></g>
<g id="xAxis" stroke="rgb(0,0,0)" stroke-width="1"><line x1="56.8" y1="84.48" x2="467" y2="84.48"/><line x1="56.8" y1="338.2" x2="467" y2="338.2"/></g>
<g id="yMinorTicks" stroke="rgb(0,0,0)" stroke-width="1"><path d="M59.8,71.8 L61.8,71.8 M59.8,84.48 L61.8,84.48 M59.8,97.17 L61.8,97.17 M59.8,109.9 L61.8,109.9 M59.8,122.5 L61.8,122.5 M59.8,135.2 L61.8,135.2 M59.8,147.9 L61.8,147.9 M59.8,160.6 L61.8,160.6 M59.8,173.3 L61.8,173.3 M59.8,186 L61.8,186 M59.8,198.7 L61.8,198.7 M59.8,211.3 L61.8,211.3 M59.8,224 L61.8,224 M59.8,236.7 L61.8,236.7 M59.8,249.4 L61.8,249.4 M59.8,262.1 L61.8,262.1 M59.8,274.8 L61.8,274.8 M59.8,287.5 L61.8,287.5 M59.8,300.1 L61.8,300.1 M59.8,312.8 L61.8,312.8 M59.8,325.5 L61.8,325.5 M59.8,338.2 L61.8,338.2 "/></g>
<g id="xMinorTicks" stroke="rgb(0,0,0)" stroke-width="1"><path d="M82.94,338.2 L82.94,340.2 M108,338.2 L108,340.2 M133.1,338.2 L133.1,340.2 M183.2,338.2 L183.2,340.2 M208.3,338.2 L208.3,340.2 M233.4,338.2 L233.4,340.2 M283.5,338.2 L283.5,340.2 M308.6,338.2 L308.6,340.2 M333.7,338.2 L333.7,340.2 M383.8,338.2 L383.8,340.2 M408.9,338.2 L408.9,340.2 M433.9,338.2 L433.9,340.2 "/></g>
<g id="yMajorTicks" stroke="rgb(0,0,0)" stroke-width="2"><path d="M56.8,84.48 L61.8,84.48 M56.8,84.48 L61.8,84.48 M56.8,135.2 L61.8,135.2 M56.8,186 L61.8,186 M56.8,236.7 L61.8,236.7 M56.8,287.5 L61.8,287.5 M56.8,338.2 L61.8,338.2 "/></g>
<g id="xMajorTicks" stroke="rgb(0,0,0)" stroke-width="2"><path d="M158.2,338.2 L158.2,343.2 M258.4,338.2 L258.4,343.2 M358.7,338.2 L358.7,343.2 M459,338.2 L459,343.2 "/></g>
<g id="plotLabels">
<text x="158.2" y="357.6" text-anchor="middle" font-size="12" font-family="Verdana">5</text>
<text x="258.4" y="357.6" text-anchor="middle" font-size="12" font-family="Verdana">10</text>
<text x="358.7" y="357.6" text-anchor="middle" font-size="12" font-family="Verdana">15</text>
<text x="459" y="357.6" text-anchor="middle" font-size="12" font-family="Verdana">20</text>
<text x="50.8" y="86.88" text-anchor="end" font-size="12" font-family="Verdana">0</text>
<text x="50.8" y="86.88" text-anchor="end" font-size="12" font-family="Verdana">0</text>
<text x="50.8" y="137.6" text-anchor="end" font-size="12" font-family="Verdana">-1</text>
<text x="50.8" y="188.4" text-anchor="end" font-size="12" font-family="Verdana">-2</text>
<text x="50.8" y="239.1" text-anchor="end" font-size="12" font-family="Verdana">-3</text>
<text x="50.8" y="289.9" text-anchor="end" font-size="12" font-family="Verdana">-4</text>
<text x="50.8" y="340.6" text-anchor="end" font-size="12" font-family="Verdana">-5</text></g>
<g id="yLabel">
<text x="30.2" y="200.1" text-anchor="middle" transform = "rotate(-90 30.2 200.1 )" font-size="14" font-family="Verdana">sph_neumann(v, x)</text></g>
<g id="xLabel">
<text x="264.4" y="384" text-anchor="middle" font-size="14" font-family="Verdana">x</text></g>
<g id="plotLines" stroke-width="2"><g clip-path="url(#plot_window)" stroke="rgb(0,0,139)" stroke-width="1"><path d="M61.8,338.2 L63.79,249 L65.77,203.3 L67.76,175.1 L69.74,155.6 L71.73,141 L73.72,129.7 L75.7,120.4 L77.69,112.7 L79.67,106.2 L81.66,100.5 L83.65,95.6 L85.63,91.28 L87.62,87.47 L89.61,84.11 L91.59,81.15 L93.58,78.55 L95.56,76.28 L97.55,74.32 L99.54,72.63 L101.5,71.21 L103.5,70.04 L105.5,69.1 L107.5,68.38 L109.5,67.87 L111.5,67.55 L113.4,67.42 L115.4,67.45 L117.4,67.65 L119.4,67.99 L121.4,68.47 L123.4,69.07 L125.4,69.78 L127.3,70.59 L129.3,71.49 L131.3,72.46 L133.3,73.5 L135.3,74.59 L137.3,75.71 L139.3,76.87 L141.2,78.05 L143.2,79.23 L145.2,80.41 L147.2,81.57 L149.2,82.72 L151.2,83.83 L153.2,84.9 L155.1,85.92 L157.1,86.89 L159.1,87.8 L161.1,88.64 L163.1,89.41 L165.1,90.1 L167.1,90.71 L169,91.24 L171,91.69 L173,92.06 L175,92.33 L177,92.53 L179,92.64 L181,92.66 L183,92.61 L184.9,92.48 L186.9,92.28 L188.9,92.01 L190.9,91.67 L192.9,91.28 L194.9,90.83 L196.9,90.33 L198.8,89.79 L200.8,89.21 L202.8,88.61 L204.8,87.98 L206.8,87.33 L208.8,86.67 L210.8,86.01 L212.7,85.35 L214.7,84.7 L216.7,84.06 L218.7,83.45 L220.7,82.86 L222.7,82.29 L224.7,81.77 L226.6,81.28 L228.6,80.83 L230.6,80.43 L232.6,80.08 L234.6,79.78 L236.6,79.53 L238.6,79.33 L240.5,79.19 L242.5,79.1 L244.5,79.07 L246.5,79.09 L248.5,79.16 L250.5,79.28 L252.5,79.45 L254.4,79.67 L256.4,79.93 L258.4,80.22 L260.4,80.56 L262.4,80.92 L264.4,81.31 L266.4,81.73 L268.4,82.16 L270.3,82.61 L272.3,83.07 L274.3,83.53 L276.3,83.99 L278.3,84.46 L280.3,84.91 L282.3,85.35 L284.2,85.77 L286.2,86.18 L288.2,86.56 L290.2,86.91 L292.2,87.24 L294.2,87.53 L296.2,87.79 L298.1,88.01 L300.1,88.2 L302.1,88.34 L304.1,88.45 L306.1,88.51 L308.1,88.54 L310.1,88.52 L312,88.47 L314,88.37 L316,88.25 L318,88.08 L320,87.89 L322,87.66 L324,87.41 L325.9,87.13 L327.9,86.83 L329.9,86.51 L331.9,86.18 L333.9,85.84 L335.9,85.48 L337.9,85.13 L339.9,84.77 L341.8,84.41 L343.8,84.06 L345.8,83.72 L347.8,83.39 L349.8,83.07 L351.8,82.78 L353.8,82.5 L355.7,82.25 L357.7,82.02 L359.7,81.82 L361.7,81.65 L363.7,81.5 L365.7,81.39 L367.7,81.31 L369.6,81.26 L371.6,81.25 L373.6,81.26 L375.6,81.31 L377.6,81.39 L379.6,81.49 L381.6,81.63 L383.5,81.79 L385.5,81.97 L387.5,82.18 L389.5,82.41 L391.5,82.65 L393.5,82.91 L395.5,83.18 L397.4,83.46 L399.4,83.75 L401.4,84.04 L403.4,84.33 L405.4,84.62 L407.4,84.91 L409.4,85.19 L411.3,85.46 L413.3,85.71 L415.3,85.96 L417.3,86.18 L419.3,86.39 L421.3,86.57 L423.3,86.73 L425.3,86.87 L427.2,86.98 L429.2,87.07 L431.2,87.14 L433.2,87.17 L435.2,87.18 L437.2,87.16 L439.2,87.12 L441.1,87.05 L443.1,86.96 L445.1,86.84 L447.1,86.71 L449.1,86.55 L451.1,86.37 L453.1,86.18 L455,85.97 L457,85.75 " fill="none"/></g>
<g clip-path="url(#plot_window)" stroke="rgb(139,0,0)" stroke-width="1"><path d="M75.6,338.2 L77.52,277.4 L79.44,236 L81.35,206.8 L83.27,185.5 L85.19,169.5 L87.11,157.3 L89.02,147.7 L90.94,140.1 L92.86,133.8 L94.77,128.7 L96.69,124.3 L98.61,120.6 L100.5,117.3 L102.4,114.4 L104.4,111.8 L106.3,109.5 L108.2,107.3 L110.1,105.3 L112,103.4 L113.9,101.6 L115.9,99.89 L117.8,98.25 L119.7,96.67 L121.6,95.15 L123.5,93.68 L125.4,92.25 L127.4,90.87 L129.3,89.54 L131.2,88.25 L133.1,87.01 L135,85.82 L136.9,84.68 L138.9,83.59 L140.8,82.56 L142.7,81.58 L144.6,80.67 L146.5,79.82 L148.5,79.03 L150.4,78.31 L152.3,77.66 L154.2,77.08 L156.1,76.57 L158,76.14 L160,75.77 L161.9,75.48 L163.8,75.27 L165.7,75.12 L167.6,75.05 L169.5,75.05 L171.5,75.12 L173.4,75.25 L175.3,75.45 L177.2,75.7 L179.1,76.02 L181,76.38 L183,76.8 L184.9,77.27 L186.8,77.77 L188.7,78.31 L190.6,78.89 L192.5,79.49 L194.5,80.11 L196.4,80.75 L198.3,81.4 L200.2,82.06 L202.1,82.72 L204,83.38 L206,84.03 L207.9,84.67 L209.8,85.29 L211.7,85.88 L213.6,86.45 L215.5,86.99 L217.5,87.5 L219.4,87.97 L221.3,88.4 L223.2,88.79 L225.1,89.14 L227.1,89.44 L229,89.69 L230.9,89.89 L232.8,90.04 L234.7,90.15 L236.6,90.2 L238.6,90.2 L240.5,90.16 L242.4,90.07 L244.3,89.94 L246.2,89.76 L248.1,89.54 L250.1,89.28 L252,88.99 L253.9,88.67 L255.8,88.31 L257.7,87.93 L259.6,87.53 L261.6,87.11 L263.5,86.68 L265.4,86.23 L267.3,85.78 L269.2,85.33 L271.1,84.87 L273.1,84.42 L275,83.98 L276.9,83.55 L278.8,83.14 L280.7,82.75 L282.6,82.37 L284.6,82.02 L286.5,81.7 L288.4,81.41 L290.3,81.15 L292.2,80.92 L294.1,80.73 L296.1,80.57 L298,80.45 L299.9,80.37 L301.8,80.32 L303.7,80.31 L305.7,80.34 L307.6,80.4 L309.5,80.5 L311.4,80.63 L313.3,80.79 L315.2,80.98 L317.2,81.2 L319.1,81.44 L321,81.71 L322.9,82 L324.8,82.31 L326.7,82.63 L328.7,82.96 L330.6,83.3 L332.5,83.65 L334.4,84 L336.3,84.34 L338.2,84.69 L340.2,85.03 L342.1,85.36 L344,85.67 L345.9,85.98 L347.8,86.26 L349.7,86.53 L351.7,86.77 L353.6,86.99 L355.5,87.19 L357.4,87.36 L359.3,87.5 L361.2,87.62 L363.2,87.7 L365.1,87.76 L367,87.78 L368.9,87.78 L370.8,87.74 L372.7,87.68 L374.7,87.59 L376.6,87.48 L378.5,87.34 L380.4,87.17 L382.3,86.99 L384.3,86.78 L386.2,86.56 L388.1,86.32 L390,86.06 L391.9,85.8 L393.8,85.53 L395.8,85.25 L397.7,84.96 L399.6,84.68 L401.5,84.4 L403.4,84.12 L405.3,83.85 L407.3,83.58 L409.2,83.33 L411.1,83.09 L413,82.87 L414.9,82.66 L416.8,82.47 L418.8,82.3 L420.7,82.15 L422.6,82.03 L424.5,81.92 L426.4,81.84 L428.3,81.79 L430.3,81.76 L432.2,81.75 L434.1,81.77 L436,81.82 L437.9,81.88 L439.8,81.97 L441.8,82.08 L443.7,82.22 L445.6,82.37 L447.5,82.53 L449.4,82.72 L451.3,82.91 L453.3,83.12 L455.2,83.34 L457.1,83.57 L459,83.8 " fill="none"/></g>
<g clip-path="url(#plot_window)" stroke="rgb(0,100,0)" stroke-width="1"><path d="M109.1,338.2 L110.9,298.1 L112.6,265.7 L114.4,239.4 L116.1,217.9 L117.9,200.1 L119.6,185.4 L121.4,173.1 L123.1,162.8 L124.9,154.1 L126.6,146.7 L128.4,140.4 L130.1,134.9 L131.9,130.3 L133.6,126.3 L135.4,122.7 L137.1,119.7 L138.9,117 L140.6,114.6 L142.4,112.5 L144.1,110.6 L145.9,109 L147.6,107.4 L149.4,106.1 L151.1,104.8 L152.9,103.7 L154.6,102.7 L156.4,101.7 L158.1,100.8 L159.9,99.92 L161.6,99.12 L163.3,98.35 L165.1,97.62 L166.8,96.92 L168.6,96.24 L170.3,95.58 L172.1,94.94 L173.8,94.31 L175.6,93.69 L177.3,93.09 L179.1,92.49 L180.8,91.89 L182.6,91.3 L184.3,90.72 L186.1,90.14 L187.8,89.56 L189.6,88.99 L191.3,88.43 L193.1,87.87 L194.8,87.31 L196.6,86.76 L198.3,86.22 L200.1,85.69 L201.8,85.16 L203.6,84.65 L205.3,84.15 L207.1,83.66 L208.8,83.18 L210.6,82.72 L212.3,82.28 L214.1,81.86 L215.8,81.45 L217.6,81.07 L219.3,80.71 L221.1,80.37 L222.8,80.05 L224.6,79.76 L226.3,79.5 L228.1,79.26 L229.8,79.05 L231.6,78.87 L233.3,78.72 L235.1,78.6 L236.8,78.5 L238.6,78.44 L240.3,78.41 L242.1,78.4 L243.8,78.43 L245.6,78.49 L247.3,78.57 L249.1,78.68 L250.8,78.82 L252.6,78.99 L254.3,79.18 L256.1,79.4 L257.8,79.63 L259.6,79.89 L261.3,80.17 L263.1,80.47 L264.8,80.78 L266.6,81.11 L268.3,81.46 L270.1,81.81 L271.8,82.17 L273.6,82.54 L275.3,82.91 L277.1,83.29 L278.8,83.67 L280.6,84.04 L282.3,84.42 L284.1,84.78 L285.8,85.14 L287.6,85.49 L289.3,85.83 L291.1,86.16 L292.8,86.47 L294.6,86.77 L296.3,87.05 L298.1,87.3 L299.8,87.54 L301.6,87.76 L303.3,87.95 L305.1,88.12 L306.8,88.27 L308.6,88.39 L310.3,88.48 L312.1,88.55 L313.8,88.59 L315.6,88.61 L317.3,88.6 L319.1,88.57 L320.8,88.51 L322.6,88.43 L324.3,88.32 L326.1,88.19 L327.8,88.04 L329.6,87.87 L331.3,87.68 L333.1,87.47 L334.8,87.24 L336.6,87 L338.3,86.75 L340,86.49 L341.8,86.21 L343.5,85.93 L345.3,85.64 L347,85.35 L348.8,85.06 L350.5,84.77 L352.3,84.47 L354,84.19 L355.8,83.9 L357.5,83.63 L359.3,83.36 L361,83.1 L362.8,82.86 L364.5,82.63 L366.3,82.41 L368,82.21 L369.8,82.03 L371.5,81.86 L373.3,81.72 L375,81.59 L376.8,81.49 L378.5,81.4 L380.3,81.34 L382,81.3 L383.8,81.28 L385.5,81.29 L387.3,81.31 L389,81.36 L390.8,81.42 L392.5,81.51 L394.3,81.61 L396,81.74 L397.8,81.88 L399.5,82.03 L401.3,82.21 L403,82.39 L404.8,82.59 L406.5,82.8 L408.3,83.02 L410,83.24 L411.8,83.48 L413.5,83.71 L415.3,83.95 L417,84.19 L418.8,84.44 L420.5,84.67 L422.3,84.91 L424,85.14 L425.8,85.36 L427.5,85.58 L429.3,85.79 L431,85.98 L432.8,86.16 L434.5,86.33 L436.3,86.49 L438,86.63 L439.8,86.75 L441.5,86.86 L443.3,86.95 L445,87.02 L446.8,87.07 L448.5,87.11 L450.3,87.12 L452,87.12 L453.8,87.1 L455.5,87.06 L457.3,87 " fill="none"/></g>
<g clip-path="url(#plot_window)" stroke="rgb(255,140,0)" stroke-width="1"><path d="M135.4,338.2 L137,305.7 L138.6,278.1 L140.3,254.7 L141.9,234.7 L143.5,217.5 L145.1,202.8 L146.7,190 L148.3,179 L150,169.5 L151.6,161.1 L153.2,153.8 L154.8,147.5 L156.4,141.8 L158.1,136.9 L159.7,132.5 L161.3,128.7 L162.9,125.2 L164.5,122.2 L166.1,119.4 L167.8,117 L169.4,114.8 L171,112.8 L172.6,111 L174.2,109.4 L175.9,108 L177.5,106.7 L179.1,105.5 L180.7,104.4 L182.3,103.3 L183.9,102.4 L185.6,101.6 L187.2,100.8 L188.8,100 L190.4,99.33 L192,98.68 L193.7,98.07 L195.3,97.5 L196.9,96.96 L198.5,96.44 L200.1,95.94 L201.7,95.46 L203.4,95.01 L205,94.56 L206.6,94.13 L208.2,93.7 L209.8,93.29 L211.5,92.89 L213.1,92.48 L214.7,92.09 L216.3,91.7 L217.9,91.31 L219.5,90.92 L221.2,90.54 L222.8,90.16 L224.4,89.78 L226,89.4 L227.6,89.02 L229.2,88.64 L230.9,88.26 L232.5,87.89 L234.1,87.51 L235.7,87.14 L237.3,86.76 L239,86.39 L240.6,86.03 L242.2,85.66 L243.8,85.3 L245.4,84.95 L247,84.6 L248.7,84.25 L250.3,83.91 L251.9,83.58 L253.5,83.26 L255.1,82.94 L256.8,82.64 L258.4,82.34 L260,82.05 L261.6,81.78 L263.2,81.52 L264.8,81.27 L266.5,81.04 L268.1,80.82 L269.7,80.61 L271.3,80.42 L272.9,80.25 L274.6,80.09 L276.2,79.95 L277.8,79.83 L279.4,79.73 L281,79.64 L282.6,79.57 L284.3,79.52 L285.9,79.49 L287.5,79.48 L289.1,79.49 L290.7,79.51 L292.4,79.56 L294,79.62 L295.6,79.7 L297.2,79.79 L298.8,79.91 L300.4,80.04 L302.1,80.19 L303.7,80.35 L305.3,80.53 L306.9,80.72 L308.5,80.92 L310.2,81.14 L311.8,81.36 L313.4,81.6 L315,81.85 L316.6,82.1 L318.2,82.37 L319.9,82.63 L321.5,82.91 L323.1,83.18 L324.7,83.46 L326.3,83.74 L328,84.02 L329.6,84.3 L331.2,84.57 L332.8,84.85 L334.4,85.11 L336,85.38 L337.7,85.63 L339.3,85.88 L340.9,86.11 L342.5,86.34 L344.1,86.56 L345.8,86.76 L347.4,86.95 L349,87.13 L350.6,87.29 L352.2,87.43 L353.8,87.57 L355.5,87.68 L357.1,87.78 L358.7,87.86 L360.3,87.92 L361.9,87.97 L363.5,88 L365.2,88.01 L366.8,88 L368.4,87.98 L370,87.94 L371.6,87.88 L373.3,87.81 L374.9,87.72 L376.5,87.62 L378.1,87.5 L379.7,87.36 L381.3,87.22 L383,87.06 L384.6,86.89 L386.2,86.7 L387.8,86.51 L389.4,86.31 L391.1,86.11 L392.7,85.89 L394.3,85.67 L395.9,85.45 L397.5,85.23 L399.1,85 L400.8,84.77 L402.4,84.54 L404,84.32 L405.6,84.1 L407.2,83.88 L408.9,83.67 L410.5,83.46 L412.1,83.26 L413.7,83.07 L415.3,82.89 L416.9,82.71 L418.6,82.55 L420.2,82.4 L421.8,82.27 L423.4,82.14 L425,82.04 L426.7,81.94 L428.3,81.86 L429.9,81.79 L431.5,81.74 L433.1,81.71 L434.7,81.69 L436.4,81.68 L438,81.69 L439.6,81.72 L441.2,81.76 L442.8,81.81 L444.5,81.88 L446.1,81.97 L447.7,82.06 L449.3,82.17 L450.9,82.29 L452.5,82.43 L454.2,82.57 L455.8,82.72 L457.4,82.88 " fill="none"/></g>
<g clip-path="url(#plot_window)" stroke="rgb(127,255,0)" stroke-width="1"><path d="M178.1,338.2 L179.5,313.6 L180.9,291.8 L182.3,272.4 L183.7,255.2 L185.2,239.8 L186.6,226.1 L188,213.8 L189.4,202.7 L190.8,192.9 L192.2,184 L193.6,176 L195,168.7 L196.4,162.2 L197.8,156.3 L199.2,151 L200.6,146.1 L202,141.8 L203.4,137.8 L204.8,134.1 L206.2,130.8 L207.6,127.8 L209,125 L210.4,122.5 L211.8,120.2 L213.2,118 L214.6,116.1 L216,114.3 L217.5,112.7 L218.9,111.1 L220.3,109.7 L221.7,108.4 L223.1,107.3 L224.5,106.1 L225.9,105.1 L227.3,104.2 L228.7,103.3 L230.1,102.5 L231.5,101.7 L232.9,101 L234.3,100.3 L235.7,99.69 L237.1,99.1 L238.5,98.55 L239.9,98.04 L241.3,97.55 L242.7,97.09 L244.1,96.66 L245.5,96.25 L246.9,95.86 L248.4,95.49 L249.8,95.13 L251.2,94.79 L252.6,94.47 L254,94.16 L255.4,93.86 L256.8,93.57 L258.2,93.29 L259.6,93.01 L261,92.75 L262.4,92.49 L263.8,92.24 L265.2,91.99 L266.6,91.75 L268,91.51 L269.4,91.27 L270.8,91.04 L272.2,90.81 L273.6,90.58 L275,90.35 L276.4,90.13 L277.8,89.9 L279.2,89.68 L280.7,89.45 L282.1,89.23 L283.5,89 L284.9,88.78 L286.3,88.55 L287.7,88.33 L289.1,88.1 L290.5,87.88 L291.9,87.65 L293.3,87.43 L294.7,87.2 L296.1,86.97 L297.5,86.75 L298.9,86.52 L300.3,86.3 L301.7,86.07 L303.1,85.85 L304.5,85.62 L305.9,85.4 L307.3,85.18 L308.7,84.96 L310.1,84.74 L311.6,84.52 L313,84.31 L314.4,84.1 L315.8,83.89 L317.2,83.68 L318.6,83.48 L320,83.28 L321.4,83.09 L322.8,82.9 L324.2,82.71 L325.6,82.54 L327,82.36 L328.4,82.19 L329.8,82.03 L331.2,81.88 L332.6,81.73 L334,81.59 L335.4,81.45 L336.8,81.33 L338.2,81.21 L339.6,81.1 L341,81 L342.4,80.9 L343.9,80.82 L345.3,80.74 L346.7,80.68 L348.1,80.62 L349.5,80.57 L350.9,80.53 L352.3,80.51 L353.7,80.49 L355.1,80.48 L356.5,80.48 L357.9,80.49 L359.3,80.51 L360.7,80.54 L362.1,80.58 L363.5,80.63 L364.9,80.69 L366.3,80.76 L367.7,80.84 L369.1,80.93 L370.5,81.02 L371.9,81.13 L373.3,81.24 L374.7,81.36 L376.2,81.48 L377.6,81.62 L379,81.76 L380.4,81.91 L381.8,82.06 L383.2,82.22 L384.6,82.38 L386,82.55 L387.4,82.72 L388.8,82.9 L390.2,83.08 L391.6,83.26 L393,83.45 L394.4,83.63 L395.8,83.82 L397.2,84 L398.6,84.19 L400,84.38 L401.4,84.56 L402.8,84.75 L404.2,84.93 L405.6,85.11 L407.1,85.28 L408.5,85.45 L409.9,85.62 L411.3,85.78 L412.7,85.94 L414.1,86.09 L415.5,86.23 L416.9,86.37 L418.3,86.5 L419.7,86.62 L421.1,86.74 L422.5,86.84 L423.9,86.94 L425.3,87.03 L426.7,87.11 L428.1,87.18 L429.5,87.25 L430.9,87.3 L432.3,87.34 L433.7,87.37 L435.1,87.39 L436.5,87.41 L437.9,87.41 L439.4,87.4 L440.8,87.39 L442.2,87.36 L443.6,87.32 L445,87.28 L446.4,87.22 L447.8,87.16 L449.2,87.08 L450.6,87 L452,86.91 L453.4,86.82 L454.8,86.71 L456.2,86.6 L457.6,86.48 L459,86.35 " fill="none"/></g>
</g>
<g id="plotPoints" clip-path="url(#plot_window)"><g stroke="rgb(0,0,0)"></g>
<g stroke="rgb(0,0,0)"></g>
<g stroke="rgb(0,0,0)"></g>
<g stroke="rgb(0,0,0)"></g>
<g stroke="rgb(0,0,0)"></g>
</g>
<g id="limitPoints" stroke="rgb(119,136,153)" fill="rgb(250,235,215)"></g>
<g id="legendBackground" stroke="rgb(119,136,153)" fill="rgb(255,255,255)" stroke-width="1"><rect x="481" y="62" width="107" height="154"/><rect x="481" y="62" width="107" height="154"/></g>
<g id="legendPoints"><g stroke="rgb(0,0,139)" stroke-width="1"><line x1="495" y1="90" x2="509" y2="90"/></g>
<g stroke="rgb(139,0,0)" stroke-width="1"><line x1="495" y1="118" x2="509" y2="118"/></g>
<g stroke="rgb(0,100,0)" stroke-width="1"><line x1="495" y1="146" x2="509" y2="146"/></g>
<g stroke="rgb(255,140,0)" stroke-width="1"><line x1="495" y1="174" x2="509" y2="174"/></g>
<g stroke="rgb(127,255,0)" stroke-width="1"><line x1="495" y1="202" x2="509" y2="202"/></g>
</g>
<g id="legendText">
<text x="516" y="90" font-size="14" font-family="Verdana">v = 0</text>
<text x="516" y="118" font-size="14" font-family="Verdana">v = 2</text>
<text x="516" y="146" font-size="14" font-family="Verdana">v = 5</text>
<text x="516" y="174" font-size="14" font-family="Verdana">v = 7</text>
<text x="516" y="202" font-size="14" font-family="Verdana">v = 10</text></g>
<g id="title">
<text x="300" y="40" text-anchor="middle" font-size="20" font-family="Verdana">Bessel y</text></g>
</svg>
