<?xml version="1.0" encoding="UTF-8" standalone="no"?>
<svg width="600" height ="400" version="1.1" xmlns="http://www.w3.org/2000/svg"
 xmlns:xlink="http://www.w3.org/1999/xlink"
 xmlns:ev="http://www.w3.org/2001/xml-events">

<!-- SVG plot written using Boost.Plot program (Creator Jacob Voytko) --> 
<!-- Use, modification and distribution of Boost.Plot subject to the --> 
<!-- Boost Software License, Version 1.0.--> 
<!-- (See accompanying file LICENSE_1_0.txt --> 
<!-- or copy at http://www.boost.org/LICENSE_1_0.txt) --> 

<!-- SVG Plot Copyright John Maddock 2008 --> 
<meta name="copyright" content="John Maddock" />
<meta name="date" content="2008" />
<!-- Use, modification and distribution of this Scalable Vector Graphic file -->
<!-- are subject to the Boost Software License, Version 1.0. -->
<!-- (See accompanying file LICENSE_1_0.txt or copy at http://www.boost.org/LICENSE_1_0.txt) -->

<clipPath id="plot_window"><rect x="71.2" y="63" width="394.8" height="274.2"/></clipPath>
<g id="imageBackground" stroke="rgb(119,136,153)" fill="rgb(255,255,255)" stroke-width="2"><rect x="0" y="0" width="600" height="400"/></g>
<g id="plotBackground" stroke="rgb(119,136,153)" fill="rgb(255,255,255)" stroke-width="2"><rect x="70.2" y="62" width="396.8" height="276.2"/></g>
<g id="yMinorGrid" stroke="rgb(200,220,255)" stroke-width="0.5"></g>
<g id="yMajorGrid" stroke="rgb(200,220,255)" stroke-width="1"></g>
<g id="xMinorGrid" stroke="rgb(200,220,255)" stroke-width="0.5"></g>
<g id="xMajorGrid" stroke="rgb(200,220,255)" stroke-width="1"></g>
<g id="yAxis" stroke="rgb(0,0,0)" stroke-width="1"><line x1="70.2" y1="62" x2="70.2" y2="343.2"/><line x1="70.2" y1="62" x2="70.2" y2="338.2"/></g>
<g id="xAxis" stroke="rgb(0,0,0)" stroke-width="1"><line x1="65.2" y1="289.9" x2="467" y2="289.9"/><line x1="65.2" y1="338.2" x2="467" y2="338.2"/></g>
<g id="yMinorTicks" stroke="rgb(0,0,0)" stroke-width="1"><path d="M68.2,262.1 L70.2,262.1 M68.2,234.3 L70.2,234.3 M68.2,206.5 L70.2,206.5 M68.2,150.8 L70.2,150.8 M68.2,123 L70.2,123 M68.2,95.22 L70.2,95.22 M68.2,289.9 L70.2,289.9 M68.2,317.7 L70.2,317.7 "/></g>
<g id="xMinorTicks" stroke="rgb(0,0,0)" stroke-width="1"><path d="M94.51,338.2 L94.51,340.2 M118.8,338.2 L118.8,340.2 M143.1,338.2 L143.1,340.2 M191.8,338.2 L191.8,340.2 M216.1,338.2 L216.1,340.2 M240.4,338.2 L240.4,340.2 M289,338.2 L289,340.2 M313.3,338.2 L313.3,340.2 M337.6,338.2 L337.6,340.2 M386.2,338.2 L386.2,340.2 M410.6,338.2 L410.6,340.2 M434.9,338.2 L434.9,340.2 "/></g>
<g id="yMajorTicks" stroke="rgb(0,0,0)" stroke-width="2"><path d="M65.2,289.9 L70.2,289.9 M65.2,178.6 L70.2,178.6 M65.2,67.42 L70.2,67.42 M65.2,289.9 L70.2,289.9 "/></g>
<g id="xMajorTicks" stroke="rgb(0,0,0)" stroke-width="2"><path d="M70.2,338.2 L70.2,343.2 M167.4,338.2 L167.4,343.2 M264.7,338.2 L264.7,343.2 M361.9,338.2 L361.9,343.2 M459.2,338.2 L459.2,343.2 M70.2,338.2 L70.2,343.2 "/></g>
<g id="plotLabels">
<text x="70.2" y="357.6" text-anchor="middle" font-size="12" font-family="Verdana">0</text>
<text x="167.4" y="357.6" text-anchor="middle" font-size="12" font-family="Verdana">5</text>
<text x="264.7" y="357.6" text-anchor="middle" font-size="12" font-family="Verdana">10</text>
<text x="361.9" y="357.6" text-anchor="middle" font-size="12" font-family="Verdana">15</text>
<text x="459.2" y="357.6" text-anchor="middle" font-size="12" font-family="Verdana">20</text>
<text x="70.2" y="357.6" text-anchor="middle" font-size="12" font-family="Verdana">0</text>
<text x="59.2" y="292.3" text-anchor="end" font-size="12" font-family="Verdana">0</text>
<text x="59.2" y="181" text-anchor="end" font-size="12" font-family="Verdana">0.5</text>
<text x="59.2" y="69.82" text-anchor="end" font-size="12" font-family="Verdana">1</text>
<text x="59.2" y="292.3" text-anchor="end" font-size="12" font-family="Verdana">0</text></g>
<g id="yLabel">
<text x="30.2" y="200.1" text-anchor="middle" transform = "rotate(-90 30.2 200.1 )" font-size="14" font-family="Verdana">sph_bessel(v, x)</text></g>
<g id="xLabel">
<text x="268.6" y="384" text-anchor="middle" font-size="14" font-family="Verdana">x</text></g>
<g id="plotLines" stroke-width="2"><g clip-path="url(#plot_window)" stroke="rgb(0,0,139)" stroke-width="1"><path d="M70.2,67.42 L72.14,67.79 L74.09,68.9 L76.03,70.74 L77.98,73.3 L79.92,76.57 L81.87,80.53 L83.81,85.14 L85.76,90.4 L87.7,96.25 L89.65,102.7 L91.59,109.6 L93.54,117.1 L95.48,125 L97.43,133.3 L99.37,141.9 L101.3,150.9 L103.3,160.1 L105.2,169.5 L107.2,179.1 L109.1,188.7 L111,198.4 L113,208.1 L114.9,217.7 L116.9,227.3 L118.8,236.6 L120.8,245.8 L122.7,254.7 L124.7,263.3 L126.6,271.5 L128.5,279.4 L130.5,286.9 L132.4,293.9 L134.4,300.5 L136.3,306.6 L138.3,312.2 L140.2,317.2 L142.2,321.7 L144.1,325.7 L146.1,329.1 L148,332 L149.9,334.3 L151.9,336 L153.8,337.3 L155.8,338 L157.7,338.2 L159.7,337.9 L161.6,337.2 L163.6,336 L165.5,334.5 L167.4,332.5 L169.4,330.3 L171.3,327.7 L173.3,324.8 L175.2,321.7 L177.2,318.4 L179.1,315 L181.1,311.4 L183,307.7 L184.9,304 L186.9,300.2 L188.8,296.5 L190.8,292.9 L192.7,289.3 L194.7,285.8 L196.6,282.5 L198.6,279.4 L200.5,276.4 L202.5,273.7 L204.4,271.2 L206.3,269 L208.3,267 L210.2,265.4 L212.2,264 L214.1,262.9 L216.1,262.1 L218,261.5 L220,261.3 L221.9,261.4 L223.8,261.7 L225.8,262.4 L227.7,263.2 L229.7,264.4 L231.6,265.7 L233.6,267.2 L235.5,269 L237.5,270.9 L239.4,272.9 L241.4,275.1 L243.3,277.4 L245.2,279.7 L247.2,282.1 L249.1,284.5 L251.1,286.9 L253,289.3 L255,291.6 L256.9,293.9 L258.9,296.1 L260.8,298.2 L262.7,300.2 L264.7,302 L266.6,303.6 L268.6,305.1 L270.5,306.5 L272.5,307.6 L274.4,308.5 L276.4,309.2 L278.3,309.8 L280.2,310.1 L282.2,310.2 L284.1,310.1 L286.1,309.8 L288,309.3 L290,308.7 L291.9,307.8 L293.9,306.8 L295.8,305.7 L297.8,304.4 L299.7,303 L301.6,301.4 L303.6,299.8 L305.5,298.1 L307.5,296.4 L309.4,294.6 L311.4,292.8 L313.3,291.1 L315.3,289.3 L317.2,287.5 L319.1,285.9 L321.1,284.2 L323,282.7 L325,281.2 L326.9,279.9 L328.9,278.7 L330.8,277.6 L332.8,276.6 L334.7,275.8 L336.7,275.2 L338.6,274.7 L340.5,274.3 L342.5,274.1 L344.4,274.1 L346.4,274.2 L348.3,274.5 L350.3,275 L352.2,275.5 L354.2,276.2 L356.1,277.1 L358,278 L360,279.1 L361.9,280.2 L363.9,281.5 L365.8,282.8 L367.8,284.1 L369.7,285.5 L371.7,286.9 L373.6,288.3 L375.5,289.8 L377.5,291.2 L379.4,292.5 L381.4,293.9 L383.3,295.2 L385.3,296.4 L387.2,297.5 L389.2,298.5 L391.1,299.5 L393.1,300.3 L395,301 L396.9,301.6 L398.9,302.1 L400.8,302.5 L402.8,302.7 L404.7,302.8 L406.7,302.7 L408.6,302.6 L410.6,302.3 L412.5,301.9 L414.4,301.3 L416.4,300.7 L418.3,300 L420.3,299.2 L422.2,298.2 L424.2,297.3 L426.1,296.2 L428.1,295.1 L430,294 L432,292.8 L433.9,291.6 L435.8,290.5 L437.8,289.3 L439.7,288.1 L441.7,287 L443.6,285.9 L445.6,284.9 L447.5,283.9 L449.5,283 L451.4,282.1 L453.3,281.4 L455.3,280.7 L457.2,280.2 " fill="none"/></g>
<g clip-path="url(#plot_window)" stroke="rgb(139,0,0)" stroke-width="1"><path d="M70.2,289.9 L72.14,289.7 L74.09,289.3 L76.03,288.5 L77.98,287.5 L79.92,286.2 L81.87,284.7 L83.81,282.9 L85.76,280.8 L87.7,278.5 L89.65,276.1 L91.59,273.4 L93.54,270.6 L95.48,267.7 L97.43,264.7 L99.37,261.5 L101.3,258.4 L103.3,255.2 L105.2,252 L107.2,248.8 L109.1,245.7 L111,242.7 L113,239.8 L114.9,237 L116.9,234.4 L118.8,232 L120.8,229.8 L122.7,227.8 L124.7,226.1 L126.6,224.6 L128.5,223.4 L130.5,222.5 L132.4,221.9 L134.4,221.7 L136.3,221.7 L138.3,222 L140.2,222.7 L142.2,223.7 L144.1,224.9 L146.1,226.5 L148,228.4 L149.9,230.6 L151.9,233 L153.8,235.7 L155.8,238.6 L157.7,241.8 L159.7,245.1 L161.6,248.6 L163.6,252.3 L165.5,256 L167.4,259.9 L169.4,263.8 L171.3,267.8 L173.3,271.8 L175.2,275.8 L177.2,279.8 L179.1,283.7 L181.1,287.5 L183,291.2 L184.9,294.8 L186.9,298.2 L188.8,301.4 L190.8,304.4 L192.7,307.2 L194.7,309.8 L196.6,312.1 L198.6,314.2 L200.5,316 L202.5,317.5 L204.4,318.8 L206.3,319.7 L208.3,320.4 L210.2,320.8 L212.2,320.9 L214.1,320.8 L216.1,320.3 L218,319.6 L220,318.7 L221.9,317.5 L223.8,316.2 L225.8,314.6 L227.7,312.8 L229.7,310.9 L231.6,308.8 L233.6,306.6 L235.5,304.3 L237.5,302 L239.4,299.6 L241.4,297.1 L243.3,294.6 L245.2,292.2 L247.2,289.8 L249.1,287.4 L251.1,285.1 L253,282.9 L255,280.8 L256.9,278.8 L258.9,277 L260.8,275.4 L262.7,273.9 L264.7,272.5 L266.6,271.4 L268.6,270.5 L270.5,269.7 L272.5,269.2 L274.4,268.9 L276.4,268.7 L278.3,268.8 L280.2,269.1 L282.2,269.5 L284.1,270.2 L286.1,271 L288,272 L290,273.1 L291.9,274.4 L293.9,275.8 L295.8,277.3 L297.8,278.9 L299.7,280.5 L301.6,282.3 L303.6,284 L305.5,285.8 L307.5,287.7 L309.4,289.5 L311.4,291.2 L313.3,293 L315.3,294.7 L317.2,296.3 L319.1,297.8 L321.1,299.2 L323,300.5 L325,301.7 L326.9,302.8 L328.9,303.7 L330.8,304.5 L332.8,305.1 L334.7,305.5 L336.7,305.9 L338.6,306 L340.5,306 L342.5,305.8 L344.4,305.5 L346.4,305.1 L348.3,304.5 L350.3,303.7 L352.2,302.9 L354.2,301.9 L356.1,300.8 L358,299.7 L360,298.4 L361.9,297.1 L363.9,295.8 L365.8,294.4 L367.8,293 L369.7,291.5 L371.7,290.1 L373.6,288.7 L375.5,287.3 L377.5,285.9 L379.4,284.6 L381.4,283.4 L383.3,282.3 L385.3,281.2 L387.2,280.3 L389.2,279.4 L391.1,278.7 L393.1,278 L395,277.5 L396.9,277.2 L398.9,276.9 L400.8,276.8 L402.8,276.8 L404.7,276.9 L406.7,277.2 L408.6,277.6 L410.6,278.1 L412.5,278.7 L414.4,279.4 L416.4,280.2 L418.3,281.1 L420.3,282 L422.2,283.1 L424.2,284.2 L426.1,285.3 L428.1,286.4 L430,287.6 L432,288.8 L433.9,290 L435.8,291.2 L437.8,292.3 L439.7,293.4 L441.7,294.5 L443.6,295.5 L445.6,296.5 L447.5,297.3 L449.5,298.1 L451.4,298.8 L453.3,299.4 L455.3,299.9 L457.2,300.3 " fill="none"/></g>
<g clip-path="url(#plot_window)" stroke="rgb(0,100,0)" stroke-width="1"><path d="M70.2,289.9 L72.14,289.9 L74.09,289.9 L76.03,289.9 L77.98,289.9 L79.92,289.9 L81.87,289.9 L83.81,289.9 L85.76,289.9 L87.7,289.9 L89.65,289.9 L91.59,289.8 L93.54,289.8 L95.48,289.8 L97.43,289.8 L99.37,289.7 L101.3,289.7 L103.3,289.6 L105.2,289.5 L107.2,289.4 L109.1,289.3 L111,289.1 L113,289 L114.9,288.8 L116.9,288.5 L118.8,288.2 L120.8,287.9 L122.7,287.6 L124.7,287.2 L126.6,286.7 L128.5,286.2 L130.5,285.7 L132.4,285.1 L134.4,284.4 L136.3,283.7 L138.3,283 L140.2,282.2 L142.2,281.3 L144.1,280.4 L146.1,279.4 L148,278.4 L149.9,277.3 L151.9,276.2 L153.8,275 L155.8,273.8 L157.7,272.6 L159.7,271.3 L161.6,270 L163.6,268.7 L165.5,267.4 L167.4,266.1 L169.4,264.8 L171.3,263.5 L173.3,262.2 L175.2,261 L177.2,259.8 L179.1,258.6 L181.1,257.5 L183,256.5 L184.9,255.5 L186.9,254.6 L188.8,253.8 L190.8,253.1 L192.7,252.5 L194.7,252 L196.6,251.6 L198.6,251.3 L200.5,251.2 L202.5,251.2 L204.4,251.3 L206.3,251.6 L208.3,252 L210.2,252.5 L212.2,253.2 L214.1,254 L216.1,255 L218,256.1 L220,257.3 L221.9,258.7 L223.8,260.1 L225.8,261.7 L227.7,263.4 L229.7,265.2 L231.6,267.1 L233.6,269.1 L235.5,271.1 L237.5,273.2 L239.4,275.4 L241.4,277.6 L243.3,279.8 L245.2,282 L247.2,284.3 L249.1,286.5 L251.1,288.7 L253,290.8 L255,292.9 L256.9,295 L258.9,296.9 L260.8,298.8 L262.7,300.6 L264.7,302.2 L266.6,303.8 L268.6,305.2 L270.5,306.5 L272.5,307.6 L274.4,308.6 L276.4,309.5 L278.3,310.1 L280.2,310.7 L282.2,311 L284.1,311.2 L286.1,311.2 L288,311.1 L290,310.8 L291.9,310.4 L293.9,309.8 L295.8,309.1 L297.8,308.2 L299.7,307.2 L301.6,306.1 L303.6,304.9 L305.5,303.6 L307.5,302.2 L309.4,300.7 L311.4,299.1 L313.3,297.6 L315.3,295.9 L317.2,294.3 L319.1,292.6 L321.1,291 L323,289.3 L325,287.7 L326.9,286.2 L328.9,284.6 L330.8,283.2 L332.8,281.8 L334.7,280.5 L336.7,279.4 L338.6,278.3 L340.5,277.3 L342.5,276.5 L344.4,275.7 L346.4,275.1 L348.3,274.7 L350.3,274.3 L352.2,274.2 L354.2,274.1 L356.1,274.2 L358,274.4 L360,274.7 L361.9,275.2 L363.9,275.8 L365.8,276.5 L367.8,277.3 L369.7,278.2 L371.7,279.2 L373.6,280.3 L375.5,281.4 L377.5,282.6 L379.4,283.9 L381.4,285.2 L383.3,286.5 L385.3,287.8 L387.2,289.2 L389.2,290.5 L391.1,291.8 L393.1,293 L395,294.3 L396.9,295.4 L398.9,296.5 L400.8,297.6 L402.8,298.5 L404.7,299.4 L406.7,300.2 L408.6,300.8 L410.6,301.4 L412.5,301.9 L414.4,302.2 L416.4,302.4 L418.3,302.5 L420.3,302.5 L422.2,302.4 L424.2,302.2 L426.1,301.9 L428.1,301.4 L430,300.9 L432,300.2 L433.9,299.5 L435.8,298.7 L437.8,297.8 L439.7,296.9 L441.7,295.9 L443.6,294.9 L445.6,293.8 L447.5,292.7 L449.5,291.6 L451.4,290.5 L453.3,289.4 L455.3,288.3 L457.2,287.2 " fill="none"/></g>
<g clip-path="url(#plot_window)" stroke="rgb(255,140,0)" stroke-width="1"><path d="M70.2,289.9 L72.14,289.9 L74.09,289.9 L76.03,289.9 L77.98,289.9 L79.92,289.9 L81.87,289.9 L83.81,289.9 L85.76,289.9 L87.7,289.9 L89.65,289.9 L91.59,289.9 L93.54,289.9 L95.48,289.9 L97.43,289.9 L99.37,289.9 L101.3,289.9 L103.3,289.9 L105.2,289.9 L107.2,289.9 L109.1,289.9 L111,289.9 L113,289.9 L114.9,289.8 L116.9,289.8 L118.8,289.8 L120.8,289.8 L122.7,289.8 L124.7,289.8 L126.6,289.7 L128.5,289.7 L130.5,289.6 L132.4,289.6 L134.4,289.5 L136.3,289.5 L138.3,289.4 L140.2,289.3 L142.2,289.2 L144.1,289.1 L146.1,288.9 L148,288.8 L149.9,288.6 L151.9,288.4 L153.8,288.2 L155.8,287.9 L157.7,287.7 L159.7,287.4 L161.6,287 L163.6,286.7 L165.5,286.3 L167.4,285.9 L169.4,285.4 L171.3,285 L173.3,284.5 L175.2,283.9 L177.2,283.3 L179.1,282.7 L181.1,282.1 L183,281.4 L184.9,280.7 L186.9,279.9 L188.8,279.2 L190.8,278.3 L192.7,277.5 L194.7,276.7 L196.6,275.8 L198.6,274.9 L200.5,274 L202.5,273.1 L204.4,272.1 L206.3,271.2 L208.3,270.3 L210.2,269.3 L212.2,268.4 L214.1,267.5 L216.1,266.6 L218,265.8 L220,264.9 L221.9,264.1 L223.8,263.4 L225.8,262.7 L227.7,262 L229.7,261.4 L231.6,260.9 L233.6,260.4 L235.5,260 L237.5,259.7 L239.4,259.4 L241.4,259.3 L243.3,259.2 L245.2,259.2 L247.2,259.3 L249.1,259.5 L251.1,259.8 L253,260.2 L255,260.7 L256.9,261.3 L258.9,262 L260.8,262.8 L262.7,263.7 L264.7,264.7 L266.6,265.7 L268.6,266.9 L270.5,268.1 L272.5,269.4 L274.4,270.8 L276.4,272.3 L278.3,273.8 L280.2,275.4 L282.2,277 L284.1,278.7 L286.1,280.3 L288,282.1 L290,283.8 L291.9,285.5 L293.9,287.2 L295.8,288.9 L297.8,290.6 L299.7,292.2 L301.6,293.8 L303.6,295.4 L305.5,296.9 L307.5,298.3 L309.4,299.7 L311.4,300.9 L313.3,302.1 L315.3,303.2 L317.2,304.2 L319.1,305.1 L321.1,305.8 L323,306.5 L325,307 L326.9,307.4 L328.9,307.7 L330.8,307.8 L332.8,307.8 L334.7,307.7 L336.7,307.5 L338.6,307.2 L340.5,306.7 L342.5,306.2 L344.4,305.5 L346.4,304.7 L348.3,303.8 L350.3,302.9 L352.2,301.8 L354.2,300.7 L356.1,299.6 L358,298.3 L360,297 L361.9,295.7 L363.9,294.4 L365.8,293 L367.8,291.7 L369.7,290.3 L371.7,289 L373.6,287.6 L375.5,286.3 L377.5,285.1 L379.4,283.9 L381.4,282.8 L383.3,281.7 L385.3,280.7 L387.2,279.8 L389.2,279 L391.1,278.3 L393.1,277.7 L395,277.2 L396.9,276.8 L398.9,276.5 L400.8,276.3 L402.8,276.2 L404.7,276.3 L406.7,276.4 L408.6,276.6 L410.6,277 L412.5,277.5 L414.4,278 L416.4,278.7 L418.3,279.4 L420.3,280.2 L422.2,281.1 L424.2,282 L426.1,283 L428.1,284 L430,285.1 L432,286.2 L433.9,287.3 L435.8,288.5 L437.8,289.6 L439.7,290.7 L441.7,291.8 L443.6,292.9 L445.6,294 L447.5,295 L449.5,295.9 L451.4,296.8 L453.3,297.6 L455.3,298.3 L457.2,299 " fill="none"/></g>
<g clip-path="url(#plot_window)" stroke="rgb(127,255,0)" stroke-width="1"><path d="M70.2,289.9 L72.14,289.9 L74.09,289.9 L76.03,289.9 L77.98,289.9 L79.92,289.9 L81.87,289.9 L83.81,289.9 L85.76,289.9 L87.7,289.9 L89.65,289.9 L91.59,289.9 L93.54,289.9 L95.48,289.9 L97.43,289.9 L99.37,289.9 L101.3,289.9 L103.3,289.9 L105.2,289.9 L107.2,289.9 L109.1,289.9 L111,289.9 L113,289.9 L114.9,289.9 L116.9,289.9 L118.8,289.9 L120.8,289.9 L122.7,289.9 L124.7,289.9 L126.6,289.9 L128.5,289.9 L130.5,289.9 L132.4,289.9 L134.4,289.9 L136.3,289.9 L138.3,289.9 L140.2,289.9 L142.2,289.9 L144.1,289.9 L146.1,289.9 L148,289.9 L149.9,289.9 L151.9,289.9 L153.8,289.9 L155.8,289.8 L157.7,289.8 L159.7,289.8 L161.6,289.8 L163.6,289.8 L165.5,289.8 L167.4,289.8 L169.4,289.8 L171.3,289.7 L173.3,289.7 L175.2,289.7 L177.2,289.7 L179.1,289.6 L181.1,289.6 L183,289.5 L184.9,289.5 L186.9,289.4 L188.8,289.4 L190.8,289.3 L192.7,289.2 L194.7,289.1 L196.6,289 L198.6,288.9 L200.5,288.8 L202.5,288.7 L204.4,288.5 L206.3,288.4 L208.3,288.2 L210.2,288 L212.2,287.8 L214.1,287.6 L216.1,287.4 L218,287.1 L220,286.8 L221.9,286.6 L223.8,286.3 L225.8,285.9 L227.7,285.6 L229.7,285.2 L231.6,284.8 L233.6,284.4 L235.5,284 L237.5,283.5 L239.4,283.1 L241.4,282.6 L243.3,282.1 L245.2,281.5 L247.2,281 L249.1,280.4 L251.1,279.9 L253,279.3 L255,278.7 L256.9,278.1 L258.9,277.4 L260.8,276.8 L262.7,276.1 L264.7,275.5 L266.6,274.9 L268.6,274.2 L270.5,273.6 L272.5,272.9 L274.4,272.3 L276.4,271.7 L278.3,271.1 L280.2,270.5 L282.2,270 L284.1,269.4 L286.1,268.9 L288,268.4 L290,268 L291.9,267.6 L293.9,267.2 L295.8,266.9 L297.8,266.7 L299.7,266.4 L301.6,266.3 L303.6,266.2 L305.5,266.1 L307.5,266.1 L309.4,266.2 L311.4,266.3 L313.3,266.5 L315.3,266.8 L317.2,267.1 L319.1,267.5 L321.1,267.9 L323,268.5 L325,269 L326.9,269.7 L328.9,270.4 L330.8,271.2 L332.8,272 L334.7,273 L336.7,273.9 L338.6,274.9 L340.5,276 L342.5,277.1 L344.4,278.2 L346.4,279.4 L348.3,280.6 L350.3,281.8 L352.2,283.1 L354.2,284.3 L356.1,285.6 L358,286.9 L360,288.2 L361.9,289.5 L363.9,290.7 L365.8,291.9 L367.8,293.2 L369.7,294.3 L371.7,295.5 L373.6,296.6 L375.5,297.6 L377.5,298.6 L379.4,299.5 L381.4,300.4 L383.3,301.1 L385.3,301.9 L387.2,302.5 L389.2,303.1 L391.1,303.5 L393.1,303.9 L395,304.2 L396.9,304.4 L398.9,304.5 L400.8,304.6 L402.8,304.5 L404.7,304.3 L406.7,304.1 L408.6,303.8 L410.6,303.3 L412.5,302.8 L414.4,302.3 L416.4,301.6 L418.3,300.9 L420.3,300.1 L422.2,299.3 L424.2,298.4 L426.1,297.5 L428.1,296.5 L430,295.5 L432,294.4 L433.9,293.4 L435.8,292.3 L437.8,291.2 L439.7,290.2 L441.7,289.1 L443.6,288 L445.6,287 L447.5,286 L449.5,285.1 L451.4,284.1 L453.3,283.3 L455.3,282.5 L457.2,281.7 " fill="none"/></g>
</g>
<g id="plotPoints" clip-path="url(#plot_window)"><g stroke="rgb(0,0,0)"></g>
<g stroke="rgb(0,0,0)"></g>
<g stroke="rgb(0,0,0)"></g>
<g stroke="rgb(0,0,0)"></g>
<g stroke="rgb(0,0,0)"></g>
</g>
<g id="limitPoints" stroke="rgb(119,136,153)" fill="rgb(250,235,215)"></g>
<g id="legendBackground" stroke="rgb(119,136,153)" fill="rgb(255,255,255)" stroke-width="1"><rect x="481" y="62" width="107" height="154"/><rect x="481" y="62" width="107" height="154"/></g>
<g id="legendPoints"><g stroke="rgb(0,0,139)" stroke-width="1"><line x1="495" y1="90" x2="509" y2="90"/></g>
<g stroke="rgb(139,0,0)" stroke-width="1"><line x1="495" y1="118" x2="509" y2="118"/></g>
<g stroke="rgb(0,100,0)" stroke-width="1"><line x1="495" y1="146" x2="509" y2="146"/></g>
<g stroke="rgb(255,140,0)" stroke-width="1"><line x1="495" y1="174" x2="509" y2="174"/></g>
<g stroke="rgb(127,255,0)" stroke-width="1"><line x1="495" y1="202" x2="509" y2="202"/></g>
</g>
<g id="legendText">
<text x="516" y="90" font-size="14" font-family="Verdana">v = 0</text>
<text x="516" y="118" font-size="14" font-family="Verdana">v = 2</text>
<text x="516" y="146" font-size="14" font-family="Verdana">v = 5</text>
<text x="516" y="174" font-size="14" font-family="Verdana">v = 7</text>
<text x="516" y="202" font-size="14" font-family="Verdana">v = 10</text></g>
<g id="title">
<text x="300" y="40" text-anchor="middle" font-size="20" font-family="Verdana">Bessel j</text></g>
</svg>
