<?xml version="1.0" encoding="UTF-8" standalone="no"?>
<svg width="750" height ="400" version="1.1" xmlns="http://www.w3.org/2000/svg"
 xmlns:xlink="http://www.w3.org/1999/xlink"
 xmlns:ev="http://www.w3.org/2001/xml-events">

<!-- SVG plot written using Boost.Plot program (Creator Jacob Voytko) --> 
<!-- Use, modification and distribution of Boost.Plot subject to the --> 
<!-- Boost Software License, Version 1.0.--> 
<!-- (See accompanying file LICENSE_1_0.txt --> 
<!-- or copy at http://www.boost.org/LICENSE_1_0.txt) --> 

<clipPath id="plot_window"><rect x="71.2" y="63" width="556.4" height="274.2"/></clipPath>
<g id="imageBackground" stroke="rgb(119,136,153)" fill="rgb(255,255,255)" stroke-width="2"><rect x="0" y="0" width="750" height="400"/></g>
<g id="plotBackground" stroke="rgb(119,136,153)" fill="rgb(255,255,255)" stroke-width="2"><rect x="70.2" y="62" width="558.4" height="276.2"/></g>
<g id="yMinorGrid" stroke="rgb(200,220,255)" stroke-width="0.5"></g>
<g id="yMajorGrid" stroke="rgb(200,220,255)" stroke-width="1"></g>
<g id="xMinorGrid" stroke="rgb(200,220,255)" stroke-width="0.5"></g>
<g id="xMajorGrid" stroke="rgb(200,220,255)" stroke-width="1"></g>
<g id="yAxis" stroke="rgb(0,0,0)" stroke-width="1"><line x1="349.4" y1="62" x2="349.4" y2="343.2"/><line x1="70.2" y1="62" x2="70.2" y2="338.2"/></g>
<g id="xAxis" stroke="rgb(0,0,0)" stroke-width="1"><line x1="65.2" y1="338.2" x2="628.6" y2="338.2"/><line x1="65.2" y1="338.2" x2="628.6" y2="338.2"/></g>
<g id="yMinorTicks" stroke="rgb(0,0,0)" stroke-width="1"><path d="M68.2,325.5 L70.2,325.5 M68.2,312.8 L70.2,312.8 M68.2,300.1 L70.2,300.1 M68.2,287.4 L70.2,287.4 M68.2,262 L70.2,262 M68.2,249.3 L70.2,249.3 M68.2,236.7 L70.2,236.7 M68.2,224 L70.2,224 M68.2,198.6 L70.2,198.6 M68.2,185.9 L70.2,185.9 M68.2,173.2 L70.2,173.2 M68.2,160.5 L70.2,160.5 M68.2,135.1 L70.2,135.1 M68.2,122.4 L70.2,122.4 M68.2,109.7 L70.2,109.7 M68.2,97.03 L70.2,97.03 M68.2,71.64 L70.2,71.64 M68.2,338.2 L70.2,338.2 "/></g>
<g id="xMinorTicks" stroke="rgb(0,0,0)" stroke-width="1"><path d="M362.2,338.2 L362.2,340.2 M375,338.2 L375,340.2 M387.9,338.2 L387.9,340.2 M400.7,338.2 L400.7,340.2 M426.3,338.2 L426.3,340.2 M439.1,338.2 L439.1,340.2 M451.9,338.2 L451.9,340.2 M464.7,338.2 L464.7,340.2 M490.4,338.2 L490.4,340.2 M503.2,338.2 L503.2,340.2 M516,338.2 L516,340.2 M528.8,338.2 L528.8,340.2 M554.4,338.2 L554.4,340.2 M567.2,338.2 L567.2,340.2 M580,338.2 L580,340.2 M592.8,338.2 L592.8,340.2 M618.5,338.2 L618.5,340.2 M336.6,338.2 L336.6,340.2 M323.8,338.2 L323.8,340.2 M311,338.2 L311,340.2 M298.2,338.2 L298.2,340.2 M272.6,338.2 L272.6,340.2 M259.7,338.2 L259.7,340.2 M246.9,338.2 L246.9,340.2 M234.1,338.2 L234.1,340.2 M208.5,338.2 L208.5,340.2 M195.7,338.2 L195.7,340.2 M182.9,338.2 L182.9,340.2 M170.1,338.2 L170.1,340.2 M144.4,338.2 L144.4,340.2 M131.6,338.2 L131.6,340.2 M118.8,338.2 L118.8,340.2 M106,338.2 L106,340.2 M80.38,338.2 L80.38,340.2 "/></g>
<g id="yMajorTicks" stroke="rgb(0,0,0)" stroke-width="2"><path d="M65.2,338.2 L70.2,338.2 M65.2,274.7 L70.2,274.7 M65.2,211.3 L70.2,211.3 M65.2,147.8 L70.2,147.8 M65.2,84.34 L70.2,84.34 M65.2,338.2 L70.2,338.2 "/></g>
<g id="xMajorTicks" stroke="rgb(0,0,0)" stroke-width="2"><path d="M349.4,338.2 L349.4,343.2 M413.5,338.2 L413.5,343.2 M477.5,338.2 L477.5,343.2 M541.6,338.2 L541.6,343.2 M605.7,338.2 L605.7,343.2 M349.4,338.2 L349.4,343.2 M285.4,338.2 L285.4,343.2 M221.3,338.2 L221.3,343.2 M157.3,338.2 L157.3,343.2 M93.2,338.2 L93.2,343.2 "/></g>
<g id="plotLabels">
<text x="349.4" y="357.6" text-anchor="middle" font-size="12" font-family="Verdana">0</text>
<text x="413.5" y="357.6" text-anchor="middle" font-size="12" font-family="Verdana">1</text>
<text x="477.5" y="357.6" text-anchor="middle" font-size="12" font-family="Verdana">2</text>
<text x="541.6" y="357.6" text-anchor="middle" font-size="12" font-family="Verdana">3</text>
<text x="605.7" y="357.6" text-anchor="middle" font-size="12" font-family="Verdana">4</text>
<text x="349.4" y="357.6" text-anchor="middle" font-size="12" font-family="Verdana">0</text>
<text x="285.4" y="357.6" text-anchor="middle" font-size="12" font-family="Verdana">-1</text>
<text x="221.3" y="357.6" text-anchor="middle" font-size="12" font-family="Verdana">-2</text>
<text x="157.3" y="357.6" text-anchor="middle" font-size="12" font-family="Verdana">-3</text>
<text x="93.2" y="357.6" text-anchor="middle" font-size="12" font-family="Verdana">-4</text>
<text x="59.2" y="340.6" text-anchor="end" font-size="12" font-family="Verdana">0</text>
<text x="59.2" y="277.1" text-anchor="end" font-size="12" font-family="Verdana">0.1</text>
<text x="59.2" y="213.7" text-anchor="end" font-size="12" font-family="Verdana">0.2</text>
<text x="59.2" y="150.2" text-anchor="end" font-size="12" font-family="Verdana">0.3</text>
<text x="59.2" y="86.74" text-anchor="end" font-size="12" font-family="Verdana">0.4</text>
<text x="59.2" y="340.6" text-anchor="end" font-size="12" font-family="Verdana">0</text></g>
<g id="yLabel">
<text x="30.2" y="200.1" text-anchor="middle" transform = "rotate(-90 30.2 200.1 )" font-size="14" font-family="Verdana">Probability</text></g>
<g id="xLabel">
<text x="349.4" y="384" text-anchor="middle" font-size="14" font-family="Verdana">Random Variable</text></g>
<g id="plotLines" stroke-width="2"><g clip-path="url(#plot_window)" stroke="rgb(0,0,139)" stroke-width="1"><path d="M70.2,328.1 L72.99,327.9 L75.78,327.7 L78.58,327.5 L81.37,327.3 L84.16,327.1 L86.95,326.8 L89.75,326.6 L92.54,326.4 L95.33,326.1 L98.12,325.9 L100.9,325.6 L103.7,325.3 L106.5,325.1 L109.3,324.8 L112.1,324.5 L114.9,324.2 L117.7,323.9 L120.5,323.5 L123.3,323.2 L126,322.8 L128.8,322.5 L131.6,322.1 L134.4,321.7 L137.2,321.3 L140,320.9 L142.8,320.5 L145.6,320 L148.4,319.6 L151.2,319.1 L154,318.6 L156.8,318.1 L159.6,317.6 L162.3,317 L165.1,316.4 L167.9,315.8 L170.7,315.2 L173.5,314.5 L176.3,313.9 L179.1,313.2 L181.9,312.4 L184.7,311.7 L187.5,310.9 L190.3,310 L193.1,309.2 L195.8,308.3 L198.6,307.3 L201.4,306.3 L204.2,305.3 L207,304.2 L209.8,303.1 L212.6,301.9 L215.4,300.6 L218.2,299.3 L221,298 L223.8,296.5 L226.6,295 L229.4,293.4 L232.1,291.8 L234.9,290 L237.7,288.2 L240.5,286.3 L243.3,284.2 L246.1,282.1 L248.9,279.9 L251.7,277.5 L254.5,275 L257.3,272.4 L260.1,269.6 L262.9,266.7 L265.7,263.7 L268.4,260.4 L271.2,257.1 L274,253.5 L276.8,249.8 L279.6,245.9 L282.4,241.8 L285.2,237.5 L288,233 L290.8,228.3 L293.6,223.4 L296.4,218.4 L299.2,213.2 L302,207.8 L304.7,202.3 L307.5,196.7 L310.3,191 L313.1,185.3 L315.9,179.6 L318.7,174 L321.5,168.4 L324.3,163.1 L327.1,158.1 L329.9,153.4 L332.7,149.1 L335.5,145.3 L338.3,142.1 L341,139.6 L343.8,137.7 L346.6,136.6 L349.4,136.2 L352.2,136.6 L355,137.7 L357.8,139.6 L360.6,142.1 L363.4,145.3 L366.2,149.1 L369,153.4 L371.8,158.1 L374.5,163.1 L377.3,168.4 L380.1,173.9 L382.9,179.6 L385.7,185.3 L388.5,191 L391.3,196.7 L394.1,202.3 L396.9,207.8 L399.7,213.1 L402.5,218.4 L405.3,223.4 L408.1,228.3 L410.8,233 L413.6,237.4 L416.4,241.7 L419.2,245.8 L422,249.8 L424.8,253.5 L427.6,257 L430.4,260.4 L433.2,263.6 L436,266.7 L438.8,269.6 L441.6,272.4 L444.4,275 L447.1,277.5 L449.9,279.9 L452.7,282.1 L455.5,284.2 L458.3,286.3 L461.1,288.2 L463.9,290 L466.7,291.8 L469.5,293.4 L472.3,295 L475.1,296.5 L477.9,298 L480.7,299.3 L483.4,300.6 L486.2,301.9 L489,303.1 L491.8,304.2 L494.6,305.3 L497.4,306.3 L500.2,307.3 L503,308.3 L505.8,309.2 L508.6,310 L511.4,310.9 L514.2,311.7 L517,312.4 L519.7,313.2 L522.5,313.9 L525.3,314.5 L528.1,315.2 L530.9,315.8 L533.7,316.4 L536.5,317 L539.3,317.6 L542.1,318.1 L544.9,318.6 L547.7,319.1 L550.5,319.6 L553.3,320 L556,320.5 L558.8,320.9 L561.6,321.3 L564.4,321.7 L567.2,322.1 L570,322.5 L572.8,322.8 L575.6,323.2 L578.4,323.5 L581.2,323.9 L584,324.2 L586.8,324.5 L589.5,324.8 L592.3,325.1 L595.1,325.3 L597.9,325.6 L600.7,325.9 L603.5,326.1 L606.3,326.4 L609.1,326.6 L611.9,326.8 L614.7,327.1 L617.5,327.3 L620.3,327.5 L623.1,327.7 L625.8,327.9 L628.6,328.1 " fill="none"/></g>
<g clip-path="url(#plot_window)" stroke="rgb(139,0,0)" stroke-width="1"><path d="M70.2,336 L72.99,335.9 L75.78,335.8 L78.58,335.7 L81.37,335.6 L84.16,335.4 L86.95,335.3 L89.75,335.1 L92.54,335 L95.33,334.8 L98.12,334.6 L100.9,334.5 L103.7,334.3 L106.5,334.1 L109.3,333.8 L112.1,333.6 L114.9,333.4 L117.7,333.1 L120.5,332.8 L123.3,332.5 L126,332.2 L128.8,331.9 L131.6,331.6 L134.4,331.2 L137.2,330.8 L140,330.4 L142.8,330 L145.6,329.5 L148.4,329 L151.2,328.5 L154,327.9 L156.8,327.3 L159.6,326.7 L162.3,326 L165.1,325.3 L167.9,324.6 L170.7,323.8 L173.5,322.9 L176.3,322 L179.1,321.1 L181.9,320.1 L184.7,319 L187.5,317.8 L190.3,316.6 L193.1,315.3 L195.8,313.9 L198.6,312.5 L201.4,310.9 L204.2,309.3 L207,307.6 L209.8,305.7 L212.6,303.8 L215.4,301.7 L218.2,299.5 L221,297.2 L223.8,294.7 L226.6,292.1 L229.4,289.4 L232.1,286.5 L234.9,283.5 L237.7,280.3 L240.5,276.9 L243.3,273.3 L246.1,269.6 L248.9,265.7 L251.7,261.7 L254.5,257.4 L257.3,253 L260.1,248.3 L262.9,243.5 L265.7,238.5 L268.4,233.4 L271.2,228 L274,222.5 L276.8,216.9 L279.6,211.1 L282.4,205.2 L285.2,199.1 L288,193 L290.8,186.9 L293.6,180.6 L296.4,174.4 L299.2,168.2 L302,162 L304.7,155.9 L307.5,149.9 L310.3,144 L313.1,138.3 L315.9,132.9 L318.7,127.7 L321.5,122.8 L324.3,118.2 L327.1,114 L329.9,110.3 L332.7,106.9 L335.5,104 L338.3,101.6 L341,99.74 L343.8,98.38 L346.6,97.56 L349.4,97.28 L352.2,97.55 L355,98.37 L357.8,99.73 L360.6,101.6 L363.4,104 L366.2,106.9 L369,110.2 L371.8,114 L374.5,118.2 L377.3,122.8 L380.1,127.7 L382.9,132.9 L385.7,138.3 L388.5,144 L391.3,149.8 L394.1,155.8 L396.9,161.9 L399.7,168.1 L402.5,174.4 L405.3,180.6 L408.1,186.8 L410.8,193 L413.6,199.1 L416.4,205.1 L419.2,211.1 L422,216.9 L424.8,222.5 L427.6,228 L430.4,233.3 L433.2,238.5 L436,243.5 L438.8,248.3 L441.6,252.9 L444.4,257.4 L447.1,261.6 L449.9,265.7 L452.7,269.6 L455.5,273.3 L458.3,276.9 L461.1,280.2 L463.9,283.5 L466.7,286.5 L469.5,289.4 L472.3,292.1 L475.1,294.7 L477.9,297.2 L480.7,299.5 L483.4,301.7 L486.2,303.7 L489,305.7 L491.8,307.6 L494.6,309.3 L497.4,310.9 L500.2,312.5 L503,313.9 L505.8,315.3 L508.6,316.6 L511.4,317.8 L514.2,319 L517,320.1 L519.7,321.1 L522.5,322 L525.3,322.9 L528.1,323.8 L530.9,324.6 L533.7,325.3 L536.5,326 L539.3,326.7 L542.1,327.3 L544.9,327.9 L547.7,328.5 L550.5,329 L553.3,329.5 L556,330 L558.8,330.4 L561.6,330.8 L564.4,331.2 L567.2,331.6 L570,331.9 L572.8,332.2 L575.6,332.5 L578.4,332.8 L581.2,333.1 L584,333.4 L586.8,333.6 L589.5,333.8 L592.3,334.1 L595.1,334.3 L597.9,334.5 L600.7,334.6 L603.5,334.8 L606.3,335 L609.1,335.1 L611.9,335.3 L614.7,335.4 L617.5,335.6 L620.3,335.7 L623.1,335.8 L625.8,335.9 L628.6,336 " fill="none"/></g>
<g clip-path="url(#plot_window)" stroke="rgb(0,100,0)" stroke-width="1"><path d="M70.2,338.1 L72.99,338.1 L75.78,338 L78.58,338 L81.37,338 L84.16,338 L86.95,337.9 L89.75,337.9 L92.54,337.9 L95.33,337.8 L98.12,337.8 L100.9,337.7 L103.7,337.7 L106.5,337.6 L109.3,337.5 L112.1,337.5 L114.9,337.4 L117.7,337.3 L120.5,337.2 L123.3,337.1 L126,336.9 L128.8,336.8 L131.6,336.6 L134.4,336.4 L137.2,336.2 L140,336 L142.8,335.7 L145.6,335.4 L148.4,335.1 L151.2,334.8 L154,334.4 L156.8,334 L159.6,333.5 L162.3,333 L165.1,332.4 L167.9,331.8 L170.7,331.2 L173.5,330.4 L176.3,329.6 L179.1,328.8 L181.9,327.8 L184.7,326.8 L187.5,325.6 L190.3,324.4 L193.1,323.1 L195.8,321.6 L198.6,320 L201.4,318.4 L204.2,316.5 L207,314.6 L209.8,312.5 L212.6,310.2 L215.4,307.8 L218.2,305.2 L221,302.5 L223.8,299.5 L226.6,296.4 L229.4,293.1 L232.1,289.6 L234.9,285.9 L237.7,282 L240.5,277.8 L243.3,273.5 L246.1,269 L248.9,264.3 L251.7,259.4 L254.5,254.2 L257.3,248.9 L260.1,243.4 L262.9,237.7 L265.7,231.9 L268.4,225.9 L271.2,219.7 L274,213.5 L276.8,207.1 L279.6,200.6 L282.4,194.1 L285.2,187.6 L288,181 L290.8,174.4 L293.6,167.8 L296.4,161.3 L299.2,154.9 L302,148.7 L304.7,142.5 L307.5,136.6 L310.3,130.8 L313.1,125.3 L315.9,120.1 L318.7,115.1 L321.5,110.5 L324.3,106.3 L327.1,102.4 L329.9,98.89 L332.7,95.82 L335.5,93.2 L338.3,91.02 L341,89.32 L343.8,88.09 L346.6,87.36 L349.4,87.11 L352.2,87.35 L355,88.09 L357.8,89.31 L360.6,91.02 L363.4,93.19 L366.2,95.81 L369,98.88 L371.8,102.4 L374.5,106.2 L377.3,110.5 L380.1,115.1 L382.9,120.1 L385.7,125.3 L388.5,130.8 L391.3,136.5 L394.1,142.5 L396.9,148.6 L399.7,154.9 L402.5,161.3 L405.3,167.8 L408.1,174.4 L410.8,180.9 L413.6,187.5 L416.4,194.1 L419.2,200.6 L422,207.1 L424.8,213.5 L427.6,219.7 L430.4,225.9 L433.2,231.9 L436,237.7 L438.8,243.4 L441.6,248.9 L444.4,254.2 L447.1,259.3 L449.9,264.3 L452.7,269 L455.5,273.5 L458.3,277.8 L461.1,281.9 L463.9,285.9 L466.7,289.6 L469.5,293.1 L472.3,296.4 L475.1,299.5 L477.9,302.4 L480.7,305.2 L483.4,307.8 L486.2,310.2 L489,312.5 L491.8,314.6 L494.6,316.5 L497.4,318.4 L500.2,320 L503,321.6 L505.8,323.1 L508.6,324.4 L511.4,325.6 L514.2,326.8 L517,327.8 L519.7,328.7 L522.5,329.6 L525.3,330.4 L528.1,331.2 L530.9,331.8 L533.7,332.4 L536.5,333 L539.3,333.5 L542.1,334 L544.9,334.4 L547.7,334.8 L550.5,335.1 L553.3,335.4 L556,335.7 L558.8,336 L561.6,336.2 L564.4,336.4 L567.2,336.6 L570,336.8 L572.8,336.9 L575.6,337.1 L578.4,337.2 L581.2,337.3 L584,337.4 L586.8,337.5 L589.5,337.5 L592.3,337.6 L595.1,337.7 L597.9,337.7 L600.7,337.8 L603.5,337.8 L606.3,337.9 L609.1,337.9 L611.9,337.9 L614.7,338 L617.5,338 L620.3,338 L623.1,338 L625.8,338.1 L628.6,338.1 " fill="none"/></g>
</g>
<g id="plotPoints" clip-path="url(#plot_window)"><g stroke="rgb(0,0,0)"></g>
<g stroke="rgb(0,0,0)"></g>
<g stroke="rgb(0,0,0)"></g>
</g>
<g id="limitPoints" stroke="rgb(119,136,153)" fill="rgb(250,235,215)"></g>
<g id="legendBackground" stroke="rgb(119,136,153)" fill="rgb(255,255,255)" stroke-width="1"><rect x="642.6" y="62" width="95.36" height="105"/><rect x="642.6" y="62" width="95.36" height="105"/></g>
<g id="legendPoints"><g stroke="rgb(0,0,139)" stroke-width="1"><line x1="657.6" y1="92" x2="672.6" y2="92"/></g>
<g stroke="rgb(139,0,0)" stroke-width="1"><line x1="657.6" y1="122" x2="672.6" y2="122"/></g>
<g stroke="rgb(0,100,0)" stroke-width="1"><line x1="657.6" y1="152" x2="672.6" y2="152"/></g>
</g>
<g id="legendText">
<text x="680.1" y="92" font-size="15" font-family="Verdana">v=1</text>
<text x="680.1" y="122" font-size="15" font-family="Verdana">v=5</text>
<text x="680.1" y="152" font-size="15" font-family="Verdana">v=30</text></g>
<g id="title">
<text x="375" y="40" text-anchor="middle" font-size="20" font-family="Verdana">Students T Distribution PDF</text></g>
</svg>
