<?xml version="1.0" encoding="UTF-8" standalone="no"?>
<svg width="600" height ="400" version="1.1" xmlns="http://www.w3.org/2000/svg"
 xmlns:xlink="http://www.w3.org/1999/xlink"
 xmlns:ev="http://www.w3.org/2001/xml-events">

<!-- SVG plot written using Boost.Plot program (Creator Jacob Voytko) --> 
<!-- Use, modification and distribution of Boost.Plot subject to the --> 
<!-- Boost Software License, Version 1.0.--> 
<!-- (See accompanying file LICENSE_1_0.txt --> 
<!-- or copy at http://www.boost.org/LICENSE_1_0.txt) --> 

<!-- SVG Plot Copyright John Maddock 2008 --> 
<meta name="copyright" content="John Maddock" />
<meta name="date" content="2008" />
<!-- Use, modification and distribution of this Scalable Vector Graphic file -->
<!-- are subject to the Boost Software License, Version 1.0. -->
<!-- (See accompanying file LICENSE_1_0.txt or copy at http://www.boost.org/LICENSE_1_0.txt) -->

<clipPath id="plot_window"><rect x="54.4" y="63" width="364.5" height="274.2"/></clipPath>
<g id="imageBackground" stroke="rgb(119,136,153)" fill="rgb(255,255,255)" stroke-width="2"><rect x="0" y="0" width="600" height="400"/></g>
<g id="plotBackground" stroke="rgb(119,136,153)" fill="rgb(255,255,255)" stroke-width="2"><rect x="53.4" y="62" width="366.5" height="276.2"/></g>
<g id="yMinorGrid" stroke="rgb(200,220,255)" stroke-width="0.5"></g>
<g id="yMajorGrid" stroke="rgb(200,220,255)" stroke-width="1"></g>
<g id="xMinorGrid" stroke="rgb(200,220,255)" stroke-width="0.5"></g>
<g id="xMajorGrid" stroke="rgb(200,220,255)" stroke-width="1"></g>
<g id="yAxis" stroke="rgb(0,0,0)" stroke-width="1"><line x1="53.4" y1="62" x2="53.4" y2="338.2"/></g>
<g id="xAxis" stroke="rgb(0,0,0)" stroke-width="1"><line x1="53.4" y1="338.2" x2="419.9" y2="338.2"/></g>
<g id="yMinorTicks" stroke="rgb(0,0,0)" stroke-width="1"><path d="M51.4,328.4 L53.4,328.4 M51.4,317.5 L53.4,317.5 M51.4,306.7 L53.4,306.7 M51.4,284.9 L53.4,284.9 M51.4,274 L53.4,274 M51.4,263.2 L53.4,263.2 M51.4,241.4 L53.4,241.4 M51.4,230.5 L53.4,230.5 M51.4,219.7 L53.4,219.7 M51.4,197.9 L53.4,197.9 M51.4,187 L53.4,187 M51.4,176.2 L53.4,176.2 M51.4,154.4 L53.4,154.4 M51.4,143.5 L53.4,143.5 M51.4,132.6 L53.4,132.6 M51.4,110.9 L53.4,110.9 M51.4,100 L53.4,100 M51.4,89.14 L53.4,89.14 M51.4,67.39 L53.4,67.39 "/></g>
<g id="xMinorTicks" stroke="rgb(0,0,0)" stroke-width="1"><path d="M67.22,338.2 L67.22,340.2 M90.25,338.2 L90.25,340.2 M113.3,338.2 L113.3,340.2 M159.4,338.2 L159.4,340.2 M182.4,338.2 L182.4,340.2 M205.4,338.2 L205.4,340.2 M251.5,338.2 L251.5,340.2 M274.5,338.2 L274.5,340.2 M297.6,338.2 L297.6,340.2 M343.6,338.2 L343.6,340.2 M366.7,338.2 L366.7,340.2 M389.7,338.2 L389.7,340.2 "/></g>
<g id="yMajorTicks" stroke="rgb(0,0,0)" stroke-width="2"><path d="M48.4,295.8 L53.4,295.8 M48.4,252.3 L53.4,252.3 M48.4,208.8 L53.4,208.8 M48.4,165.3 L53.4,165.3 M48.4,121.8 L53.4,121.8 M48.4,78.27 L53.4,78.27 "/></g>
<g id="xMajorTicks" stroke="rgb(0,0,0)" stroke-width="2"><path d="M136.3,338.2 L136.3,343.2 M228.5,338.2 L228.5,343.2 M320.6,338.2 L320.6,343.2 M412.7,338.2 L412.7,343.2 "/></g>
<g id="plotLabels">
<text x="136.3" y="357.6" text-anchor="middle" font-size="12" font-family="Verdana">10</text>
<text x="228.5" y="357.6" text-anchor="middle" font-size="12" font-family="Verdana">20</text>
<text x="320.6" y="357.6" text-anchor="middle" font-size="12" font-family="Verdana">30</text>
<text x="412.7" y="357.6" text-anchor="middle" font-size="12" font-family="Verdana">40</text>
<text x="42.4" y="298.2" text-anchor="end" font-size="12" font-family="Verdana">1</text>
<text x="42.4" y="254.7" text-anchor="end" font-size="12" font-family="Verdana">2</text>
<text x="42.4" y="211.2" text-anchor="end" font-size="12" font-family="Verdana">3</text>
<text x="42.4" y="167.7" text-anchor="end" font-size="12" font-family="Verdana">4</text>
<text x="42.4" y="124.2" text-anchor="end" font-size="12" font-family="Verdana">5</text>
<text x="42.4" y="80.67" text-anchor="end" font-size="12" font-family="Verdana">6</text></g>
<g id="yLabel">
<text x="30.2" y="200.1" text-anchor="middle" transform = "rotate(-90 30.2 200.1 )" font-size="14" font-family="Verdana">tgamma_delta_ratio(delta, z)</text></g>
<g id="xLabel">
<text x="236.7" y="384" text-anchor="middle" font-size="14" font-family="Verdana">z</text></g>
<g id="plotLines" stroke-width="2"><g clip-path="url(#plot_window)" stroke="rgb(0,0,139)" stroke-width="1"><path d="M53.4,314.7 L55.2,308.7 L56.99,303.4 L58.79,298.8 L60.59,294.6 L62.38,290.7 L64.18,287.1 L65.98,283.7 L67.77,280.5 L69.57,277.5 L71.37,274.6 L73.16,271.8 L74.96,269.1 L76.76,266.5 L78.55,264.1 L80.35,261.7 L82.15,259.3 L83.94,257.1 L85.74,254.8 L87.54,252.7 L89.33,250.6 L91.13,248.5 L92.93,246.5 L94.72,244.6 L96.52,242.6 L98.32,240.7 L100.1,238.9 L101.9,237.1 L103.7,235.3 L105.5,233.5 L107.3,231.8 L109.1,230.1 L110.9,228.4 L112.7,226.8 L114.5,225.1 L116.3,223.5 L118.1,222 L119.9,220.4 L121.7,218.9 L123.5,217.3 L125.3,215.8 L127.1,214.3 L128.9,212.9 L130.7,211.4 L132.5,210 L134.3,208.6 L136,207.2 L137.8,205.8 L139.6,204.4 L141.4,203 L143.2,201.7 L145,200.4 L146.8,199 L148.6,197.7 L150.4,196.4 L152.2,195.2 L154,193.9 L155.8,192.6 L157.6,191.4 L159.4,190.1 L161.2,188.9 L163,187.7 L164.8,186.5 L166.6,185.3 L168.4,184.1 L170.2,182.9 L172,181.7 L173.8,180.5 L175.6,179.4 L177.4,178.2 L179.2,177.1 L181,176 L182.8,174.8 L184.6,173.7 L186.4,172.6 L188.2,171.5 L189.9,170.4 L191.7,169.3 L193.5,168.2 L195.3,167.2 L197.1,166.1 L198.9,165 L200.7,164 L202.5,162.9 L204.3,161.9 L206.1,160.8 L207.9,159.8 L209.7,158.8 L211.5,157.8 L213.3,156.7 L215.1,155.7 L216.9,154.7 L218.7,153.7 L220.5,152.7 L222.3,151.8 L224.1,150.8 L225.9,149.8 L227.7,148.8 L229.5,147.9 L231.3,146.9 L233.1,145.9 L234.9,145 L236.7,144 L238.5,143.1 L240.3,142.2 L242.1,141.2 L243.8,140.3 L245.6,139.4 L247.4,138.5 L249.2,137.5 L251,136.6 L252.8,135.7 L254.6,134.8 L256.4,133.9 L258.2,133 L260,132.1 L261.8,131.2 L263.6,130.4 L265.4,129.5 L267.2,128.6 L269,127.7 L270.8,126.9 L272.6,126 L274.4,125.1 L276.2,124.3 L278,123.4 L279.8,122.6 L281.6,121.7 L283.4,120.9 L285.2,120 L287,119.2 L288.8,118.3 L290.6,117.5 L292.4,116.7 L294.2,115.8 L296,115 L297.7,114.2 L299.5,113.4 L301.3,112.6 L303.1,111.8 L304.9,110.9 L306.7,110.1 L308.5,109.3 L310.3,108.5 L312.1,107.7 L313.9,106.9 L315.7,106.1 L317.5,105.4 L319.3,104.6 L321.1,103.8 L322.9,103 L324.7,102.2 L326.5,101.4 L328.3,100.7 L330.1,99.9 L331.9,99.13 L333.7,98.36 L335.5,97.6 L337.3,96.83 L339.1,96.07 L340.9,95.32 L342.7,94.56 L344.5,93.81 L346.3,93.06 L348.1,92.31 L349.9,91.56 L351.6,90.82 L353.4,90.08 L355.2,89.34 L357,88.6 L358.8,87.87 L360.6,87.13 L362.4,86.4 L364.2,85.68 L366,84.95 L367.8,84.22 L369.6,83.5 L371.4,82.78 L373.2,82.06 L375,81.35 L376.8,80.63 L378.6,79.92 L380.4,79.21 L382.2,78.5 L384,77.79 L385.8,77.09 L387.6,76.39 L389.4,75.69 L391.2,74.99 L393,74.29 L394.8,73.59 L396.6,72.9 L398.4,72.21 L400.2,71.52 L402,70.83 L403.8,70.14 L405.5,69.46 L407.3,68.78 L409.1,68.1 L410.9,67.42 " fill="none"/></g>
<g clip-path="url(#plot_window)" stroke="rgb(139,0,0)" stroke-width="1"><path d="M53.4,301.9 L55.2,299.4 L56.99,297.3 L58.79,295.6 L60.59,294.1 L62.38,292.7 L64.18,291.5 L65.98,290.4 L67.77,289.4 L69.57,288.5 L71.37,287.6 L73.16,286.8 L74.96,286 L76.76,285.3 L78.55,284.6 L80.35,283.9 L82.15,283.3 L83.94,282.7 L85.74,282.1 L87.54,281.6 L89.33,281 L91.13,280.5 L92.93,280 L94.72,279.5 L96.52,279.1 L98.32,278.6 L100.1,278.2 L101.9,277.7 L103.7,277.3 L105.5,276.9 L107.3,276.5 L109.1,276.1 L110.9,275.8 L112.7,275.4 L114.5,275 L116.3,274.7 L118.1,274.3 L119.9,274 L121.7,273.7 L123.5,273.3 L125.3,273 L127.1,272.7 L128.9,272.4 L130.7,272.1 L132.5,271.8 L134.3,271.5 L136,271.2 L137.8,270.9 L139.6,270.7 L141.4,270.4 L143.2,270.1 L145,269.9 L146.8,269.6 L148.6,269.4 L150.4,269.1 L152.2,268.9 L154,268.6 L155.8,268.4 L157.6,268.1 L159.4,267.9 L161.2,267.7 L163,267.4 L164.8,267.2 L166.6,267 L168.4,266.8 L170.2,266.5 L172,266.3 L173.8,266.1 L175.6,265.9 L177.4,265.7 L179.2,265.5 L181,265.3 L182.8,265.1 L184.6,264.9 L186.4,264.7 L188.2,264.5 L189.9,264.3 L191.7,264.1 L193.5,263.9 L195.3,263.7 L197.1,263.5 L198.9,263.4 L200.7,263.2 L202.5,263 L204.3,262.8 L206.1,262.6 L207.9,262.5 L209.7,262.3 L211.5,262.1 L213.3,262 L215.1,261.8 L216.9,261.6 L218.7,261.4 L220.5,261.3 L222.3,261.1 L224.1,261 L225.9,260.8 L227.7,260.6 L229.5,260.5 L231.3,260.3 L233.1,260.2 L234.9,260 L236.7,259.9 L238.5,259.7 L240.3,259.6 L242.1,259.4 L243.8,259.3 L245.6,259.1 L247.4,259 L249.2,258.8 L251,258.7 L252.8,258.5 L254.6,258.4 L256.4,258.2 L258.2,258.1 L260,258 L261.8,257.8 L263.6,257.7 L265.4,257.6 L267.2,257.4 L269,257.3 L270.8,257.2 L272.6,257 L274.4,256.9 L276.2,256.8 L278,256.6 L279.8,256.5 L281.6,256.4 L283.4,256.2 L285.2,256.1 L287,256 L288.8,255.9 L290.6,255.7 L292.4,255.6 L294.2,255.5 L296,255.4 L297.7,255.2 L299.5,255.1 L301.3,255 L303.1,254.9 L304.9,254.8 L306.7,254.6 L308.5,254.5 L310.3,254.4 L312.1,254.3 L313.9,254.2 L315.7,254.1 L317.5,253.9 L319.3,253.8 L321.1,253.7 L322.9,253.6 L324.7,253.5 L326.5,253.4 L328.3,253.3 L330.1,253.2 L331.9,253 L333.7,252.9 L335.5,252.8 L337.3,252.7 L339.1,252.6 L340.9,252.5 L342.7,252.4 L344.5,252.3 L346.3,252.2 L348.1,252.1 L349.9,252 L351.6,251.9 L353.4,251.8 L355.2,251.7 L357,251.6 L358.8,251.5 L360.6,251.4 L362.4,251.3 L364.2,251.2 L366,251.1 L367.8,251 L369.6,250.9 L371.4,250.8 L373.2,250.7 L375,250.6 L376.8,250.5 L378.6,250.4 L380.4,250.3 L382.2,250.2 L384,250.1 L385.8,250 L387.6,249.9 L389.4,249.8 L391.2,249.7 L393,249.6 L394.8,249.5 L396.6,249.4 L398.4,249.3 L400.2,249.2 L402,249.1 L403.8,249 L405.5,248.9 L407.3,248.9 L409.1,248.8 L410.9,248.7 " fill="none"/></g>
<g clip-path="url(#plot_window)" stroke="rgb(0,100,0)" stroke-width="1"><path d="M53.4,298.6 L55.2,297.3 L56.99,296.3 L58.79,295.5 L60.59,294.8 L62.38,294.1 L64.18,293.6 L65.98,293.1 L67.77,292.6 L69.57,292.2 L71.37,291.8 L73.16,291.4 L74.96,291.1 L76.76,290.7 L78.55,290.4 L80.35,290.1 L82.15,289.9 L83.94,289.6 L85.74,289.4 L87.54,289.1 L89.33,288.9 L91.13,288.7 L92.93,288.5 L94.72,288.3 L96.52,288.1 L98.32,287.9 L100.1,287.7 L101.9,287.5 L103.7,287.3 L105.5,287.2 L107.3,287 L109.1,286.8 L110.9,286.7 L112.7,286.5 L114.5,286.4 L116.3,286.2 L118.1,286.1 L119.9,286 L121.7,285.8 L123.5,285.7 L125.3,285.6 L127.1,285.4 L128.9,285.3 L130.7,285.2 L132.5,285.1 L134.3,285 L136,284.8 L137.8,284.7 L139.6,284.6 L141.4,284.5 L143.2,284.4 L145,284.3 L146.8,284.2 L148.6,284.1 L150.4,284 L152.2,283.9 L154,283.8 L155.8,283.7 L157.6,283.6 L159.4,283.5 L161.2,283.4 L163,283.4 L164.8,283.3 L166.6,283.2 L168.4,283.1 L170.2,283 L172,282.9 L173.8,282.8 L175.6,282.8 L177.4,282.7 L179.2,282.6 L181,282.5 L182.8,282.5 L184.6,282.4 L186.4,282.3 L188.2,282.2 L189.9,282.2 L191.7,282.1 L193.5,282 L195.3,281.9 L197.1,281.9 L198.9,281.8 L200.7,281.7 L202.5,281.7 L204.3,281.6 L206.1,281.5 L207.9,281.5 L209.7,281.4 L211.5,281.3 L213.3,281.3 L215.1,281.2 L216.9,281.1 L218.7,281.1 L220.5,281 L222.3,281 L224.1,280.9 L225.9,280.8 L227.7,280.8 L229.5,280.7 L231.3,280.7 L233.1,280.6 L234.9,280.6 L236.7,280.5 L238.5,280.4 L240.3,280.4 L242.1,280.3 L243.8,280.3 L245.6,280.2 L247.4,280.2 L249.2,280.1 L251,280.1 L252.8,280 L254.6,280 L256.4,279.9 L258.2,279.9 L260,279.8 L261.8,279.7 L263.6,279.7 L265.4,279.6 L267.2,279.6 L269,279.6 L270.8,279.5 L272.6,279.5 L274.4,279.4 L276.2,279.4 L278,279.3 L279.8,279.3 L281.6,279.2 L283.4,279.2 L285.2,279.1 L287,279.1 L288.8,279 L290.6,279 L292.4,278.9 L294.2,278.9 L296,278.9 L297.7,278.8 L299.5,278.8 L301.3,278.7 L303.1,278.7 L304.9,278.6 L306.7,278.6 L308.5,278.6 L310.3,278.5 L312.1,278.5 L313.9,278.4 L315.7,278.4 L317.5,278.3 L319.3,278.3 L321.1,278.3 L322.9,278.2 L324.7,278.2 L326.5,278.1 L328.3,278.1 L330.1,278.1 L331.9,278 L333.7,278 L335.5,278 L337.3,277.9 L339.1,277.9 L340.9,277.8 L342.7,277.8 L344.5,277.8 L346.3,277.7 L348.1,277.7 L349.9,277.6 L351.6,277.6 L353.4,277.6 L355.2,277.5 L357,277.5 L358.8,277.5 L360.6,277.4 L362.4,277.4 L364.2,277.4 L366,277.3 L367.8,277.3 L369.6,277.3 L371.4,277.2 L373.2,277.2 L375,277.2 L376.8,277.1 L378.6,277.1 L380.4,277.1 L382.2,277 L384,277 L385.8,276.9 L387.6,276.9 L389.4,276.9 L391.2,276.9 L393,276.8 L394.8,276.8 L396.6,276.8 L398.4,276.7 L400.2,276.7 L402,276.7 L403.8,276.6 L405.5,276.6 L407.3,276.6 L409.1,276.5 L410.9,276.5 " fill="none"/></g>
<g clip-path="url(#plot_window)" stroke="rgb(255,140,0)" stroke-width="1"><path d="M53.4,293.6 L55.2,294.8 L56.99,295.7 L58.79,296.5 L60.59,297.1 L62.38,297.7 L64.18,298.1 L65.98,298.6 L67.77,299 L69.57,299.3 L71.37,299.6 L73.16,299.9 L74.96,300.2 L76.76,300.4 L78.55,300.7 L80.35,300.9 L82.15,301.1 L83.94,301.3 L85.74,301.5 L87.54,301.7 L89.33,301.8 L91.13,302 L92.93,302.1 L94.72,302.3 L96.52,302.4 L98.32,302.6 L100.1,302.7 L101.9,302.8 L103.7,302.9 L105.5,303.1 L107.3,303.2 L109.1,303.3 L110.9,303.4 L112.7,303.5 L114.5,303.6 L116.3,303.7 L118.1,303.8 L119.9,303.9 L121.7,303.9 L123.5,304 L125.3,304.1 L127.1,304.2 L128.9,304.3 L130.7,304.3 L132.5,304.4 L134.3,304.5 L136,304.6 L137.8,304.6 L139.6,304.7 L141.4,304.8 L143.2,304.8 L145,304.9 L146.8,305 L148.6,305 L150.4,305.1 L152.2,305.1 L154,305.2 L155.8,305.3 L157.6,305.3 L159.4,305.4 L161.2,305.4 L163,305.5 L164.8,305.5 L166.6,305.6 L168.4,305.6 L170.2,305.7 L172,305.7 L173.8,305.8 L175.6,305.8 L177.4,305.9 L179.2,305.9 L181,306 L182.8,306 L184.6,306.1 L186.4,306.1 L188.2,306.1 L189.9,306.2 L191.7,306.2 L193.5,306.3 L195.3,306.3 L197.1,306.4 L198.9,306.4 L200.7,306.4 L202.5,306.5 L204.3,306.5 L206.1,306.5 L207.9,306.6 L209.7,306.6 L211.5,306.7 L213.3,306.7 L215.1,306.7 L216.9,306.8 L218.7,306.8 L220.5,306.8 L222.3,306.9 L224.1,306.9 L225.9,306.9 L227.7,307 L229.5,307 L231.3,307 L233.1,307.1 L234.9,307.1 L236.7,307.1 L238.5,307.2 L240.3,307.2 L242.1,307.2 L243.8,307.2 L245.6,307.3 L247.4,307.3 L249.2,307.3 L251,307.4 L252.8,307.4 L254.6,307.4 L256.4,307.4 L258.2,307.5 L260,307.5 L261.8,307.5 L263.6,307.5 L265.4,307.6 L267.2,307.6 L269,307.6 L270.8,307.7 L272.6,307.7 L274.4,307.7 L276.2,307.7 L278,307.8 L279.8,307.8 L281.6,307.8 L283.4,307.8 L285.2,307.8 L287,307.9 L288.8,307.9 L290.6,307.9 L292.4,307.9 L294.2,308 L296,308 L297.7,308 L299.5,308 L301.3,308.1 L303.1,308.1 L304.9,308.1 L306.7,308.1 L308.5,308.1 L310.3,308.2 L312.1,308.2 L313.9,308.2 L315.7,308.2 L317.5,308.2 L319.3,308.3 L321.1,308.3 L322.9,308.3 L324.7,308.3 L326.5,308.4 L328.3,308.4 L330.1,308.4 L331.9,308.4 L333.7,308.4 L335.5,308.4 L337.3,308.5 L339.1,308.5 L340.9,308.5 L342.7,308.5 L344.5,308.5 L346.3,308.6 L348.1,308.6 L349.9,308.6 L351.6,308.6 L353.4,308.6 L355.2,308.7 L357,308.7 L358.8,308.7 L360.6,308.7 L362.4,308.7 L364.2,308.7 L366,308.8 L367.8,308.8 L369.6,308.8 L371.4,308.8 L373.2,308.8 L375,308.8 L376.8,308.9 L378.6,308.9 L380.4,308.9 L382.2,308.9 L384,308.9 L385.8,308.9 L387.6,309 L389.4,309 L391.2,309 L393,309 L394.8,309 L396.6,309 L398.4,309.1 L400.2,309.1 L402,309.1 L403.8,309.1 L405.5,309.1 L407.3,309.1 L409.1,309.1 L410.9,309.2 " fill="none"/></g>
<g clip-path="url(#plot_window)" stroke="rgb(127,255,0)" stroke-width="1"><path d="M53.4,291.9 L55.2,294.2 L56.99,296 L58.79,297.5 L60.59,298.7 L62.38,299.7 L64.18,300.6 L65.98,301.4 L67.77,302.1 L69.57,302.7 L71.37,303.3 L73.16,303.8 L74.96,304.3 L76.76,304.7 L78.55,305.1 L80.35,305.5 L82.15,305.9 L83.94,306.2 L85.74,306.5 L87.54,306.8 L89.33,307.1 L91.13,307.4 L92.93,307.6 L94.72,307.9 L96.52,308.1 L98.32,308.3 L100.1,308.6 L101.9,308.8 L103.7,309 L105.5,309.1 L107.3,309.3 L109.1,309.5 L110.9,309.7 L112.7,309.8 L114.5,310 L116.3,310.2 L118.1,310.3 L119.9,310.5 L121.7,310.6 L123.5,310.7 L125.3,310.9 L127.1,311 L128.9,311.1 L130.7,311.3 L132.5,311.4 L134.3,311.5 L136,311.6 L137.8,311.7 L139.6,311.8 L141.4,311.9 L143.2,312 L145,312.1 L146.8,312.2 L148.6,312.3 L150.4,312.4 L152.2,312.5 L154,312.6 L155.8,312.7 L157.6,312.8 L159.4,312.9 L161.2,313 L163,313 L164.8,313.1 L166.6,313.2 L168.4,313.3 L170.2,313.4 L172,313.4 L173.8,313.5 L175.6,313.6 L177.4,313.7 L179.2,313.7 L181,313.8 L182.8,313.9 L184.6,313.9 L186.4,314 L188.2,314.1 L189.9,314.1 L191.7,314.2 L193.5,314.2 L195.3,314.3 L197.1,314.4 L198.9,314.4 L200.7,314.5 L202.5,314.5 L204.3,314.6 L206.1,314.7 L207.9,314.7 L209.7,314.8 L211.5,314.8 L213.3,314.9 L215.1,314.9 L216.9,315 L218.7,315 L220.5,315.1 L222.3,315.1 L224.1,315.2 L225.9,315.2 L227.7,315.3 L229.5,315.3 L231.3,315.4 L233.1,315.4 L234.9,315.5 L236.7,315.5 L238.5,315.6 L240.3,315.6 L242.1,315.6 L243.8,315.7 L245.6,315.7 L247.4,315.8 L249.2,315.8 L251,315.9 L252.8,315.9 L254.6,315.9 L256.4,316 L258.2,316 L260,316.1 L261.8,316.1 L263.6,316.1 L265.4,316.2 L267.2,316.2 L269,316.3 L270.8,316.3 L272.6,316.3 L274.4,316.4 L276.2,316.4 L278,316.4 L279.8,316.5 L281.6,316.5 L283.4,316.5 L285.2,316.6 L287,316.6 L288.8,316.6 L290.6,316.7 L292.4,316.7 L294.2,316.7 L296,316.8 L297.7,316.8 L299.5,316.8 L301.3,316.9 L303.1,316.9 L304.9,316.9 L306.7,317 L308.5,317 L310.3,317 L312.1,317.1 L313.9,317.1 L315.7,317.1 L317.5,317.1 L319.3,317.2 L321.1,317.2 L322.9,317.2 L324.7,317.3 L326.5,317.3 L328.3,317.3 L330.1,317.3 L331.9,317.4 L333.7,317.4 L335.5,317.4 L337.3,317.5 L339.1,317.5 L340.9,317.5 L342.7,317.5 L344.5,317.6 L346.3,317.6 L348.1,317.6 L349.9,317.6 L351.6,317.7 L353.4,317.7 L355.2,317.7 L357,317.7 L358.8,317.8 L360.6,317.8 L362.4,317.8 L364.2,317.8 L366,317.9 L367.8,317.9 L369.6,317.9 L371.4,317.9 L373.2,318 L375,318 L376.8,318 L378.6,318 L380.4,318.1 L382.2,318.1 L384,318.1 L385.8,318.1 L387.6,318.1 L389.4,318.2 L391.2,318.2 L393,318.2 L394.8,318.2 L396.6,318.3 L398.4,318.3 L400.2,318.3 L402,318.3 L403.8,318.3 L405.5,318.4 L407.3,318.4 L409.1,318.4 L410.9,318.4 " fill="none"/></g>
<g clip-path="url(#plot_window)" stroke="rgb(0,0,139)" stroke-width="1"><path d="M53.4,290.2 L55.2,295.2 L56.99,299 L58.79,301.9 L60.59,304.3 L62.38,306.3 L64.18,308 L65.98,309.5 L67.77,310.8 L69.57,311.9 L71.37,312.9 L73.16,313.8 L74.96,314.6 L76.76,315.3 L78.55,316 L80.35,316.6 L82.15,317.2 L83.94,317.7 L85.74,318.2 L87.54,318.7 L89.33,319.1 L91.13,319.5 L92.93,319.9 L94.72,320.3 L96.52,320.6 L98.32,321 L100.1,321.3 L101.9,321.6 L103.7,321.8 L105.5,322.1 L107.3,322.4 L109.1,322.6 L110.9,322.8 L112.7,323.1 L114.5,323.3 L116.3,323.5 L118.1,323.7 L119.9,323.9 L121.7,324.1 L123.5,324.2 L125.3,324.4 L127.1,324.6 L128.9,324.7 L130.7,324.9 L132.5,325.1 L134.3,325.2 L136,325.3 L137.8,325.5 L139.6,325.6 L141.4,325.7 L143.2,325.9 L145,326 L146.8,326.1 L148.6,326.2 L150.4,326.3 L152.2,326.5 L154,326.6 L155.8,326.7 L157.6,326.8 L159.4,326.9 L161.2,327 L163,327.1 L164.8,327.2 L166.6,327.2 L168.4,327.3 L170.2,327.4 L172,327.5 L173.8,327.6 L175.6,327.7 L177.4,327.8 L179.2,327.8 L181,327.9 L182.8,328 L184.6,328.1 L186.4,328.1 L188.2,328.2 L189.9,328.3 L191.7,328.3 L193.5,328.4 L195.3,328.5 L197.1,328.5 L198.9,328.6 L200.7,328.7 L202.5,328.7 L204.3,328.8 L206.1,328.8 L207.9,328.9 L209.7,329 L211.5,329 L213.3,329.1 L215.1,329.1 L216.9,329.2 L218.7,329.2 L220.5,329.3 L222.3,329.3 L224.1,329.4 L225.9,329.4 L227.7,329.5 L229.5,329.5 L231.3,329.6 L233.1,329.6 L234.9,329.7 L236.7,329.7 L238.5,329.8 L240.3,329.8 L242.1,329.9 L243.8,329.9 L245.6,329.9 L247.4,330 L249.2,330 L251,330.1 L252.8,330.1 L254.6,330.1 L256.4,330.2 L258.2,330.2 L260,330.3 L261.8,330.3 L263.6,330.3 L265.4,330.4 L267.2,330.4 L269,330.4 L270.8,330.5 L272.6,330.5 L274.4,330.5 L276.2,330.6 L278,330.6 L279.8,330.6 L281.6,330.7 L283.4,330.7 L285.2,330.7 L287,330.8 L288.8,330.8 L290.6,330.8 L292.4,330.9 L294.2,330.9 L296,330.9 L297.7,331 L299.5,331 L301.3,331 L303.1,331.1 L304.9,331.1 L306.7,331.1 L308.5,331.1 L310.3,331.2 L312.1,331.2 L313.9,331.2 L315.7,331.2 L317.5,331.3 L319.3,331.3 L321.1,331.3 L322.9,331.4 L324.7,331.4 L326.5,331.4 L328.3,331.4 L330.1,331.5 L331.9,331.5 L333.7,331.5 L335.5,331.5 L337.3,331.5 L339.1,331.6 L340.9,331.6 L342.7,331.6 L344.5,331.6 L346.3,331.7 L348.1,331.7 L349.9,331.7 L351.6,331.7 L353.4,331.8 L355.2,331.8 L357,331.8 L358.8,331.8 L360.6,331.8 L362.4,331.9 L364.2,331.9 L366,331.9 L367.8,331.9 L369.6,331.9 L371.4,332 L373.2,332 L375,332 L376.8,332 L378.6,332 L380.4,332.1 L382.2,332.1 L384,332.1 L385.8,332.1 L387.6,332.1 L389.4,332.2 L391.2,332.2 L393,332.2 L394.8,332.2 L396.6,332.2 L398.4,332.3 L400.2,332.3 L402,332.3 L403.8,332.3 L405.5,332.3 L407.3,332.3 L409.1,332.4 L410.9,332.4 " fill="none"/></g>
<g clip-path="url(#plot_window)" stroke="rgb(139,0,0)" stroke-width="1"><path d="M53.4,295.8 L55.2,302.9 L56.99,308 L58.79,311.8 L60.59,314.9 L62.38,317.3 L64.18,319.2 L65.98,320.9 L67.77,322.3 L69.57,323.5 L71.37,324.5 L73.16,325.5 L74.96,326.3 L76.76,327 L78.55,327.6 L80.35,328.2 L82.15,328.7 L83.94,329.2 L85.74,329.6 L87.54,330 L89.33,330.4 L91.13,330.8 L92.93,331.1 L94.72,331.4 L96.52,331.6 L98.32,331.9 L100.1,332.1 L101.9,332.3 L103.7,332.6 L105.5,332.8 L107.3,332.9 L109.1,333.1 L110.9,333.3 L112.7,333.4 L114.5,333.6 L116.3,333.7 L118.1,333.9 L119.9,334 L121.7,334.1 L123.5,334.2 L125.3,334.3 L127.1,334.5 L128.9,334.6 L130.7,334.7 L132.5,334.8 L134.3,334.8 L136,334.9 L137.8,335 L139.6,335.1 L141.4,335.2 L143.2,335.2 L145,335.3 L146.8,335.4 L148.6,335.5 L150.4,335.5 L152.2,335.6 L154,335.6 L155.8,335.7 L157.6,335.8 L159.4,335.8 L161.2,335.9 L163,335.9 L164.8,336 L166.6,336 L168.4,336.1 L170.2,336.1 L172,336.2 L173.8,336.2 L175.6,336.2 L177.4,336.3 L179.2,336.3 L181,336.4 L182.8,336.4 L184.6,336.4 L186.4,336.5 L188.2,336.5 L189.9,336.5 L191.7,336.6 L193.5,336.6 L195.3,336.6 L197.1,336.7 L198.9,336.7 L200.7,336.7 L202.5,336.8 L204.3,336.8 L206.1,336.8 L207.9,336.8 L209.7,336.9 L211.5,336.9 L213.3,336.9 L215.1,336.9 L216.9,337 L218.7,337 L220.5,337 L222.3,337 L224.1,337.1 L225.9,337.1 L227.7,337.1 L229.5,337.1 L231.3,337.2 L233.1,337.2 L234.9,337.2 L236.7,337.2 L238.5,337.2 L240.3,337.2 L242.1,337.3 L243.8,337.3 L245.6,337.3 L247.4,337.3 L249.2,337.3 L251,337.4 L252.8,337.4 L254.6,337.4 L256.4,337.4 L258.2,337.4 L260,337.4 L261.8,337.5 L263.6,337.5 L265.4,337.5 L267.2,337.5 L269,337.5 L270.8,337.5 L272.6,337.5 L274.4,337.6 L276.2,337.6 L278,337.6 L279.8,337.6 L281.6,337.6 L283.4,337.6 L285.2,337.6 L287,337.6 L288.8,337.7 L290.6,337.7 L292.4,337.7 L294.2,337.7 L296,337.7 L297.7,337.7 L299.5,337.7 L301.3,337.7 L303.1,337.7 L304.9,337.8 L306.7,337.8 L308.5,337.8 L310.3,337.8 L312.1,337.8 L313.9,337.8 L315.7,337.8 L317.5,337.8 L319.3,337.8 L321.1,337.8 L322.9,337.9 L324.7,337.9 L326.5,337.9 L328.3,337.9 L330.1,337.9 L331.9,337.9 L333.7,337.9 L335.5,337.9 L337.3,337.9 L339.1,337.9 L340.9,337.9 L342.7,338 L344.5,338 L346.3,338 L348.1,338 L349.9,338 L351.6,338 L353.4,338 L355.2,338 L357,338 L358.8,338 L360.6,338 L362.4,338 L364.2,338 L366,338 L367.8,338.1 L369.6,338.1 L371.4,338.1 L373.2,338.1 L375,338.1 L376.8,338.1 L378.6,338.1 L380.4,338.1 L382.2,338.1 L384,338.1 L385.8,338.1 L387.6,338.1 L389.4,338.1 L391.2,338.1 L393,338.1 L394.8,338.1 L396.6,338.2 L398.4,338.2 L400.2,338.2 L402,338.2 L403.8,338.2 L405.5,338.2 L407.3,338.2 L409.1,338.2 L410.9,338.2 " fill="none"/></g>
</g>
<g id="plotPoints" clip-path="url(#plot_window)"><g stroke="rgb(0,0,0)"></g>
<g stroke="rgb(0,0,0)"></g>
<g stroke="rgb(0,0,0)"></g>
<g stroke="rgb(0,0,0)"></g>
<g stroke="rgb(0,0,0)"></g>
<g stroke="rgb(0,0,0)"></g>
<g stroke="rgb(0,0,0)"></g>
</g>
<g id="limitPoints" stroke="rgb(119,136,153)" fill="rgb(250,235,215)"></g>
<g id="legendBackground" stroke="rgb(119,136,153)" fill="rgb(255,255,255)" stroke-width="1"><rect x="433.9" y="62" width="154.1" height="210"/><rect x="433.9" y="62" width="154.1" height="210"/></g>
<g id="legendPoints"><g stroke="rgb(0,0,139)" stroke-width="1"><line x1="447.9" y1="90" x2="461.9" y2="90"/></g>
<g stroke="rgb(139,0,0)" stroke-width="1"><line x1="447.9" y1="118" x2="461.9" y2="118"/></g>
<g stroke="rgb(0,100,0)" stroke-width="1"><line x1="447.9" y1="146" x2="461.9" y2="146"/></g>
<g stroke="rgb(255,140,0)" stroke-width="1"><line x1="447.9" y1="174" x2="461.9" y2="174"/></g>
<g stroke="rgb(127,255,0)" stroke-width="1"><line x1="447.9" y1="202" x2="461.9" y2="202"/></g>
<g stroke="rgb(0,0,139)" stroke-width="1"><line x1="447.9" y1="230" x2="461.9" y2="230"/></g>
<g stroke="rgb(139,0,0)" stroke-width="1"><line x1="447.9" y1="258" x2="461.9" y2="258"/></g>
</g>
<g id="legendText">
<text x="468.9" y="90" font-size="14" font-family="Verdana">delta = -0.5</text>
<text x="468.9" y="118" font-size="14" font-family="Verdana">delta = -0.2</text>
<text x="468.9" y="146" font-size="14" font-family="Verdana">delta = -0.1</text>
<text x="468.9" y="174" font-size="14" font-family="Verdana">delta = 0.1</text>
<text x="468.9" y="202" font-size="14" font-family="Verdana">delta = 0.2</text>
<text x="468.9" y="230" font-size="14" font-family="Verdana">delta = 0.5</text>
<text x="468.9" y="258" font-size="14" font-family="Verdana">delta = 1.0</text></g>
<g id="title">
<text x="300" y="40" text-anchor="middle" font-size="20" font-family="Verdana">tgamma_delta_ratio</text></g>
</svg>
