<?xml version="1.0" encoding="UTF-8" standalone="no"?>
<svg width="600" height ="400" version="1.1" xmlns="http://www.w3.org/2000/svg"
 xmlns:xlink="http://www.w3.org/1999/xlink"
 xmlns:ev="http://www.w3.org/2001/xml-events">

<!-- SVG plot written using Boost.Plot program (Creator Jacob Voytko) --> 
<!-- Use, modification and distribution of Boost.Plot subject to the --> 
<!-- Boost Software License, Version 1.0.--> 
<!-- (See accompanying file LICENSE_1_0.txt --> 
<!-- or copy at http://www.boost.org/LICENSE_1_0.txt) --> 

<!-- SVG Plot Copyright John Maddock 2008 --> 
<meta name="copyright" content="John Maddock" />
<meta name="date" content="2008" />
<!-- Use, modification and distribution of this Scalable Vector Graphic file -->
<!-- are subject to the Boost Software License, Version 1.0. -->
<!-- (See accompanying file LICENSE_1_0.txt or copy at http://www.boost.org/LICENSE_1_0.txt) -->

<clipPath id="plot_window"><rect x="79.6" y="63" width="507.4" height="274.2"/></clipPath>
<g id="imageBackground" stroke="rgb(119,136,153)" fill="rgb(255,255,255)" stroke-width="2"><rect x="0" y="0" width="600" height="400"/></g>
<g id="plotBackground" stroke="rgb(119,136,153)" fill="rgb(255,255,255)" stroke-width="2"><rect x="78.6" y="62" width="509.4" height="276.2"/></g>
<g id="yMinorGrid" stroke="rgb(200,220,255)" stroke-width="0.5"></g>
<g id="yMajorGrid" stroke="rgb(200,220,255)" stroke-width="1"></g>
<g id="xMinorGrid" stroke="rgb(200,220,255)" stroke-width="0.5"></g>
<g id="xMajorGrid" stroke="rgb(200,220,255)" stroke-width="1"></g>
<g id="yAxis" stroke="rgb(0,0,0)" stroke-width="1"><line x1="278.4" y1="62" x2="278.4" y2="343.2"/><line x1="78.6" y1="62" x2="78.6" y2="338.2"/></g>
<g id="xAxis" stroke="rgb(0,0,0)" stroke-width="1"><line x1="73.6" y1="202.8" x2="588" y2="202.8"/><line x1="73.6" y1="338.2" x2="588" y2="338.2"/></g>
<g id="yMinorTicks" stroke="rgb(0,0,0)" stroke-width="1"><path d="M76.6,188.7 L78.6,188.7 M76.6,174.6 L78.6,174.6 M76.6,160.5 L78.6,160.5 M76.6,132.3 L78.6,132.3 M76.6,118.2 L78.6,118.2 M76.6,104.1 L78.6,104.1 M76.6,75.88 L78.6,75.88 M76.6,202.8 L78.6,202.8 M76.6,216.9 L78.6,216.9 M76.6,231 L78.6,231 M76.6,245.1 L78.6,245.1 M76.6,259.2 L78.6,259.2 M76.6,273.3 L78.6,273.3 M76.6,287.4 L78.6,287.4 M76.6,301.5 L78.6,301.5 M76.6,315.6 L78.6,315.6 M76.6,329.7 L78.6,329.7 "/></g>
<g id="xMinorTicks" stroke="rgb(0,0,0)" stroke-width="1"><path d="M290.8,338.2 L290.8,340.2 M303.3,338.2 L303.3,340.2 M315.8,338.2 L315.8,340.2 M340.8,338.2 L340.8,340.2 M353.3,338.2 L353.3,340.2 M365.8,338.2 L365.8,340.2 M390.7,338.2 L390.7,340.2 M403.2,338.2 L403.2,340.2 M415.7,338.2 L415.7,340.2 M440.7,338.2 L440.7,340.2 M453.2,338.2 L453.2,340.2 M465.6,338.2 L465.6,340.2 M490.6,338.2 L490.6,340.2 M503.1,338.2 L503.1,340.2 M515.6,338.2 L515.6,340.2 M540.6,338.2 L540.6,340.2 M553,338.2 L553,340.2 M565.5,338.2 L565.5,340.2 M265.9,338.2 L265.9,340.2 M253.4,338.2 L253.4,340.2 M240.9,338.2 L240.9,340.2 M215.9,338.2 L215.9,340.2 M203.4,338.2 L203.4,340.2 M191,338.2 L191,340.2 M166,338.2 L166,340.2 M153.5,338.2 L153.5,340.2 M141,338.2 L141,340.2 M116,338.2 L116,340.2 M103.6,338.2 L103.6,340.2 M91.07,338.2 L91.07,340.2 "/></g>
<g id="yMajorTicks" stroke="rgb(0,0,0)" stroke-width="2"><path d="M73.6,202.8 L78.6,202.8 M73.6,146.4 L78.6,146.4 M73.6,89.98 L78.6,89.98 M73.6,202.8 L78.6,202.8 M73.6,259.2 L78.6,259.2 M73.6,315.6 L78.6,315.6 "/></g>
<g id="xMajorTicks" stroke="rgb(0,0,0)" stroke-width="2"><path d="M278.4,338.2 L278.4,343.2 M328.3,338.2 L328.3,343.2 M378.2,338.2 L378.2,343.2 M428.2,338.2 L428.2,343.2 M478.1,338.2 L478.1,343.2 M528.1,338.2 L528.1,343.2 M578,338.2 L578,343.2 M278.4,338.2 L278.4,343.2 M228.4,338.2 L228.4,343.2 M178.5,338.2 L178.5,343.2 M128.5,338.2 L128.5,343.2 "/></g>
<g id="plotLabels">
<text x="278.4" y="357.6" text-anchor="middle" font-size="12" font-family="Verdana">0</text>
<text x="328.3" y="357.6" text-anchor="middle" font-size="12" font-family="Verdana">1</text>
<text x="378.2" y="357.6" text-anchor="middle" font-size="12" font-family="Verdana">2</text>
<text x="428.2" y="357.6" text-anchor="middle" font-size="12" font-family="Verdana">3</text>
<text x="478.1" y="357.6" text-anchor="middle" font-size="12" font-family="Verdana">4</text>
<text x="528.1" y="357.6" text-anchor="middle" font-size="12" font-family="Verdana">5</text>
<text x="578" y="357.6" text-anchor="middle" font-size="12" font-family="Verdana">6</text>
<text x="278.4" y="357.6" text-anchor="middle" font-size="12" font-family="Verdana">0</text>
<text x="228.4" y="357.6" text-anchor="middle" font-size="12" font-family="Verdana">-1</text>
<text x="178.5" y="357.6" text-anchor="middle" font-size="12" font-family="Verdana">-2</text>
<text x="128.5" y="357.6" text-anchor="middle" font-size="12" font-family="Verdana">-3</text>
<text x="67.6" y="205.2" text-anchor="end" font-size="12" font-family="Verdana">0</text>
<text x="67.6" y="148.8" text-anchor="end" font-size="12" font-family="Verdana">50</text>
<text x="67.6" y="92.38" text-anchor="end" font-size="12" font-family="Verdana">100</text>
<text x="67.6" y="205.2" text-anchor="end" font-size="12" font-family="Verdana">0</text>
<text x="67.6" y="261.6" text-anchor="end" font-size="12" font-family="Verdana">-50</text>
<text x="67.6" y="318" text-anchor="end" font-size="12" font-family="Verdana">-100</text></g>
<g id="yLabel">
<text x="30.2" y="200.1" text-anchor="middle" transform = "rotate(-90 30.2 200.1 )" font-size="14" font-family="Verdana">tgamma(z)</text></g>
<g id="xLabel">
<text x="333.3" y="384" text-anchor="middle" font-size="14" font-family="Verdana">z</text></g>
<g id="plotLines" stroke-width="2"><g clip-path="url(#plot_window)" stroke="rgb(0,0,139)" stroke-width="1"><path d="M278.8,67.42 L280.3,173.9 L281.8,186.8 L283.3,191.9 L284.8,194.5 L286.2,196.2 L287.7,197.3 L289.2,198.1 L290.7,198.7 L292.2,199.1 L293.7,199.5 L295.2,199.8 L296.7,200.1 L298.2,200.3 L299.7,200.5 L301.2,200.6 L302.7,200.8 L304.2,200.9 L305.7,201 L307.2,201.1 L308.7,201.1 L310.2,201.2 L311.7,201.3 L313.2,201.3 L314.7,201.4 L316.2,201.4 L317.7,201.5 L319.2,201.5 L320.7,201.5 L322.2,201.6 L323.7,201.6 L325.2,201.6 L326.6,201.7 L328.1,201.7 L329.6,201.7 L331.1,201.7 L332.6,201.7 L334.1,201.7 L335.6,201.8 L337.1,201.8 L338.6,201.8 L340.1,201.8 L341.6,201.8 L343.1,201.8 L344.6,201.8 L346.1,201.8 L347.6,201.8 L349.1,201.8 L350.6,201.8 L352.1,201.8 L353.6,201.8 L355.1,201.8 L356.6,201.8 L358.1,201.8 L359.6,201.8 L361.1,201.8 L362.6,201.8 L364.1,201.8 L365.5,201.8 L367,201.8 L368.5,201.8 L370,201.7 L371.5,201.7 L373,201.7 L374.5,201.7 L376,201.7 L377.5,201.7 L379,201.7 L380.5,201.7 L382,201.6 L383.5,201.6 L385,201.6 L386.5,201.6 L388,201.6 L389.5,201.5 L391,201.5 L392.5,201.5 L394,201.5 L395.5,201.5 L397,201.4 L398.5,201.4 L400,201.4 L401.5,201.3 L403,201.3 L404.5,201.3 L405.9,201.2 L407.4,201.2 L408.9,201.2 L410.4,201.1 L411.9,201.1 L413.4,201.1 L414.9,201 L416.4,201 L417.9,200.9 L419.4,200.9 L420.9,200.8 L422.4,200.8 L423.9,200.7 L425.4,200.7 L426.9,200.6 L428.4,200.5 L429.9,200.5 L431.4,200.4 L432.9,200.3 L434.4,200.3 L435.9,200.2 L437.4,200.1 L438.9,200 L440.4,199.9 L441.9,199.9 L443.4,199.8 L444.8,199.7 L446.3,199.6 L447.8,199.5 L449.3,199.4 L450.8,199.2 L452.3,199.1 L453.8,199 L455.3,198.9 L456.8,198.7 L458.3,198.6 L459.8,198.5 L461.3,198.3 L462.8,198.1 L464.3,198 L465.8,197.8 L467.3,197.6 L468.8,197.4 L470.3,197.2 L471.8,197 L473.3,196.8 L474.8,196.6 L476.3,196.3 L477.8,196.1 L479.3,195.8 L480.8,195.6 L482.3,195.3 L483.8,195 L485.2,194.7 L486.7,194.4 L488.2,194 L489.7,193.7 L491.2,193.3 L492.7,192.9 L494.2,192.5 L495.7,192.1 L497.2,191.6 L498.7,191.2 L500.2,190.7 L501.7,190.2 L503.2,189.6 L504.7,189.1 L506.2,188.5 L507.7,187.9 L509.2,187.2 L510.7,186.6 L512.2,185.8 L513.7,185.1 L515.2,184.3 L516.7,183.5 L518.2,182.6 L519.7,181.7 L521.2,180.8 L522.7,179.8 L524.1,178.7 L525.6,177.6 L527.1,176.5 L528.6,175.3 L530.1,174 L531.6,172.6 L533.1,171.2 L534.6,169.8 L536.1,168.2 L537.6,166.6 L539.1,164.8 L540.6,163 L542.1,161.1 L543.6,159.1 L545.1,157 L546.6,154.8 L548.1,152.4 L549.6,150 L551.1,147.4 L552.6,144.6 L554.1,141.7 L555.6,138.7 L557.1,135.5 L558.6,132.2 L560.1,128.6 L561.6,124.9 L563,120.9 L564.5,116.8 L566,112.4 L567.5,107.8 L569,102.9 L570.5,97.73 L572,92.31 L573.5,86.58 L575,80.53 L576.5,74.15 L578,67.42 " fill="none"/></g>
<g clip-path="url(#plot_window)" stroke="rgb(0,0,139)" stroke-width="1"><path d="M228.8,338.2 L229.1,288.3 L229.3,265.3 L229.6,252.1 L229.8,243.6 L230.1,237.6 L230.3,233.1 L230.5,229.7 L230.8,227 L231,224.8 L231.3,223 L231.5,221.5 L231.8,220.1 L232,219 L232.3,218 L232.5,217.2 L232.8,216.4 L233,215.7 L233.2,215.1 L233.5,214.5 L233.7,214 L234,213.6 L234.2,213.2 L234.5,212.8 L234.7,212.4 L235,212.1 L235.2,211.8 L235.5,211.5 L235.7,211.3 L235.9,211 L236.2,210.8 L236.4,210.6 L236.7,210.4 L236.9,210.2 L237.2,210 L237.4,209.9 L237.7,209.7 L237.9,209.6 L238.2,209.4 L238.4,209.3 L238.7,209.2 L238.9,209 L239.1,208.9 L239.4,208.8 L239.6,208.7 L239.9,208.6 L240.1,208.5 L240.4,208.4 L240.6,208.4 L240.9,208.3 L241.1,208.2 L241.4,208.1 L241.6,208.1 L241.8,208 L242.1,207.9 L242.3,207.9 L242.6,207.8 L242.8,207.7 L243.1,207.7 L243.3,207.6 L243.6,207.6 L243.8,207.6 L244.1,207.5 L244.3,207.5 L244.5,207.4 L244.8,207.4 L245,207.3 L245.3,207.3 L245.5,207.3 L245.8,207.2 L246,207.2 L246.3,207.2 L246.5,207.2 L246.8,207.1 L247,207.1 L247.2,207.1 L247.5,207.1 L247.7,207 L248,207 L248.2,207 L248.5,207 L248.7,207 L249,206.9 L249.2,206.9 L249.5,206.9 L249.7,206.9 L249.9,206.9 L250.2,206.9 L250.4,206.9 L250.7,206.9 L250.9,206.8 L251.2,206.8 L251.4,206.8 L251.7,206.8 L251.9,206.8 L252.2,206.8 L252.4,206.8 L252.6,206.8 L252.9,206.8 L253.1,206.8 L253.4,206.8 L253.6,206.8 L253.9,206.8 L254.1,206.8 L254.4,206.8 L254.6,206.8 L254.9,206.8 L255.1,206.8 L255.3,206.8 L255.6,206.8 L255.8,206.9 L256.1,206.9 L256.3,206.9 L256.6,206.9 L256.8,206.9 L257.1,206.9 L257.3,206.9 L257.6,206.9 L257.8,207 L258,207 L258.3,207 L258.5,207 L258.8,207 L259,207.1 L259.3,207.1 L259.5,207.1 L259.8,207.1 L260,207.2 L260.3,207.2 L260.5,207.2 L260.7,207.3 L261,207.3 L261.2,207.3 L261.5,207.4 L261.7,207.4 L262,207.4 L262.2,207.5 L262.5,207.5 L262.7,207.6 L263,207.6 L263.2,207.7 L263.4,207.7 L263.7,207.8 L263.9,207.8 L264.2,207.9 L264.4,207.9 L264.7,208 L264.9,208.1 L265.2,208.1 L265.4,208.2 L265.7,208.3 L265.9,208.3 L266.2,208.4 L266.4,208.5 L266.6,208.6 L266.9,208.7 L267.1,208.8 L267.4,208.9 L267.6,209 L267.9,209.1 L268.1,209.2 L268.4,209.4 L268.6,209.5 L268.9,209.6 L269.1,209.8 L269.3,210 L269.6,210.1 L269.8,210.3 L270.1,210.5 L270.3,210.7 L270.6,210.9 L270.8,211.1 L271.1,211.4 L271.3,211.6 L271.6,211.9 L271.8,212.2 L272,212.5 L272.3,212.9 L272.5,213.3 L272.8,213.7 L273,214.2 L273.3,214.7 L273.5,215.2 L273.8,215.8 L274,216.5 L274.3,217.3 L274.5,218.2 L274.7,219.2 L275,220.3 L275.2,221.6 L275.5,223.1 L275.7,225 L276,227.2 L276.2,229.9 L276.5,233.3 L276.7,237.7 L277,243.7 L277.2,252.3 L277.4,265.4 L277.7,288.4 " fill="none"/></g>
<g clip-path="url(#plot_window)" stroke="rgb(0,0,139)" stroke-width="1"><path d="M178.7,67.42 L178.9,140.4 L179.2,162.1 L179.4,172.6 L179.7,178.7 L179.9,182.7 L180.2,185.6 L180.4,187.7 L180.7,189.3 L180.9,190.6 L181.1,191.7 L181.4,192.6 L181.6,193.3 L181.9,194 L182.1,194.5 L182.4,195 L182.6,195.4 L182.9,195.8 L183.1,196.1 L183.4,196.4 L183.6,196.7 L183.9,196.9 L184.1,197.2 L184.3,197.4 L184.6,197.5 L184.8,197.7 L185.1,197.9 L185.3,198 L185.6,198.2 L185.8,198.3 L186.1,198.4 L186.3,198.5 L186.6,198.6 L186.8,198.7 L187.1,198.8 L187.3,198.9 L187.6,199 L187.8,199 L188,199.1 L188.3,199.2 L188.5,199.2 L188.8,199.3 L189,199.3 L189.3,199.4 L189.5,199.4 L189.8,199.5 L190,199.5 L190.3,199.6 L190.5,199.6 L190.8,199.7 L191,199.7 L191.3,199.7 L191.5,199.8 L191.7,199.8 L192,199.8 L192.2,199.9 L192.5,199.9 L192.7,199.9 L193,199.9 L193.2,200 L193.5,200 L193.7,200 L194,200 L194.2,200 L194.5,200 L194.7,200.1 L195,200.1 L195.2,200.1 L195.4,200.1 L195.7,200.1 L195.9,200.1 L196.2,200.1 L196.4,200.1 L196.7,200.2 L196.9,200.2 L197.2,200.2 L197.4,200.2 L197.7,200.2 L197.9,200.2 L198.2,200.2 L198.4,200.2 L198.7,200.2 L198.9,200.2 L199.1,200.2 L199.4,200.2 L199.6,200.2 L199.9,200.2 L200.1,200.2 L200.4,200.2 L200.6,200.2 L200.9,200.2 L201.1,200.2 L201.4,200.2 L201.6,200.2 L201.9,200.2 L202.1,200.2 L202.4,200.2 L202.6,200.2 L202.8,200.2 L203.1,200.2 L203.3,200.1 L203.6,200.1 L203.8,200.1 L204.1,200.1 L204.3,200.1 L204.6,200.1 L204.8,200.1 L205.1,200.1 L205.3,200.1 L205.6,200 L205.8,200 L206,200 L206.3,200 L206.5,200 L206.8,200 L207,199.9 L207.3,199.9 L207.5,199.9 L207.8,199.9 L208,199.8 L208.3,199.8 L208.5,199.8 L208.8,199.8 L209,199.7 L209.3,199.7 L209.5,199.7 L209.7,199.7 L210,199.6 L210.2,199.6 L210.5,199.6 L210.7,199.5 L211,199.5 L211.2,199.5 L211.5,199.4 L211.7,199.4 L212,199.3 L212.2,199.3 L212.5,199.2 L212.7,199.2 L213,199.2 L213.2,199.1 L213.4,199 L213.7,199 L213.9,198.9 L214.2,198.9 L214.4,198.8 L214.7,198.8 L214.9,198.7 L215.2,198.6 L215.4,198.5 L215.7,198.5 L215.9,198.4 L216.2,198.3 L216.4,198.2 L216.7,198.1 L216.9,198 L217.1,197.9 L217.4,197.8 L217.6,197.7 L217.9,197.6 L218.1,197.5 L218.4,197.4 L218.6,197.2 L218.9,197.1 L219.1,196.9 L219.4,196.8 L219.6,196.6 L219.9,196.4 L220.1,196.2 L220.4,196 L220.6,195.8 L220.8,195.6 L221.1,195.4 L221.3,195.1 L221.6,194.8 L221.8,194.5 L222.1,194.2 L222.3,193.8 L222.6,193.5 L222.8,193 L223.1,192.6 L223.3,192.1 L223.6,191.5 L223.8,190.9 L224.1,190.2 L224.3,189.5 L224.5,188.6 L224.8,187.6 L225,186.5 L225.3,185.2 L225.5,183.6 L225.8,181.8 L226,179.6 L226.3,176.9 L226.5,173.5 L226.8,169 L227,163 L227.3,154.4 L227.5,141.2 L227.8,118.1 " fill="none"/></g>
<g clip-path="url(#plot_window)" stroke="rgb(0,0,139)" stroke-width="1"><path d="M128.6,338.2 L128.8,232.6 L129.1,219.6 L129.3,214.6 L129.6,211.9 L129.8,210.2 L130.1,209.1 L130.3,208.3 L130.6,207.6 L130.8,207.1 L131.1,206.7 L131.3,206.4 L131.6,206.2 L131.8,205.9 L132.1,205.7 L132.3,205.6 L132.6,205.4 L132.8,205.3 L133.1,205.2 L133.3,205.1 L133.6,205 L133.8,204.9 L134.1,204.8 L134.3,204.7 L134.6,204.7 L134.8,204.6 L135.1,204.5 L135.3,204.5 L135.5,204.5 L135.8,204.4 L136,204.4 L136.3,204.3 L136.5,204.3 L136.8,204.3 L137,204.2 L137.3,204.2 L137.5,204.2 L137.8,204.2 L138,204.1 L138.3,204.1 L138.5,204.1 L138.8,204.1 L139,204.1 L139.3,204 L139.5,204 L139.8,204 L140,204 L140.3,204 L140.5,204 L140.8,204 L141,203.9 L141.3,203.9 L141.5,203.9 L141.8,203.9 L142,203.9 L142.3,203.9 L142.5,203.9 L142.7,203.9 L143,203.9 L143.2,203.9 L143.5,203.9 L143.7,203.9 L144,203.8 L144.2,203.8 L144.5,203.8 L144.7,203.8 L145,203.8 L145.2,203.8 L145.5,203.8 L145.7,203.8 L146,203.8 L146.2,203.8 L146.5,203.8 L146.7,203.8 L147,203.8 L147.2,203.8 L147.5,203.8 L147.7,203.8 L148,203.8 L148.2,203.8 L148.5,203.8 L148.7,203.8 L149,203.8 L149.2,203.8 L149.5,203.8 L149.7,203.8 L150,203.8 L150.2,203.8 L150.4,203.8 L150.7,203.8 L150.9,203.8 L151.2,203.8 L151.4,203.8 L151.7,203.8 L151.9,203.8 L152.2,203.8 L152.4,203.9 L152.7,203.9 L152.9,203.9 L153.2,203.9 L153.4,203.9 L153.7,203.9 L153.9,203.9 L154.2,203.9 L154.4,203.9 L154.7,203.9 L154.9,203.9 L155.2,203.9 L155.4,203.9 L155.7,203.9 L155.9,203.9 L156.2,204 L156.4,204 L156.7,204 L156.9,204 L157.2,204 L157.4,204 L157.6,204 L157.9,204 L158.1,204 L158.4,204.1 L158.6,204.1 L158.9,204.1 L159.1,204.1 L159.4,204.1 L159.6,204.1 L159.9,204.1 L160.1,204.2 L160.4,204.2 L160.6,204.2 L160.9,204.2 L161.1,204.2 L161.4,204.2 L161.6,204.3 L161.9,204.3 L162.1,204.3 L162.4,204.3 L162.6,204.4 L162.9,204.4 L163.1,204.4 L163.4,204.4 L163.6,204.5 L163.9,204.5 L164.1,204.5 L164.4,204.5 L164.6,204.6 L164.9,204.6 L165.1,204.6 L165.3,204.7 L165.6,204.7 L165.8,204.8 L166.1,204.8 L166.3,204.8 L166.6,204.9 L166.8,204.9 L167.1,205 L167.3,205 L167.6,205.1 L167.8,205.1 L168.1,205.2 L168.3,205.3 L168.6,205.3 L168.8,205.4 L169.1,205.5 L169.3,205.5 L169.6,205.6 L169.8,205.7 L170.1,205.8 L170.3,205.9 L170.6,206 L170.8,206.1 L171.1,206.2 L171.3,206.4 L171.6,206.5 L171.8,206.6 L172.1,206.8 L172.3,207 L172.5,207.2 L172.8,207.4 L173,207.6 L173.3,207.8 L173.5,208.1 L173.8,208.4 L174,208.7 L174.3,209.1 L174.5,209.5 L174.8,210 L175,210.6 L175.3,211.2 L175.5,211.9 L175.8,212.8 L176,213.9 L176.3,215.2 L176.5,216.8 L176.8,218.9 L177,221.8 L177.3,225.8 L177.5,231.9 L177.8,242.3 L178,264.1 L178.3,338.2 " fill="none"/></g>
<g clip-path="url(#plot_window)" stroke="rgb(0,0,139)" stroke-width="1"><path d="M78.6,67.42 L78.85,193.9 L79.1,198.2 L79.35,199.7 L79.6,200.4 L79.85,200.9 L80.1,201.2 L80.34,201.4 L80.59,201.6 L80.84,201.7 L81.09,201.8 L81.34,201.9 L81.59,201.9 L81.84,202 L82.09,202.1 L82.34,202.1 L82.59,202.1 L82.84,202.2 L83.09,202.2 L83.34,202.2 L83.59,202.3 L83.83,202.3 L84.08,202.3 L84.33,202.3 L84.58,202.3 L84.83,202.3 L85.08,202.4 L85.33,202.4 L85.58,202.4 L85.83,202.4 L86.08,202.4 L86.33,202.4 L86.58,202.4 L86.83,202.4 L87.08,202.4 L87.32,202.4 L87.57,202.4 L87.82,202.5 L88.07,202.5 L88.32,202.5 L88.57,202.5 L88.82,202.5 L89.07,202.5 L89.32,202.5 L89.57,202.5 L89.82,202.5 L90.07,202.5 L90.32,202.5 L90.57,202.5 L90.81,202.5 L91.06,202.5 L91.31,202.5 L91.56,202.5 L91.81,202.5 L92.06,202.5 L92.31,202.5 L92.56,202.5 L92.81,202.5 L93.06,202.5 L93.31,202.5 L93.56,202.5 L93.81,202.5 L94.06,202.5 L94.3,202.5 L94.55,202.5 L94.8,202.5 L95.05,202.5 L95.3,202.5 L95.55,202.5 L95.8,202.5 L96.05,202.5 L96.3,202.5 L96.55,202.5 L96.8,202.5 L97.05,202.5 L97.3,202.5 L97.55,202.5 L97.79,202.5 L98.04,202.5 L98.29,202.5 L98.54,202.5 L98.79,202.5 L99.04,202.5 L99.29,202.5 L99.54,202.5 L99.79,202.5 L100,202.5 L100.3,202.5 L100.5,202.5 L100.8,202.5 L101,202.5 L101.3,202.5 L101.5,202.5 L101.8,202.5 L102,202.5 L102.3,202.5 L102.5,202.5 L102.8,202.5 L103,202.5 L103.3,202.5 L103.5,202.5 L103.8,202.5 L104,202.5 L104.3,202.5 L104.5,202.5 L104.8,202.5 L105,202.5 L105.3,202.5 L105.5,202.5 L105.8,202.5 L106,202.5 L106.3,202.5 L106.5,202.5 L106.8,202.5 L107,202.5 L107.3,202.5 L107.5,202.5 L107.8,202.5 L108,202.4 L108.3,202.4 L108.5,202.4 L108.8,202.4 L109,202.4 L109.3,202.4 L109.5,202.4 L109.8,202.4 L110,202.4 L110.3,202.4 L110.5,202.4 L110.8,202.4 L111,202.4 L111.3,202.4 L111.5,202.4 L111.8,202.4 L112,202.4 L112.3,202.4 L112.5,202.3 L112.8,202.3 L113,202.3 L113.3,202.3 L113.5,202.3 L113.7,202.3 L114,202.3 L114.2,202.3 L114.5,202.3 L114.7,202.3 L115,202.3 L115.2,202.2 L115.5,202.2 L115.7,202.2 L116,202.2 L116.2,202.2 L116.5,202.2 L116.7,202.2 L117,202.1 L117.2,202.1 L117.5,202.1 L117.7,202.1 L118,202.1 L118.2,202.1 L118.5,202 L118.7,202 L119,202 L119.2,202 L119.5,201.9 L119.7,201.9 L120,201.9 L120.2,201.8 L120.5,201.8 L120.7,201.8 L121,201.7 L121.2,201.7 L121.5,201.7 L121.7,201.6 L122,201.6 L122.2,201.5 L122.5,201.4 L122.7,201.4 L123,201.3 L123.2,201.2 L123.5,201.1 L123.7,201.1 L124,200.9 L124.2,200.8 L124.5,200.7 L124.7,200.5 L125,200.4 L125.2,200.2 L125.5,200 L125.7,199.7 L126,199.4 L126.2,199 L126.5,198.5 L126.7,197.9 L127,197 L127.2,195.9 L127.5,194.2 L127.7,191.5 L128,186.5 L128.2,173.6 L128.5,67.42 " fill="none"/></g>
</g>
<g id="plotPoints" clip-path="url(#plot_window)"><g stroke="rgb(0,0,0)"></g>
<g stroke="rgb(0,0,0)"></g>
<g stroke="rgb(0,0,0)"></g>
<g stroke="rgb(0,0,0)"></g>
<g stroke="rgb(0,0,0)"></g>
</g>
<g id="limitPoints" stroke="rgb(119,136,153)" fill="rgb(250,235,215)"></g>
<g id="legendBackground" stroke="rgb(119,136,153)" fill="rgb(255,255,255)"></g>
<g id="legendPoints"></g>
<g id="legendText"></g>
<g id="title">
<text x="300" y="40" text-anchor="middle" font-size="20" font-family="Verdana">tgamma</text></g>
</svg>
