<?xml version="1.0" encoding="UTF-8" standalone="no"?>
<svg width="750" height ="400" version="1.1" xmlns="http://www.w3.org/2000/svg"
 xmlns:xlink="http://www.w3.org/1999/xlink"
 xmlns:ev="http://www.w3.org/2001/xml-events">

<!-- SVG plot written using Boost.Plot program (Creator Jacob Voytko) --> 
<!-- Use, modification and distribution of Boost.Plot subject to the --> 
<!-- Boost Software License, Version 1.0.--> 
<!-- (See accompanying file LICENSE_1_0.txt --> 
<!-- or copy at http://www.boost.org/LICENSE_1_0.txt) --> 

<clipPath id="plot_window"><rect x="71.2" y="63" width="517.2" height="274.2"/></clipPath>
<g id="imageBackground" stroke="rgb(119,136,153)" fill="rgb(255,255,255)" stroke-width="2"><rect x="0" y="0" width="750" height="400"/></g>
<g id="plotBackground" stroke="rgb(119,136,153)" fill="rgb(255,255,255)" stroke-width="2"><rect x="70.2" y="62" width="519.2" height="276.2"/></g>
<g id="yMinorGrid" stroke="rgb(200,220,255)" stroke-width="0.5"></g>
<g id="yMajorGrid" stroke="rgb(200,220,255)" stroke-width="1"></g>
<g id="xMinorGrid" stroke="rgb(200,220,255)" stroke-width="0.5"></g>
<g id="xMajorGrid" stroke="rgb(200,220,255)" stroke-width="1"></g>
<g id="yAxis" stroke="rgb(0,0,0)" stroke-width="1"><line x1="277.9" y1="62" x2="277.9" y2="343.2"/><line x1="70.2" y1="62" x2="70.2" y2="338.2"/></g>
<g id="xAxis" stroke="rgb(0,0,0)" stroke-width="1"><line x1="65.2" y1="338.2" x2="589.4" y2="338.2"/><line x1="65.2" y1="338.2" x2="589.4" y2="338.2"/></g>
<g id="yMinorTicks" stroke="rgb(0,0,0)" stroke-width="1"><path d="M68.2,325.6 L70.2,325.6 M68.2,313.1 L70.2,313.1 M68.2,300.5 L70.2,300.5 M68.2,288 L70.2,288 M68.2,262.9 L70.2,262.9 M68.2,250.3 L70.2,250.3 M68.2,237.8 L70.2,237.8 M68.2,225.2 L70.2,225.2 M68.2,200.1 L70.2,200.1 M68.2,187.5 L70.2,187.5 M68.2,175 L70.2,175 M68.2,162.4 L70.2,162.4 M68.2,137.3 L70.2,137.3 M68.2,124.8 L70.2,124.8 M68.2,112.2 L70.2,112.2 M68.2,99.66 L70.2,99.66 M68.2,74.55 L70.2,74.55 M68.2,62 L70.2,62 M68.2,338.2 L70.2,338.2 "/></g>
<g id="xMinorTicks" stroke="rgb(0,0,0)" stroke-width="1"><path d="M298.7,338.2 L298.7,340.2 M319.4,338.2 L319.4,340.2 M340.2,338.2 L340.2,340.2 M361,338.2 L361,340.2 M402.5,338.2 L402.5,340.2 M423.3,338.2 L423.3,340.2 M444.1,338.2 L444.1,340.2 M464.8,338.2 L464.8,340.2 M506.4,338.2 L506.4,340.2 M527.1,338.2 L527.1,340.2 M547.9,338.2 L547.9,340.2 M568.7,338.2 L568.7,340.2 M257.1,338.2 L257.1,340.2 M236.4,338.2 L236.4,340.2 M215.6,338.2 L215.6,340.2 M194.8,338.2 L194.8,340.2 M153.3,338.2 L153.3,340.2 M132.5,338.2 L132.5,340.2 M111.7,338.2 L111.7,340.2 M90.97,338.2 L90.97,340.2 "/></g>
<g id="yMajorTicks" stroke="rgb(0,0,0)" stroke-width="2"><path d="M65.2,338.2 L70.2,338.2 M65.2,275.4 L70.2,275.4 M65.2,212.7 L70.2,212.7 M65.2,149.9 L70.2,149.9 M65.2,87.11 L70.2,87.11 M65.2,338.2 L70.2,338.2 "/></g>
<g id="xMajorTicks" stroke="rgb(0,0,0)" stroke-width="2"><path d="M277.9,338.2 L277.9,343.2 M381.7,338.2 L381.7,343.2 M485.6,338.2 L485.6,343.2 M589.4,338.2 L589.4,343.2 M277.9,338.2 L277.9,343.2 M174,338.2 L174,343.2 M70.2,338.2 L70.2,343.2 "/></g>
<g id="plotLabels">
<text x="277.9" y="357.6" text-anchor="middle" font-size="12" font-family="Verdana">0</text>
<text x="381.7" y="357.6" text-anchor="middle" font-size="12" font-family="Verdana">1</text>
<text x="485.6" y="357.6" text-anchor="middle" font-size="12" font-family="Verdana">2</text>
<text x="589.4" y="357.6" text-anchor="middle" font-size="12" font-family="Verdana">3</text>
<text x="277.9" y="357.6" text-anchor="middle" font-size="12" font-family="Verdana">0</text>
<text x="174" y="357.6" text-anchor="middle" font-size="12" font-family="Verdana">-1</text>
<text x="70.2" y="357.6" text-anchor="middle" font-size="12" font-family="Verdana">-2</text>
<text x="59.2" y="340.6" text-anchor="end" font-size="12" font-family="Verdana">0</text>
<text x="59.2" y="277.8" text-anchor="end" font-size="12" font-family="Verdana">0.5</text>
<text x="59.2" y="215.1" text-anchor="end" font-size="12" font-family="Verdana">1</text>
<text x="59.2" y="152.3" text-anchor="end" font-size="12" font-family="Verdana">1.5</text>
<text x="59.2" y="89.51" text-anchor="end" font-size="12" font-family="Verdana">2</text>
<text x="59.2" y="340.6" text-anchor="end" font-size="12" font-family="Verdana">0</text></g>
<g id="yLabel">
<text x="30.2" y="200.1" text-anchor="middle" transform = "rotate(-90 30.2 200.1 )" font-size="14" font-family="Verdana">Probability</text></g>
<g id="xLabel">
<text x="329.8" y="384" text-anchor="middle" font-size="14" font-family="Verdana">Random Variable</text></g>
<g id="plotLines" stroke-width="2"><g clip-path="url(#plot_window)" stroke="rgb(0,0,139)" stroke-width="1"><path d="M70.2,338.2 L72.8,338.2 L75.39,338.2 L77.99,338.2 L80.58,338.2 L83.18,338.2 L85.78,338.2 L88.37,338.2 L90.97,338.2 L93.57,338.2 L96.16,338.2 L98.76,338.2 L101.4,338.2 L104,338.2 L106.5,338.2 L109.1,338.2 L111.7,338.2 L114.3,338.2 L116.9,338.2 L119.5,338.2 L122.1,338.2 L124.7,338.2 L127.3,338.2 L129.9,338.2 L132.5,338.2 L135.1,338.2 L137.7,338.2 L140.3,338.2 L142.9,338.2 L145.5,338.2 L148.1,338.2 L150.7,338.2 L153.3,338.2 L155.9,338.2 L158.5,338.2 L161.1,338.2 L163.7,338.2 L166.3,338.2 L168.9,338.2 L171.5,338.2 L174,338.2 L176.6,335.1 L179.2,331.9 L181.8,328.8 L184.4,325.6 L187,322.5 L189.6,319.4 L192.2,316.2 L194.8,313.1 L197.4,310 L200,306.8 L202.6,303.7 L205.2,300.5 L207.8,297.4 L210.4,294.3 L213,291.1 L215.6,288 L218.2,284.8 L220.8,281.7 L223.4,278.6 L226,275.4 L228.6,272.3 L231.2,269.2 L233.8,266 L236.4,262.9 L239,259.7 L241.5,256.6 L244.1,253.5 L246.7,250.3 L249.3,247.2 L251.9,244 L254.5,240.9 L257.1,237.8 L259.7,234.6 L262.3,231.5 L264.9,228.3 L267.5,225.2 L270.1,222.1 L272.7,218.9 L275.3,215.8 L277.9,212.7 L280.5,215.8 L283.1,218.9 L285.7,222.1 L288.3,225.2 L290.9,228.3 L293.5,231.5 L296.1,234.6 L298.7,237.8 L301.3,240.9 L303.9,244 L306.5,247.2 L309.1,250.3 L311.6,253.5 L314.2,256.6 L316.8,259.7 L319.4,262.9 L322,266 L324.6,269.1 L327.2,272.3 L329.8,275.4 L332.4,278.6 L335,281.7 L337.6,284.8 L340.2,288 L342.8,291.1 L345.4,294.3 L348,297.4 L350.6,300.5 L353.2,303.7 L355.8,306.8 L358.4,310 L361,313.1 L363.6,316.2 L366.2,319.4 L368.8,322.5 L371.4,325.6 L374,328.8 L376.6,331.9 L379.1,335.1 L381.7,338.2 L384.3,338.2 L386.9,338.2 L389.5,338.2 L392.1,338.2 L394.7,338.2 L397.3,338.2 L399.9,338.2 L402.5,338.2 L405.1,338.2 L407.7,338.2 L410.3,338.2 L412.9,338.2 L415.5,338.2 L418.1,338.2 L420.7,338.2 L423.3,338.2 L425.9,338.2 L428.5,338.2 L431.1,338.2 L433.7,338.2 L436.3,338.2 L438.9,338.2 L441.5,338.2 L444.1,338.2 L446.6,338.2 L449.2,338.2 L451.8,338.2 L454.4,338.2 L457,338.2 L459.6,338.2 L462.2,338.2 L464.8,338.2 L467.4,338.2 L470,338.2 L472.6,338.2 L475.2,338.2 L477.8,338.2 L480.4,338.2 L483,338.2 L485.6,338.2 L488.2,338.2 L490.8,338.2 L493.4,338.2 L496,338.2 L498.6,338.2 L501.2,338.2 L503.8,338.2 L506.4,338.2 L509,338.2 L511.6,338.2 L514.2,338.2 L516.7,338.2 L519.3,338.2 L521.9,338.2 L524.5,338.2 L527.1,338.2 L529.7,338.2 L532.3,338.2 L534.9,338.2 L537.5,338.2 L540.1,338.2 L542.7,338.2 L545.3,338.2 L547.9,338.2 L550.5,338.2 L553.1,338.2 L555.7,338.2 L558.3,338.2 L560.9,338.2 L563.5,338.2 L566.1,338.2 L568.7,338.2 L571.3,338.2 L573.9,338.2 L576.5,338.2 L579.1,338.2 L581.7,338.2 L584.2,338.2 L586.8,338.2 L589.4,338.2 " fill="none"/></g>
<g clip-path="url(#plot_window)" stroke="rgb(139,0,0)" stroke-width="1"><path d="M70.2,338.2 L72.8,338.2 L75.39,338.2 L77.99,338.2 L80.58,338.2 L83.18,338.2 L85.78,338.2 L88.37,338.2 L90.97,338.2 L93.57,338.2 L96.16,338.2 L98.76,338.2 L101.4,338.2 L104,338.2 L106.5,338.2 L109.1,338.2 L111.7,338.2 L114.3,338.2 L116.9,338.2 L119.5,338.2 L122.1,338.2 L124.7,338.2 L127.3,338.2 L129.9,338.2 L132.5,338.2 L135.1,338.2 L137.7,338.2 L140.3,338.2 L142.9,338.2 L145.5,338.2 L148.1,338.2 L150.7,338.2 L153.3,338.2 L155.9,338.2 L158.5,338.2 L161.1,338.2 L163.7,338.2 L166.3,338.2 L168.9,338.2 L171.5,338.2 L174,338.2 L176.6,338.2 L179.2,338.2 L181.8,338.2 L184.4,338.2 L187,338.2 L189.6,338.2 L192.2,338.2 L194.8,338.2 L197.4,338.2 L200,338.2 L202.6,338.2 L205.2,338.2 L207.8,338.2 L210.4,338.2 L213,338.2 L215.6,338.2 L218.2,338.2 L220.8,338.2 L223.4,338.2 L226,338.2 L228.6,338.2 L231.2,338.2 L233.8,338.2 L236.4,338.2 L239,338.2 L241.5,338.2 L244.1,338.2 L246.7,338.2 L249.3,338.2 L251.9,338.2 L254.5,338.2 L257.1,338.2 L259.7,338.2 L262.3,338.2 L264.9,338.2 L267.5,338.2 L270.1,338.2 L272.7,338.2 L275.3,338.2 L277.9,338.2 L280.5,331.9 L283.1,325.6 L285.7,319.4 L288.3,313.1 L290.9,306.8 L293.5,300.5 L296.1,294.3 L298.7,288 L301.3,281.7 L303.9,275.4 L306.5,269.2 L309.1,262.9 L311.6,256.6 L314.2,250.3 L316.8,244 L319.4,237.8 L322,231.5 L324.6,225.2 L327.2,218.9 L329.8,212.7 L332.4,206.4 L335,200.1 L337.6,193.8 L340.2,187.5 L342.8,181.3 L345.4,175 L348,168.7 L350.6,162.4 L353.2,156.2 L355.8,149.9 L358.4,143.6 L361,137.3 L363.6,131.1 L366.2,124.8 L368.8,118.5 L371.4,112.2 L374,105.9 L376.6,99.66 L379.1,93.39 L381.7,87.11 L384.3,338.2 L386.9,338.2 L389.5,338.2 L392.1,338.2 L394.7,338.2 L397.3,338.2 L399.9,338.2 L402.5,338.2 L405.1,338.2 L407.7,338.2 L410.3,338.2 L412.9,338.2 L415.5,338.2 L418.1,338.2 L420.7,338.2 L423.3,338.2 L425.9,338.2 L428.5,338.2 L431.1,338.2 L433.7,338.2 L436.3,338.2 L438.9,338.2 L441.5,338.2 L444.1,338.2 L446.6,338.2 L449.2,338.2 L451.8,338.2 L454.4,338.2 L457,338.2 L459.6,338.2 L462.2,338.2 L464.8,338.2 L467.4,338.2 L470,338.2 L472.6,338.2 L475.2,338.2 L477.8,338.2 L480.4,338.2 L483,338.2 L485.6,338.2 L488.2,338.2 L490.8,338.2 L493.4,338.2 L496,338.2 L498.6,338.2 L501.2,338.2 L503.8,338.2 L506.4,338.2 L509,338.2 L511.6,338.2 L514.2,338.2 L516.7,338.2 L519.3,338.2 L521.9,338.2 L524.5,338.2 L527.1,338.2 L529.7,338.2 L532.3,338.2 L534.9,338.2 L537.5,338.2 L540.1,338.2 L542.7,338.2 L545.3,338.2 L547.9,338.2 L550.5,338.2 L553.1,338.2 L555.7,338.2 L558.3,338.2 L560.9,338.2 L563.5,338.2 L566.1,338.2 L568.7,338.2 L571.3,338.2 L573.9,338.2 L576.5,338.2 L579.1,338.2 L581.7,338.2 L584.2,338.2 L586.8,338.2 L589.4,338.2 " fill="none"/></g>
<g clip-path="url(#plot_window)" stroke="rgb(0,100,0)" stroke-width="1"><path d="M70.2,338.2 L72.8,338.2 L75.39,338.2 L77.99,338.2 L80.58,338.2 L83.18,338.2 L85.78,338.2 L88.37,338.2 L90.97,338.2 L93.57,338.2 L96.16,338.2 L98.76,338.2 L101.4,338.2 L104,338.2 L106.5,338.2 L109.1,338.2 L111.7,338.2 L114.3,338.2 L116.9,338.2 L119.5,338.2 L122.1,338.2 L124.7,338.2 L127.3,338.2 L129.9,338.2 L132.5,338.2 L135.1,338.2 L137.7,338.2 L140.3,338.2 L142.9,338.2 L145.5,338.2 L148.1,338.2 L150.7,338.2 L153.3,338.2 L155.9,338.2 L158.5,338.2 L161.1,338.2 L163.7,338.2 L166.3,338.2 L168.9,338.2 L171.5,338.2 L174,338.2 L176.6,338.2 L179.2,338.2 L181.8,338.2 L184.4,338.2 L187,338.2 L189.6,338.2 L192.2,338.2 L194.8,338.2 L197.4,338.2 L200,338.2 L202.6,338.2 L205.2,338.2 L207.8,338.2 L210.4,338.2 L213,338.2 L215.6,338.2 L218.2,338.2 L220.8,338.2 L223.4,338.2 L226,338.2 L228.6,338.2 L231.2,338.2 L233.8,338.2 L236.4,338.2 L239,338.2 L241.5,338.2 L244.1,338.2 L246.7,338.2 L249.3,338.2 L251.9,338.2 L254.5,338.2 L257.1,338.2 L259.7,338.2 L262.3,338.2 L264.9,338.2 L267.5,338.2 L270.1,338.2 L272.7,338.2 L275.3,338.2 L277.9,338.2 L280.5,336.1 L283.1,334 L285.7,331.9 L288.3,329.8 L290.9,327.7 L293.5,325.6 L296.1,323.6 L298.7,321.5 L301.3,319.4 L303.9,317.3 L306.5,315.2 L309.1,313.1 L311.6,311 L314.2,308.9 L316.8,306.8 L319.4,304.7 L322,302.6 L324.6,300.5 L327.2,298.4 L329.8,296.4 L332.4,294.3 L335,292.2 L337.6,290.1 L340.2,288 L342.8,285.9 L345.4,283.8 L348,281.7 L350.6,279.6 L353.2,277.5 L355.8,275.4 L358.4,273.3 L361,271.2 L363.6,269.2 L366.2,267.1 L368.8,265 L371.4,262.9 L374,260.8 L376.6,258.7 L379.1,256.6 L381.7,254.5 L384.3,255.5 L386.9,256.6 L389.5,257.6 L392.1,258.7 L394.7,259.7 L397.3,260.8 L399.9,261.8 L402.5,262.9 L405.1,263.9 L407.7,265 L410.3,266 L412.9,267.1 L415.5,268.1 L418.1,269.1 L420.7,270.2 L423.3,271.2 L425.9,272.3 L428.5,273.3 L431.1,274.4 L433.7,275.4 L436.3,276.5 L438.9,277.5 L441.5,278.6 L444.1,279.6 L446.6,280.7 L449.2,281.7 L451.8,282.8 L454.4,283.8 L457,284.8 L459.6,285.9 L462.2,286.9 L464.8,288 L467.4,289 L470,290.1 L472.6,291.1 L475.2,292.2 L477.8,293.2 L480.4,294.3 L483,295.3 L485.6,296.4 L488.2,297.4 L490.8,298.4 L493.4,299.5 L496,300.5 L498.6,301.6 L501.2,302.6 L503.8,303.7 L506.4,304.7 L509,305.8 L511.6,306.8 L514.2,307.9 L516.7,308.9 L519.3,310 L521.9,311 L524.5,312 L527.1,313.1 L529.7,314.1 L532.3,315.2 L534.9,316.2 L537.5,317.3 L540.1,318.3 L542.7,319.4 L545.3,320.4 L547.9,321.5 L550.5,322.5 L553.1,323.6 L555.7,324.6 L558.3,325.6 L560.9,326.7 L563.5,327.7 L566.1,328.8 L568.7,329.8 L571.3,330.9 L573.9,331.9 L576.5,333 L579.1,334 L581.7,335.1 L584.2,336.1 L586.8,337.2 L589.4,338.2 " fill="none"/></g>
<g clip-path="url(#plot_window)" stroke="rgb(255,140,0)" stroke-width="1"><path d="M70.2,338.2 L72.8,338.2 L75.39,338.2 L77.99,338.2 L80.58,338.2 L83.18,338.2 L85.78,338.2 L88.37,338.2 L90.97,338.2 L93.57,338.2 L96.16,338.2 L98.76,338.2 L101.4,338.2 L104,338.2 L106.5,338.2 L109.1,338.2 L111.7,338.2 L114.3,338.2 L116.9,338.2 L119.5,338.2 L122.1,338.2 L124.7,338.2 L127.3,338.2 L129.9,338.2 L132.5,338.2 L135.1,338.2 L137.7,338.2 L140.3,338.2 L142.9,338.2 L145.5,338.2 L148.1,338.2 L150.7,338.2 L153.3,338.2 L155.9,338.2 L158.5,338.2 L161.1,338.2 L163.7,338.2 L166.3,338.2 L168.9,338.2 L171.5,338.2 L174,338.2 L176.6,338.2 L179.2,338.2 L181.8,338.2 L184.4,338.2 L187,338.2 L189.6,338.2 L192.2,338.2 L194.8,338.2 L197.4,338.2 L200,338.2 L202.6,338.2 L205.2,338.2 L207.8,338.2 L210.4,338.2 L213,338.2 L215.6,338.2 L218.2,338.2 L220.8,338.2 L223.4,338.2 L226,338.2 L228.6,338.2 L231.2,338.2 L233.8,338.2 L236.4,338.2 L239,338.2 L241.5,338.2 L244.1,338.2 L246.7,338.2 L249.3,338.2 L251.9,338.2 L254.5,338.2 L257.1,338.2 L259.7,338.2 L262.3,338.2 L264.9,338.2 L267.5,338.2 L270.1,338.2 L272.7,338.2 L275.3,338.2 L277.9,338.2 L280.5,325.6 L283.1,313.1 L285.7,300.5 L288.3,288 L290.9,275.4 L293.5,262.9 L296.1,250.3 L298.7,237.8 L301.3,225.2 L303.9,212.7 L306.5,200.1 L309.1,187.5 L311.6,175 L314.2,162.4 L316.8,149.9 L319.4,137.3 L322,124.8 L324.6,112.2 L327.2,99.66 L329.8,87.11 L332.4,99.66 L335,112.2 L337.6,124.8 L340.2,137.3 L342.8,149.9 L345.4,162.4 L348,175 L350.6,187.5 L353.2,200.1 L355.8,212.7 L358.4,225.2 L361,237.8 L363.6,250.3 L366.2,262.9 L368.8,275.4 L371.4,288 L374,300.5 L376.6,313.1 L379.1,325.6 L381.7,338.2 L384.3,338.2 L386.9,338.2 L389.5,338.2 L392.1,338.2 L394.7,338.2 L397.3,338.2 L399.9,338.2 L402.5,338.2 L405.1,338.2 L407.7,338.2 L410.3,338.2 L412.9,338.2 L415.5,338.2 L418.1,338.2 L420.7,338.2 L423.3,338.2 L425.9,338.2 L428.5,338.2 L431.1,338.2 L433.7,338.2 L436.3,338.2 L438.9,338.2 L441.5,338.2 L444.1,338.2 L446.6,338.2 L449.2,338.2 L451.8,338.2 L454.4,338.2 L457,338.2 L459.6,338.2 L462.2,338.2 L464.8,338.2 L467.4,338.2 L470,338.2 L472.6,338.2 L475.2,338.2 L477.8,338.2 L480.4,338.2 L483,338.2 L485.6,338.2 L488.2,338.2 L490.8,338.2 L493.4,338.2 L496,338.2 L498.6,338.2 L501.2,338.2 L503.8,338.2 L506.4,338.2 L509,338.2 L511.6,338.2 L514.2,338.2 L516.7,338.2 L519.3,338.2 L521.9,338.2 L524.5,338.2 L527.1,338.2 L529.7,338.2 L532.3,338.2 L534.9,338.2 L537.5,338.2 L540.1,338.2 L542.7,338.2 L545.3,338.2 L547.9,338.2 L550.5,338.2 L553.1,338.2 L555.7,338.2 L558.3,338.2 L560.9,338.2 L563.5,338.2 L566.1,338.2 L568.7,338.2 L571.3,338.2 L573.9,338.2 L576.5,338.2 L579.1,338.2 L581.7,338.2 L584.2,338.2 L586.8,338.2 L589.4,338.2 " fill="none"/></g>
<g clip-path="url(#plot_window)" stroke="rgb(127,255,0)" stroke-width="1"><path d="M70.2,338.2 L72.8,337.6 L75.39,336.9 L77.99,336.3 L80.58,335.7 L83.18,335.1 L85.78,334.4 L88.37,333.8 L90.97,333.2 L93.57,332.6 L96.16,331.9 L98.76,331.3 L101.4,330.7 L104,330 L106.5,329.4 L109.1,328.8 L111.7,328.2 L114.3,327.5 L116.9,326.9 L119.5,326.3 L122.1,325.6 L124.7,325 L127.3,324.4 L129.9,323.8 L132.5,323.1 L135.1,322.5 L137.7,321.9 L140.3,321.3 L142.9,320.6 L145.5,320 L148.1,319.4 L150.7,318.7 L153.3,318.1 L155.9,317.5 L158.5,316.9 L161.1,316.2 L163.7,315.6 L166.3,315 L168.9,314.3 L171.5,313.7 L174,313.1 L176.6,312.5 L179.2,311.8 L181.8,311.2 L184.4,310.6 L187,310 L189.6,309.3 L192.2,308.7 L194.8,308.1 L197.4,307.4 L200,306.8 L202.6,306.2 L205.2,305.6 L207.8,304.9 L210.4,304.3 L213,303.7 L215.6,303 L218.2,302.4 L220.8,301.8 L223.4,301.2 L226,300.5 L228.6,299.9 L231.2,299.3 L233.8,298.7 L236.4,298 L239,297.4 L241.5,296.8 L244.1,296.1 L246.7,295.5 L249.3,294.9 L251.9,294.3 L254.5,293.6 L257.1,293 L259.7,292.4 L262.3,291.7 L264.9,291.1 L267.5,290.5 L270.1,289.9 L272.7,289.2 L275.3,288.6 L277.9,288 L280.5,288.4 L283.1,288.8 L285.7,289.2 L288.3,289.7 L290.9,290.1 L293.5,290.5 L296.1,290.9 L298.7,291.3 L301.3,291.7 L303.9,292.2 L306.5,292.6 L309.1,293 L311.6,293.4 L314.2,293.8 L316.8,294.3 L319.4,294.7 L322,295.1 L324.6,295.5 L327.2,295.9 L329.8,296.4 L332.4,296.8 L335,297.2 L337.6,297.6 L340.2,298 L342.8,298.4 L345.4,298.9 L348,299.3 L350.6,299.7 L353.2,300.1 L355.8,300.5 L358.4,301 L361,301.4 L363.6,301.8 L366.2,302.2 L368.8,302.6 L371.4,303 L374,303.5 L376.6,303.9 L379.1,304.3 L381.7,304.7 L384.3,305.1 L386.9,305.6 L389.5,306 L392.1,306.4 L394.7,306.8 L397.3,307.2 L399.9,307.7 L402.5,308.1 L405.1,308.5 L407.7,308.9 L410.3,309.3 L412.9,309.7 L415.5,310.2 L418.1,310.6 L420.7,311 L423.3,311.4 L425.9,311.8 L428.5,312.3 L431.1,312.7 L433.7,313.1 L436.3,313.5 L438.9,313.9 L441.5,314.3 L444.1,314.8 L446.6,315.2 L449.2,315.6 L451.8,316 L454.4,316.4 L457,316.9 L459.6,317.3 L462.2,317.7 L464.8,318.1 L467.4,318.5 L470,318.9 L472.6,319.4 L475.2,319.8 L477.8,320.2 L480.4,320.6 L483,321 L485.6,321.5 L488.2,321.9 L490.8,322.3 L493.4,322.7 L496,323.1 L498.6,323.6 L501.2,324 L503.8,324.4 L506.4,324.8 L509,325.2 L511.6,325.6 L514.2,326.1 L516.7,326.5 L519.3,326.9 L521.9,327.3 L524.5,327.7 L527.1,328.2 L529.7,328.6 L532.3,329 L534.9,329.4 L537.5,329.8 L540.1,330.2 L542.7,330.7 L545.3,331.1 L547.9,331.5 L550.5,331.9 L553.1,332.3 L555.7,332.8 L558.3,333.2 L560.9,333.6 L563.5,334 L566.1,334.4 L568.7,334.9 L571.3,335.3 L573.9,335.7 L576.5,336.1 L579.1,336.5 L581.7,336.9 L584.2,337.4 L586.8,337.8 L589.4,338.2 " fill="none"/></g>
</g>
<g id="plotPoints" clip-path="url(#plot_window)"><g stroke="rgb(0,0,0)"></g>
<g stroke="rgb(0,0,0)"></g>
<g stroke="rgb(0,0,0)"></g>
<g stroke="rgb(0,0,0)"></g>
<g stroke="rgb(0,0,0)"></g>
</g>
<g id="limitPoints" stroke="rgb(119,136,153)" fill="rgb(250,235,215)"></g>
<g id="legendBackground" stroke="rgb(119,136,153)" fill="rgb(255,255,255)" stroke-width="1"><rect x="603.4" y="62" width="134.6" height="165"/><rect x="603.4" y="62" width="134.6" height="165"/></g>
<g id="legendPoints"><g stroke="rgb(0,0,139)" stroke-width="1"><line x1="618.4" y1="92" x2="633.4" y2="92"/></g>
<g stroke="rgb(139,0,0)" stroke-width="1"><line x1="618.4" y1="122" x2="633.4" y2="122"/></g>
<g stroke="rgb(0,100,0)" stroke-width="1"><line x1="618.4" y1="152" x2="633.4" y2="152"/></g>
<g stroke="rgb(255,140,0)" stroke-width="1"><line x1="618.4" y1="182" x2="633.4" y2="182"/></g>
<g stroke="rgb(127,255,0)" stroke-width="1"><line x1="618.4" y1="212" x2="633.4" y2="212"/></g>
</g>
<g id="legendText">
<text x="640.9" y="92" font-size="15" font-family="Verdana">{-1,0,1}</text>
<text x="640.9" y="122" font-size="15" font-family="Verdana">{0,1,1}</text>
<text x="640.9" y="152" font-size="15" font-family="Verdana">{0,1,3}</text>
<text x="640.9" y="182" font-size="15" font-family="Verdana">{0,0.5,1}</text>
<text x="640.9" y="212" font-size="15" font-family="Verdana">{-2,0,3}</text></g>
<g id="title">
<text x="375" y="40" text-anchor="middle" font-size="20" font-family="Verdana">Triangular Distribution PDF</text></g>
</svg>
