<?xml version="1.0" encoding="UTF-8" standalone="no"?>
<svg width="750" height ="400" version="1.1" xmlns="http://www.w3.org/2000/svg"
 xmlns:xlink="http://www.w3.org/1999/xlink"
 xmlns:ev="http://www.w3.org/2001/xml-events">

<!-- SVG plot written using Boost.Plot program (Creator Jacob Voytko) --> 
<!-- Use, modification and distribution of Boost.Plot subject to the --> 
<!-- Boost Software License, Version 1.0.--> 
<!-- (See accompanying file LICENSE_1_0.txt --> 
<!-- or copy at http://www.boost.org/LICENSE_1_0.txt) --> 

<clipPath id="plot_window"><rect x="71.2" y="63" width="517.2" height="274.2"/></clipPath>
<g id="imageBackground" stroke="rgb(119,136,153)" fill="rgb(255,255,255)" stroke-width="2"><rect x="0" y="0" width="750" height="400"/></g>
<g id="plotBackground" stroke="rgb(119,136,153)" fill="rgb(255,255,255)" stroke-width="2"><rect x="70.2" y="62" width="519.2" height="276.2"/></g>
<g id="yMinorGrid" stroke="rgb(200,220,255)" stroke-width="0.5"></g>
<g id="yMajorGrid" stroke="rgb(200,220,255)" stroke-width="1"></g>
<g id="xMinorGrid" stroke="rgb(200,220,255)" stroke-width="0.5"></g>
<g id="xMajorGrid" stroke="rgb(200,220,255)" stroke-width="1"></g>
<g id="yAxis" stroke="rgb(0,0,0)" stroke-width="1"><line x1="277.9" y1="62" x2="277.9" y2="343.2"/><line x1="70.2" y1="62" x2="70.2" y2="338.2"/></g>
<g id="xAxis" stroke="rgb(0,0,0)" stroke-width="1"><line x1="65.2" y1="338.2" x2="589.4" y2="338.2"/><line x1="65.2" y1="338.2" x2="589.4" y2="338.2"/></g>
<g id="yMinorTicks" stroke="rgb(0,0,0)" stroke-width="1"><path d="M68.2,333.2 L70.2,333.2 M68.2,328.2 L70.2,328.2 M68.2,323.1 L70.2,323.1 M68.2,318.1 L70.2,318.1 M68.2,308.1 L70.2,308.1 M68.2,303 L70.2,303 M68.2,298 L70.2,298 M68.2,293 L70.2,293 M68.2,283 L70.2,283 M68.2,277.9 L70.2,277.9 M68.2,272.9 L70.2,272.9 M68.2,267.9 L70.2,267.9 M68.2,257.9 L70.2,257.9 M68.2,252.8 L70.2,252.8 M68.2,247.8 L70.2,247.8 M68.2,242.8 L70.2,242.8 M68.2,232.7 L70.2,232.7 M68.2,227.7 L70.2,227.7 M68.2,222.7 L70.2,222.7 M68.2,217.7 L70.2,217.7 M68.2,207.6 L70.2,207.6 M68.2,202.6 L70.2,202.6 M68.2,197.6 L70.2,197.6 M68.2,192.6 L70.2,192.6 M68.2,182.5 L70.2,182.5 M68.2,177.5 L70.2,177.5 M68.2,172.5 L70.2,172.5 M68.2,167.5 L70.2,167.5 M68.2,157.4 L70.2,157.4 M68.2,152.4 L70.2,152.4 M68.2,147.4 L70.2,147.4 M68.2,142.3 L70.2,142.3 M68.2,132.3 L70.2,132.3 M68.2,127.3 L70.2,127.3 M68.2,122.3 L70.2,122.3 M68.2,117.2 L70.2,117.2 M68.2,107.2 L70.2,107.2 M68.2,102.2 L70.2,102.2 M68.2,97.15 L70.2,97.15 M68.2,92.13 L70.2,92.13 M68.2,82.09 L70.2,82.09 M68.2,77.07 L70.2,77.07 M68.2,72.04 L70.2,72.04 M68.2,67.02 L70.2,67.02 M68.2,338.2 L70.2,338.2 "/></g>
<g id="xMinorTicks" stroke="rgb(0,0,0)" stroke-width="1"><path d="M298.7,338.2 L298.7,340.2 M319.4,338.2 L319.4,340.2 M340.2,338.2 L340.2,340.2 M361,338.2 L361,340.2 M402.5,338.2 L402.5,340.2 M423.3,338.2 L423.3,340.2 M444.1,338.2 L444.1,340.2 M464.8,338.2 L464.8,340.2 M506.4,338.2 L506.4,340.2 M527.1,338.2 L527.1,340.2 M547.9,338.2 L547.9,340.2 M568.7,338.2 L568.7,340.2 M257.1,338.2 L257.1,340.2 M236.4,338.2 L236.4,340.2 M215.6,338.2 L215.6,340.2 M194.8,338.2 L194.8,340.2 M153.3,338.2 L153.3,340.2 M132.5,338.2 L132.5,340.2 M111.7,338.2 L111.7,340.2 M90.97,338.2 L90.97,340.2 "/></g>
<g id="yMajorTicks" stroke="rgb(0,0,0)" stroke-width="2"><path d="M65.2,338.2 L70.2,338.2 M65.2,313.1 L70.2,313.1 M65.2,288 L70.2,288 M65.2,262.9 L70.2,262.9 M65.2,237.8 L70.2,237.8 M65.2,212.7 L70.2,212.7 M65.2,187.5 L70.2,187.5 M65.2,162.4 L70.2,162.4 M65.2,137.3 L70.2,137.3 M65.2,112.2 L70.2,112.2 M65.2,87.11 L70.2,87.11 M65.2,62 L70.2,62 M65.2,338.2 L70.2,338.2 "/></g>
<g id="xMajorTicks" stroke="rgb(0,0,0)" stroke-width="2"><path d="M277.9,338.2 L277.9,343.2 M381.7,338.2 L381.7,343.2 M485.6,338.2 L485.6,343.2 M589.4,338.2 L589.4,343.2 M277.9,338.2 L277.9,343.2 M174,338.2 L174,343.2 M70.2,338.2 L70.2,343.2 "/></g>
<g id="plotLabels">
<text x="277.9" y="357.6" text-anchor="middle" font-size="12" font-family="Verdana">0</text>
<text x="381.7" y="357.6" text-anchor="middle" font-size="12" font-family="Verdana">1</text>
<text x="485.6" y="357.6" text-anchor="middle" font-size="12" font-family="Verdana">2</text>
<text x="589.4" y="357.6" text-anchor="middle" font-size="12" font-family="Verdana">3</text>
<text x="277.9" y="357.6" text-anchor="middle" font-size="12" font-family="Verdana">0</text>
<text x="174" y="357.6" text-anchor="middle" font-size="12" font-family="Verdana">-1</text>
<text x="70.2" y="357.6" text-anchor="middle" font-size="12" font-family="Verdana">-2</text>
<text x="59.2" y="340.6" text-anchor="end" font-size="12" font-family="Verdana">0</text>
<text x="59.2" y="315.5" text-anchor="end" font-size="12" font-family="Verdana">0.1</text>
<text x="59.2" y="290.4" text-anchor="end" font-size="12" font-family="Verdana">0.2</text>
<text x="59.2" y="265.3" text-anchor="end" font-size="12" font-family="Verdana">0.3</text>
<text x="59.2" y="240.2" text-anchor="end" font-size="12" font-family="Verdana">0.4</text>
<text x="59.2" y="215.1" text-anchor="end" font-size="12" font-family="Verdana">0.5</text>
<text x="59.2" y="189.9" text-anchor="end" font-size="12" font-family="Verdana">0.6</text>
<text x="59.2" y="164.8" text-anchor="end" font-size="12" font-family="Verdana">0.7</text>
<text x="59.2" y="139.7" text-anchor="end" font-size="12" font-family="Verdana">0.8</text>
<text x="59.2" y="114.6" text-anchor="end" font-size="12" font-family="Verdana">0.9</text>
<text x="59.2" y="89.51" text-anchor="end" font-size="12" font-family="Verdana">1</text>
<text x="59.2" y="64.4" text-anchor="end" font-size="12" font-family="Verdana">1.1</text>
<text x="59.2" y="340.6" text-anchor="end" font-size="12" font-family="Verdana">0</text></g>
<g id="yLabel">
<text x="30.2" y="200.1" text-anchor="middle" transform = "rotate(-90 30.2 200.1 )" font-size="14" font-family="Verdana">Probability</text></g>
<g id="xLabel">
<text x="329.8" y="384" text-anchor="middle" font-size="14" font-family="Verdana">Random Variable</text></g>
<g id="plotLines" stroke-width="2"><g clip-path="url(#plot_window)" stroke="rgb(0,0,139)" stroke-width="1"><path d="M70.2,338.2 L72.8,338.2 L75.39,338.2 L77.99,338.2 L80.58,338.2 L83.18,338.2 L85.78,338.2 L88.37,338.2 L90.97,338.2 L93.57,338.2 L96.16,338.2 L98.76,338.2 L101.4,338.2 L104,338.2 L106.5,338.2 L109.1,338.2 L111.7,338.2 L114.3,338.2 L116.9,338.2 L119.5,338.2 L122.1,338.2 L124.7,338.2 L127.3,338.2 L129.9,338.2 L132.5,338.2 L135.1,338.2 L137.7,338.2 L140.3,338.2 L142.9,338.2 L145.5,338.2 L148.1,338.2 L150.7,338.2 L153.3,338.2 L155.9,338.2 L158.5,338.2 L161.1,338.2 L163.7,338.2 L166.3,338.2 L168.9,338.2 L171.5,338.2 L174,338.2 L176.6,338.1 L179.2,337.9 L181.8,337.5 L184.4,336.9 L187,336.2 L189.6,335.4 L192.2,334.4 L194.8,333.2 L197.4,331.8 L200,330.4 L202.6,328.7 L205.2,326.9 L207.8,324.9 L210.4,322.8 L213,320.5 L215.6,318.1 L218.2,315.5 L220.8,312.8 L223.4,309.9 L226,306.8 L228.6,303.6 L231.2,300.2 L233.8,296.7 L236.4,293 L239,289.2 L241.5,285.2 L244.1,281 L246.7,276.7 L249.3,272.2 L251.9,267.6 L254.5,262.8 L257.1,257.9 L259.7,252.8 L262.3,247.5 L264.9,242.1 L267.5,236.5 L270.1,230.8 L272.7,224.9 L275.3,218.9 L277.9,212.7 L280.5,206.5 L283.1,200.4 L285.7,194.5 L288.3,188.8 L290.9,183.2 L293.5,177.8 L296.1,172.6 L298.7,167.5 L301.3,162.5 L303.9,157.7 L306.5,153.1 L309.1,148.6 L311.6,144.3 L314.2,140.2 L316.8,136.2 L319.4,132.3 L322,128.6 L324.6,125.1 L327.2,121.7 L329.8,118.5 L332.4,115.4 L335,112.5 L337.6,109.8 L340.2,107.2 L342.8,104.8 L345.4,102.5 L348,100.4 L350.6,98.41 L353.2,96.6 L355.8,94.96 L358.4,93.46 L361,92.13 L363.6,90.95 L366.2,89.93 L368.8,89.07 L371.4,88.36 L374,87.82 L376.6,87.42 L379.1,87.19 L381.7,87.11 L384.3,87.11 L386.9,87.11 L389.5,87.11 L392.1,87.11 L394.7,87.11 L397.3,87.11 L399.9,87.11 L402.5,87.11 L405.1,87.11 L407.7,87.11 L410.3,87.11 L412.9,87.11 L415.5,87.11 L418.1,87.11 L420.7,87.11 L423.3,87.11 L425.9,87.11 L428.5,87.11 L431.1,87.11 L433.7,87.11 L436.3,87.11 L438.9,87.11 L441.5,87.11 L444.1,87.11 L446.6,87.11 L449.2,87.11 L451.8,87.11 L454.4,87.11 L457,87.11 L459.6,87.11 L462.2,87.11 L464.8,87.11 L467.4,87.11 L470,87.11 L472.6,87.11 L475.2,87.11 L477.8,87.11 L480.4,87.11 L483,87.11 L485.6,87.11 L488.2,87.11 L490.8,87.11 L493.4,87.11 L496,87.11 L498.6,87.11 L501.2,87.11 L503.8,87.11 L506.4,87.11 L509,87.11 L511.6,87.11 L514.2,87.11 L516.7,87.11 L519.3,87.11 L521.9,87.11 L524.5,87.11 L527.1,87.11 L529.7,87.11 L532.3,87.11 L534.9,87.11 L537.5,87.11 L540.1,87.11 L542.7,87.11 L545.3,87.11 L547.9,87.11 L550.5,87.11 L553.1,87.11 L555.7,87.11 L558.3,87.11 L560.9,87.11 L563.5,87.11 L566.1,87.11 L568.7,87.11 L571.3,87.11 L573.9,87.11 L576.5,87.11 L579.1,87.11 L581.7,87.11 L584.2,87.11 L586.8,87.11 L589.4,87.11 " fill="none"/></g>
<g clip-path="url(#plot_window)" stroke="rgb(139,0,0)" stroke-width="1"><path d="M70.2,338.2 L72.8,338.2 L75.39,338.2 L77.99,338.2 L80.58,338.2 L83.18,338.2 L85.78,338.2 L88.37,338.2 L90.97,338.2 L93.57,338.2 L96.16,338.2 L98.76,338.2 L101.4,338.2 L104,338.2 L106.5,338.2 L109.1,338.2 L111.7,338.2 L114.3,338.2 L116.9,338.2 L119.5,338.2 L122.1,338.2 L124.7,338.2 L127.3,338.2 L129.9,338.2 L132.5,338.2 L135.1,338.2 L137.7,338.2 L140.3,338.2 L142.9,338.2 L145.5,338.2 L148.1,338.2 L150.7,338.2 L153.3,338.2 L155.9,338.2 L158.5,338.2 L161.1,338.2 L163.7,338.2 L166.3,338.2 L168.9,338.2 L171.5,338.2 L174,338.2 L176.6,338.2 L179.2,338.2 L181.8,338.2 L184.4,338.2 L187,338.2 L189.6,338.2 L192.2,338.2 L194.8,338.2 L197.4,338.2 L200,338.2 L202.6,338.2 L205.2,338.2 L207.8,338.2 L210.4,338.2 L213,338.2 L215.6,338.2 L218.2,338.2 L220.8,338.2 L223.4,338.2 L226,338.2 L228.6,338.2 L231.2,338.2 L233.8,338.2 L236.4,338.2 L239,338.2 L241.5,338.2 L244.1,338.2 L246.7,338.2 L249.3,338.2 L251.9,338.2 L254.5,338.2 L257.1,338.2 L259.7,338.2 L262.3,338.2 L264.9,338.2 L267.5,338.2 L270.1,338.2 L272.7,338.2 L275.3,338.2 L277.9,338.2 L280.5,338 L283.1,337.6 L285.7,336.8 L288.3,335.7 L290.9,334.3 L293.5,332.6 L296.1,330.5 L298.7,328.2 L301.3,325.5 L303.9,322.5 L306.5,319.2 L309.1,315.6 L311.6,311.7 L314.2,307.4 L316.8,302.9 L319.4,298 L322,292.8 L324.6,287.4 L327.2,281.5 L329.8,275.4 L332.4,269 L335,262.2 L337.6,255.2 L340.2,247.8 L342.8,240.1 L345.4,232.1 L348,223.8 L350.6,215.2 L353.2,206.2 L355.8,197 L358.4,187.4 L361,177.5 L363.6,167.3 L366.2,156.8 L368.8,146 L371.4,134.8 L374,123.4 L376.6,111.6 L379.1,99.51 L381.7,87.11 L384.3,87.11 L386.9,87.11 L389.5,87.11 L392.1,87.11 L394.7,87.11 L397.3,87.11 L399.9,87.11 L402.5,87.11 L405.1,87.11 L407.7,87.11 L410.3,87.11 L412.9,87.11 L415.5,87.11 L418.1,87.11 L420.7,87.11 L423.3,87.11 L425.9,87.11 L428.5,87.11 L431.1,87.11 L433.7,87.11 L436.3,87.11 L438.9,87.11 L441.5,87.11 L444.1,87.11 L446.6,87.11 L449.2,87.11 L451.8,87.11 L454.4,87.11 L457,87.11 L459.6,87.11 L462.2,87.11 L464.8,87.11 L467.4,87.11 L470,87.11 L472.6,87.11 L475.2,87.11 L477.8,87.11 L480.4,87.11 L483,87.11 L485.6,87.11 L488.2,87.11 L490.8,87.11 L493.4,87.11 L496,87.11 L498.6,87.11 L501.2,87.11 L503.8,87.11 L506.4,87.11 L509,87.11 L511.6,87.11 L514.2,87.11 L516.7,87.11 L519.3,87.11 L521.9,87.11 L524.5,87.11 L527.1,87.11 L529.7,87.11 L532.3,87.11 L534.9,87.11 L537.5,87.11 L540.1,87.11 L542.7,87.11 L545.3,87.11 L547.9,87.11 L550.5,87.11 L553.1,87.11 L555.7,87.11 L558.3,87.11 L560.9,87.11 L563.5,87.11 L566.1,87.11 L568.7,87.11 L571.3,87.11 L573.9,87.11 L576.5,87.11 L579.1,87.11 L581.7,87.11 L584.2,87.11 L586.8,87.11 L589.4,87.11 " fill="none"/></g>
<g clip-path="url(#plot_window)" stroke="rgb(0,100,0)" stroke-width="1"><path d="M70.2,338.2 L72.8,338.2 L75.39,338.2 L77.99,338.2 L80.58,338.2 L83.18,338.2 L85.78,338.2 L88.37,338.2 L90.97,338.2 L93.57,338.2 L96.16,338.2 L98.76,338.2 L101.4,338.2 L104,338.2 L106.5,338.2 L109.1,338.2 L111.7,338.2 L114.3,338.2 L116.9,338.2 L119.5,338.2 L122.1,338.2 L124.7,338.2 L127.3,338.2 L129.9,338.2 L132.5,338.2 L135.1,338.2 L137.7,338.2 L140.3,338.2 L142.9,338.2 L145.5,338.2 L148.1,338.2 L150.7,338.2 L153.3,338.2 L155.9,338.2 L158.5,338.2 L161.1,338.2 L163.7,338.2 L166.3,338.2 L168.9,338.2 L171.5,338.2 L174,338.2 L176.6,338.2 L179.2,338.2 L181.8,338.2 L184.4,338.2 L187,338.2 L189.6,338.2 L192.2,338.2 L194.8,338.2 L197.4,338.2 L200,338.2 L202.6,338.2 L205.2,338.2 L207.8,338.2 L210.4,338.2 L213,338.2 L215.6,338.2 L218.2,338.2 L220.8,338.2 L223.4,338.2 L226,338.2 L228.6,338.2 L231.2,338.2 L233.8,338.2 L236.4,338.2 L239,338.2 L241.5,338.2 L244.1,338.2 L246.7,338.2 L249.3,338.2 L251.9,338.2 L254.5,338.2 L257.1,338.2 L259.7,338.2 L262.3,338.2 L264.9,338.2 L267.5,338.2 L270.1,338.2 L272.7,338.2 L275.3,338.2 L277.9,338.2 L280.5,338.1 L283.1,338 L285.7,337.7 L288.3,337.4 L290.9,336.9 L293.5,336.3 L296.1,335.6 L298.7,334.9 L301.3,334 L303.9,333 L306.5,331.9 L309.1,330.7 L311.6,329.4 L314.2,327.9 L316.8,326.4 L319.4,324.8 L322,323.1 L324.6,321.3 L327.2,319.3 L329.8,317.3 L332.4,315.1 L335,312.9 L337.6,310.5 L340.2,308.1 L342.8,305.5 L345.4,302.8 L348,300.1 L350.6,297.2 L353.2,294.2 L355.8,291.1 L358.4,287.9 L361,284.6 L363.6,281.2 L366.2,277.7 L368.8,274.1 L371.4,270.4 L374,266.6 L376.6,262.7 L379.1,258.6 L381.7,254.5 L384.3,250.3 L386.9,246.2 L389.5,242.2 L392.1,238.2 L394.7,234.2 L397.3,230.3 L399.9,226.5 L402.5,222.7 L405.1,219 L407.7,215.3 L410.3,211.6 L412.9,208.1 L415.5,204.5 L418.1,201 L420.7,197.6 L423.3,194.2 L425.9,190.9 L428.5,187.7 L431.1,184.4 L433.7,181.3 L436.3,178.2 L438.9,175.1 L441.5,172.1 L444.1,169.1 L446.6,166.2 L449.2,163.4 L451.8,160.6 L454.4,157.8 L457,155.1 L459.6,152.5 L462.2,149.9 L464.8,147.4 L467.4,144.9 L470,142.5 L472.6,140.1 L475.2,137.7 L477.8,135.5 L480.4,133.2 L483,131.1 L485.6,129 L488.2,126.9 L490.8,124.9 L493.4,122.9 L496,121 L498.6,119.1 L501.2,117.3 L503.8,115.6 L506.4,113.9 L509,112.2 L511.6,110.6 L514.2,109.1 L516.7,107.6 L519.3,106.2 L521.9,104.8 L524.5,103.5 L527.1,102.2 L529.7,100.9 L532.3,99.77 L534.9,98.64 L537.5,97.57 L540.1,96.55 L542.7,95.58 L545.3,94.67 L547.9,93.8 L550.5,92.99 L553.1,92.24 L555.7,91.53 L558.3,90.88 L560.9,90.27 L563.5,89.72 L566.1,89.23 L568.7,88.78 L571.3,88.39 L573.9,88.05 L576.5,87.76 L579.1,87.53 L581.7,87.34 L584.2,87.21 L586.8,87.14 L589.4,87.11 " fill="none"/></g>
<g clip-path="url(#plot_window)" stroke="rgb(255,140,0)" stroke-width="1"><path d="M70.2,338.2 L72.8,338.2 L75.39,338.2 L77.99,338.2 L80.58,338.2 L83.18,338.2 L85.78,338.2 L88.37,338.2 L90.97,338.2 L93.57,338.2 L96.16,338.2 L98.76,338.2 L101.4,338.2 L104,338.2 L106.5,338.2 L109.1,338.2 L111.7,338.2 L114.3,338.2 L116.9,338.2 L119.5,338.2 L122.1,338.2 L124.7,338.2 L127.3,338.2 L129.9,338.2 L132.5,338.2 L135.1,338.2 L137.7,338.2 L140.3,338.2 L142.9,338.2 L145.5,338.2 L148.1,338.2 L150.7,338.2 L153.3,338.2 L155.9,338.2 L158.5,338.2 L161.1,338.2 L163.7,338.2 L166.3,338.2 L168.9,338.2 L171.5,338.2 L174,338.2 L176.6,338.2 L179.2,338.2 L181.8,338.2 L184.4,338.2 L187,338.2 L189.6,338.2 L192.2,338.2 L194.8,338.2 L197.4,338.2 L200,338.2 L202.6,338.2 L205.2,338.2 L207.8,338.2 L210.4,338.2 L213,338.2 L215.6,338.2 L218.2,338.2 L220.8,338.2 L223.4,338.2 L226,338.2 L228.6,338.2 L231.2,338.2 L233.8,338.2 L236.4,338.2 L239,338.2 L241.5,338.2 L244.1,338.2 L246.7,338.2 L249.3,338.2 L251.9,338.2 L254.5,338.2 L257.1,338.2 L259.7,338.2 L262.3,338.2 L264.9,338.2 L267.5,338.2 L270.1,338.2 L272.7,338.2 L275.3,338.2 L277.9,338.2 L280.5,337.9 L283.1,336.9 L285.7,335.4 L288.3,333.2 L290.9,330.4 L293.5,326.9 L296.1,322.8 L298.7,318.1 L301.3,312.8 L303.9,306.8 L306.5,300.2 L309.1,293 L311.6,285.2 L314.2,276.7 L316.8,267.6 L319.4,257.9 L322,247.5 L324.6,236.5 L327.2,224.9 L329.8,212.7 L332.4,200.4 L335,188.8 L337.6,177.8 L340.2,167.5 L342.8,157.7 L345.4,148.6 L348,140.2 L350.6,132.3 L353.2,125.1 L355.8,118.5 L358.4,112.5 L361,107.2 L363.6,102.5 L366.2,98.41 L368.8,94.96 L371.4,92.13 L374,89.93 L376.6,88.36 L379.1,87.42 L381.7,87.11 L384.3,87.11 L386.9,87.11 L389.5,87.11 L392.1,87.11 L394.7,87.11 L397.3,87.11 L399.9,87.11 L402.5,87.11 L405.1,87.11 L407.7,87.11 L410.3,87.11 L412.9,87.11 L415.5,87.11 L418.1,87.11 L420.7,87.11 L423.3,87.11 L425.9,87.11 L428.5,87.11 L431.1,87.11 L433.7,87.11 L436.3,87.11 L438.9,87.11 L441.5,87.11 L444.1,87.11 L446.6,87.11 L449.2,87.11 L451.8,87.11 L454.4,87.11 L457,87.11 L459.6,87.11 L462.2,87.11 L464.8,87.11 L467.4,87.11 L470,87.11 L472.6,87.11 L475.2,87.11 L477.8,87.11 L480.4,87.11 L483,87.11 L485.6,87.11 L488.2,87.11 L490.8,87.11 L493.4,87.11 L496,87.11 L498.6,87.11 L501.2,87.11 L503.8,87.11 L506.4,87.11 L509,87.11 L511.6,87.11 L514.2,87.11 L516.7,87.11 L519.3,87.11 L521.9,87.11 L524.5,87.11 L527.1,87.11 L529.7,87.11 L532.3,87.11 L534.9,87.11 L537.5,87.11 L540.1,87.11 L542.7,87.11 L545.3,87.11 L547.9,87.11 L550.5,87.11 L553.1,87.11 L555.7,87.11 L558.3,87.11 L560.9,87.11 L563.5,87.11 L566.1,87.11 L568.7,87.11 L571.3,87.11 L573.9,87.11 L576.5,87.11 L579.1,87.11 L581.7,87.11 L584.2,87.11 L586.8,87.11 L589.4,87.11 " fill="none"/></g>
<g clip-path="url(#plot_window)" stroke="rgb(127,255,0)" stroke-width="1"><path d="M70.2,338.2 L72.8,338.2 L75.39,338.1 L77.99,338.1 L80.58,337.9 L83.18,337.8 L85.78,337.6 L88.37,337.4 L90.97,337.2 L93.57,336.9 L96.16,336.6 L98.76,336.3 L101.4,335.9 L104,335.5 L106.5,335.1 L109.1,334.7 L111.7,334.2 L114.3,333.7 L116.9,333.1 L119.5,332.5 L122.1,331.9 L124.7,331.3 L127.3,330.6 L129.9,329.9 L132.5,329.2 L135.1,328.4 L137.7,327.6 L140.3,326.8 L142.9,325.9 L145.5,325 L148.1,324.1 L150.7,323.1 L153.3,322.1 L155.9,321.1 L158.5,320.1 L161.1,319 L163.7,317.9 L166.3,316.7 L168.9,315.5 L171.5,314.3 L174,313.1 L176.6,311.8 L179.2,310.5 L181.8,309.2 L184.4,307.8 L187,306.4 L189.6,305 L192.2,303.5 L194.8,302 L197.4,300.5 L200,299 L202.6,297.4 L205.2,295.8 L207.8,294.1 L210.4,292.4 L213,290.7 L215.6,289 L218.2,287.2 L220.8,285.4 L223.4,283.6 L226,281.7 L228.6,279.8 L231.2,277.9 L233.8,275.9 L236.4,273.9 L239,271.9 L241.5,269.8 L244.1,267.8 L246.7,265.6 L249.3,263.5 L251.9,261.3 L254.5,259.1 L257.1,256.8 L259.7,254.6 L262.3,252.3 L264.9,249.9 L267.5,247.6 L270.1,245.2 L272.7,242.7 L275.3,240.3 L277.9,237.8 L280.5,235.3 L283.1,232.8 L285.7,230.3 L288.3,227.9 L290.9,225.5 L293.5,223.1 L296.1,220.7 L298.7,218.3 L301.3,216 L303.9,213.7 L306.5,211.4 L309.1,209.1 L311.6,206.9 L314.2,204.7 L316.8,202.5 L319.4,200.3 L322,198.1 L324.6,196 L327.2,193.8 L329.8,191.7 L332.4,189.6 L335,187.6 L337.6,185.5 L340.2,183.5 L342.8,181.5 L345.4,179.6 L348,177.6 L350.6,175.7 L353.2,173.7 L355.8,171.9 L358.4,170 L361,168.1 L363.6,166.3 L366.2,164.5 L368.8,162.7 L371.4,160.9 L374,159.2 L376.6,157.5 L379.1,155.8 L381.7,154.1 L384.3,152.4 L386.9,150.8 L389.5,149.1 L392.1,147.5 L394.7,146 L397.3,144.4 L399.9,142.9 L402.5,141.3 L405.1,139.8 L407.7,138.4 L410.3,136.9 L412.9,135.5 L415.5,134.1 L418.1,132.7 L420.7,131.3 L423.3,130 L425.9,128.6 L428.5,127.3 L431.1,126 L433.7,124.8 L436.3,123.5 L438.9,122.3 L441.5,121.1 L444.1,119.9 L446.6,118.8 L449.2,117.6 L451.8,116.5 L454.4,115.4 L457,114.3 L459.6,113.3 L462.2,112.2 L464.8,111.2 L467.4,110.2 L470,109.2 L472.6,108.3 L475.2,107.4 L477.8,106.5 L480.4,105.6 L483,104.7 L485.6,103.8 L488.2,103 L490.8,102.2 L493.4,101.4 L496,100.7 L498.6,99.93 L501.2,99.2 L503.8,98.5 L506.4,97.82 L509,97.16 L511.6,96.53 L514.2,95.91 L516.7,95.31 L519.3,94.74 L521.9,94.18 L524.5,93.65 L527.1,93.14 L529.7,92.64 L532.3,92.17 L534.9,91.72 L537.5,91.29 L540.1,90.89 L542.7,90.5 L545.3,90.13 L547.9,89.79 L550.5,89.46 L553.1,89.16 L555.7,88.88 L558.3,88.62 L560.9,88.38 L563.5,88.16 L566.1,87.96 L568.7,87.78 L571.3,87.62 L573.9,87.49 L576.5,87.37 L579.1,87.28 L581.7,87.2 L584.2,87.15 L586.8,87.12 L589.4,87.11 " fill="none"/></g>
</g>
<g id="plotPoints" clip-path="url(#plot_window)"><g stroke="rgb(0,0,0)"></g>
<g stroke="rgb(0,0,0)"></g>
<g stroke="rgb(0,0,0)"></g>
<g stroke="rgb(0,0,0)"></g>
<g stroke="rgb(0,0,0)"></g>
</g>
<g id="limitPoints" stroke="rgb(119,136,153)" fill="rgb(250,235,215)"></g>
<g id="legendBackground" stroke="rgb(119,136,153)" fill="rgb(255,255,255)" stroke-width="1"><rect x="603.4" y="62" width="134.6" height="165"/><rect x="603.4" y="62" width="134.6" height="165"/></g>
<g id="legendPoints"><g stroke="rgb(0,0,139)" stroke-width="1"><line x1="618.4" y1="92" x2="633.4" y2="92"/></g>
<g stroke="rgb(139,0,0)" stroke-width="1"><line x1="618.4" y1="122" x2="633.4" y2="122"/></g>
<g stroke="rgb(0,100,0)" stroke-width="1"><line x1="618.4" y1="152" x2="633.4" y2="152"/></g>
<g stroke="rgb(255,140,0)" stroke-width="1"><line x1="618.4" y1="182" x2="633.4" y2="182"/></g>
<g stroke="rgb(127,255,0)" stroke-width="1"><line x1="618.4" y1="212" x2="633.4" y2="212"/></g>
</g>
<g id="legendText">
<text x="640.9" y="92" font-size="15" font-family="Verdana">{-1,0,1}</text>
<text x="640.9" y="122" font-size="15" font-family="Verdana">{0,1,1}</text>
<text x="640.9" y="152" font-size="15" font-family="Verdana">{0,1,3}</text>
<text x="640.9" y="182" font-size="15" font-family="Verdana">{0,0.5,1}</text>
<text x="640.9" y="212" font-size="15" font-family="Verdana">{-2,0,3}</text></g>
<g id="title">
<text x="375" y="40" text-anchor="middle" font-size="20" font-family="Verdana">Triangular Distribution CDF</text></g>
</svg>
