<?xml version="1.0" encoding="UTF-8" standalone="no"?>
<svg width="750" height ="400" version="1.1" xmlns="http://www.w3.org/2000/svg"
 xmlns:xlink="http://www.w3.org/1999/xlink"
 xmlns:ev="http://www.w3.org/2001/xml-events">

<!-- SVG plot written using Boost.Plot program (Creator Jacob Voytko) --> 
<!-- Use, modification and distribution of Boost.Plot subject to the --> 
<!-- Boost Software License, Version 1.0.--> 
<!-- (See accompanying file LICENSE_1_0.txt --> 
<!-- or copy at http://www.boost.org/LICENSE_1_0.txt) --> 

<clipPath id="plot_window"><rect x="71.2" y="63" width="540.8" height="274.2"/></clipPath>
<g id="imageBackground" stroke="rgb(119,136,153)" fill="rgb(255,255,255)" stroke-width="2"><rect x="0" y="0" width="750" height="400"/></g>
<g id="plotBackground" stroke="rgb(119,136,153)" fill="rgb(255,255,255)" stroke-width="2"><rect x="70.2" y="62" width="542.8" height="276.2"/></g>
<g id="yMinorGrid" stroke="rgb(200,220,255)" stroke-width="0.5"></g>
<g id="yMajorGrid" stroke="rgb(200,220,255)" stroke-width="1"></g>
<g id="xMinorGrid" stroke="rgb(200,220,255)" stroke-width="0.5"></g>
<g id="xMajorGrid" stroke="rgb(200,220,255)" stroke-width="1"></g>
<g id="yAxis" stroke="rgb(0,0,0)" stroke-width="1"><line x1="287.3" y1="62" x2="287.3" y2="343.2"/><line x1="70.2" y1="62" x2="70.2" y2="338.2"/></g>
<g id="xAxis" stroke="rgb(0,0,0)" stroke-width="1"><line x1="65.2" y1="338.2" x2="613" y2="338.2"/><line x1="65.2" y1="338.2" x2="613" y2="338.2"/></g>
<g id="yMinorTicks" stroke="rgb(0,0,0)" stroke-width="1"><path d="M68.2,333.2 L70.2,333.2 M68.2,328.2 L70.2,328.2 M68.2,323.1 L70.2,323.1 M68.2,318.1 L70.2,318.1 M68.2,308.1 L70.2,308.1 M68.2,303 L70.2,303 M68.2,298 L70.2,298 M68.2,293 L70.2,293 M68.2,283 L70.2,283 M68.2,277.9 L70.2,277.9 M68.2,272.9 L70.2,272.9 M68.2,267.9 L70.2,267.9 M68.2,257.9 L70.2,257.9 M68.2,252.8 L70.2,252.8 M68.2,247.8 L70.2,247.8 M68.2,242.8 L70.2,242.8 M68.2,232.7 L70.2,232.7 M68.2,227.7 L70.2,227.7 M68.2,222.7 L70.2,222.7 M68.2,217.7 L70.2,217.7 M68.2,207.6 L70.2,207.6 M68.2,202.6 L70.2,202.6 M68.2,197.6 L70.2,197.6 M68.2,192.6 L70.2,192.6 M68.2,182.5 L70.2,182.5 M68.2,177.5 L70.2,177.5 M68.2,172.5 L70.2,172.5 M68.2,167.5 L70.2,167.5 M68.2,157.4 L70.2,157.4 M68.2,152.4 L70.2,152.4 M68.2,147.4 L70.2,147.4 M68.2,142.3 L70.2,142.3 M68.2,132.3 L70.2,132.3 M68.2,127.3 L70.2,127.3 M68.2,122.3 L70.2,122.3 M68.2,117.2 L70.2,117.2 M68.2,107.2 L70.2,107.2 M68.2,102.2 L70.2,102.2 M68.2,97.15 L70.2,97.15 M68.2,92.13 L70.2,92.13 M68.2,82.09 L70.2,82.09 M68.2,77.07 L70.2,77.07 M68.2,72.04 L70.2,72.04 M68.2,67.02 L70.2,67.02 M68.2,338.2 L70.2,338.2 "/></g>
<g id="xMinorTicks" stroke="rgb(0,0,0)" stroke-width="1"><path d="M309,338.2 L309,340.2 M330.7,338.2 L330.7,340.2 M352.4,338.2 L352.4,340.2 M374.1,338.2 L374.1,340.2 M417.6,338.2 L417.6,340.2 M439.3,338.2 L439.3,340.2 M461,338.2 L461,340.2 M482.7,338.2 L482.7,340.2 M526.1,338.2 L526.1,340.2 M547.8,338.2 L547.8,340.2 M569.5,338.2 L569.5,340.2 M591.2,338.2 L591.2,340.2 M265.6,338.2 L265.6,340.2 M243.9,338.2 L243.9,340.2 M222.2,338.2 L222.2,340.2 M200.5,338.2 L200.5,340.2 M157,338.2 L157,340.2 M135.3,338.2 L135.3,340.2 M113.6,338.2 L113.6,340.2 M91.91,338.2 L91.91,340.2 "/></g>
<g id="yMajorTicks" stroke="rgb(0,0,0)" stroke-width="2"><path d="M65.2,338.2 L70.2,338.2 M65.2,313.1 L70.2,313.1 M65.2,288 L70.2,288 M65.2,262.9 L70.2,262.9 M65.2,237.8 L70.2,237.8 M65.2,212.7 L70.2,212.7 M65.2,187.5 L70.2,187.5 M65.2,162.4 L70.2,162.4 M65.2,137.3 L70.2,137.3 M65.2,112.2 L70.2,112.2 M65.2,87.11 L70.2,87.11 M65.2,62 L70.2,62 M65.2,338.2 L70.2,338.2 "/></g>
<g id="xMajorTicks" stroke="rgb(0,0,0)" stroke-width="2"><path d="M287.3,338.2 L287.3,343.2 M395.9,338.2 L395.9,343.2 M504.4,338.2 L504.4,343.2 M613,338.2 L613,343.2 M287.3,338.2 L287.3,343.2 M178.8,338.2 L178.8,343.2 M70.2,338.2 L70.2,343.2 "/></g>
<g id="plotLabels">
<text x="287.3" y="357.6" text-anchor="middle" font-size="12" font-family="Verdana">0</text>
<text x="395.9" y="357.6" text-anchor="middle" font-size="12" font-family="Verdana">1</text>
<text x="504.4" y="357.6" text-anchor="middle" font-size="12" font-family="Verdana">2</text>
<text x="613" y="357.6" text-anchor="middle" font-size="12" font-family="Verdana">3</text>
<text x="287.3" y="357.6" text-anchor="middle" font-size="12" font-family="Verdana">0</text>
<text x="178.8" y="357.6" text-anchor="middle" font-size="12" font-family="Verdana">-1</text>
<text x="70.2" y="357.6" text-anchor="middle" font-size="12" font-family="Verdana">-2</text>
<text x="59.2" y="340.6" text-anchor="end" font-size="12" font-family="Verdana">0</text>
<text x="59.2" y="315.5" text-anchor="end" font-size="12" font-family="Verdana">0.1</text>
<text x="59.2" y="290.4" text-anchor="end" font-size="12" font-family="Verdana">0.2</text>
<text x="59.2" y="265.3" text-anchor="end" font-size="12" font-family="Verdana">0.3</text>
<text x="59.2" y="240.2" text-anchor="end" font-size="12" font-family="Verdana">0.4</text>
<text x="59.2" y="215.1" text-anchor="end" font-size="12" font-family="Verdana">0.5</text>
<text x="59.2" y="189.9" text-anchor="end" font-size="12" font-family="Verdana">0.6</text>
<text x="59.2" y="164.8" text-anchor="end" font-size="12" font-family="Verdana">0.7</text>
<text x="59.2" y="139.7" text-anchor="end" font-size="12" font-family="Verdana">0.8</text>
<text x="59.2" y="114.6" text-anchor="end" font-size="12" font-family="Verdana">0.9</text>
<text x="59.2" y="89.51" text-anchor="end" font-size="12" font-family="Verdana">1</text>
<text x="59.2" y="64.4" text-anchor="end" font-size="12" font-family="Verdana">1.1</text>
<text x="59.2" y="340.6" text-anchor="end" font-size="12" font-family="Verdana">0</text></g>
<g id="yLabel">
<text x="30.2" y="200.1" text-anchor="middle" transform = "rotate(-90 30.2 200.1 )" font-size="14" font-family="Verdana">Probability</text></g>
<g id="xLabel">
<text x="341.6" y="384" text-anchor="middle" font-size="14" font-family="Verdana">Random Variable</text></g>
<g id="plotLines" stroke-width="2"><g clip-path="url(#plot_window)" stroke="rgb(0,0,139)" stroke-width="1"><path d="M70.2,338.2 L72.91,338.2 L75.63,338.2 L78.34,338.2 L81.06,338.2 L83.77,338.2 L86.48,338.2 L89.2,338.2 L91.91,338.2 L94.62,338.2 L97.34,338.2 L100.1,338.2 L102.8,338.2 L105.5,338.2 L108.2,338.2 L110.9,338.2 L113.6,338.2 L116.3,338.2 L119,338.2 L121.8,338.2 L124.5,338.2 L127.2,338.2 L129.9,338.2 L132.6,338.2 L135.3,338.2 L138,338.2 L140.8,338.2 L143.5,338.2 L146.2,338.2 L148.9,338.2 L151.6,338.2 L154.3,338.2 L157,338.2 L159.8,338.2 L162.5,338.2 L165.2,338.2 L167.9,338.2 L170.6,338.2 L173.3,338.2 L176,338.2 L178.8,338.2 L181.5,338.2 L184.2,338.2 L186.9,338.2 L189.6,338.2 L192.3,338.2 L195,338.2 L197.7,338.2 L200.5,338.2 L203.2,338.2 L205.9,338.2 L208.6,338.2 L211.3,338.2 L214,338.2 L216.7,338.2 L219.5,338.2 L222.2,338.2 L224.9,338.2 L227.6,338.2 L230.3,338.2 L233,338.2 L235.7,338.2 L238.5,338.2 L241.2,338.2 L243.9,338.2 L246.6,338.2 L249.3,338.2 L252,338.2 L254.7,338.2 L257.5,338.2 L260.2,338.2 L262.9,338.2 L265.6,338.2 L268.3,338.2 L271,338.2 L273.7,338.2 L276.4,338.2 L279.2,338.2 L281.9,338.2 L284.6,338.2 L287.3,338.2 L290,87.11 L292.7,87.11 L295.4,87.11 L298.2,87.11 L300.9,87.11 L303.6,87.11 L306.3,87.11 L309,87.11 L311.7,87.11 L314.4,87.11 L317.2,87.11 L319.9,87.11 L322.6,87.11 L325.3,87.11 L328,87.11 L330.7,87.11 L333.4,87.11 L336.2,87.11 L338.9,87.11 L341.6,87.11 L344.3,87.11 L347,87.11 L349.7,87.11 L352.4,87.11 L355.1,87.11 L357.9,87.11 L360.6,87.11 L363.3,87.11 L366,87.11 L368.7,87.11 L371.4,87.11 L374.1,87.11 L376.9,87.11 L379.6,87.11 L382.3,87.11 L385,87.11 L387.7,87.11 L390.4,87.11 L393.1,87.11 L395.9,87.11 L398.6,338.2 L401.3,338.2 L404,338.2 L406.7,338.2 L409.4,338.2 L412.1,338.2 L414.9,338.2 L417.6,338.2 L420.3,338.2 L423,338.2 L425.7,338.2 L428.4,338.2 L431.1,338.2 L433.8,338.2 L436.6,338.2 L439.3,338.2 L442,338.2 L444.7,338.2 L447.4,338.2 L450.1,338.2 L452.8,338.2 L455.6,338.2 L458.3,338.2 L461,338.2 L463.7,338.2 L466.4,338.2 L469.1,338.2 L471.8,338.2 L474.6,338.2 L477.3,338.2 L480,338.2 L482.7,338.2 L485.4,338.2 L488.1,338.2 L490.8,338.2 L493.6,338.2 L496.3,338.2 L499,338.2 L501.7,338.2 L504.4,338.2 L507.1,338.2 L509.8,338.2 L512.5,338.2 L515.3,338.2 L518,338.2 L520.7,338.2 L523.4,338.2 L526.1,338.2 L528.8,338.2 L531.5,338.2 L534.3,338.2 L537,338.2 L539.7,338.2 L542.4,338.2 L545.1,338.2 L547.8,338.2 L550.5,338.2 L553.3,338.2 L556,338.2 L558.7,338.2 L561.4,338.2 L564.1,338.2 L566.8,338.2 L569.5,338.2 L572.3,338.2 L575,338.2 L577.7,338.2 L580.4,338.2 L583.1,338.2 L585.8,338.2 L588.5,338.2 L591.2,338.2 L594,338.2 L596.7,338.2 L599.4,338.2 L602.1,338.2 L604.8,338.2 L607.5,338.2 L610.2,338.2 L613,338.2 " fill="none"/></g>
<g clip-path="url(#plot_window)" stroke="rgb(139,0,0)" stroke-width="1"><path d="M70.2,338.2 L72.91,338.2 L75.63,338.2 L78.34,338.2 L81.06,338.2 L83.77,338.2 L86.48,338.2 L89.2,338.2 L91.91,338.2 L94.62,338.2 L97.34,338.2 L100.1,338.2 L102.8,338.2 L105.5,338.2 L108.2,338.2 L110.9,338.2 L113.6,338.2 L116.3,338.2 L119,338.2 L121.8,338.2 L124.5,338.2 L127.2,338.2 L129.9,338.2 L132.6,338.2 L135.3,338.2 L138,338.2 L140.8,338.2 L143.5,338.2 L146.2,338.2 L148.9,338.2 L151.6,338.2 L154.3,338.2 L157,338.2 L159.8,338.2 L162.5,338.2 L165.2,338.2 L167.9,338.2 L170.6,338.2 L173.3,338.2 L176,338.2 L178.8,338.2 L181.5,338.2 L184.2,338.2 L186.9,338.2 L189.6,338.2 L192.3,338.2 L195,338.2 L197.7,338.2 L200.5,338.2 L203.2,338.2 L205.9,338.2 L208.6,338.2 L211.3,338.2 L214,338.2 L216.7,338.2 L219.5,338.2 L222.2,338.2 L224.9,338.2 L227.6,338.2 L230.3,338.2 L233,338.2 L235.7,338.2 L238.5,338.2 L241.2,338.2 L243.9,338.2 L246.6,338.2 L249.3,338.2 L252,338.2 L254.7,338.2 L257.5,338.2 L260.2,338.2 L262.9,338.2 L265.6,338.2 L268.3,338.2 L271,338.2 L273.7,338.2 L276.4,338.2 L279.2,338.2 L281.9,338.2 L284.6,338.2 L287.3,338.2 L290,254.5 L292.7,254.5 L295.4,254.5 L298.2,254.5 L300.9,254.5 L303.6,254.5 L306.3,254.5 L309,254.5 L311.7,254.5 L314.4,254.5 L317.2,254.5 L319.9,254.5 L322.6,254.5 L325.3,254.5 L328,254.5 L330.7,254.5 L333.4,254.5 L336.2,254.5 L338.9,254.5 L341.6,254.5 L344.3,254.5 L347,254.5 L349.7,254.5 L352.4,254.5 L355.1,254.5 L357.9,254.5 L360.6,254.5 L363.3,254.5 L366,254.5 L368.7,254.5 L371.4,254.5 L374.1,254.5 L376.9,254.5 L379.6,254.5 L382.3,254.5 L385,254.5 L387.7,254.5 L390.4,254.5 L393.1,254.5 L395.9,254.5 L398.6,254.5 L401.3,254.5 L404,254.5 L406.7,254.5 L409.4,254.5 L412.1,254.5 L414.9,254.5 L417.6,254.5 L420.3,254.5 L423,254.5 L425.7,254.5 L428.4,254.5 L431.1,254.5 L433.8,254.5 L436.6,254.5 L439.3,254.5 L442,254.5 L444.7,254.5 L447.4,254.5 L450.1,254.5 L452.8,254.5 L455.6,254.5 L458.3,254.5 L461,254.5 L463.7,254.5 L466.4,254.5 L469.1,254.5 L471.8,254.5 L474.6,254.5 L477.3,254.5 L480,254.5 L482.7,254.5 L485.4,254.5 L488.1,254.5 L490.8,254.5 L493.6,254.5 L496.3,254.5 L499,254.5 L501.7,254.5 L504.4,254.5 L507.1,254.5 L509.8,254.5 L512.5,254.5 L515.3,254.5 L518,254.5 L520.7,254.5 L523.4,254.5 L526.1,254.5 L528.8,254.5 L531.5,254.5 L534.3,254.5 L537,254.5 L539.7,254.5 L542.4,254.5 L545.1,254.5 L547.8,254.5 L550.5,254.5 L553.3,254.5 L556,254.5 L558.7,254.5 L561.4,254.5 L564.1,254.5 L566.8,254.5 L569.5,254.5 L572.3,254.5 L575,254.5 L577.7,254.5 L580.4,254.5 L583.1,254.5 L585.8,254.5 L588.5,254.5 L591.2,254.5 L594,254.5 L596.7,254.5 L599.4,254.5 L602.1,254.5 L604.8,254.5 L607.5,254.5 L610.2,254.5 L613,254.5 " fill="none"/></g>
<g clip-path="url(#plot_window)" stroke="rgb(0,100,0)" stroke-width="1"><path d="M70.2,288 L72.91,288 L75.63,288 L78.34,288 L81.06,288 L83.77,288 L86.48,288 L89.2,288 L91.91,288 L94.62,288 L97.34,288 L100.1,288 L102.8,288 L105.5,288 L108.2,288 L110.9,288 L113.6,288 L116.3,288 L119,288 L121.8,288 L124.5,288 L127.2,288 L129.9,288 L132.6,288 L135.3,288 L138,288 L140.8,288 L143.5,288 L146.2,288 L148.9,288 L151.6,288 L154.3,288 L157,288 L159.8,288 L162.5,288 L165.2,288 L167.9,288 L170.6,288 L173.3,288 L176,288 L178.8,288 L181.5,288 L184.2,288 L186.9,288 L189.6,288 L192.3,288 L195,288 L197.7,288 L200.5,288 L203.2,288 L205.9,288 L208.6,288 L211.3,288 L214,288 L216.7,288 L219.5,288 L222.2,288 L224.9,288 L227.6,288 L230.3,288 L233,288 L235.7,288 L238.5,288 L241.2,288 L243.9,288 L246.6,288 L249.3,288 L252,288 L254.7,288 L257.5,288 L260.2,288 L262.9,288 L265.6,288 L268.3,288 L271,288 L273.7,288 L276.4,288 L279.2,288 L281.9,288 L284.6,288 L287.3,288 L290,288 L292.7,288 L295.4,288 L298.2,288 L300.9,288 L303.6,288 L306.3,288 L309,288 L311.7,288 L314.4,288 L317.2,288 L319.9,288 L322.6,288 L325.3,288 L328,288 L330.7,288 L333.4,288 L336.2,288 L338.9,288 L341.6,288 L344.3,288 L347,288 L349.7,288 L352.4,288 L355.1,288 L357.9,288 L360.6,288 L363.3,288 L366,288 L368.7,288 L371.4,288 L374.1,288 L376.9,288 L379.6,288 L382.3,288 L385,288 L387.7,288 L390.4,288 L393.1,288 L395.9,288 L398.6,288 L401.3,288 L404,288 L406.7,288 L409.4,288 L412.1,288 L414.9,288 L417.6,288 L420.3,288 L423,288 L425.7,288 L428.4,288 L431.1,288 L433.8,288 L436.6,288 L439.3,288 L442,288 L444.7,288 L447.4,288 L450.1,288 L452.8,288 L455.6,288 L458.3,288 L461,288 L463.7,288 L466.4,288 L469.1,288 L471.8,288 L474.6,288 L477.3,288 L480,288 L482.7,288 L485.4,288 L488.1,288 L490.8,288 L493.6,288 L496.3,288 L499,288 L501.7,288 L504.4,288 L507.1,288 L509.8,288 L512.5,288 L515.3,288 L518,288 L520.7,288 L523.4,288 L526.1,288 L528.8,288 L531.5,288 L534.3,288 L537,288 L539.7,288 L542.4,288 L545.1,288 L547.8,288 L550.5,288 L553.3,288 L556,288 L558.7,288 L561.4,288 L564.1,288 L566.8,288 L569.5,288 L572.3,288 L575,288 L577.7,288 L580.4,288 L583.1,288 L585.8,288 L588.5,288 L591.2,288 L594,288 L596.7,288 L599.4,288 L602.1,288 L604.8,288 L607.5,288 L610.2,288 L613,288 " fill="none"/></g>
<g clip-path="url(#plot_window)" stroke="rgb(255,140,0)" stroke-width="1"><path d="M70.2,338.2 L72.91,338.2 L75.63,338.2 L78.34,338.2 L81.06,338.2 L83.77,338.2 L86.48,338.2 L89.2,338.2 L91.91,338.2 L94.62,338.2 L97.34,338.2 L100.1,338.2 L102.8,338.2 L105.5,338.2 L108.2,338.2 L110.9,338.2 L113.6,338.2 L116.3,338.2 L119,338.2 L121.8,338.2 L124.5,338.2 L127.2,338.2 L129.9,338.2 L132.6,338.2 L135.3,338.2 L138,338.2 L140.8,338.2 L143.5,338.2 L146.2,338.2 L148.9,338.2 L151.6,338.2 L154.3,338.2 L157,338.2 L159.8,338.2 L162.5,338.2 L165.2,338.2 L167.9,338.2 L170.6,338.2 L173.3,338.2 L176,338.2 L178.8,338.2 L181.5,212.7 L184.2,212.7 L186.9,212.7 L189.6,212.7 L192.3,212.7 L195,212.7 L197.7,212.7 L200.5,212.7 L203.2,212.7 L205.9,212.7 L208.6,212.7 L211.3,212.7 L214,212.7 L216.7,212.7 L219.5,212.7 L222.2,212.7 L224.9,212.7 L227.6,212.7 L230.3,212.7 L233,212.7 L235.7,212.7 L238.5,212.7 L241.2,212.7 L243.9,212.7 L246.6,212.7 L249.3,212.7 L252,212.7 L254.7,212.7 L257.5,212.7 L260.2,212.7 L262.9,212.7 L265.6,212.7 L268.3,212.7 L271,212.7 L273.7,212.7 L276.4,212.7 L279.2,212.7 L281.9,212.7 L284.6,212.7 L287.3,212.7 L290,212.7 L292.7,212.7 L295.4,212.7 L298.2,212.7 L300.9,212.7 L303.6,212.7 L306.3,212.7 L309,212.7 L311.7,212.7 L314.4,212.7 L317.2,212.7 L319.9,212.7 L322.6,212.7 L325.3,212.7 L328,212.7 L330.7,212.7 L333.4,212.7 L336.2,212.7 L338.9,212.7 L341.6,212.7 L344.3,212.7 L347,212.7 L349.7,212.7 L352.4,212.7 L355.1,212.7 L357.9,212.7 L360.6,212.7 L363.3,212.7 L366,212.7 L368.7,212.7 L371.4,212.7 L374.1,212.7 L376.9,212.7 L379.6,212.7 L382.3,212.7 L385,212.7 L387.7,212.7 L390.4,212.7 L393.1,212.7 L395.9,212.7 L398.6,338.2 L401.3,338.2 L404,338.2 L406.7,338.2 L409.4,338.2 L412.1,338.2 L414.9,338.2 L417.6,338.2 L420.3,338.2 L423,338.2 L425.7,338.2 L428.4,338.2 L431.1,338.2 L433.8,338.2 L436.6,338.2 L439.3,338.2 L442,338.2 L444.7,338.2 L447.4,338.2 L450.1,338.2 L452.8,338.2 L455.6,338.2 L458.3,338.2 L461,338.2 L463.7,338.2 L466.4,338.2 L469.1,338.2 L471.8,338.2 L474.6,338.2 L477.3,338.2 L480,338.2 L482.7,338.2 L485.4,338.2 L488.1,338.2 L490.8,338.2 L493.6,338.2 L496.3,338.2 L499,338.2 L501.7,338.2 L504.4,338.2 L507.1,338.2 L509.8,338.2 L512.5,338.2 L515.3,338.2 L518,338.2 L520.7,338.2 L523.4,338.2 L526.1,338.2 L528.8,338.2 L531.5,338.2 L534.3,338.2 L537,338.2 L539.7,338.2 L542.4,338.2 L545.1,338.2 L547.8,338.2 L550.5,338.2 L553.3,338.2 L556,338.2 L558.7,338.2 L561.4,338.2 L564.1,338.2 L566.8,338.2 L569.5,338.2 L572.3,338.2 L575,338.2 L577.7,338.2 L580.4,338.2 L583.1,338.2 L585.8,338.2 L588.5,338.2 L591.2,338.2 L594,338.2 L596.7,338.2 L599.4,338.2 L602.1,338.2 L604.8,338.2 L607.5,338.2 L610.2,338.2 L613,338.2 " fill="none"/></g>
</g>
<g id="plotPoints" clip-path="url(#plot_window)"><g stroke="rgb(0,0,0)"></g>
<g stroke="rgb(0,0,0)"></g>
<g stroke="rgb(0,0,0)"></g>
<g stroke="rgb(0,0,0)"></g>
</g>
<g id="limitPoints" stroke="rgb(119,136,153)" fill="rgb(250,235,215)"></g>
<g id="legendBackground" stroke="rgb(119,136,153)" fill="rgb(255,255,255)" stroke-width="1"><rect x="627" y="62" width="111" height="135"/><rect x="627" y="62" width="111" height="135"/></g>
<g id="legendPoints"><g stroke="rgb(0,0,139)" stroke-width="1"><line x1="642" y1="92" x2="657" y2="92"/></g>
<g stroke="rgb(139,0,0)" stroke-width="1"><line x1="642" y1="122" x2="657" y2="122"/></g>
<g stroke="rgb(0,100,0)" stroke-width="1"><line x1="642" y1="152" x2="657" y2="152"/></g>
<g stroke="rgb(255,140,0)" stroke-width="1"><line x1="642" y1="182" x2="657" y2="182"/></g>
</g>
<g id="legendText">
<text x="664.5" y="92" font-size="15" font-family="Verdana">{0,1}</text>
<text x="664.5" y="122" font-size="15" font-family="Verdana">{0,3}</text>
<text x="664.5" y="152" font-size="15" font-family="Verdana">{-2,3}</text>
<text x="664.5" y="182" font-size="15" font-family="Verdana">{-1,1}</text></g>
<g id="title">
<text x="375" y="40" text-anchor="middle" font-size="20" font-family="Verdana">Uniform Distribution PDF</text></g>
</svg>
