<?xml version="1.0" encoding="UTF-8" standalone="no"?>
<svg width="750" height ="400" version="1.1" xmlns="http://www.w3.org/2000/svg"
 xmlns:xlink="http://www.w3.org/1999/xlink"
 xmlns:ev="http://www.w3.org/2001/xml-events">

<!-- SVG plot written using Boost.Plot program (Creator Jacob Voytko) --> 
<!-- Use, modification and distribution of Boost.Plot subject to the --> 
<!-- Boost Software License, Version 1.0.--> 
<!-- (See accompanying file LICENSE_1_0.txt --> 
<!-- or copy at http://www.boost.org/LICENSE_1_0.txt) --> 

<clipPath id="plot_window"><rect x="71.2" y="63" width="540.8" height="274.2"/></clipPath>
<g id="imageBackground" stroke="rgb(119,136,153)" fill="rgb(255,255,255)" stroke-width="2"><rect x="0" y="0" width="750" height="400"/></g>
<g id="plotBackground" stroke="rgb(119,136,153)" fill="rgb(255,255,255)" stroke-width="2"><rect x="70.2" y="62" width="542.8" height="276.2"/></g>
<g id="yMinorGrid" stroke="rgb(200,220,255)" stroke-width="0.5"></g>
<g id="yMajorGrid" stroke="rgb(200,220,255)" stroke-width="1"></g>
<g id="xMinorGrid" stroke="rgb(200,220,255)" stroke-width="0.5"></g>
<g id="xMajorGrid" stroke="rgb(200,220,255)" stroke-width="1"></g>
<g id="yAxis" stroke="rgb(0,0,0)" stroke-width="1"><line x1="287.3" y1="62" x2="287.3" y2="343.2"/><line x1="70.2" y1="62" x2="70.2" y2="338.2"/></g>
<g id="xAxis" stroke="rgb(0,0,0)" stroke-width="1"><line x1="65.2" y1="338.2" x2="613" y2="338.2"/><line x1="65.2" y1="338.2" x2="613" y2="338.2"/></g>
<g id="yMinorTicks" stroke="rgb(0,0,0)" stroke-width="1"><path d="M68.2,333.2 L70.2,333.2 M68.2,328.2 L70.2,328.2 M68.2,323.1 L70.2,323.1 M68.2,318.1 L70.2,318.1 M68.2,308.1 L70.2,308.1 M68.2,303 L70.2,303 M68.2,298 L70.2,298 M68.2,293 L70.2,293 M68.2,283 L70.2,283 M68.2,277.9 L70.2,277.9 M68.2,272.9 L70.2,272.9 M68.2,267.9 L70.2,267.9 M68.2,257.9 L70.2,257.9 M68.2,252.8 L70.2,252.8 M68.2,247.8 L70.2,247.8 M68.2,242.8 L70.2,242.8 M68.2,232.7 L70.2,232.7 M68.2,227.7 L70.2,227.7 M68.2,222.7 L70.2,222.7 M68.2,217.7 L70.2,217.7 M68.2,207.6 L70.2,207.6 M68.2,202.6 L70.2,202.6 M68.2,197.6 L70.2,197.6 M68.2,192.6 L70.2,192.6 M68.2,182.5 L70.2,182.5 M68.2,177.5 L70.2,177.5 M68.2,172.5 L70.2,172.5 M68.2,167.5 L70.2,167.5 M68.2,157.4 L70.2,157.4 M68.2,152.4 L70.2,152.4 M68.2,147.4 L70.2,147.4 M68.2,142.3 L70.2,142.3 M68.2,132.3 L70.2,132.3 M68.2,127.3 L70.2,127.3 M68.2,122.3 L70.2,122.3 M68.2,117.2 L70.2,117.2 M68.2,107.2 L70.2,107.2 M68.2,102.2 L70.2,102.2 M68.2,97.15 L70.2,97.15 M68.2,92.13 L70.2,92.13 M68.2,82.09 L70.2,82.09 M68.2,77.07 L70.2,77.07 M68.2,72.04 L70.2,72.04 M68.2,67.02 L70.2,67.02 M68.2,338.2 L70.2,338.2 "/></g>
<g id="xMinorTicks" stroke="rgb(0,0,0)" stroke-width="1"><path d="M309,338.2 L309,340.2 M330.7,338.2 L330.7,340.2 M352.4,338.2 L352.4,340.2 M374.1,338.2 L374.1,340.2 M417.6,338.2 L417.6,340.2 M439.3,338.2 L439.3,340.2 M461,338.2 L461,340.2 M482.7,338.2 L482.7,340.2 M526.1,338.2 L526.1,340.2 M547.8,338.2 L547.8,340.2 M569.5,338.2 L569.5,340.2 M591.2,338.2 L591.2,340.2 M265.6,338.2 L265.6,340.2 M243.9,338.2 L243.9,340.2 M222.2,338.2 L222.2,340.2 M200.5,338.2 L200.5,340.2 M157,338.2 L157,340.2 M135.3,338.2 L135.3,340.2 M113.6,338.2 L113.6,340.2 M91.91,338.2 L91.91,340.2 "/></g>
<g id="yMajorTicks" stroke="rgb(0,0,0)" stroke-width="2"><path d="M65.2,338.2 L70.2,338.2 M65.2,313.1 L70.2,313.1 M65.2,288 L70.2,288 M65.2,262.9 L70.2,262.9 M65.2,237.8 L70.2,237.8 M65.2,212.7 L70.2,212.7 M65.2,187.5 L70.2,187.5 M65.2,162.4 L70.2,162.4 M65.2,137.3 L70.2,137.3 M65.2,112.2 L70.2,112.2 M65.2,87.11 L70.2,87.11 M65.2,62 L70.2,62 M65.2,338.2 L70.2,338.2 "/></g>
<g id="xMajorTicks" stroke="rgb(0,0,0)" stroke-width="2"><path d="M287.3,338.2 L287.3,343.2 M395.9,338.2 L395.9,343.2 M504.4,338.2 L504.4,343.2 M613,338.2 L613,343.2 M287.3,338.2 L287.3,343.2 M178.8,338.2 L178.8,343.2 M70.2,338.2 L70.2,343.2 "/></g>
<g id="plotLabels">
<text x="287.3" y="357.6" text-anchor="middle" font-size="12" font-family="Verdana">0</text>
<text x="395.9" y="357.6" text-anchor="middle" font-size="12" font-family="Verdana">1</text>
<text x="504.4" y="357.6" text-anchor="middle" font-size="12" font-family="Verdana">2</text>
<text x="613" y="357.6" text-anchor="middle" font-size="12" font-family="Verdana">3</text>
<text x="287.3" y="357.6" text-anchor="middle" font-size="12" font-family="Verdana">0</text>
<text x="178.8" y="357.6" text-anchor="middle" font-size="12" font-family="Verdana">-1</text>
<text x="70.2" y="357.6" text-anchor="middle" font-size="12" font-family="Verdana">-2</text>
<text x="59.2" y="340.6" text-anchor="end" font-size="12" font-family="Verdana">0</text>
<text x="59.2" y="315.5" text-anchor="end" font-size="12" font-family="Verdana">0.1</text>
<text x="59.2" y="290.4" text-anchor="end" font-size="12" font-family="Verdana">0.2</text>
<text x="59.2" y="265.3" text-anchor="end" font-size="12" font-family="Verdana">0.3</text>
<text x="59.2" y="240.2" text-anchor="end" font-size="12" font-family="Verdana">0.4</text>
<text x="59.2" y="215.1" text-anchor="end" font-size="12" font-family="Verdana">0.5</text>
<text x="59.2" y="189.9" text-anchor="end" font-size="12" font-family="Verdana">0.6</text>
<text x="59.2" y="164.8" text-anchor="end" font-size="12" font-family="Verdana">0.7</text>
<text x="59.2" y="139.7" text-anchor="end" font-size="12" font-family="Verdana">0.8</text>
<text x="59.2" y="114.6" text-anchor="end" font-size="12" font-family="Verdana">0.9</text>
<text x="59.2" y="89.51" text-anchor="end" font-size="12" font-family="Verdana">1</text>
<text x="59.2" y="64.4" text-anchor="end" font-size="12" font-family="Verdana">1.1</text>
<text x="59.2" y="340.6" text-anchor="end" font-size="12" font-family="Verdana">0</text></g>
<g id="yLabel">
<text x="30.2" y="200.1" text-anchor="middle" transform = "rotate(-90 30.2 200.1 )" font-size="14" font-family="Verdana">Probability</text></g>
<g id="xLabel">
<text x="341.6" y="384" text-anchor="middle" font-size="14" font-family="Verdana">Random Variable</text></g>
<g id="plotLines" stroke-width="2"><g clip-path="url(#plot_window)" stroke="rgb(0,0,139)" stroke-width="1"><path d="M70.2,338.2 L72.91,338.2 L75.63,338.2 L78.34,338.2 L81.06,338.2 L83.77,338.2 L86.48,338.2 L89.2,338.2 L91.91,338.2 L94.62,338.2 L97.34,338.2 L100.1,338.2 L102.8,338.2 L105.5,338.2 L108.2,338.2 L110.9,338.2 L113.6,338.2 L116.3,338.2 L119,338.2 L121.8,338.2 L124.5,338.2 L127.2,338.2 L129.9,338.2 L132.6,338.2 L135.3,338.2 L138,338.2 L140.8,338.2 L143.5,338.2 L146.2,338.2 L148.9,338.2 L151.6,338.2 L154.3,338.2 L157,338.2 L159.8,338.2 L162.5,338.2 L165.2,338.2 L167.9,338.2 L170.6,338.2 L173.3,338.2 L176,338.2 L178.8,338.2 L181.5,338.2 L184.2,338.2 L186.9,338.2 L189.6,338.2 L192.3,338.2 L195,338.2 L197.7,338.2 L200.5,338.2 L203.2,338.2 L205.9,338.2 L208.6,338.2 L211.3,338.2 L214,338.2 L216.7,338.2 L219.5,338.2 L222.2,338.2 L224.9,338.2 L227.6,338.2 L230.3,338.2 L233,338.2 L235.7,338.2 L238.5,338.2 L241.2,338.2 L243.9,338.2 L246.6,338.2 L249.3,338.2 L252,338.2 L254.7,338.2 L257.5,338.2 L260.2,338.2 L262.9,338.2 L265.6,338.2 L268.3,338.2 L271,338.2 L273.7,338.2 L276.4,338.2 L279.2,338.2 L281.9,338.2 L284.6,338.2 L287.3,338.2 L290,331.9 L292.7,325.6 L295.4,319.4 L298.2,313.1 L300.9,306.8 L303.6,300.5 L306.3,294.3 L309,288 L311.7,281.7 L314.4,275.4 L317.2,269.2 L319.9,262.9 L322.6,256.6 L325.3,250.3 L328,244 L330.7,237.8 L333.4,231.5 L336.2,225.2 L338.9,218.9 L341.6,212.7 L344.3,206.4 L347,200.1 L349.7,193.8 L352.4,187.5 L355.1,181.3 L357.9,175 L360.6,168.7 L363.3,162.4 L366,156.2 L368.7,149.9 L371.4,143.6 L374.1,137.3 L376.9,131.1 L379.6,124.8 L382.3,118.5 L385,112.2 L387.7,105.9 L390.4,99.66 L393.1,93.39 L395.9,87.11 L398.6,87.11 L401.3,87.11 L404,87.11 L406.7,87.11 L409.4,87.11 L412.1,87.11 L414.9,87.11 L417.6,87.11 L420.3,87.11 L423,87.11 L425.7,87.11 L428.4,87.11 L431.1,87.11 L433.8,87.11 L436.6,87.11 L439.3,87.11 L442,87.11 L444.7,87.11 L447.4,87.11 L450.1,87.11 L452.8,87.11 L455.6,87.11 L458.3,87.11 L461,87.11 L463.7,87.11 L466.4,87.11 L469.1,87.11 L471.8,87.11 L474.6,87.11 L477.3,87.11 L480,87.11 L482.7,87.11 L485.4,87.11 L488.1,87.11 L490.8,87.11 L493.6,87.11 L496.3,87.11 L499,87.11 L501.7,87.11 L504.4,87.11 L507.1,87.11 L509.8,87.11 L512.5,87.11 L515.3,87.11 L518,87.11 L520.7,87.11 L523.4,87.11 L526.1,87.11 L528.8,87.11 L531.5,87.11 L534.3,87.11 L537,87.11 L539.7,87.11 L542.4,87.11 L545.1,87.11 L547.8,87.11 L550.5,87.11 L553.3,87.11 L556,87.11 L558.7,87.11 L561.4,87.11 L564.1,87.11 L566.8,87.11 L569.5,87.11 L572.3,87.11 L575,87.11 L577.7,87.11 L580.4,87.11 L583.1,87.11 L585.8,87.11 L588.5,87.11 L591.2,87.11 L594,87.11 L596.7,87.11 L599.4,87.11 L602.1,87.11 L604.8,87.11 L607.5,87.11 L610.2,87.11 L613,87.11 " fill="none"/></g>
<g clip-path="url(#plot_window)" stroke="rgb(139,0,0)" stroke-width="1"><path d="M70.2,338.2 L72.91,338.2 L75.63,338.2 L78.34,338.2 L81.06,338.2 L83.77,338.2 L86.48,338.2 L89.2,338.2 L91.91,338.2 L94.62,338.2 L97.34,338.2 L100.1,338.2 L102.8,338.2 L105.5,338.2 L108.2,338.2 L110.9,338.2 L113.6,338.2 L116.3,338.2 L119,338.2 L121.8,338.2 L124.5,338.2 L127.2,338.2 L129.9,338.2 L132.6,338.2 L135.3,338.2 L138,338.2 L140.8,338.2 L143.5,338.2 L146.2,338.2 L148.9,338.2 L151.6,338.2 L154.3,338.2 L157,338.2 L159.8,338.2 L162.5,338.2 L165.2,338.2 L167.9,338.2 L170.6,338.2 L173.3,338.2 L176,338.2 L178.8,338.2 L181.5,338.2 L184.2,338.2 L186.9,338.2 L189.6,338.2 L192.3,338.2 L195,338.2 L197.7,338.2 L200.5,338.2 L203.2,338.2 L205.9,338.2 L208.6,338.2 L211.3,338.2 L214,338.2 L216.7,338.2 L219.5,338.2 L222.2,338.2 L224.9,338.2 L227.6,338.2 L230.3,338.2 L233,338.2 L235.7,338.2 L238.5,338.2 L241.2,338.2 L243.9,338.2 L246.6,338.2 L249.3,338.2 L252,338.2 L254.7,338.2 L257.5,338.2 L260.2,338.2 L262.9,338.2 L265.6,338.2 L268.3,338.2 L271,338.2 L273.7,338.2 L276.4,338.2 L279.2,338.2 L281.9,338.2 L284.6,338.2 L287.3,338.2 L290,336.1 L292.7,334 L295.4,331.9 L298.2,329.8 L300.9,327.7 L303.6,325.6 L306.3,323.6 L309,321.5 L311.7,319.4 L314.4,317.3 L317.2,315.2 L319.9,313.1 L322.6,311 L325.3,308.9 L328,306.8 L330.7,304.7 L333.4,302.6 L336.2,300.5 L338.9,298.4 L341.6,296.4 L344.3,294.3 L347,292.2 L349.7,290.1 L352.4,288 L355.1,285.9 L357.9,283.8 L360.6,281.7 L363.3,279.6 L366,277.5 L368.7,275.4 L371.4,273.3 L374.1,271.2 L376.9,269.2 L379.6,267.1 L382.3,265 L385,262.9 L387.7,260.8 L390.4,258.7 L393.1,256.6 L395.9,254.5 L398.6,252.4 L401.3,250.3 L404,248.2 L406.7,246.1 L409.4,244 L412.1,241.9 L414.9,239.9 L417.6,237.8 L420.3,235.7 L423,233.6 L425.7,231.5 L428.4,229.4 L431.1,227.3 L433.8,225.2 L436.6,223.1 L439.3,221 L442,218.9 L444.7,216.8 L447.4,214.7 L450.1,212.7 L452.8,210.6 L455.6,208.5 L458.3,206.4 L461,204.3 L463.7,202.2 L466.4,200.1 L469.1,198 L471.8,195.9 L474.6,193.8 L477.3,191.7 L480,189.6 L482.7,187.5 L485.4,185.5 L488.1,183.4 L490.8,181.3 L493.6,179.2 L496.3,177.1 L499,175 L501.7,172.9 L504.4,170.8 L507.1,168.7 L509.8,166.6 L512.5,164.5 L515.3,162.4 L518,160.3 L520.7,158.3 L523.4,156.2 L526.1,154.1 L528.8,152 L531.5,149.9 L534.3,147.8 L537,145.7 L539.7,143.6 L542.4,141.5 L545.1,139.4 L547.8,137.3 L550.5,135.2 L553.3,133.1 L556,131.1 L558.7,129 L561.4,126.9 L564.1,124.8 L566.8,122.7 L569.5,120.6 L572.3,118.5 L575,116.4 L577.7,114.3 L580.4,112.2 L583.1,110.1 L585.8,108 L588.5,105.9 L591.2,103.8 L594,101.8 L596.7,99.66 L599.4,97.57 L602.1,95.48 L604.8,93.39 L607.5,91.29 L610.2,89.2 L613,87.11 " fill="none"/></g>
<g clip-path="url(#plot_window)" stroke="rgb(0,100,0)" stroke-width="1"><path d="M70.2,338.2 L72.91,336.9 L75.63,335.7 L78.34,334.4 L81.06,333.2 L83.77,331.9 L86.48,330.7 L89.2,329.4 L91.91,328.2 L94.62,326.9 L97.34,325.6 L100.1,324.4 L102.8,323.1 L105.5,321.9 L108.2,320.6 L110.9,319.4 L113.6,318.1 L116.3,316.9 L119,315.6 L121.8,314.3 L124.5,313.1 L127.2,311.8 L129.9,310.6 L132.6,309.3 L135.3,308.1 L138,306.8 L140.8,305.6 L143.5,304.3 L146.2,303 L148.9,301.8 L151.6,300.5 L154.3,299.3 L157,298 L159.8,296.8 L162.5,295.5 L165.2,294.3 L167.9,293 L170.6,291.7 L173.3,290.5 L176,289.2 L178.8,288 L181.5,286.7 L184.2,285.5 L186.9,284.2 L189.6,283 L192.3,281.7 L195,280.4 L197.7,279.2 L200.5,277.9 L203.2,276.7 L205.9,275.4 L208.6,274.2 L211.3,272.9 L214,271.7 L216.7,270.4 L219.5,269.2 L222.2,267.9 L224.9,266.6 L227.6,265.4 L230.3,264.1 L233,262.9 L235.7,261.6 L238.5,260.4 L241.2,259.1 L243.9,257.9 L246.6,256.6 L249.3,255.3 L252,254.1 L254.7,252.8 L257.5,251.6 L260.2,250.3 L262.9,249.1 L265.6,247.8 L268.3,246.6 L271,245.3 L273.7,244 L276.4,242.8 L279.2,241.5 L281.9,240.3 L284.6,239 L287.3,237.8 L290,236.5 L292.7,235.3 L295.4,234 L298.2,232.7 L300.9,231.5 L303.6,230.2 L306.3,229 L309,227.7 L311.7,226.5 L314.4,225.2 L317.2,224 L319.9,222.7 L322.6,221.4 L325.3,220.2 L328,218.9 L330.7,217.7 L333.4,216.4 L336.2,215.2 L338.9,213.9 L341.6,212.7 L344.3,211.4 L347,210.1 L349.7,208.9 L352.4,207.6 L355.1,206.4 L357.9,205.1 L360.6,203.9 L363.3,202.6 L366,201.4 L368.7,200.1 L371.4,198.8 L374.1,197.6 L376.9,196.3 L379.6,195.1 L382.3,193.8 L385,192.6 L387.7,191.3 L390.4,190.1 L393.1,188.8 L395.9,187.5 L398.6,186.3 L401.3,185 L404,183.8 L406.7,182.5 L409.4,181.3 L412.1,180 L414.9,178.8 L417.6,177.5 L420.3,176.2 L423,175 L425.7,173.7 L428.4,172.5 L431.1,171.2 L433.8,170 L436.6,168.7 L439.3,167.5 L442,166.2 L444.7,164.9 L447.4,163.7 L450.1,162.4 L452.8,161.2 L455.6,159.9 L458.3,158.7 L461,157.4 L463.7,156.2 L466.4,154.9 L469.1,153.6 L471.8,152.4 L474.6,151.1 L477.3,149.9 L480,148.6 L482.7,147.4 L485.4,146.1 L488.1,144.9 L490.8,143.6 L493.6,142.3 L496.3,141.1 L499,139.8 L501.7,138.6 L504.4,137.3 L507.1,136.1 L509.8,134.8 L512.5,133.6 L515.3,132.3 L518,131.1 L520.7,129.8 L523.4,128.5 L526.1,127.3 L528.8,126 L531.5,124.8 L534.3,123.5 L537,122.3 L539.7,121 L542.4,119.8 L545.1,118.5 L547.8,117.2 L550.5,116 L553.3,114.7 L556,113.5 L558.7,112.2 L561.4,111 L564.1,109.7 L566.8,108.5 L569.5,107.2 L572.3,105.9 L575,104.7 L577.7,103.4 L580.4,102.2 L583.1,100.9 L585.8,99.66 L588.5,98.41 L591.2,97.15 L594,95.9 L596.7,94.64 L599.4,93.39 L602.1,92.13 L604.8,90.88 L607.5,89.62 L610.2,88.36 L613,87.11 " fill="none"/></g>
<g clip-path="url(#plot_window)" stroke="rgb(255,140,0)" stroke-width="1"><path d="M70.2,338.2 L72.91,338.2 L75.63,338.2 L78.34,338.2 L81.06,338.2 L83.77,338.2 L86.48,338.2 L89.2,338.2 L91.91,338.2 L94.62,338.2 L97.34,338.2 L100.1,338.2 L102.8,338.2 L105.5,338.2 L108.2,338.2 L110.9,338.2 L113.6,338.2 L116.3,338.2 L119,338.2 L121.8,338.2 L124.5,338.2 L127.2,338.2 L129.9,338.2 L132.6,338.2 L135.3,338.2 L138,338.2 L140.8,338.2 L143.5,338.2 L146.2,338.2 L148.9,338.2 L151.6,338.2 L154.3,338.2 L157,338.2 L159.8,338.2 L162.5,338.2 L165.2,338.2 L167.9,338.2 L170.6,338.2 L173.3,338.2 L176,338.2 L178.8,338.2 L181.5,335.1 L184.2,331.9 L186.9,328.8 L189.6,325.6 L192.3,322.5 L195,319.4 L197.7,316.2 L200.5,313.1 L203.2,310 L205.9,306.8 L208.6,303.7 L211.3,300.5 L214,297.4 L216.7,294.3 L219.5,291.1 L222.2,288 L224.9,284.8 L227.6,281.7 L230.3,278.6 L233,275.4 L235.7,272.3 L238.5,269.2 L241.2,266 L243.9,262.9 L246.6,259.7 L249.3,256.6 L252,253.5 L254.7,250.3 L257.5,247.2 L260.2,244 L262.9,240.9 L265.6,237.8 L268.3,234.6 L271,231.5 L273.7,228.3 L276.4,225.2 L279.2,222.1 L281.9,218.9 L284.6,215.8 L287.3,212.7 L290,209.5 L292.7,206.4 L295.4,203.2 L298.2,200.1 L300.9,197 L303.6,193.8 L306.3,190.7 L309,187.5 L311.7,184.4 L314.4,181.3 L317.2,178.1 L319.9,175 L322.6,171.9 L325.3,168.7 L328,165.6 L330.7,162.4 L333.4,159.3 L336.2,156.2 L338.9,153 L341.6,149.9 L344.3,146.7 L347,143.6 L349.7,140.5 L352.4,137.3 L355.1,134.2 L357.9,131.1 L360.6,127.9 L363.3,124.8 L366,121.6 L368.7,118.5 L371.4,115.4 L374.1,112.2 L376.9,109.1 L379.6,105.9 L382.3,102.8 L385,99.66 L387.7,96.53 L390.4,93.39 L393.1,90.25 L395.9,87.11 L398.6,87.11 L401.3,87.11 L404,87.11 L406.7,87.11 L409.4,87.11 L412.1,87.11 L414.9,87.11 L417.6,87.11 L420.3,87.11 L423,87.11 L425.7,87.11 L428.4,87.11 L431.1,87.11 L433.8,87.11 L436.6,87.11 L439.3,87.11 L442,87.11 L444.7,87.11 L447.4,87.11 L450.1,87.11 L452.8,87.11 L455.6,87.11 L458.3,87.11 L461,87.11 L463.7,87.11 L466.4,87.11 L469.1,87.11 L471.8,87.11 L474.6,87.11 L477.3,87.11 L480,87.11 L482.7,87.11 L485.4,87.11 L488.1,87.11 L490.8,87.11 L493.6,87.11 L496.3,87.11 L499,87.11 L501.7,87.11 L504.4,87.11 L507.1,87.11 L509.8,87.11 L512.5,87.11 L515.3,87.11 L518,87.11 L520.7,87.11 L523.4,87.11 L526.1,87.11 L528.8,87.11 L531.5,87.11 L534.3,87.11 L537,87.11 L539.7,87.11 L542.4,87.11 L545.1,87.11 L547.8,87.11 L550.5,87.11 L553.3,87.11 L556,87.11 L558.7,87.11 L561.4,87.11 L564.1,87.11 L566.8,87.11 L569.5,87.11 L572.3,87.11 L575,87.11 L577.7,87.11 L580.4,87.11 L583.1,87.11 L585.8,87.11 L588.5,87.11 L591.2,87.11 L594,87.11 L596.7,87.11 L599.4,87.11 L602.1,87.11 L604.8,87.11 L607.5,87.11 L610.2,87.11 L613,87.11 " fill="none"/></g>
</g>
<g id="plotPoints" clip-path="url(#plot_window)"><g stroke="rgb(0,0,0)"></g>
<g stroke="rgb(0,0,0)"></g>
<g stroke="rgb(0,0,0)"></g>
<g stroke="rgb(0,0,0)"></g>
</g>
<g id="limitPoints" stroke="rgb(119,136,153)" fill="rgb(250,235,215)"></g>
<g id="legendBackground" stroke="rgb(119,136,153)" fill="rgb(255,255,255)" stroke-width="1"><rect x="627" y="62" width="111" height="135"/><rect x="627" y="62" width="111" height="135"/></g>
<g id="legendPoints"><g stroke="rgb(0,0,139)" stroke-width="1"><line x1="642" y1="92" x2="657" y2="92"/></g>
<g stroke="rgb(139,0,0)" stroke-width="1"><line x1="642" y1="122" x2="657" y2="122"/></g>
<g stroke="rgb(0,100,0)" stroke-width="1"><line x1="642" y1="152" x2="657" y2="152"/></g>
<g stroke="rgb(255,140,0)" stroke-width="1"><line x1="642" y1="182" x2="657" y2="182"/></g>
</g>
<g id="legendText">
<text x="664.5" y="92" font-size="15" font-family="Verdana">{0,1}</text>
<text x="664.5" y="122" font-size="15" font-family="Verdana">{0,3}</text>
<text x="664.5" y="152" font-size="15" font-family="Verdana">{-2,3}</text>
<text x="664.5" y="182" font-size="15" font-family="Verdana">{-1,1}</text></g>
<g id="title">
<text x="375" y="40" text-anchor="middle" font-size="20" font-family="Verdana">Uniform Distribution CDF</text></g>
</svg>
