<?xml version="1.0" encoding="UTF-8" standalone="no"?>
<svg width="750" height ="400" version="1.1" xmlns="http://www.w3.org/2000/svg"
 xmlns:xlink="http://www.w3.org/1999/xlink"
 xmlns:ev="http://www.w3.org/2001/xml-events">

<!-- SVG plot written using Boost.Plot program (Creator Jacob Voytko) --> 
<!-- Use, modification and distribution of Boost.Plot subject to the --> 
<!-- Boost Software License, Version 1.0.--> 
<!-- (See accompanying file LICENSE_1_0.txt --> 
<!-- or copy at http://www.boost.org/LICENSE_1_0.txt) --> 

<clipPath id="plot_window"><rect x="54.4" y="63" width="526.2" height="274.2"/></clipPath>
<g id="imageBackground" stroke="rgb(119,136,153)" fill="rgb(255,255,255)" stroke-width="2"><rect x="0" y="0" width="750" height="400"/></g>
<g id="plotBackground" stroke="rgb(119,136,153)" fill="rgb(255,255,255)" stroke-width="2"><rect x="53.4" y="62" width="528.2" height="276.2"/></g>
<g id="yMinorGrid" stroke="rgb(200,220,255)" stroke-width="0.5"></g>
<g id="yMajorGrid" stroke="rgb(200,220,255)" stroke-width="1"></g>
<g id="xMinorGrid" stroke="rgb(200,220,255)" stroke-width="0.5"></g>
<g id="xMajorGrid" stroke="rgb(200,220,255)" stroke-width="1"></g>
<g id="yAxis" stroke="rgb(0,0,0)" stroke-width="1"><line x1="53.4" y1="62" x2="53.4" y2="343.2"/><line x1="53.4" y1="62" x2="53.4" y2="338.2"/></g>
<g id="xAxis" stroke="rgb(0,0,0)" stroke-width="1"><line x1="48.4" y1="338.2" x2="581.6" y2="338.2"/><line x1="48.4" y1="338.2" x2="581.6" y2="338.2"/></g>
<g id="yMinorTicks" stroke="rgb(0,0,0)" stroke-width="1"><path d="M51.4,324.6 L53.4,324.6 M51.4,311 L53.4,311 M51.4,297.5 L53.4,297.5 M51.4,283.9 L53.4,283.9 M51.4,256.7 L53.4,256.7 M51.4,243.1 L53.4,243.1 M51.4,229.6 L53.4,229.6 M51.4,216 L53.4,216 M51.4,188.8 L53.4,188.8 M51.4,175.2 L53.4,175.2 M51.4,161.7 L53.4,161.7 M51.4,148.1 L53.4,148.1 M51.4,120.9 L53.4,120.9 M51.4,107.3 L53.4,107.3 M51.4,93.76 L53.4,93.76 M51.4,80.18 L53.4,80.18 M51.4,338.2 L53.4,338.2 "/></g>
<g id="xMinorTicks" stroke="rgb(0,0,0)" stroke-width="1"><path d="M70.98,338.2 L70.98,340.2 M88.57,338.2 L88.57,340.2 M106.2,338.2 L106.2,340.2 M123.7,338.2 L123.7,340.2 M158.9,338.2 L158.9,340.2 M176.5,338.2 L176.5,340.2 M194.1,338.2 L194.1,340.2 M211.7,338.2 L211.7,340.2 M246.8,338.2 L246.8,340.2 M264.4,338.2 L264.4,340.2 M282,338.2 L282,340.2 M299.6,338.2 L299.6,340.2 M334.7,338.2 L334.7,340.2 M352.3,338.2 L352.3,340.2 M369.9,338.2 L369.9,340.2 M387.5,338.2 L387.5,340.2 M422.7,338.2 L422.7,340.2 M440.2,338.2 L440.2,340.2 M457.8,338.2 L457.8,340.2 M475.4,338.2 L475.4,340.2 M510.6,338.2 L510.6,340.2 M528.2,338.2 L528.2,340.2 M545.7,338.2 L545.7,340.2 M563.3,338.2 L563.3,340.2 "/></g>
<g id="yMajorTicks" stroke="rgb(0,0,0)" stroke-width="2"><path d="M48.4,338.2 L53.4,338.2 M48.4,270.3 L53.4,270.3 M48.4,202.4 L53.4,202.4 M48.4,134.5 L53.4,134.5 M48.4,66.6 L53.4,66.6 M48.4,338.2 L53.4,338.2 "/></g>
<g id="xMajorTicks" stroke="rgb(0,0,0)" stroke-width="2"><path d="M53.4,338.2 L53.4,343.2 M141.3,338.2 L141.3,343.2 M229.2,338.2 L229.2,343.2 M317.2,338.2 L317.2,343.2 M405.1,338.2 L405.1,343.2 M493,338.2 L493,343.2 M580.9,338.2 L580.9,343.2 "/></g>
<g id="plotLabels">
<text x="53.4" y="357.6" text-anchor="middle" font-size="12" font-family="Verdana">0</text>
<text x="141.3" y="357.6" text-anchor="middle" font-size="12" font-family="Verdana">0.5</text>
<text x="229.2" y="357.6" text-anchor="middle" font-size="12" font-family="Verdana">1</text>
<text x="317.2" y="357.6" text-anchor="middle" font-size="12" font-family="Verdana">1.5</text>
<text x="405.1" y="357.6" text-anchor="middle" font-size="12" font-family="Verdana">2</text>
<text x="493" y="357.6" text-anchor="middle" font-size="12" font-family="Verdana">2.5</text>
<text x="580.9" y="357.6" text-anchor="middle" font-size="12" font-family="Verdana">3</text>
<text x="42.4" y="340.6" text-anchor="end" font-size="12" font-family="Verdana">0</text>
<text x="42.4" y="272.7" text-anchor="end" font-size="12" font-family="Verdana">1</text>
<text x="42.4" y="204.8" text-anchor="end" font-size="12" font-family="Verdana">2</text>
<text x="42.4" y="136.9" text-anchor="end" font-size="12" font-family="Verdana">3</text>
<text x="42.4" y="69" text-anchor="end" font-size="12" font-family="Verdana">4</text>
<text x="42.4" y="340.6" text-anchor="end" font-size="12" font-family="Verdana">0</text></g>
<g id="yLabel">
<text x="30.2" y="200.1" text-anchor="middle" transform = "rotate(-90 30.2 200.1 )" font-size="14" font-family="Verdana">Probability</text></g>
<g id="xLabel">
<text x="317.5" y="384" text-anchor="middle" font-size="14" font-family="Verdana">Random Variable</text></g>
<g id="plotLines" stroke-width="2"><g clip-path="url(#plot_window)" stroke="rgb(0,0,139)" stroke-width="1"><path d="M53.4,-4.17e+078 L56.04,198.8 L58.68,224.4 L61.32,238 L63.96,247.1 L66.61,253.9 L69.25,259.3 L71.89,263.8 L74.53,267.7 L77.17,271 L79.81,273.9 L82.45,276.6 L85.09,278.9 L87.73,281.1 L90.37,283.1 L93.02,284.9 L95.66,286.6 L98.3,288.2 L100.9,289.7 L103.6,291 L106.2,292.4 L108.9,293.6 L111.5,294.8 L114.1,295.9 L116.8,296.9 L119.4,297.9 L122.1,298.9 L124.7,299.8 L127.3,300.7 L130,301.5 L132.6,302.3 L135.3,303.1 L137.9,303.9 L140.6,304.6 L143.2,305.3 L145.8,305.9 L148.5,306.6 L151.1,307.2 L153.8,307.8 L156.4,308.4 L159,309 L161.7,309.5 L164.3,310 L167,310.6 L169.6,311.1 L172.2,311.5 L174.9,312 L177.5,312.5 L180.2,312.9 L182.8,313.4 L185.5,313.8 L188.1,314.2 L190.7,314.6 L193.4,315 L196,315.4 L198.7,315.7 L201.3,316.1 L203.9,316.5 L206.6,316.8 L209.2,317.1 L211.9,317.5 L214.5,317.8 L217.1,318.1 L219.8,318.4 L222.4,318.7 L225.1,319 L227.7,319.3 L230.3,319.6 L233,319.9 L235.6,320.1 L238.3,320.4 L240.9,320.7 L243.6,320.9 L246.2,321.2 L248.8,321.4 L251.5,321.6 L254.1,321.9 L256.8,322.1 L259.4,322.3 L262,322.5 L264.7,322.8 L267.3,323 L270,323.2 L272.6,323.4 L275.2,323.6 L277.9,323.8 L280.5,324 L283.2,324.2 L285.8,324.4 L288.4,324.5 L291.1,324.7 L293.7,324.9 L296.4,325.1 L299,325.2 L301.7,325.4 L304.3,325.6 L306.9,325.7 L309.6,325.9 L312.2,326 L314.9,326.2 L317.5,326.4 L320.1,326.5 L322.8,326.7 L325.4,326.8 L328.1,326.9 L330.7,327.1 L333.3,327.2 L336,327.3 L338.6,327.5 L341.3,327.6 L343.9,327.7 L346.6,327.9 L349.2,328 L351.8,328.1 L354.5,328.2 L357.1,328.4 L359.8,328.5 L362.4,328.6 L365,328.7 L367.7,328.8 L370.3,328.9 L373,329 L375.6,329.1 L378.2,329.2 L380.9,329.3 L383.5,329.5 L386.2,329.6 L388.8,329.7 L391.4,329.7 L394.1,329.8 L396.7,329.9 L399.4,330 L402,330.1 L404.7,330.2 L407.3,330.3 L409.9,330.4 L412.6,330.5 L415.2,330.6 L417.9,330.7 L420.5,330.7 L423.1,330.8 L425.8,330.9 L428.4,331 L431.1,331.1 L433.7,331.1 L436.3,331.2 L439,331.3 L441.6,331.4 L444.3,331.4 L446.9,331.5 L449.5,331.6 L452.2,331.7 L454.8,331.7 L457.5,331.8 L460.1,331.9 L462.8,331.9 L465.4,332 L468,332.1 L470.7,332.1 L473.3,332.2 L476,332.3 L478.6,332.3 L481.2,332.4 L483.9,332.4 L486.5,332.5 L489.2,332.6 L491.8,332.6 L494.4,332.7 L497.1,332.7 L499.7,332.8 L502.4,332.9 L505,332.9 L507.7,333 L510.3,333 L512.9,333.1 L515.6,333.1 L518.2,333.2 L520.9,333.2 L523.5,333.3 L526.1,333.3 L528.8,333.4 L531.4,333.4 L534.1,333.5 L536.7,333.5 L539.3,333.6 L542,333.6 L544.6,333.7 L547.3,333.7 L549.9,333.8 L552.5,333.8 L555.2,333.8 L557.8,333.9 L560.5,333.9 L563.1,334 L565.8,334 L568.4,334.1 L571,334.1 L573.7,334.1 L576.3,334.2 L579,334.2 " fill="none"/></g>
<g clip-path="url(#plot_window)" stroke="rgb(139,0,0)" stroke-width="1"><path d="M53.4,270.3 L56.04,271.3 L58.68,272.3 L61.32,273.3 L63.96,274.3 L66.61,275.2 L69.25,276.2 L71.89,277.1 L74.53,278 L77.17,278.9 L79.81,279.8 L82.45,280.6 L85.09,281.5 L87.73,282.3 L90.37,283.2 L93.02,284 L95.66,284.8 L98.3,285.6 L100.9,286.4 L103.6,287.2 L106.2,287.9 L108.9,288.7 L111.5,289.4 L114.1,290.1 L116.8,290.8 L119.4,291.6 L122.1,292.3 L124.7,292.9 L127.3,293.6 L130,294.3 L132.6,294.9 L135.3,295.6 L137.9,296.2 L140.6,296.8 L143.2,297.5 L145.8,298.1 L148.5,298.7 L151.1,299.2 L153.8,299.8 L156.4,300.4 L159,301 L161.7,301.5 L164.3,302.1 L167,302.6 L169.6,303.1 L172.2,303.7 L174.9,304.2 L177.5,304.7 L180.2,305.2 L182.8,305.7 L185.5,306.2 L188.1,306.6 L190.7,307.1 L193.4,307.6 L196,308 L198.7,308.5 L201.3,308.9 L203.9,309.4 L206.6,309.8 L209.2,310.2 L211.9,310.6 L214.5,311 L217.1,311.4 L219.8,311.8 L222.4,312.2 L225.1,312.6 L227.7,313 L230.3,313.4 L233,313.7 L235.6,314.1 L238.3,314.5 L240.9,314.8 L243.6,315.2 L246.2,315.5 L248.8,315.9 L251.5,316.2 L254.1,316.5 L256.8,316.8 L259.4,317.2 L262,317.5 L264.7,317.8 L267.3,318.1 L270,318.4 L272.6,318.7 L275.2,319 L277.9,319.3 L280.5,319.5 L283.2,319.8 L285.8,320.1 L288.4,320.4 L291.1,320.6 L293.7,320.9 L296.4,321.1 L299,321.4 L301.7,321.7 L304.3,321.9 L306.9,322.1 L309.6,322.4 L312.2,322.6 L314.9,322.9 L317.5,323.1 L320.1,323.3 L322.8,323.5 L325.4,323.7 L328.1,324 L330.7,324.2 L333.3,324.4 L336,324.6 L338.6,324.8 L341.3,325 L343.9,325.2 L346.6,325.4 L349.2,325.6 L351.8,325.8 L354.5,325.9 L357.1,326.1 L359.8,326.3 L362.4,326.5 L365,326.7 L367.7,326.8 L370.3,327 L373,327.2 L375.6,327.3 L378.2,327.5 L380.9,327.7 L383.5,327.8 L386.2,328 L388.8,328.1 L391.4,328.3 L394.1,328.4 L396.7,328.6 L399.4,328.7 L402,328.8 L404.7,329 L407.3,329.1 L409.9,329.3 L412.6,329.4 L415.2,329.5 L417.9,329.7 L420.5,329.8 L423.1,329.9 L425.8,330 L428.4,330.2 L431.1,330.3 L433.7,330.4 L436.3,330.5 L439,330.6 L441.6,330.7 L444.3,330.8 L446.9,331 L449.5,331.1 L452.2,331.2 L454.8,331.3 L457.5,331.4 L460.1,331.5 L462.8,331.6 L465.4,331.7 L468,331.8 L470.7,331.9 L473.3,332 L476,332.1 L478.6,332.2 L481.2,332.2 L483.9,332.3 L486.5,332.4 L489.2,332.5 L491.8,332.6 L494.4,332.7 L497.1,332.8 L499.7,332.8 L502.4,332.9 L505,333 L507.7,333.1 L510.3,333.1 L512.9,333.2 L515.6,333.3 L518.2,333.4 L520.9,333.4 L523.5,333.5 L526.1,333.6 L528.8,333.7 L531.4,333.7 L534.1,333.8 L536.7,333.9 L539.3,333.9 L542,334 L544.6,334 L547.3,334.1 L549.9,334.2 L552.5,334.2 L555.2,334.3 L557.8,334.3 L560.5,334.4 L563.1,334.5 L565.8,334.5 L568.4,334.6 L571,334.6 L573.7,334.7 L576.3,334.7 L579,334.8 " fill="none"/></g>
<g clip-path="url(#plot_window)" stroke="rgb(0,100,0)" stroke-width="1"><path d="M53.4,338.2 L56.04,338.2 L58.68,338.2 L61.32,338.2 L63.96,338.2 L66.61,338.2 L69.25,338.2 L71.89,338.2 L74.53,338.1 L77.17,338.1 L79.81,338 L82.45,337.9 L85.09,337.8 L87.73,337.7 L90.37,337.5 L93.02,337.3 L95.66,337.1 L98.3,336.8 L100.9,336.4 L103.6,336 L106.2,335.4 L108.9,334.9 L111.5,334.2 L114.1,333.4 L116.8,332.5 L119.4,331.5 L122.1,330.4 L124.7,329.1 L127.3,327.7 L130,326.2 L132.6,324.5 L135.3,322.6 L137.9,320.5 L140.6,318.3 L143.2,315.9 L145.8,313.3 L148.5,310.5 L151.1,307.5 L153.8,304.3 L156.4,300.9 L159,297.3 L161.7,293.5 L164.3,289.5 L167,285.4 L169.6,281.1 L172.2,276.7 L174.9,272.1 L177.5,267.4 L180.2,262.7 L182.8,257.9 L185.5,253.2 L188.1,248.4 L190.7,243.7 L193.4,239.2 L196,234.8 L198.7,230.6 L201.3,226.7 L203.9,223.1 L206.6,219.8 L209.2,217 L211.9,214.6 L214.5,212.8 L217.1,211.5 L219.8,210.7 L222.4,210.6 L225.1,211.2 L227.7,212.3 L230.3,214.2 L233,216.6 L235.6,219.7 L238.3,223.4 L240.9,227.6 L243.6,232.4 L246.2,237.6 L248.8,243.2 L251.5,249.1 L254.1,255.2 L256.8,261.5 L259.4,267.8 L262,274.2 L264.7,280.4 L267.3,286.5 L270,292.3 L272.6,297.8 L275.2,303 L277.9,307.8 L280.5,312.3 L283.2,316.3 L285.8,319.9 L288.4,323 L291.1,325.8 L293.7,328.2 L296.4,330.2 L299,331.9 L301.7,333.3 L304.3,334.4 L306.9,335.3 L309.6,336 L312.2,336.6 L314.9,337 L317.5,337.4 L320.1,337.6 L322.8,337.8 L325.4,337.9 L328.1,338 L330.7,338.1 L333.3,338.1 L336,338.2 L338.6,338.2 L341.3,338.2 L343.9,338.2 L346.6,338.2 L349.2,338.2 L351.8,338.2 L354.5,338.2 L357.1,338.2 L359.8,338.2 L362.4,338.2 L365,338.2 L367.7,338.2 L370.3,338.2 L373,338.2 L375.6,338.2 L378.2,338.2 L380.9,338.2 L383.5,338.2 L386.2,338.2 L388.8,338.2 L391.4,338.2 L394.1,338.2 L396.7,338.2 L399.4,338.2 L402,338.2 L404.7,338.2 L407.3,338.2 L409.9,338.2 L412.6,338.2 L415.2,338.2 L417.9,338.2 L420.5,338.2 L423.1,338.2 L425.8,338.2 L428.4,338.2 L431.1,338.2 L433.7,338.2 L436.3,338.2 L439,338.2 L441.6,338.2 L444.3,338.2 L446.9,338.2 L449.5,338.2 L452.2,338.2 L454.8,338.2 L457.5,338.2 L460.1,338.2 L462.8,338.2 L465.4,338.2 L468,338.2 L470.7,338.2 L473.3,338.2 L476,338.2 L478.6,338.2 L481.2,338.2 L483.9,338.2 L486.5,338.2 L489.2,338.2 L491.8,338.2 L494.4,338.2 L497.1,338.2 L499.7,338.2 L502.4,338.2 L505,338.2 L507.7,338.2 L510.3,338.2 L512.9,338.2 L515.6,338.2 L518.2,338.2 L520.9,338.2 L523.5,338.2 L526.1,338.2 L528.8,338.2 L531.4,338.2 L534.1,338.2 L536.7,338.2 L539.3,338.2 L542,338.2 L544.6,338.2 L547.3,338.2 L549.9,338.2 L552.5,338.2 L555.2,338.2 L557.8,338.2 L560.5,338.2 L563.1,338.2 L565.8,338.2 L568.4,338.2 L571,338.2 L573.7,338.2 L576.3,338.2 L579,338.2 " fill="none"/></g>
<g clip-path="url(#plot_window)" stroke="rgb(255,140,0)" stroke-width="1"><path d="M53.4,338.2 L56.04,338.2 L58.68,338.2 L61.32,338.2 L63.96,338.2 L66.61,338.2 L69.25,338.2 L71.89,338.2 L74.53,338.2 L77.17,338.2 L79.81,338.2 L82.45,338.2 L85.09,338.2 L87.73,338.2 L90.37,338.2 L93.02,338.2 L95.66,338.2 L98.3,338.2 L100.9,338.2 L103.6,338.2 L106.2,338.2 L108.9,338.2 L111.5,338.2 L114.1,338.2 L116.8,338.1 L119.4,338.1 L122.1,338.1 L124.7,338 L127.3,337.9 L130,337.8 L132.6,337.7 L135.3,337.5 L137.9,337.3 L140.6,337 L143.2,336.6 L145.8,336.1 L148.5,335.5 L151.1,334.8 L153.8,333.9 L156.4,332.7 L159,331.3 L161.7,329.6 L164.3,327.6 L167,325.1 L169.6,322.1 L172.2,318.6 L174.9,314.4 L177.5,309.5 L180.2,303.8 L182.8,297.1 L185.5,289.5 L188.1,280.7 L190.7,270.7 L193.4,259.5 L196,247 L198.7,233.3 L201.3,218.4 L203.9,202.4 L206.6,185.7 L209.2,168.4 L211.9,151.2 L214.5,134.6 L217.1,119.2 L219.8,105.9 L222.4,95.59 L225.1,89.06 L227.7,87.15 L230.3,90.48 L233,99.42 L235.6,113.9 L238.3,133.6 L240.9,157.4 L243.6,184.1 L246.2,212 L248.8,239.3 L251.5,264.4 L254.1,286 L256.8,303.4 L259.4,316.6 L262,325.7 L264.7,331.5 L267.3,334.9 L270,336.8 L272.6,337.6 L275.2,338 L277.9,338.1 L280.5,338.2 L283.2,338.2 L285.8,338.2 L288.4,338.2 L291.1,338.2 L293.7,338.2 L296.4,338.2 L299,338.2 L301.7,338.2 L304.3,338.2 L306.9,338.2 L309.6,338.2 L312.2,338.2 L314.9,338.2 L317.5,338.2 L320.1,338.2 L322.8,338.2 L325.4,338.2 L328.1,338.2 L330.7,338.2 L333.3,338.2 L336,338.2 L338.6,338.2 L341.3,338.2 L343.9,338.2 L346.6,338.2 L349.2,338.2 L351.8,338.2 L354.5,338.2 L357.1,338.2 L359.8,338.2 L362.4,338.2 L365,338.2 L367.7,338.2 L370.3,338.2 L373,338.2 L375.6,338.2 L378.2,338.2 L380.9,338.2 L383.5,338.2 L386.2,338.2 L388.8,338.2 L391.4,338.2 L394.1,338.2 L396.7,338.2 L399.4,338.2 L402,338.2 L404.7,338.2 L407.3,338.2 L409.9,338.2 L412.6,338.2 L415.2,338.2 L417.9,338.2 L420.5,338.2 L423.1,338.2 L425.8,338.2 L428.4,338.2 L431.1,338.2 L433.7,338.2 L436.3,338.2 L439,338.2 L441.6,338.2 L444.3,338.2 L446.9,338.2 L449.5,338.2 L452.2,338.2 L454.8,338.2 L457.5,338.2 L460.1,338.2 L462.8,338.2 L465.4,338.2 L468,338.2 L470.7,338.2 L473.3,338.2 L476,338.2 L478.6,338.2 L481.2,338.2 L483.9,338.2 L486.5,338.2 L489.2,338.2 L491.8,338.2 L494.4,338.2 L497.1,338.2 L499.7,338.2 L502.4,338.2 L505,338.2 L507.7,338.2 L510.3,338.2 L512.9,338.2 L515.6,338.2 L518.2,338.2 L520.9,338.2 L523.5,338.2 L526.1,338.2 L528.8,338.2 L531.4,338.2 L534.1,338.2 L536.7,338.2 L539.3,338.2 L542,338.2 L544.6,338.2 L547.3,338.2 L549.9,338.2 L552.5,338.2 L555.2,338.2 L557.8,338.2 L560.5,338.2 L563.1,338.2 L565.8,338.2 L568.4,338.2 L571,338.2 L573.7,338.2 L576.3,338.2 L579,338.2 " fill="none"/></g>
</g>
<g id="plotPoints" clip-path="url(#plot_window)"><g stroke="rgb(0,0,0)"></g>
<g stroke="rgb(0,0,0)"></g>
<g stroke="rgb(0,0,0)"></g>
<g stroke="rgb(0,0,0)"></g>
</g>
<g id="limitPoints" stroke="rgb(119,136,153)" fill="rgb(250,235,215)"></g>
<g id="legendBackground" stroke="rgb(119,136,153)" fill="rgb(255,255,255)" stroke-width="1"><rect x="595.6" y="62" width="142.4" height="135"/><rect x="595.6" y="62" width="142.4" height="135"/></g>
<g id="legendPoints"><g stroke="rgb(0,0,139)" stroke-width="1"><line x1="610.6" y1="92" x2="625.6" y2="92"/></g>
<g stroke="rgb(139,0,0)" stroke-width="1"><line x1="610.6" y1="122" x2="625.6" y2="122"/></g>
<g stroke="rgb(0,100,0)" stroke-width="1"><line x1="610.6" y1="152" x2="625.6" y2="152"/></g>
<g stroke="rgb(255,140,0)" stroke-width="1"><line x1="610.6" y1="182" x2="625.6" y2="182"/></g>
</g>
<g id="legendText">
<text x="633.1" y="92" font-size="15" font-family="Verdana">shape=0.75</text>
<text x="633.1" y="122" font-size="15" font-family="Verdana">shape=1</text>
<text x="633.1" y="152" font-size="15" font-family="Verdana">shape=5</text>
<text x="633.1" y="182" font-size="15" font-family="Verdana">shape=10</text></g>
<g id="title">
<text x="375" y="40" text-anchor="middle" font-size="20" font-family="Verdana">Weibull Distribution PDF (scale=1)</text></g>
</svg>
