<?xml version="1.0" encoding="UTF-8" standalone="no"?>
<svg width="750" height ="400" version="1.1" xmlns="http://www.w3.org/2000/svg"
 xmlns:xlink="http://www.w3.org/1999/xlink"
 xmlns:ev="http://www.w3.org/2001/xml-events">

<!-- SVG plot written using Boost.Plot program (Creator Jacob Voytko) --> 
<!-- Use, modification and distribution of Boost.Plot subject to the --> 
<!-- Boost Software License, Version 1.0.--> 
<!-- (See accompanying file LICENSE_1_0.txt --> 
<!-- or copy at http://www.boost.org/LICENSE_1_0.txt) --> 

<clipPath id="plot_window"><rect x="71.2" y="63" width="517.2" height="274.2"/></clipPath>
<g id="imageBackground" stroke="rgb(119,136,153)" fill="rgb(255,255,255)" stroke-width="2"><rect x="0" y="0" width="750" height="400"/></g>
<g id="plotBackground" stroke="rgb(119,136,153)" fill="rgb(255,255,255)" stroke-width="2"><rect x="70.2" y="62" width="519.2" height="276.2"/></g>
<g id="yMinorGrid" stroke="rgb(200,220,255)" stroke-width="0.5"></g>
<g id="yMajorGrid" stroke="rgb(200,220,255)" stroke-width="1"></g>
<g id="xMinorGrid" stroke="rgb(200,220,255)" stroke-width="0.5"></g>
<g id="xMajorGrid" stroke="rgb(200,220,255)" stroke-width="1"></g>
<g id="yAxis" stroke="rgb(0,0,0)" stroke-width="1"><line x1="70.2" y1="62" x2="70.2" y2="343.2"/><line x1="70.2" y1="62" x2="70.2" y2="338.2"/></g>
<g id="xAxis" stroke="rgb(0,0,0)" stroke-width="1"><line x1="65.2" y1="338.2" x2="589.4" y2="338.2"/><line x1="65.2" y1="338.2" x2="589.4" y2="338.2"/></g>
<g id="yMinorTicks" stroke="rgb(0,0,0)" stroke-width="1"><path d="M68.2,327.5 L70.2,327.5 M68.2,316.8 L70.2,316.8 M68.2,306.2 L70.2,306.2 M68.2,295.5 L70.2,295.5 M68.2,274.1 L70.2,274.1 M68.2,263.4 L70.2,263.4 M68.2,252.8 L70.2,252.8 M68.2,242.1 L70.2,242.1 M68.2,220.7 L70.2,220.7 M68.2,210 L70.2,210 M68.2,199.3 L70.2,199.3 M68.2,188.7 L70.2,188.7 M68.2,167.3 L70.2,167.3 M68.2,156.6 L70.2,156.6 M68.2,145.9 L70.2,145.9 M68.2,135.3 L70.2,135.3 M68.2,113.9 L70.2,113.9 M68.2,103.2 L70.2,103.2 M68.2,92.54 L70.2,92.54 M68.2,81.86 L70.2,81.86 M68.2,338.2 L70.2,338.2 "/></g>
<g id="xMinorTicks" stroke="rgb(0,0,0)" stroke-width="1"><path d="M100.6,338.2 L100.6,340.2 M130.9,338.2 L130.9,340.2 M161.3,338.2 L161.3,340.2 M191.6,338.2 L191.6,340.2 M252.4,338.2 L252.4,340.2 M282.7,338.2 L282.7,340.2 M313.1,338.2 L313.1,340.2 M343.4,338.2 L343.4,340.2 M404.2,338.2 L404.2,340.2 M434.5,338.2 L434.5,340.2 M464.9,338.2 L464.9,340.2 M495.2,338.2 L495.2,340.2 M556,338.2 L556,340.2 M586.3,338.2 L586.3,340.2 "/></g>
<g id="yMajorTicks" stroke="rgb(0,0,0)" stroke-width="2"><path d="M65.2,338.2 L70.2,338.2 M65.2,284.8 L70.2,284.8 M65.2,231.4 L70.2,231.4 M65.2,178 L70.2,178 M65.2,124.6 L70.2,124.6 M65.2,71.18 L70.2,71.18 M65.2,338.2 L70.2,338.2 "/></g>
<g id="xMajorTicks" stroke="rgb(0,0,0)" stroke-width="2"><path d="M70.2,338.2 L70.2,343.2 M222,338.2 L222,343.2 M373.8,338.2 L373.8,343.2 M525.6,338.2 L525.6,343.2 "/></g>
<g id="plotLabels">
<text x="70.2" y="357.6" text-anchor="middle" font-size="12" font-family="Verdana">0</text>
<text x="222" y="357.6" text-anchor="middle" font-size="12" font-family="Verdana">1</text>
<text x="373.8" y="357.6" text-anchor="middle" font-size="12" font-family="Verdana">2</text>
<text x="525.6" y="357.6" text-anchor="middle" font-size="12" font-family="Verdana">3</text>
<text x="59.2" y="340.6" text-anchor="end" font-size="12" font-family="Verdana">0</text>
<text x="59.2" y="287.2" text-anchor="end" font-size="12" font-family="Verdana">0.5</text>
<text x="59.2" y="233.8" text-anchor="end" font-size="12" font-family="Verdana">1</text>
<text x="59.2" y="180.4" text-anchor="end" font-size="12" font-family="Verdana">1.5</text>
<text x="59.2" y="127" text-anchor="end" font-size="12" font-family="Verdana">2</text>
<text x="59.2" y="73.58" text-anchor="end" font-size="12" font-family="Verdana">2.5</text>
<text x="59.2" y="340.6" text-anchor="end" font-size="12" font-family="Verdana">0</text></g>
<g id="yLabel">
<text x="30.2" y="200.1" text-anchor="middle" transform = "rotate(-90 30.2 200.1 )" font-size="14" font-family="Verdana">Probability</text></g>
<g id="xLabel">
<text x="329.8" y="384" text-anchor="middle" font-size="14" font-family="Verdana">Random Variable</text></g>
<g id="plotLines" stroke-width="2"><g clip-path="url(#plot_window)" stroke="rgb(0,0,139)" stroke-width="1"><path d="M70.2,338.2 L72.8,337.5 L75.39,335.2 L77.99,331.5 L80.58,326.2 L83.18,319.5 L85.78,311.4 L88.37,302 L90.97,291.2 L93.57,279.2 L96.16,266.2 L98.76,252.2 L101.4,237.4 L104,222.2 L106.5,206.5 L109.1,190.8 L111.7,175.3 L114.3,160.2 L116.9,145.8 L119.5,132.5 L122.1,120.5 L124.7,109.9 L127.3,101.2 L129.9,94.46 L132.5,89.83 L135.1,87.45 L137.7,87.35 L140.3,89.56 L142.9,94.01 L145.5,100.6 L148.1,109.2 L150.7,119.5 L153.3,131.3 L155.9,144.4 L158.5,158.4 L161.1,173 L163.7,188 L166.3,203 L168.9,217.7 L171.5,232 L174,245.6 L176.6,258.3 L179.2,270 L181.8,280.7 L184.4,290.2 L187,298.6 L189.6,305.9 L192.2,312.2 L194.8,317.5 L197.4,322 L200,325.6 L202.6,328.5 L205.2,330.9 L207.8,332.8 L210.4,334.2 L213,335.3 L215.6,336.1 L218.2,336.7 L220.8,337.2 L223.4,337.5 L226,337.7 L228.6,337.9 L231.2,338 L233.8,338.1 L236.4,338.1 L239,338.1 L241.5,338.2 L244.1,338.2 L246.7,338.2 L249.3,338.2 L251.9,338.2 L254.5,338.2 L257.1,338.2 L259.7,338.2 L262.3,338.2 L264.9,338.2 L267.5,338.2 L270.1,338.2 L272.7,338.2 L275.3,338.2 L277.9,338.2 L280.5,338.2 L283.1,338.2 L285.7,338.2 L288.3,338.2 L290.9,338.2 L293.5,338.2 L296.1,338.2 L298.7,338.2 L301.3,338.2 L303.9,338.2 L306.5,338.2 L309.1,338.2 L311.6,338.2 L314.2,338.2 L316.8,338.2 L319.4,338.2 L322,338.2 L324.6,338.2 L327.2,338.2 L329.8,338.2 L332.4,338.2 L335,338.2 L337.6,338.2 L340.2,338.2 L342.8,338.2 L345.4,338.2 L348,338.2 L350.6,338.2 L353.2,338.2 L355.8,338.2 L358.4,338.2 L361,338.2 L363.6,338.2 L366.2,338.2 L368.8,338.2 L371.4,338.2 L374,338.2 L376.6,338.2 L379.1,338.2 L381.7,338.2 L384.3,338.2 L386.9,338.2 L389.5,338.2 L392.1,338.2 L394.7,338.2 L397.3,338.2 L399.9,338.2 L402.5,338.2 L405.1,338.2 L407.7,338.2 L410.3,338.2 L412.9,338.2 L415.5,338.2 L418.1,338.2 L420.7,338.2 L423.3,338.2 L425.9,338.2 L428.5,338.2 L431.1,338.2 L433.7,338.2 L436.3,338.2 L438.9,338.2 L441.5,338.2 L444.1,338.2 L446.6,338.2 L449.2,338.2 L451.8,338.2 L454.4,338.2 L457,338.2 L459.6,338.2 L462.2,338.2 L464.8,338.2 L467.4,338.2 L470,338.2 L472.6,338.2 L475.2,338.2 L477.8,338.2 L480.4,338.2 L483,338.2 L485.6,338.2 L488.2,338.2 L490.8,338.2 L493.4,338.2 L496,338.2 L498.6,338.2 L501.2,338.2 L503.8,338.2 L506.4,338.2 L509,338.2 L511.6,338.2 L514.2,338.2 L516.7,338.2 L519.3,338.2 L521.9,338.2 L524.5,338.2 L527.1,338.2 L529.7,338.2 L532.3,338.2 L534.9,338.2 L537.5,338.2 L540.1,338.2 L542.7,338.2 L545.3,338.2 L547.9,338.2 L550.5,338.2 L553.1,338.2 L555.7,338.2 L558.3,338.2 L560.9,338.2 L563.5,338.2 L566.1,338.2 L568.7,338.2 L571.3,338.2 L573.9,338.2 L576.5,338.2 L579.1,338.2 L581.7,338.2 L584.2,338.2 L586.8,338.2 " fill="none"/></g>
<g clip-path="url(#plot_window)" stroke="rgb(139,0,0)" stroke-width="1"><path d="M70.2,338.2 L72.8,338.1 L75.39,337.8 L77.99,337.4 L80.58,336.7 L83.18,335.9 L85.78,334.8 L88.37,333.6 L90.97,332.2 L93.57,330.6 L96.16,328.9 L98.76,326.9 L101.4,324.8 L104,322.5 L106.5,320.1 L109.1,317.5 L111.7,314.7 L114.3,311.8 L116.9,308.7 L119.5,305.5 L122.1,302.2 L124.7,298.7 L127.3,295.2 L129.9,291.5 L132.5,287.8 L135.1,284 L137.7,280.2 L140.3,276.3 L142.9,272.4 L145.5,268.4 L148.1,264.5 L150.7,260.6 L153.3,256.7 L155.9,252.9 L158.5,249.2 L161.1,245.6 L163.7,242 L166.3,238.6 L168.9,235.4 L171.5,232.2 L174,229.3 L176.6,226.6 L179.2,224.1 L181.8,221.8 L184.4,219.7 L187,217.9 L189.6,216.3 L192.2,215 L194.8,214 L197.4,213.3 L200,212.8 L202.6,212.7 L205.2,212.8 L207.8,213.2 L210.4,213.9 L213,214.9 L215.6,216.1 L218.2,217.6 L220.8,219.4 L223.4,221.4 L226,223.7 L228.6,226.2 L231.2,228.8 L233.8,231.7 L236.4,234.8 L239,238 L241.5,241.3 L244.1,244.7 L246.7,248.3 L249.3,251.9 L251.9,255.6 L254.5,259.4 L257.1,263.1 L259.7,266.9 L262.3,270.6 L264.9,274.3 L267.5,278 L270.1,281.6 L272.7,285.1 L275.3,288.5 L277.9,291.9 L280.5,295.1 L283.1,298.2 L285.7,301.2 L288.3,304.1 L290.9,306.8 L293.5,309.4 L296.1,311.9 L298.7,314.2 L301.3,316.4 L303.9,318.4 L306.5,320.3 L309.1,322.1 L311.6,323.7 L314.2,325.2 L316.8,326.6 L319.4,327.9 L322,329 L324.6,330.1 L327.2,331 L329.8,331.9 L332.4,332.7 L335,333.4 L337.6,334 L340.2,334.6 L342.8,335 L345.4,335.5 L348,335.9 L350.6,336.2 L353.2,336.5 L355.8,336.7 L358.4,337 L361,337.2 L363.6,337.3 L366.2,337.5 L368.8,337.6 L371.4,337.7 L374,337.8 L376.6,337.8 L379.1,337.9 L381.7,338 L384.3,338 L386.9,338 L389.5,338.1 L392.1,338.1 L394.7,338.1 L397.3,338.1 L399.9,338.1 L402.5,338.2 L405.1,338.2 L407.7,338.2 L410.3,338.2 L412.9,338.2 L415.5,338.2 L418.1,338.2 L420.7,338.2 L423.3,338.2 L425.9,338.2 L428.5,338.2 L431.1,338.2 L433.7,338.2 L436.3,338.2 L438.9,338.2 L441.5,338.2 L444.1,338.2 L446.6,338.2 L449.2,338.2 L451.8,338.2 L454.4,338.2 L457,338.2 L459.6,338.2 L462.2,338.2 L464.8,338.2 L467.4,338.2 L470,338.2 L472.6,338.2 L475.2,338.2 L477.8,338.2 L480.4,338.2 L483,338.2 L485.6,338.2 L488.2,338.2 L490.8,338.2 L493.4,338.2 L496,338.2 L498.6,338.2 L501.2,338.2 L503.8,338.2 L506.4,338.2 L509,338.2 L511.6,338.2 L514.2,338.2 L516.7,338.2 L519.3,338.2 L521.9,338.2 L524.5,338.2 L527.1,338.2 L529.7,338.2 L532.3,338.2 L534.9,338.2 L537.5,338.2 L540.1,338.2 L542.7,338.2 L545.3,338.2 L547.9,338.2 L550.5,338.2 L553.1,338.2 L555.7,338.2 L558.3,338.2 L560.9,338.2 L563.5,338.2 L566.1,338.2 L568.7,338.2 L571.3,338.2 L573.9,338.2 L576.5,338.2 L579.1,338.2 L581.7,338.2 L584.2,338.2 L586.8,338.2 " fill="none"/></g>
<g clip-path="url(#plot_window)" stroke="rgb(0,100,0)" stroke-width="1"><path d="M70.2,338.2 L72.8,338.2 L75.39,338.2 L77.99,338.1 L80.58,338 L83.18,337.9 L85.78,337.8 L88.37,337.6 L90.97,337.5 L93.57,337.3 L96.16,337 L98.76,336.8 L101.4,336.5 L104,336.2 L106.5,335.9 L109.1,335.6 L111.7,335.2 L114.3,334.8 L116.9,334.4 L119.5,334 L122.1,333.5 L124.7,333.1 L127.3,332.6 L129.9,332 L132.5,331.5 L135.1,330.9 L137.7,330.4 L140.3,329.8 L142.9,329.1 L145.5,328.5 L148.1,327.8 L150.7,327.1 L153.3,326.4 L155.9,325.7 L158.5,325 L161.1,324.2 L163.7,323.5 L166.3,322.7 L168.9,321.9 L171.5,321 L174,320.2 L176.6,319.3 L179.2,318.5 L181.8,317.6 L184.4,316.7 L187,315.8 L189.6,314.9 L192.2,313.9 L194.8,313 L197.4,312.1 L200,311.1 L202.6,310.2 L205.2,309.2 L207.8,308.2 L210.4,307.2 L213,306.3 L215.6,305.3 L218.2,304.3 L220.8,303.3 L223.4,302.3 L226,301.4 L228.6,300.4 L231.2,299.4 L233.8,298.4 L236.4,297.5 L239,296.5 L241.5,295.6 L244.1,294.6 L246.7,293.7 L249.3,292.8 L251.9,291.9 L254.5,291 L257.1,290.1 L259.7,289.2 L262.3,288.4 L264.9,287.6 L267.5,286.8 L270.1,286 L272.7,285.2 L275.3,284.5 L277.9,283.8 L280.5,283.1 L283.1,282.4 L285.7,281.8 L288.3,281.1 L290.9,280.5 L293.5,280 L296.1,279.5 L298.7,279 L301.3,278.5 L303.9,278 L306.5,277.6 L309.1,277.3 L311.6,276.9 L314.2,276.6 L316.8,276.3 L319.4,276.1 L322,275.9 L324.6,275.7 L327.2,275.6 L329.8,275.5 L332.4,275.5 L335,275.4 L337.6,275.4 L340.2,275.5 L342.8,275.6 L345.4,275.7 L348,275.8 L350.6,276 L353.2,276.3 L355.8,276.5 L358.4,276.8 L361,277.2 L363.6,277.5 L366.2,277.9 L368.8,278.3 L371.4,278.8 L374,279.3 L376.6,279.8 L379.1,280.4 L381.7,280.9 L384.3,281.5 L386.9,282.2 L389.5,282.8 L392.1,283.5 L394.7,284.2 L397.3,285 L399.9,285.7 L402.5,286.5 L405.1,287.3 L407.7,288.1 L410.3,288.9 L412.9,289.7 L415.5,290.6 L418.1,291.5 L420.7,292.4 L423.3,293.3 L425.9,294.2 L428.5,295.1 L431.1,296 L433.7,296.9 L436.3,297.8 L438.9,298.8 L441.5,299.7 L444.1,300.7 L446.6,301.6 L449.2,302.5 L451.8,303.5 L454.4,304.4 L457,305.3 L459.6,306.3 L462.2,307.2 L464.8,308.1 L467.4,309 L470,309.9 L472.6,310.8 L475.2,311.7 L477.8,312.5 L480.4,313.4 L483,314.2 L485.6,315 L488.2,315.9 L490.8,316.7 L493.4,317.4 L496,318.2 L498.6,319 L501.2,319.7 L503.8,320.4 L506.4,321.2 L509,321.8 L511.6,322.5 L514.2,323.2 L516.7,323.8 L519.3,324.4 L521.9,325 L524.5,325.6 L527.1,326.2 L529.7,326.7 L532.3,327.3 L534.9,327.8 L537.5,328.3 L540.1,328.8 L542.7,329.3 L545.3,329.7 L547.9,330.1 L550.5,330.6 L553.1,331 L555.7,331.3 L558.3,331.7 L560.9,332.1 L563.5,332.4 L566.1,332.7 L568.7,333 L571.3,333.3 L573.9,333.6 L576.5,333.9 L579.1,334.1 L581.7,334.4 L584.2,334.6 L586.8,334.8 " fill="none"/></g>
</g>
<g id="plotPoints" clip-path="url(#plot_window)"><g stroke="rgb(0,0,0)"></g>
<g stroke="rgb(0,0,0)"></g>
<g stroke="rgb(0,0,0)"></g>
</g>
<g id="limitPoints" stroke="rgb(119,136,153)" fill="rgb(250,235,215)"></g>
<g id="legendBackground" stroke="rgb(119,136,153)" fill="rgb(255,255,255)" stroke-width="1"><rect x="603.4" y="62" width="134.6" height="105"/><rect x="603.4" y="62" width="134.6" height="105"/></g>
<g id="legendPoints"><g stroke="rgb(0,0,139)" stroke-width="1"><line x1="618.4" y1="92" x2="633.4" y2="92"/></g>
<g stroke="rgb(139,0,0)" stroke-width="1"><line x1="618.4" y1="122" x2="633.4" y2="122"/></g>
<g stroke="rgb(0,100,0)" stroke-width="1"><line x1="618.4" y1="152" x2="633.4" y2="152"/></g>
</g>
<g id="legendText">
<text x="640.9" y="92" font-size="15" font-family="Verdana">scale=0.5</text>
<text x="640.9" y="122" font-size="15" font-family="Verdana">scale=1</text>
<text x="640.9" y="152" font-size="15" font-family="Verdana">scale=2</text></g>
<g id="title">
<text x="375" y="40" text-anchor="middle" font-size="20" font-family="Verdana">Weibull Distribution PDF (shape=3)</text></g>
</svg>
