<?xml version="1.0" encoding="UTF-8" standalone="no"?>
<svg width="600" height ="400" version="1.1" xmlns="http://www.w3.org/2000/svg"
 xmlns:xlink="http://www.w3.org/1999/xlink"
 xmlns:ev="http://www.w3.org/2001/xml-events">

<!-- SVG plot written using Boost.Plot program (Creator Jacob Voytko) --> 
<!-- Use, modification and distribution of Boost.Plot subject to the --> 
<!-- Boost Software License, Version 1.0.--> 
<!-- (See accompanying file LICENSE_1_0.txt --> 
<!-- or copy at http://www.boost.org/LICENSE_1_0.txt) --> 

<!-- SVG Plot Copyright John Maddock 2008 --> 
<meta name="copyright" content="John Maddock" />
<meta name="date" content="2008" />
<!-- Use, modification and distribution of this Scalable Vector Graphic file -->
<!-- are subject to the Boost Software License, Version 1.0. -->
<!-- (See accompanying file LICENSE_1_0.txt or copy at http://www.boost.org/LICENSE_1_0.txt) -->

<clipPath id="plot_window"><rect x="62.8" y="63" width="524.2" height="274.2"/></clipPath>
<g id="imageBackground" stroke="rgb(119,136,153)" fill="rgb(255,255,255)" stroke-width="2"><rect x="0" y="0" width="600" height="400"/></g>
<g id="plotBackground" stroke="rgb(119,136,153)" fill="rgb(255,255,255)" stroke-width="2"><rect x="61.8" y="62" width="526.2" height="276.2"/></g>
<g id="yMinorGrid" stroke="rgb(200,220,255)" stroke-width="0.5"></g>
<g id="yMajorGrid" stroke="rgb(200,220,255)" stroke-width="1"></g>
<g id="xMinorGrid" stroke="rgb(200,220,255)" stroke-width="0.5"></g>
<g id="xMajorGrid" stroke="rgb(200,220,255)" stroke-width="1"></g>
<g id="yAxis" stroke="rgb(0,0,0)" stroke-width="1"><line x1="405.7" y1="62" x2="405.7" y2="343.2"/><line x1="61.8" y1="62" x2="61.8" y2="338.2"/></g>
<g id="xAxis" stroke="rgb(0,0,0)" stroke-width="1"><line x1="56.8" y1="297.1" x2="588" y2="297.1"/><line x1="56.8" y1="338.2" x2="588" y2="338.2"/></g>
<g id="yMinorTicks" stroke="rgb(0,0,0)" stroke-width="1"><path d="M59.8,282.8 L61.8,282.8 M59.8,268.4 L61.8,268.4 M59.8,254.1 L61.8,254.1 M59.8,225.3 L61.8,225.3 M59.8,211 L61.8,211 M59.8,196.6 L61.8,196.6 M59.8,167.9 L61.8,167.9 M59.8,153.6 L61.8,153.6 M59.8,139.2 L61.8,139.2 M59.8,110.5 L61.8,110.5 M59.8,96.13 L61.8,96.13 M59.8,81.77 L61.8,81.77 M59.8,297.1 L61.8,297.1 M59.8,311.5 L61.8,311.5 M59.8,325.8 L61.8,325.8 "/></g>
<g id="xMinorTicks" stroke="rgb(0,0,0)" stroke-width="1"><path d="M427.2,338.2 L427.2,340.2 M448.7,338.2 L448.7,340.2 M470.2,338.2 L470.2,340.2 M513.2,338.2 L513.2,340.2 M534.7,338.2 L534.7,340.2 M556.2,338.2 L556.2,340.2 M384.2,338.2 L384.2,340.2 M362.7,338.2 L362.7,340.2 M341.2,338.2 L341.2,340.2 M298.2,338.2 L298.2,340.2 M276.8,338.2 L276.8,340.2 M255.3,338.2 L255.3,340.2 M212.3,338.2 L212.3,340.2 M190.8,338.2 L190.8,340.2 M169.3,338.2 L169.3,340.2 M126.3,338.2 L126.3,340.2 M104.8,338.2 L104.8,340.2 M83.3,338.2 L83.3,340.2 "/></g>
<g id="yMajorTicks" stroke="rgb(0,0,0)" stroke-width="2"><path d="M56.8,297.1 L61.8,297.1 M56.8,239.7 L61.8,239.7 M56.8,182.3 L61.8,182.3 M56.8,124.8 L61.8,124.8 M56.8,67.42 L61.8,67.42 M56.8,297.1 L61.8,297.1 "/></g>
<g id="xMajorTicks" stroke="rgb(0,0,0)" stroke-width="2"><path d="M405.7,338.2 L405.7,343.2 M491.7,338.2 L491.7,343.2 M577.7,338.2 L577.7,343.2 M405.7,338.2 L405.7,343.2 M319.7,338.2 L319.7,343.2 M233.8,338.2 L233.8,343.2 M147.8,338.2 L147.8,343.2 M61.8,338.2 L61.8,343.2 "/></g>
<g id="plotLabels">
<text x="405.7" y="357.6" text-anchor="middle" font-size="12" font-family="Verdana">0</text>
<text x="491.7" y="357.6" text-anchor="middle" font-size="12" font-family="Verdana">5</text>
<text x="577.7" y="357.6" text-anchor="middle" font-size="12" font-family="Verdana">10</text>
<text x="405.7" y="357.6" text-anchor="middle" font-size="12" font-family="Verdana">0</text>
<text x="319.7" y="357.6" text-anchor="middle" font-size="12" font-family="Verdana">-5</text>
<text x="233.8" y="357.6" text-anchor="middle" font-size="12" font-family="Verdana">-10</text>
<text x="147.8" y="357.6" text-anchor="middle" font-size="12" font-family="Verdana">-15</text>
<text x="61.8" y="357.6" text-anchor="middle" font-size="12" font-family="Verdana">-20</text>
<text x="50.8" y="299.5" text-anchor="end" font-size="12" font-family="Verdana">0</text>
<text x="50.8" y="242.1" text-anchor="end" font-size="12" font-family="Verdana">10</text>
<text x="50.8" y="184.7" text-anchor="end" font-size="12" font-family="Verdana">20</text>
<text x="50.8" y="127.2" text-anchor="end" font-size="12" font-family="Verdana">30</text>
<text x="50.8" y="69.82" text-anchor="end" font-size="12" font-family="Verdana">40</text>
<text x="50.8" y="299.5" text-anchor="end" font-size="12" font-family="Verdana">0</text></g>
<g id="yLabel">
<text x="30.2" y="200.1" text-anchor="middle" transform = "rotate(-90 30.2 200.1 )" font-size="14" font-family="Verdana">zeta(z)</text></g>
<g id="xLabel">
<text x="324.9" y="384" text-anchor="middle" font-size="14" font-family="Verdana">z</text></g>
<g id="plotLines" stroke-width="2"><g clip-path="url(#plot_window)" stroke="rgb(0,0,139)" stroke-width="1"><path d="M423.4,67.42 L424.1,212 L424.9,243.9 L425.7,257.8 L426.4,265.7 L427.2,270.7 L428,274.2 L428.8,276.8 L429.5,278.7 L430.3,280.3 L431.1,281.5 L431.8,282.5 L432.6,283.4 L433.4,284.1 L434.2,284.8 L434.9,285.3 L435.7,285.8 L436.5,286.2 L437.2,286.6 L438,286.9 L438.8,287.2 L439.6,287.5 L440.3,287.7 L441.1,288 L441.9,288.2 L442.6,288.4 L443.4,288.5 L444.2,288.7 L445,288.8 L445.7,289 L446.5,289.1 L447.3,289.2 L448,289.3 L448.8,289.4 L449.6,289.5 L450.4,289.6 L451.1,289.7 L451.9,289.8 L452.7,289.9 L453.4,289.9 L454.2,290 L455,290.1 L455.8,290.1 L456.5,290.2 L457.3,290.2 L458.1,290.3 L458.8,290.3 L459.6,290.4 L460.4,290.4 L461.2,290.4 L461.9,290.5 L462.7,290.5 L463.5,290.6 L464.3,290.6 L465,290.6 L465.8,290.6 L466.6,290.7 L467.3,290.7 L468.1,290.7 L468.9,290.8 L469.7,290.8 L470.4,290.8 L471.2,290.8 L472,290.8 L472.7,290.9 L473.5,290.9 L474.3,290.9 L475.1,290.9 L475.8,290.9 L476.6,291 L477.4,291 L478.1,291 L478.9,291 L479.7,291 L480.5,291 L481.2,291 L482,291 L482.8,291.1 L483.5,291.1 L484.3,291.1 L485.1,291.1 L485.9,291.1 L486.6,291.1 L487.4,291.1 L488.2,291.1 L488.9,291.1 L489.7,291.1 L490.5,291.2 L491.3,291.2 L492,291.2 L492.8,291.2 L493.6,291.2 L494.3,291.2 L495.1,291.2 L495.9,291.2 L496.7,291.2 L497.4,291.2 L498.2,291.2 L499,291.2 L499.7,291.2 L500.5,291.2 L501.3,291.2 L502.1,291.2 L502.8,291.3 L503.6,291.3 L504.4,291.3 L505.1,291.3 L505.9,291.3 L506.7,291.3 L507.5,291.3 L508.2,291.3 L509,291.3 L509.8,291.3 L510.5,291.3 L511.3,291.3 L512.1,291.3 L512.9,291.3 L513.6,291.3 L514.4,291.3 L515.2,291.3 L516,291.3 L516.7,291.3 L517.5,291.3 L518.3,291.3 L519,291.3 L519.8,291.3 L520.6,291.3 L521.4,291.3 L522.1,291.3 L522.9,291.3 L523.7,291.3 L524.4,291.3 L525.2,291.3 L526,291.3 L526.8,291.3 L527.5,291.3 L528.3,291.3 L529.1,291.3 L529.8,291.3 L530.6,291.3 L531.4,291.3 L532.2,291.3 L532.9,291.3 L533.7,291.3 L534.5,291.3 L535.2,291.3 L536,291.3 L536.8,291.3 L537.6,291.4 L538.3,291.4 L539.1,291.4 L539.9,291.4 L540.6,291.4 L541.4,291.4 L542.2,291.4 L543,291.4 L543.7,291.4 L544.5,291.4 L545.3,291.4 L546,291.4 L546.8,291.4 L547.6,291.4 L548.4,291.4 L549.1,291.4 L549.9,291.4 L550.7,291.4 L551.4,291.4 L552.2,291.4 L553,291.4 L553.8,291.4 L554.5,291.4 L555.3,291.4 L556.1,291.4 L556.8,291.4 L557.6,291.4 L558.4,291.4 L559.2,291.4 L559.9,291.4 L560.7,291.4 L561.5,291.4 L562.2,291.4 L563,291.4 L563.8,291.4 L564.6,291.4 L565.3,291.4 L566.1,291.4 L566.9,291.4 L567.7,291.4 L568.4,291.4 L569.2,291.4 L570,291.4 L570.7,291.4 L571.5,291.4 L572.3,291.4 L573.1,291.4 L573.8,291.4 L574.6,291.4 L575.4,291.4 L576.1,291.4 L576.9,291.4 " fill="none"/></g>
<g clip-path="url(#plot_window)" stroke="rgb(0,0,139)" stroke-width="1"><path d="M61.8,297.1 L63.6,227 L65.41,174.9 L67.21,138.6 L69.01,116 L70.82,105 L72.62,103.3 L74.42,109.1 L76.23,120.5 L78.03,135.8 L79.83,153.8 L81.64,173.1 L83.44,192.8 L85.25,212.1 L87.05,230.5 L88.85,247.4 L90.66,262.6 L92.46,275.9 L94.26,287.2 L96.07,296.5 L97.87,304 L99.67,309.8 L101.5,313.9 L103.3,316.6 L105.1,318.1 L106.9,318.6 L108.7,318.3 L110.5,317.3 L112.3,315.7 L114.1,313.9 L115.9,311.8 L117.7,309.7 L119.5,307.5 L121.3,305.4 L123.1,303.4 L124.9,301.5 L126.7,299.9 L128.5,298.5 L130.3,297.3 L132.1,296.3 L133.9,295.5 L135.7,294.9 L137.5,294.5 L139.3,294.3 L141.2,294.1 L143,294.1 L144.8,294.2 L146.6,294.4 L148.4,294.7 L150.2,294.9 L152,295.2 L153.8,295.5 L155.6,295.8 L157.4,296.1 L159.2,296.4 L161,296.7 L162.8,296.9 L164.6,297.1 L166.4,297.3 L168.2,297.4 L170,297.5 L171.8,297.6 L173.6,297.6 L175.4,297.7 L177.2,297.7 L179,297.7 L180.8,297.6 L182.6,297.6 L184.4,297.5 L186.2,297.5 L188,297.4 L189.8,297.4 L191.6,297.3 L193.5,297.3 L195.3,297.2 L197.1,297.2 L198.9,297.1 L200.7,297.1 L202.5,297.1 L204.3,297 L206.1,297 L207.9,297 L209.7,297 L211.5,297 L213.3,297 L215.1,297 L216.9,297 L218.7,297 L220.5,297 L222.3,297 L224.1,297.1 L225.9,297.1 L227.7,297.1 L229.5,297.1 L231.3,297.1 L233.1,297.1 L234.9,297.1 L236.7,297.1 L238.5,297.1 L240.3,297.2 L242.1,297.2 L244,297.2 L245.8,297.2 L247.6,297.2 L249.4,297.2 L251.2,297.2 L253,297.2 L254.8,297.2 L256.6,297.2 L258.4,297.2 L260.2,297.1 L262,297.1 L263.8,297.1 L265.6,297.1 L267.4,297.1 L269.2,297.1 L271,297.1 L272.8,297.1 L274.6,297.1 L276.4,297.1 L278.2,297.1 L280,297.1 L281.8,297.1 L283.6,297.1 L285.4,297.1 L287.2,297.1 L289,297.1 L290.8,297.1 L292.6,297.1 L294.4,297.1 L296.3,297.1 L298.1,297.1 L299.9,297.1 L301.7,297.1 L303.5,297.1 L305.3,297.1 L307.1,297.1 L308.9,297.1 L310.7,297.1 L312.5,297.1 L314.3,297.1 L316.1,297.1 L317.9,297.1 L319.7,297.1 L321.5,297.1 L323.3,297.1 L325.1,297.1 L326.9,297.1 L328.7,297.1 L330.5,297.1 L332.3,297.1 L334.1,297.1 L335.9,297.1 L337.7,297.1 L339.5,297.1 L341.3,297.1 L343.1,297.1 L344.9,297.1 L346.7,297.1 L348.6,297.1 L350.4,297.1 L352.2,297.1 L354,297.1 L355.8,297.1 L357.6,297.1 L359.4,297.1 L361.2,297.1 L363,297.1 L364.8,297.1 L366.6,297.1 L368.4,297.1 L370.2,297.1 L372,297.1 L373.8,297.2 L375.6,297.2 L377.4,297.2 L379.2,297.3 L381,297.3 L382.8,297.4 L384.6,297.4 L386.4,297.5 L388.2,297.6 L390,297.7 L391.8,297.8 L393.6,298 L395.4,298.1 L397.2,298.3 L399,298.6 L400.9,298.9 L402.7,299.2 L404.5,299.6 L406.3,300.2 L408.1,300.8 L409.9,301.7 L411.7,302.9 L413.5,304.5 L415.3,306.9 L417.1,310.9 L418.9,318.4 L420.7,338.2 " fill="none"/></g>
</g>
<g id="plotPoints" clip-path="url(#plot_window)"><g stroke="rgb(0,0,0)"></g>
<g stroke="rgb(0,0,0)"></g>
</g>
<g id="limitPoints" stroke="rgb(119,136,153)" fill="rgb(250,235,215)"></g>
<g id="legendBackground" stroke="rgb(119,136,153)" fill="rgb(255,255,255)"></g>
<g id="legendPoints"></g>
<g id="legendText"></g>
<g id="title">
<text x="300" y="40" text-anchor="middle" font-size="20" font-family="Verdana">Zeta Function Over [-20,10]</text></g>
</svg>
