# File generated by appleseed.dll version 1.1.0-alpha-6-74-g956547b.
o back_wall
# 4 vertices.
v 549.599975585937500 0.000000000000000 559.200012207031250
v 0.000000000000000 0.000000000000000 559.200012207031250
v 0.000000000000000 548.799987792968750 559.200012207031250
v 556.000000000000000 548.799987792968750 559.200012207031250
# 1 vertex normal.
vn 0.000000000000000 0.000000000000000 -1.000000000000000
# 4 texture vertices.
vt 1 0
vt 1 1
vt 0 1
vt 0 0
# 2 faces.
f 1/4/1 2/1/1 3/2/1
f 1/4/1 3/2/1 4/3/1
