# File generated by appleseed.dll version 1.1.0-alpha-6-74-g956547b.
o left_wall
# 4 vertices.
v 552.799987792968750 0.000000000000000 0.000000000000000
v 549.599975585937500 0.000000000000000 559.200012207031250
v 556.000000000000000 548.799987792968750 559.200012207031250
v 556.000000000000000 548.799987792968750 0.000000000000000
# 2 vertex normals.
vn -0.999915659427643 0.011660823598504 -0.005721977911890
vn -0.999983012676239 0.005830804817379 0.000000000000000
# 4 texture vertices.
vt 1 0
vt 1 1
vt 0 1
vt 0 0
# 2 faces.
f 1/1/1 2/2/1 3/3/1
f 1/1/1 3/3/1 4/4/1
