# File generated by appleseed.dll version 1.1.0-alpha-6-74-g956547b.
o light
# 4 vertices.
v 343.000000000000000 548.799926757812500 227.000000000000000
v 343.000000000000000 548.799926757812500 332.000000000000000
v 213.000000000000000 548.799926757812500 332.000000000000000
v 213.000000000000000 548.799926757812500 227.000000000000000
# 1 vertex normal.
vn 0.000000000000000 -1.000000000000000 0.000000000000000
# 4 texture vertices.
vt 1 0
vt 1 1
vt 0 1
vt 0 0
# 2 faces.
f 1/1/1 2/2/1 3/3/1
f 1/1/1 3/3/1 4/4/1
