<?xml version="1.0" encoding="UTF-8" standalone="no"?>
<!DOCTYPE svg PUBLIC "-//W3C//DTD SVG 1.0//EN" "http://www.w3.org/TR/2001/PR-SVG-20010719/DTD/svg10.dtd">
<svg width="141cm" height="59cm" viewBox="-93663 -43104 2819 1179" xmlns="http://www.w3.org/2000/svg" xmlns:xlink="http://www.w3.org/1999/xlink">
  <g>
    <rect style="fill: #f8eecd" x="-93285.4" y="-42260.2" width="131.8" height="38"/>
    <rect style="fill: none; fill-opacity:0; stroke-width: 1; stroke: #000000" x="-93285.4" y="-42260.2" width="131.8" height="38"/>
    <text style="fill: #000000;text-anchor:middle;font-size:12.8;font-family:sanserif;font-style:normal;font-weight:normal" x="-93219.5" y="-42236.4">
      <tspan x="-93219.5" y="-42236.4">EntityItem&lt;Entity&gt;</tspan>
    </text>
  </g>
  <g>
    <rect style="fill: #ffffff" x="-92589.6" y="-42355.7" width="122.6" height="38"/>
    <rect style="fill: none; fill-opacity:0; stroke-width: 1; stroke: #000000" x="-92589.6" y="-42355.7" width="122.6" height="38"/>
    <text style="fill: #000000;text-anchor:middle;font-size:12.8;font-family:sanserif;font-style:normal;font-weight:normal" x="-92528.3" y="-42331.9">
      <tspan x="-92528.3" y="-42331.9">EntityCreatorBase</tspan>
    </text>
  </g>
  <g>
    <line style="fill: none; fill-opacity:0; stroke-width: 1; stroke: #000000" x1="-93219.5" y1="-42510.2" x2="-93219.5" y2="-42494.9"/>
    <polygon style="fill: #000000" points="-93219.5,-42487.4 -93224.5,-42497.4 -93219.5,-42494.9 -93214.5,-42497.4 "/>
    <polygon style="fill: none; fill-opacity:0; stroke-width: 1; stroke: #000000" points="-93219.5,-42487.4 -93224.5,-42497.4 -93219.5,-42494.9 -93214.5,-42497.4 "/>
  </g>
  <text style="fill: #000000;text-anchor:start;font-size:12.8;font-family:sanserif;font-style:normal;font-weight:normal" x="-93219.5" y="-42467.3">
    <tspan x="-93219.5" y="-42467.3"></tspan>
  </text>
  <text style="fill: #000000;text-anchor:start;font-size:12.8;font-family:sanserif;font-style:normal;font-weight:normal" x="-93219.5" y="-42241.2">
    <tspan x="-93219.5" y="-42241.2"></tspan>
  </text>
  <g>
    <rect style="fill: #f8eecd" x="-93597.4" y="-42116.2" width="324.65" height="38"/>
    <rect style="fill: none; fill-opacity:0; stroke-width: 1; stroke: #000000" x="-93597.4" y="-42116.2" width="324.65" height="38"/>
    <text style="fill: #000000;text-anchor:middle;font-size:12.8;font-family:sanserif;font-style:normal;font-weight:normal" x="-93435" y="-42092.4">
      <tspan x="-93435" y="-42092.4">SingleModelEntityItem&lt;Entity, ParentEntity, Factory&gt;</tspan>
    </text>
  </g>
  <g>
    <rect style="fill: #f8eecd" x="-93113.7" y="-42116.2" width="268.35" height="38"/>
    <rect style="fill: none; fill-opacity:0; stroke-width: 1; stroke: #000000" x="-93113.7" y="-42116.2" width="268.35" height="38"/>
    <text style="fill: #000000;text-anchor:middle;font-size:12.8;font-family:sanserif;font-style:normal;font-weight:normal" x="-92979.5" y="-42092.4">
      <tspan x="-92979.5" y="-42092.4">MultiModelEntityItem&lt;Entity, ParentEntity&gt;</tspan>
    </text>
  </g>
  <text style="fill: #000000;text-anchor:start;font-size:12.8;font-family:sanserif;font-style:normal;font-weight:normal" x="-93435" y="-42097.2">
    <tspan x="-93435" y="-42097.2"></tspan>
  </text>
  <text style="fill: #000000;text-anchor:start;font-size:12.8;font-family:sanserif;font-style:normal;font-weight:normal" x="-92979.5" y="-42097.2">
    <tspan x="-92979.5" y="-42097.2"></tspan>
  </text>
  <g>
    <path style="fill: none; fill-opacity:0; stroke-width: 1; stroke: #000000" d="M -92546.1 -42944.9 C -92541.7,-42789.4 -93218.1,-42648.7 -93219.4,-42556.8"/>
    <polygon style="fill: #000000" points="-93219.5,-42549.3 -93224.3,-42559.4 -93219.4,-42556.8 -93214.3,-42559.3 "/>
    <polygon style="fill: none; fill-opacity:0; stroke-width: 1; stroke: #000000" points="-93219.5,-42549.3 -93224.3,-42559.4 -93219.4,-42556.8 -93214.3,-42559.3 "/>
  </g>
  <g>
    <path style="fill: none; fill-opacity:0; stroke-width: 1; stroke: #000000" d="M -92546.1 -42944.9 C -92546.3,-42799.1 -91759.4,-42697.8 -91750.2,-42494.9"/>
    <polygon style="fill: #000000" points="-91749.8,-42487.4 -91755.3,-42497.2 -91750.2,-42494.9 -91745.3,-42497.6 "/>
    <polygon style="fill: none; fill-opacity:0; stroke-width: 1; stroke: #000000" points="-91749.8,-42487.4 -91755.3,-42497.2 -91750.2,-42494.9 -91745.3,-42497.6 "/>
  </g>
  <g>
    <path style="fill: none; fill-opacity:0; stroke-width: 1; stroke: #000000" d="M -92528.3 -42317.7 C -92527.2,-42235.4 -93054,-42241.3 -93145,-42241.2"/>
    <polygon style="fill: #000000" points="-93152.5,-42241.2 -93142.5,-42246.2 -93145,-42241.2 -93142.5,-42236.2 "/>
    <polygon style="fill: none; fill-opacity:0; stroke-width: 1; stroke: #000000" points="-93152.5,-42241.2 -93142.5,-42246.2 -93145,-42241.2 -93142.5,-42236.2 "/>
  </g>
  <g>
    <path style="fill: none; fill-opacity:0; stroke-width: 1; stroke: #000000" d="M -93219.5 -42448.3 C -93217.7,-42388.9 -93218.7,-42330.2 -93219.5,-42268.8"/>
    <polygon style="fill: #000000" points="-93219.5,-42261.3 -93224.4,-42271.3 -93219.5,-42268.8 -93214.4,-42271.2 "/>
    <polygon style="fill: none; fill-opacity:0; stroke-width: 1; stroke: #000000" points="-93219.5,-42261.3 -93224.4,-42271.3 -93219.5,-42268.8 -93214.4,-42271.2 "/>
  </g>
  <g>
    <path style="fill: none; fill-opacity:0; stroke-width: 1; stroke: #000000" d="M -93219.5 -42222.2 C -93219.7,-42163.2 -93433.2,-42182.8 -93434.8,-42124.8"/>
    <polygon style="fill: #000000" points="-93435,-42117.3 -93439.7,-42127.4 -93434.8,-42124.8 -93429.7,-42127.1 "/>
    <polygon style="fill: none; fill-opacity:0; stroke-width: 1; stroke: #000000" points="-93435,-42117.3 -93439.7,-42127.4 -93434.8,-42124.8 -93429.7,-42127.1 "/>
  </g>
  <g>
    <path style="fill: none; fill-opacity:0; stroke-width: 1; stroke: #000000" d="M -93219.5 -42222.2 C -93218.7,-42157.2 -92980.7,-42185.8 -92979.7,-42124.8"/>
    <polygon style="fill: #000000" points="-92979.5,-42117.3 -92984.7,-42127.2 -92979.7,-42124.8 -92974.7,-42127.4 "/>
    <polygon style="fill: none; fill-opacity:0; stroke-width: 1; stroke: #000000" points="-92979.5,-42117.3 -92984.7,-42127.2 -92979.7,-42124.8 -92974.7,-42127.4 "/>
  </g>
  <text style="fill: #000000;text-anchor:start;font-size:12.8;font-family:sanserif;font-style:normal;font-weight:normal" x="-91849.3" y="-42241.2">
    <tspan x="-91849.3" y="-42241.2"></tspan>
  </text>
  <g>
    <path style="fill: none; fill-opacity:0; stroke-width: 1; stroke: #000000" d="M -92528.3 -42317.7 C -92525,-42245.1 -92069.7,-42239.5 -91973.3,-42241"/>
    <polygon style="fill: #000000" points="-91965.8,-42241.1 -91975.7,-42236 -91973.3,-42241 -91975.9,-42246 "/>
    <polygon style="fill: none; fill-opacity:0; stroke-width: 1; stroke: #000000" points="-91965.8,-42241.1 -91975.7,-42236 -91973.3,-42241 -91975.9,-42246 "/>
  </g>
  <g>
    <path style="fill: none; fill-opacity:0; stroke-width: 1; stroke: #000000" d="M -93219.5 -42448.3 C -93218.5,-42386.8 -93366.4,-42384.5 -93448.5,-42384.5"/>
    <polygon style="fill: #000000" points="-93456,-42384.5 -93446,-42389.5 -93448.5,-42384.5 -93446,-42379.5 "/>
    <polygon style="fill: none; fill-opacity:0; stroke-width: 1; stroke: #000000" points="-93456,-42384.5 -93446,-42389.5 -93448.5,-42384.5 -93446,-42379.5 "/>
  </g>
  <g>
    <path style="fill: none; fill-opacity:0; stroke-width: 1; stroke: #000000" d="M -93219.5 -42448.3 C -93217.5,-42385.7 -93373.1,-42319.2 -93448.5,-42319.2"/>
    <polygon style="fill: #000000" points="-93456,-42319.2 -93446,-42324.2 -93448.5,-42319.2 -93446,-42314.2 "/>
    <polygon style="fill: none; fill-opacity:0; stroke-width: 1; stroke: #000000" points="-93456,-42319.2 -93446,-42324.2 -93448.5,-42319.2 -93446,-42314.2 "/>
  </g>
  <g>
    <rect style="fill: #f3f3f3" x="-93481.3" y="-41962.7" width="92.5" height="37"/>
    <rect style="fill: none; fill-opacity:0; stroke-width: 1; stroke-dasharray: 4; stroke: #000000" x="-93481.3" y="-41962.7" width="92.5" height="37"/>
    <text style="fill: #000000;text-anchor:middle;font-size:12.8;font-family:sanserif;font-style:oblique;font-weight:normal" x="-93435" y="-41939.4">
      <tspan x="-93435" y="-41939.4">MaterialItem</tspan>
    </text>
  </g>
  <g>
    <line style="fill: none; fill-opacity:0; stroke-width: 1; stroke: #000000" x1="-93435" y1="-42078.2" x2="-93435" y2="-41971.3"/>
    <polygon style="fill: #000000" points="-93435,-41963.8 -93440,-41973.8 -93435,-41971.3 -93430,-41973.8 "/>
    <polygon style="fill: none; fill-opacity:0; stroke-width: 1; stroke: #000000" points="-93435,-41963.8 -93440,-41973.8 -93435,-41971.3 -93430,-41973.8 "/>
  </g>
  <g>
    <path style="fill: none; fill-opacity:0; stroke-width: 1; stroke: #000000" d="M -92979.5 -42078.2 C -92979,-42004.2 -93249.5,-42041.6 -93249.1,-41971.3"/>
    <polygon style="fill: #000000" points="-93249,-41963.8 -93254.1,-41973.8 -93249.1,-41971.3 -93244.1,-41973.9 "/>
    <polygon style="fill: none; fill-opacity:0; stroke-width: 1; stroke: #000000" points="-93249,-41963.8 -93254.1,-41973.8 -93249.1,-41971.3 -93244.1,-41973.9 "/>
  </g>
  <g>
    <path style="fill: none; fill-opacity:0; stroke-width: 1; stroke: #000000" d="M -92979.5 -42078.2 C -92977.3,-42026.4 -93074.6,-42011.6 -93073,-41971.3"/>
    <polygon style="fill: #000000" points="-93072.8,-41963.8 -93078.1,-41973.6 -93073,-41971.3 -93068.1,-41974 "/>
    <polygon style="fill: none; fill-opacity:0; stroke-width: 1; stroke: #000000" points="-93072.8,-41963.8 -93078.1,-41973.6 -93073,-41971.3 -93068.1,-41974 "/>
  </g>
  <g>
    <path style="fill: none; fill-opacity:0; stroke-width: 1; stroke: #000000" d="M -92979.5 -42078.2 C -92979,-42001.9 -92645.7,-42058.2 -92646.3,-41971.3"/>
    <polygon style="fill: #000000" points="-92646.4,-41963.8 -92651.3,-41973.9 -92646.3,-41971.3 -92641.3,-41973.8 "/>
    <polygon style="fill: none; fill-opacity:0; stroke-width: 1; stroke: #000000" points="-92646.4,-41963.8 -92651.3,-41973.9 -92646.3,-41971.3 -92641.3,-41973.8 "/>
  </g>
  <g>
    <path style="fill: none; fill-opacity:0; stroke-width: 1; stroke: #000000" d="M -92979.5 -42078.2 C -92973.3,-42026.1 -92872.2,-42021.9 -92871.9,-41971.3"/>
    <polygon style="fill: #000000" points="-92871.9,-41963.8 -92876.9,-41973.8 -92871.9,-41971.3 -92866.9,-41973.9 "/>
    <polygon style="fill: none; fill-opacity:0; stroke-width: 1; stroke: #000000" points="-92871.9,-41963.8 -92876.9,-41973.8 -92871.9,-41971.3 -92866.9,-41973.9 "/>
  </g>
  <g>
    <path style="fill: none; fill-opacity:0; stroke-width: 1; stroke: #000000" d="M -91749.8 -42448.3 C -91746.2,-42384.3 -91196.6,-42650.6 -91065.1,-42710.3"/>
    <polygon style="fill: #000000" points="-91058.3,-42713.4 -91065.3,-42704.7 -91065.1,-42710.3 -91069.5,-42713.8 "/>
    <polygon style="fill: none; fill-opacity:0; stroke-width: 1; stroke: #000000" points="-91058.3,-42713.4 -91065.3,-42704.7 -91065.1,-42710.3 -91069.5,-42713.8 "/>
  </g>
  <g>
    <path style="fill: none; fill-opacity:0; stroke-width: 1; stroke: #000000" d="M -91635.7 -42078.2 C -91635.6,-42016.7 -91820.4,-42041.3 -91821.1,-41971.3"/>
    <polygon style="fill: #000000" points="-91821.2,-41963.8 -91826.1,-41973.9 -91821.1,-41971.3 -91816.1,-41973.8 "/>
    <polygon style="fill: none; fill-opacity:0; stroke-width: 1; stroke: #000000" points="-91821.2,-41963.8 -91826.1,-41973.9 -91821.1,-41971.3 -91816.1,-41973.8 "/>
  </g>
  <g>
    <path style="fill: none; fill-opacity:0; stroke-width: 1; stroke: #000000" d="M -91749.8 -42448.3 C -91673.2,-42363.8 -91208.5,-42521.2 -91065.8,-42543.4"/>
    <polygon style="fill: #000000" points="-91058.4,-42544.5 -91067.5,-42538 -91065.8,-42543.4 -91069,-42547.9 "/>
    <polygon style="fill: none; fill-opacity:0; stroke-width: 1; stroke: #000000" points="-91058.4,-42544.5 -91067.5,-42538 -91065.8,-42543.4 -91069,-42547.9 "/>
  </g>
  <g>
    <path style="fill: none; fill-opacity:0; stroke-width: 1; stroke: #000000" d="M -91749.8 -42448.3 C -91727.2,-42361.5 -91217.9,-42390.9 -91065.9,-42376.3"/>
    <polygon style="fill: #000000" points="-91058.4,-42375.6 -91068.8,-42371.6 -91065.9,-42376.3 -91067.9,-42381.5 "/>
    <polygon style="fill: none; fill-opacity:0; stroke-width: 1; stroke: #000000" points="-91058.4,-42375.6 -91068.8,-42371.6 -91065.9,-42376.3 -91067.9,-42381.5 "/>
  </g>
  <g>
    <path style="fill: none; fill-opacity:0; stroke-width: 1; stroke: #000000" d="M -91749.8 -42448.3 C -91729.7,-42343.8 -91221.2,-42300.6 -91065.7,-42264.6"/>
    <polygon style="fill: #000000" points="-91058.4,-42262.9 -91069.2,-42260.3 -91065.7,-42264.6 -91067,-42270.1 "/>
    <polygon style="fill: none; fill-opacity:0; stroke-width: 1; stroke: #000000" points="-91058.4,-42262.9 -91069.2,-42260.3 -91065.7,-42264.6 -91067,-42270.1 "/>
  </g>
  <g>
    <path style="fill: none; fill-opacity:0; stroke-width: 1; stroke: #000000" d="M -91635.7 -42078.2 C -91635.6,-42013.9 -91443.2,-42047.9 -91441.7,-41971.3"/>
    <polygon style="fill: #000000" points="-91441.6,-41963.8 -91446.8,-41973.7 -91441.7,-41971.3 -91436.8,-41973.9 "/>
    <polygon style="fill: none; fill-opacity:0; stroke-width: 1; stroke: #000000" points="-91441.6,-41963.8 -91446.8,-41973.7 -91441.7,-41971.3 -91436.8,-41973.9 "/>
  </g>
  <g>
    <path style="fill: none; fill-opacity:0; stroke-width: 1; stroke: #000000" d="M -91749.8 -42448.3 C -91750.4,-42353.8 -91223,-42243.9 -91065.7,-42208.2"/>
    <polygon style="fill: #000000" points="-91058.4,-42206.5 -91069.2,-42203.9 -91065.7,-42208.2 -91067,-42213.6 "/>
    <polygon style="fill: none; fill-opacity:0; stroke-width: 1; stroke: #000000" points="-91058.4,-42206.5 -91069.2,-42203.9 -91065.7,-42208.2 -91067,-42213.6 "/>
  </g>
  <g>
    <path style="fill: none; fill-opacity:0; stroke-width: 1; stroke: #000000" d="M -91749.8 -42448.3 C -91750.4,-42353.8 -91228,-42184.5 -91065.7,-42151.6"/>
    <polygon style="fill: #000000" points="-91058.4,-42150.1 -91069.2,-42147.2 -91065.7,-42151.6 -91067.2,-42157 "/>
    <polygon style="fill: none; fill-opacity:0; stroke-width: 1; stroke: #000000" points="-91058.4,-42150.1 -91069.2,-42147.2 -91065.7,-42151.6 -91067.2,-42157 "/>
  </g>
  <g>
    <path style="fill: none; fill-opacity:0; stroke-width: 1; stroke: #000000" d="M -91749.8 -42448.3 C -91730.3,-42353.8 -91221.7,-42340.4 -91065.8,-42320.2"/>
    <polygon style="fill: #000000" points="-91058.4,-42319.2 -91068.9,-42315.6 -91065.8,-42320.2 -91067.7,-42325.5 "/>
    <polygon style="fill: none; fill-opacity:0; stroke-width: 1; stroke: #000000" points="-91058.4,-42319.2 -91068.9,-42315.6 -91065.8,-42320.2 -91067.7,-42325.5 "/>
  </g>
  <g>
    <path style="fill: none; fill-opacity:0; stroke-width: 1; stroke: #000000" d="M -91749.8 -42448.3 C -91725.8,-42368.2 -91219.4,-42431.9 -91065.9,-42431.9"/>
    <polygon style="fill: #000000" points="-91058.4,-42431.9 -91068.4,-42426.9 -91065.9,-42431.9 -91068.4,-42436.9 "/>
    <polygon style="fill: none; fill-opacity:0; stroke-width: 1; stroke: #000000" points="-91058.4,-42431.9 -91068.4,-42426.9 -91065.9,-42431.9 -91068.4,-42436.9 "/>
  </g>
  <g>
    <path style="fill: none; fill-opacity:0; stroke-width: 1; stroke: #000000" d="M -91749.8 -42448.3 C -91635.7,-42356.3 -91257.2,-42474.4 -91065.9,-42487.7"/>
    <polygon style="fill: #000000" points="-91058.4,-42488.2 -91068,-42482.5 -91065.9,-42487.7 -91068.7,-42492.5 "/>
    <polygon style="fill: none; fill-opacity:0; stroke-width: 1; stroke: #000000" points="-91058.4,-42488.2 -91068,-42482.5 -91065.9,-42487.7 -91068.7,-42492.5 "/>
  </g>
  <g>
    <path style="fill: none; fill-opacity:0; stroke-width: 1; stroke: #000000" d="M -91749.8 -42448.3 C -91690,-42358.2 -91208.5,-42558.7 -91065.6,-42598.8"/>
    <polygon style="fill: #000000" points="-91058.4,-42600.8 -91066.6,-42593.3 -91065.6,-42598.8 -91069.3,-42602.9 "/>
    <polygon style="fill: none; fill-opacity:0; stroke-width: 1; stroke: #000000" points="-91058.4,-42600.8 -91066.6,-42593.3 -91065.6,-42598.8 -91069.3,-42602.9 "/>
  </g>
  <g>
    <path style="fill: none; fill-opacity:0; stroke-width: 1; stroke: #000000" d="M -91749.8 -42448.3 C -91691.9,-42384.4 -91246.9,-42595.7 -91065.5,-42654.8"/>
    <polygon style="fill: #000000" points="-91058.3,-42657.1 -91066.3,-42649.3 -91065.5,-42654.8 -91069.4,-42658.8 "/>
    <polygon style="fill: none; fill-opacity:0; stroke-width: 1; stroke: #000000" points="-91058.3,-42657.1 -91066.3,-42649.3 -91065.5,-42654.8 -91069.4,-42658.8 "/>
  </g>
  <g>
    <g>
      <rect style="fill: #f3f3f3" x="-93322.5" y="-41962.7" width="146.95" height="37"/>
      <rect style="fill: none; fill-opacity:0; stroke-width: 1; stroke-dasharray: 4; stroke: #000000" x="-93322.5" y="-41962.7" width="146.95" height="37"/>
      <text style="fill: #000000;text-anchor:middle;font-size:12.8;font-family:sanserif;font-style:oblique;font-weight:normal" x="-93249" y="-41939.4">
        <tspan x="-93249" y="-41939.4">BSDFItem</tspan>
      </text>
    </g>
    <g>
      <rect style="fill: #f3f3f3" x="-93146.2" y="-41962.7" width="146.95" height="37"/>
      <rect style="fill: none; fill-opacity:0; stroke-width: 1; stroke-dasharray: 4; stroke: #000000" x="-93146.2" y="-41962.7" width="146.95" height="37"/>
      <text style="fill: #000000;text-anchor:middle;font-size:12.8;font-family:sanserif;font-style:oblique;font-weight:normal" x="-93072.7" y="-41939.4">
        <tspan x="-93072.7" y="-41939.4">EDFItem</tspan>
      </text>
    </g>
    <g>
      <rect style="fill: #f3f3f3" x="-92969.9" y="-41962.7" width="196.1" height="37"/>
      <rect style="fill: none; fill-opacity:0; stroke-width: 1; stroke-dasharray: 4; stroke: #000000" x="-92969.9" y="-41962.7" width="196.1" height="37"/>
      <text style="fill: #000000;text-anchor:middle;font-size:12.8;font-family:sanserif;font-style:oblique;font-weight:normal" x="-92871.8" y="-41939.4">
        <tspan x="-92871.8" y="-41939.4">EnvironmentEDFItem</tspan>
      </text>
    </g>
    <g>
      <rect style="fill: #f3f3f3" x="-92744.4" y="-41962.7" width="196.1" height="37"/>
      <rect style="fill: none; fill-opacity:0; stroke-width: 1; stroke-dasharray: 4; stroke: #000000" x="-92744.4" y="-41962.7" width="196.1" height="37"/>
      <text style="fill: #000000;text-anchor:middle;font-size:12.8;font-family:sanserif;font-style:oblique;font-weight:normal" x="-92646.4" y="-41939.4">
        <tspan x="-92646.4" y="-41939.4">SurfaceShaderItem</tspan>
      </text>
    </g>
  </g>
  <g>
    <rect style="fill: #f8eecd" x="-91964.7" y="-42260.2" width="230.8" height="38"/>
    <rect style="fill: none; fill-opacity:0; stroke-width: 1; stroke: #000000" x="-91964.7" y="-42260.2" width="230.8" height="38"/>
    <text style="fill: #000000;text-anchor:middle;font-size:12.8;font-family:sanserif;font-style:normal;font-weight:normal" x="-91849.3" y="-42236.4">
      <tspan x="-91849.3" y="-42236.4">CollectionItem&lt;Entity, ParentEntity&gt;</tspan>
    </text>
  </g>
  <g>
    <g>
      <rect style="fill: #f3f3f3" x="-93557.8" y="-42403" width="100.65" height="37"/>
      <rect style="fill: none; fill-opacity:0; stroke-width: 1; stroke: #000000" x="-93557.8" y="-42403" width="100.65" height="37"/>
      <text style="fill: #000000;text-anchor:middle;font-size:12.7998;font-family:sanserif;font-style:normal;font-weight:normal" x="-93507.4" y="-42379.7">
        <tspan x="-93507.4" y="-42379.7">AssemblyItem</tspan>
      </text>
    </g>
    <g>
      <rect style="fill: #f3f3f3" x="-93590.9" y="-42338.2" width="133.75" height="38"/>
      <rect style="fill: none; fill-opacity:0; stroke-width: 1; stroke: #000000" x="-93590.9" y="-42338.2" width="133.75" height="38"/>
      <text style="fill: #000000;text-anchor:middle;font-size:12.7998;font-family:sanserif;font-style:normal;font-weight:normal" x="-93524" y="-42314.4">
        <tspan x="-93524" y="-42314.4">ObjectInstanceItem</tspan>
      </text>
    </g>
  </g>
  <g>
    <path style="fill: none; fill-opacity:0; stroke-width: 1; stroke: #000000" d="M -92546.1 -42944.9 C -92544.3,-42886.6 -93379.8,-42680.5 -93448.5,-42681.2"/>
    <polygon style="fill: #000000" points="-93456,-42681.2 -93445.9,-42686.2 -93448.5,-42681.2 -93446,-42676.2 "/>
    <polygon style="fill: none; fill-opacity:0; stroke-width: 1; stroke: #000000" points="-93456,-42681.2 -93445.9,-42686.2 -93448.5,-42681.2 -93446,-42676.2 "/>
  </g>
  <g>
    <path style="fill: none; fill-opacity:0; stroke-width: 1; stroke: #000000" d="M -92546.1 -42944.9 C -92544.3,-42886.6 -93379.8,-42621.7 -93448.5,-42622.4"/>
    <polygon style="fill: #000000" points="-93456,-42622.4 -93445.9,-42627.4 -93448.5,-42622.4 -93446,-42617.4 "/>
    <polygon style="fill: none; fill-opacity:0; stroke-width: 1; stroke: #000000" points="-93456,-42622.4 -93445.9,-42627.4 -93448.5,-42622.4 -93446,-42617.4 "/>
  </g>
  <g>
    <path style="fill: none; fill-opacity:0; stroke-width: 1; stroke: #000000" d="M -92546.1 -42944.9 C -92544.3,-42886.6 -93379.8,-42739.3 -93448.5,-42740"/>
    <polygon style="fill: #000000" points="-93456,-42740 -93445.9,-42744.9 -93448.5,-42740 -93446,-42734.9 "/>
    <polygon style="fill: none; fill-opacity:0; stroke-width: 1; stroke: #000000" points="-93456,-42740 -93445.9,-42744.9 -93448.5,-42740 -93446,-42734.9 "/>
  </g>
  <g>
    <path style="fill: none; fill-opacity:0; stroke-width: 1; stroke: #000000" d="M -92546.1 -42944.9 C -92544.3,-42886.6 -93379.8,-42798.1 -93448.5,-42798.8"/>
    <polygon style="fill: #000000" points="-93456,-42798.8 -93445.9,-42803.7 -93448.5,-42798.8 -93446,-42793.7 "/>
    <polygon style="fill: none; fill-opacity:0; stroke-width: 1; stroke: #000000" points="-93456,-42798.8 -93445.9,-42803.7 -93448.5,-42798.8 -93446,-42793.7 "/>
  </g>
  <g>
    <path style="fill: none; fill-opacity:0; stroke-width: 1; stroke: #000000" d="M -92546.1 -42944.9 C -92544.3,-42886.6 -93379.8,-42856.9 -93448.5,-42857.6"/>
    <polygon style="fill: #000000" points="-93456,-42857.6 -93445.9,-42862.5 -93448.5,-42857.6 -93446,-42852.5 "/>
    <polygon style="fill: none; fill-opacity:0; stroke-width: 1; stroke: #000000" points="-93456,-42857.6 -93445.9,-42862.5 -93448.5,-42857.6 -93446,-42852.5 "/>
  </g>
  <text style="fill: #000000;text-anchor:start;font-size:10.16;font-family:Consolas;font-style:normal;font-weight:normal" x="-93662.3" y="-42482.9">
    <tspan x="-93662.3" y="-42482.9">Base class for all entity items:</tspan>
    <tspan x="-93662.3" y="-42470.2">  - Built from an entity</tspan>
    <tspan x="-93662.3" y="-42457.5">  - Provides update_title()</tspan>
    <tspan x="-93662.3" y="-42444.8">  - Provide a single-click context menu for edition &amp; deletion</tspan>
  </text>
  <text style="fill: #000000;text-anchor:start;font-size:10.16;font-family:Consolas;font-style:normal;font-weight:normal" x="-93633.9" y="-42244.1">
    <tspan x="-93633.9" y="-42244.1">Base class for entity items with generic edition &amp; deletion</tspan>
    <tspan x="-93633.9" y="-42231.4">NEVER USED DIRECTLY</tspan>
  </text>
  <text style="fill: #000000;text-anchor:start;font-size:10.16;font-family:Consolas;font-style:normal;font-weight:normal" x="-91713.7" y="-42249.8">
    <tspan x="-91713.7" y="-42249.8">Base class for collections of entity items with generic creation</tspan>
    <tspan x="-91713.7" y="-42237.1">  - Built from a collection of entities</tspan>
    <tspan x="-91713.7" y="-42224.4">  - Provides an overload of add_item()</tspan>
  </text>
  <text style="fill: #000000;text-anchor:start;font-size:10.16;font-family:Consolas;font-style:normal;font-weight:normal" x="-91752.2" y="-42601">
    <tspan x="-91752.2" y="-42601">Base class for all collections of items:</tspan>
    <tspan x="-91752.2" y="-42588.3">  - Built from class_uid &amp; title</tspan>
    <tspan x="-91752.2" y="-42575.6">  - Renders the title in bold</tspan>
    <tspan x="-91752.2" y="-42562.9">  - Provides add_item() and add_items()</tspan>
    <tspan x="-91752.2" y="-42550.2">The name is a shortcut for EntityCollectionItemBase.</tspan>
  </text>
  <g>
    <g>
      <rect style="fill: #f3f3f3" x="-93548.1" y="-42699.8" width="91" height="37"/>
      <rect style="fill: none; fill-opacity:0; stroke-width: 1; stroke-dasharray: 4; stroke: #000000" x="-93548.1" y="-42699.8" width="91" height="37"/>
      <text style="fill: #000000;text-anchor:middle;font-size:12.8;font-family:sanserif;font-style:oblique;font-weight:normal" x="-93502.6" y="-42676.5">
        <tspan x="-93502.6" y="-42676.5">TextureItem</tspan>
      </text>
    </g>
    <g>
      <rect style="fill: #f3f3f3" x="-93596.5" y="-42641" width="139.45" height="37"/>
      <rect style="fill: none; fill-opacity:0; stroke-width: 1; stroke-dasharray: 4; stroke: #000000" x="-93596.5" y="-42641" width="139.45" height="37"/>
      <text style="fill: #000000;text-anchor:middle;font-size:12.8;font-family:sanserif;font-style:oblique;font-weight:normal" x="-93526.8" y="-42617.7">
        <tspan x="-93526.8" y="-42617.7">TextureInstanceItem</tspan>
      </text>
    </g>
    <g>
      <rect style="fill: #f3f3f3" x="-93541.4" y="-42758.6" width="84.3" height="37"/>
      <rect style="fill: none; fill-opacity:0; stroke-width: 1; stroke-dasharray: 4; stroke: #000000" x="-93541.4" y="-42758.6" width="84.3" height="37"/>
      <text style="fill: #000000;text-anchor:middle;font-size:12.8;font-family:sanserif;font-style:oblique;font-weight:normal" x="-93499.2" y="-42735.3">
        <tspan x="-93499.2" y="-42735.3">ObjectItem</tspan>
      </text>
    </g>
    <g>
      <rect style="fill: #f3f3f3" x="-93532.6" y="-42817.4" width="75.55" height="37"/>
      <rect style="fill: none; fill-opacity:0; stroke-width: 1; stroke-dasharray: 4; stroke: #000000" x="-93532.6" y="-42817.4" width="75.55" height="37"/>
      <text style="fill: #000000;text-anchor:middle;font-size:12.8;font-family:sanserif;font-style:oblique;font-weight:normal" x="-93494.8" y="-42794.1">
        <tspan x="-93494.8" y="-42794.1">LightItem</tspan>
      </text>
    </g>
    <g>
      <rect style="fill: #f3f3f3" x="-93533.8" y="-42876.1" width="76.75" height="37"/>
      <rect style="fill: none; fill-opacity:0; stroke-width: 1; stroke-dasharray: 4; stroke: #000000" x="-93533.8" y="-42876.1" width="76.75" height="37"/>
      <text style="fill: #000000;text-anchor:middle;font-size:12.8;font-family:sanserif;font-style:oblique;font-weight:normal" x="-93495.4" y="-42852.8">
        <tspan x="-93495.4" y="-42852.8">ColorItem</tspan>
      </text>
    </g>
    <g>
      <rect style="fill: #f3f3f3" x="-93607.3" y="-42934.9" width="150.2" height="37"/>
      <rect style="fill: none; fill-opacity:0; stroke-width: 1; stroke-dasharray: 4; stroke: #000000" x="-93607.3" y="-42934.9" width="150.2" height="37"/>
      <text style="fill: #000000;text-anchor:middle;font-size:12.8;font-family:sanserif;font-style:oblique;font-weight:normal" x="-93532.2" y="-42911.6">
        <tspan x="-93532.2" y="-42911.6">AssemblyInstanceItem</tspan>
      </text>
    </g>
  </g>
  <g>
    <path style="fill: none; fill-opacity:0; stroke-width: 1; stroke: #000000" d="M -92546.1 -42944.9 C -92544.3,-42886.6 -93379.8,-42915.7 -93448.5,-42916.4"/>
    <polygon style="fill: #000000" points="-93456,-42916.4 -93445.9,-42921.3 -93448.5,-42916.4 -93446,-42911.3 "/>
    <polygon style="fill: none; fill-opacity:0; stroke-width: 1; stroke: #000000" points="-93456,-42916.4 -93445.9,-42921.3 -93448.5,-42916.4 -93446,-42911.3 "/>
  </g>
  <g>
    <path style="fill: none; fill-opacity:0; stroke-width: 1; stroke: #000000" d="M -92614.7 -43049.8 C -92614.4,-42989.2 -92547.3,-43060.8 -92546.3,-42991.6"/>
    <polygon style="fill: #000000" points="-92546.2,-42984.1 -92551.3,-42994 -92546.3,-42991.6 -92541.3,-42994.1 "/>
    <polygon style="fill: none; fill-opacity:0; stroke-width: 1; stroke: #000000" points="-92546.2,-42984.1 -92551.3,-42994 -92546.3,-42991.6 -92541.3,-42994.1 "/>
  </g>
  <g>
    <path style="fill: none; fill-opacity:0; stroke-width: 1; stroke: #000000" d="M -92481.9 -43049.8 C -92481.6,-42989.2 -92547.3,-43060.8 -92546.3,-42991.6"/>
    <polygon style="fill: #000000" points="-92546.2,-42984.1 -92551.3,-42994 -92546.3,-42991.6 -92541.3,-42994.1 "/>
    <polygon style="fill: none; fill-opacity:0; stroke-width: 1; stroke: #000000" points="-92546.2,-42984.1 -92551.3,-42994 -92546.3,-42991.6 -92541.3,-42994.1 "/>
  </g>
  <g>
    <path style="fill: none; fill-opacity:0; stroke-width: 1; stroke: #000000" d="M -92546.1 -42944.9 C -92546.3,-42701.3 -91956.5,-42692.5 -91952.4,-42494.9"/>
    <polygon style="fill: #000000" points="-91952.3,-42487.4 -91957.5,-42497.3 -91952.4,-42494.9 -91947.5,-42497.5 "/>
    <polygon style="fill: none; fill-opacity:0; stroke-width: 1; stroke: #000000" points="-91952.3,-42487.4 -91957.5,-42497.3 -91952.4,-42494.9 -91947.5,-42497.5 "/>
  </g>
  <text style="fill: #000000;text-anchor:start;font-size:9.03097;font-family:sanserif;font-style:normal;font-weight:normal" x="-91749.2" y="-42506.7">
    <tspan x="-91749.2" y="-42506.7">virtual</tspan>
  </text>
  <text style="fill: #000000;text-anchor:start;font-size:9.03097;font-family:sanserif;font-style:normal;font-weight:normal" x="-91949.6" y="-42506.7">
    <tspan x="-91949.6" y="-42506.7">virtual</tspan>
  </text>
  <text style="fill: #000000;text-anchor:start;font-size:28.2218;font-family:sanserif;font-style:normal;font-weight:normal" x="-93610.4" y="-43075">
    <tspan x="-93610.4" y="-43075">appleseed.studio Project Explorer</tspan>
    <tspan x="-93610.4" y="-43039.7">Class Inheritance Diagram</tspan>
  </text>
  <g>
    <rect style="fill: #f8eecd" x="-92277.7" y="-42116.2" width="346.9" height="38"/>
    <rect style="fill: none; fill-opacity:0; stroke-width: 1; stroke: #000000" x="-92277.7" y="-42116.2" width="346.9" height="38"/>
    <text style="fill: #000000;text-anchor:middle;font-size:12.8;font-family:sanserif;font-style:normal;font-weight:normal" x="-92104.2" y="-42092.4">
      <tspan x="-92104.2" y="-42092.4">SingleModelCollectionItem&lt;Entity, ParentEntity, Factory&gt;</tspan>
    </text>
  </g>
  <g>
    <rect style="fill: #f8eecd" x="-91781" y="-42116.2" width="290.6" height="38"/>
    <rect style="fill: none; fill-opacity:0; stroke-width: 1; stroke: #000000" x="-91781" y="-42116.2" width="290.6" height="38"/>
    <text style="fill: #000000;text-anchor:middle;font-size:12.8;font-family:sanserif;font-style:normal;font-weight:normal" x="-91635.7" y="-42092.4">
      <tspan x="-91635.7" y="-42092.4">MultiModelCollectionItem&lt;Entity, ParentEntity&gt;</tspan>
    </text>
  </g>
  <g>
    <path style="fill: none; fill-opacity:0; stroke-width: 1; stroke: #000000" d="M -91849.3 -42222.2 C -91850.3,-42167.8 -92104.7,-42167.8 -92104.3,-42124.8"/>
    <polygon style="fill: #000000" points="-92104.3,-42117.3 -92109.3,-42127.2 -92104.3,-42124.8 -92099.3,-42127.3 "/>
    <polygon style="fill: none; fill-opacity:0; stroke-width: 1; stroke: #000000" points="-92104.3,-42117.3 -92109.3,-42127.2 -92104.3,-42124.8 -92099.3,-42127.3 "/>
  </g>
  <g>
    <path style="fill: none; fill-opacity:0; stroke-width: 1; stroke: #000000" d="M -91849.3 -42222.2 C -91850.3,-42167.8 -91636.1,-42167.8 -91635.7,-42124.8"/>
    <polygon style="fill: #000000" points="-91635.7,-42117.3 -91640.8,-42127.2 -91635.7,-42124.8 -91630.8,-42127.3 "/>
    <polygon style="fill: none; fill-opacity:0; stroke-width: 1; stroke: #000000" points="-91635.7,-42117.3 -91640.8,-42127.2 -91635.7,-42124.8 -91630.8,-42127.3 "/>
  </g>
  <g>
    <path style="fill: none; fill-opacity:0; stroke-width: 1; stroke: #000000" d="M -91749.8 -42448.3 C -91747.8,-42365.2 -91849.2,-42359 -91849.3,-42268.8"/>
    <polygon style="fill: #000000" points="-91849.3,-42261.3 -91854.3,-42271.3 -91849.3,-42268.8 -91844.3,-42271.3 "/>
    <polygon style="fill: none; fill-opacity:0; stroke-width: 1; stroke: #000000" points="-91849.3,-42261.3 -91854.3,-42271.3 -91849.3,-42268.8 -91844.3,-42271.3 "/>
  </g>
  <g>
    <path style="fill: none; fill-opacity:0; stroke-width: 1; stroke: #000000" d="M -91952.2 -42448.3 C -91950.5,-42368.8 -91849.2,-42355.4 -91849.3,-42268.8"/>
    <polygon style="fill: #000000" points="-91849.3,-42261.3 -91854.3,-42271.3 -91849.3,-42268.8 -91844.3,-42271.3 "/>
    <polygon style="fill: none; fill-opacity:0; stroke-width: 1; stroke: #000000" points="-91849.3,-42261.3 -91854.3,-42271.3 -91849.3,-42268.8 -91844.3,-42271.3 "/>
  </g>
  <g>
    <rect style="fill: #f8eecd" x="-91839.6" y="-42486.3" width="179.75" height="38"/>
    <rect style="fill: none; fill-opacity:0; stroke-width: 1; stroke: #000000" x="-91839.6" y="-42486.3" width="179.75" height="38"/>
    <text style="fill: #000000;text-anchor:middle;font-size:12.8;font-family:sanserif;font-style:normal;font-weight:normal" x="-91749.8" y="-42462.5">
      <tspan x="-91749.8" y="-42462.5">CollectionItemBase&lt;Entity&gt;</tspan>
    </text>
  </g>
  <g>
    <rect style="fill: #ffffff" x="-92017.3" y="-42486.3" width="130.2" height="38"/>
    <rect style="fill: none; fill-opacity:0; stroke-width: 1; stroke: #000000" x="-92017.3" y="-42486.3" width="130.2" height="38"/>
    <text style="fill: #000000;text-anchor:middle;font-size:12.8;font-family:sanserif;font-style:normal;font-weight:normal" x="-91952.2" y="-42462.5">
      <tspan x="-91952.2" y="-42462.5">CollectionItemSlots</tspan>
    </text>
  </g>
  <g>
    <g>
      <rect style="fill: #f8eecd" x="-93298.8" y="-42486.3" width="158.5" height="38"/>
      <rect style="fill: none; fill-opacity:0; stroke-width: 1; stroke: #000000" x="-93298.8" y="-42486.3" width="158.5" height="38"/>
      <text style="fill: #000000;text-anchor:middle;font-size:12.8;font-family:sanserif;font-style:normal;font-weight:normal" x="-93219.5" y="-42462.5">
        <tspan x="-93219.5" y="-42462.5">EntityItemBase&lt;Entity&gt;</tspan>
      </text>
    </g>
    <g>
      <rect style="fill: #ffffff" x="-93286.8" y="-42548.2" width="134.65" height="38"/>
      <rect style="fill: none; fill-opacity:0; stroke-width: 1; stroke: #000000" x="-93286.8" y="-42548.2" width="134.65" height="38"/>
      <text style="fill: #000000;text-anchor:middle;font-size:12.8;font-family:sanserif;font-style:normal;font-weight:normal" x="-93219.5" y="-42524.4">
        <tspan x="-93219.5" y="-42524.4">EntityItemBaseSlots</tspan>
      </text>
    </g>
  </g>
  <g>
    <g>
      <rect style="fill: #c7ffb1" x="-91057.3" y="-42506.8" width="212.95" height="37"/>
      <rect style="fill: none; fill-opacity:0; stroke-width: 1; stroke: #000000" x="-91057.3" y="-42506.8" width="212.95" height="37"/>
      <text style="fill: #000000;text-anchor:middle;font-size:12.7998;font-family:sanserif;font-style:normal;font-weight:normal" x="-90950.8" y="-42483.5">
        <tspan x="-90950.8" y="-42483.5">EnvironmentShaderCollectionItem</tspan>
      </text>
    </g>
    <g>
      <rect style="fill: #c7ffb1" x="-91057.3" y="-42676" width="203.65" height="37"/>
      <rect style="fill: none; fill-opacity:0; stroke-width: 1; stroke: #000000" x="-91057.3" y="-42676" width="203.65" height="37"/>
      <text style="fill: #000000;text-anchor:middle;font-size:12.7998;font-family:sanserif;font-style:normal;font-weight:normal" x="-90955.5" y="-42652.7">
        <tspan x="-90955.5" y="-42652.7">AssemblyInstanceCollectionItem</tspan>
      </text>
    </g>
    <g>
      <rect style="fill: #c7ffb1" x="-91057.3" y="-42732.4" width="155.2" height="37"/>
      <rect style="fill: none; fill-opacity:0; stroke-width: 1; stroke: #000000" x="-91057.3" y="-42732.4" width="155.2" height="37"/>
      <text style="fill: #000000;text-anchor:middle;font-size:12.7998;font-family:sanserif;font-style:normal;font-weight:normal" x="-90979.7" y="-42709.1">
        <tspan x="-90979.7" y="-42709.1">AssemblyCollectionItem</tspan>
      </text>
    </g>
    <g>
      <rect style="fill: #c7ffb1" x="-91057.3" y="-42563.2" width="196.1" height="37"/>
      <rect style="fill: none; fill-opacity:0; stroke-width: 1; stroke: #000000" x="-91057.3" y="-42563.2" width="196.1" height="37"/>
      <text style="fill: #000000;text-anchor:middle;font-size:12.7998;font-family:sanserif;font-style:normal;font-weight:normal" x="-90959.2" y="-42539.9">
        <tspan x="-90959.2" y="-42539.9">EnvironmentEDFCollectionItem</tspan>
      </text>
    </g>
    <g>
      <rect style="fill: #c7ffb1" x="-91057.3" y="-42394" width="155.2" height="37"/>
      <rect style="fill: none; fill-opacity:0; stroke-width: 1; stroke: #000000" x="-91057.3" y="-42394" width="155.2" height="37"/>
      <text style="fill: #000000;text-anchor:middle;font-size:12.7998;font-family:sanserif;font-style:normal;font-weight:normal" x="-90979.7" y="-42370.7">
        <tspan x="-90979.7" y="-42370.7">MaterialCollectionItem</tspan>
      </text>
    </g>
    <g>
      <rect style="fill: #c7ffb1" x="-91057.3" y="-42281.2" width="187.3" height="37"/>
      <rect style="fill: none; fill-opacity:0; stroke-width: 1; stroke: #000000" x="-91057.3" y="-42281.2" width="187.3" height="37"/>
      <text style="fill: #000000;text-anchor:middle;font-size:12.7998;font-family:sanserif;font-style:normal;font-weight:normal" x="-90963.6" y="-42257.9">
        <tspan x="-90963.6" y="-42257.9">ObjectInstanceCollectionItem</tspan>
      </text>
    </g>
    <g>
      <rect style="fill: #c7ffb1" x="-91057.3" y="-42224.8" width="155.2" height="37"/>
      <rect style="fill: none; fill-opacity:0; stroke-width: 1; stroke: #000000" x="-91057.3" y="-42224.8" width="155.2" height="37"/>
      <text style="fill: #000000;text-anchor:middle;font-size:12.7998;font-family:sanserif;font-style:normal;font-weight:normal" x="-90979.7" y="-42201.5">
        <tspan x="-90979.7" y="-42201.5">TextureCollectionItem</tspan>
      </text>
    </g>
    <g>
      <rect style="fill: #c7ffb1" x="-91057.3" y="-42168.4" width="194" height="37"/>
      <rect style="fill: none; fill-opacity:0; stroke-width: 1; stroke: #000000" x="-91057.3" y="-42168.4" width="194" height="37"/>
      <text style="fill: #000000;text-anchor:middle;font-size:12.7998;font-family:sanserif;font-style:normal;font-weight:normal" x="-90960.3" y="-42145.1">
        <tspan x="-90960.3" y="-42145.1">TextureInstanceCollectionItem</tspan>
      </text>
    </g>
    <g>
      <rect style="fill: #c7ffb1" x="-91057.3" y="-42619.6" width="155.2" height="37"/>
      <rect style="fill: none; fill-opacity:0; stroke-width: 1; stroke: #000000" x="-91057.3" y="-42619.6" width="155.2" height="37"/>
      <text style="fill: #000000;text-anchor:middle;font-size:12.7998;font-family:sanserif;font-style:normal;font-weight:normal" x="-90979.7" y="-42596.3">
        <tspan x="-90979.7" y="-42596.3">ColorCollectionItem</tspan>
      </text>
    </g>
    <g>
      <rect style="fill: #c7ffb1" x="-91057.3" y="-42450.4" width="155.2" height="37"/>
      <rect style="fill: none; fill-opacity:0; stroke-width: 1; stroke: #000000" x="-91057.3" y="-42450.4" width="155.2" height="37"/>
      <text style="fill: #000000;text-anchor:middle;font-size:12.7998;font-family:sanserif;font-style:normal;font-weight:normal" x="-90979.7" y="-42427.1">
        <tspan x="-90979.7" y="-42427.1">LightCollectionItem</tspan>
      </text>
    </g>
    <g>
      <rect style="fill: #c7ffb1" x="-91057.3" y="-42337.6" width="155.2" height="37"/>
      <rect style="fill: none; fill-opacity:0; stroke-width: 1; stroke: #000000" x="-91057.3" y="-42337.6" width="155.2" height="37"/>
      <text style="fill: #000000;text-anchor:middle;font-size:12.7998;font-family:sanserif;font-style:normal;font-weight:normal" x="-90979.7" y="-42314.3">
        <tspan x="-90979.7" y="-42314.3">ObjectCollectionItem</tspan>
      </text>
    </g>
  </g>
  <g>
    <line style="fill: none; fill-opacity:0; stroke-width: 1; stroke: #000000" x1="-91635.7" y1="-42078.2" x2="-91635.7" y2="-41971.3"/>
    <polygon style="fill: #000000" points="-91635.7,-41963.8 -91640.7,-41973.8 -91635.7,-41971.3 -91630.7,-41973.8 "/>
    <polygon style="fill: none; fill-opacity:0; stroke-width: 1; stroke: #000000" points="-91635.7,-41963.8 -91640.7,-41973.8 -91635.7,-41971.3 -91630.7,-41973.8 "/>
  </g>
  <g>
    <g>
      <rect style="fill: #f8eecd" x="-92583.8" y="-42982.9" width="75.3" height="38"/>
      <rect style="fill: none; fill-opacity:0; stroke-width: 1; stroke: #000000" x="-92583.8" y="-42982.9" width="75.3" height="38"/>
      <text style="fill: #000000;text-anchor:middle;font-size:12.8;font-family:sanserif;font-style:normal;font-weight:normal" x="-92546.1" y="-42959.1">
        <tspan x="-92546.1" y="-42959.1">ItemBase</tspan>
      </text>
    </g>
    <text style="fill: #000000;text-anchor:start;font-size:10.16;font-family:Consolas;font-style:normal;font-weight:normal" x="-92490.8" y="-42979.6">
      <tspan x="-92490.8" y="-42979.6">Base class for all items:</tspan>
      <tspan x="-92490.8" y="-42966.9">  - Built from class_uid or class_uid &amp; title</tspan>
      <tspan x="-92490.8" y="-42954.2">  - Provides set_title()</tspan>
      <tspan x="-92490.8" y="-42941.5">  - Defines empty virtual functions for context menus</tspan>
    </text>
    <g>
      <g>
        <rect style="fill: #ffc0cb" x="-92543.4" y="-43087.8" width="123" height="38"/>
        <rect style="fill: none; fill-opacity:0; stroke-width: 1; stroke: #000000" x="-92543.4" y="-43087.8" width="123" height="38"/>
        <text style="fill: #000000;text-anchor:middle;font-size:12.8;font-family:sanserif;font-style:normal;font-weight:normal" x="-92481.9" y="-43064">
          <tspan x="-92481.9" y="-43064">QTreeWidgetItem</tspan>
        </text>
      </g>
      <g>
        <rect style="fill: #ffc0cb" x="-92648" y="-43087.8" width="66.75" height="38"/>
        <rect style="fill: none; fill-opacity:0; stroke-width: 1; stroke: #000000" x="-92648" y="-43087.8" width="66.75" height="38"/>
        <text style="fill: #000000;text-anchor:middle;font-size:12.8;font-family:sanserif;font-style:normal;font-weight:normal" x="-92614.7" y="-43064">
          <tspan x="-92614.7" y="-43064">QObject</tspan>
        </text>
      </g>
    </g>
  </g>
  <g>
    <g>
      <rect style="fill: #f3f3f3" x="-91898.8" y="-41962.7" width="155.2" height="37"/>
      <rect style="fill: none; fill-opacity:0; stroke-width: 1; stroke-dasharray: 4; stroke: #000000" x="-91898.8" y="-41962.7" width="155.2" height="37"/>
      <text style="fill: #000000;text-anchor:middle;font-size:12.8;font-family:sanserif;font-style:oblique;font-weight:normal" x="-91821.2" y="-41939.4">
        <tspan x="-91821.2" y="-41939.4">BSDFCollectionItem</tspan>
      </text>
    </g>
    <g>
      <rect style="fill: #f3f3f3" x="-91713.3" y="-41962.7" width="155.2" height="37"/>
      <rect style="fill: none; fill-opacity:0; stroke-width: 1; stroke-dasharray: 4; stroke: #000000" x="-91713.3" y="-41962.7" width="155.2" height="37"/>
      <text style="fill: #000000;text-anchor:middle;font-size:12.8;font-family:sanserif;font-style:oblique;font-weight:normal" x="-91635.7" y="-41939.4">
        <tspan x="-91635.7" y="-41939.4">EDFCollectionItem</tspan>
      </text>
    </g>
    <g>
      <rect style="fill: #f3f3f3" x="-91533.7" y="-41962.7" width="184.3" height="37"/>
      <rect style="fill: none; fill-opacity:0; stroke-width: 1; stroke-dasharray: 4; stroke: #000000" x="-91533.7" y="-41962.7" width="184.3" height="37"/>
      <text style="fill: #000000;text-anchor:middle;font-size:12.8;font-family:sanserif;font-style:oblique;font-weight:normal" x="-91441.6" y="-41939.4">
        <tspan x="-91441.6" y="-41939.4">SurfaceShaderCollectionItem</tspan>
      </text>
    </g>
  </g>
</svg>
