<?xml version="1.0" encoding="UTF-8" standalone="no"?>
<!DOCTYPE svg PUBLIC "-//W3C//DTD SVG 1.0//EN" "http://www.w3.org/TR/2001/PR-SVG-20010719/DTD/svg10.dtd">
<svg width="145cm" height="58cm" viewBox="-93679 -43089 2882 1157" xmlns="http://www.w3.org/2000/svg" xmlns:xlink="http://www.w3.org/1999/xlink">
  <g>
    <rect style="fill: #f8eecd" x="-93322.6" y="-42257.4" width="207.55" height="38"/>
    <rect style="fill: none; fill-opacity:0; stroke-width: 1; stroke: #000000" x="-93322.6" y="-42257.4" width="207.55" height="38"/>
    <text style="fill: #000000;text-anchor:middle;font-size:12.8;font-family:sanserif;font-style:normal;font-weight:normal" x="-93218.8" y="-42233.6">
      <tspan x="-93218.8" y="-42233.6">EntityItem&lt;Entity, ParentEntity&gt;</tspan>
    </text>
  </g>
  <g>
    <rect style="fill: #ffffff" x="-92713" y="-42383.4" width="122.6" height="38"/>
    <rect style="fill: none; fill-opacity:0; stroke-width: 1; stroke: #000000" x="-92713" y="-42383.4" width="122.6" height="38"/>
    <text style="fill: #000000;text-anchor:middle;font-size:12.8;font-family:sanserif;font-style:normal;font-weight:normal" x="-92651.7" y="-42359.6">
      <tspan x="-92651.7" y="-42359.6">EntityCreatorBase</tspan>
    </text>
  </g>
  <g>
    <line style="fill: none; fill-opacity:0; stroke-width: 1; stroke: #000000" x1="-93218.8" y1="-42479.4" x2="-93218.8" y2="-42392"/>
    <polygon style="fill: #000000" points="-93218.8,-42384.5 -93223.8,-42394.5 -93218.8,-42392 -93213.8,-42394.5 "/>
    <polygon style="fill: none; fill-opacity:0; stroke-width: 1; stroke: #000000" points="-93218.8,-42384.5 -93223.8,-42394.5 -93218.8,-42392 -93213.8,-42394.5 "/>
  </g>
  <text style="fill: #000000;text-anchor:start;font-size:12.8;font-family:sanserif;font-style:normal;font-weight:normal" x="-93218.8" y="-42364.4">
    <tspan x="-93218.8" y="-42364.4"></tspan>
  </text>
  <text style="fill: #000000;text-anchor:start;font-size:12.8;font-family:sanserif;font-style:normal;font-weight:normal" x="-93218.8" y="-42238.4">
    <tspan x="-93218.8" y="-42238.4"></tspan>
  </text>
  <g>
    <rect style="fill: #f8eecd" x="-93624.1" y="-42116.2" width="324.65" height="38"/>
    <rect style="fill: none; fill-opacity:0; stroke-width: 1; stroke: #000000" x="-93624.1" y="-42116.2" width="324.65" height="38"/>
    <text style="fill: #000000;text-anchor:middle;font-size:12.8;font-family:sanserif;font-style:normal;font-weight:normal" x="-93461.7" y="-42092.4">
      <tspan x="-93461.7" y="-42092.4">SingleModelEntityItem&lt;Entity, ParentEntity, Factory&gt;</tspan>
    </text>
  </g>
  <g>
    <rect style="fill: #f8eecd" x="-93122.6" y="-42116.2" width="268.35" height="38"/>
    <rect style="fill: none; fill-opacity:0; stroke-width: 1; stroke: #000000" x="-93122.6" y="-42116.2" width="268.35" height="38"/>
    <text style="fill: #000000;text-anchor:middle;font-size:12.8;font-family:sanserif;font-style:normal;font-weight:normal" x="-92988.5" y="-42092.4">
      <tspan x="-92988.5" y="-42092.4">MultiModelEntityItem&lt;Entity, ParentEntity&gt;</tspan>
    </text>
  </g>
  <text style="fill: #000000;text-anchor:start;font-size:12.8;font-family:sanserif;font-style:normal;font-weight:normal" x="-93461.7" y="-42097.2">
    <tspan x="-93461.7" y="-42097.2"></tspan>
  </text>
  <text style="fill: #000000;text-anchor:start;font-size:12.8;font-family:sanserif;font-style:normal;font-weight:normal" x="-92988.5" y="-42097.2">
    <tspan x="-92988.5" y="-42097.2"></tspan>
  </text>
  <g>
    <path style="fill: none; fill-opacity:0; stroke-width: 1; stroke: #000000" d="M -92539.6 -42945 C -92664.2,-42812 -93217.4,-42617.8 -93218.7,-42526"/>
    <polygon style="fill: #000000" points="-93218.8,-42518.5 -93223.6,-42528.6 -93218.7,-42526 -93213.6,-42528.4 "/>
    <polygon style="fill: none; fill-opacity:0; stroke-width: 1; stroke: #000000" points="-93218.8,-42518.5 -93223.6,-42528.6 -93218.7,-42526 -93213.6,-42528.4 "/>
  </g>
  <g>
    <path style="fill: none; fill-opacity:0; stroke-width: 1; stroke: #000000" d="M -92539.6 -42945 C -92426,-42857.4 -91261.4,-42986.4 -91252.2,-42783.6"/>
    <polygon style="fill: #000000" points="-91251.9,-42776.1 -91257.3,-42785.9 -91252.2,-42783.6 -91247.3,-42786.3 "/>
    <polygon style="fill: none; fill-opacity:0; stroke-width: 1; stroke: #000000" points="-91251.9,-42776.1 -91257.3,-42785.9 -91252.2,-42783.6 -91247.3,-42786.3 "/>
  </g>
  <g>
    <path style="fill: none; fill-opacity:0; stroke-width: 1; stroke: #000000" d="M -92651.8 -42345.4 C -92650.6,-42263.2 -93015.4,-42238.6 -93106.6,-42238.4"/>
    <polygon style="fill: #000000" points="-93114.1,-42238.4 -93104.1,-42243.4 -93106.6,-42238.4 -93104.1,-42233.4 "/>
    <polygon style="fill: none; fill-opacity:0; stroke-width: 1; stroke: #000000" points="-93114.1,-42238.4 -93104.1,-42243.4 -93106.6,-42238.4 -93104.1,-42233.4 "/>
  </g>
  <g>
    <path style="fill: none; fill-opacity:0; stroke-width: 1; stroke: #000000" d="M -93218.8 -42219.4 C -93219,-42160.4 -93459.9,-42182.8 -93461.5,-42124.8"/>
    <polygon style="fill: #000000" points="-93461.7,-42117.3 -93466.4,-42127.4 -93461.5,-42124.8 -93456.4,-42127.2 "/>
    <polygon style="fill: none; fill-opacity:0; stroke-width: 1; stroke: #000000" points="-93461.7,-42117.3 -93466.4,-42127.4 -93461.5,-42124.8 -93456.4,-42127.2 "/>
  </g>
  <g>
    <path style="fill: none; fill-opacity:0; stroke-width: 1; stroke: #000000" d="M -93218.8 -42219.4 C -93218,-42154.4 -92989.7,-42185.8 -92988.6,-42124.8"/>
    <polygon style="fill: #000000" points="-92988.5,-42117.3 -92993.6,-42127.2 -92988.6,-42124.8 -92983.6,-42127.4 "/>
    <polygon style="fill: none; fill-opacity:0; stroke-width: 1; stroke: #000000" points="-92988.5,-42117.3 -92993.6,-42127.2 -92988.6,-42124.8 -92983.6,-42127.4 "/>
  </g>
  <text style="fill: #000000;text-anchor:start;font-size:12.8;font-family:sanserif;font-style:normal;font-weight:normal" x="-91993.4" y="-42238.4">
    <tspan x="-91993.4" y="-42238.4"></tspan>
  </text>
  <g>
    <path style="fill: none; fill-opacity:0; stroke-width: 1; stroke: #000000" d="M -92651.8 -42345.4 C -92648.4,-42272.8 -92213.8,-42236.8 -92117.4,-42238.3"/>
    <polygon style="fill: #000000" points="-92109.9,-42238.4 -92119.8,-42233.2 -92117.4,-42238.3 -92120,-42243.2 "/>
    <polygon style="fill: none; fill-opacity:0; stroke-width: 1; stroke: #000000" points="-92109.9,-42238.4 -92119.8,-42233.2 -92117.4,-42238.3 -92120,-42243.2 "/>
  </g>
  <g>
    <path style="fill: none; fill-opacity:0; stroke-width: 1; stroke: #000000" d="M -92539.6 -42945 C -92538.4,-42905 -92639.2,-42641 -92657.1,-42603.4"/>
    <polygon style="fill: #000000" points="-92660.3,-42596.6 -92660.5,-42607.8 -92657.1,-42603.4 -92651.5,-42603.5 "/>
    <polygon style="fill: none; fill-opacity:0; stroke-width: 1; stroke: #000000" points="-92660.3,-42596.6 -92660.5,-42607.8 -92657.1,-42603.4 -92651.5,-42603.5 "/>
  </g>
  <g>
    <path style="fill: none; fill-opacity:0; stroke-width: 1; stroke: #000000" d="M -92539.6 -42945 C -92537.8,-42906.6 -92561.9,-42638.8 -92561.7,-42604.2"/>
    <polygon style="fill: #000000" points="-92561.7,-42596.7 -92566.7,-42606.7 -92561.7,-42604.2 -92556.7,-42606.7 "/>
    <polygon style="fill: none; fill-opacity:0; stroke-width: 1; stroke: #000000" points="-92561.7,-42596.7 -92566.7,-42606.7 -92561.7,-42604.2 -92556.7,-42606.7 "/>
  </g>
  <g>
    <path style="fill: none; fill-opacity:0; stroke-width: 1; stroke: #000000" d="M -92988.5 -42078.2 C -93031.5,-42037.1 -93201.2,-41996.8 -93246.2,-41969.3"/>
    <polygon style="fill: #000000" points="-93252.6,-41965.4 -93246.7,-41974.9 -93246.2,-41969.3 -93241.5,-41966.3 "/>
    <polygon style="fill: none; fill-opacity:0; stroke-width: 1; stroke: #000000" points="-93252.6,-41965.4 -93246.7,-41974.9 -93246.2,-41969.3 -93241.5,-41966.3 "/>
  </g>
  <g>
    <path style="fill: none; fill-opacity:0; stroke-width: 1; stroke: #000000" d="M -92988.5 -42078.2 C -93007,-42031.6 -93069.2,-41995.9 -93094,-41970.9"/>
    <polygon style="fill: #000000" points="-93099.3,-41965.6 -93095.8,-41976.2 -93094,-41970.9 -93088.7,-41969.2 "/>
    <polygon style="fill: none; fill-opacity:0; stroke-width: 1; stroke: #000000" points="-93099.3,-41965.6 -93095.8,-41976.2 -93094,-41970.9 -93088.7,-41969.2 "/>
  </g>
  <g>
    <path style="fill: none; fill-opacity:0; stroke-width: 1; stroke: #000000" d="M -92988.5 -42078.2 C -92933.8,-42031.7 -92773.4,-41998.5 -92697.9,-41968.1"/>
    <polygon style="fill: #000000" points="-92691,-41965.3 -92702.1,-41964.4 -92697.9,-41968.1 -92698.4,-41973.6 "/>
    <polygon style="fill: none; fill-opacity:0; stroke-width: 1; stroke: #000000" points="-92691,-41965.3 -92702.1,-41964.4 -92697.9,-41968.1 -92698.4,-41973.6 "/>
  </g>
  <g>
    <path style="fill: none; fill-opacity:0; stroke-width: 1; stroke: #000000" d="M -92988.5 -42078.2 C -92991,-42032.5 -92999,-42003.4 -93005,-41973.3"/>
    <polygon style="fill: #000000" points="-93006.5,-41965.9 -93009.4,-41976.7 -93005,-41973.3 -92999.6,-41974.8 "/>
    <polygon style="fill: none; fill-opacity:0; stroke-width: 1; stroke: #000000" points="-93006.5,-41965.9 -93009.4,-41976.7 -93005,-41973.3 -92999.6,-41974.8 "/>
  </g>
  <g>
    <path style="fill: none; fill-opacity:0; stroke-width: 1; stroke: #000000" d="M -91251.8 -42737 C -91335.8,-42678.6 -91488.4,-42630 -91555,-42599.2"/>
    <polygon style="fill: #000000" points="-91561.8,-42596.1 -91554.8,-42604.8 -91555,-42599.2 -91550.6,-42595.7 "/>
    <polygon style="fill: none; fill-opacity:0; stroke-width: 1; stroke: #000000" points="-91561.8,-42596.1 -91554.8,-42604.8 -91555,-42599.2 -91550.6,-42595.7 "/>
  </g>
  <g>
    <path style="fill: none; fill-opacity:0; stroke-width: 1; stroke: #000000" d="M -91682.9 -42078.2 C -91778.6,-42046.7 -91919.4,-41989.3 -92008.5,-41966.9"/>
    <polygon style="fill: #000000" points="-92015.8,-41965.1 -92007.3,-41972.4 -92008.5,-41966.9 -92004.8,-41962.7 "/>
    <polygon style="fill: none; fill-opacity:0; stroke-width: 1; stroke: #000000" points="-92015.8,-41965.1 -92007.3,-41972.4 -92008.5,-41966.9 -92004.8,-41962.7 "/>
  </g>
  <g>
    <path style="fill: none; fill-opacity:0; stroke-width: 1; stroke: #000000" d="M -91251.8 -42737 C -91226.7,-42683.4 -91177.2,-42627 -91149.9,-42601.5"/>
    <polygon style="fill: #000000" points="-91144.4,-42596.4 -91155.1,-42599.5 -91149.9,-42601.5 -91148.3,-42606.8 "/>
    <polygon style="fill: none; fill-opacity:0; stroke-width: 1; stroke: #000000" points="-91144.4,-42596.4 -91155.1,-42599.5 -91149.9,-42601.5 -91148.3,-42606.8 "/>
  </g>
  <g>
    <path style="fill: none; fill-opacity:0; stroke-width: 1; stroke: #000000" d="M -91682.9 -42078.2 C -91588.6,-42026.7 -91409.4,-41990.1 -91331.2,-41967.3"/>
    <polygon style="fill: #000000" points="-91324,-41965.1 -91335,-41963.2 -91331.2,-41967.3 -91332.2,-41972.8 "/>
    <polygon style="fill: none; fill-opacity:0; stroke-width: 1; stroke: #000000" points="-91324,-41965.1 -91335,-41963.2 -91331.2,-41967.3 -91332.2,-41972.8 "/>
  </g>
  <g>
    <path style="fill: none; fill-opacity:0; stroke-width: 1; stroke: #000000" d="M -91251.8 -42737 C -91183.3,-42668.9 -91066.5,-42621.8 -91015.1,-42599.1"/>
    <polygon style="fill: #000000" points="-91008.2,-42596.1 -91019.4,-42595.5 -91015.1,-42599.1 -91015.4,-42604.7 "/>
    <polygon style="fill: none; fill-opacity:0; stroke-width: 1; stroke: #000000" points="-91008.2,-42596.1 -91019.4,-42595.5 -91015.1,-42599.1 -91015.4,-42604.7 "/>
  </g>
  <g>
    <path style="fill: none; fill-opacity:0; stroke-width: 1; stroke: #000000" d="M -91251.8 -42737 C -91164.3,-42683.4 -90947.9,-42621.8 -90876.7,-42598.3"/>
    <polygon style="fill: #000000" points="-90869.6,-42596 -90880.6,-42594.3 -90876.7,-42598.3 -90877.5,-42603.8 "/>
    <polygon style="fill: none; fill-opacity:0; stroke-width: 1; stroke: #000000" points="-90869.6,-42596 -90880.6,-42594.3 -90876.7,-42598.3 -90877.5,-42603.8 "/>
  </g>
  <g>
    <path style="fill: none; fill-opacity:0; stroke-width: 1; stroke: #000000" d="M -91251.8 -42737 C -91253.9,-42690.6 -91266.6,-42638.1 -91275.4,-42603.9"/>
    <polygon style="fill: #000000" points="-91277.3,-42596.7 -91279.6,-42607.6 -91275.4,-42603.9 -91270,-42605.1 "/>
    <polygon style="fill: none; fill-opacity:0; stroke-width: 1; stroke: #000000" points="-91277.3,-42596.7 -91279.6,-42607.6 -91275.4,-42603.9 -91270,-42605.1 "/>
  </g>
  <g>
    <path style="fill: none; fill-opacity:0; stroke-width: 1; stroke: #000000" d="M -92279.1 -42078.2 C -92290.3,-42041 -92306.2,-42010.3 -92333.9,-41971.9"/>
    <polygon style="fill: #000000" points="-92338.3,-41965.8 -92336.5,-41976.9 -92333.9,-41971.9 -92328.4,-41971 "/>
    <polygon style="fill: none; fill-opacity:0; stroke-width: 1; stroke: #000000" points="-92338.3,-41965.8 -92336.5,-41976.9 -92333.9,-41971.9 -92328.4,-41971 "/>
  </g>
  <g>
    <path style="fill: none; fill-opacity:0; stroke-width: 1; stroke: #000000" d="M -91251.8 -42737 C -91298.3,-42679.8 -91360.5,-42636.4 -91410.3,-42600.6"/>
    <polygon style="fill: #000000" points="-91416.4,-42596.3 -91411.2,-42606.1 -91410.3,-42600.6 -91405.4,-42598 "/>
    <polygon style="fill: none; fill-opacity:0; stroke-width: 1; stroke: #000000" points="-91416.4,-42596.3 -91411.2,-42606.1 -91410.3,-42600.6 -91405.4,-42598 "/>
  </g>
  <g>
    <path style="fill: none; fill-opacity:0; stroke-width: 1; stroke: #000000" d="M -92539.6 -42945 C -92538.4,-42904 -92410.9,-42647.4 -92393,-42603.6"/>
    <polygon style="fill: #000000" points="-92390.1,-42596.6 -92398.5,-42604 -92393,-42603.6 -92389.3,-42607.8 "/>
    <polygon style="fill: none; fill-opacity:0; stroke-width: 1; stroke: #000000" points="-92390.1,-42596.6 -92398.5,-42604 -92393,-42603.6 -92389.3,-42607.8 "/>
  </g>
  <g>
    <path style="fill: none; fill-opacity:0; stroke-width: 1; stroke: #000000" d="M -92539.6 -42945 C -92535.2,-42909.2 -92315.6,-42641 -92295.6,-42603.2"/>
    <polygon style="fill: #000000" points="-92292.1,-42596.6 -92301.2,-42603.1 -92295.6,-42603.2 -92292.4,-42607.8 "/>
    <polygon style="fill: none; fill-opacity:0; stroke-width: 1; stroke: #000000" points="-92292.1,-42596.6 -92301.2,-42603.1 -92295.6,-42603.2 -92292.4,-42607.8 "/>
  </g>
  <g>
    <path style="fill: none; fill-opacity:0; stroke-width: 1; stroke: #000000" d="M -92539.6 -42945 C -92541.6,-42906 -92470.1,-42635.6 -92468.7,-42604.2"/>
    <polygon style="fill: #000000" points="-92468.3,-42596.7 -92473.8,-42606.5 -92468.7,-42604.2 -92463.8,-42606.9 "/>
    <polygon style="fill: none; fill-opacity:0; stroke-width: 1; stroke: #000000" points="-92468.3,-42596.7 -92473.8,-42606.5 -92468.7,-42604.2 -92463.8,-42606.9 "/>
  </g>
  <text style="fill: #000000;text-anchor:start;font-size:10.16;font-family:Consolas;font-style:normal;font-weight:normal" x="-93678.4" y="-42236.6">
    <tspan x="-93678.4" y="-42236.6">Base class for entity items with generic edition &amp; deletion</tspan>
  </text>
  <text style="fill: #000000;text-anchor:start;font-size:10.16;font-family:Consolas;font-style:normal;font-weight:normal" x="-92365.2" y="-42294.6">
    <tspan x="-92365.2" y="-42294.6">Base class for collections of entity items with generic creation</tspan>
    <tspan x="-92365.2" y="-42281.9">  - Built from a collection of entities</tspan>
    <tspan x="-92365.2" y="-42269.2">  - Provides an overload of add_item()</tspan>
  </text>
  <g>
    <path style="fill: none; fill-opacity:0; stroke-width: 1; stroke: #000000" d="M -92539.6 -42945 C -92538.8,-42903.4 -92735.3,-42635.6 -92760.8,-42602.4"/>
    <polygon style="fill: #000000" points="-92765.4,-42596.5 -92763.2,-42607.5 -92760.8,-42602.4 -92755.3,-42601.4 "/>
    <polygon style="fill: none; fill-opacity:0; stroke-width: 1; stroke: #000000" points="-92765.4,-42596.5 -92763.2,-42607.5 -92760.8,-42602.4 -92755.3,-42601.4 "/>
  </g>
  <g>
    <path style="fill: none; fill-opacity:0; stroke-width: 1; stroke: #000000" d="M -92614.6 -43049.8 C -92614.4,-42989.2 -92540.8,-43060.8 -92539.7,-42991.6"/>
    <polygon style="fill: #000000" points="-92539.6,-42984.1 -92544.8,-42994 -92539.7,-42991.6 -92534.8,-42994.2 "/>
    <polygon style="fill: none; fill-opacity:0; stroke-width: 1; stroke: #000000" points="-92539.6,-42984.1 -92544.8,-42994 -92539.7,-42991.6 -92534.8,-42994.2 "/>
  </g>
  <g>
    <path style="fill: none; fill-opacity:0; stroke-width: 1; stroke: #000000" d="M -92481.8 -43049.8 C -92481.6,-42989.2 -92540.8,-43060.8 -92539.7,-42991.6"/>
    <polygon style="fill: #000000" points="-92539.6,-42984.1 -92544.8,-42994 -92539.7,-42991.6 -92534.8,-42994.2 "/>
    <polygon style="fill: none; fill-opacity:0; stroke-width: 1; stroke: #000000" points="-92539.6,-42984.1 -92544.8,-42994 -92539.7,-42991.6 -92534.8,-42994.2 "/>
  </g>
  <g>
    <path style="fill: none; fill-opacity:0; stroke-width: 1; stroke: #000000" d="M -92539.6 -42945 C -92452,-42842.4 -91997.4,-42589.6 -91993.2,-42392"/>
    <polygon style="fill: #000000" points="-91993,-42384.5 -91998.2,-42394.4 -91993.2,-42392 -91988.2,-42394.6 "/>
    <polygon style="fill: none; fill-opacity:0; stroke-width: 1; stroke: #000000" points="-91993,-42384.5 -91998.2,-42394.4 -91993.2,-42392 -91988.2,-42394.6 "/>
  </g>
  <text style="fill: #000000;text-anchor:start;font-size:28.2222;font-family:sanserif;font-style:normal;font-weight:normal" x="-93569.4" y="-42951.6">
    <tspan x="-93569.4" y="-42951.6">appleseed.studio Project Explorer</tspan>
    <tspan x="-93569.4" y="-42916.3">Class Inheritance Diagram</tspan>
  </text>
  <g>
    <rect style="fill: #f8eecd" x="-92452.6" y="-42116.2" width="346.9" height="38"/>
    <rect style="fill: none; fill-opacity:0; stroke-width: 1; stroke-dasharray: 4; stroke: #000000" x="-92452.6" y="-42116.2" width="346.9" height="38"/>
    <text style="fill: #000000;text-anchor:middle;font-size:12.8;font-family:sanserif;font-style:oblique;font-weight:normal" x="-92279.1" y="-42092.4">
      <tspan x="-92279.1" y="-42092.4">SingleModelCollectionItem&lt;Entity, ParentEntity, Factory&gt;</tspan>
    </text>
  </g>
  <g>
    <rect style="fill: #f8eecd" x="-91828.2" y="-42116.2" width="290.6" height="38"/>
    <rect style="fill: none; fill-opacity:0; stroke-width: 1; stroke: #000000" x="-91828.2" y="-42116.2" width="290.6" height="38"/>
    <text style="fill: #000000;text-anchor:middle;font-size:12.8;font-family:sanserif;font-style:normal;font-weight:normal" x="-91682.9" y="-42092.4">
      <tspan x="-91682.9" y="-42092.4">MultiModelCollectionItem&lt;Entity, ParentEntity&gt;</tspan>
    </text>
  </g>
  <g>
    <path style="fill: none; fill-opacity:0; stroke-width: 1; stroke: #000000" d="M -91993.4 -42219.4 C -91994.4,-42165.2 -92279.5,-42167.8 -92279.2,-42124.8"/>
    <polygon style="fill: #000000" points="-92279.1,-42117.3 -92284.2,-42127.3 -92279.2,-42124.8 -92274.2,-42127.4 "/>
    <polygon style="fill: none; fill-opacity:0; stroke-width: 1; stroke: #000000" points="-92279.1,-42117.3 -92284.2,-42127.3 -92279.2,-42124.8 -92274.2,-42127.4 "/>
  </g>
  <g>
    <path style="fill: none; fill-opacity:0; stroke-width: 1; stroke: #000000" d="M -91993.4 -42219.4 C -91994.4,-42165.2 -91683.3,-42167.8 -91683,-42124.8"/>
    <polygon style="fill: #000000" points="-91682.9,-42117.3 -91688,-42127.3 -91683,-42124.8 -91678,-42127.4 "/>
    <polygon style="fill: none; fill-opacity:0; stroke-width: 1; stroke: #000000" points="-91682.9,-42117.3 -91688,-42127.3 -91683,-42124.8 -91678,-42127.4 "/>
  </g>
  <g>
    <path style="fill: none; fill-opacity:0; stroke-width: 1; stroke: #000000" d="M -91251.8 -42737 C -91334.4,-42700.6 -91690.8,-42728.2 -91801.4,-42616 C -91912,-42503.8 -91782.8,-42342.4 -91985.4,-42260.6"/>
    <polygon style="fill: #000000" points="-91992.4,-42257.8 -91985,-42266.2 -91985.4,-42260.6 -91981.2,-42256.9 "/>
    <polygon style="fill: none; fill-opacity:0; stroke-width: 1; stroke: #000000" points="-91992.4,-42257.8 -91985,-42266.2 -91985.4,-42260.6 -91981.2,-42256.9 "/>
  </g>
  <g>
    <path style="fill: none; fill-opacity:0; stroke-width: 1; stroke: #000000" d="M -91682.9 -42078.2 C -91740.1,-42034.4 -91825.5,-42003.2 -91895.7,-41968.6"/>
    <polygon style="fill: #000000" points="-91902.4,-41965.3 -91895.7,-41974.2 -91895.7,-41968.6 -91891.2,-41965.3 "/>
    <polygon style="fill: none; fill-opacity:0; stroke-width: 1; stroke: #000000" points="-91902.4,-41965.3 -91895.7,-41974.2 -91895.7,-41968.6 -91891.2,-41965.3 "/>
  </g>
  <g>
    <path style="fill: none; fill-opacity:0; stroke-width: 1; stroke: #000000" d="M -91682.9 -42078.2 C -91657.1,-42021.3 -91627.8,-41997.8 -91605.9,-41971.5"/>
    <polygon style="fill: #000000" points="-91601.1,-41965.7 -91611.3,-41970.2 -91605.9,-41971.5 -91603.7,-41976.6 "/>
    <polygon style="fill: none; fill-opacity:0; stroke-width: 1; stroke: #000000" points="-91601.1,-41965.7 -91611.3,-41970.2 -91605.9,-41971.5 -91603.7,-41976.6 "/>
  </g>
  <g>
    <text style="fill: #000000;text-anchor:start;font-size:10.16;font-family:Consolas;font-style:normal;font-weight:normal" x="-91130.6" y="-42777.8">
      <tspan x="-91130.6" y="-42777.8">Base class for all collections of items:</tspan>
      <tspan x="-91130.6" y="-42765.1">  - Built from class_uid &amp; title</tspan>
      <tspan x="-91130.6" y="-42752.4">  - Renders the title in bold</tspan>
      <tspan x="-91130.6" y="-42739.7">  - Provides add_item() and add_items()</tspan>
      <tspan x="-91130.6" y="-42727">The name is a shortcut for EntityCollectionItemBase.</tspan>
    </text>
    <g>
      <g>
        <rect style="fill: #f8eecd" x="-91341.6" y="-42775" width="179.75" height="38"/>
        <rect style="fill: none; fill-opacity:0; stroke-width: 1; stroke: #000000" x="-91341.6" y="-42775" width="179.75" height="38"/>
        <text style="fill: #000000;text-anchor:middle;font-size:12.8;font-family:sanserif;font-style:normal;font-weight:normal" x="-91251.7" y="-42751.2">
          <tspan x="-91251.7" y="-42751.2">CollectionItemBase&lt;Entity&gt;</tspan>
        </text>
      </g>
      <text style="fill: #000000;text-anchor:start;font-size:9.03111;font-family:sanserif;font-style:normal;font-weight:normal" x="-91250.8" y="-42792.6">
        <tspan x="-91250.8" y="-42792.6">virtual</tspan>
      </text>
    </g>
  </g>
  <g>
    <line style="fill: none; fill-opacity:0; stroke-width: 1; stroke: #000000" x1="-91993" y1="-42345.4" x2="-91993.4" y2="-42266"/>
    <polygon style="fill: #000000" points="-91993.4,-42258.5 -91998.3,-42268.5 -91993.4,-42266 -91988.3,-42268.5 "/>
    <polygon style="fill: none; fill-opacity:0; stroke-width: 1; stroke: #000000" points="-91993.4,-42258.5 -91998.3,-42268.5 -91993.4,-42266 -91988.3,-42268.5 "/>
  </g>
  <g>
    <rect style="fill: #f8eecd" x="-92108.8" y="-42257.4" width="230.8" height="38"/>
    <rect style="fill: none; fill-opacity:0; stroke-width: 1; stroke: #000000" x="-92108.8" y="-42257.4" width="230.8" height="38"/>
    <text style="fill: #000000;text-anchor:middle;font-size:12.8;font-family:sanserif;font-style:normal;font-weight:normal" x="-91993.4" y="-42233.6">
      <tspan x="-91993.4" y="-42233.6">CollectionItem&lt;Entity, ParentEntity&gt;</tspan>
    </text>
  </g>
  <g>
    <rect style="fill: #ffffff" x="-93286.2" y="-42517.4" width="134.65" height="38"/>
    <rect style="fill: none; fill-opacity:0; stroke-width: 1; stroke: #000000" x="-93286.2" y="-42517.4" width="134.65" height="38"/>
    <text style="fill: #000000;text-anchor:middle;font-size:12.8;font-family:sanserif;font-style:normal;font-weight:normal" x="-93218.9" y="-42493.6">
      <tspan x="-93218.9" y="-42493.6">EntityItemBaseSlots</tspan>
    </text>
  </g>
  <g>
    <g>
      <rect style="fill: #f8eecd" x="-92577.2" y="-42983" width="75.3" height="38"/>
      <rect style="fill: none; fill-opacity:0; stroke-width: 1; stroke: #000000" x="-92577.2" y="-42983" width="75.3" height="38"/>
      <text style="fill: #000000;text-anchor:middle;font-size:12.8;font-family:sanserif;font-style:normal;font-weight:normal" x="-92539.5" y="-42959.2">
        <tspan x="-92539.5" y="-42959.2">ItemBase</tspan>
      </text>
    </g>
    <text style="fill: #000000;text-anchor:start;font-size:10.16;font-family:Consolas;font-style:normal;font-weight:normal" x="-92480" y="-42979.6">
      <tspan x="-92480" y="-42979.6">Base class for all items:</tspan>
      <tspan x="-92480" y="-42966.9">  - Built from class_uid or class_uid &amp; title</tspan>
      <tspan x="-92480" y="-42954.2">  - Provides set_title()</tspan>
      <tspan x="-92480" y="-42941.5">  - Defines empty virtual functions for context menus</tspan>
    </text>
    <g>
      <g>
        <rect style="fill: #ffc0cb" x="-92543.4" y="-43087.8" width="123" height="38"/>
        <rect style="fill: none; fill-opacity:0; stroke-width: 1; stroke: #000000" x="-92543.4" y="-43087.8" width="123" height="38"/>
        <text style="fill: #000000;text-anchor:middle;font-size:12.8;font-family:sanserif;font-style:normal;font-weight:normal" x="-92481.9" y="-43064">
          <tspan x="-92481.9" y="-43064">QTreeWidgetItem</tspan>
        </text>
      </g>
      <g>
        <rect style="fill: #ffc0cb" x="-92648" y="-43087.8" width="66.75" height="38"/>
        <rect style="fill: none; fill-opacity:0; stroke-width: 1; stroke: #000000" x="-92648" y="-43087.8" width="66.75" height="38"/>
        <text style="fill: #000000;text-anchor:middle;font-size:12.8;font-family:sanserif;font-style:normal;font-weight:normal" x="-92614.6" y="-43064">
          <tspan x="-92614.6" y="-43064">QObject</tspan>
        </text>
      </g>
    </g>
  </g>
  <g>
    <line style="fill: none; fill-opacity:0; stroke-width: 1; stroke: #000000" x1="-93218.8" y1="-42345.4" x2="-93218.8" y2="-42266"/>
    <polygon style="fill: #000000" points="-93218.8,-42258.5 -93223.8,-42268.5 -93218.8,-42266 -93213.8,-42268.5 "/>
    <polygon style="fill: none; fill-opacity:0; stroke-width: 1; stroke: #000000" points="-93218.8,-42258.5 -93223.8,-42268.5 -93218.8,-42266 -93213.8,-42268.5 "/>
  </g>
  <text style="fill: #000000;text-anchor:start;font-size:10.16;font-family:Consolas;font-style:normal;font-weight:normal" x="-93622.6" y="-42380">
    <tspan x="-93622.6" y="-42380">Base class for all entity items:</tspan>
    <tspan x="-93622.6" y="-42367.3">  - Built from an entity</tspan>
    <tspan x="-93622.6" y="-42354.6">  - Provides update_title()</tspan>
    <tspan x="-93622.6" y="-42341.9">  - Provide context menu items for edition &amp; deletion</tspan>
  </text>
  <g>
    <rect style="fill: #f8eecd" x="-93298" y="-42383.4" width="158.5" height="38"/>
    <rect style="fill: none; fill-opacity:0; stroke-width: 1; stroke: #000000" x="-93298" y="-42383.4" width="158.5" height="38"/>
    <text style="fill: #000000;text-anchor:middle;font-size:12.8;font-family:sanserif;font-style:normal;font-weight:normal" x="-93218.7" y="-42359.6">
      <tspan x="-93218.7" y="-42359.6">EntityItemBase&lt;Entity&gt;</tspan>
    </text>
  </g>
  <g>
    <g>
      <rect style="fill: #ffffff" x="-92058.2" y="-42383.4" width="130.2" height="38"/>
      <rect style="fill: none; fill-opacity:0; stroke-width: 1; stroke: #000000" x="-92058.2" y="-42383.4" width="130.2" height="38"/>
      <text style="fill: #000000;text-anchor:middle;font-size:12.8;font-family:sanserif;font-style:normal;font-weight:normal" x="-91993.1" y="-42359.6">
        <tspan x="-91993.1" y="-42359.6">CollectionItemSlots</tspan>
      </text>
    </g>
    <text style="fill: #000000;text-anchor:start;font-size:9.03111;font-family:sanserif;font-style:normal;font-weight:normal" x="-91988.4" y="-42402">
      <tspan x="-91988.4" y="-42402">virtual</tspan>
    </text>
  </g>
  <g>
    <path style="fill: none; fill-opacity:0; stroke-width: 1; stroke: #000000" d="M -92988.5 -42078.2 C -92964.6,-42030.2 -92925.1,-41993 -92889.4,-41969.6"/>
    <polygon style="fill: #000000" points="-92883.1,-41965.4 -92894.2,-41966.8 -92889.4,-41969.6 -92888.7,-41975.1 "/>
    <polygon style="fill: none; fill-opacity:0; stroke-width: 1; stroke: #000000" points="-92883.1,-41965.4 -92894.2,-41966.8 -92889.4,-41969.6 -92888.7,-41975.1 "/>
  </g>
  <g>
    <path style="fill: none; fill-opacity:0; stroke-width: 1; stroke: #000000" d="M -92988.5 -42078.2 C -93027.6,-42027.1 -93131.9,-41995 -93168.4,-41969.7"/>
    <polygon style="fill: #000000" points="-93174.6,-41965.5 -93169.2,-41975.3 -93168.4,-41969.7 -93163.5,-41967 "/>
    <polygon style="fill: none; fill-opacity:0; stroke-width: 1; stroke: #000000" points="-93174.6,-41965.5 -93169.2,-41975.3 -93168.4,-41969.7 -93163.5,-41967 "/>
  </g>
  <g>
    <path style="fill: none; fill-opacity:0; stroke-width: 1; stroke: #000000" d="M -93461.7 -42078.2 C -93462.1,-42038.4 -93465.4,-41999.9 -93467.8,-41973.4"/>
    <polygon style="fill: #000000" points="-93468.4,-41965.9 -93472.5,-41976.4 -93467.8,-41973.4 -93462.6,-41975.5 "/>
    <polygon style="fill: none; fill-opacity:0; stroke-width: 1; stroke: #000000" points="-93468.4,-41965.9 -93472.5,-41976.4 -93467.8,-41973.4 -93462.6,-41975.5 "/>
  </g>
  <g>
    <path style="fill: none; fill-opacity:0; stroke-width: 1; stroke: #000000" d="M -93461.7 -42078.2 C -93462.1,-42038.4 -93405.8,-41999 -93382.7,-41971.4"/>
    <polygon style="fill: #000000" points="-93377.9,-41965.7 -93388.1,-41970.1 -93382.7,-41971.4 -93380.5,-41976.6 "/>
    <polygon style="fill: none; fill-opacity:0; stroke-width: 1; stroke: #000000" points="-93377.9,-41965.7 -93388.1,-41970.1 -93382.7,-41971.4 -93380.5,-41976.6 "/>
  </g>
  <g>
    <path style="fill: none; fill-opacity:0; stroke-width: 1; stroke: #000000" d="M -92279.1 -42078.2 C -92265.1,-42039 -92253.9,-42011.1 -92227.8,-41971.9"/>
    <polygon style="fill: #000000" points="-92223.6,-41965.7 -92233.3,-41971.2 -92227.8,-41971.9 -92225,-41976.8 "/>
    <polygon style="fill: none; fill-opacity:0; stroke-width: 1; stroke: #000000" points="-92223.6,-41965.7 -92233.3,-41971.2 -92227.8,-41971.9 -92225,-41976.8 "/>
  </g>
  <g>
    <g>
      <rect style="fill: #f3f3f3" x="-92278" y="-41964.7" width="109.95" height="32.2889"/>
      <rect style="fill: none; fill-opacity:0; stroke-width: 1; stroke-dasharray: 4; stroke: #000000" x="-92278" y="-41964.7" width="109.95" height="32.2889"/>
      <text style="fill: #000000;text-anchor:middle;font-size:9.03111;font-family:sanserif;font-style:oblique;font-weight:normal" x="-92223" y="-41945.2">
        <tspan x="-92223" y="-41945.2">MaterialCollectionItem</tspan>
      </text>
    </g>
    <g>
      <rect style="fill: #f3f3f3" x="-92388.4" y="-41964.9" width="98.8" height="32.2889"/>
      <rect style="fill: none; fill-opacity:0; stroke-width: 1; stroke-dasharray: 4; stroke: #000000" x="-92388.4" y="-41964.9" width="98.8" height="32.2889"/>
      <text style="fill: #000000;text-anchor:middle;font-size:9.03111;font-family:sanserif;font-style:normal;font-weight:normal" x="-92339" y="-41945.4">
        <tspan x="-92339" y="-41945.4">ColorCollectionItem</tspan>
      </text>
    </g>
  </g>
  <g>
    <g>
      <rect style="fill: #f3f3f3" x="-91492.3" y="-42595.6" width="150" height="32.2889"/>
      <rect style="fill: none; fill-opacity:0; stroke-width: 1; stroke: #000000" x="-91492.3" y="-42595.6" width="150" height="32.2889"/>
      <text style="fill: #000000;text-anchor:middle;font-size:9.03111;font-family:sanserif;font-style:normal;font-weight:normal" x="-91417.3" y="-42576">
        <tspan x="-91417.3" y="-42576">AssemblyInstanceCollectionItem</tspan>
      </text>
    </g>
    <g>
      <rect style="fill: #f3f3f3" x="-91620.7" y="-42595.6" width="115.7" height="32.2889"/>
      <rect style="fill: none; fill-opacity:0; stroke-width: 1; stroke: #000000" x="-91620.7" y="-42595.6" width="115.7" height="32.2889"/>
      <text style="fill: #000000;text-anchor:middle;font-size:9.03111;font-family:sanserif;font-style:normal;font-weight:normal" x="-91562.8" y="-42576">
        <tspan x="-91562.8" y="-42576">AssemblyCollectionItem</tspan>
      </text>
    </g>
    <g>
      <rect style="fill: #f3f3f3" x="-91212.8" y="-42595.6" width="138.5" height="32.2889"/>
      <rect style="fill: none; fill-opacity:0; stroke-width: 1; stroke: #000000" x="-91212.8" y="-42595.6" width="138.5" height="32.2889"/>
      <text style="fill: #000000;text-anchor:middle;font-size:9.03111;font-family:sanserif;font-style:normal;font-weight:normal" x="-91143.6" y="-42576">
        <tspan x="-91143.6" y="-42576">ObjectInstanceCollectionItem</tspan>
      </text>
    </g>
    <g>
      <rect style="fill: #f3f3f3" x="-91061.7" y="-42595.6" width="108.9" height="32.2889"/>
      <rect style="fill: none; fill-opacity:0; stroke-width: 1; stroke: #000000" x="-91061.7" y="-42595.6" width="108.9" height="32.2889"/>
      <text style="fill: #000000;text-anchor:middle;font-size:9.03111;font-family:sanserif;font-style:normal;font-weight:normal" x="-91007.2" y="-42576">
        <tspan x="-91007.2" y="-42576">TextureCollectionItem</tspan>
      </text>
    </g>
    <g>
      <rect style="fill: #f3f3f3" x="-90940.1" y="-42595.6" width="143.2" height="32.2889"/>
      <rect style="fill: none; fill-opacity:0; stroke-width: 1; stroke: #000000" x="-90940.1" y="-42595.6" width="143.2" height="32.2889"/>
      <text style="fill: #000000;text-anchor:middle;font-size:9.03111;font-family:sanserif;font-style:normal;font-weight:normal" x="-90868.5" y="-42576">
        <tspan x="-90868.5" y="-42576">TextureInstanceCollectionItem</tspan>
      </text>
    </g>
    <g>
      <rect style="fill: #f3f3f3" x="-91329.7" y="-42595.6" width="104.2" height="32.2889"/>
      <rect style="fill: none; fill-opacity:0; stroke-width: 1; stroke: #000000" x="-91329.7" y="-42595.6" width="104.2" height="32.2889"/>
      <text style="fill: #000000;text-anchor:middle;font-size:9.03111;font-family:sanserif;font-style:normal;font-weight:normal" x="-91277.6" y="-42576">
        <tspan x="-91277.6" y="-42576">ObjectCollectionItem</tspan>
      </text>
    </g>
  </g>
  <g>
    <g>
      <rect style="fill: #f3f3f3" x="-92699.4" y="-42595.6" width="77.25" height="32.2889"/>
      <rect style="fill: none; fill-opacity:0; stroke-width: 1; stroke: #000000" x="-92699.4" y="-42595.6" width="77.25" height="32.2889"/>
      <text style="fill: #000000;text-anchor:middle;font-size:9.03111;font-family:sanserif;font-style:normal;font-weight:normal" x="-92660.8" y="-42576">
        <tspan x="-92660.8" y="-42576">AssemblyItem</tspan>
      </text>
    </g>
    <g>
      <rect style="fill: #f3f3f3" x="-92611.7" y="-42595.6" width="100.05" height="32.2889"/>
      <rect style="fill: none; fill-opacity:0; stroke-width: 1; stroke: #000000" x="-92611.7" y="-42595.6" width="100.05" height="32.2889"/>
      <text style="fill: #000000;text-anchor:middle;font-size:9.03111;font-family:sanserif;font-style:normal;font-weight:normal" x="-92561.7" y="-42576">
        <tspan x="-92561.7" y="-42576">ObjectInstanceItem</tspan>
      </text>
    </g>
    <g>
      <rect style="fill: #f3f3f3" x="-92424.9" y="-42595.6" width="70.45" height="32.2889"/>
      <rect style="fill: none; fill-opacity:0; stroke-width: 1; stroke-dasharray: 4; stroke: #000000" x="-92424.9" y="-42595.6" width="70.45" height="32.2889"/>
      <text style="fill: #000000;text-anchor:middle;font-size:9.03111;font-family:sanserif;font-style:oblique;font-weight:normal" x="-92389.7" y="-42576">
        <tspan x="-92389.7" y="-42576">TextureItem</tspan>
      </text>
    </g>
    <g>
      <rect style="fill: #f3f3f3" x="-92344" y="-42595.6" width="104.75" height="32.2889"/>
      <rect style="fill: none; fill-opacity:0; stroke-width: 1; stroke-dasharray: 4; stroke: #000000" x="-92344" y="-42595.6" width="104.75" height="32.2889"/>
      <text style="fill: #000000;text-anchor:middle;font-size:9.03111;font-family:sanserif;font-style:oblique;font-weight:normal" x="-92291.6" y="-42576">
        <tspan x="-92291.6" y="-42576">TextureInstanceItem</tspan>
      </text>
    </g>
    <g>
      <rect style="fill: #f3f3f3" x="-92501.2" y="-42595.6" width="65.75" height="32.2889"/>
      <rect style="fill: none; fill-opacity:0; stroke-width: 1; stroke: #000000" x="-92501.2" y="-42595.6" width="65.75" height="32.2889"/>
      <text style="fill: #000000;text-anchor:middle;font-size:9.03111;font-family:sanserif;font-style:oblique;font-weight:normal" x="-92468.3" y="-42576">
        <tspan x="-92468.3" y="-42576">ObjectItem</tspan>
      </text>
    </g>
    <g>
      <rect style="fill: #f3f3f3" x="-92822.2" y="-42595.6" width="112.35" height="32.2889"/>
      <rect style="fill: none; fill-opacity:0; stroke-width: 1; stroke: #000000" x="-92822.2" y="-42595.6" width="112.35" height="32.2889"/>
      <text style="fill: #000000;text-anchor:middle;font-size:9.03111;font-family:sanserif;font-style:oblique;font-weight:normal" x="-92766.1" y="-42576">
        <tspan x="-92766.1" y="-42576">AssemblyInstanceItem</tspan>
      </text>
    </g>
  </g>
  <text style="fill: #000000;text-anchor:start;font-size:9.03111;font-family:sanserif;font-style:normal;font-weight:normal" x="-93554.3" y="-41948.7">
    <tspan x="-93554.3" y="-41948.7"></tspan>
  </text>
  <g>
    <path style="fill: none; fill-opacity:0; stroke-width: 1; stroke: #000000" d="M -93461.7 -42078.2 C -93462.1,-42038.4 -93528.4,-41993.2 -93548.5,-41971.2"/>
    <polygon style="fill: #000000" points="-93553.6,-41965.7 -93550.5,-41976.4 -93548.5,-41971.2 -93543.1,-41969.7 "/>
    <polygon style="fill: none; fill-opacity:0; stroke-width: 1; stroke: #000000" points="-93553.6,-41965.7 -93550.5,-41976.4 -93548.5,-41971.2 -93543.1,-41969.7 "/>
  </g>
  <g>
    <g>
      <rect style="fill: #f3f3f3" x="-93412.9" y="-41964.8" width="71.5" height="32.2889"/>
      <rect style="fill: none; fill-opacity:0; stroke-width: 1; stroke-dasharray: 4; stroke: #000000" x="-93412.9" y="-41964.8" width="71.5" height="32.2889"/>
      <text style="fill: #000000;text-anchor:middle;font-size:9.03111;font-family:sanserif;font-style:oblique;font-weight:normal" x="-93377.2" y="-41945.3">
        <tspan x="-93377.2" y="-41945.3">MaterialItem</tspan>
      </text>
    </g>
    <g>
      <rect style="fill: #f3f3f3" x="-93513.7" y="-41964.8" width="90.25" height="32.2889"/>
      <rect style="fill: none; fill-opacity:0; stroke-width: 1; stroke-dasharray: 4; stroke: #000000" x="-93513.7" y="-41964.8" width="90.25" height="32.2889"/>
      <text style="fill: #000000;text-anchor:middle;font-size:9.03111;font-family:sanserif;font-style:oblique;font-weight:normal" x="-93468.5" y="-41945.3">
        <tspan x="-93468.5" y="-41945.3">EnvironmentItem</tspan>
      </text>
    </g>
    <g>
      <rect style="fill: #f3f3f3" x="-93584.5" y="-41964.8" width="60.35" height="32.2889"/>
      <rect style="fill: none; fill-opacity:0; stroke-width: 1; stroke-dasharray: 4; stroke: #000000" x="-93584.5" y="-41964.8" width="60.35" height="32.2889"/>
      <text style="fill: #000000;text-anchor:middle;font-size:9.03111;font-family:sanserif;font-style:oblique;font-weight:normal" x="-93554.3" y="-41945.3">
        <tspan x="-93554.3" y="-41945.3">ColorItem</tspan>
      </text>
    </g>
  </g>
  <g>
    <path style="fill: none; fill-opacity:0; stroke-width: 1; stroke: #000000" d="M -92988.5 -42078.2 C -92948.4,-42026.3 -92830.5,-41984.5 -92789,-41968"/>
    <polygon style="fill: #000000" points="-92782.1,-41965.2 -92793.2,-41964.3 -92789,-41968 -92789.5,-41973.6 "/>
    <polygon style="fill: none; fill-opacity:0; stroke-width: 1; stroke: #000000" points="-92782.1,-41965.2 -92793.2,-41964.3 -92789,-41968 -92789.5,-41973.6 "/>
  </g>
  <g>
    <g>
      <rect style="fill: #f3f3f3" x="-93284.2" y="-41964.8" width="61.15" height="32.2889"/>
      <rect style="fill: none; fill-opacity:0; stroke-width: 1; stroke-dasharray: 4; stroke: #000000" x="-93284.2" y="-41964.8" width="61.15" height="32.2889"/>
      <text style="fill: #000000;text-anchor:middle;font-size:9.03111;font-family:sanserif;font-style:oblique;font-weight:normal" x="-93253.6" y="-41945.3">
        <tspan x="-93253.6" y="-41945.3">BSDFItem</tspan>
      </text>
    </g>
    <g>
      <rect style="fill: #f3f3f3" x="-93128" y="-41964.8" width="55.85" height="32.2889"/>
      <rect style="fill: none; fill-opacity:0; stroke-width: 1; stroke-dasharray: 4; stroke: #000000" x="-93128" y="-41964.8" width="55.85" height="32.2889"/>
      <text style="fill: #000000;text-anchor:middle;font-size:9.03111;font-family:sanserif;font-style:oblique;font-weight:normal" x="-93100.1" y="-41945.3">
        <tspan x="-93100.1" y="-41945.3">EDFItem</tspan>
      </text>
    </g>
    <g>
      <rect style="fill: #f3f3f3" x="-93059.8" y="-41964.8" width="106.2" height="32.2889"/>
      <rect style="fill: none; fill-opacity:0; stroke-width: 1; stroke-dasharray: 4; stroke: #000000" x="-93059.8" y="-41964.8" width="106.2" height="32.2889"/>
      <text style="fill: #000000;text-anchor:middle;font-size:9.03111;font-family:sanserif;font-style:oblique;font-weight:normal" x="-93006.7" y="-41945.3">
        <tspan x="-93006.7" y="-41945.3">EnvironmentEDFItem</tspan>
      </text>
    </g>
    <g>
      <rect style="fill: #f3f3f3" x="-92738.9" y="-41964.8" width="97.9" height="32.2889"/>
      <rect style="fill: none; fill-opacity:0; stroke-width: 1; stroke-dasharray: 4; stroke: #000000" x="-92738.9" y="-41964.8" width="97.9" height="32.2889"/>
      <text style="fill: #000000;text-anchor:middle;font-size:9.03111;font-family:sanserif;font-style:oblique;font-weight:normal" x="-92689.9" y="-41945.3">
        <tspan x="-92689.9" y="-41945.3">SurfaceShaderItem</tspan>
      </text>
    </g>
    <g>
      <rect style="fill: #f3f3f3" x="-92941.2" y="-41964.8" width="118.1" height="32.2889"/>
      <rect style="fill: none; fill-opacity:0; stroke-width: 1; stroke-dasharray: 4; stroke: #000000" x="-92941.2" y="-41964.8" width="118.1" height="32.2889"/>
      <text style="fill: #000000;text-anchor:middle;font-size:9.03111;font-family:sanserif;font-style:oblique;font-weight:normal" x="-92882.2" y="-41945.3">
        <tspan x="-92882.2" y="-41945.3">EnvironmentShaderItem</tspan>
      </text>
    </g>
    <g>
      <rect style="fill: #f3f3f3" x="-93210.7" y="-41964.8" width="70.35" height="32.2889"/>
      <rect style="fill: none; fill-opacity:0; stroke-width: 1; stroke-dasharray: 4; stroke: #000000" x="-93210.7" y="-41964.8" width="70.35" height="32.2889"/>
      <text style="fill: #000000;text-anchor:middle;font-size:9.03111;font-family:sanserif;font-style:oblique;font-weight:normal" x="-93175.5" y="-41945.3">
        <tspan x="-93175.5" y="-41945.3">CameraItem</tspan>
      </text>
    </g>
    <g>
      <rect style="fill: #f3f3f3" x="-92810.8" y="-41964.8" width="59.55" height="32.2889"/>
      <rect style="fill: none; fill-opacity:0; stroke-width: 1; stroke-dasharray: 4; stroke: #000000" x="-92810.8" y="-41964.8" width="59.55" height="32.2889"/>
      <text style="fill: #000000;text-anchor:middle;font-size:9.03111;font-family:sanserif;font-style:oblique;font-weight:normal" x="-92781" y="-41945.3">
        <tspan x="-92781" y="-41945.3">LightItem</tspan>
      </text>
    </g>
  </g>
  <g>
    <path style="fill: none; fill-opacity:0; stroke-width: 1; stroke: #000000" d="M -91682.9 -42078.2 C -91639.4,-42037.5 -91535.5,-41990.1 -91464.8,-41967.5"/>
    <polygon style="fill: #000000" points="-91457.7,-41965.2 -91468.7,-41963.5 -91464.8,-41967.5 -91465.7,-41973 "/>
    <polygon style="fill: none; fill-opacity:0; stroke-width: 1; stroke: #000000" points="-91457.7,-41965.2 -91468.7,-41963.5 -91464.8,-41967.5 -91465.7,-41973 "/>
  </g>
  <g>
    <path style="fill: none; fill-opacity:0; stroke-width: 1; stroke: #000000" d="M -91682.9 -42078.2 C -91711.7,-42030.6 -91729.4,-42000.9 -91761.2,-41970.8"/>
    <polygon style="fill: #000000" points="-91766.6,-41965.6 -91762.8,-41976.1 -91761.2,-41970.8 -91755.9,-41968.8 "/>
    <polygon style="fill: none; fill-opacity:0; stroke-width: 1; stroke: #000000" points="-91766.6,-41965.6 -91762.8,-41976.1 -91761.2,-41970.8 -91755.9,-41968.8 "/>
  </g>
  <g>
    <g>
      <rect style="fill: #f3f3f3" x="-91678.7" y="-41964.8" width="156.55" height="32.2889"/>
      <rect style="fill: none; fill-opacity:0; stroke-width: 1; stroke-dasharray: 4; stroke: #000000" x="-91678.7" y="-41964.8" width="156.55" height="32.2889"/>
      <text style="fill: #000000;text-anchor:middle;font-size:9.03111;font-family:sanserif;font-style:oblique;font-weight:normal" x="-91600.4" y="-41945.3">
        <tspan x="-91600.4" y="-41945.3">EnvironmentShaderCollectionItem</tspan>
      </text>
    </g>
    <g>
      <rect style="fill: #f3f3f3" x="-91839.8" y="-41964.8" width="144.65" height="32.2889"/>
      <rect style="fill: none; fill-opacity:0; stroke-width: 1; stroke-dasharray: 4; stroke: #000000" x="-91839.8" y="-41964.8" width="144.65" height="32.2889"/>
      <text style="fill: #000000;text-anchor:middle;font-size:9.03111;font-family:sanserif;font-style:oblique;font-weight:normal" x="-91767.5" y="-41945.3">
        <tspan x="-91767.5" y="-41945.3">EnvironmentEDFCollectionItem</tspan>
      </text>
    </g>
    <g>
      <rect style="fill: #f3f3f3" x="-92066.6" y="-41964.8" width="99.6" height="32.2889"/>
      <rect style="fill: none; fill-opacity:0; stroke-width: 1; stroke-dasharray: 4; stroke: #000000" x="-92066.6" y="-41964.8" width="99.6" height="32.2889"/>
      <text style="fill: #000000;text-anchor:middle;font-size:9.03111;font-family:sanserif;font-style:oblique;font-weight:normal" x="-92016.8" y="-41945.3">
        <tspan x="-92016.8" y="-41945.3">BSDFCollectionItem</tspan>
      </text>
    </g>
    <g>
      <rect style="fill: #f3f3f3" x="-91950.6" y="-41964.8" width="94.3" height="32.2889"/>
      <rect style="fill: none; fill-opacity:0; stroke-width: 1; stroke-dasharray: 4; stroke: #000000" x="-91950.6" y="-41964.8" width="94.3" height="32.2889"/>
      <text style="fill: #000000;text-anchor:middle;font-size:9.03111;font-family:sanserif;font-style:oblique;font-weight:normal" x="-91903.4" y="-41945.3">
        <tspan x="-91903.4" y="-41945.3">EDFCollectionItem</tspan>
      </text>
    </g>
    <g>
      <rect style="fill: #f3f3f3" x="-91391.1" y="-41964.8" width="136.35" height="32.2889"/>
      <rect style="fill: none; fill-opacity:0; stroke-width: 1; stroke-dasharray: 4; stroke: #000000" x="-91391.1" y="-41964.8" width="136.35" height="32.2889"/>
      <text style="fill: #000000;text-anchor:middle;font-size:9.03111;font-family:sanserif;font-style:oblique;font-weight:normal" x="-91323" y="-41945.3">
        <tspan x="-91323" y="-41945.3">SurfaceShaderCollectionItem</tspan>
      </text>
    </g>
    <g>
      <rect style="fill: #f3f3f3" x="-91505.6" y="-41964.8" width="98" height="32.2889"/>
      <rect style="fill: none; fill-opacity:0; stroke-width: 1; stroke-dasharray: 4; stroke: #000000" x="-91505.6" y="-41964.8" width="98" height="32.2889"/>
      <text style="fill: #000000;text-anchor:middle;font-size:9.03111;font-family:sanserif;font-style:oblique;font-weight:normal" x="-91456.6" y="-41945.3">
        <tspan x="-91456.6" y="-41945.3">LightCollectionItem</tspan>
      </text>
    </g>
  </g>
</svg>
