<?xml version="1.0" encoding="UTF-8" standalone="no"?>
<!DOCTYPE svg PUBLIC "-//W3C//DTD SVG 1.0//EN" "http://www.w3.org/TR/2001/PR-SVG-20010719/DTD/svg10.dtd">
<svg width="162cm" height="58cm" viewBox="-93665 -43089 3239 1159" xmlns="http://www.w3.org/2000/svg" xmlns:xlink="http://www.w3.org/1999/xlink">
  <g>
    <rect style="fill: #f8eecd" x="-93284.7" y="-42257.5" width="131.8" height="38"/>
    <rect style="fill: none; fill-opacity:0; stroke-width: 1; stroke: #000000" x="-93284.7" y="-42257.5" width="131.8" height="38"/>
    <text style="fill: #000000;text-anchor:middle;font-size:12.8;font-family:sanserif;font-style:normal;font-weight:normal" x="-93218.8" y="-42233.7">
      <tspan x="-93218.8" y="-42233.7">EntityItem&lt;Entity&gt;</tspan>
    </text>
  </g>
  <g>
    <rect style="fill: #ffffff" x="-92589.6" y="-42383.4" width="122.6" height="38"/>
    <rect style="fill: none; fill-opacity:0; stroke-width: 1; stroke: #000000" x="-92589.6" y="-42383.4" width="122.6" height="38"/>
    <text style="fill: #000000;text-anchor:middle;font-size:12.8;font-family:sanserif;font-style:normal;font-weight:normal" x="-92528.3" y="-42359.6">
      <tspan x="-92528.3" y="-42359.6">EntityCreatorBase</tspan>
    </text>
  </g>
  <g>
    <line style="fill: none; fill-opacity:0; stroke-width: 1; stroke: #000000" x1="-93218.8" y1="-42479.3" x2="-93218.8" y2="-42392"/>
    <polygon style="fill: #000000" points="-93218.8,-42384.5 -93223.8,-42394.5 -93218.8,-42392 -93213.8,-42394.5 "/>
    <polygon style="fill: none; fill-opacity:0; stroke-width: 1; stroke: #000000" points="-93218.8,-42384.5 -93223.8,-42394.5 -93218.8,-42392 -93213.8,-42394.5 "/>
  </g>
  <text style="fill: #000000;text-anchor:start;font-size:12.8;font-family:sanserif;font-style:normal;font-weight:normal" x="-93218.8" y="-42364.4">
    <tspan x="-93218.8" y="-42364.4"></tspan>
  </text>
  <text style="fill: #000000;text-anchor:start;font-size:12.8;font-family:sanserif;font-style:normal;font-weight:normal" x="-93218.8" y="-42238.5">
    <tspan x="-93218.8" y="-42238.5"></tspan>
  </text>
  <g>
    <rect style="fill: #f8eecd" x="-93597.4" y="-42116.2" width="324.65" height="38"/>
    <rect style="fill: none; fill-opacity:0; stroke-width: 1; stroke: #000000" x="-93597.4" y="-42116.2" width="324.65" height="38"/>
    <text style="fill: #000000;text-anchor:middle;font-size:12.8;font-family:sanserif;font-style:normal;font-weight:normal" x="-93435" y="-42092.4">
      <tspan x="-93435" y="-42092.4">SingleModelEntityItem&lt;Entity, ParentEntity, Factory&gt;</tspan>
    </text>
  </g>
  <g>
    <rect style="fill: #f8eecd" x="-93086.3" y="-42116.2" width="268.35" height="38"/>
    <rect style="fill: none; fill-opacity:0; stroke-width: 1; stroke: #000000" x="-93086.3" y="-42116.2" width="268.35" height="38"/>
    <text style="fill: #000000;text-anchor:middle;font-size:12.8;font-family:sanserif;font-style:normal;font-weight:normal" x="-92952.1" y="-42092.4">
      <tspan x="-92952.1" y="-42092.4">MultiModelEntityItem&lt;Entity, ParentEntity&gt;</tspan>
    </text>
  </g>
  <text style="fill: #000000;text-anchor:start;font-size:12.8;font-family:sanserif;font-style:normal;font-weight:normal" x="-93435" y="-42097.2">
    <tspan x="-93435" y="-42097.2"></tspan>
  </text>
  <text style="fill: #000000;text-anchor:start;font-size:12.8;font-family:sanserif;font-style:normal;font-weight:normal" x="-92952.1" y="-42097.2">
    <tspan x="-92952.1" y="-42097.2"></tspan>
  </text>
  <g>
    <path style="fill: none; fill-opacity:0; stroke-width: 1; stroke: #000000" d="M -92539.6 -42944.9 C -92664.2,-42812 -93217.5,-42617.8 -93218.7,-42525.9"/>
    <polygon style="fill: #000000" points="-93218.8,-42518.4 -93223.7,-42528.5 -93218.7,-42525.9 -93213.7,-42528.4 "/>
    <polygon style="fill: none; fill-opacity:0; stroke-width: 1; stroke: #000000" points="-93218.8,-42518.4 -93223.7,-42528.5 -93218.7,-42525.9 -93213.7,-42528.4 "/>
  </g>
  <g>
    <path style="fill: none; fill-opacity:0; stroke-width: 1; stroke: #000000" d="M -92539.6 -42944.9 C -92426.1,-42857.5 -91041.4,-42745.8 -91032.2,-42542.9"/>
    <polygon style="fill: #000000" points="-91031.9,-42535.4 -91037.3,-42545.2 -91032.2,-42542.9 -91027.3,-42545.6 "/>
    <polygon style="fill: none; fill-opacity:0; stroke-width: 1; stroke: #000000" points="-91031.9,-42535.4 -91037.3,-42545.2 -91032.2,-42542.9 -91027.3,-42545.6 "/>
  </g>
  <g>
    <path style="fill: none; fill-opacity:0; stroke-width: 1; stroke: #000000" d="M -92528.3 -42345.4 C -92527.2,-42263.1 -93053.3,-42238.7 -93144.3,-42238.5"/>
    <polygon style="fill: #000000" points="-93151.8,-42238.5 -93141.8,-42243.5 -93144.3,-42238.5 -93141.8,-42233.5 "/>
    <polygon style="fill: none; fill-opacity:0; stroke-width: 1; stroke: #000000" points="-93151.8,-42238.5 -93141.8,-42243.5 -93144.3,-42238.5 -93141.8,-42233.5 "/>
  </g>
  <g>
    <path style="fill: none; fill-opacity:0; stroke-width: 1; stroke: #000000" d="M -93218.8 -42219.5 C -93219,-42160.5 -93433.2,-42182.8 -93434.8,-42124.8"/>
    <polygon style="fill: #000000" points="-93435,-42117.3 -93439.7,-42127.4 -93434.8,-42124.8 -93429.7,-42127.1 "/>
    <polygon style="fill: none; fill-opacity:0; stroke-width: 1; stroke: #000000" points="-93435,-42117.3 -93439.7,-42127.4 -93434.8,-42124.8 -93429.7,-42127.1 "/>
  </g>
  <g>
    <path style="fill: none; fill-opacity:0; stroke-width: 1; stroke: #000000" d="M -93218.8 -42219.5 C -93218,-42154.5 -92953.3,-42185.8 -92952.3,-42124.8"/>
    <polygon style="fill: #000000" points="-92952.1,-42117.3 -92957.3,-42127.2 -92952.3,-42124.8 -92947.3,-42127.4 "/>
    <polygon style="fill: none; fill-opacity:0; stroke-width: 1; stroke: #000000" points="-92952.1,-42117.3 -92957.3,-42127.2 -92952.3,-42124.8 -92947.3,-42127.4 "/>
  </g>
  <text style="fill: #000000;text-anchor:start;font-size:12.8;font-family:sanserif;font-style:normal;font-weight:normal" x="-91849.3" y="-42238.5">
    <tspan x="-91849.3" y="-42238.5"></tspan>
  </text>
  <g>
    <path style="fill: none; fill-opacity:0; stroke-width: 1; stroke: #000000" d="M -92528.3 -42345.4 C -92525,-42272.8 -92069.7,-42236.8 -91973.3,-42238.3"/>
    <polygon style="fill: #000000" points="-91965.8,-42238.5 -91975.7,-42233.3 -91973.3,-42238.3 -91975.9,-42243.3 "/>
    <polygon style="fill: none; fill-opacity:0; stroke-width: 1; stroke: #000000" points="-91965.8,-42238.5 -91975.7,-42233.3 -91973.3,-42238.3 -91975.9,-42243.3 "/>
  </g>
  <g>
    <path style="fill: none; fill-opacity:0; stroke-width: 1; stroke: #000000" d="M -92539.6 -42944.9 C -92538.4,-42905 -92718.9,-42643.7 -92736.8,-42606"/>
    <polygon style="fill: #000000" points="-92740,-42599.2 -92740.3,-42610.4 -92736.8,-42606 -92731.2,-42606.1 "/>
    <polygon style="fill: none; fill-opacity:0; stroke-width: 1; stroke: #000000" points="-92740,-42599.2 -92740.3,-42610.4 -92736.8,-42606 -92731.2,-42606.1 "/>
  </g>
  <g>
    <path style="fill: none; fill-opacity:0; stroke-width: 1; stroke: #000000" d="M -92539.6 -42944.9 C -92537.8,-42906.6 -92500.3,-42641.5 -92500,-42606.8"/>
    <polygon style="fill: #000000" points="-92500,-42599.3 -92505,-42609.3 -92500,-42606.8 -92495,-42609.4 "/>
    <polygon style="fill: none; fill-opacity:0; stroke-width: 1; stroke: #000000" points="-92500,-42599.3 -92505,-42609.3 -92500,-42606.8 -92495,-42609.4 "/>
  </g>
  <g>
    <rect style="fill: #f3f3f3" x="-93470.8" y="-41962.7" width="71.5" height="32.2889"/>
    <rect style="fill: none; fill-opacity:0; stroke-width: 1; stroke-dasharray: 4; stroke: #000000" x="-93470.8" y="-41962.7" width="71.5" height="32.2889"/>
    <text style="fill: #000000;text-anchor:middle;font-size:9.03111;font-family:sanserif;font-style:oblique;font-weight:normal" x="-93435" y="-41943.2">
      <tspan x="-93435" y="-41943.2">MaterialItem</tspan>
    </text>
  </g>
  <g>
    <line style="fill: none; fill-opacity:0; stroke-width: 1; stroke: #000000" x1="-93435" y1="-42078.2" x2="-93435" y2="-41971.3"/>
    <polygon style="fill: #000000" points="-93435,-41963.8 -93440,-41973.8 -93435,-41971.3 -93430,-41973.8 "/>
    <polygon style="fill: none; fill-opacity:0; stroke-width: 1; stroke: #000000" points="-93435,-41963.8 -93440,-41973.8 -93435,-41971.3 -93430,-41973.8 "/>
  </g>
  <g>
    <path style="fill: none; fill-opacity:0; stroke-width: 1; stroke: #000000" d="M -92952.1 -42078.2 C -92951.6,-42004.2 -93106.3,-42041.6 -93105.8,-41971.3"/>
    <polygon style="fill: #000000" points="-93105.8,-41963.8 -93110.8,-41973.8 -93105.8,-41971.3 -93100.8,-41973.9 "/>
    <polygon style="fill: none; fill-opacity:0; stroke-width: 1; stroke: #000000" points="-93105.8,-41963.8 -93110.8,-41973.8 -93105.8,-41971.3 -93100.8,-41973.9 "/>
  </g>
  <g>
    <path style="fill: none; fill-opacity:0; stroke-width: 1; stroke: #000000" d="M -92952.1 -42078.2 C -92951.4,-42028.1 -93033.3,-42011.6 -93031.8,-41971.3"/>
    <polygon style="fill: #000000" points="-93031.5,-41963.8 -93036.9,-41973.6 -93031.8,-41971.3 -93026.9,-41974 "/>
    <polygon style="fill: none; fill-opacity:0; stroke-width: 1; stroke: #000000" points="-93031.5,-41963.8 -93036.9,-41973.6 -93031.8,-41971.3 -93026.9,-41974 "/>
  </g>
  <g>
    <path style="fill: none; fill-opacity:0; stroke-width: 1; stroke: #000000" d="M -92952.1 -42078.2 C -92951.6,-42001.9 -92816.9,-42040.7 -92816.9,-41971.3"/>
    <polygon style="fill: #000000" points="-92816.9,-41963.8 -92821.9,-41973.8 -92816.9,-41971.3 -92811.9,-41973.8 "/>
    <polygon style="fill: none; fill-opacity:0; stroke-width: 1; stroke: #000000" points="-92816.9,-41963.8 -92821.9,-41973.8 -92816.9,-41971.3 -92811.9,-41973.8 "/>
  </g>
  <g>
    <path style="fill: none; fill-opacity:0; stroke-width: 1; stroke: #000000" d="M -92952.1 -42078.2 C -92952,-42028.1 -92935.1,-42021.9 -92934.7,-41971.3"/>
    <polygon style="fill: #000000" points="-92934.7,-41963.8 -92939.8,-41973.8 -92934.7,-41971.3 -92929.8,-41973.9 "/>
    <polygon style="fill: none; fill-opacity:0; stroke-width: 1; stroke: #000000" points="-92934.7,-41963.8 -92939.8,-41973.8 -92934.7,-41971.3 -92929.8,-41973.9 "/>
  </g>
  <g>
    <path style="fill: none; fill-opacity:0; stroke-width: 1; stroke: #000000" d="M -91031.8 -42496.3 C -91115.8,-42437.9 -91465.9,-42295.4 -91528.7,-42258.9"/>
    <polygon style="fill: #000000" points="-91535.2,-42255.2 -91529.1,-42264.5 -91528.7,-42258.9 -91524,-42255.9 "/>
    <polygon style="fill: none; fill-opacity:0; stroke-width: 1; stroke: #000000" points="-91535.2,-42255.2 -91529.1,-42264.5 -91528.7,-42258.9 -91524,-42255.9 "/>
  </g>
  <g>
    <path style="fill: none; fill-opacity:0; stroke-width: 1; stroke: #000000" d="M -91428.9 -42078.2 C -91428.8,-42016.7 -91677.4,-42041.1 -91678.1,-41971.2"/>
    <polygon style="fill: #000000" points="-91678.2,-41963.7 -91683.1,-41973.7 -91678.1,-41971.2 -91673.1,-41973.6 "/>
    <polygon style="fill: none; fill-opacity:0; stroke-width: 1; stroke: #000000" points="-91678.2,-41963.7 -91683.1,-41973.7 -91678.1,-41971.2 -91673.1,-41973.6 "/>
  </g>
  <g>
    <path style="fill: none; fill-opacity:0; stroke-width: 1; stroke: #000000" d="M -91031.8 -42496.3 C -91026.8,-42401.5 -91021.7,-42305.4 -91025.9,-42263.2"/>
    <polygon style="fill: #000000" points="-91026.6,-42255.7 -91030.6,-42266.2 -91025.9,-42263.2 -91020.7,-42265.2 "/>
    <polygon style="fill: none; fill-opacity:0; stroke-width: 1; stroke: #000000" points="-91026.6,-42255.7 -91030.6,-42266.2 -91025.9,-42263.2 -91020.7,-42265.2 "/>
  </g>
  <g>
    <path style="fill: none; fill-opacity:0; stroke-width: 1; stroke: #000000" d="M -91031.8 -42496.3 C -90984.1,-42409.1 -90806,-42289.5 -90779.2,-42260.9"/>
    <polygon style="fill: #000000" points="-90774.1,-42255.4 -90784.6,-42259.3 -90779.2,-42260.9 -90777.3,-42266.2 "/>
    <polygon style="fill: none; fill-opacity:0; stroke-width: 1; stroke: #000000" points="-90774.1,-42255.4 -90784.6,-42259.3 -90779.2,-42260.9 -90777.3,-42266.2 "/>
  </g>
  <g>
    <path style="fill: none; fill-opacity:0; stroke-width: 1; stroke: #000000" d="M -91428.9 -42078.2 C -91428.8,-42013.9 -91101.4,-42047.7 -91100,-41971.2"/>
    <polygon style="fill: #000000" points="-91099.8,-41963.7 -91105,-41973.6 -91100,-41971.2 -91095,-41973.8 "/>
    <polygon style="fill: none; fill-opacity:0; stroke-width: 1; stroke: #000000" points="-91099.8,-41963.7 -91105,-41973.6 -91100,-41971.2 -91095,-41973.8 "/>
  </g>
  <g>
    <path style="fill: none; fill-opacity:0; stroke-width: 1; stroke: #000000" d="M -91031.8 -42496.3 C -90962.8,-42417.8 -90683,-42295.7 -90643.6,-42260.4"/>
    <polygon style="fill: #000000" points="-90638,-42255.4 -90648.8,-42258.3 -90643.6,-42260.4 -90642.1,-42265.8 "/>
    <polygon style="fill: none; fill-opacity:0; stroke-width: 1; stroke: #000000" points="-90638,-42255.4 -90648.8,-42258.3 -90643.6,-42260.4 -90642.1,-42265.8 "/>
  </g>
  <g>
    <path style="fill: none; fill-opacity:0; stroke-width: 1; stroke: #000000" d="M -91031.8 -42496.3 C -90947.7,-42435.4 -90571.3,-42285.7 -90506.5,-42258"/>
    <polygon style="fill: #000000" points="-90499.6,-42255.1 -90510.8,-42254.4 -90506.5,-42258 -90506.9,-42263.6 "/>
    <polygon style="fill: none; fill-opacity:0; stroke-width: 1; stroke: #000000" points="-90499.6,-42255.1 -90510.8,-42254.4 -90506.5,-42258 -90506.9,-42263.6 "/>
  </g>
  <g>
    <path style="fill: none; fill-opacity:0; stroke-width: 1; stroke: #000000" d="M -91031.8 -42496.3 C -90997.9,-42405.3 -90923.9,-42299.2 -90910.2,-42262.7"/>
    <polygon style="fill: #000000" points="-90907.6,-42255.7 -90915.8,-42263.3 -90910.2,-42262.7 -90906.4,-42266.8 "/>
    <polygon style="fill: none; fill-opacity:0; stroke-width: 1; stroke: #000000" points="-90907.6,-42255.7 -90915.8,-42263.3 -90910.2,-42262.7 -90906.4,-42266.8 "/>
  </g>
  <g>
    <path style="fill: none; fill-opacity:0; stroke-width: 1; stroke: #000000" d="M -91031.8 -42496.3 C -91068.2,-42415.3 -91124.6,-42296.7 -91139.6,-42262.5"/>
    <polygon style="fill: #000000" points="-91142.6,-42255.6 -91143.2,-42266.8 -91139.6,-42262.5 -91134,-42262.8 "/>
    <polygon style="fill: none; fill-opacity:0; stroke-width: 1; stroke: #000000" points="-91142.6,-42255.6 -91143.2,-42266.8 -91139.6,-42262.5 -91134,-42262.8 "/>
  </g>
  <g>
    <path style="fill: none; fill-opacity:0; stroke-width: 1; stroke: #000000" d="M -91031.8 -42496.3 C -91098.3,-42410.3 -91213.7,-42305.4 -91248.6,-42261.4"/>
    <polygon style="fill: #000000" points="-91253.2,-42255.5 -91250.9,-42266.4 -91248.6,-42261.4 -91243.1,-42260.2 "/>
    <polygon style="fill: none; fill-opacity:0; stroke-width: 1; stroke: #000000" points="-91253.2,-42255.5 -91250.9,-42266.4 -91248.6,-42261.4 -91243.1,-42260.2 "/>
  </g>
  <g>
    <path style="fill: none; fill-opacity:0; stroke-width: 1; stroke: #000000" d="M -91031.8 -42496.3 C -91120.9,-42417.8 -91334.2,-42295.4 -91383.8,-42259.7"/>
    <polygon style="fill: #000000" points="-91389.9,-42255.3 -91384.7,-42265.2 -91383.8,-42259.7 -91378.9,-42257.1 "/>
    <polygon style="fill: none; fill-opacity:0; stroke-width: 1; stroke: #000000" points="-91389.9,-42255.3 -91384.7,-42265.2 -91383.8,-42259.7 -91378.9,-42257.1 "/>
  </g>
  <g>
    <path style="fill: none; fill-opacity:0; stroke-width: 1; stroke: #000000" d="M -92539.6 -42944.9 C -92538.4,-42903.9 -92348.7,-42650.2 -92330.9,-42606.2"/>
    <polygon style="fill: #000000" points="-92328.1,-42599.3 -92336.4,-42606.6 -92330.9,-42606.2 -92327.2,-42610.4 "/>
    <polygon style="fill: none; fill-opacity:0; stroke-width: 1; stroke: #000000" points="-92328.1,-42599.3 -92336.4,-42606.6 -92330.9,-42606.2 -92327.2,-42610.4 "/>
  </g>
  <g>
    <path style="fill: none; fill-opacity:0; stroke-width: 1; stroke: #000000" d="M -92539.6 -42944.9 C -92535.1,-42909.3 -92253.5,-42643.7 -92233.4,-42605.8"/>
    <polygon style="fill: #000000" points="-92229.9,-42599.2 -92239,-42605.7 -92233.4,-42605.8 -92230.2,-42610.4 "/>
    <polygon style="fill: none; fill-opacity:0; stroke-width: 1; stroke: #000000" points="-92229.9,-42599.2 -92239,-42605.7 -92233.4,-42605.8 -92230.2,-42610.4 "/>
  </g>
  <g>
    <path style="fill: none; fill-opacity:0; stroke-width: 1; stroke: #000000" d="M -92539.6 -42944.9 C -92541.6,-42906.1 -92408.3,-42638.3 -92406.8,-42606.8"/>
    <polygon style="fill: #000000" points="-92406.5,-42599.3 -92411.9,-42609.1 -92406.8,-42606.8 -92401.9,-42609.6 "/>
    <polygon style="fill: none; fill-opacity:0; stroke-width: 1; stroke: #000000" points="-92406.5,-42599.3 -92411.9,-42609.1 -92406.8,-42606.8 -92401.9,-42609.6 "/>
  </g>
  <g>
    <path style="fill: none; fill-opacity:0; stroke-width: 1; stroke: #000000" d="M -92539.6 -42944.9 C -92539.4,-42904.5 -92572.8,-42644.8 -92587.4,-42606.3"/>
    <polygon style="fill: #000000" points="-92590,-42599.3 -92591.2,-42610.4 -92587.4,-42606.3 -92581.8,-42606.9 "/>
    <polygon style="fill: none; fill-opacity:0; stroke-width: 1; stroke: #000000" points="-92590,-42599.3 -92591.2,-42610.4 -92587.4,-42606.3 -92581.8,-42606.9 "/>
  </g>
  <g>
    <path style="fill: none; fill-opacity:0; stroke-width: 1; stroke: #000000" d="M -92539.6 -42944.9 C -92539.4,-42906.6 -92638.8,-42648 -92657.5,-42606.1"/>
    <polygon style="fill: #000000" points="-92660.6,-42599.2 -92661.1,-42610.4 -92657.5,-42606.1 -92651.9,-42606.3 "/>
    <polygon style="fill: none; fill-opacity:0; stroke-width: 1; stroke: #000000" points="-92660.6,-42599.2 -92661.1,-42610.4 -92657.5,-42606.1 -92651.9,-42606.3 "/>
  </g>
  <text style="fill: #000000;text-anchor:start;font-size:10.16;font-family:Consolas;font-style:normal;font-weight:normal" x="-93633.9" y="-42241.4">
    <tspan x="-93633.9" y="-42241.4">Base class for entity items with generic edition &amp; deletion</tspan>
    <tspan x="-93633.9" y="-42228.7">NEVER USED DIRECTLY</tspan>
  </text>
  <text style="fill: #000000;text-anchor:start;font-size:10.16;font-family:Consolas;font-style:normal;font-weight:normal" x="-92221.1" y="-42294.6">
    <tspan x="-92221.1" y="-42294.6">Base class for collections of entity items with generic creation</tspan>
    <tspan x="-92221.1" y="-42281.9">  - Built from a collection of entities</tspan>
    <tspan x="-92221.1" y="-42269.2">  - Provides an overload of add_item()</tspan>
  </text>
  <g>
    <path style="fill: none; fill-opacity:0; stroke-width: 1; stroke: #000000" d="M -92539.6 -42944.9 C -92538.9,-42903.4 -92815.3,-42638.3 -92840.7,-42605.1"/>
    <polygon style="fill: #000000" points="-92845.3,-42599.1 -92843.2,-42610.1 -92840.7,-42605.1 -92835.2,-42604 "/>
    <polygon style="fill: none; fill-opacity:0; stroke-width: 1; stroke: #000000" points="-92845.3,-42599.1 -92843.2,-42610.1 -92840.7,-42605.1 -92835.2,-42604 "/>
  </g>
  <g>
    <path style="fill: none; fill-opacity:0; stroke-width: 1; stroke: #000000" d="M -92614.7 -43049.8 C -92614.4,-42989.2 -92540.8,-43060.8 -92539.7,-42991.6"/>
    <polygon style="fill: #000000" points="-92539.6,-42984.1 -92544.7,-42994 -92539.7,-42991.6 -92534.7,-42994.1 "/>
    <polygon style="fill: none; fill-opacity:0; stroke-width: 1; stroke: #000000" points="-92539.6,-42984.1 -92544.7,-42994 -92539.7,-42991.6 -92534.7,-42994.1 "/>
  </g>
  <g>
    <path style="fill: none; fill-opacity:0; stroke-width: 1; stroke: #000000" d="M -92481.9 -43049.8 C -92481.6,-42989.2 -92540.8,-43060.8 -92539.7,-42991.6"/>
    <polygon style="fill: #000000" points="-92539.6,-42984.1 -92544.7,-42994 -92539.7,-42991.6 -92534.7,-42994.1 "/>
    <polygon style="fill: none; fill-opacity:0; stroke-width: 1; stroke: #000000" points="-92539.6,-42984.1 -92544.7,-42994 -92539.7,-42991.6 -92534.7,-42994.1 "/>
  </g>
  <g>
    <path style="fill: none; fill-opacity:0; stroke-width: 1; stroke: #000000" d="M -92539.6 -42944.9 C -92452,-42842.3 -91853.3,-42589.6 -91849.2,-42392"/>
    <polygon style="fill: #000000" points="-91849.1,-42384.5 -91854.3,-42394.4 -91849.2,-42392 -91844.3,-42394.6 "/>
    <polygon style="fill: none; fill-opacity:0; stroke-width: 1; stroke: #000000" points="-91849.1,-42384.5 -91854.3,-42394.4 -91849.2,-42392 -91844.3,-42394.6 "/>
  </g>
  <text style="fill: #000000;text-anchor:start;font-size:28.2218;font-family:sanserif;font-style:normal;font-weight:normal" x="-93569.3" y="-42951.6">
    <tspan x="-93569.3" y="-42951.6">appleseed.studio Project Explorer</tspan>
    <tspan x="-93569.3" y="-42916.3">Class Inheritance Diagram</tspan>
  </text>
  <g>
    <rect style="fill: #f8eecd" x="-92277.7" y="-42116.2" width="346.9" height="38"/>
    <rect style="fill: none; fill-opacity:0; stroke-width: 1; stroke: #000000" x="-92277.7" y="-42116.2" width="346.9" height="38"/>
    <text style="fill: #000000;text-anchor:middle;font-size:12.8;font-family:sanserif;font-style:normal;font-weight:normal" x="-92104.2" y="-42092.4">
      <tspan x="-92104.2" y="-42092.4">SingleModelCollectionItem&lt;Entity, ParentEntity, Factory&gt;</tspan>
    </text>
  </g>
  <g>
    <rect style="fill: #f8eecd" x="-91574.2" y="-42116.2" width="290.6" height="38"/>
    <rect style="fill: none; fill-opacity:0; stroke-width: 1; stroke: #000000" x="-91574.2" y="-42116.2" width="290.6" height="38"/>
    <text style="fill: #000000;text-anchor:middle;font-size:12.8;font-family:sanserif;font-style:normal;font-weight:normal" x="-91428.9" y="-42092.4">
      <tspan x="-91428.9" y="-42092.4">MultiModelCollectionItem&lt;Entity, ParentEntity&gt;</tspan>
    </text>
  </g>
  <g>
    <path style="fill: none; fill-opacity:0; stroke-width: 1; stroke: #000000" d="M -91849.3 -42219.5 C -91850.3,-42165.1 -92104.7,-42167.8 -92104.3,-42124.8"/>
    <polygon style="fill: #000000" points="-92104.3,-42117.3 -92109.3,-42127.2 -92104.3,-42124.8 -92099.3,-42127.3 "/>
    <polygon style="fill: none; fill-opacity:0; stroke-width: 1; stroke: #000000" points="-92104.3,-42117.3 -92109.3,-42127.2 -92104.3,-42124.8 -92099.3,-42127.3 "/>
  </g>
  <g>
    <path style="fill: none; fill-opacity:0; stroke-width: 1; stroke: #000000" d="M -91849.3 -42219.5 C -91850.3,-42165.1 -91429.3,-42167.8 -91428.9,-42124.8"/>
    <polygon style="fill: #000000" points="-91428.9,-42117.3 -91434,-42127.2 -91428.9,-42124.8 -91424,-42127.3 "/>
    <polygon style="fill: none; fill-opacity:0; stroke-width: 1; stroke: #000000" points="-91428.9,-42117.3 -91434,-42127.2 -91428.9,-42124.8 -91424,-42127.3 "/>
  </g>
  <g>
    <path style="fill: none; fill-opacity:0; stroke-width: 1; stroke: #000000" d="M -91031.8 -42496.3 C -91114.4,-42460 -91849.2,-42356.3 -91849.3,-42266.1"/>
    <polygon style="fill: #000000" points="-91849.3,-42258.6 -91854.3,-42268.6 -91849.3,-42266.1 -91844.3,-42268.6 "/>
    <polygon style="fill: none; fill-opacity:0; stroke-width: 1; stroke: #000000" points="-91849.3,-42258.6 -91854.3,-42268.6 -91849.3,-42266.1 -91844.3,-42268.6 "/>
  </g>
  <g>
    <path style="fill: none; fill-opacity:0; stroke-width: 1; stroke: #000000" d="M -91428.9 -42078.2 C -91428.3,-42001.7 -91564.2,-42041.1 -91564.9,-41971.2"/>
    <polygon style="fill: #000000" points="-91565,-41963.7 -91569.9,-41973.7 -91564.9,-41971.2 -91559.9,-41973.6 "/>
    <polygon style="fill: none; fill-opacity:0; stroke-width: 1; stroke: #000000" points="-91565,-41963.7 -91569.9,-41973.7 -91564.9,-41971.2 -91559.9,-41973.6 "/>
  </g>
  <g>
    <path style="fill: none; fill-opacity:0; stroke-width: 1; stroke: #000000" d="M -91428.9 -42078.2 C -91429.2,-41997.9 -91264.1,-42047.7 -91262.7,-41971.2"/>
    <polygon style="fill: #000000" points="-91262.5,-41963.7 -91267.7,-41973.6 -91262.7,-41971.2 -91257.7,-41973.8 "/>
    <polygon style="fill: none; fill-opacity:0; stroke-width: 1; stroke: #000000" points="-91262.5,-41963.7 -91267.7,-41973.6 -91262.7,-41971.2 -91257.7,-41973.8 "/>
  </g>
  <g>
    <line style="fill: none; fill-opacity:0; stroke-width: 1; stroke: #000000" x1="-91428.9" y1="-42078.2" x2="-91429.3" y2="-41971.2"/>
    <polygon style="fill: #000000" points="-91429.3,-41963.7 -91434.3,-41973.7 -91429.3,-41971.2 -91424.3,-41973.6 "/>
    <polygon style="fill: none; fill-opacity:0; stroke-width: 1; stroke: #000000" points="-91429.3,-41963.7 -91434.3,-41973.7 -91429.3,-41971.2 -91424.3,-41973.6 "/>
  </g>
  <g>
    <g>
      <rect style="fill: #f3f3f3" x="-93136.3" y="-41962.7" width="61.15" height="32.2889"/>
      <rect style="fill: none; fill-opacity:0; stroke-width: 1; stroke-dasharray: 4; stroke: #000000" x="-93136.3" y="-41962.7" width="61.15" height="32.2889"/>
      <text style="fill: #000000;text-anchor:middle;font-size:9.03111;font-family:sanserif;font-style:oblique;font-weight:normal" x="-93105.8" y="-41943.2">
        <tspan x="-93105.8" y="-41943.2">BSDFItem</tspan>
      </text>
    </g>
    <g>
      <rect style="fill: #f3f3f3" x="-93059.4" y="-41962.7" width="55.85" height="32.2889"/>
      <rect style="fill: none; fill-opacity:0; stroke-width: 1; stroke-dasharray: 4; stroke: #000000" x="-93059.4" y="-41962.7" width="55.85" height="32.2889"/>
      <text style="fill: #000000;text-anchor:middle;font-size:9.03111;font-family:sanserif;font-style:oblique;font-weight:normal" x="-93031.5" y="-41943.2">
        <tspan x="-93031.5" y="-41943.2">EDFItem</tspan>
      </text>
    </g>
    <g>
      <rect style="fill: #f3f3f3" x="-92987.8" y="-41962.7" width="106.2" height="32.2889"/>
      <rect style="fill: none; fill-opacity:0; stroke-width: 1; stroke-dasharray: 4; stroke: #000000" x="-92987.8" y="-41962.7" width="106.2" height="32.2889"/>
      <text style="fill: #000000;text-anchor:middle;font-size:9.03111;font-family:sanserif;font-style:oblique;font-weight:normal" x="-92934.7" y="-41943.2">
        <tspan x="-92934.7" y="-41943.2">EnvironmentEDFItem</tspan>
      </text>
    </g>
    <g>
      <rect style="fill: #f3f3f3" x="-92865.8" y="-41962.7" width="97.9" height="32.2889"/>
      <rect style="fill: none; fill-opacity:0; stroke-width: 1; stroke-dasharray: 4; stroke: #000000" x="-92865.8" y="-41962.7" width="97.9" height="32.2889"/>
      <text style="fill: #000000;text-anchor:middle;font-size:9.03111;font-family:sanserif;font-style:oblique;font-weight:normal" x="-92816.9" y="-41943.2">
        <tspan x="-92816.9" y="-41943.2">SurfaceShaderItem</tspan>
      </text>
    </g>
  </g>
  <g>
    <g>
      <rect style="fill: #f3f3f3" x="-91340.8" y="-41962.5" width="156.55" height="32.2889"/>
      <rect style="fill: none; fill-opacity:0; stroke-width: 1; stroke-dasharray: 4; stroke: #000000" x="-91340.8" y="-41962.5" width="156.55" height="32.2889"/>
      <text style="fill: #000000;text-anchor:middle;font-size:9.03111;font-family:sanserif;font-style:oblique;font-weight:normal" x="-91262.5" y="-41943">
        <tspan x="-91262.5" y="-41943">EnvironmentShaderCollectionItem</tspan>
      </text>
    </g>
    <g>
      <rect style="fill: #f3f3f3" x="-91501.6" y="-41962.5" width="144.65" height="32.2889"/>
      <rect style="fill: none; fill-opacity:0; stroke-width: 1; stroke-dasharray: 4; stroke: #000000" x="-91501.6" y="-41962.5" width="144.65" height="32.2889"/>
      <text style="fill: #000000;text-anchor:middle;font-size:9.03111;font-family:sanserif;font-style:oblique;font-weight:normal" x="-91429.3" y="-41943">
        <tspan x="-91429.3" y="-41943">EnvironmentEDFCollectionItem</tspan>
      </text>
    </g>
    <g>
      <rect style="fill: #f3f3f3" x="-91728" y="-41962.5" width="99.6" height="32.2889"/>
      <rect style="fill: none; fill-opacity:0; stroke-width: 1; stroke-dasharray: 4; stroke: #000000" x="-91728" y="-41962.5" width="99.6" height="32.2889"/>
      <text style="fill: #000000;text-anchor:middle;font-size:9.03111;font-family:sanserif;font-style:oblique;font-weight:normal" x="-91678.2" y="-41943">
        <tspan x="-91678.2" y="-41943">BSDFCollectionItem</tspan>
      </text>
    </g>
    <g>
      <rect style="fill: #f3f3f3" x="-91612.2" y="-41962.5" width="94.3" height="32.2889"/>
      <rect style="fill: none; fill-opacity:0; stroke-width: 1; stroke-dasharray: 4; stroke: #000000" x="-91612.2" y="-41962.5" width="94.3" height="32.2889"/>
      <text style="fill: #000000;text-anchor:middle;font-size:9.03111;font-family:sanserif;font-style:oblique;font-weight:normal" x="-91565" y="-41943">
        <tspan x="-91565" y="-41943">EDFCollectionItem</tspan>
      </text>
    </g>
    <g>
      <rect style="fill: #f3f3f3" x="-91168" y="-41962.5" width="136.35" height="32.2889"/>
      <rect style="fill: none; fill-opacity:0; stroke-width: 1; stroke-dasharray: 4; stroke: #000000" x="-91168" y="-41962.5" width="136.35" height="32.2889"/>
      <text style="fill: #000000;text-anchor:middle;font-size:9.03111;font-family:sanserif;font-style:oblique;font-weight:normal" x="-91099.8" y="-41943">
        <tspan x="-91099.8" y="-41943">SurfaceShaderCollectionItem</tspan>
      </text>
    </g>
  </g>
  <g>
    <text style="fill: #000000;text-anchor:start;font-size:10.16;font-family:Consolas;font-style:normal;font-weight:normal" x="-90910.6" y="-42537.1">
      <tspan x="-90910.6" y="-42537.1">Base class for all collections of items:</tspan>
      <tspan x="-90910.6" y="-42524.4">  - Built from class_uid &amp; title</tspan>
      <tspan x="-90910.6" y="-42511.7">  - Renders the title in bold</tspan>
      <tspan x="-90910.6" y="-42499">  - Provides add_item() and add_items()</tspan>
      <tspan x="-90910.6" y="-42486.3">The name is a shortcut for EntityCollectionItemBase.</tspan>
    </text>
    <g>
      <g>
        <rect style="fill: #f8eecd" x="-91121.7" y="-42534.3" width="179.75" height="38"/>
        <rect style="fill: none; fill-opacity:0; stroke-width: 1; stroke: #000000" x="-91121.7" y="-42534.3" width="179.75" height="38"/>
        <text style="fill: #000000;text-anchor:middle;font-size:12.8;font-family:sanserif;font-style:normal;font-weight:normal" x="-91031.8" y="-42510.5">
          <tspan x="-91031.8" y="-42510.5">CollectionItemBase&lt;Entity&gt;</tspan>
        </text>
      </g>
      <text style="fill: #000000;text-anchor:start;font-size:9.03097;font-family:sanserif;font-style:normal;font-weight:normal" x="-91030.8" y="-42552">
        <tspan x="-91030.8" y="-42552">virtual</tspan>
      </text>
    </g>
  </g>
  <g>
    <line style="fill: none; fill-opacity:0; stroke-width: 1; stroke: #000000" x1="-91849" y1="-42345.4" x2="-91849.3" y2="-42266.1"/>
    <polygon style="fill: #000000" points="-91849.3,-42258.6 -91854.3,-42268.6 -91849.3,-42266.1 -91844.3,-42268.6 "/>
    <polygon style="fill: none; fill-opacity:0; stroke-width: 1; stroke: #000000" points="-91849.3,-42258.6 -91854.3,-42268.6 -91849.3,-42266.1 -91844.3,-42268.6 "/>
  </g>
  <g>
    <rect style="fill: #f8eecd" x="-91964.7" y="-42257.5" width="230.8" height="38"/>
    <rect style="fill: none; fill-opacity:0; stroke-width: 1; stroke: #000000" x="-91964.7" y="-42257.5" width="230.8" height="38"/>
    <text style="fill: #000000;text-anchor:middle;font-size:12.8;font-family:sanserif;font-style:normal;font-weight:normal" x="-91849.3" y="-42233.7">
      <tspan x="-91849.3" y="-42233.7">CollectionItem&lt;Entity, ParentEntity&gt;</tspan>
    </text>
  </g>
  <g>
    <rect style="fill: #ffffff" x="-93286.1" y="-42517.3" width="134.65" height="38"/>
    <rect style="fill: none; fill-opacity:0; stroke-width: 1; stroke: #000000" x="-93286.1" y="-42517.3" width="134.65" height="38"/>
    <text style="fill: #000000;text-anchor:middle;font-size:12.8;font-family:sanserif;font-style:normal;font-weight:normal" x="-93218.8" y="-42493.5">
      <tspan x="-93218.8" y="-42493.5">EntityItemBaseSlots</tspan>
    </text>
  </g>
  <g>
    <g>
      <rect style="fill: #f3f3f3" x="-91465.8" y="-42254.6" width="150" height="32.2889"/>
      <rect style="fill: none; fill-opacity:0; stroke-width: 1; stroke: #000000" x="-91465.8" y="-42254.6" width="150" height="32.2889"/>
      <text style="fill: #000000;text-anchor:middle;font-size:9.03097;font-family:sanserif;font-style:normal;font-weight:normal" x="-91390.8" y="-42235.1">
        <tspan x="-91390.8" y="-42235.1">AssemblyInstanceCollectionItem</tspan>
      </text>
    </g>
    <g>
      <rect style="fill: #f3f3f3" x="-91594" y="-42254.6" width="115.7" height="32.2889"/>
      <rect style="fill: none; fill-opacity:0; stroke-width: 1; stroke: #000000" x="-91594" y="-42254.6" width="115.7" height="32.2889"/>
      <text style="fill: #000000;text-anchor:middle;font-size:9.03097;font-family:sanserif;font-style:normal;font-weight:normal" x="-91536.2" y="-42235.1">
        <tspan x="-91536.2" y="-42235.1">AssemblyCollectionItem</tspan>
      </text>
    </g>
    <g>
      <rect style="fill: #f3f3f3" x="-91081.6" y="-42254.6" width="109.85" height="32.2889"/>
      <rect style="fill: none; fill-opacity:0; stroke-width: 1; stroke: #000000" x="-91081.6" y="-42254.6" width="109.85" height="32.2889"/>
      <text style="fill: #000000;text-anchor:middle;font-size:9.03097;font-family:sanserif;font-style:normal;font-weight:normal" x="-91026.7" y="-42235.1">
        <tspan x="-91026.7" y="-42235.1">MaterialCollectionItem</tspan>
      </text>
    </g>
    <g>
      <rect style="fill: #f3f3f3" x="-90842.6" y="-42254.6" width="138.5" height="32.2889"/>
      <rect style="fill: none; fill-opacity:0; stroke-width: 1; stroke: #000000" x="-90842.6" y="-42254.6" width="138.5" height="32.2889"/>
      <text style="fill: #000000;text-anchor:middle;font-size:9.03097;font-family:sanserif;font-style:normal;font-weight:normal" x="-90773.3" y="-42235.1">
        <tspan x="-90773.3" y="-42235.1">ObjectInstanceCollectionItem</tspan>
      </text>
    </g>
    <g>
      <rect style="fill: #f3f3f3" x="-90691.6" y="-42254.6" width="108.9" height="32.2889"/>
      <rect style="fill: none; fill-opacity:0; stroke-width: 1; stroke: #000000" x="-90691.6" y="-42254.6" width="108.9" height="32.2889"/>
      <text style="fill: #000000;text-anchor:middle;font-size:9.03097;font-family:sanserif;font-style:normal;font-weight:normal" x="-90637.2" y="-42235.1">
        <tspan x="-90637.2" y="-42235.1">TextureCollectionItem</tspan>
      </text>
    </g>
    <g>
      <rect style="fill: #f3f3f3" x="-90570.2" y="-42254.6" width="143.2" height="32.2889"/>
      <rect style="fill: none; fill-opacity:0; stroke-width: 1; stroke: #000000" x="-90570.2" y="-42254.6" width="143.2" height="32.2889"/>
      <text style="fill: #000000;text-anchor:middle;font-size:9.03097;font-family:sanserif;font-style:normal;font-weight:normal" x="-90498.6" y="-42235.1">
        <tspan x="-90498.6" y="-42235.1">TextureInstanceCollectionItem</tspan>
      </text>
    </g>
    <g>
      <rect style="fill: #f3f3f3" x="-91303.3" y="-42254.6" width="98.8" height="32.2889"/>
      <rect style="fill: none; fill-opacity:0; stroke-width: 1; stroke: #000000" x="-91303.3" y="-42254.6" width="98.8" height="32.2889"/>
      <text style="fill: #000000;text-anchor:middle;font-size:9.03097;font-family:sanserif;font-style:normal;font-weight:normal" x="-91253.9" y="-42235.1">
        <tspan x="-91253.9" y="-42235.1">ColorCollectionItem</tspan>
      </text>
    </g>
    <g>
      <rect style="fill: #f3f3f3" x="-91192" y="-42254.6" width="97.9" height="32.2889"/>
      <rect style="fill: none; fill-opacity:0; stroke-width: 1; stroke: #000000" x="-91192" y="-42254.6" width="97.9" height="32.2889"/>
      <text style="fill: #000000;text-anchor:middle;font-size:9.03097;font-family:sanserif;font-style:normal;font-weight:normal" x="-91143.1" y="-42235.1">
        <tspan x="-91143.1" y="-42235.1">LightCollectionItem</tspan>
      </text>
    </g>
    <g>
      <rect style="fill: #f3f3f3" x="-90959.3" y="-42254.6" width="104.2" height="32.2889"/>
      <rect style="fill: none; fill-opacity:0; stroke-width: 1; stroke: #000000" x="-90959.3" y="-42254.6" width="104.2" height="32.2889"/>
      <text style="fill: #000000;text-anchor:middle;font-size:9.03097;font-family:sanserif;font-style:normal;font-weight:normal" x="-90907.2" y="-42235.1">
        <tspan x="-90907.2" y="-42235.1">ObjectCollectionItem</tspan>
      </text>
    </g>
  </g>
  <g>
    <g>
      <rect style="fill: #f3f3f3" x="-92779.1" y="-42598.2" width="77.25" height="32.2889"/>
      <rect style="fill: none; fill-opacity:0; stroke-width: 1; stroke: #000000" x="-92779.1" y="-42598.2" width="77.25" height="32.2889"/>
      <text style="fill: #000000;text-anchor:middle;font-size:9.03097;font-family:sanserif;font-style:normal;font-weight:normal" x="-92740.5" y="-42578.7">
        <tspan x="-92740.5" y="-42578.7">AssemblyItem</tspan>
      </text>
    </g>
    <g>
      <rect style="fill: #f3f3f3" x="-92550" y="-42598.2" width="100.05" height="32.2889"/>
      <rect style="fill: none; fill-opacity:0; stroke-width: 1; stroke: #000000" x="-92550" y="-42598.2" width="100.05" height="32.2889"/>
      <text style="fill: #000000;text-anchor:middle;font-size:9.03097;font-family:sanserif;font-style:normal;font-weight:normal" x="-92500" y="-42578.7">
        <tspan x="-92500" y="-42578.7">ObjectInstanceItem</tspan>
      </text>
    </g>
    <g>
      <rect style="fill: #f3f3f3" x="-92362.9" y="-42598.2" width="70.45" height="32.2889"/>
      <rect style="fill: none; fill-opacity:0; stroke-width: 1; stroke-dasharray: 4; stroke: #000000" x="-92362.9" y="-42598.2" width="70.45" height="32.2889"/>
      <text style="fill: #000000;text-anchor:middle;font-size:9.03111;font-family:sanserif;font-style:oblique;font-weight:normal" x="-92327.6" y="-42578.7">
        <tspan x="-92327.6" y="-42578.7">TextureItem</tspan>
      </text>
    </g>
    <g>
      <rect style="fill: #f3f3f3" x="-92281.7" y="-42598.2" width="104.75" height="32.2889"/>
      <rect style="fill: none; fill-opacity:0; stroke-width: 1; stroke-dasharray: 4; stroke: #000000" x="-92281.7" y="-42598.2" width="104.75" height="32.2889"/>
      <text style="fill: #000000;text-anchor:middle;font-size:9.03111;font-family:sanserif;font-style:oblique;font-weight:normal" x="-92229.4" y="-42578.7">
        <tspan x="-92229.4" y="-42578.7">TextureInstanceItem</tspan>
      </text>
    </g>
    <g>
      <rect style="fill: #f3f3f3" x="-92439.3" y="-42598.2" width="65.75" height="32.2889"/>
      <rect style="fill: none; fill-opacity:0; stroke-width: 1; stroke-dasharray: 4; stroke: #000000" x="-92439.3" y="-42598.2" width="65.75" height="32.2889"/>
      <text style="fill: #000000;text-anchor:middle;font-size:9.03111;font-family:sanserif;font-style:oblique;font-weight:normal" x="-92406.4" y="-42578.7">
        <tspan x="-92406.4" y="-42578.7">ObjectItem</tspan>
      </text>
    </g>
    <g>
      <rect style="fill: #f3f3f3" x="-92620.2" y="-42598.2" width="59.55" height="32.2889"/>
      <rect style="fill: none; fill-opacity:0; stroke-width: 1; stroke-dasharray: 4; stroke: #000000" x="-92620.2" y="-42598.2" width="59.55" height="32.2889"/>
      <text style="fill: #000000;text-anchor:middle;font-size:9.03111;font-family:sanserif;font-style:oblique;font-weight:normal" x="-92590.4" y="-42578.7">
        <tspan x="-92590.4" y="-42578.7">LightItem</tspan>
      </text>
    </g>
    <g>
      <rect style="fill: #f3f3f3" x="-92691.2" y="-42598.2" width="60.35" height="32.2889"/>
      <rect style="fill: none; fill-opacity:0; stroke-width: 1; stroke-dasharray: 4; stroke: #000000" x="-92691.2" y="-42598.2" width="60.35" height="32.2889"/>
      <text style="fill: #000000;text-anchor:middle;font-size:9.03111;font-family:sanserif;font-style:oblique;font-weight:normal" x="-92661" y="-42578.7">
        <tspan x="-92661" y="-42578.7">ColorItem</tspan>
      </text>
    </g>
    <g>
      <rect style="fill: #f3f3f3" x="-92902.2" y="-42598.2" width="112.35" height="32.2889"/>
      <rect style="fill: none; fill-opacity:0; stroke-width: 1; stroke-dasharray: 4; stroke: #000000" x="-92902.2" y="-42598.2" width="112.35" height="32.2889"/>
      <text style="fill: #000000;text-anchor:middle;font-size:9.03111;font-family:sanserif;font-style:oblique;font-weight:normal" x="-92846" y="-42578.7">
        <tspan x="-92846" y="-42578.7">AssemblyInstanceItem</tspan>
      </text>
    </g>
  </g>
  <g>
    <g>
      <rect style="fill: #f8eecd" x="-92577.2" y="-42982.9" width="75.3" height="38"/>
      <rect style="fill: none; fill-opacity:0; stroke-width: 1; stroke: #000000" x="-92577.2" y="-42982.9" width="75.3" height="38"/>
      <text style="fill: #000000;text-anchor:middle;font-size:12.8;font-family:sanserif;font-style:normal;font-weight:normal" x="-92539.6" y="-42959.1">
        <tspan x="-92539.6" y="-42959.1">ItemBase</tspan>
      </text>
    </g>
    <text style="fill: #000000;text-anchor:start;font-size:10.16;font-family:Consolas;font-style:normal;font-weight:normal" x="-92480" y="-42979.6">
      <tspan x="-92480" y="-42979.6">Base class for all items:</tspan>
      <tspan x="-92480" y="-42966.9">  - Built from class_uid or class_uid &amp; title</tspan>
      <tspan x="-92480" y="-42954.2">  - Provides set_title()</tspan>
      <tspan x="-92480" y="-42941.5">  - Defines empty virtual functions for context menus</tspan>
    </text>
    <g>
      <g>
        <rect style="fill: #ffc0cb" x="-92543.4" y="-43087.8" width="123" height="38"/>
        <rect style="fill: none; fill-opacity:0; stroke-width: 1; stroke: #000000" x="-92543.4" y="-43087.8" width="123" height="38"/>
        <text style="fill: #000000;text-anchor:middle;font-size:12.8;font-family:sanserif;font-style:normal;font-weight:normal" x="-92481.9" y="-43064">
          <tspan x="-92481.9" y="-43064">QTreeWidgetItem</tspan>
        </text>
      </g>
      <g>
        <rect style="fill: #ffc0cb" x="-92648" y="-43087.8" width="66.75" height="38"/>
        <rect style="fill: none; fill-opacity:0; stroke-width: 1; stroke: #000000" x="-92648" y="-43087.8" width="66.75" height="38"/>
        <text style="fill: #000000;text-anchor:middle;font-size:12.8;font-family:sanserif;font-style:normal;font-weight:normal" x="-92614.7" y="-43064">
          <tspan x="-92614.7" y="-43064">QObject</tspan>
        </text>
      </g>
    </g>
  </g>
  <g>
    <line style="fill: none; fill-opacity:0; stroke-width: 1; stroke: #000000" x1="-93218.8" y1="-42345.4" x2="-93218.8" y2="-42266.1"/>
    <polygon style="fill: #000000" points="-93218.8,-42258.6 -93223.8,-42268.6 -93218.8,-42266.1 -93213.8,-42268.6 "/>
    <polygon style="fill: none; fill-opacity:0; stroke-width: 1; stroke: #000000" points="-93218.8,-42258.6 -93223.8,-42268.6 -93218.8,-42266.1 -93213.8,-42268.6 "/>
  </g>
  <text style="fill: #000000;text-anchor:start;font-size:10.16;font-family:Consolas;font-style:normal;font-weight:normal" x="-93664.8" y="-42384.8">
    <tspan x="-93664.8" y="-42384.8">Base class for all entity items:</tspan>
    <tspan x="-93664.8" y="-42372.1">  - Built from an entity</tspan>
    <tspan x="-93664.8" y="-42359.4">  - Provides update_title()</tspan>
    <tspan x="-93664.8" y="-42346.7">  - Provide a single-click context menu for edition &amp; deletion</tspan>
  </text>
  <g>
    <rect style="fill: #f8eecd" x="-93298.1" y="-42383.4" width="158.5" height="38"/>
    <rect style="fill: none; fill-opacity:0; stroke-width: 1; stroke: #000000" x="-93298.1" y="-42383.4" width="158.5" height="38"/>
    <text style="fill: #000000;text-anchor:middle;font-size:12.8;font-family:sanserif;font-style:normal;font-weight:normal" x="-93218.8" y="-42359.6">
      <tspan x="-93218.8" y="-42359.6">EntityItemBase&lt;Entity&gt;</tspan>
    </text>
  </g>
  <g>
    <g>
      <rect style="fill: #ffffff" x="-91914.1" y="-42383.4" width="130.2" height="38"/>
      <rect style="fill: none; fill-opacity:0; stroke-width: 1; stroke: #000000" x="-91914.1" y="-42383.4" width="130.2" height="38"/>
      <text style="fill: #000000;text-anchor:middle;font-size:12.8;font-family:sanserif;font-style:normal;font-weight:normal" x="-91849" y="-42359.6">
        <tspan x="-91849" y="-42359.6">CollectionItemSlots</tspan>
      </text>
    </g>
    <text style="fill: #000000;text-anchor:start;font-size:9.03097;font-family:sanserif;font-style:normal;font-weight:normal" x="-91844.3" y="-42402.1">
      <tspan x="-91844.3" y="-42402.1">virtual</tspan>
    </text>
  </g>
</svg>
