<?xml version="1.0" encoding="UTF-8" standalone="no"?>
<!DOCTYPE svg PUBLIC "-//W3C//DTD SVG 1.0//EN" "http://www.w3.org/TR/2001/PR-SVG-20010719/DTD/svg10.dtd">
<svg width="147cm" height="58cm" viewBox="-93679 -43089 2937 1157" xmlns="http://www.w3.org/2000/svg" xmlns:xlink="http://www.w3.org/1999/xlink">
  <g>
    <rect style="fill: #f8eecd" x="-93322.6" y="-42257.4" width="207.55" height="38"/>
    <rect style="fill: none; fill-opacity:0; stroke-width: 1; stroke: #000000" x="-93322.6" y="-42257.4" width="207.55" height="38"/>
    <text style="fill: #000000;text-anchor:middle;font-size:12.8;font-family:sanserif;font-style:normal;font-weight:normal" x="-93218.8" y="-42233.6">
      <tspan x="-93218.8" y="-42233.6">EntityItem&lt;Entity, ParentEntity&gt;</tspan>
    </text>
  </g>
  <g>
    <rect style="fill: #ffffff" x="-92713" y="-42383.4" width="122.6" height="38"/>
    <rect style="fill: none; fill-opacity:0; stroke-width: 1; stroke: #000000" x="-92713" y="-42383.4" width="122.6" height="38"/>
    <text style="fill: #000000;text-anchor:middle;font-size:12.8;font-family:sanserif;font-style:normal;font-weight:normal" x="-92651.7" y="-42359.6">
      <tspan x="-92651.7" y="-42359.6">EntityCreatorBase</tspan>
    </text>
  </g>
  <g>
    <line style="fill: none; fill-opacity:0; stroke-width: 1; stroke: #000000" x1="-93218.8" y1="-42479.4" x2="-93218.8" y2="-42392"/>
    <polygon style="fill: #000000" points="-93218.8,-42384.5 -93223.8,-42394.5 -93218.8,-42392 -93213.8,-42394.5 "/>
    <polygon style="fill: none; fill-opacity:0; stroke-width: 1; stroke: #000000" points="-93218.8,-42384.5 -93223.8,-42394.5 -93218.8,-42392 -93213.8,-42394.5 "/>
  </g>
  <text style="fill: #000000;text-anchor:start;font-size:12.8;font-family:sanserif;font-style:normal;font-weight:normal" x="-93218.8" y="-42364.4">
    <tspan x="-93218.8" y="-42364.4"></tspan>
  </text>
  <text style="fill: #000000;text-anchor:start;font-size:12.8;font-family:sanserif;font-style:normal;font-weight:normal" x="-93218.8" y="-42238.4">
    <tspan x="-93218.8" y="-42238.4"></tspan>
  </text>
  <g>
    <rect style="fill: #f8eecd" x="-93597.4" y="-42116.2" width="324.65" height="38"/>
    <rect style="fill: none; fill-opacity:0; stroke-width: 1; stroke: #000000" x="-93597.4" y="-42116.2" width="324.65" height="38"/>
    <text style="fill: #000000;text-anchor:middle;font-size:12.8;font-family:sanserif;font-style:normal;font-weight:normal" x="-93435.1" y="-42092.4">
      <tspan x="-93435.1" y="-42092.4">SingleModelEntityItem&lt;Entity, ParentEntity, Factory&gt;</tspan>
    </text>
  </g>
  <g>
    <rect style="fill: #f8eecd" x="-93140.4" y="-42116.2" width="268.35" height="38"/>
    <rect style="fill: none; fill-opacity:0; stroke-width: 1; stroke: #000000" x="-93140.4" y="-42116.2" width="268.35" height="38"/>
    <text style="fill: #000000;text-anchor:middle;font-size:12.8;font-family:sanserif;font-style:normal;font-weight:normal" x="-93006.2" y="-42092.4">
      <tspan x="-93006.2" y="-42092.4">MultiModelEntityItem&lt;Entity, ParentEntity&gt;</tspan>
    </text>
  </g>
  <text style="fill: #000000;text-anchor:start;font-size:12.8;font-family:sanserif;font-style:normal;font-weight:normal" x="-93435" y="-42097.2">
    <tspan x="-93435" y="-42097.2"></tspan>
  </text>
  <text style="fill: #000000;text-anchor:start;font-size:12.8;font-family:sanserif;font-style:normal;font-weight:normal" x="-93006.2" y="-42097.2">
    <tspan x="-93006.2" y="-42097.2"></tspan>
  </text>
  <g>
    <path style="fill: none; fill-opacity:0; stroke-width: 1; stroke: #000000" d="M -92539.6 -42945 C -92664.2,-42812 -93217.4,-42617.8 -93218.7,-42526"/>
    <polygon style="fill: #000000" points="-93218.8,-42518.5 -93223.6,-42528.6 -93218.7,-42526 -93213.6,-42528.4 "/>
    <polygon style="fill: none; fill-opacity:0; stroke-width: 1; stroke: #000000" points="-93218.8,-42518.5 -93223.6,-42528.6 -93218.7,-42526 -93213.6,-42528.4 "/>
  </g>
  <g>
    <path style="fill: none; fill-opacity:0; stroke-width: 1; stroke: #000000" d="M -92539.6 -42945 C -92426,-42857.4 -91261.4,-42986.4 -91252.2,-42783.6"/>
    <polygon style="fill: #000000" points="-91251.9,-42776.1 -91257.3,-42785.9 -91252.2,-42783.6 -91247.3,-42786.3 "/>
    <polygon style="fill: none; fill-opacity:0; stroke-width: 1; stroke: #000000" points="-91251.9,-42776.1 -91257.3,-42785.9 -91252.2,-42783.6 -91247.3,-42786.3 "/>
  </g>
  <g>
    <path style="fill: none; fill-opacity:0; stroke-width: 1; stroke: #000000" d="M -92651.8 -42345.4 C -92650.6,-42263.2 -93015.4,-42238.6 -93106.6,-42238.4"/>
    <polygon style="fill: #000000" points="-93114.1,-42238.4 -93104.1,-42243.4 -93106.6,-42238.4 -93104.1,-42233.4 "/>
    <polygon style="fill: none; fill-opacity:0; stroke-width: 1; stroke: #000000" points="-93114.1,-42238.4 -93104.1,-42243.4 -93106.6,-42238.4 -93104.1,-42233.4 "/>
  </g>
  <g>
    <path style="fill: none; fill-opacity:0; stroke-width: 1; stroke: #000000" d="M -93218.8 -42219.4 C -93219,-42160.4 -93433.2,-42182.8 -93434.8,-42124.8"/>
    <polygon style="fill: #000000" points="-93435,-42117.3 -93439.7,-42127.4 -93434.8,-42124.8 -93429.7,-42127.2 "/>
    <polygon style="fill: none; fill-opacity:0; stroke-width: 1; stroke: #000000" points="-93435,-42117.3 -93439.7,-42127.4 -93434.8,-42124.8 -93429.7,-42127.2 "/>
  </g>
  <g>
    <path style="fill: none; fill-opacity:0; stroke-width: 1; stroke: #000000" d="M -93218.8 -42219.4 C -93218,-42154.4 -93007.4,-42185.8 -93006.3,-42124.8"/>
    <polygon style="fill: #000000" points="-93006.2,-42117.3 -93011.4,-42127.2 -93006.3,-42124.8 -93001.4,-42127.4 "/>
    <polygon style="fill: none; fill-opacity:0; stroke-width: 1; stroke: #000000" points="-93006.2,-42117.3 -93011.4,-42127.2 -93006.3,-42124.8 -93001.4,-42127.4 "/>
  </g>
  <text style="fill: #000000;text-anchor:start;font-size:12.8;font-family:sanserif;font-style:normal;font-weight:normal" x="-91993.4" y="-42238.4">
    <tspan x="-91993.4" y="-42238.4"></tspan>
  </text>
  <g>
    <path style="fill: none; fill-opacity:0; stroke-width: 1; stroke: #000000" d="M -92651.8 -42345.4 C -92648.4,-42272.8 -92213.8,-42236.8 -92117.4,-42238.3"/>
    <polygon style="fill: #000000" points="-92109.9,-42238.4 -92119.8,-42233.2 -92117.4,-42238.3 -92120,-42243.2 "/>
    <polygon style="fill: none; fill-opacity:0; stroke-width: 1; stroke: #000000" points="-92109.9,-42238.4 -92119.8,-42233.2 -92117.4,-42238.3 -92120,-42243.2 "/>
  </g>
  <g>
    <path style="fill: none; fill-opacity:0; stroke-width: 1; stroke: #000000" d="M -92539.6 -42945 C -92538.4,-42905 -92719,-42641 -92736.9,-42603.4"/>
    <polygon style="fill: #000000" points="-92740.1,-42596.6 -92740.3,-42607.8 -92736.9,-42603.4 -92731.3,-42603.5 "/>
    <polygon style="fill: none; fill-opacity:0; stroke-width: 1; stroke: #000000" points="-92740.1,-42596.6 -92740.3,-42607.8 -92736.9,-42603.4 -92731.3,-42603.5 "/>
  </g>
  <g>
    <path style="fill: none; fill-opacity:0; stroke-width: 1; stroke: #000000" d="M -92539.6 -42945 C -92537.8,-42906.6 -92500.2,-42638.8 -92500,-42604.2"/>
    <polygon style="fill: #000000" points="-92500,-42596.7 -92505.1,-42606.7 -92500,-42604.2 -92495.1,-42606.7 "/>
    <polygon style="fill: none; fill-opacity:0; stroke-width: 1; stroke: #000000" points="-92500,-42596.7 -92505.1,-42606.7 -92500,-42604.2 -92495.1,-42606.7 "/>
  </g>
  <g>
    <path style="fill: none; fill-opacity:0; stroke-width: 1; stroke: #000000" d="M -93006.2 -42078.2 C -93021,-42025.2 -93189.6,-42013 -93229.8,-41971.2"/>
    <polygon style="fill: #000000" points="-93235,-41965.8 -93231.7,-41976.5 -93229.8,-41971.2 -93224.5,-41969.5 "/>
    <polygon style="fill: none; fill-opacity:0; stroke-width: 1; stroke: #000000" points="-93235,-41965.8 -93231.7,-41976.5 -93229.8,-41971.2 -93224.5,-41969.5 "/>
  </g>
  <g>
    <path style="fill: none; fill-opacity:0; stroke-width: 1; stroke: #000000" d="M -93006.2 -42078.2 C -93009.6,-42019.4 -93065,-41992 -93077.4,-41972.3"/>
    <polygon style="fill: #000000" points="-93081.4,-41965.9 -93080.3,-41977.1 -93077.4,-41972.3 -93071.8,-41971.7 "/>
    <polygon style="fill: none; fill-opacity:0; stroke-width: 1; stroke: #000000" points="-93081.4,-41965.9 -93080.3,-41977.1 -93077.4,-41972.3 -93071.8,-41971.7 "/>
  </g>
  <g>
    <path style="fill: none; fill-opacity:0; stroke-width: 1; stroke: #000000" d="M -93006.2 -42078.2 C -92979.8,-42018.8 -92812.8,-42022.4 -92750,-41970.5"/>
    <polygon style="fill: #000000" points="-92744.3,-41965.7 -92755.2,-41968.2 -92750,-41970.5 -92748.8,-41975.9 "/>
    <polygon style="fill: none; fill-opacity:0; stroke-width: 1; stroke: #000000" points="-92744.3,-41965.7 -92755.2,-41968.2 -92750,-41970.5 -92748.8,-41975.9 "/>
  </g>
  <g>
    <path style="fill: none; fill-opacity:0; stroke-width: 1; stroke: #000000" d="M -93006.2 -42078.2 C -93006.2,-42028.2 -92988.6,-41993 -92988.5,-41973.6"/>
    <polygon style="fill: #000000" points="-92988.4,-41966.1 -92993.5,-41976.1 -92988.5,-41973.6 -92983.5,-41976.2 "/>
    <polygon style="fill: none; fill-opacity:0; stroke-width: 1; stroke: #000000" points="-92988.4,-41966.1 -92993.5,-41976.1 -92988.5,-41973.6 -92983.5,-41976.2 "/>
  </g>
  <g>
    <path style="fill: none; fill-opacity:0; stroke-width: 1; stroke: #000000" d="M -91251.8 -42737 C -91335.8,-42678.6 -91547,-42636.4 -91609.7,-42599.9"/>
    <polygon style="fill: #000000" points="-91616.2,-42596.2 -91610.1,-42605.5 -91609.7,-42599.9 -91605.1,-42596.9 "/>
    <polygon style="fill: none; fill-opacity:0; stroke-width: 1; stroke: #000000" points="-91616.2,-42596.2 -91610.1,-42605.5 -91609.7,-42599.9 -91605.1,-42596.9 "/>
  </g>
  <g>
    <path style="fill: none; fill-opacity:0; stroke-width: 1; stroke: #000000" d="M -91713.8 -42078.2 C -91713.6,-42016.8 -91962.2,-42043.2 -91962.9,-41973.2"/>
    <polygon style="fill: #000000" points="-91963,-41965.7 -91967.9,-41975.8 -91962.9,-41973.2 -91957.9,-41975.7 "/>
    <polygon style="fill: none; fill-opacity:0; stroke-width: 1; stroke: #000000" points="-91963,-41965.7 -91967.9,-41975.8 -91962.9,-41973.2 -91957.9,-41975.7 "/>
  </g>
  <g>
    <path style="fill: none; fill-opacity:0; stroke-width: 1; stroke: #000000" d="M -91251.8 -42737 C -91202,-42669 -91122.2,-42627 -91094.9,-42601.5"/>
    <polygon style="fill: #000000" points="-91089.4,-42596.4 -91100.1,-42599.5 -91094.9,-42601.5 -91093.3,-42606.8 "/>
    <polygon style="fill: none; fill-opacity:0; stroke-width: 1; stroke: #000000" points="-91089.4,-42596.4 -91100.1,-42599.5 -91094.9,-42601.5 -91093.3,-42606.8 "/>
  </g>
  <g>
    <path style="fill: none; fill-opacity:0; stroke-width: 1; stroke: #000000" d="M -91713.8 -42078.2 C -91713.6,-42014 -91386.4,-42049.8 -91385,-41973.2"/>
    <polygon style="fill: #000000" points="-91384.8,-41965.7 -91390,-41975.6 -91385,-41973.2 -91380,-41975.8 "/>
    <polygon style="fill: none; fill-opacity:0; stroke-width: 1; stroke: #000000" points="-91384.8,-41965.7 -91390,-41975.6 -91385,-41973.2 -91380,-41975.8 "/>
  </g>
  <g>
    <path style="fill: none; fill-opacity:0; stroke-width: 1; stroke: #000000" d="M -91251.8 -42737 C -91182.8,-42658.4 -91006,-42628.4 -90959.9,-42600.1"/>
    <polygon style="fill: #000000" points="-90953.6,-42596.2 -90964.7,-42597.2 -90959.9,-42600.1 -90959.5,-42605.7 "/>
    <polygon style="fill: none; fill-opacity:0; stroke-width: 1; stroke: #000000" points="-90953.6,-42596.2 -90964.7,-42597.2 -90959.9,-42600.1 -90959.5,-42605.7 "/>
  </g>
  <g>
    <path style="fill: none; fill-opacity:0; stroke-width: 1; stroke: #000000" d="M -91251.8 -42737 C -91167.6,-42676 -90886.8,-42626.6 -90822.1,-42599"/>
    <polygon style="fill: #000000" points="-90815.2,-42596 -90826.4,-42595.4 -90822.1,-42599 -90822.5,-42604.6 "/>
    <polygon style="fill: none; fill-opacity:0; stroke-width: 1; stroke: #000000" points="-90815.2,-42596 -90826.4,-42595.4 -90822.1,-42599 -90822.5,-42604.6 "/>
  </g>
  <g>
    <path style="fill: none; fill-opacity:0; stroke-width: 1; stroke: #000000" d="M -91251.8 -42737 C -91242.6,-42693 -91232.8,-42646 -91224,-42604"/>
    <polygon style="fill: #000000" points="-91222.4,-42596.7 -91229.4,-42605.5 -91224,-42604 -91219.6,-42607.5 "/>
    <polygon style="fill: none; fill-opacity:0; stroke-width: 1; stroke: #000000" points="-91222.4,-42596.7 -91229.4,-42605.5 -91224,-42604 -91219.6,-42607.5 "/>
  </g>
  <g>
    <path style="fill: none; fill-opacity:0; stroke-width: 1; stroke: #000000" d="M -91251.8 -42737 C -91281.8,-42680.4 -91315.4,-42637.6 -91331.9,-42603.4"/>
    <polygon style="fill: #000000" points="-91335.1,-42596.6 -91335.3,-42607.8 -91331.9,-42603.4 -91326.3,-42603.5 "/>
    <polygon style="fill: none; fill-opacity:0; stroke-width: 1; stroke: #000000" points="-91335.1,-42596.6 -91335.3,-42607.8 -91331.9,-42603.4 -91326.3,-42603.5 "/>
  </g>
  <g>
    <path style="fill: none; fill-opacity:0; stroke-width: 1; stroke: #000000" d="M -92248.4 -42078.2 C -92259.6,-42041 -92277.4,-42023.8 -92304.2,-41972.4"/>
    <polygon style="fill: #000000" points="-92307.7,-41965.8 -92307.5,-41977 -92304.2,-41972.4 -92298.6,-41972.3 "/>
    <polygon style="fill: none; fill-opacity:0; stroke-width: 1; stroke: #000000" points="-92307.7,-41965.8 -92307.5,-41977 -92304.2,-41972.4 -92298.6,-41972.3 "/>
  </g>
  <g>
    <path style="fill: none; fill-opacity:0; stroke-width: 1; stroke: #000000" d="M -91251.8 -42737 C -91340.8,-42658.4 -91415.2,-42636.4 -91465,-42600.6"/>
    <polygon style="fill: #000000" points="-91471.1,-42596.3 -91465.9,-42606.1 -91465,-42600.6 -91460.1,-42598 "/>
    <polygon style="fill: none; fill-opacity:0; stroke-width: 1; stroke: #000000" points="-91471.1,-42596.3 -91465.9,-42606.1 -91465,-42600.6 -91460.1,-42598 "/>
  </g>
  <g>
    <path style="fill: none; fill-opacity:0; stroke-width: 1; stroke: #000000" d="M -92539.6 -42945 C -92538.4,-42904 -92348.8,-42647.4 -92330.9,-42603.6"/>
    <polygon style="fill: #000000" points="-92328,-42596.6 -92336.4,-42604 -92330.9,-42603.6 -92327.2,-42607.8 "/>
    <polygon style="fill: none; fill-opacity:0; stroke-width: 1; stroke: #000000" points="-92328,-42596.6 -92336.4,-42604 -92330.9,-42603.6 -92327.2,-42607.8 "/>
  </g>
  <g>
    <path style="fill: none; fill-opacity:0; stroke-width: 1; stroke: #000000" d="M -92539.6 -42945 C -92535.2,-42909.2 -92253.4,-42641 -92233.4,-42603.2"/>
    <polygon style="fill: #000000" points="-92229.9,-42596.6 -92239,-42603.1 -92233.4,-42603.2 -92230.2,-42607.8 "/>
    <polygon style="fill: none; fill-opacity:0; stroke-width: 1; stroke: #000000" points="-92229.9,-42596.6 -92239,-42603.1 -92233.4,-42603.2 -92230.2,-42607.8 "/>
  </g>
  <g>
    <path style="fill: none; fill-opacity:0; stroke-width: 1; stroke: #000000" d="M -92539.6 -42945 C -92541.6,-42906 -92408.1,-42635.6 -92406.7,-42604.2"/>
    <polygon style="fill: #000000" points="-92406.4,-42596.7 -92411.8,-42606.5 -92406.7,-42604.2 -92401.8,-42606.9 "/>
    <polygon style="fill: none; fill-opacity:0; stroke-width: 1; stroke: #000000" points="-92406.4,-42596.7 -92411.8,-42606.5 -92406.7,-42604.2 -92401.8,-42606.9 "/>
  </g>
  <g>
    <path style="fill: none; fill-opacity:0; stroke-width: 1; stroke: #000000" d="M -92539.6 -42945 C -92539.4,-42904.4 -92572.8,-42642 -92587.3,-42603.7"/>
    <polygon style="fill: #000000" points="-92590,-42596.6 -92591.1,-42607.8 -92587.3,-42603.7 -92581.8,-42604.2 "/>
    <polygon style="fill: none; fill-opacity:0; stroke-width: 1; stroke: #000000" points="-92590,-42596.6 -92591.1,-42607.8 -92587.3,-42603.7 -92581.8,-42604.2 "/>
  </g>
  <g>
    <path style="fill: none; fill-opacity:0; stroke-width: 1; stroke: #000000" d="M -92539.6 -42945 C -92539.4,-42906.6 -92638.8,-42645.2 -92657.5,-42603.5"/>
    <polygon style="fill: #000000" points="-92660.5,-42596.6 -92661,-42607.8 -92657.5,-42603.5 -92651.9,-42603.7 "/>
    <polygon style="fill: none; fill-opacity:0; stroke-width: 1; stroke: #000000" points="-92660.5,-42596.6 -92661,-42607.8 -92657.5,-42603.5 -92651.9,-42603.7 "/>
  </g>
  <text style="fill: #000000;text-anchor:start;font-size:10.16;font-family:Consolas;font-style:normal;font-weight:normal" x="-93678.4" y="-42236.6">
    <tspan x="-93678.4" y="-42236.6">Base class for entity items with generic edition &amp; deletion</tspan>
  </text>
  <text style="fill: #000000;text-anchor:start;font-size:10.16;font-family:Consolas;font-style:normal;font-weight:normal" x="-92365.2" y="-42294.6">
    <tspan x="-92365.2" y="-42294.6">Base class for collections of entity items with generic creation</tspan>
    <tspan x="-92365.2" y="-42281.9">  - Built from a collection of entities</tspan>
    <tspan x="-92365.2" y="-42269.2">  - Provides an overload of add_item()</tspan>
  </text>
  <g>
    <path style="fill: none; fill-opacity:0; stroke-width: 1; stroke: #000000" d="M -92539.6 -42945 C -92538.8,-42903.4 -92815.2,-42635.6 -92840.8,-42602.4"/>
    <polygon style="fill: #000000" points="-92845.3,-42596.5 -92843.2,-42607.5 -92840.8,-42602.4 -92835.3,-42601.4 "/>
    <polygon style="fill: none; fill-opacity:0; stroke-width: 1; stroke: #000000" points="-92845.3,-42596.5 -92843.2,-42607.5 -92840.8,-42602.4 -92835.3,-42601.4 "/>
  </g>
  <g>
    <path style="fill: none; fill-opacity:0; stroke-width: 1; stroke: #000000" d="M -92614.6 -43049.8 C -92614.4,-42989.2 -92540.8,-43060.8 -92539.7,-42991.6"/>
    <polygon style="fill: #000000" points="-92539.6,-42984.1 -92544.8,-42994 -92539.7,-42991.6 -92534.8,-42994.2 "/>
    <polygon style="fill: none; fill-opacity:0; stroke-width: 1; stroke: #000000" points="-92539.6,-42984.1 -92544.8,-42994 -92539.7,-42991.6 -92534.8,-42994.2 "/>
  </g>
  <g>
    <path style="fill: none; fill-opacity:0; stroke-width: 1; stroke: #000000" d="M -92481.8 -43049.8 C -92481.6,-42989.2 -92540.8,-43060.8 -92539.7,-42991.6"/>
    <polygon style="fill: #000000" points="-92539.6,-42984.1 -92544.8,-42994 -92539.7,-42991.6 -92534.8,-42994.2 "/>
    <polygon style="fill: none; fill-opacity:0; stroke-width: 1; stroke: #000000" points="-92539.6,-42984.1 -92544.8,-42994 -92539.7,-42991.6 -92534.8,-42994.2 "/>
  </g>
  <g>
    <path style="fill: none; fill-opacity:0; stroke-width: 1; stroke: #000000" d="M -92539.6 -42945 C -92452,-42842.4 -91997.4,-42589.6 -91993.2,-42392"/>
    <polygon style="fill: #000000" points="-91993,-42384.5 -91998.2,-42394.4 -91993.2,-42392 -91988.2,-42394.6 "/>
    <polygon style="fill: none; fill-opacity:0; stroke-width: 1; stroke: #000000" points="-91993,-42384.5 -91998.2,-42394.4 -91993.2,-42392 -91988.2,-42394.6 "/>
  </g>
  <text style="fill: #000000;text-anchor:start;font-size:28.2222;font-family:sanserif;font-style:normal;font-weight:normal" x="-93569.4" y="-42951.6">
    <tspan x="-93569.4" y="-42951.6">appleseed.studio Project Explorer</tspan>
    <tspan x="-93569.4" y="-42916.3">Class Inheritance Diagram</tspan>
  </text>
  <g>
    <rect style="fill: #f8eecd" x="-92421.8" y="-42116.2" width="346.9" height="38"/>
    <rect style="fill: none; fill-opacity:0; stroke-width: 1; stroke-dasharray: 4; stroke: #000000" x="-92421.8" y="-42116.2" width="346.9" height="38"/>
    <text style="fill: #000000;text-anchor:middle;font-size:12.8;font-family:sanserif;font-style:oblique;font-weight:normal" x="-92248.3" y="-42092.4">
      <tspan x="-92248.3" y="-42092.4">SingleModelCollectionItem&lt;Entity, ParentEntity, Factory&gt;</tspan>
    </text>
  </g>
  <g>
    <rect style="fill: #f8eecd" x="-91859" y="-42116.2" width="290.6" height="38"/>
    <rect style="fill: none; fill-opacity:0; stroke-width: 1; stroke: #000000" x="-91859" y="-42116.2" width="290.6" height="38"/>
    <text style="fill: #000000;text-anchor:middle;font-size:12.8;font-family:sanserif;font-style:normal;font-weight:normal" x="-91713.7" y="-42092.4">
      <tspan x="-91713.7" y="-42092.4">MultiModelCollectionItem&lt;Entity, ParentEntity&gt;</tspan>
    </text>
  </g>
  <g>
    <path style="fill: none; fill-opacity:0; stroke-width: 1; stroke: #000000" d="M -91993.4 -42219.4 C -91994.4,-42165.2 -92248.6,-42167.8 -92248.3,-42124.8"/>
    <polygon style="fill: #000000" points="-92248.2,-42117.3 -92253.3,-42127.3 -92248.3,-42124.8 -92243.3,-42127.4 "/>
    <polygon style="fill: none; fill-opacity:0; stroke-width: 1; stroke: #000000" points="-92248.2,-42117.3 -92253.3,-42127.3 -92248.3,-42124.8 -92243.3,-42127.4 "/>
  </g>
  <g>
    <path style="fill: none; fill-opacity:0; stroke-width: 1; stroke: #000000" d="M -91993.4 -42219.4 C -91994.4,-42165.2 -91714.2,-42167.8 -91713.9,-42124.8"/>
    <polygon style="fill: #000000" points="-91713.8,-42117.3 -91718.9,-42127.3 -91713.9,-42124.8 -91708.9,-42127.4 "/>
    <polygon style="fill: none; fill-opacity:0; stroke-width: 1; stroke: #000000" points="-91713.8,-42117.3 -91718.9,-42127.3 -91713.9,-42124.8 -91708.9,-42127.4 "/>
  </g>
  <g>
    <path style="fill: none; fill-opacity:0; stroke-width: 1; stroke: #000000" d="M -91251.8 -42737 C -91334.4,-42700.6 -91690.8,-42728.2 -91801.4,-42616 C -91912,-42503.8 -91782.8,-42342.4 -91985.4,-42260.6"/>
    <polygon style="fill: #000000" points="-91992.4,-42257.8 -91985,-42266.2 -91985.4,-42260.6 -91981.2,-42256.9 "/>
    <polygon style="fill: none; fill-opacity:0; stroke-width: 1; stroke: #000000" points="-91992.4,-42257.8 -91985,-42266.2 -91985.4,-42260.6 -91981.2,-42256.9 "/>
  </g>
  <g>
    <path style="fill: none; fill-opacity:0; stroke-width: 1; stroke: #000000" d="M -91713.8 -42078.2 C -91713.2,-42001.6 -91849,-42043.2 -91849.9,-41973.2"/>
    <polygon style="fill: #000000" points="-91850,-41965.7 -91854.9,-41975.8 -91849.9,-41973.2 -91844.9,-41975.7 "/>
    <polygon style="fill: none; fill-opacity:0; stroke-width: 1; stroke: #000000" points="-91850,-41965.7 -91854.9,-41975.8 -91849.9,-41973.2 -91844.9,-41975.7 "/>
  </g>
  <g>
    <path style="fill: none; fill-opacity:0; stroke-width: 1; stroke: #000000" d="M -91713.8 -42078.2 C -91714.2,-41998 -91549,-42049.8 -91547.6,-41973.2"/>
    <polygon style="fill: #000000" points="-91547.4,-41965.7 -91552.6,-41975.6 -91547.6,-41973.2 -91542.6,-41975.8 "/>
    <polygon style="fill: none; fill-opacity:0; stroke-width: 1; stroke: #000000" points="-91547.4,-41965.7 -91552.6,-41975.6 -91547.6,-41973.2 -91542.6,-41975.8 "/>
  </g>
  <g>
    <line style="fill: none; fill-opacity:0; stroke-width: 1; stroke: #000000" x1="-91713.8" y1="-42078.2" x2="-91714.2" y2="-41973.2"/>
    <polygon style="fill: #000000" points="-91714.2,-41965.7 -91719.2,-41975.7 -91714.2,-41973.2 -91709.2,-41975.7 "/>
    <polygon style="fill: none; fill-opacity:0; stroke-width: 1; stroke: #000000" points="-91714.2,-41965.7 -91719.2,-41975.7 -91714.2,-41973.2 -91709.2,-41975.7 "/>
  </g>
  <g>
    <g>
      <rect style="fill: #f3f3f3" x="-91625.6" y="-41964.6" width="156.55" height="32.2889"/>
      <rect style="fill: none; fill-opacity:0; stroke-width: 1; stroke-dasharray: 4; stroke: #000000" x="-91625.6" y="-41964.6" width="156.55" height="32.2889"/>
      <text style="fill: #000000;text-anchor:middle;font-size:9.03111;font-family:sanserif;font-style:oblique;font-weight:normal" x="-91547.3" y="-41945">
        <tspan x="-91547.3" y="-41945">EnvironmentShaderCollectionItem</tspan>
      </text>
    </g>
    <g>
      <rect style="fill: #f3f3f3" x="-91786.6" y="-41964.6" width="144.65" height="32.2889"/>
      <rect style="fill: none; fill-opacity:0; stroke-width: 1; stroke-dasharray: 4; stroke: #000000" x="-91786.6" y="-41964.6" width="144.65" height="32.2889"/>
      <text style="fill: #000000;text-anchor:middle;font-size:9.03111;font-family:sanserif;font-style:oblique;font-weight:normal" x="-91714.3" y="-41945">
        <tspan x="-91714.3" y="-41945">EnvironmentEDFCollectionItem</tspan>
      </text>
    </g>
    <g>
      <rect style="fill: #f3f3f3" x="-92012.8" y="-41964.6" width="99.6" height="32.2889"/>
      <rect style="fill: none; fill-opacity:0; stroke-width: 1; stroke-dasharray: 4; stroke: #000000" x="-92012.8" y="-41964.6" width="99.6" height="32.2889"/>
      <text style="fill: #000000;text-anchor:middle;font-size:9.03111;font-family:sanserif;font-style:oblique;font-weight:normal" x="-91963" y="-41945">
        <tspan x="-91963" y="-41945">BSDFCollectionItem</tspan>
      </text>
    </g>
    <g>
      <rect style="fill: #f3f3f3" x="-91897" y="-41964.6" width="94.3" height="32.2889"/>
      <rect style="fill: none; fill-opacity:0; stroke-width: 1; stroke-dasharray: 4; stroke: #000000" x="-91897" y="-41964.6" width="94.3" height="32.2889"/>
      <text style="fill: #000000;text-anchor:middle;font-size:9.03111;font-family:sanserif;font-style:oblique;font-weight:normal" x="-91849.8" y="-41945">
        <tspan x="-91849.8" y="-41945">EDFCollectionItem</tspan>
      </text>
    </g>
    <g>
      <rect style="fill: #f3f3f3" x="-91452.8" y="-41964.6" width="136.35" height="32.2889"/>
      <rect style="fill: none; fill-opacity:0; stroke-width: 1; stroke-dasharray: 4; stroke: #000000" x="-91452.8" y="-41964.6" width="136.35" height="32.2889"/>
      <text style="fill: #000000;text-anchor:middle;font-size:9.03111;font-family:sanserif;font-style:oblique;font-weight:normal" x="-91384.6" y="-41945">
        <tspan x="-91384.6" y="-41945">SurfaceShaderCollectionItem</tspan>
      </text>
    </g>
  </g>
  <g>
    <text style="fill: #000000;text-anchor:start;font-size:10.16;font-family:Consolas;font-style:normal;font-weight:normal" x="-91130.6" y="-42777.8">
      <tspan x="-91130.6" y="-42777.8">Base class for all collections of items:</tspan>
      <tspan x="-91130.6" y="-42765.1">  - Built from class_uid &amp; title</tspan>
      <tspan x="-91130.6" y="-42752.4">  - Renders the title in bold</tspan>
      <tspan x="-91130.6" y="-42739.7">  - Provides add_item() and add_items()</tspan>
      <tspan x="-91130.6" y="-42727">The name is a shortcut for EntityCollectionItemBase.</tspan>
    </text>
    <g>
      <g>
        <rect style="fill: #f8eecd" x="-91341.6" y="-42775" width="179.75" height="38"/>
        <rect style="fill: none; fill-opacity:0; stroke-width: 1; stroke: #000000" x="-91341.6" y="-42775" width="179.75" height="38"/>
        <text style="fill: #000000;text-anchor:middle;font-size:12.8;font-family:sanserif;font-style:normal;font-weight:normal" x="-91251.7" y="-42751.2">
          <tspan x="-91251.7" y="-42751.2">CollectionItemBase&lt;Entity&gt;</tspan>
        </text>
      </g>
      <text style="fill: #000000;text-anchor:start;font-size:9.03111;font-family:sanserif;font-style:normal;font-weight:normal" x="-91250.8" y="-42792.6">
        <tspan x="-91250.8" y="-42792.6">virtual</tspan>
      </text>
    </g>
  </g>
  <g>
    <line style="fill: none; fill-opacity:0; stroke-width: 1; stroke: #000000" x1="-91993" y1="-42345.4" x2="-91993.4" y2="-42266"/>
    <polygon style="fill: #000000" points="-91993.4,-42258.5 -91998.3,-42268.5 -91993.4,-42266 -91988.3,-42268.5 "/>
    <polygon style="fill: none; fill-opacity:0; stroke-width: 1; stroke: #000000" points="-91993.4,-42258.5 -91998.3,-42268.5 -91993.4,-42266 -91988.3,-42268.5 "/>
  </g>
  <g>
    <rect style="fill: #f8eecd" x="-92108.8" y="-42257.4" width="230.8" height="38"/>
    <rect style="fill: none; fill-opacity:0; stroke-width: 1; stroke: #000000" x="-92108.8" y="-42257.4" width="230.8" height="38"/>
    <text style="fill: #000000;text-anchor:middle;font-size:12.8;font-family:sanserif;font-style:normal;font-weight:normal" x="-91993.4" y="-42233.6">
      <tspan x="-91993.4" y="-42233.6">CollectionItem&lt;Entity, ParentEntity&gt;</tspan>
    </text>
  </g>
  <g>
    <rect style="fill: #ffffff" x="-93286.2" y="-42517.4" width="134.65" height="38"/>
    <rect style="fill: none; fill-opacity:0; stroke-width: 1; stroke: #000000" x="-93286.2" y="-42517.4" width="134.65" height="38"/>
    <text style="fill: #000000;text-anchor:middle;font-size:12.8;font-family:sanserif;font-style:normal;font-weight:normal" x="-93218.9" y="-42493.6">
      <tspan x="-93218.9" y="-42493.6">EntityItemBaseSlots</tspan>
    </text>
  </g>
  <g>
    <g>
      <rect style="fill: #f8eecd" x="-92577.2" y="-42983" width="75.3" height="38"/>
      <rect style="fill: none; fill-opacity:0; stroke-width: 1; stroke: #000000" x="-92577.2" y="-42983" width="75.3" height="38"/>
      <text style="fill: #000000;text-anchor:middle;font-size:12.8;font-family:sanserif;font-style:normal;font-weight:normal" x="-92539.5" y="-42959.2">
        <tspan x="-92539.5" y="-42959.2">ItemBase</tspan>
      </text>
    </g>
    <text style="fill: #000000;text-anchor:start;font-size:10.16;font-family:Consolas;font-style:normal;font-weight:normal" x="-92480" y="-42979.6">
      <tspan x="-92480" y="-42979.6">Base class for all items:</tspan>
      <tspan x="-92480" y="-42966.9">  - Built from class_uid or class_uid &amp; title</tspan>
      <tspan x="-92480" y="-42954.2">  - Provides set_title()</tspan>
      <tspan x="-92480" y="-42941.5">  - Defines empty virtual functions for context menus</tspan>
    </text>
    <g>
      <g>
        <rect style="fill: #ffc0cb" x="-92543.4" y="-43087.8" width="123" height="38"/>
        <rect style="fill: none; fill-opacity:0; stroke-width: 1; stroke: #000000" x="-92543.4" y="-43087.8" width="123" height="38"/>
        <text style="fill: #000000;text-anchor:middle;font-size:12.8;font-family:sanserif;font-style:normal;font-weight:normal" x="-92481.9" y="-43064">
          <tspan x="-92481.9" y="-43064">QTreeWidgetItem</tspan>
        </text>
      </g>
      <g>
        <rect style="fill: #ffc0cb" x="-92648" y="-43087.8" width="66.75" height="38"/>
        <rect style="fill: none; fill-opacity:0; stroke-width: 1; stroke: #000000" x="-92648" y="-43087.8" width="66.75" height="38"/>
        <text style="fill: #000000;text-anchor:middle;font-size:12.8;font-family:sanserif;font-style:normal;font-weight:normal" x="-92614.6" y="-43064">
          <tspan x="-92614.6" y="-43064">QObject</tspan>
        </text>
      </g>
    </g>
  </g>
  <g>
    <line style="fill: none; fill-opacity:0; stroke-width: 1; stroke: #000000" x1="-93218.8" y1="-42345.4" x2="-93218.8" y2="-42266"/>
    <polygon style="fill: #000000" points="-93218.8,-42258.5 -93223.8,-42268.5 -93218.8,-42266 -93213.8,-42268.5 "/>
    <polygon style="fill: none; fill-opacity:0; stroke-width: 1; stroke: #000000" points="-93218.8,-42258.5 -93223.8,-42268.5 -93218.8,-42266 -93213.8,-42268.5 "/>
  </g>
  <text style="fill: #000000;text-anchor:start;font-size:10.16;font-family:Consolas;font-style:normal;font-weight:normal" x="-93622.6" y="-42380">
    <tspan x="-93622.6" y="-42380">Base class for all entity items:</tspan>
    <tspan x="-93622.6" y="-42367.3">  - Built from an entity</tspan>
    <tspan x="-93622.6" y="-42354.6">  - Provides update_title()</tspan>
    <tspan x="-93622.6" y="-42341.9">  - Provide context menu items for edition &amp; deletion</tspan>
  </text>
  <g>
    <rect style="fill: #f8eecd" x="-93298" y="-42383.4" width="158.5" height="38"/>
    <rect style="fill: none; fill-opacity:0; stroke-width: 1; stroke: #000000" x="-93298" y="-42383.4" width="158.5" height="38"/>
    <text style="fill: #000000;text-anchor:middle;font-size:12.8;font-family:sanserif;font-style:normal;font-weight:normal" x="-93218.7" y="-42359.6">
      <tspan x="-93218.7" y="-42359.6">EntityItemBase&lt;Entity&gt;</tspan>
    </text>
  </g>
  <g>
    <g>
      <rect style="fill: #ffffff" x="-92058.2" y="-42383.4" width="130.2" height="38"/>
      <rect style="fill: none; fill-opacity:0; stroke-width: 1; stroke: #000000" x="-92058.2" y="-42383.4" width="130.2" height="38"/>
      <text style="fill: #000000;text-anchor:middle;font-size:12.8;font-family:sanserif;font-style:normal;font-weight:normal" x="-91993.1" y="-42359.6">
        <tspan x="-91993.1" y="-42359.6">CollectionItemSlots</tspan>
      </text>
    </g>
    <text style="fill: #000000;text-anchor:start;font-size:9.03111;font-family:sanserif;font-style:normal;font-weight:normal" x="-91988.4" y="-42402">
      <tspan x="-91988.4" y="-42402">virtual</tspan>
    </text>
  </g>
  <g>
    <path style="fill: none; fill-opacity:0; stroke-width: 1; stroke: #000000" d="M -93006.2 -42078.2 C -92989.6,-42015 -92902.2,-42000 -92870.2,-41970.8"/>
    <polygon style="fill: #000000" points="-92864.6,-41965.8 -92875.4,-41968.8 -92870.2,-41970.8 -92868.6,-41976.2 "/>
    <polygon style="fill: none; fill-opacity:0; stroke-width: 1; stroke: #000000" points="-92864.6,-41965.8 -92875.4,-41968.8 -92870.2,-41970.8 -92868.6,-41976.2 "/>
  </g>
  <g>
    <path style="fill: none; fill-opacity:0; stroke-width: 1; stroke: #000000" d="M -93006.2 -42078.2 C -93022.8,-42008 -93129.6,-42014 -93153.3,-41972.5"/>
    <polygon style="fill: #000000" points="-93157,-41966 -93156.4,-41977.1 -93153.3,-41972.5 -93147.7,-41972.2 "/>
    <polygon style="fill: none; fill-opacity:0; stroke-width: 1; stroke: #000000" points="-93157,-41966 -93156.4,-41977.1 -93153.3,-41972.5 -93147.7,-41972.2 "/>
  </g>
  <g>
    <path style="fill: none; fill-opacity:0; stroke-width: 1; stroke: #000000" d="M -93435 -42078.2 C -93435.4,-42038.4 -93474.6,-41997.8 -93482.9,-41973.2"/>
    <polygon style="fill: #000000" points="-93485.2,-41966.1 -93486.8,-41977.1 -93482.9,-41973.2 -93477.3,-41974 "/>
    <polygon style="fill: none; fill-opacity:0; stroke-width: 1; stroke: #000000" points="-93485.2,-41966.1 -93486.8,-41977.1 -93482.9,-41973.2 -93477.3,-41974 "/>
  </g>
  <g>
    <g>
      <rect style="fill: #f3f3f3" x="-93266.4" y="-41965" width="61.15" height="32.2889"/>
      <rect style="fill: none; fill-opacity:0; stroke-width: 1; stroke-dasharray: 4; stroke: #000000" x="-93266.4" y="-41965" width="61.15" height="32.2889"/>
      <text style="fill: #000000;text-anchor:middle;font-size:9.03111;font-family:sanserif;font-style:oblique;font-weight:normal" x="-93235.8" y="-41945.4">
        <tspan x="-93235.8" y="-41945.4">BSDFItem</tspan>
      </text>
    </g>
    <g>
      <rect style="fill: #f3f3f3" x="-93110" y="-41965" width="55.85" height="32.2889"/>
      <rect style="fill: none; fill-opacity:0; stroke-width: 1; stroke-dasharray: 4; stroke: #000000" x="-93110" y="-41965" width="55.85" height="32.2889"/>
      <text style="fill: #000000;text-anchor:middle;font-size:9.03111;font-family:sanserif;font-style:oblique;font-weight:normal" x="-93082.1" y="-41945.4">
        <tspan x="-93082.1" y="-41945.4">EDFItem</tspan>
      </text>
    </g>
    <g>
      <rect style="fill: #f3f3f3" x="-93041.6" y="-41965" width="106.2" height="32.2889"/>
      <rect style="fill: none; fill-opacity:0; stroke-width: 1; stroke-dasharray: 4; stroke: #000000" x="-93041.6" y="-41965" width="106.2" height="32.2889"/>
      <text style="fill: #000000;text-anchor:middle;font-size:9.03111;font-family:sanserif;font-style:oblique;font-weight:normal" x="-92988.5" y="-41945.4">
        <tspan x="-92988.5" y="-41945.4">EnvironmentEDFItem</tspan>
      </text>
    </g>
    <g>
      <rect style="fill: #f3f3f3" x="-92792.2" y="-41965" width="97.9" height="32.2889"/>
      <rect style="fill: none; fill-opacity:0; stroke-width: 1; stroke-dasharray: 4; stroke: #000000" x="-92792.2" y="-41965" width="97.9" height="32.2889"/>
      <text style="fill: #000000;text-anchor:middle;font-size:9.03111;font-family:sanserif;font-style:oblique;font-weight:normal" x="-92743.2" y="-41945.4">
        <tspan x="-92743.2" y="-41945.4">SurfaceShaderItem</tspan>
      </text>
    </g>
    <g>
      <rect style="fill: #f3f3f3" x="-92922.8" y="-41965" width="118.1" height="32.2889"/>
      <rect style="fill: none; fill-opacity:0; stroke-width: 1; stroke-dasharray: 4; stroke: #000000" x="-92922.8" y="-41965" width="118.1" height="32.2889"/>
      <text style="fill: #000000;text-anchor:middle;font-size:9.03111;font-family:sanserif;font-style:oblique;font-weight:normal" x="-92863.7" y="-41945.4">
        <tspan x="-92863.7" y="-41945.4">EnvironmentShaderItem</tspan>
      </text>
    </g>
    <g>
      <rect style="fill: #f3f3f3" x="-93192.8" y="-41965" width="70.35" height="32.2889"/>
      <rect style="fill: none; fill-opacity:0; stroke-width: 1; stroke-dasharray: 4; stroke: #000000" x="-93192.8" y="-41965" width="70.35" height="32.2889"/>
      <text style="fill: #000000;text-anchor:middle;font-size:9.03111;font-family:sanserif;font-style:oblique;font-weight:normal" x="-93157.6" y="-41945.4">
        <tspan x="-93157.6" y="-41945.4">CameraItem</tspan>
      </text>
    </g>
  </g>
  <g>
    <path style="fill: none; fill-opacity:0; stroke-width: 1; stroke: #000000" d="M -93435 -42078.2 C -93435.4,-42038.4 -93395.2,-41997.4 -93388.5,-41972.9"/>
    <polygon style="fill: #000000" points="-93386.5,-41965.7 -93394,-41974 -93388.5,-41972.9 -93384.3,-41976.6 "/>
    <polygon style="fill: none; fill-opacity:0; stroke-width: 1; stroke: #000000" points="-93386.5,-41965.7 -93394,-41974 -93388.5,-41972.9 -93384.3,-41976.6 "/>
  </g>
  <g>
    <g>
      <rect style="fill: #f3f3f3" x="-93421.8" y="-41964.6" width="71.5" height="32.2889"/>
      <rect style="fill: none; fill-opacity:0; stroke-width: 1; stroke-dasharray: 4; stroke: #000000" x="-93421.8" y="-41964.6" width="71.5" height="32.2889"/>
      <text style="fill: #000000;text-anchor:middle;font-size:9.03111;font-family:sanserif;font-style:oblique;font-weight:normal" x="-93386" y="-41945">
        <tspan x="-93386" y="-41945">MaterialItem</tspan>
      </text>
    </g>
    <g>
      <rect style="fill: #f3f3f3" x="-93538.8" y="-41965" width="106.2" height="32.2889"/>
      <rect style="fill: none; fill-opacity:0; stroke-width: 1; stroke-dasharray: 4; stroke: #000000" x="-93538.8" y="-41965" width="106.2" height="32.2889"/>
      <text style="fill: #000000;text-anchor:middle;font-size:9.03111;font-family:sanserif;font-style:oblique;font-weight:normal" x="-93485.7" y="-41945.4">
        <tspan x="-93485.7" y="-41945.4">EnvironmentItem</tspan>
      </text>
    </g>
  </g>
  <g>
    <g>
      <rect style="fill: #f3f3f3" x="-91547" y="-42595.6" width="150" height="32.2889"/>
      <rect style="fill: none; fill-opacity:0; stroke-width: 1; stroke: #000000" x="-91547" y="-42595.6" width="150" height="32.2889"/>
      <text style="fill: #000000;text-anchor:middle;font-size:9.03111;font-family:sanserif;font-style:normal;font-weight:normal" x="-91472" y="-42576">
        <tspan x="-91472" y="-42576">AssemblyInstanceCollectionItem</tspan>
      </text>
    </g>
    <g>
      <rect style="fill: #f3f3f3" x="-91675" y="-42595.6" width="115.7" height="32.2889"/>
      <rect style="fill: none; fill-opacity:0; stroke-width: 1; stroke: #000000" x="-91675" y="-42595.6" width="115.7" height="32.2889"/>
      <text style="fill: #000000;text-anchor:middle;font-size:9.03111;font-family:sanserif;font-style:normal;font-weight:normal" x="-91617.1" y="-42576">
        <tspan x="-91617.1" y="-42576">AssemblyCollectionItem</tspan>
      </text>
    </g>
    <g>
      <rect style="fill: #f3f3f3" x="-91157.8" y="-42595.6" width="138.5" height="32.2889"/>
      <rect style="fill: none; fill-opacity:0; stroke-width: 1; stroke: #000000" x="-91157.8" y="-42595.6" width="138.5" height="32.2889"/>
      <text style="fill: #000000;text-anchor:middle;font-size:9.03111;font-family:sanserif;font-style:normal;font-weight:normal" x="-91088.5" y="-42576">
        <tspan x="-91088.5" y="-42576">ObjectInstanceCollectionItem</tspan>
      </text>
    </g>
    <g>
      <rect style="fill: #f3f3f3" x="-91007" y="-42595.6" width="108.9" height="32.2889"/>
      <rect style="fill: none; fill-opacity:0; stroke-width: 1; stroke: #000000" x="-91007" y="-42595.6" width="108.9" height="32.2889"/>
      <text style="fill: #000000;text-anchor:middle;font-size:9.03111;font-family:sanserif;font-style:normal;font-weight:normal" x="-90952.5" y="-42576">
        <tspan x="-90952.5" y="-42576">TextureCollectionItem</tspan>
      </text>
    </g>
    <g>
      <rect style="fill: #f3f3f3" x="-90885.8" y="-42595.6" width="143.2" height="32.2889"/>
      <rect style="fill: none; fill-opacity:0; stroke-width: 1; stroke: #000000" x="-90885.8" y="-42595.6" width="143.2" height="32.2889"/>
      <text style="fill: #000000;text-anchor:middle;font-size:9.03111;font-family:sanserif;font-style:normal;font-weight:normal" x="-90814.2" y="-42576">
        <tspan x="-90814.2" y="-42576">TextureInstanceCollectionItem</tspan>
      </text>
    </g>
    <g>
      <rect style="fill: #f3f3f3" x="-91384.6" y="-42595.6" width="97.9" height="32.2889"/>
      <rect style="fill: none; fill-opacity:0; stroke-width: 1; stroke: #000000" x="-91384.6" y="-42595.6" width="97.9" height="32.2889"/>
      <text style="fill: #000000;text-anchor:middle;font-size:9.03111;font-family:sanserif;font-style:normal;font-weight:normal" x="-91335.6" y="-42576">
        <tspan x="-91335.6" y="-42576">LightCollectionItem</tspan>
      </text>
    </g>
    <g>
      <rect style="fill: #f3f3f3" x="-91274.4" y="-42595.6" width="104.2" height="32.2889"/>
      <rect style="fill: none; fill-opacity:0; stroke-width: 1; stroke: #000000" x="-91274.4" y="-42595.6" width="104.2" height="32.2889"/>
      <text style="fill: #000000;text-anchor:middle;font-size:9.03111;font-family:sanserif;font-style:normal;font-weight:normal" x="-91222.3" y="-42576">
        <tspan x="-91222.3" y="-42576">ObjectCollectionItem</tspan>
      </text>
    </g>
  </g>
  <g>
    <path style="fill: none; fill-opacity:0; stroke-width: 1; stroke: #000000" d="M -92248.4 -42078.2 C -92234.4,-42039 -92214,-42017.2 -92195.5,-41972.6"/>
    <polygon style="fill: #000000" points="-92192.6,-41965.6 -92201.1,-41973 -92195.5,-41972.6 -92191.8,-41976.8 "/>
    <polygon style="fill: none; fill-opacity:0; stroke-width: 1; stroke: #000000" points="-92192.6,-41965.6 -92201.1,-41973 -92195.5,-41972.6 -92191.8,-41976.8 "/>
  </g>
  <g>
    <g>
      <rect style="fill: #f3f3f3" x="-92247.2" y="-41964.6" width="109.95" height="32.2889"/>
      <rect style="fill: none; fill-opacity:0; stroke-width: 1; stroke-dasharray: 4; stroke: #000000" x="-92247.2" y="-41964.6" width="109.95" height="32.2889"/>
      <text style="fill: #000000;text-anchor:middle;font-size:9.03111;font-family:sanserif;font-style:oblique;font-weight:normal" x="-92192.2" y="-41945">
        <tspan x="-92192.2" y="-41945">MaterialCollectionItem</tspan>
      </text>
    </g>
    <g>
      <rect style="fill: #f3f3f3" x="-92357.6" y="-41964.8" width="98.8" height="32.2889"/>
      <rect style="fill: none; fill-opacity:0; stroke-width: 1; stroke-dasharray: 4; stroke: #000000" x="-92357.6" y="-41964.8" width="98.8" height="32.2889"/>
      <text style="fill: #000000;text-anchor:middle;font-size:9.03111;font-family:sanserif;font-style:normal;font-weight:normal" x="-92308.2" y="-41945.2">
        <tspan x="-92308.2" y="-41945.2">ColorCollectionItem</tspan>
      </text>
    </g>
  </g>
  <g>
    <g>
      <rect style="fill: #f3f3f3" x="-92779.2" y="-42595.6" width="77.25" height="32.2889"/>
      <rect style="fill: none; fill-opacity:0; stroke-width: 1; stroke: #000000" x="-92779.2" y="-42595.6" width="77.25" height="32.2889"/>
      <text style="fill: #000000;text-anchor:middle;font-size:9.03111;font-family:sanserif;font-style:normal;font-weight:normal" x="-92740.6" y="-42576">
        <tspan x="-92740.6" y="-42576">AssemblyItem</tspan>
      </text>
    </g>
    <g>
      <rect style="fill: #f3f3f3" x="-92550" y="-42595.6" width="100.05" height="32.2889"/>
      <rect style="fill: none; fill-opacity:0; stroke-width: 1; stroke: #000000" x="-92550" y="-42595.6" width="100.05" height="32.2889"/>
      <text style="fill: #000000;text-anchor:middle;font-size:9.03111;font-family:sanserif;font-style:normal;font-weight:normal" x="-92500" y="-42576">
        <tspan x="-92500" y="-42576">ObjectInstanceItem</tspan>
      </text>
    </g>
    <g>
      <rect style="fill: #f3f3f3" x="-92362.8" y="-42595.6" width="70.45" height="32.2889"/>
      <rect style="fill: none; fill-opacity:0; stroke-width: 1; stroke-dasharray: 4; stroke: #000000" x="-92362.8" y="-42595.6" width="70.45" height="32.2889"/>
      <text style="fill: #000000;text-anchor:middle;font-size:9.03111;font-family:sanserif;font-style:oblique;font-weight:normal" x="-92327.6" y="-42576">
        <tspan x="-92327.6" y="-42576">TextureItem</tspan>
      </text>
    </g>
    <g>
      <rect style="fill: #f3f3f3" x="-92281.8" y="-42595.6" width="104.75" height="32.2889"/>
      <rect style="fill: none; fill-opacity:0; stroke-width: 1; stroke-dasharray: 4; stroke: #000000" x="-92281.8" y="-42595.6" width="104.75" height="32.2889"/>
      <text style="fill: #000000;text-anchor:middle;font-size:9.03111;font-family:sanserif;font-style:oblique;font-weight:normal" x="-92229.4" y="-42576">
        <tspan x="-92229.4" y="-42576">TextureInstanceItem</tspan>
      </text>
    </g>
    <g>
      <rect style="fill: #f3f3f3" x="-92439.2" y="-42595.6" width="65.75" height="32.2889"/>
      <rect style="fill: none; fill-opacity:0; stroke-width: 1; stroke: #000000" x="-92439.2" y="-42595.6" width="65.75" height="32.2889"/>
      <text style="fill: #000000;text-anchor:middle;font-size:9.03111;font-family:sanserif;font-style:oblique;font-weight:normal" x="-92406.3" y="-42576">
        <tspan x="-92406.3" y="-42576">ObjectItem</tspan>
      </text>
    </g>
    <g>
      <rect style="fill: #f3f3f3" x="-92620.2" y="-42595.6" width="59.55" height="32.2889"/>
      <rect style="fill: none; fill-opacity:0; stroke-width: 1; stroke-dasharray: 4; stroke: #000000" x="-92620.2" y="-42595.6" width="59.55" height="32.2889"/>
      <text style="fill: #000000;text-anchor:middle;font-size:9.03111;font-family:sanserif;font-style:oblique;font-weight:normal" x="-92590.4" y="-42576">
        <tspan x="-92590.4" y="-42576">LightItem</tspan>
      </text>
    </g>
    <g>
      <rect style="fill: #f3f3f3" x="-92691.2" y="-42595.6" width="60.35" height="32.2889"/>
      <rect style="fill: none; fill-opacity:0; stroke-width: 1; stroke-dasharray: 4; stroke: #000000" x="-92691.2" y="-42595.6" width="60.35" height="32.2889"/>
      <text style="fill: #000000;text-anchor:middle;font-size:9.03111;font-family:sanserif;font-style:oblique;font-weight:normal" x="-92661" y="-42576">
        <tspan x="-92661" y="-42576">ColorItem</tspan>
      </text>
    </g>
    <g>
      <rect style="fill: #f3f3f3" x="-92902.2" y="-42595.6" width="112.35" height="32.2889"/>
      <rect style="fill: none; fill-opacity:0; stroke-width: 1; stroke: #000000" x="-92902.2" y="-42595.6" width="112.35" height="32.2889"/>
      <text style="fill: #000000;text-anchor:middle;font-size:9.03111;font-family:sanserif;font-style:oblique;font-weight:normal" x="-92846" y="-42576">
        <tspan x="-92846" y="-42576">AssemblyInstanceItem</tspan>
      </text>
    </g>
  </g>
</svg>
