# File Generated by xtoobj Build 5

mtllib cube.mtl

# Box01

v -5.000000 0.000000 -5.000000
v 5.000000 0.000000 5.000000
v -5.000000 0.000000 5.000000
v 5.000000 0.000000 -5.000000
v -5.000000 10.000000 -5.000000
v 5.000000 10.000000 5.000000
v 5.000000 10.000000 -5.000000
v -5.000000 10.000000 5.000000
v -5.000000 0.000000 -5.000000
v 5.000000 10.000000 -5.000000
v 5.000000 0.000000 -5.000000
v -5.000000 10.000000 -5.000000
v 5.000000 0.000000 5.000000
v 5.000000 10.000000 -5.000000
v 5.000000 0.000000 5.000000
v -5.000000 10.000000 5.000000
v -5.000000 0.000000 5.000000
v 5.000000 10.000000 5.000000
v -5.000000 0.000000 5.000000
v -5.000000 10.000000 -5.000000
# 20 vertices

vn 0.000000 -1.000000 0.000000
vn 0.000000 1.000000 0.000000
vn 0.000000 0.000000 -1.000000
vn 1.000000 0.000000 0.000000
vn 0.000000 0.000000 1.000000
vn -1.000000 0.000000 0.000000
# 6 vertex normals

vt 1.000000 1.000000 0
vt 0.000000 0.000000 0
vt 1.000000 0.000000 0
vt 0.000000 1.000000 0
vt 0.000000 1.000000 0
vt 1.000000 0.000000 0
vt 1.000000 1.000000 0
vt 0.000000 0.000000 0
vt 0.000000 1.000000 0
vt 1.000000 0.000000 0
vt 1.000000 1.000000 0
vt 0.000000 0.000000 0
vt 1.000000 1.000000 0
vt 0.000000 0.000000 0
vt 0.000000 1.000000 0
vt 1.000000 0.000000 0
vt 1.000000 1.000000 0
vt 0.000000 0.000000 0
vt 0.000000 1.000000 0
vt 1.000000 0.000000 0
# 20 texture vertices

usemtl default

f 1 1
f 1/1/1 2/2/1 3/3/1
f 2/2/1 1/1/1 4/4/1
f 5/5/2 6/6/2 7/7/2
f 6/6/2 5/5/2 8/8/2
f 9/9/3 10/10/3 11/11/3
f 10/10/3 9/9/3 12/12/3
f 4/4/4 6/6/4 13/13/4
f 6/6/4 4/4/4 14/14/4
f 15/15/5 16/16/5 17/17/5
f 16/16/5 15/15/5 18/18/5
f 19/19/6 20/20/6 1/1/6
f 20/20/6 19/19/6 8/8/6
# 12 faces
