<?xml version="1.0" encoding="UTF-8" standalone="no"?>
<svg
   xmlns:dc="http://purl.org/dc/elements/1.1/"
   xmlns:cc="http://creativecommons.org/ns#"
   xmlns:rdf="http://www.w3.org/1999/02/22-rdf-syntax-ns#"
   xmlns:svg="http://www.w3.org/2000/svg"
   xmlns="http://www.w3.org/2000/svg"
   version="1.1"
   width="744.09448"
   height="1052.3622"
   id="svg3123">
  <defs
     id="defs3125" />
  <metadata
     id="metadata3128">
    <rdf:RDF>
      <cc:Work
         rdf:about="">
        <dc:format>image/svg+xml</dc:format>
        <dc:type
           rdf:resource="http://purl.org/dc/dcmitype/StillImage" />
        <dc:title></dc:title>
      </cc:Work>
    </rdf:RDF>
  </metadata>
  <g
     id="layer1">
    <text
       x="167.18942"
       y="156.37317"
       id="text5924"
       xml:space="preserve"
       style="font-size:69.24736023px;font-style:normal;font-variant:normal;font-weight:normal;font-stretch:normal;text-align:start;line-height:125%;letter-spacing:0px;word-spacing:0px;writing-mode:lr-tb;text-anchor:start;fill:#ff5a11;fill-opacity:1;stroke:none;font-family:Ubuntu;-inkscape-font-specification:Ubuntu"><tspan
         x="167.18942"
         y="156.37317"
         id="tspan5926"><tspan
   id="tspan5928"
   style="font-size:69.24736023px;font-style:normal;font-variant:normal;font-weight:normal;font-stretch:normal;text-align:start;line-height:125%;writing-mode:lr-tb;text-anchor:start;fill:#000000;fill-opacity:1;font-family:Ubuntu;-inkscape-font-specification:Ubuntu">apple</tspan>seed</tspan></text>
    <g
       transform="matrix(0.11062055,0,0,0.10180633,-783.96506,-144.95566)"
       id="g3135"
       style="fill:#000000;fill-opacity:1;stroke:none">
      <path
         d="m 7996.088,1617.4515 c 0,0 -160,301.1146 -160,480 0,160 80,240 160,240 80,0 160,-80 160,-240 0,-160 -160,-480 -160,-480 z"
         id="path3137"
         style="fill:#000000;fill-opacity:1;stroke:none" />
    </g>
    <g
       transform="matrix(0.03418363,-0.1052064,0.09682358,0.03145988,-415.63107,872.73391)"
       id="g3907"
       style="fill:#000000;fill-opacity:1;stroke:none">
      <path
         d="m 7996.088,1617.4515 c 0,0 -160,301.1146 -160,480 0,160 80,240 160,240 80,0 160,-80 160,-240 0,-160 -160,-480 -160,-480 z"
         id="path3909"
         style="fill:#000000;fill-opacity:1;stroke:none" />
    </g>
    <g
       transform="matrix(-0.08949391,-0.06502113,0.05984026,-0.08236305,666.07058,836.91081)"
       id="g3911"
       style="fill:#000000;fill-opacity:1;stroke:none">
      <path
         d="m 7996.088,1617.4515 c 0,0 -160,301.1146 -160,480 0,160 80,240 160,240 80,0 160,-80 160,-240 0,-160 -160,-480 -160,-480 z"
         id="path3913"
         style="fill:#000000;fill-opacity:1;stroke:none" />
    </g>
    <g
       transform="matrix(-0.08949391,0.06502113,-0.05984026,-0.08236305,966.26506,-202.91852)"
       id="g3915"
       style="fill:#000000;fill-opacity:1;stroke:none">
      <path
         d="m 7996.088,1617.4515 c 0,0 -160,301.1146 -160,480 0,160 80,240 160,240 80,0 160,-80 160,-240 0,-160 -160,-480 -160,-480 z"
         id="path3917"
         style="fill:#000000;fill-opacity:1;stroke:none" />
    </g>
    <g
       transform="matrix(0.03418363,0.1052064,-0.09682358,0.03145989,70.093803,-809.74533)"
       id="g3919"
       style="fill:#ff5a11;fill-opacity:1;stroke:none">
      <path
         d="m 7996.088,1617.4515 c 0,0 -160,301.1146 -160,480 0,160 80,240 160,240 80,0 160,-80 160,-240 0,-160 -160,-480 -160,-480 z"
         id="path3921"
         style="fill:#ff5a11;fill-opacity:1;stroke:none" />
    </g>
    <text
       x="169.84448"
       y="184.31384"
       id="text3923"
       xml:space="preserve"
       style="font-size:18.91882896px;font-style:normal;font-variant:normal;font-weight:normal;font-stretch:normal;text-align:start;line-height:125%;letter-spacing:0px;word-spacing:0px;writing-mode:lr-tb;text-anchor:start;fill:#000000;fill-opacity:1;stroke:none;font-family:Ubuntu;-inkscape-font-specification:Ubuntu"><tspan
         x="169.84448"
         y="184.31384"
         id="tspan3925">open source photorealistic rendering</tspan></text>
  </g>
</svg>
