<?xml version="1.0" encoding="UTF-8" standalone="no"?>
<svg
   xmlns:dc="http://purl.org/dc/elements/1.1/"
   xmlns:cc="http://creativecommons.org/ns#"
   xmlns:rdf="http://www.w3.org/1999/02/22-rdf-syntax-ns#"
   xmlns:svg="http://www.w3.org/2000/svg"
   xmlns="http://www.w3.org/2000/svg"
   version="1.1"
   width="744.09448"
   height="1052.3622"
   id="svg3018">
  <defs
     id="defs3020" />
  <metadata
     id="metadata3023">
    <rdf:RDF>
      <cc:Work
         rdf:about="">
        <dc:format>image/svg+xml</dc:format>
        <dc:type
           rdf:resource="http://purl.org/dc/dcmitype/StillImage" />
        <dc:title></dc:title>
      </cc:Work>
    </rdf:RDF>
  </metadata>
  <g
     id="layer1">
    <g
       transform="matrix(0.11062055,0,0,0.10180633,-784.53173,-145.76658)"
       id="g3135"
       style="fill:#c8c8c8;fill-opacity:1;stroke:none">
      <path
         d="m 7996.088,1617.4515 c 0,0 -160,301.1146 -160,480 0,160 80,240 160,240 80,0 160,-80 160,-240 0,-160 -160,-480 -160,-480 z"
         id="path3137"
         style="fill:#c8c8c8;fill-opacity:1;stroke:none" />
    </g>
    <g
       transform="matrix(0.03418363,-0.1052064,0.09682358,0.03145988,-416.19775,871.92299)"
       id="g3907"
       style="fill:#c8c8c8;fill-opacity:1;stroke:none">
      <path
         d="m 7996.088,1617.4515 c 0,0 -160,301.1146 -160,480 0,160 80,240 160,240 80,0 160,-80 160,-240 0,-160 -160,-480 -160,-480 z"
         id="path3909"
         style="fill:#c8c8c8;fill-opacity:1;stroke:none" />
    </g>
    <g
       transform="matrix(-0.08949391,-0.06502113,0.05984026,-0.08236305,665.5039,836.09989)"
       id="g3911"
       style="fill:#c8c8c8;fill-opacity:1;stroke:none">
      <path
         d="m 7996.088,1617.4515 c 0,0 -160,301.1146 -160,480 0,160 80,240 160,240 80,0 160,-80 160,-240 0,-160 -160,-480 -160,-480 z"
         id="path3913"
         style="fill:#c8c8c8;fill-opacity:1;stroke:none" />
    </g>
    <g
       transform="matrix(-0.08949391,0.06502113,-0.05984026,-0.08236305,965.69838,-203.72944)"
       id="g3915"
       style="fill:#c8c8c8;fill-opacity:1;stroke:none">
      <path
         d="m 7996.088,1617.4515 c 0,0 -160,301.1146 -160,480 0,160 80,240 160,240 80,0 160,-80 160,-240 0,-160 -160,-480 -160,-480 z"
         id="path3917"
         style="fill:#c8c8c8;fill-opacity:1;stroke:none" />
    </g>
    <g
       transform="matrix(0.03418363,0.1052064,-0.09682358,0.03145989,69.527121,-810.55625)"
       id="g3919"
       style="fill:#ff5a11;fill-opacity:1;stroke:none">
      <path
         d="m 7996.088,1617.4515 c 0,0 -160,301.1146 -160,480 0,160 80,240 160,240 80,0 160,-80 160,-240 0,-160 -160,-480 -160,-480 z"
         id="path3921"
         style="fill:#ff5a11;fill-opacity:1;stroke:none" />
    </g>
  </g>
</svg>
