<?xml version="1.0" encoding="UTF-8" standalone="no"?>
<svg xmlns:rdf="http://www.w3.org/1999/02/22-rdf-syntax-ns#" xmlns="http://www.w3.org/2000/svg" height="1052.4" width="744.09" version="1.1" xmlns:cc="http://creativecommons.org/ns#" xmlns:dc="http://purl.org/dc/elements/1.1/">
	<metadata>
		<rdf:RDF>
			<cc:Work rdf:about="">
				<dc:format>image/svg+xml</dc:format>
				<dc:type rdf:resource="http://purl.org/dc/dcmitype/StillImage"/>
				<dc:title/>
			</cc:Work>
		</rdf:RDF>
	</metadata>
	<text style="writing-mode:lr-tb;letter-spacing:0px;text-anchor:start;word-spacing:0px;text-align:start;" font-weight="normal" xml:space="preserve" font-size="69.24736023px" font-style="normal" font-stretch="normal" font-variant="normal" y="145.33107" x="160.88074" font-family="Ubuntu" line-height="125%" fill="#ff5a11"><tspan x="160.88074" y="145.33107"><tspan style="writing-mode:lr-tb;text-anchor:start;text-align:start;" font-weight="normal" font-size="69.24736023px" font-stretch="normal" font-variant="normal" font-style="normal" font-family="Ubuntu" line-height="125%" fill="#000000">apple</tspan>seed</tspan></text>
	<g transform="matrix(0.11062055,0,0,0.10180633,-790.27366,-155.99777)" fill="#000">
		<path d="m7996.1,1617.5s-160,301.11-160,480c0,160,80,240,160,240s160-80,160-240-160-480-160-480z" fill="#000"/>
	</g>
	<g transform="matrix(0.03418363,-0.1052064,0.09682358,0.03145988,-421.93976,861.6918)" fill="#000">
		<path d="m7996.1,1617.5s-160,301.11-160,480c0,160,80,240,160,240s160-80,160-240-160-480-160-480z" fill="#000"/>
	</g>
	<g transform="matrix(-0.08949391,-0.06502113,0.05984026,-0.08236305,659.76189,825.8687)" fill="#000">
		<path d="m7996.1,1617.5s-160,301.11-160,480c0,160,80,240,160,240s160-80,160-240-160-480-160-480z" fill="#000"/>
	</g>
	<g transform="matrix(-0.08949391,0.06502113,-0.05984026,-0.08236305,959.95637,-213.96063)" fill="#000">
		<path d="m7996.1,1617.5s-160,301.11-160,480c0,160,80,240,160,240s160-80,160-240-160-480-160-480z" fill="#000"/>
	</g>
	<g transform="matrix(0.03418363,0.1052064,-0.09682358,0.03145989,63.785113,-820.78746)" fill="#ff5a11">
		<path d="m7996.1,1617.5s-160,301.11-160,480c0,160,80,240,160,240s160-80,160-240-160-480-160-480z" fill="#ff5a11"/>
	</g>
	<text style="writing-mode:lr-tb;letter-spacing:0px;text-anchor:start;word-spacing:0px;text-align:start;" font-weight="normal" xml:space="preserve" font-size="18.16113091px" font-style="normal" font-stretch="normal" font-variant="normal" y="172.64125" x="163.18378" font-family="Ubuntu" line-height="125%" fill="#000000"><tspan y="172.64125" x="163.18378" font-weight="bold">open source photorealistic rendering</tspan></text>
</svg>
